<REAPER_PROJECT 0.1 "7.33/macOS-arm64" 1740335909
  <NOTES 0 2
  >
  RIPPLE 0
  GROUPOVERRIDE 0 0 0
  AUTOXFADE 129
  ENVATTACH 3
  POOLEDENVATTACH 0
  MIXERUIFLAGS 11 48
  ENVFADESZ10 40
  PEAKGAIN 1
  FEEDBACK 0
  PANLAW 1
  PROJOFFS 0 0 0
  MAXPROJLEN 0 0
  GRID 3199 8 1 8 1 0 0 0
  TIMEMODE 1 5 -1 30 0 0 -1
  VIDEO_CONFIG 0 0 65792
  PANMODE 3
  PANLAWFLAGS 3
  CURSOR 0
  ZOOM 1.04825960103961 0 0
  VZOOMEX 6 0
  USE_REC_CFG 0
  RECMODE 1
  SMPTESYNC 0 30 100 40 1000 300 0 0 1 0 0
  LOOP 1
  LOOPGRAN 0 4
  RECORD_PATH "Media" ""
  <RECORD_CFG
    ZXZhdxgAAQ==
  >
  <APPLYFX_CFG
  >
  RENDER_FILE ""
  RENDER_PATTERN ""
  RENDER_FMT 0 2 0
  RENDER_1X 0
  RENDER_RANGE 1 0 0 18 1000
  RENDER_RESAMPLE 3 0 1
  RENDER_ADDTOPROJ 0
  RENDER_STEMS 0
  RENDER_DITHER 0
  TIMELOCKMODE 1
  TEMPOENVLOCKMODE 1
  ITEMMIX 1
  DEFPITCHMODE 589824 0
  TAKELANE 1
  SAMPLERATE 44100 0 0
  <RENDER_CFG
    ZXZhdxgAAQ==
  >
  LOCK 1
  <METRONOME 6 2
    VOL 0.25 0.125
    BEATLEN 4
    FREQ 1760 880 1
    SAMPLES "" "" "" ""
    SPLIGNORE 0 0
    SPLDEF 2 660 "" 0 ""
    SPLDEF 3 440 "" 0 ""
    PATTERN 0 169
    PATTERNSTR ABBB
    MULT 1
  >
  GLOBAL_AUTO -1
  TEMPO 120 4 4 0
  PLAYRATE 1 0 0.25 4
  SELECTION 5.5 5.5
  SELECTION2 5.5 5.5
  MASTERAUTOMODE 0
  MASTERTRACKHEIGHT 0 0
  MASTERPEAKCOL 16576
  MASTERMUTESOLO 0
  MASTERTRACKVIEW 0 0.6667 0.5 0.5 0 0 0 0 0 0 0 0 0 0
  MASTERHWOUT 0 0 1 0 0 0 0 -1
  MASTER_NCH 2 2
  MASTER_VOLUME 0.33829259018268 0 -1 -1 1
  MASTER_PANMODE 3
  MASTER_PANLAWFLAGS 3
  MASTER_FX 1
  MASTER_SEL 0
  <MASTERFXLIST
    WNDRECT 32 548 815 263
    SHOW 0
    LASTSEL 0
    DOCKED 0
    BYPASS 0 0 0
    <AU "AU: AUReverb2 (Apple)" "Apple: AUReverb2" "" 1635083896 1920361010 1634758764
      6QMAAAAAAAACAAAAAQAAAAAAAAACAAAAAAAAAAIAAAABAAAAAAAAAAIAAAAAAAAALwIAADw/eG1sIHZlcnNpb249IjEuMCIgZW5jb2Rpbmc9IlVURi04Ij8+CjwhRE9D
      VFlQRSBwbGlzdCBQVUJMSUMgIi0vL0FwcGxlLy9EVEQgUExJU1QgMS4wLy9FTiIgImh0dHA6Ly93d3cuYXBwbGUuY29tL0RURHMvUHJvcGVydHlMaXN0LTEuMC5kdGQi
      Pgo8cGxpc3QgdmVyc2lvbj0iMS4wIj4KPGRpY3Q+Cgk8a2V5PmRhdGE8L2tleT4KCTxkYXRhPgoJQUFBQUFBQUFBQUFBQUFBSEFBQUFBRUpOTXpRQUFBQUJQNEFBQUFB
      QUFBSThBeEp2QUFBQUF6NzlkMElBQUFBRVA0QUEKCUFBQUFBQVUvQUFBQUFBQUFCa080VU9VPQoJPC9kYXRhPgoJPGtleT5tYW51ZmFjdHVyZXI8L2tleT4KCTxpbnRl
      Z2VyPjE2MzQ3NTg3NjQ8L2ludGVnZXI+Cgk8a2V5Pm5hbWU8L2tleT4KCTxzdHJpbmc+VW50aXRsZWQ8L3N0cmluZz4KCTxrZXk+c3VidHlwZTwva2V5PgoJPGludGVn
      ZXI+MTkyMDM2MTAxMDwvaW50ZWdlcj4KCTxrZXk+dHlwZTwva2V5PgoJPGludGVnZXI+MTYzNTA4Mzg5NjwvaW50ZWdlcj4KCTxrZXk+dmVyc2lvbjwva2V5PgoJPGlu
      dGVnZXI+MDwvaW50ZWdlcj4KPC9kaWN0Pgo8L3BsaXN0PgoBAAAAAAAAAAAA
    >
    FLOATPOS 0 0 0 0
    FXID {2E4235C9-4011-7540-9681-3227452B4A72}
    WAK 0 0
  >
  <MASTERPLAYSPEEDENV
    EGUID {62061924-2D06-CA41-B745-01B95C42C262}
    ACT 0 -1
    VIS 0 1 1
    LANEHEIGHT 0 0
    ARM 0
    DEFSHAPE 0 -1 -1
  >
  <TEMPOENVEX
    EGUID {A8FBE181-5174-A549-BE0D-A3409F4C84EC}
    ACT 0 -1
    VIS 1 0 1
    LANEHEIGHT 0 0
    ARM 0
    DEFSHAPE 1 -1 -1
  >
  <PROJBAY
  >
  <TRACK {58856C49-DCFE-B24A-85A4-61A95C2CD20B}
    NAME "Generated score"
    PEAKCOL 16576
    BEAT -1
    AUTOMODE 0
    PANLAWFLAGS 3
    VOLPAN 1.82452995868445 0 -1 -1 1
    MUTESOLO 0 0 0
    IPHASE 0
    PLAYOFFS 0 1
    ISBUS 0 0
    BUSCOMP 0 0 0 0 0
    SHOWINMIX 1 0.6667 0.5 1 0.5 0 0 0
    FIXEDLANES 9 0 0 0 0
    SEL 1
    REC 1 5088 1 0 0 0 0 0
    VU 2
    TRACKHEIGHT 0 0 0 0 0 0 0
    INQ 0 0 0 0.5 100 0 0 100
    NCHAN 2
    FX 1
    TRACKID {58856C49-DCFE-B24A-85A4-61A95C2CD20B}
    PERF 0
    MIDIOUT -1
    MAINSEND 1 0
    <FXCHAIN
      WNDRECT 0 121 807 690
      SHOW 0
      LASTSEL 0
      DOCKED 0
    >
    <ITEM
      POSITION 0
      SNAPOFFS 0
      LENGTH 480
      LOOP 1
      ALLTAKES 0
      FADEIN 1 0 0 1 0 0 0
      FADEOUT 1 0 0 1 0 0 0
      MUTE 0 0
      SEL 1
      IGUID {0E6C47B9-20F8-7E4C-BC71-D44ADF25FE3E}
      IID 16
      NAME ""
      VOLPAN 1 0 1 -1
      SOFFS 0 0
      PLAYRATE 1 1 0 -1 0 0.0025
      CHANMODE 0
      GUID {9F8F4EC3-FE12-994B-80AD-DBD7A123B180}
      <SOURCE MIDI
        HASDATA 1 960 QN
        CCINTERP 32
        POOLEDEVTS {195D98A5-58BE-6C4E-BBD4-D6541FDC2095}
        E 52 90 24 34
        E 0 91 26 34
        E 0 91 29 34
        E 0 92 2e 34
        E 0 92 5d 34
        E 2120 82 5d 00
        E 0 92 45 34
        E 2119 80 24 00
        E 0 81 26 00
        E 0 81 29 00
        E 0 82 2e 00
        E 0 82 45 00
        E 0 90 25 34
        E 0 91 28 34
        E 0 91 2c 34
        E 0 92 2f 34
        E 0 92 33 34
        E 2120 80 25 00
        E 0 82 2f 00
        E 0 90 23 34
        E 0 92 31 34
        E 2119 82 33 00
        E 0 80 23 00
        E 0 82 31 00
        E 0 90 27 34
        E 0 92 3b 34
        E 0 92 55 34
        E 2120 81 28 00
        E 0 80 27 00
        E 0 82 3b 00
        E 0 90 28 34
        E 0 91 2a 34
        E 0 92 39 34
        E 2119 81 2c 00
        E 0 80 28 00
        E 0 82 39 00
        E 0 90 21 34
        E 0 91 28 34
        E 0 92 2c 34
        E 2120 80 21 00
        E 0 81 28 00
        E 0 82 2c 00
        E 0 90 23 34
        E 0 91 26 34
        E 0 92 2d 34
        E 2119 80 23 00
        E 0 81 26 00
        E 0 90 26 34
        E 0 91 28 34
        E 1703 82 55 00
        E 0 80 26 00
        E 0 81 28 00
        E 0 90 23 33
        E 0 91 2b 33
        E 0 92 56 33
        E 801 81 2a 00
        E 0 82 2d 00
        E 0 80 23 00
        E 0 90 24 33
        E 0 91 28 33
        E 0 92 2f 33
        E 801 82 56 00
        E 0 80 24 00
        E 0 82 2f 00
        E 0 90 21 33
        E 0 92 30 33
        E 0 92 59 33
        E 801 81 2b 00
        E 0 81 28 00
        E 0 80 21 00
        E 0 90 22 33
        E 0 91 26 33
        E 0 91 2d 33
        E 801 82 30 00
        E 0 82 59 00
        E 0 80 22 00
        E 0 81 2d 00
        E 0 90 24 34
        E 0 91 29 34
        E 0 92 3a 34
        E 0 92 5d 34
        E 1362 81 26 00
        E 0 80 24 00
        E 0 82 3a 00
        E 0 82 5d 00
        E 0 90 25 34
        E 0 91 27 34
        E 0 92 3c 34
        E 0 92 5c 34
        E 1362 81 29 00
        E 0 80 25 00
        E 0 81 27 00
        E 0 82 3c 00
        E 0 82 5c 00
        E 0 90 2c 34
        E 0 91 2e 34
        E 0 91 31 34
        E 0 92 35 34
        E 0 92 54 34
        E 1362 81 2e 00
        E 0 82 35 00
        E 0 82 54 00
        E 0 91 35 34
        E 0 92 3a 34
        E 0 92 60 34
        E 4256 80 2c 00
        E 0 81 31 00
        E 0 81 35 00
        E 0 82 3a 00
        E 0 82 60 00
        E 0 90 21 34
        E 0 91 2a 34
        E 0 91 2b 34
        E 0 92 3e 34
        E 0 92 53 34
        E 2128 80 21 00
        E 0 81 2a 00
        E 0 82 3e 00
        E 0 90 2a 34
        E 0 91 3e 34
        E 0 92 5d 34
        E 2128 82 53 00
        E 0 81 3e 00
        E 0 82 5d 00
        E 0 91 2d 34
        E 0 92 3b 34
        E 0 92 3e 34
        E 2128 80 2a 00
        E 0 81 2d 00
        E 0 90 28 34
        E 0 91 30 34
        E 2128 82 3b 00
        E 0 82 3e 00
        E 0 80 28 00
        E 0 81 30 00
        E 0 90 26 34
        E 0 91 28 34
        E 0 92 47 34
        E 0 92 60 34
        E 2128 81 28 00
        E 0 82 60 00
        E 0 91 2a 34
        E 0 92 5d 34
        E 2128 82 5d 00
        E 0 92 58 34
        E 1709 81 2b 00
        E 0 82 58 00
        E 0 91 2d 33
        E 0 92 55 33
        E 804 80 26 00
        E 0 82 47 00
        E 0 81 2d 00
        E 0 90 28 33
        E 0 91 2c 33
        E 0 92 45 33
        E 805 81 2a 00
        E 0 80 28 00
        E 0 82 45 00
        E 0 90 27 33
        E 0 91 28 33
        E 0 92 47 33
        E 804 82 55 00
        E 0 81 28 00
        E 0 91 2a 33
        E 0 92 52 33
        E 804 80 27 00
        E 0 82 47 00
        E 0 90 23 34
        E 0 92 3f 34
        E 1368 81 2a 00
        E 0 82 52 00
        E 0 80 23 00
        E 0 90 24 34
        E 0 91 29 34
        E 0 92 4f 34
        E 1367 81 29 00
        E 0 82 4f 00
        E 0 91 2b 34
        E 0 92 5e 34
        E 1367 80 24 00
        E 0 82 5e 00
        E 0 90 22 34
        E 0 92 3c 34
        E 4273 81 2c 00
        E 0 82 3f 00
        E 0 81 2b 00
        E 0 80 22 00
        E 0 82 3c 00
        E 0 90 23 34
        E 0 91 25 34
        E 0 91 26 34
        E 0 92 2a 34
        E 0 92 45 34
        E 2137 80 23 00
        E 0 81 25 00
        E 0 82 2a 00
        E 0 82 45 00
        E 0 90 25 34
        E 0 91 2a 34
        E 0 92 2f 34
        E 0 92 39 34
        E 2136 81 26 00
        E 0 80 25 00
        E 0 82 2f 00
        E 0 82 39 00
        E 0 90 26 34
        E 0 91 31 34
        E 0 92 47 34
        E 0 92 51 34
        E 2137 80 26 00
        E 0 81 31 00
        E 0 82 51 00
        E 0 90 28 34
        E 0 91 32 34
        E 0 92 4f 34
        E 2137 81 2a 00
        E 0 82 47 00
        E 0 80 28 00
        E 0 81 32 00
        E 0 82 4f 00
        E 0 90 2a 34
        E 0 91 2b 34
        E 0 91 34 34
        E 0 92 3b 34
        E 0 92 3e 34
        E 2136 80 2a 00
        E 0 81 34 00
        E 0 82 3e 00
        E 0 90 28 34
        E 0 91 39 34
        E 0 92 3c 34
        E 2137 82 3b 00
        E 0 81 39 00
        E 0 91 3b 34
        E 0 92 3e 34
        E 1716 80 28 00
        E 0 81 3b 00
        E 0 82 3e 00
        E 0 90 29 33
        E 0 91 39 33
        E 0 92 40 33
        E 807 81 2b 00
        E 0 82 40 00
        E 0 91 2e 33
        E 0 92 3e 33
        E 808 82 3c 00
        E 0 81 39 00
        E 0 91 37 33
        E 0 92 3f 33
        E 807 80 29 00
        E 0 82 3e 00
        E 0 90 2c 33
        E 0 92 3c 33
        E 808 81 2e 00
        E 0 81 37 00
        E 0 80 2c 00
        E 0 82 3c 00
        E 0 90 2b 34
        E 0 91 2c 34
        E 0 91 3a 34
        E 0 92 48 34
        E 1373 80 2b 00
        E 0 81 2c 00
        E 0 82 48 00
        E 0 90 2a 34
        E 0 91 2f 34
        E 0 92 49 34
        E 1373 82 3f 00
        E 0 81 3a 00
        E 0 81 2f 00
        E 0 82 49 00
        E 0 91 2c 34
        E 0 91 3f 34
        E 0 92 46 34
        E 0 92 47 34
        E 1373 82 46 00
        E 0 82 47 00
        E 0 92 52 34
        E 0 92 53 34
        E 4290 81 2c 00
        E 0 91 31 34
        E 2145 80 2a 00
        E 0 81 3f 00
        E 0 82 52 00
        E 0 82 53 00
        E 0 81 31 00
        E 0 90 23 34
        E 0 91 25 34
        E 0 91 27 34
        E 0 92 2a 34
        E 0 92 3a 34
        E 2145 80 23 00
        E 0 81 27 00
        E 0 82 3a 00
        E 0 90 22 34
        E 0 91 29 34
        E 0 92 38 34
        E 2145 81 29 00
        E 0 82 38 00
        E 0 91 27 34
        E 0 92 35 34
        E 1723 81 25 00
        E 0 80 22 00
        E 0 82 35 00
        E 0 90 25 34
        E 0 91 29 34
        E 0 92 46 34
        E 1378 82 2a 00
        E 0 81 27 00
        E 0 80 25 00
        E 0 82 46 00
        E 0 90 27 34
        E 0 91 2a 34
        E 0 92 31 34
        E 0 92 52 34
        E 4308 81 29 00
        E 0 80 27 00
        E 0 90 29 34
        E 0 91 2c 34
        E 2154 81 2a 00
        E 0 82 31 00
        E 0 82 52 00
        E 0 80 29 00
        E 0 90 2a 34
        E 0 91 2e 34
        E 0 92 35 34
        E 0 92 3d 34
        E 2153 80 2a 00
        E 0 81 2e 00
        E 0 82 35 00
        E 0 90 29 34
        E 0 91 30 34
        E 0 92 33 34
        E 2154 82 3d 00
        E 0 81 30 00
        E 0 82 33 00
        E 0 91 2e 34
        E 0 92 31 34
        E 0 92 3c 34
        E 1730 81 2c 00
        E 0 80 29 00
        E 0 82 31 00
        E 0 90 2c 34
        E 0 91 35 34
        E 0 92 3d 34
        E 1384 81 2e 00
        E 0 82 3c 00
        E 0 91 3a 34
        E 0 92 48 34
        E 4325 80 2c 00
        E 0 81 35 00
        E 0 82 3d 00
        E 0 81 3a 00
        E 0 82 48 00
        E 0 90 23 34
        E 0 91 2a 34
        E 0 91 2b 34
        E 0 92 3e 34
        E 0 92 51 34
        E 2162 80 23 00
        E 0 81 2a 00
        E 0 82 51 00
        E 0 90 2a 34
        E 0 91 2f 34
        E 0 92 45 34
        E 2162 82 3e 00
        E 0 81 2f 00
        E 0 82 45 00
        E 0 91 32 34
        E 0 92 53 34
        E 0 92 5d 34
        E 2163 80 2a 00
        E 0 81 32 00
        E 0 82 53 00
        E 0 82 5d 00
        E 0 90 28 34
        E 0 91 30 34
        E 0 92 56 34
        E 0 92 5f 34
        E 2162 80 28 00
        E 0 81 30 00
        E 0 82 56 00
        E 0 82 5f 00
        E 0 90 26 34
        E 0 91 28 34
        E 0 92 2f 34
        E 0 92 3c 34
        E 2162 81 28 00
        E 0 82 3c 00
        E 0 91 2a 34
        E 0 92 39 34
        E 2163 82 39 00
        E 0 92 34 34
        E 1737 81 2b 00
        E 0 82 34 00
        E 0 91 2d 33
        E 0 92 31 33
        E 817 80 26 00
        E 0 82 2f 00
        E 0 81 2d 00
        E 0 90 21 33
        E 0 91 2c 33
        E 0 92 34 33
        E 817 81 2a 00
        E 0 80 21 00
        E 0 82 34 00
        E 0 90 23 33
        E 0 91 28 33
        E 0 92 33 33
        E 818 82 31 00
        E 0 81 28 00
        E 0 82 33 00
        E 0 91 27 33
        E 0 92 2e 33
        E 0 92 36 33
        E 817 80 23 00
        E 0 81 27 00
        E 0 82 2e 00
        E 0 82 36 00
        E 0 90 2a 34
        E 0 91 33 34
        E 0 92 3a 34
        E 0 92 47 34
        E 1390 81 2c 00
        E 0 80 2a 00
        E 0 82 3a 00
        E 0 82 47 00
        E 0 90 29 34
        E 0 91 2b 34
        E 0 92 38 34
        E 0 92 48 34
        E 1389 80 29 00
        E 0 81 2b 00
        E 0 82 38 00
        E 0 90 2b 34
        E 0 91 2c 34
        E 0 92 46 34
        E 1389 82 48 00
        E 0 82 46 00
        E 0 92 52 34
        E 0 92 54 34
        E 4343 80 2b 00
        E 0 81 2c 00
        E 0 82 52 00
        E 0 90 29 34
        E 0 91 2b 34
        E 0 92 50 34
        E 2171 81 33 00
        E 0 82 54 00
        E 0 80 29 00
        E 0 82 50 00
        E 0 90 27 34
        E 0 91 2c 34
        E 0 92 35 34
        E 0 92 48 34
        E 2171 81 2b 00
        E 0 80 27 00
        E 0 90 25 34
        E 0 91 2e 34
        E 2171 80 25 00
        E 0 81 2e 00
        E 0 90 27 34
        E 0 91 31 34
        E 1744 82 35 00
        E 0 82 48 00
        E 0 81 31 00
        E 0 91 29 34
        E 0 92 3c 34
        E 0 92 61 34
        E 1395 80 27 00
        E 0 82 3c 00
        E 0 82 61 00
        E 0 90 25 34
        E 0 92 33 34
        E 0 92 48 34
        E 4359 80 25 00
        E 0 82 33 00
        E 0 82 48 00
        E 0 90 24 34
        E 0 92 31 34
        E 0 92 46 34
        E 2180 81 2c 00
        E 0 81 29 00
        E 0 80 24 00
        E 0 82 31 00
        E 0 82 46 00
        E 0 90 2c 34
        E 0 91 2e 34
        E 0 91 31 34
        E 0 92 35 34
        E 0 92 3c 34
        E 2180 80 2c 00
        E 0 82 35 00
        E 0 82 3c 00
        E 0 90 29 34
        E 0 92 36 34
        E 0 92 3f 34
        E 2179 80 29 00
        E 0 82 3f 00
        E 0 90 2c 34
        E 0 92 41 34
        E 1751 81 2e 00
        E 0 81 31 00
        E 0 82 36 00
        E 0 80 2c 00
        E 0 82 41 00
        E 0 90 29 34
        E 0 91 2a 34
        E 0 91 2c 34
        E 0 92 2e 34
        E 0 92 3d 34
        E 1401 82 2e 00
        E 0 82 3d 00
        E 0 92 3a 34
        E 0 92 49 34
        E 4377 80 29 00
        E 0 81 2a 00
        E 0 81 2c 00
        E 0 82 3a 00
        E 0 82 49 00
        E 0 90 2b 34
        E 0 91 34 34
        E 0 91 3c 34
        E 0 92 51 34
        E 0 92 5f 34
        E 2189 81 34 00
        E 0 81 3c 00
        E 0 82 51 00
        E 0 82 5f 00
        E 0 91 2f 34
        E 0 91 30 34
        E 0 92 34 34
        E 0 92 45 34
        E 2188 81 2f 00
        E 0 81 30 00
        E 0 82 34 00
        E 0 82 45 00
        E 0 91 34 34
        E 0 91 3c 34
        E 0 92 47 34
        E 0 92 5d 34
        E 2189 80 2b 00
        E 0 81 3c 00
        E 0 82 47 00
        E 0 90 29 34
        E 0 91 3e 34
        E 0 92 48 34
        E 2188 81 34 00
        E 0 82 5d 00
        E 0 80 29 00
        E 0 81 3e 00
        E 0 82 48 00
        E 0 90 28 34
        E 0 91 29 34
        E 0 91 30 34
        E 0 92 32 34
        E 0 92 39 34
        E 2189 80 28 00
        E 0 81 29 00
        E 0 81 30 00
        E 0 82 39 00
        E 0 90 29 34
        E 0 91 2b 34
        E 0 91 2d 34
        E 0 92 3a 34
        E 2188 81 2b 00
        E 0 91 30 34
        E 1758 82 32 00
        E 0 81 2d 00
        E 0 81 30 00
        E 0 91 2b 33
        E 0 91 32 33
        E 0 92 33 33
        E 827 80 29 00
        E 0 82 3a 00
        E 0 81 2b 00
        E 0 81 32 00
        E 0 90 2b 33
        E 0 91 2c 33
        E 0 91 2e 33
        E 0 92 3c 33
        E 828 82 33 00
        E 0 80 2b 00
        E 0 81 2e 00
        E 0 82 3c 00
        E 0 90 29 33
        E 0 91 30 33
        E 0 92 31 33
        E 0 92 3f 33
        E 827 80 29 00
        E 0 81 30 00
        E 0 82 3f 00
        E 0 90 2a 33
        E 0 91 2e 33
        E 0 92 41 33
        E 827 82 31 00
        E 0 81 2e 00
        E 0 82 41 00
        E 0 91 35 34
        E 0 92 3a 34
        E 0 92 3d 34
        E 1406 81 2c 00
        E 0 80 2a 00
        E 0 81 35 00
        E 0 82 3a 00
        E 0 90 2c 34
        E 0 91 2d 34
        E 0 91 34 34
        E 0 92 3b 34
        E 1407 80 2c 00
        E 0 81 2d 00
        E 0 82 3b 00
        E 0 90 2a 34
        E 0 91 2c 34
        E 0 92 45 34
        E 1406 82 3d 00
        E 0 82 45 00
        E 0 92 49 34
        E 0 92 51 34
        E 4394 81 34 00
        E 0 80 2a 00
        E 0 81 2c 00
        E 0 82 49 00
        E 0 82 51 00
        E 0 90 27 34
        E 0 91 29 34
        E 0 91 2b 34
        E 0 92 3a 34
        E 0 92 3e 34
        E 2198 82 3a 00
        E 0 82 3e 00
        E 0 92 2e 34
        E 0 92 4a 34
        E 2197 80 27 00
        E 0 81 2b 00
        E 0 82 2e 00
        E 0 82 4a 00
        E 0 90 26 34
        E 0 91 27 34
        E 0 92 2b 34
        E 0 92 46 34
        E 2197 81 29 00
        E 0 80 26 00
        E 0 82 2b 00
        E 0 90 24 34
        E 0 91 2b 34
        E 0 92 2c 34
        E 2198 81 27 00
        E 0 82 46 00
        E 0 80 24 00
        E 0 82 2c 00
        E 0 90 22 34
        E 0 91 2c 34
        E 0 92 3f 34
        E 0 92 60 34
        E 2197 81 2c 00
        E 0 82 60 00
        E 0 91 29 34
        E 0 92 62 34
        E 2197 82 3f 00
        E 0 81 29 00
        E 0 82 62 00
        E 0 91 27 34
        E 0 92 3e 34
        E 0 92 60 34
        E 1765 81 27 00
        E 0 82 60 00
        E 0 91 29 33
        E 0 92 5d 33
        E 831 81 2b 00
        E 0 80 22 00
        E 0 90 24 33
        E 0 91 28 33
        E 830 82 3e 00
        E 0 81 29 00
        E 0 91 2b 33
        E 0 92 3b 33
        E 831 82 5d 00
        E 0 80 24 00
        E 0 90 26 33
        E 0 92 5a 33
        E 830 81 28 00
        E 0 82 3b 00
        E 0 80 26 00
        E 0 82 5a 00
        E 0 90 23 34
        E 0 91 2a 34
        E 0 92 34 34
        E 0 92 56 34
        E 1412 81 2b 00
        E 0 81 2a 00
        E 0 82 34 00
        E 0 82 56 00
        E 0 91 28 34
        E 0 91 2c 34
        E 0 92 33 34
        E 0 92 55 34
        E 1412 80 23 00
        E 0 81 28 00
        E 0 82 33 00
        E 0 82 55 00
        E 0 90 27 34
        E 0 91 2a 34
        E 0 92 2f 34
        E 0 92 40 34
        E 1412 81 2c 00
        E 0 82 2f 00
        E 0 82 40 00
        E 0 91 28 34
        E 0 92 2c 34
        E 0 92 3b 34
        E 4413 80 27 00
        E 0 81 2a 00
        E 0 90 25 34
        E 0 91 27 34
        E 2206 82 3b 00
        E 0 80 25 00
        E 0 90 23 34
        E 0 92 3d 34
        E 2206 81 27 00
        E 0 80 23 00
        E 0 90 21 34
        E 0 91 2a 34
        E 2206 82 2c 00
        E 0 80 21 00
        E 0 81 2a 00
        E 0 90 23 34
        E 0 91 2c 34
        E 0 92 2d 34
        E 1772 81 28 00
        E 0 82 3d 00
        E 0 80 23 00
        E 0 81 2c 00
        E 0 82 2d 00
        E 0 90 2c 34
        E 0 91 2d 34
        E 0 91 31 34
        E 0 92 34 34
        E 0 92 47 34
        E 1418 81 2d 00
        E 0 82 34 00
        E 0 82 47 00
        E 0 91 34 34
        E 0 92 39 34
        E 0 92 53 34
        E 4430 82 39 00
        E 0 82 53 00
        E 0 92 36 34
        E 0 92 51 34
        E 2215 80 2c 00
        E 0 81 31 00
        E 0 82 36 00
        E 0 82 51 00
        E 0 90 2a 34
        E 0 91 2c 34
        E 0 92 49 34
        E 0 92 5d 34
        E 2215 81 34 00
        E 0 81 2c 00
        E 0 91 2f 34
        E 0 91 32 34
        E 2215 81 2f 00
        E 0 91 34 34
        E 1779 80 2a 00
        E 0 82 49 00
        E 0 81 34 00
        E 0 90 28 34
        E 0 91 2a 34
        E 0 92 3d 34
        E 1423 82 5d 00
        E 0 81 32 00
        E 0 80 28 00
        E 0 82 3d 00
        E 0 90 21 34
        E 0 91 28 34
        E 0 92 32 34
        E 0 92 55 34
        E 4448 81 2a 00
        E 0 80 21 00
        E 0 81 28 00
        E 0 82 32 00
        E 0 82 55 00
        E 0 90 2b 34
        E 0 91 2c 34
        E 0 91 35 34
        E 0 92 3c 34
        E 0 92 3f 34
        E 2224 81 35 00
        E 0 82 3c 00
        E 0 82 3f 00
        E 0 91 30 34
        E 0 92 35 34
        E 0 92 4b 34
        E 2224 80 2b 00
        E 0 81 30 00
        E 0 82 4b 00
        E 0 90 27 34
        E 0 91 2b 34
        E 0 92 48 34
        E 2223 80 27 00
        E 0 81 2b 00
        E 0 90 25 34
        E 0 91 2e 34
        E 2224 82 48 00
        E 0 80 25 00
        E 0 81 2e 00
        E 0 90 22 34
        E 0 91 31 34
        E 0 92 60 34
        E 2224 81 2c 00
        E 0 81 31 00
        E 0 82 60 00
        E 0 91 2a 34
        E 0 91 33 34
        E 0 92 61 34
        E 2224 82 35 00
        E 0 81 2a 00
        E 0 81 33 00
        E 0 91 2c 34
        E 0 91 35 34
        E 0 92 36 34
        E 1786 80 22 00
        E 0 81 2c 00
        E 0 81 35 00
        E 0 90 23 33
        E 0 91 2e 33
        E 0 91 33 33
        E 841 82 61 00
        E 0 80 23 00
        E 0 81 2e 00
        E 0 90 28 33
        E 0 91 2c 33
        E 0 92 5f 33
        E 841 82 36 00
        E 0 81 33 00
        E 0 91 31 33
        E 0 92 39 33
        E 840 81 2c 00
        E 0 82 5f 00
        E 0 81 31 00
        E 0 91 2a 33
        E 0 91 32 33
        E 0 92 61 33
        E 841 80 28 00
        E 0 82 39 00
        E 0 81 2a 00
        E 0 81 32 00
        E 0 82 61 00
        E 0 90 21 34
        E 0 91 26 34
        E 0 91 28 34
        E 0 92 2a 34
        E 0 92 55 34
        E 1429 81 26 00
        E 0 82 2a 00
        E 0 82 55 00
        E 0 91 29 34
        E 0 92 2b 34
        E 0 92 54 34
        E 1429 80 21 00
        E 0 82 2b 00
        E 0 90 26 34
        E 0 92 2d 34
        E 1429 82 54 00
        E 0 82 2d 00
        E 0 92 39 34
        E 0 92 60 34
        E 4466 81 28 00
        E 0 80 26 00
        E 0 90 28 34
        E 0 91 2b 34
        E 2232 81 29 00
        E 0 82 39 00
        E 0 82 60 00
        E 0 80 28 00
        E 0 90 29 34
        E 0 91 2d 34
        E 0 92 34 34
        E 0 92 3c 34
        E 2233 80 29 00
        E 0 81 2d 00
        E 0 82 34 00
        E 0 90 28 34
        E 0 91 2f 34
        E 0 92 32 34
        E 2233 82 3c 00
        E 0 81 2f 00
        E 0 82 32 00
        E 0 91 2d 34
        E 0 92 30 34
        E 0 92 3b 34
        E 1793 81 2b 00
        E 0 80 28 00
        E 0 82 30 00
        E 0 90 2b 34
        E 0 91 34 34
        E 0 92 3c 34
        E 1435 81 2d 00
        E 0 82 3b 00
        E 0 91 39 34
        E 0 92 47 34
        E 4484 82 3c 00
        E 0 81 39 00
        E 0 91 3c 34
        E 0 92 3e 34
        E 2242 80 2b 00
        E 0 81 34 00
        E 0 82 47 00
        E 0 81 3c 00
        E 0 82 3e 00
        E 0 90 26 34
        E 0 91 28 34
        E 0 91 2b 34
        E 0 92 3c 34
        E 0 92 53 34
        E 2241 81 28 00
        E 0 82 3c 00
        E 0 82 53 00
        E 0 91 2a 34
        E 0 92 3b 34
        E 0 92 51 34
        E 2242 82 51 00
        E 0 92 4c 34
        E 1801 80 26 00
        E 0 82 3b 00
        E 0 82 4c 00
        E 0 90 28 34
        E 0 92 3e 34
        E 0 92 5f 34
        E 1440 81 2b 00
        E 0 80 28 00
        E 0 82 3e 00
        E 0 82 5f 00
        E 0 90 23 34
        E 0 91 28 34
        E 0 92 2b 34
        E 0 92 56 34
        E 9004 81 28 00
        E 0 82 2b 00
        E 0 91 2b 36
        E 0 92 2d 36
        E 2250 81 2a 00
        E 0 80 23 00
        E 0 81 2b 00
        E 0 82 2d 00
        E 0 90 24 36
        E 0 91 29 36
        E 0 91 2d 36
        E 0 92 2e 36
        E 2251 82 56 00
        E 0 80 24 00
        E 0 81 29 00
        E 0 81 2d 00
        E 0 82 2e 00
        E 0 90 29 36
        E 0 91 2b 36
        E 0 91 2e 36
        E 0 92 39 36
        E 0 92 3e 36
        E 2251 81 2b 00
        E 0 91 30 3b
        E 1758 81 2e 00
        E 0 82 39 00
        E 0 82 3e 00
        E 0 91 31 3b
        E 0 92 38 3b
        E 0 92 3f 3b
        E 1759 80 29 00
        E 0 81 30 00
        E 0 81 31 00
        E 0 82 38 00
        E 0 82 3f 00
        E 0 90 22 3b
        E 0 91 24 3b
        E 0 91 2c 3b
        E 0 92 35 3b
        E 0 92 3d 3b
        E 1758 80 22 00
        E 0 81 24 00
        E 0 90 24 45
        E 0 91 27 45
        E 1374 82 35 00
        E 0 82 3d 00
        E 0 80 24 00
        E 0 81 27 00
        E 0 90 23 45
        E 0 91 28 45
        E 0 92 36 45
        E 0 92 3f 45
        E 1374 80 23 00
        E 0 82 36 00
        E 0 82 3f 00
        E 0 90 27 45
        E 0 92 47 45
        E 0 92 49 45
        E 1374 81 28 00
        E 0 80 27 00
        E 0 82 49 00
        E 0 90 28 5a
        E 0 91 2a 5a
        E 0 92 4b 5a
        E 1073 81 2c 00
        E 0 80 28 00
        E 0 81 2a 00
        E 0 82 4b 00
        E 0 90 2a 5a
        E 0 91 2b 5a
        E 0 91 2d 5a
        E 0 92 4a 5a
        E 1073 82 47 00
        E 0 80 2a 00
        E 0 81 2d 00
        E 0 82 4a 00
        E 0 90 28 5a
        E 0 91 2a 5a
        E 0 92 3b 5a
        E 0 92 3e 5a
        E 1073 81 2b 00
        E 0 80 28 00
        E 0 82 3b 00
        E 0 82 3e 00
        E 0 90 26 5a
        E 0 91 28 5a
        E 0 92 2b 5a
        E 0 92 5f 5a
        E 819 81 2a 00
        E 0 80 26 00
        E 0 81 28 00
        E 0 82 2b 00
        E 0 82 5f 00
        E 0 90 2c 5a
        E 0 91 31 5a
        E 0 91 35 5a
        E 0 92 52 5a
        E 0 92 54 5a
        E 819 82 52 00
        E 0 82 54 00
        E 0 92 46 5a
        E 0 92 60 5a
        E 819 82 46 00
        E 0 82 60 00
        E 0 92 3c 5a
        E 0 92 5e 5a
        E 819 82 3c 00
        E 0 92 36 5a
        E 655 80 2c 00
        E 0 81 31 00
        E 0 81 35 00
        E 0 82 5e 00
        E 0 82 36 00
        E 0 90 29 5a
        E 0 91 2a 5a
        E 0 91 2c 5a
        E 0 92 2e 5a
        E 0 92 49 5a
        E 655 82 2e 00
        E 0 82 49 00
        E 0 92 31 5a
        E 0 92 52 5a
        E 1639 80 29 00
        E 0 81 2a 00
        E 0 81 2c 00
        E 0 82 31 00
        E 0 82 52 00
        E 0 90 26 45
        E 0 91 28 45
        E 0 91 2b 45
        E 0 92 3b 45
        E 0 92 48 45
        E 1000 82 3b 00
        E 0 82 48 00
        E 0 92 2f 45
        E 0 92 54 45
        E 999 82 2f 00
        E 0 82 54 00
        E 0 92 30 45
        E 0 92 47 45
        E 1000 81 2b 00
        E 0 82 47 00
        E 0 91 29 45
        E 0 92 45 45
        E 999 80 26 00
        E 0 82 30 00
        E 0 81 29 00
        E 0 82 45 00
        E 0 90 21 45
        E 0 91 26 45
        E 0 92 29 45
        E 0 92 3c 45
        E 1000 81 28 00
        E 0 82 29 00
        E 0 82 3c 00
        E 0 91 29 45
        E 0 92 2b 45
        E 0 92 3a 45
        E 999 80 21 00
        E 0 82 2b 00
        E 0 90 24 45
        E 0 92 2d 45
        E 803 82 3a 00
        E 0 82 2d 00
        E 0 92 2e 45
        E 0 92 5d 45
        E 643 81 29 00
        E 0 80 24 00
        E 0 82 2e 00
        E 0 82 5d 00
        E 0 90 21 45
        E 0 91 24 45
        E 0 92 29 45
        E 0 92 46 45
        E 2007 81 26 00
        E 0 80 21 00
        E 0 81 24 00
        E 0 82 29 00
        E 0 82 46 00
        E 0 90 28 45
        E 0 91 2c 45
        E 0 91 33 45
        E 0 92 47 45
        E 0 92 49 45
        E 803 82 47 00
        E 0 82 49 00
        E 0 92 3b 45
        E 0 92 55 45
        E 802 81 33 00
        E 0 82 3b 00
        E 0 82 55 00
        E 0 91 31 45
        E 0 92 33 45
        E 0 92 53 45
        E 803 80 28 00
        E 0 82 33 00
        E 0 82 53 00
        E 0 90 2a 45
        E 0 92 34 45
        E 0 92 51 45
        E 803 82 51 00
        E 0 92 39 45
        E 803 81 2c 00
        E 0 80 2a 00
        E 0 90 2c 5a
        E 0 91 2f 5a
        E 803 81 31 00
        E 0 82 39 00
        E 0 80 2c 00
        E 0 81 2f 00
        E 0 90 2b 5a
        E 0 91 30 5a
        E 0 91 32 5a
        E 0 92 3b 5a
        E 803 80 2b 00
        E 0 81 30 00
        E 0 81 32 00
        E 0 82 3b 00
        E 0 90 21 5a
        E 0 91 23 5a
        E 0 91 2b 5a
        E 0 92 3c 5a
        E 803 82 34 00
        E 0 80 21 00
        E 0 81 23 00
        E 0 81 2b 00
        E 0 82 3c 00
        E 0 90 2b 5a
        E 0 91 30 5a
        E 0 91 34 5a
        E 0 92 45 5a
        E 0 92 53 5a
        E 612 80 2b 00
        E 0 81 30 00
        E 0 81 34 00
        E 0 82 45 00
        E 0 82 53 00
        E 0 90 25 5a
        E 0 91 29 5a
        E 0 91 2a 5a
        E 0 92 33 5a
        E 0 92 3a 5a
        E 613 80 25 00
        E 0 81 29 00
        E 0 82 3a 00
        E 0 90 29 5a
        E 0 91 2e 5a
        E 0 92 31 5a
        E 612 82 33 00
        E 0 80 29 00
        E 0 81 2e 00
        E 0 82 31 00
        E 0 90 27 5a
        E 0 91 29 5a
        E 0 92 46 5a
        E 0 92 55 5a
        E 613 80 27 00
        E 0 81 29 00
        E 0 82 55 00
        E 0 90 25 5a
        E 0 91 27 5a
        E 0 92 53 5a
        E 490 82 46 00
        E 0 92 52 5a
        E 490 82 53 00
        E 0 82 52 00
        E 0 92 2e 5a
        E 0 92 47 5a
        E 2394 81 2a 00
        E 0 80 25 00
        E 0 81 27 00
        E 0 82 2e 00
        E 0 82 47 00
        E 0 90 29 3b
        E 0 91 2b 3b
        E 0 91 2d 3b
        E 0 92 30 3b
        E 0 92 34 3b
        E 1169 80 29 00
        E 0 81 2d 00
        E 0 82 30 00
        E 0 90 21 3b
        E 0 91 29 3b
        E 0 92 3c 3b
        E 1168 82 34 00
        E 0 80 21 00
        E 0 82 3c 00
        E 0 90 28 3b
        E 0 92 39 3b
        E 0 92 60 3b
        E 1168 81 2b 00
        E 0 81 29 00
        E 0 82 39 00
        E 0 82 60 00
        E 0 91 2c 3b
        E 0 91 31 3b
        E 0 92 33 3b
        E 0 92 3b 3b
        E 1169 81 31 00
        E 0 82 3b 00
        E 0 91 2f 3b
        E 0 92 3d 3b
        E 1168 80 28 00
        E 0 82 33 00
        E 0 81 2f 00
        E 0 82 3d 00
        E 0 90 27 3b
        E 0 91 28 3b
        E 0 92 47 3b
        E 0 92 61 3b
        E 1168 80 27 00
        E 0 81 28 00
        E 0 82 47 00
        E 0 90 28 3b
        E 0 91 2a 3b
        E 0 92 45 3b
        E 1168 82 45 00
        E 0 92 2d 3b
        E 1169 81 2c 00
        E 0 80 28 00
        E 0 82 2d 00
        E 0 90 26 3b
        E 0 91 2d 3b
        E 0 92 2f 3b
        E 1168 80 26 00
        E 0 82 2f 00
        E 0 90 28 3b
        E 0 92 32 3b
        E 938 82 61 00
        E 0 81 2a 00
        E 0 80 28 00
        E 0 90 2a 36
        E 0 91 2b 36
        E 0 92 5f 36
        E 442 81 2d 00
        E 0 82 32 00
        E 0 80 2a 00
        E 0 82 5f 00
        E 0 90 28 36
        E 0 91 2f 36
        E 0 92 30 36
        E 0 92 62 36
        E 442 80 28 00
        E 0 81 2f 00
        E 0 82 30 00
        E 0 82 62 00
        E 0 90 29 36
        E 0 91 2d 36
        E 0 92 34 36
        E 0 92 60 36
        E 441 81 2b 00
        E 0 82 34 00
        E 0 91 2e 36
        E 0 92 32 36
        E 442 80 29 00
        E 0 81 2d 00
        E 0 82 60 00
        E 0 81 2e 00
        E 0 82 32 00
        E 0 90 21 3b
        E 0 91 24 3b
        E 0 91 26 3b
        E 0 92 29 3b
        E 0 92 52 3b
        E 751 80 21 00
        E 0 81 24 00
        E 0 81 26 00
        E 0 82 52 00
        E 0 90 24 3b
        E 0 91 25 3b
        E 0 91 27 3b
        E 0 92 50 3b
        E 750 82 29 00
        E 0 80 24 00
        E 0 81 25 00
        E 0 81 27 00
        E 0 82 50 00
        E 0 90 2c 3b
        E 0 91 31 3b
        E 0 91 35 3b
        E 0 92 3a 3b
        E 0 92 60 3b
        E 751 80 2c 00
        E 0 81 31 00
        E 0 82 3a 00
        E 0 82 60 00
        E 0 90 24 3b
        E 0 91 2c 3b
        E 0 92 3d 3b
        E 0 92 46 3b
        E 2346 80 24 00
        E 0 82 46 00
        E 0 90 27 3b
        E 0 92 48 3b
        E 1173 81 35 00
        E 0 82 3d 00
        E 0 80 27 00
        E 0 82 48 00
        E 0 90 29 3b
        E 0 91 30 3b
        E 0 92 31 3b
        E 0 92 33 3b
        E 1173 80 29 00
        E 0 82 31 00
        E 0 90 2b 3b
        E 0 92 3a 3b
        E 1173 81 2c 00
        E 0 80 2b 00
        E 0 82 3a 00
        E 0 90 29 3b
        E 0 91 2b 3b
        E 0 92 38 3b
        E 942 81 30 00
        E 0 82 33 00
        E 0 80 29 00
        E 0 81 2b 00
        E 0 82 38 00
        E 0 90 2b 3b
        E 0 91 2c 3b
        E 0 91 35 3b
        E 0 92 3c 3b
        E 0 92 3f 3b
        E 754 82 3c 00
        E 0 82 3f 00
        E 0 92 48 3b
        E 0 92 4b 3b
        E 2355 81 35 00
        E 0 91 3a 3b
        E 1178 80 2b 00
        E 0 82 48 00
        E 0 82 4b 00
        E 0 81 3a 00
        E 0 90 22 3b
        E 0 91 2b 3b
        E 0 92 33 3b
        E 0 92 54 3b
        E 1178 81 2c 00
        E 0 82 54 00
        E 0 91 29 3b
        E 0 92 56 3b
        E 1178 82 33 00
        E 0 81 29 00
        E 0 82 56 00
        E 0 91 27 3b
        E 0 92 32 3b
        E 0 92 54 3b
        E 945 80 22 00
        E 0 82 32 00
        E 0 82 54 00
        E 0 90 26 3b
        E 0 92 3c 3b
        E 0 92 5e 3b
        E 757 81 2b 00
        E 0 80 26 00
        E 0 82 3c 00
        E 0 82 5e 00
        E 0 90 22 3b
        E 0 91 26 3b
        E 0 92 2b 3b
        E 0 92 54 3b
        E 2365 81 27 00
        E 0 80 22 00
        E 0 81 26 00
        E 0 82 2b 00
        E 0 82 54 00
        E 0 90 2c 3b
        E 0 91 34 3b
        E 0 91 3d 3b
        E 0 92 51 3b
        E 0 92 5f 3b
        E 946 81 34 00
        E 0 81 3d 00
        E 0 82 51 00
        E 0 82 5f 00
        E 0 91 2f 3b
        E 0 91 31 3b
        E 0 92 34 3b
        E 0 92 45 3b
        E 946 81 2f 00
        E 0 81 31 00
        E 0 82 34 00
        E 0 82 45 00
        E 0 91 34 3b
        E 0 91 3d 3b
        E 0 92 47 3b
        E 0 92 5d 3b
        E 946 80 2c 00
        E 0 81 3d 00
        E 0 82 47 00
        E 0 90 2a 3b
        E 0 91 3e 3b
        E 0 92 49 3b
        E 946 81 34 00
        E 0 82 5d 00
        E 0 80 2a 00
        E 0 81 3e 00
        E 0 82 49 00
        E 0 90 28 3b
        E 0 91 2a 3b
        E 0 91 31 3b
        E 0 92 32 3b
        E 0 92 39 3b
        E 946 80 28 00
        E 0 81 31 00
        E 0 82 32 00
        E 0 90 26 45
        E 0 91 2f 45
        E 0 92 31 45
        E 946 82 39 00
        E 0 80 26 00
        E 0 81 2f 00
        E 0 82 31 00
        E 0 90 27 45
        E 0 91 2e 45
        E 0 92 2f 45
        E 0 92 38 45
        E 946 80 27 00
        E 0 81 2e 00
        E 0 82 2f 00
        E 0 82 38 00
        E 0 90 25 45
        E 0 91 27 45
        E 0 92 5e 45
        E 0 92 5f 45
        E 946 80 25 00
        E 0 82 5f 00
        E 0 90 23 5a
        E 0 92 5c 5a
        E 739 81 2a 00
        E 0 82 5e 00
        E 0 80 23 00
        E 0 90 24 5a
        E 0 91 29 5a
        E 0 92 5b 5a
        E 739 81 27 00
        E 0 82 5c 00
        E 0 80 24 00
        E 0 81 29 00
        E 0 82 5b 00
        E 0 90 2b 5a
        E 0 91 2c 5a
        E 0 91 33 5a
        E 0 92 52 5a
        E 0 92 60 5a
        E 739 81 33 00
        E 0 82 52 00
        E 0 82 60 00
        E 0 91 2e 5a
        E 0 92 33 5a
        E 0 92 54 5a
        E 564 80 2b 00
        E 0 81 2c 00
        E 0 81 2e 00
        E 0 82 33 00
        E 0 82 54 00
        E 0 90 21 5a
        E 0 91 25 5a
        E 0 91 28 5a
        E 0 92 2a 5a
        E 0 92 32 5a
        E 564 80 21 00
        E 0 81 25 00
        E 0 82 2a 00
        E 0 90 25 5a
        E 0 91 2a 5a
        E 0 92 5d 5a
        E 563 82 32 00
        E 0 80 25 00
        E 0 82 5d 00
        E 0 90 26 5a
        E 0 92 2d 5a
        E 0 92 55 5a
        E 564 82 2d 00
        E 0 82 55 00
        E 0 92 2b 5a
        E 0 92 53 5a
        E 451 81 28 00
        E 0 80 26 00
        E 0 82 2b 00
        E 0 82 53 00
        E 0 90 28 5a
        E 0 91 2b 5a
        E 0 92 47 5a
        E 0 92 56 5a
        E 451 80 28 00
        E 0 81 2b 00
        E 0 82 47 00
        E 0 82 56 00
        E 0 90 23 5a
        E 0 91 28 5a
        E 0 92 2b 5a
        E 0 92 4a 5a
        E 1129 81 2a 00
        E 0 80 23 00
        E 0 81 28 00
        E 0 82 2b 00
        E 0 82 4a 00
        E 0 90 24 45
        E 0 91 2c 45
        E 0 91 35 45
        E 0 92 3d 45
        E 0 92 5e 45
        E 688 80 24 00
        E 0 81 2c 00
        E 0 82 5e 00
        E 0 90 2c 45
        E 0 91 30 45
        E 0 92 52 45
        E 689 81 35 00
        E 0 82 3d 00
        E 0 80 2c 00
        E 0 81 30 00
        E 0 82 52 00
        E 0 90 22 45
        E 0 91 2c 45
        E 0 91 31 45
        E 0 92 35 45
        E 0 92 60 45
        E 688 81 31 00
        E 0 82 35 00
        E 0 82 60 00
        E 0 91 35 45
        E 0 92 36 45
        E 0 92 61 45
        E 688 80 22 00
        E 0 81 35 00
        E 0 82 36 00
        E 0 90 29 45
        E 0 91 2a 45
        E 0 92 3a 45
        E 688 80 29 00
        E 0 81 2a 00
        E 0 82 3a 00
        E 0 90 27 45
        E 0 91 29 45
        E 0 92 3c 45
        E 689 82 61 00
        E 0 80 27 00
        E 0 90 25 45
        E 0 92 5e 45
        E 553 81 2c 00
        E 0 81 29 00
        E 0 82 3c 00
        E 0 80 25 00
        E 0 82 5e 00
        E 0 90 2c 45
        E 0 91 31 45
        E 0 91 35 45
        E 0 92 3a 45
        E 0 92 60 45
        E 442 80 2c 00
        E 0 81 31 00
        E 0 82 3a 00
        E 0 82 60 00
        E 0 90 24 45
        E 0 91 2c 45
        E 0 92 3d 45
        E 0 92 46 45
        E 1382 81 35 00
        E 0 80 24 00
        E 0 81 2c 00
        E 0 82 3d 00
        E 0 82 46 00
        E 0 90 21 45
        E 0 91 2a 45
        E 0 91 2b 45
        E 0 92 32 45
        E 0 92 3b 45
        E 553 80 21 00
        E 0 81 2a 00
        E 0 82 32 00
        E 0 90 2a 45
        E 0 91 32 45
        E 0 92 5d 45
        E 553 82 3b 00
        E 0 81 32 00
        E 0 82 5d 00
        E 0 91 2d 45
        E 0 92 3e 45
        E 0 92 5f 45
        E 552 80 2a 00
        E 0 81 2d 00
        E 0 90 28 45
        E 0 91 30 45
        E 553 82 3e 00
        E 0 82 5f 00
        E 0 81 30 00
        E 0 91 32 45
        E 0 92 3c 45
        E 0 92 47 45
        E 553 81 32 00
        E 0 82 3c 00
        E 0 82 47 00
        E 0 91 30 5a
        E 0 92 3b 5a
        E 0 92 45 5a
        E 553 81 2b 00
        E 0 81 30 00
        E 0 82 3b 00
        E 0 91 2a 5a
        E 0 91 31 5a
        E 0 92 38 5a
        E 553 80 28 00
        E 0 82 45 00
        E 0 81 2a 00
        E 0 81 31 00
        E 0 82 38 00
        E 0 90 2c 5a
        E 0 91 34 5a
        E 0 91 39 5a
        E 0 92 3b 5a
        E 0 92 3d 5a
        E 552 80 2c 00
        E 0 81 39 00
        E 0 82 3b 00
        E 0 90 23 5a
        E 0 91 2c 5a
        E 0 92 5d 5a
        E 422 81 34 00
        E 0 82 3d 00
        E 0 80 23 00
        E 0 81 2c 00
        E 0 82 5d 00
        E 0 90 29 5a
        E 0 91 2b 5a
        E 0 91 33 5a
        E 0 92 3e 5a
        E 0 92 52 5a
        E 422 82 3e 00
        E 0 82 52 00
        E 0 92 46 5a
        E 0 92 4a 5a
        E 422 80 29 00
        E 0 81 33 00
        E 0 82 46 00
        E 0 82 4a 00
        E 0 90 26 5a
        E 0 91 29 5a
        E 0 92 33 5a
        E 0 92 5e 5a
        E 422 80 26 00
        E 0 82 5e 00
        E 0 90 24 5a
        E 0 92 5c 5a
        E 337 81 2b 00
        E 0 81 29 00
        E 0 82 33 00
        E 0 80 24 00
        E 0 82 5c 00
        E 0 90 2b 5a
        E 0 91 2c 5a
        E 0 91 30 5a
        E 0 92 35 5a
        E 0 92 3f 5a
        E 337 80 2b 00
        E 0 81 30 00
        E 0 82 3f 00
        E 0 90 27 5a
        E 0 91 2b 5a
        E 0 92 54 5a
        E 2906 81 2c 00
        E 0 82 35 00
        E 0 80 27 00
        E 0 81 2b 00
        E 0 82 54 00
        E 0 90 26 36
        E 0 91 2a 36
        E 0 91 31 36
        E 0 92 39 36
        E 0 92 3b 36
        E 1257 81 31 00
        E 0 82 39 00
        E 0 82 3b 00
        E 0 91 2d 36
        E 0 92 31 36
        E 0 92 47 36
        E 1257 80 26 00
        E 0 81 2d 00
        E 0 82 47 00
        E 0 90 23 36
        E 0 91 26 36
        E 0 92 45 36
        E 1257 81 2a 00
        E 0 82 31 00
        E 0 80 23 00
        E 0 81 26 00
        E 0 82 45 00
        E 0 90 29 36
        E 0 91 2c 36
        E 0 91 33 36
        E 0 92 49 36
        E 0 92 54 36
        E 1257 82 49 00
        E 0 82 54 00
        E 0 92 48 36
        E 0 92 55 36
        E 1257 81 33 00
        E 0 82 48 00
        E 0 82 55 00
        E 0 91 31 36
        E 0 92 33 36
        E 0 92 60 36
        E 1257 80 29 00
        E 0 82 33 00
        E 0 82 60 00
        E 0 90 2a 36
        E 0 92 35 36
        E 0 92 5e 36
        E 1257 82 5e 00
        E 0 92 46 36
        E 1257 80 2a 00
        E 0 82 35 00
        E 0 82 46 00
        E 0 90 29 36
        E 0 92 33 36
        E 0 92 48 36
        E 1257 81 31 00
        E 0 82 33 00
        E 0 82 48 00
        E 0 91 30 36
        E 0 92 31 36
        E 0 92 46 36
        E 1010 81 30 00
        E 0 82 31 00
        E 0 82 46 00
        E 0 91 2b 34
        E 0 92 33 34
        E 0 92 48 34
        E 475 81 2c 00
        E 0 80 29 00
        E 0 82 33 00
        E 0 90 27 34
        E 0 91 2e 34
        E 0 92 32 34
        E 475 82 48 00
        E 0 80 27 00
        E 0 82 32 00
        E 0 90 26 34
        E 0 92 35 34
        E 0 92 45 34
        E 475 81 2b 00
        E 0 81 2e 00
        E 0 82 35 00
        E 0 91 29 34
        E 0 91 30 34
        E 0 92 34 34
        E 475 80 26 00
        E 0 81 30 00
        E 0 82 34 00
        E 0 90 24 36
        E 0 91 28 36
        E 0 92 32 36
        E 808 81 29 00
        E 0 80 24 00
        E 0 81 28 00
        E 0 82 32 00
        E 0 90 23 36
        E 0 91 26 36
        E 0 91 2a 36
        E 0 92 31 36
        E 808 82 45 00
        E 0 80 23 00
        E 0 81 26 00
        E 0 82 31 00
        E 0 90 25 36
        E 0 91 28 36
        E 0 92 32 36
        E 0 92 51 36
        E 807 80 25 00
        E 0 81 28 00
        E 0 82 51 00
        E 0 90 28 36
        E 0 91 31 36
        E 0 92 5d 36
        E 2524 81 2a 00
        E 0 82 32 00
        E 0 80 28 00
        E 0 81 31 00
        E 0 82 5d 00
        E 0 90 29 36
        E 0 91 2b 36
        E 0 91 2c 36
        E 0 92 33 36
        E 0 92 48 36
        E 1262 82 33 00
        E 0 82 48 00
        E 0 92 3c 36
        E 0 92 3f 36
        E 1263 80 29 00
        E 0 82 3c 00
        E 0 82 3f 00
        E 0 90 27 36
        E 0 92 41 36
        E 0 92 54 36
        E 1262 81 2b 00
        E 0 80 27 00
        E 0 90 25 36
        E 0 91 2e 36
        E 1262 81 2c 00
        E 0 82 41 00
        E 0 80 25 00
        E 0 90 2c 36
        E 0 91 35 36
        E 0 92 3d 36
        E 1262 82 54 00
        E 0 80 2c 00
        E 0 81 35 00
        E 0 82 3d 00
        E 0 90 29 36
        E 0 91 36 36
        E 0 92 3f 36
        E 0 92 55 36
        E 1262 80 29 00
        E 0 82 3f 00
        E 0 90 2c 36
        E 0 92 41 36
        E 1013 81 2e 00
        E 0 80 2c 00
        E 0 82 41 00
        E 0 90 2e 34
        E 0 91 2f 34
        E 0 92 3f 34
        E 477 82 55 00
        E 0 80 2e 00
        E 0 81 2f 00
        E 0 90 2c 34
        E 0 91 34 34
        E 0 92 53 34
        E 477 81 36 00
        E 0 82 3f 00
        E 0 91 39 34
        E 0 92 3d 34
        E 477 80 2c 00
        E 0 82 53 00
        E 0 82 3d 00
        E 0 90 2a 34
        E 0 92 3e 34
        E 0 92 55 34
        E 477 81 34 00
        E 0 81 39 00
        E 0 80 2a 00
        E 0 82 3e 00
        E 0 82 55 00
        E 0 90 28 36
        E 0 91 2a 36
        E 0 91 2d 36
        E 0 92 32 36
        E 0 92 49 36
        E 811 80 28 00
        E 0 81 2a 00
        E 0 82 32 00
        E 0 82 49 00
        E 0 90 29 36
        E 0 91 2b 36
        E 0 92 34 36
        E 0 92 48 36
        E 811 81 2d 00
        E 0 80 29 00
        E 0 81 2b 00
        E 0 82 34 00
        E 0 90 28 36
        E 0 91 29 36
        E 0 91 32 36
        E 0 92 39 36
        E 811 82 48 00
        E 0 82 39 00
        E 0 92 45 36
        E 0 92 54 36
        E 2534 80 28 00
        E 0 81 29 00
        E 0 81 32 00
        E 0 90 29 36
        E 0 91 2b 36
        E 0 91 34 36
        E 1268 82 45 00
        E 0 82 54 00
        E 0 80 29 00
        E 0 81 34 00
        E 0 90 28 36
        E 0 91 29 36
        E 0 92 39 36
        E 0 92 3c 36
        E 1267 80 28 00
        E 0 81 29 00
        E 0 82 39 00
        E 0 90 26 36
        E 0 91 28 36
        E 0 92 3b 36
        E 1267 82 3c 00
        E 0 80 26 00
        E 0 90 24 36
        E 0 92 39 36
        E 1018 81 2b 00
        E 0 81 28 00
        E 0 80 24 00
        E 0 90 2b 36
        E 0 91 30 36
        E 0 91 34 36
        E 814 82 3b 00
        E 0 82 39 00
        E 0 92 45 36
        E 0 92 47 36
        E 2544 81 30 00
        E 0 82 45 00
        E 0 91 32 36
        E 0 92 48 36
        E 1272 80 2b 00
        E 0 81 34 00
        E 0 82 47 00
        E 0 81 32 00
        E 0 82 48 00
        E 0 90 28 36
        E 0 91 2b 36
        E 0 91 30 36
        E 0 92 32 36
        E 0 92 5f 36
        E 1273 80 28 00
        E 0 81 30 00
        E 0 82 32 00
        E 0 82 5f 00
        E 0 90 26 36
        E 0 91 2f 36
        E 0 92 36 36
        E 0 92 5d 36
        E 1272 82 36 00
        E 0 82 5d 00
        E 0 92 34 36
        E 0 92 5a 36
        E 1022 80 26 00
        E 0 81 2f 00
        E 0 82 5a 00
        E 0 90 23 36
        E 0 91 2a 36
        E 0 92 3e 36
        E 817 80 23 00
        E 0 81 2a 00
        E 0 82 3e 00
        E 0 90 2a 36
        E 0 91 2f 36
        E 0 92 4a 36
        E 2555 81 2b 00
        E 0 82 34 00
        E 0 80 2a 00
        E 0 81 2f 00
        E 0 82 4a 00
        E 0 90 25 36
        E 0 91 29 36
        E 0 91 2c 36
        E 0 92 33 36
        E 0 92 3c 36
        E 1277 80 25 00
        E 0 81 29 00
        E 0 82 3c 00
        E 0 90 29 36
        E 0 91 30 36
        E 0 92 31 36
        E 1277 82 33 00
        E 0 80 29 00
        E 0 81 30 00
        E 0 82 31 00
        E 0 90 27 36
        E 0 91 29 36
        E 0 92 48 36
        E 0 92 55 36
        E 1278 80 27 00
        E 0 81 29 00
        E 0 82 48 00
        E 0 90 29 36
        E 0 91 2a 36
        E 0 92 46 36
        E 1277 82 46 00
        E 0 92 2e 36
        E 1277 80 29 00
        E 0 81 2a 00
        E 0 82 2e 00
        E 0 90 27 36
        E 0 91 29 36
        E 0 92 30 36
        E 1277 82 55 00
        E 0 80 27 00
        E 0 82 30 00
        E 0 90 25 36
        E 0 92 2e 36
        E 0 92 54 36
        E 1026 81 2c 00
        E 0 80 25 00
        E 0 82 2e 00
        E 0 90 27 34
        E 0 91 2b 34
        E 0 92 2c 34
        E 483 81 29 00
        E 0 80 27 00
        E 0 82 2c 00
        E 0 90 26 34
        E 0 91 27 34
        E 0 92 2e 34
        E 483 82 54 00
        E 0 81 27 00
        E 0 91 29 34
        E 0 92 51 34
        E 483 81 2b 00
        E 0 82 2e 00
        E 0 91 28 34
        E 0 92 30 34
        E 483 82 51 00
        E 0 82 30 00
        E 0 92 2d 36
        E 0 92 48 36
        E 820 80 26 00
        E 0 81 29 00
        E 0 81 28 00
        E 0 82 48 00
        E 0 90 25 36
        E 0 91 26 36
        E 0 91 2a 36
        E 0 92 47 36
        E 821 82 2d 00
        E 0 80 25 00
        E 0 81 26 00
        E 0 82 47 00
        E 0 90 26 36
        E 0 91 28 36
        E 0 92 39 36
        E 0 92 49 36
        E 821 82 39 00
        E 0 82 49 00
        E 0 92 45 36
        E 0 92 55 36
        E 2565 80 26 00
        E 0 81 28 00
        E 0 82 55 00
        E 0 90 25 36
        E 0 91 26 36
        E 0 92 53 36
        E 1282 82 45 00
        E 0 80 25 00
        E 0 82 53 00
        E 0 90 23 36
        E 0 92 2d 36
        E 0 92 31 36
        E 1283 81 26 00
        E 0 80 23 00
        E 0 82 2d 00
        E 0 82 31 00
        E 0 90 26 36
        E 0 91 28 36
        E 0 92 2b 36
        E 0 92 2f 36
        E 1282 81 28 00
        E 0 82 2b 00
        E 0 91 2b 36
        E 0 92 2d 36
        E 1030 81 2a 00
        E 0 80 26 00
        E 0 82 2f 00
        E 0 82 2d 00
        E 0 90 2a 36
        E 0 91 2f 36
        E 0 92 39 36
        E 0 92 3e 36
        E 824 81 2f 00
        E 0 82 39 00
        E 0 91 3b 36
        E 0 92 45 36
        E 2575 82 45 00
        E 0 92 40 36
        E 1288 81 2b 00
        E 0 80 2a 00
        E 0 81 3b 00
        E 0 82 40 00
        E 0 90 23 36
        E 0 91 28 36
        E 0 91 2a 36
        E 0 92 2b 36
        E 1287 82 3e 00
        E 0 81 2a 00
        E 0 82 2b 00
        E 0 91 2b 36
        E 0 92 2d 36
        E 0 92 3c 36
        E 1288 80 23 00
        E 0 82 2d 00
        E 0 90 26 36
        E 0 92 2f 36
        E 1034 82 3c 00
        E 0 82 2f 00
        E 0 92 30 36
        E 0 92 5f 36
        E 828 81 2b 00
        E 0 80 26 00
        E 0 82 30 00
        E 0 82 5f 00
        E 0 90 23 36
        E 0 91 26 36
        E 0 92 2b 36
        E 0 92 48 36
        E 2585 81 28 00
        E 0 80 23 00
        E 0 81 26 00
        E 0 82 2b 00
        E 0 82 48 00
        E 0 90 29 36
        E 0 91 2a 36
        E 0 91 33 36
        E 0 92 49 36
        E 0 92 52 36
        E 1034 82 49 00
        E 0 82 52 00
        E 0 92 46 36
        E 0 92 55 36
        E 1035 81 33 00
        E 0 82 46 00
        E 0 82 55 00
        E 0 91 31 36
        E 0 92 33 36
        E 0 92 5e 36
        E 1034 80 29 00
        E 0 81 2a 00
        E 0 81 31 00
        E 0 90 2a 36
        E 0 91 2c 36
        E 0 91 2f 36
        E 1034 82 33 00
        E 0 82 5e 00
        E 0 92 3a 36
        E 0 92 3f 36
        E 1034 81 2c 00
        E 0 91 31 3b
        E 1034 81 2f 00
        E 0 82 3a 00
        E 0 82 3f 00
        E 0 91 32 3b
        E 0 92 39 3b
        E 0 92 40 3b
        E 1035 80 2a 00
        E 0 81 31 00
        E 0 81 32 00
        E 0 82 39 00
        E 0 82 40 00
        E 0 90 25 3b
        E 0 91 26 3b
        E 0 91 2a 3b
        E 0 92 53 3b
        E 0 92 5d 3b
        E 1034 80 25 00
        E 0 81 26 00
        E 0 82 53 00
        E 0 90 26 45
        E 0 91 28 45
        E 0 92 55 45
        E 808 81 2a 00
        E 0 80 26 00
        E 0 81 28 00
        E 0 82 55 00
        E 0 90 28 45
        E 0 91 29 45
        E 0 91 2b 45
        E 0 92 54 45
        E 808 82 5d 00
        E 0 80 28 00
        E 0 81 2b 00
        E 0 82 54 00
        E 0 90 26 45
        E 0 91 28 45
        E 0 92 48 45
        E 0 92 51 45
        E 808 80 26 00
        E 0 81 28 00
        E 0 90 28 5a
        E 0 91 2b 5a
        E 631 81 29 00
        E 0 82 51 00
        E 0 80 28 00
        E 0 90 27 5a
        E 0 91 2c 5a
        E 0 92 52 5a
        E 631 82 48 00
        E 0 80 27 00
        E 0 82 52 00
        E 0 90 29 5a
        E 0 92 3c 5a
        E 0 92 3f 5a
        E 631 81 2c 00
        E 0 80 29 00
        E 0 82 3c 00
        E 0 82 3f 00
        E 0 90 27 5a
        E 0 91 29 5a
        E 0 92 2c 5a
        E 0 92 60 5a
        E 482 81 2b 00
        E 0 80 27 00
        E 0 81 29 00
        E 0 82 2c 00
        E 0 82 60 00
        E 0 90 25 5a
        E 0 91 26 5a
        E 0 91 2a 5a
        E 0 92 45 5a
        E 0 92 47 5a
        E 481 82 45 00
        E 0 82 47 00
        E 0 92 39 5a
        E 0 92 53 5a
        E 482 82 39 00
        E 0 82 53 00
        E 0 92 2f 5a
        E 0 92 51 5a
        E 482 80 25 00
        E 0 82 2f 00
        E 0 90 23 5a
        E 0 92 2b 5a
        E 385 81 26 00
        E 0 81 2a 00
        E 0 82 51 00
        E 0 80 23 00
        E 0 82 2b 00
        E 0 90 2a 5a
        E 0 91 2b 5a
        E 0 91 2d 5a
        E 0 92 32 5a
        E 0 92 47 5a
        E 385 81 2d 00
        E 0 82 47 00
        E 0 91 2f 5a
        E 0 92 51 5a
        E 964 80 2a 00
        E 0 81 2b 00
        E 0 82 32 00
        E 0 81 2f 00
        E 0 82 51 00
        E 0 90 27 45
        E 0 91 29 45
        E 0 91 2c 45
        E 0 92 3c 45
        E 0 92 49 45
        E 588 82 3c 00
        E 0 82 49 00
        E 0 92 30 45
        E 0 92 55 45
        E 588 82 30 00
        E 0 82 55 00
        E 0 92 31 45
        E 0 92 48 45
        E 588 81 2c 00
        E 0 82 48 00
        E 0 91 2a 45
        E 0 92 46 45
        E 588 80 27 00
        E 0 82 31 00
        E 0 81 2a 00
        E 0 82 46 00
        E 0 90 22 45
        E 0 91 27 45
        E 0 92 2a 45
        E 0 92 3d 45
        E 588 81 29 00
        E 0 82 2a 00
        E 0 82 3d 00
        E 0 91 2a 45
        E 0 92 2c 45
        E 0 92 3b 45
        E 588 80 22 00
        E 0 82 2c 00
        E 0 90 25 45
        E 0 92 2e 45
        E 472 82 3b 00
        E 0 82 2e 00
        E 0 92 2f 45
        E 0 92 5e 45
        E 378 81 2a 00
        E 0 80 25 00
        E 0 82 2f 00
        E 0 82 5e 00
        E 0 90 22 45
        E 0 91 25 45
        E 0 92 2a 45
        E 0 92 47 45
        E 1180 81 27 00
        E 0 80 22 00
        E 0 81 25 00
        E 0 82 2a 00
        E 0 82 47 00
        E 0 90 28 45
        E 0 91 29 45
        E 0 91 32 45
        E 0 92 48 45
        E 0 92 51 45
        E 472 82 48 00
        E 0 82 51 00
        E 0 92 45 45
        E 0 92 54 45
        E 472 81 32 00
        E 0 82 45 00
        E 0 82 54 00
        E 0 91 30 45
        E 0 92 32 45
        E 0 92 5d 45
        E 473 80 28 00
        E 0 81 29 00
        E 0 81 30 00
        E 0 90 29 45
        E 0 91 2b 45
        E 0 91 2e 45
        E 472 82 32 00
        E 0 82 5d 00
        E 0 92 39 45
        E 0 92 3e 45
        E 472 81 2b 00
        E 0 91 30 5a
        E 472 81 2e 00
        E 0 82 39 00
        E 0 82 3e 00
        E 0 91 31 5a
        E 0 92 38 5a
        E 0 92 3f 5a
        E 472 80 29 00
        E 0 81 30 00
        E 0 81 31 00
        E 0 82 38 00
        E 0 82 3f 00
        E 0 90 22 5a
        E 0 91 24 5a
        E 0 91 2c 5a
        E 0 92 35 5a
        E 0 92 3d 5a
        E 473 80 22 00
        E 0 81 24 00
        E 0 81 2c 00
        E 0 82 35 00
        E 0 82 3d 00
        E 0 90 2c 5a
        E 0 91 31 5a
        E 0 91 35 5a
        E 0 92 46 5a
        E 0 92 54 5a
        E 360 80 2c 00
        E 0 81 31 00
        E 0 81 35 00
        E 0 82 46 00
        E 0 82 54 00
        E 0 90 26 5a
        E 0 91 2a 5a
        E 0 91 2b 5a
        E 0 92 34 5a
        E 0 92 3b 5a
        E 360 80 26 00
        E 0 81 2a 00
        E 0 82 3b 00
        E 0 90 2a 5a
        E 0 91 2f 5a
        E 0 92 32 5a
        E 360 82 34 00
        E 0 80 2a 00
        E 0 81 2f 00
        E 0 82 32 00
        E 0 90 28 5a
        E 0 91 2a 5a
        E 0 92 47 5a
        E 0 92 56 5a
        E 361 80 28 00
        E 0 81 2a 00
        E 0 82 56 00
        E 0 90 26 5a
        E 0 91 28 5a
        E 0 92 54 5a
        E 288 82 47 00
        E 0 92 53 5a
        E 288 82 54 00
        E 0 82 53 00
        E 0 92 2f 5a
        E 0 92 48 5a
        E 1408 81 2b 00
        E 0 80 26 00
        E 0 81 28 00
        E 0 82 2f 00
        E 0 82 48 00
        E 0 90 2a 3b
        E 0 91 2c 3b
        E 0 91 2e 3b
        E 0 92 31 3b
        E 0 92 35 3b
        E 687 80 2a 00
        E 0 81 2e 00
        E 0 82 31 00
        E 0 90 22 3b
        E 0 91 2a 3b
        E 0 92 3d 3b
        E 688 82 35 00
        E 0 80 22 00
        E 0 82 3d 00
        E 0 90 29 3b
        E 0 92 3a 3b
        E 0 92 61 3b
        E 687 81 2c 00
        E 0 81 2a 00
        E 0 80 29 00
        E 0 82 3a 00
        E 0 82 61 00
        E 0 90 28 3b
        E 0 91 29 3b
        E 0 91 30 3b
        E 0 92 32 3b
        E 0 92 45 3b
        E 687 81 30 00
        E 0 82 32 00
        E 0 82 45 00
        E 0 91 32 3b
        E 0 92 39 3b
        E 0 92 3c 3b
        E 687 80 28 00
        E 0 81 32 00
        E 0 82 39 00
        E 0 82 3c 00
        E 0 90 26 3b
        E 0 91 28 3b
        E 0 92 51 3b
        E 0 92 60 3b
        E 687 81 28 00
        E 0 82 60 00
        E 0 91 2b 3b
        E 0 92 5e 3b
        E 687 81 29 00
        E 0 80 26 00
        E 0 82 51 00
        E 0 90 29 3b
        E 0 91 2d 3b
        E 0 92 32 3b
        E 687 80 29 00
        E 0 81 2d 00
        E 0 82 32 00
        E 0 90 26 3b
        E 0 91 30 3b
        E 0 92 33 3b
        E 687 80 26 00
        E 0 81 30 00
        E 0 90 29 3b
        E 0 91 32 3b
        E 552 81 2b 00
        E 0 80 29 00
        E 0 81 32 00
        E 0 90 2b 36
        E 0 91 2c 36
        E 0 91 30 36
        E 260 82 5e 00
        E 0 82 33 00
        E 0 80 2b 00
        E 0 81 30 00
        E 0 90 27 36
        E 0 91 31 36
        E 0 92 35 36
        E 0 92 60 36
        E 260 80 27 00
        E 0 82 60 00
        E 0 90 2a 36
        E 0 92 5e 36
        E 259 81 2c 00
        E 0 82 35 00
        E 0 80 2a 00
        E 0 90 27 36
        E 0 91 2f 36
        E 0 92 36 36
        E 260 81 31 00
        E 0 82 5e 00
        E 0 80 27 00
        E 0 81 2f 00
        E 0 82 36 00
        E 0 90 22 3b
        E 0 91 25 3b
        E 0 91 27 3b
        E 0 92 2a 3b
        E 0 92 53 3b
        E 442 80 22 00
        E 0 81 25 00
        E 0 81 27 00
        E 0 82 53 00
        E 0 90 21 3b
        E 0 91 26 3b
        E 0 91 28 3b
        E 0 92 55 3b
        E 441 82 2a 00
        E 0 80 21 00
        E 0 81 28 00
        E 0 82 55 00
        E 0 90 25 3b
        E 0 91 2a 3b
        E 0 92 2d 3b
        E 0 92 53 3b
        E 442 82 2d 00
        E 0 82 53 00
        E 0 92 39 3b
        E 0 92 5f 3b
        E 1380 81 26 00
        E 0 80 25 00
        E 0 82 5f 00
        E 0 90 26 3b
        E 0 91 28 3b
        E 0 92 61 3b
        E 689 80 26 00
        E 0 81 28 00
        E 0 82 61 00
        E 0 90 28 3b
        E 0 91 31 3b
        E 0 92 32 3b
        E 690 81 2a 00
        E 0 81 31 00
        E 0 82 32 00
        E 0 91 2c 3b
        E 0 91 2f 3b
        E 0 92 31 3b
        E 690 81 2f 00
        E 0 91 2a 3b
        E 554 80 28 00
        E 0 82 31 00
        E 0 81 2a 00
        E 0 90 2a 3b
        E 0 91 34 3b
        E 0 92 3d 3b
        E 444 82 39 00
        E 0 82 3d 00
        E 0 92 45 3b
        E 0 92 49 3b
        E 1385 81 2c 00
        E 0 80 2a 00
        E 0 90 2c 3b
        E 0 91 2f 3b
        E 693 81 34 00
        E 0 82 45 00
        E 0 82 49 00
        E 0 80 2c 00
        E 0 81 2f 00
        E 0 90 21 3b
        E 0 91 2c 3b
        E 0 91 31 3b
        E 0 92 34 3b
        E 0 92 53 3b
        E 692 80 21 00
        E 0 81 31 00
        E 0 82 53 00
        E 0 90 23 3b
        E 0 91 33 3b
        E 0 92 4e 3b
        E 693 81 33 00
        E 0 82 4e 00
        E 0 91 31 3b
        E 0 92 4b 3b
        E 556 82 34 00
        E 0 80 23 00
        E 0 81 31 00
        E 0 82 4b 00
        E 0 90 27 3b
        E 0 91 28 3b
        E 0 92 3d 3b
        E 0 92 5f 3b
        E 445 81 2c 00
        E 0 80 27 00
        E 0 82 3d 00
        E 0 82 5f 00
        E 0 90 23 3b
        E 0 91 27 3b
        E 0 92 2c 3b
        E 0 92 55 3b
        E 1391 81 28 00
        E 0 80 23 00
        E 0 81 27 00
        E 0 82 2c 00
        E 0 82 55 00
        E 0 90 26 3b
        E 0 91 29 3b
        E 0 91 30 3b
        E 0 92 45 3b
        E 0 92 52 3b
        E 557 80 26 00
        E 0 81 29 00
        E 0 81 30 00
        E 0 82 45 00
        E 0 82 52 00
        E 0 90 22 3b
        E 0 91 24 3b
        E 0 91 26 3b
        E 0 92 29 3b
        E 0 92 39 3b
        E 556 80 22 00
        E 0 81 24 00
        E 0 81 26 00
        E 0 82 29 00
        E 0 82 39 00
        E 0 90 26 3b
        E 0 91 29 3b
        E 0 91 30 3b
        E 0 92 3a 3b
        E 0 92 51 3b
        E 556 80 26 00
        E 0 81 30 00
        E 0 82 51 00
        E 0 90 27 3b
        E 0 91 32 3b
        E 0 92 4f 3b
        E 557 81 29 00
        E 0 80 27 00
        E 0 82 4f 00
        E 0 90 29 3b
        E 0 91 2b 3b
        E 0 92 33 3b
        E 556 81 32 00
        E 0 80 29 00
        E 0 82 33 00
        E 0 90 27 45
        E 0 91 30 45
        E 0 92 32 45
        E 556 82 3a 00
        E 0 80 27 00
        E 0 81 30 00
        E 0 82 32 00
        E 0 90 28 45
        E 0 91 2f 45
        E 0 92 30 45
        E 0 92 39 45
        E 557 80 28 00
        E 0 81 2f 00
        E 0 82 30 00
        E 0 82 39 00
        E 0 90 26 45
        E 0 91 28 45
        E 0 92 5f 45
        E 0 92 60 45
        E 556 80 26 00
        E 0 82 60 00
        E 0 90 24 5a
        E 0 92 5d 5a
        E 435 81 2b 00
        E 0 82 5f 00
        E 0 80 24 00
        E 0 90 25 5a
        E 0 91 2a 5a
        E 0 92 5c 5a
        E 434 81 28 00
        E 0 82 5d 00
        E 0 80 25 00
        E 0 81 2a 00
        E 0 82 5c 00
        E 0 90 2c 5a
        E 0 91 31 5a
        E 0 91 34 5a
        E 0 92 51 5a
        E 0 92 5f 5a
        E 435 81 34 00
        E 0 82 51 00
        E 0 82 5f 00
        E 0 91 2d 5a
        E 0 92 34 5a
        E 0 92 53 5a
        E 332 80 2c 00
        E 0 81 31 00
        E 0 81 2d 00
        E 0 82 34 00
        E 0 82 53 00
        E 0 90 22 5a
        E 0 91 26 5a
        E 0 91 29 5a
        E 0 92 2b 5a
        E 0 92 33 5a
        E 331 80 22 00
        E 0 81 26 00
        E 0 82 2b 00
        E 0 90 26 5a
        E 0 91 2b 5a
        E 0 92 5e 5a
        E 332 82 33 00
        E 0 80 26 00
        E 0 82 5e 00
        E 0 90 27 5a
        E 0 92 2e 5a
        E 0 92 56 5a
        E 331 82 2e 00
        E 0 82 56 00
        E 0 92 2c 5a
        E 0 92 54 5a
        E 266 81 29 00
        E 0 80 27 00
        E 0 82 2c 00
        E 0 82 54 00
        E 0 90 29 5a
        E 0 91 2c 5a
        E 0 92 48 5a
        E 0 92 57 5a
        E 265 80 29 00
        E 0 81 2c 00
        E 0 82 48 00
        E 0 82 57 00
        E 0 90 24 5a
        E 0 91 29 5a
        E 0 92 2c 5a
        E 0 92 4b 5a
        E 664 81 2b 00
        E 0 80 24 00
        E 0 81 29 00
        E 0 82 2c 00
        E 0 82 4b 00
        E 0 90 25 45
        E 0 91 26 45
        E 0 91 2a 45
        E 0 92 51 45
        E 0 92 5f 45
        E 405 80 25 00
        E 0 82 51 00
        E 0 82 5f 00
        E 0 90 23 45
        E 0 92 31 45
        E 0 92 45 45
        E 404 80 23 00
        E 0 82 31 00
        E 0 82 45 00
        E 0 90 25 45
        E 0 92 47 45
        E 0 92 5d 45
        E 405 81 26 00
        E 0 80 25 00
        E 0 90 26 45
        E 0 91 2b 45
        E 405 81 2a 00
        E 0 82 47 00
        E 0 82 5d 00
        E 0 80 26 00
        E 0 90 2a 45
        E 0 91 32 45
        E 0 92 39 45
        E 0 92 5f 45
        E 405 81 2b 00
        E 0 80 2a 00
        E 0 82 39 00
        E 0 82 5f 00
        E 0 90 28 45
        E 0 91 2a 45
        E 0 92 3d 45
        E 0 92 5d 45
        E 405 81 32 00
        E 0 80 28 00
        E 0 82 3d 00
        E 0 90 26 45
        E 0 91 31 45
        E 0 92 3b 45
        E 325 82 5d 00
        E 0 80 26 00
        E 0 81 31 00
        E 0 82 3b 00
        E 0 90 25 45
        E 0 91 26 45
        E 0 92 2d 45
        E 0 92 53 45
        E 260 82 2d 00
        E 0 82 53 00
        E 0 92 39 45
        E 0 92 5f 45
        E 813 81 2a 00
        E 0 80 25 00
        E 0 81 26 00
        E 0 82 39 00
        E 0 82 5f 00
        E 0 90 22 45
        E 0 91 2b 45
        E 0 91 2c 45
        E 0 92 33 45
        E 0 92 3c 45
        E 325 80 22 00
        E 0 81 2b 00
        E 0 82 33 00
        E 0 90 2b 45
        E 0 91 33 45
        E 0 92 5e 45
        E 325 82 3c 00
        E 0 81 33 00
        E 0 82 5e 00
        E 0 91 2e 45
        E 0 92 3f 45
        E 0 92 60 45
        E 325 80 2b 00
        E 0 81 2e 00
        E 0 90 29 45
        E 0 91 31 45
        E 325 82 3f 00
        E 0 82 60 00
        E 0 81 31 00
        E 0 91 33 45
        E 0 92 3d 45
        E 0 92 48 45
        E 325 81 33 00
        E 0 82 3d 00
        E 0 82 48 00
        E 0 91 31 5a
        E 0 92 3c 5a
        E 0 92 46 5a
        E 326 81 2c 00
        E 0 81 31 00
        E 0 82 3c 00
        E 0 82 46 00
        E 0 91 2b 5a
        E 0 91 32 5a
        E 0 92 3a 5a
        E 0 92 45 5a
        E 325 80 29 00
        E 0 81 2b 00
        E 0 81 32 00
        E 0 82 3a 00
        E 0 82 45 00
        E 0 90 26 5a
        E 0 91 29 5a
        E 0 91 2d 5a
        E 0 92 2e 5a
        E 0 92 30 5a
        E 325 80 26 00
        E 0 81 2d 00
        E 0 82 2e 00
        E 0 82 30 00
        E 0 90 24 5a
        E 0 91 26 5a
        E 0 92 51 5a
        E 0 92 5e 5a
        E 248 81 29 00
        E 0 80 24 00
        E 0 81 26 00
        E 0 82 51 00
        E 0 82 5e 00
        E 0 90 2a 5a
        E 0 91 2c 5a
        E 0 91 34 5a
        E 0 92 4b 5a
        E 0 92 53 5a
        E 248 82 4b 00
        E 0 82 53 00
        E 0 92 47 5a
        E 0 92 57 5a
        E 248 81 34 00
        E 0 82 47 00
        E 0 82 57 00
        E 0 91 33 5a
        E 0 92 34 5a
        E 0 92 5f 5a
        E 248 81 33 00
        E 0 82 5f 00
        E 0 91 31 5a
        E 0 92 5d 5a
        E 199 81 31 00
        E 0 82 5d 00
        E 0 91 2d 5a
        E 0 92 3d 5a
        E 198 80 2a 00
        E 0 81 2d 00
        E 0 82 3d 00
        E 0 90 25 5a
        E 0 91 2a 5a
        E 0 92 51 5a
        E 5174 81 2c 00
        E 0 82 34 00
        E 0 80 25 00
        E 0 81 2a 00
        E 0 82 51 00
        E 0 90 26 36
        E 0 91 27 36
        E 0 91 2b 36
        E 0 92 3a 36
        E 0 92 54 36
        E 462 82 3a 00
        E 0 82 54 00
        E 0 92 2e 36
        E 0 92 60 36
        E 462 82 2e 00
        E 0 82 60 00
        E 0 92 3c 36
        E 0 92 46 36
        E 463 80 26 00
        E 0 81 27 00
        E 0 82 46 00
        E 0 90 27 36
        E 0 91 29 36
        E 0 92 44 36
        E 462 82 3c 00
        E 0 80 27 00
        E 0 81 29 00
        E 0 82 44 00
        E 0 90 29 36
        E 0 91 2c 36
        E 0 92 30 36
        E 0 92 33 36
        E 462 81 2b 00
        E 0 80 29 00
        E 0 82 33 00
        E 0 90 25 36
        E 0 91 29 36
        E 0 92 2e 36
        E 462 81 2c 00
        E 0 82 30 00
        E 0 91 2a 36
        E 0 92 2c 36
        E 371 81 29 00
        E 0 82 2c 00
        E 0 91 27 34
        E 0 92 2f 34
        E 174 80 25 00
        E 0 82 2e 00
        E 0 81 27 00
        E 0 90 27 34
        E 0 91 28 34
        E 0 92 2c 34
        E 175 81 2a 00
        E 0 82 2f 00
        E 0 80 27 00
        E 0 82 2c 00
        E 0 90 23 34
        E 0 91 2c 34
        E 0 92 2d 34
        E 0 92 31 34
        E 175 80 23 00
        E 0 81 2c 00
        E 0 90 26 34
        E 0 91 2a 34
        E 471 81 28 00
        E 0 82 31 00
        E 0 80 26 00
        E 0 81 2a 00
        E 0 90 28 36
        E 0 91 29 36
        E 0 91 2b 36
        E 0 92 30 36
        E 297 82 2d 00
        E 0 80 28 00
        E 0 81 29 00
        E 0 81 2b 00
        E 0 82 30 00
        E 0 90 2b 36
        E 0 91 30 36
        E 0 91 34 36
        E 0 92 39 36
        E 0 92 3b 36
        E 297 82 39 00
        E 0 82 3b 00
        E 0 92 45 36
        E 0 92 47 36
        E 928 80 2b 00
        E 0 81 30 00
        E 0 81 34 00
        E 0 82 45 00
        E 0 82 47 00
        E 0 90 22 36
        E 0 91 27 36
        E 0 91 2a 36
        E 0 92 2f 36
        E 0 92 31 36
        E 464 80 22 00
        E 0 81 27 00
        E 0 82 2f 00
        E 0 90 27 36
        E 0 91 2f 36
        E 0 92 5e 36
        E 464 82 31 00
        E 0 80 27 00
        E 0 81 2f 00
        E 0 82 5e 00
        E 0 90 25 36
        E 0 91 27 36
        E 0 92 2e 36
        E 0 92 5f 36
        E 464 80 25 00
        E 0 81 27 00
        E 0 82 2e 00
        E 0 90 27 36
        E 0 91 28 36
        E 0 92 2c 36
        E 464 80 27 00
        E 0 81 28 00
        E 0 82 2c 00
        E 0 90 28 36
        E 0 91 2c 36
        E 0 92 4b 36
        E 463 80 28 00
        E 0 81 2c 00
        E 0 82 4b 00
        E 0 90 27 36
        E 0 91 2e 36
        E 0 92 49 36
        E 464 82 5f 00
        E 0 81 2e 00
        E 0 91 29 36
        E 0 92 5e 36
        E 373 81 2a 00
        E 0 80 27 00
        E 0 82 49 00
        E 0 90 25 34
        E 0 91 2c 34
        E 0 92 48 34
        E 175 82 5e 00
        E 0 80 25 00
        E 0 90 27 34
        E 0 92 5b 34
        E 176 81 29 00
        E 0 81 2c 00
        E 0 80 27 00
        E 0 90 26 34
        E 0 91 27 34
        E 0 91 2e 34
        E 175 82 48 00
        E 0 81 27 00
        E 0 91 29 34
        E 0 92 45 34
        E 175 82 5b 00
        E 0 80 26 00
        E 0 81 2e 00
        E 0 81 29 00
        E 0 82 45 00
        E 0 90 29 36
        E 0 91 2b 36
        E 0 91 32 36
        E 0 92 52 36
        E 0 92 5d 36
        E 298 80 29 00
        E 0 81 2b 00
        E 0 82 52 00
        E 0 82 5d 00
        E 0 90 28 36
        E 0 91 2a 36
        E 0 92 53 36
        E 0 92 5b 36
        E 299 81 32 00
        E 0 80 28 00
        E 0 81 2a 00
        E 0 82 53 00
        E 0 82 5b 00
        E 0 90 26 36
        E 0 91 28 36
        E 0 91 2b 36
        E 0 92 48 36
        E 0 92 5f 36
        E 298 80 26 00
        E 0 81 2b 00
        E 0 82 48 00
        E 0 82 5f 00
        E 0 90 23 36
        E 0 91 26 36
        E 0 92 2b 36
        E 0 92 60 36
        E 931 81 28 00
        E 0 80 23 00
        E 0 81 26 00
        E 0 82 2b 00
        E 0 82 60 00
        E 0 90 2c 36
        E 0 91 35 36
        E 0 91 3d 36
        E 0 92 54 36
        E 0 92 5e 36
        E 466 82 54 00
        E 0 82 5e 00
        E 0 92 52 36
        E 0 92 60 36
        E 466 80 2c 00
        E 0 81 3d 00
        E 0 82 52 00
        E 0 82 60 00
        E 0 90 22 36
        E 0 91 2c 36
        E 0 92 3d 36
        E 0 92 48 36
        E 465 81 2c 00
        E 0 82 3d 00
        E 0 82 48 00
        E 0 91 2a 36
        E 0 92 3f 36
        E 0 92 49 36
        E 466 81 35 00
        E 0 80 22 00
        E 0 82 3f 00
        E 0 82 49 00
        E 0 90 25 36
        E 0 91 29 36
        E 0 92 33 36
        E 0 92 46 36
        E 466 80 25 00
        E 0 81 29 00
        E 0 90 23 36
        E 0 91 2c 36
        E 466 82 33 00
        E 0 82 46 00
        E 0 80 23 00
        E 0 90 27 36
        E 0 92 34 36
        E 0 92 47 36
        E 374 81 2a 00
        E 0 80 27 00
        E 0 90 25 34
        E 0 91 2d 34
        E 176 81 2c 00
        E 0 82 34 00
        E 0 82 47 00
        E 0 80 25 00
        E 0 90 28 34
        E 0 91 2a 34
        E 0 92 32 34
        E 0 92 49 34
        E 176 80 28 00
        E 0 81 2a 00
        E 0 82 49 00
        E 0 90 2a 34
        E 0 91 2b 34
        E 0 92 47 34
        E 176 81 2d 00
        E 0 82 32 00
        E 0 80 2a 00
        E 0 82 47 00
        E 0 90 28 34
        E 0 91 2f 34
        E 0 92 30 34
        E 0 92 4a 34
        E 176 80 28 00
        E 0 81 2f 00
        E 0 82 30 00
        E 0 82 4a 00
        E 0 90 24 36
        E 0 91 28 36
        E 0 92 32 36
        E 0 92 3b 36
        E 299 80 24 00
        E 0 81 28 00
        E 0 82 32 00
        E 0 82 3b 00
        E 0 90 26 36
        E 0 91 29 36
        E 0 92 33 36
        E 0 92 3a 36
        E 300 80 26 00
        E 0 81 29 00
        E 0 82 33 00
        E 0 82 3a 00
        E 0 90 29 36
        E 0 91 2e 36
        E 0 92 3e 36
        E 0 92 51 36
        E 299 81 2e 00
        E 0 82 51 00
        E 0 91 3a 36
        E 0 92 5d 36
        E 935 82 3e 00
        E 0 81 3a 00
        E 0 82 5d 00
        E 0 91 3e 36
        E 0 92 3f 36
        E 0 92 5e 36
        E 468 81 3e 00
        E 0 82 3f 00
        E 0 82 5e 00
        E 0 91 33 36
        E 0 92 4a 36
        E 0 92 52 36
        E 468 81 2b 00
        E 0 81 33 00
        E 0 82 4a 00
        E 0 91 2d 36
        E 0 91 32 36
        E 0 92 48 36
        E 467 80 29 00
        E 0 82 52 00
        E 0 81 2d 00
        E 0 90 28 36
        E 0 91 29 36
        E 0 92 51 36
        E 676 82 48 00
        E 0 82 51 00
        E 0 92 54 36
        E 0 92 5d 36
        E 939 81 32 00
        E 0 80 28 00
        E 0 82 54 00
        E 0 90 26 36
        E 0 91 30 36
        E 0 92 52 36
        E 470 82 5d 00
        E 0 80 26 00
        E 0 81 30 00
        E 0 82 52 00
        E 0 90 24 36
        E 0 91 26 36
        E 0 92 2d 36
        E 0 92 5e 36
        E 469 81 26 00
        E 0 82 2d 00
        E 0 82 5e 00
        E 0 91 28 36
        E 0 92 2b 36
        E 0 92 5d 36
        E 470 81 29 00
        E 0 80 24 00
        E 0 90 23 36
        E 0 91 24 36
        E 377 81 28 00
        E 0 82 2b 00
        E 0 82 5d 00
        E 0 81 24 00
        E 0 91 2b 36
        E 0 91 34 36
        E 0 92 39 36
        E 0 92 3c 36
        E 302 80 23 00
        E 0 81 2b 00
        E 0 82 39 00
        E 0 90 2b 36
        E 0 91 2f 36
        E 0 92 45 36
        E 943 81 34 00
        E 0 82 3c 00
        E 0 80 2b 00
        E 0 81 2f 00
        E 0 82 45 00
        E 0 90 25 36
        E 0 91 27 36
        E 0 91 2a 36
        E 0 92 47 36
        E 0 92 52 36
        E 471 82 47 00
        E 0 82 52 00
        E 0 92 46 36
        E 0 92 53 36
        E 471 82 46 00
        E 0 82 53 00
        E 0 92 2f 36
        E 0 92 5e 36
        E 472 80 25 00
        E 0 81 27 00
        E 0 82 5e 00
        E 0 90 27 36
        E 0 91 28 36
        E 0 92 5c 36
        E 471 82 2f 00
        E 0 82 5c 00
        E 0 92 2c 36
        E 0 92 47 36
        E 472 80 27 00
        E 0 81 28 00
        E 0 82 2c 00
        E 0 90 25 36
        E 0 91 27 36
        E 0 92 2e 36
        E 471 81 2a 00
        E 0 82 47 00
        E 0 82 2e 00
        E 0 91 29 36
        E 0 92 2a 36
        E 0 92 46 36
        E 379 80 25 00
        E 0 81 27 00
        E 0 82 2a 00
        E 0 90 24 34
        E 0 91 25 34
        E 0 92 2c 34
        E 178 82 46 00
        E 0 81 25 00
        E 0 91 27 34
        E 0 92 43 34
        E 178 81 29 00
        E 0 82 2c 00
        E 0 91 26 34
        E 0 92 2e 34
        E 178 80 24 00
        E 0 81 27 00
        E 0 82 2e 00
        E 0 90 22 34
        E 0 91 29 34
        E 0 92 2d 34
        E 178 82 43 00
        E 0 81 26 00
        E 0 80 22 00
        E 0 81 29 00
        E 0 82 2d 00
        E 0 90 29 36
        E 0 91 2b 36
        E 0 91 2e 36
        E 0 92 32 36
        E 0 92 45 36
        E 303 80 29 00
        E 0 81 2b 00
        E 0 81 2e 00
        E 0 82 45 00
        E 0 90 28 36
        E 0 91 2a 36
        E 0 91 2f 36
        E 0 92 43 36
        E 303 82 32 00
        E 0 80 28 00
        E 0 81 2a 00
        E 0 81 2f 00
        E 0 82 43 00
        E 0 90 24 36
        E 0 91 26 36
        E 0 91 28 36
        E 0 92 2b 36
        E 0 92 47 36
        E 303 80 24 00
        E 0 81 26 00
        E 0 82 2b 00
        E 0 82 47 00
        E 0 90 26 36
        E 0 91 2b 36
        E 0 92 30 36
        E 0 92 53 36
        E 947 81 2b 00
        E 0 82 30 00
        E 0 91 2a 36
        E 0 92 2b 36
        E 473 81 28 00
        E 0 80 26 00
        E 0 82 2b 00
        E 0 90 28 36
        E 0 91 2b 36
        E 0 92 4a 36
        E 473 81 2a 00
        E 0 82 4a 00
        E 0 91 2d 36
        E 0 92 48 36
        E 474 82 53 00
        E 0 81 2d 00
        E 0 91 29 36
        E 0 92 51 36
        E 380 82 48 00
        E 0 92 54 36
        E 304 82 51 00
        E 0 82 54 00
        E 0 92 5d 36
        E 0 92 60 36
        E 950 80 28 00
        E 0 81 29 00
        E 0 82 60 00
        E 0 90 24 36
        E 0 91 28 36
        E 0 92 5f 36
        E 475 81 2b 00
        E 0 82 5d 00
        E 0 80 24 00
        E 0 81 28 00
        E 0 90 2b 36
        E 0 91 34 36
        E 0 91 39 36
        E 0 92 3c 36
        E 476 82 5f 00
        E 0 80 2b 00
        E 0 82 3c 00
        E 0 90 29 36
        E 0 92 3e 36
        E 0 92 60 36
        E 475 81 34 00
        E 0 82 3e 00
        E 0 82 60 00
        E 0 91 32 36
        E 0 92 3c 36
        E 0 92 5e 36
        E 381 81 39 00
        E 0 80 29 00
        E 0 81 32 00
        E 0 82 3c 00
        E 0 82 5e 00
        E 0 90 26 36
        E 0 91 29 36
        E 0 91 2d 36
        E 0 92 30 36
        E 0 92 52 36
        E 306 80 26 00
        E 0 81 29 00
        E 0 81 2d 00
        E 0 82 30 00
        E 0 82 52 00
        E 0 90 22 36
        E 0 91 24 36
        E 0 91 26 36
        E 0 92 29 36
        E 0 92 39 36
        E 954 80 22 00
        E 0 81 24 00
        E 0 81 26 00
        E 0 82 29 00
        E 0 82 39 00
        E 0 90 2a 36
        E 0 91 2c 36
        E 0 91 3f 36
        E 0 92 47 36
        E 0 92 5e 36
        E 477 82 47 00
        E 0 82 5e 00
        E 0 92 52 36
        E 0 92 53 36
        E 477 80 2a 00
        E 0 81 3f 00
        E 0 82 52 00
        E 0 82 53 00
        E 0 90 22 36
        E 0 91 2a 36
        E 0 92 3b 36
        E 0 92 3f 36
        E 477 80 22 00
        E 0 81 2a 00
        E 0 90 25 36
        E 0 91 28 36
        E 477 82 3f 00
        E 0 80 25 00
        E 0 90 27 36
        E 0 92 61 36
        E 478 82 3b 00
        E 0 81 28 00
        E 0 80 27 00
        E 0 90 28 36
        E 0 91 2a 36
        E 0 92 39 36
        E 477 81 2c 00
        E 0 80 28 00
        E 0 90 26 36
        E 0 91 28 36
        E 383 82 61 00
        E 0 81 28 00
        E 0 91 2b 34
        E 0 92 5f 34
        E 180 81 2a 00
        E 0 82 39 00
        E 0 91 28 34
        E 0 92 3c 34
        E 181 80 26 00
        E 0 82 5f 00
        E 0 81 28 00
        E 0 90 28 34
        E 0 91 29 34
        E 0 92 5d 34
        E 180 81 2b 00
        E 0 80 28 00
        E 0 90 26 34
        E 0 91 2e 34
        E 180 82 3c 00
        E 0 82 5d 00
        E 0 80 26 00
        E 0 81 2e 00
        E 0 90 24 36
        E 0 91 26 36
        E 0 92 39 36
        E 0 92 5e 36
        E 307 80 24 00
        E 0 81 26 00
        E 0 82 39 00
        E 0 82 5e 00
        E 0 90 25 36
        E 0 91 27 36
        E 0 92 38 36
        E 0 92 60 36
        E 306 81 29 00
        E 0 80 25 00
        E 0 81 27 00
        E 0 82 38 00
        E 0 82 60 00
        E 0 90 27 36
        E 0 91 2b 36
        E 0 91 2c 36
        E 0 92 35 36
        E 0 92 54 36
        E 307 80 27 00
        E 0 81 2b 00
        E 0 82 54 00
        E 0 90 2b 36
        E 0 91 33 36
        E 0 92 60 36
        E 958 81 2c 00
        E 0 82 35 00
        E 0 80 2b 00
        E 0 81 33 00
        E 0 82 60 00
        E 0 90 2a 36
        E 0 91 2b 36
        E 0 91 2f 36
        E 0 92 32 36
        E 0 92 45 36
        E 479 81 2f 00
        E 0 82 32 00
        E 0 82 45 00
        E 0 91 32 36
        E 0 92 39 36
        E 0 92 3b 36
        E 479 81 32 00
        E 0 82 39 00
        E 0 82 3b 00
        E 0 91 3e 36
        E 0 92 51 36
        E 0 92 53 36
        E 479 80 2a 00
        E 0 82 51 00
        E 0 90 28 36
        E 0 92 54 36
        E 479 81 3e 00
        E 0 82 53 00
        E 0 80 28 00
        E 0 82 54 00
        E 0 90 23 36
        E 0 91 28 36
        E 0 92 32 36
        E 0 92 3c 36
        E 479 81 28 00
        E 0 82 32 00
        E 0 82 3c 00
        E 0 91 2a 36
        E 0 92 2d 36
        E 0 92 3e 36
        E 479 81 2b 00
        E 0 82 3e 00
        E 0 91 26 36
        E 0 92 3d 36
        E 385 80 23 00
        E 0 82 2d 00
        E 0 81 26 00
        E 0 90 21 34
        E 0 91 28 34
        E 0 92 2c 34
        E 181 81 2a 00
        E 0 80 21 00
        E 0 90 23 34
        E 0 91 27 34
        E 181 82 3d 00
        E 0 81 28 00
        E 0 91 2a 34
        E 0 92 3a 34
        E 181 82 2c 00
        E 0 80 23 00
        E 0 81 2a 00
        E 0 90 25 34
        E 0 91 29 34
        E 0 92 2a 34
        E 181 81 27 00
        E 0 82 3a 00
        E 0 80 25 00
        E 0 81 29 00
        E 0 82 2a 00
        E 0 90 29 36
        E 0 91 2a 36
        E 0 91 2e 36
        E 0 92 33 36
        E 0 92 3d 36
        E 308 80 29 00
        E 0 81 2a 00
        E 0 82 33 00
        E 0 82 3d 00
        E 0 90 27 36
        E 0 91 2b 36
        E 0 92 32 36
        E 0 92 3c 36
        E 308 81 2e 00
        E 0 80 27 00
        E 0 81 2b 00
        E 0 82 32 00
        E 0 82 3c 00
        E 0 90 2b 36
        E 0 91 2c 36
        E 0 91 3a 36
        E 0 92 3f 36
        E 0 92 48 36
        E 308 81 3a 00
        E 0 82 3f 00
        E 0 82 48 00
        E 0 91 3f 36
        E 0 92 46 36
        E 0 92 54 36
        E 961 80 2b 00
        E 0 81 2c 00
        E 0 81 3f 00
        E 0 90 27 36
        E 0 91 2b 36
        E 0 91 3e 36
        E 481 82 46 00
        E 0 82 54 00
        E 0 80 27 00
        E 0 81 2b 00
        E 0 81 3e 00
        E 0 90 24 36
        E 0 91 26 36
        E 0 91 27 36
        E 0 92 2b 36
        E 0 92 2e 36
        E 481 80 24 00
        E 0 81 26 00
        E 0 81 27 00
        E 0 82 2b 00
        E 0 82 2e 00
        E 0 90 27 36
        E 0 91 29 36
        E 0 91 2b 36
        E 0 92 2c 36
        E 0 92 30 36
        E 481 80 27 00
        E 0 81 2b 00
        E 0 90 25 36
        E 0 91 27 36
        E 696 82 2c 00
        E 0 82 30 00
        E 0 80 25 00
        E 0 81 27 00
        E 0 90 27 36
        E 0 91 2c 36
        E 0 92 31 36
        E 0 92 3c 36
        E 965 81 2c 00
        E 0 82 31 00
        E 0 91 2b 36
        E 0 92 2c 36
        E 483 81 29 00
        E 0 80 27 00
        E 0 82 3c 00
        E 0 82 2c 00
        E 0 90 24 36
        E 0 91 2c 36
        E 0 92 35 36
        E 0 92 3f 36
        E 483 81 2b 00
        E 0 82 3f 00
        E 0 91 2e 36
        E 0 92 3d 36
        E 483 80 24 00
        E 0 81 2e 00
        E 0 90 22 36
        E 0 91 2a 36
        E 698 82 3d 00
        E 0 80 22 00
        E 0 81 2a 00
        E 0 90 2a 36
        E 0 91 2e 36
        E 0 92 49 36
        E 970 81 2c 00
        E 0 82 35 00
        E 0 80 2a 00
        E 0 81 2e 00
        E 0 82 49 00
        E 0 90 28 36
        E 0 91 2a 36
        E 0 91 2b 36
        E 0 92 47 36
        E 0 92 62 36
        E 485 80 28 00
        E 0 82 47 00
        E 0 82 62 00
        E 0 90 26 36
        E 0 92 34 36
        E 0 92 3b 36
        E 484 80 26 00
        E 0 82 34 00
        E 0 82 3b 00
        E 0 90 28 36
        E 0 92 4a 36
        E 0 92 53 36
        E 485 81 2a 00
        E 0 82 4a 00
        E 0 91 2d 36
        E 0 92 48 36
        E 485 81 2b 00
        E 0 80 28 00
        E 0 82 53 00
        E 0 82 48 00
        E 0 90 2b 36
        E 0 91 30 36
        E 0 92 34 36
        E 0 92 47 36
        E 485 80 2b 00
        E 0 81 30 00
        E 0 82 34 00
        E 0 82 47 00
        E 0 90 28 36
        E 0 91 32 36
        E 0 92 35 36
        E 0 92 48 36
        E 485 81 2d 00
        E 0 80 28 00
        E 0 82 35 00
        E 0 90 29 36
        E 0 91 2e 36
        E 0 92 39 36
        E 389 81 32 00
        E 0 82 48 00
        E 0 82 39 00
        E 0 91 33 34
        E 0 92 37 34
        E 0 92 4a 34
        E 183 80 29 00
        E 0 82 4a 00
        E 0 90 2c 34
        E 0 92 48 34
        E 184 81 2e 00
        E 0 82 37 00
        E 0 80 2c 00
        E 0 90 29 34
        E 0 91 31 34
        E 0 92 38 34
        E 183 81 33 00
        E 0 82 48 00
        E 0 80 29 00
        E 0 81 31 00
        E 0 90 2a 34
        E 0 91 2e 34
        E 0 91 35 34
        E 0 92 49 34
        E 183 82 38 00
        E 0 80 2a 00
        E 0 81 2e 00
        E 0 81 35 00
        E 0 90 29 36
        E 0 91 2a 36
        E 0 91 2c 36
        E 0 92 2e 36
        E 312 80 29 00
        E 0 81 2a 00
        E 0 82 2e 00
        E 0 90 28 36
        E 0 91 2d 36
        E 0 92 2f 36
        E 311 82 49 00
        E 0 80 28 00
        E 0 81 2d 00
        E 0 90 27 36
        E 0 91 28 36
        E 0 92 3d 36
        E 312 82 2f 00
        E 0 82 3d 00
        E 0 92 3b 36
        E 0 92 49 36
        E 973 80 27 00
        E 0 82 49 00
        E 0 90 25 36
        E 0 92 45 36
        E 487 81 28 00
        E 0 82 3b 00
        E 0 80 25 00
        E 0 82 45 00
        E 0 90 23 36
        E 0 91 34 36
        E 0 92 39 36
        E 0 92 3d 36
        E 487 82 39 00
        E 0 82 3d 00
        E 0 92 36 36
        E 0 92 3f 36
        E 486 81 34 00
        E 0 82 3f 00
        E 0 91 33 36
        E 0 92 3a 36
        E 391 82 36 00
        E 0 81 33 00
        E 0 91 2a 36
        E 0 92 3f 36
        E 313 80 23 00
        E 0 82 3a 00
        E 0 81 2a 00
        E 0 90 2a 36
        E 0 91 2f 36
        E 0 92 46 36
        E 978 81 2f 00
        E 0 82 46 00
        E 0 91 34 36
        E 0 92 47 36
        E 488 81 2c 00
        E 0 82 3f 00
        E 0 80 2a 00
        E 0 81 34 00
        E 0 82 47 00
        E 0 90 23 36
        E 0 91 28 36
        E 0 91 2a 36
        E 0 92 2c 36
        E 0 92 33 36
        E 489 80 23 00
        E 0 81 28 00
        E 0 82 2c 00
        E 0 82 33 00
        E 0 90 22 36
        E 0 91 27 36
        E 0 92 2f 36
        E 0 92 31 36
        E 489 81 2a 00
        E 0 82 2f 00
        E 0 91 29 36
        E 0 92 2a 36
        E 706 80 22 00
        E 0 81 27 00
        E 0 82 31 00
        E 0 82 2a 00
        E 0 90 27 36
        E 0 91 2a 36
        E 0 92 2e 36
        E 0 92 3d 36
        E 982 80 27 00
        E 0 81 2a 00
        E 0 82 3d 00
        E 0 90 25 33
        E 0 91 2c 33
        E 0 92 3c 33
        E 589 82 2e 00
        E 0 80 25 00
        E 0 81 2c 00
        E 0 90 27 33
        E 0 91 2b 33
        E 0 92 2c 33
        E 588 81 29 00
        E 0 80 27 00
        E 0 82 2c 00
        E 0 90 26 33
        E 0 91 27 33
        E 0 92 2e 33
        E 589 82 3c 00
        E 0 81 27 00
        E 0 91 29 33
        E 0 92 39 33
        E 5438 82 2e 00
        E 0 81 29 00
        E 0 82 39 00
        E 0 91 28 33
        E 0 92 2f 33
        E 0 92 36 33
        E 2346 82 2f 00
        E 0 82 36 00
        E 0 92 3b 33
        E 0 92 54 33
        E 2346 80 26 00
        E 0 81 28 00
        E 0 82 54 00
        E 0 90 28 34
        E 0 91 2a 34
        E 0 92 56 34
        E 1833 81 2b 00
        E 0 80 28 00
        E 0 81 2a 00
        E 0 82 56 00
        E 0 90 27 34
        E 0 91 28 34
        E 0 91 2c 34
        E 0 92 55 34
        E 1832 82 3b 00
        E 0 80 27 00
        E 0 81 28 00
        E 0 81 2c 00
        E 0 82 55 00
        E 0 90 2c 34
        E 0 91 2d 34
        E 0 91 31 34
        E 0 92 34 34
        E 0 92 53 34
        E 1833 80 2c 00
        E 0 81 2d 00
        E 0 90 27 36
        E 0 91 2c 36
        E 1432 81 31 00
        E 0 82 34 00
        E 0 82 53 00
        E 0 80 27 00
        E 0 90 25 36
        E 0 91 30 36
        E 0 92 35 36
        E 0 92 52 36
        E 1432 80 25 00
        E 0 81 30 00
        E 0 82 35 00
        E 0 82 52 00
        E 0 90 29 36
        E 0 91 2a 36
        E 0 92 3d 36
        E 0 92 5e 36
        E 1432 80 29 00
        E 0 81 2a 00
        E 0 82 3d 00
        E 0 90 25 3b
        E 0 91 29 3b
        E 0 92 3c 3b
        E 1119 81 2c 00
        E 0 82 5e 00
        E 0 80 25 00
        E 0 82 3c 00
        E 0 90 26 3b
        E 0 91 2b 3b
        E 0 92 3a 3b
        E 0 92 5d 3b
        E 1118 81 2b 00
        E 0 82 3a 00
        E 0 82 5d 00
        E 0 91 27 3b
        E 0 92 2b 3b
        E 0 92 46 3b
        E 1119 80 26 00
        E 0 81 27 00
        E 0 82 2b 00
        E 0 82 46 00
        E 0 90 22 3b
        E 0 91 2b 3b
        E 0 92 33 3b
        E 0 92 56 3b
        E 854 81 29 00
        E 0 80 22 00
        E 0 81 2b 00
        E 0 82 33 00
        E 0 82 56 00
        E 0 90 2c 3b
        E 0 91 31 3b
        E 0 91 34 3b
        E 0 92 3b 3b
        E 0 92 5d 3b
        E 853 82 3b 00
        E 0 82 5d 00
        E 0 92 47 3b
        E 0 92 51 3b
        E 854 80 2c 00
        E 0 81 31 00
        E 0 81 34 00
        E 0 82 47 00
        E 0 82 51 00
        E 0 90 21 3b
        E 0 91 23 3b
        E 0 91 2c 3b
        E 0 92 34 3b
        E 0 92 49 3b
        E 853 81 23 00
        E 0 91 2a 3b
        E 683 80 21 00
        E 0 82 34 00
        E 0 82 49 00
        E 0 90 28 3b
        E 0 92 31 3b
        E 0 92 39 3b
        E 683 81 2a 00
        E 0 80 28 00
        E 0 82 31 00
        E 0 82 39 00
        E 0 90 2a 3b
        E 0 91 34 3b
        E 0 92 55 3b
        E 0 92 5d 3b
        E 1708 81 2c 00
        E 0 80 2a 00
        E 0 81 34 00
        E 0 82 55 00
        E 0 82 5d 00
        E 0 90 26 36
        E 0 91 27 36
        E 0 91 2b 36
        E 0 92 30 36
        E 0 92 46 36
        E 1042 82 30 00
        E 0 82 46 00
        E 0 92 3a 36
        E 0 92 3c 36
        E 1042 80 26 00
        E 0 81 27 00
        E 0 82 3a 00
        E 0 82 3c 00
        E 0 90 27 36
        E 0 91 32 36
        E 0 92 52 36
        E 0 92 54 36
        E 1042 81 2b 00
        E 0 81 32 00
        E 0 82 52 00
        E 0 91 29 36
        E 0 91 31 36
        E 0 92 50 36
        E 1042 80 27 00
        E 0 82 54 00
        E 0 81 29 00
        E 0 81 31 00
        E 0 82 50 00
        E 0 90 24 36
        E 0 91 25 36
        E 0 91 27 36
        E 0 92 29 36
        E 0 92 2c 36
        E 1042 80 24 00
        E 0 81 25 00
        E 0 82 29 00
        E 0 90 22 36
        E 0 91 24 36
        E 0 92 2b 36
        E 1042 81 27 00
        E 0 82 2c 00
        E 0 91 26 36
        E 0 92 27 36
        E 1506 80 22 00
        E 0 81 24 00
        E 0 82 2b 00
        E 0 81 26 00
        E 0 82 27 00
        E 0 90 26 36
        E 0 91 27 36
        E 0 91 2b 36
        E 0 92 2e 36
        E 0 92 30 36
        E 2092 80 26 00
        E 0 81 27 00
        E 0 81 2b 00
        E 0 82 2e 00
        E 0 82 30 00
        E 0 90 28 36
        E 0 91 2a 36
        E 0 91 31 36
        E 0 92 32 36
        E 0 92 5d 36
        E 837 81 31 00
        E 0 82 32 00
        E 0 82 5d 00
        E 0 91 32 36
        E 0 92 3d 36
        E 0 92 51 36
        E 837 80 28 00
        E 0 81 2a 00
        E 0 81 32 00
        E 0 82 3d 00
        E 0 82 51 00
        E 0 90 21 36
        E 0 91 25 36
        E 0 91 28 36
        E 0 92 2a 36
        E 0 92 32 36
        E 837 81 25 00
        E 0 81 28 00
        E 0 82 2a 00
        E 0 91 23 36
        E 0 91 2a 36
        E 0 92 2b 36
        E 836 80 21 00
        E 0 82 32 00
        E 0 81 23 00
        E 0 81 2a 00
        E 0 82 2b 00
        E 0 90 2a 36
        E 0 91 2b 36
        E 0 91 32 36
        E 0 92 45 36
        E 0 92 5f 36
        E 837 80 2a 00
        E 0 81 2b 00
        E 0 90 25 3b
        E 0 91 2a 3b
        E 837 81 32 00
        E 0 82 45 00
        E 0 82 5f 00
        E 0 80 25 00
        E 0 90 23 3b
        E 0 91 33 3b
        E 0 92 44 3b
        E 0 92 5e 3b
        E 837 80 23 00
        E 0 81 33 00
        E 0 82 44 00
        E 0 82 5e 00
        E 0 90 28 3b
        E 0 91 2c 3b
        E 0 92 2f 3b
        E 0 92 4b 3b
        E 837 82 2f 00
        E 0 82 4b 00
        E 0 92 33 3b
        E 0 92 53 3b
        E 638 81 2a 00
        E 0 80 28 00
        E 0 81 2c 00
        E 0 82 33 00
        E 0 82 53 00
        E 0 90 24 3b
        E 0 91 26 3b
        E 0 91 29 3b
        E 0 92 39 3b
        E 0 92 52 3b
        E 639 82 39 00
        E 0 82 52 00
        E 0 92 2d 3b
        E 0 92 5e 3b
        E 638 82 2d 00
        E 0 82 5e 00
        E 0 92 3a 3b
        E 0 92 45 3b
        E 639 80 24 00
        E 0 82 3a 00
        E 0 90 22 3b
        E 0 92 37 3b
        E 510 81 26 00
        E 0 82 45 00
        E 0 80 22 00
        E 0 82 37 00
        E 0 90 21 3b
        E 0 91 2b 3b
        E 0 92 32 3b
        E 0 92 52 3b
        E 511 81 29 00
        E 0 80 21 00
        E 0 82 32 00
        E 0 82 52 00
        E 0 90 29 3b
        E 0 91 32 3b
        E 0 92 3a 3b
        E 0 92 45 3b
        E 2496 81 2b 00
        E 0 80 29 00
        E 0 81 32 00
        E 0 82 3a 00
        E 0 82 45 00
        E 0 90 27 34
        E 0 91 28 34
        E 0 91 2c 34
        E 0 92 2f 34
        E 0 92 55 34
        E 1218 80 27 00
        E 0 81 2c 00
        E 0 82 2f 00
        E 0 82 55 00
        E 0 90 23 34
        E 0 91 27 34
        E 0 92 2c 34
        E 0 92 61 34
        E 1218 80 23 00
        E 0 81 27 00
        E 0 82 2c 00
        E 0 82 61 00
        E 0 90 27 34
        E 0 91 2c 34
        E 0 92 3b 34
        E 0 92 3d 34
        E 1217 81 28 00
        E 0 80 27 00
        E 0 82 3b 00
        E 0 82 3d 00
        E 0 90 24 34
        E 0 91 2b 34
        E 0 92 3f 34
        E 0 92 52 34
        E 1218 80 24 00
        E 0 81 2b 00
        E 0 82 52 00
        E 0 90 2b 34
        E 0 91 30 34
        E 0 92 46 34
        E 1218 82 3f 00
        E 0 81 30 00
        E 0 82 46 00
        E 0 91 33 34
        E 0 92 54 34
        E 0 92 5e 34
        E 1218 80 2b 00
        E 0 81 33 00
        E 0 82 54 00
        E 0 82 5e 00
        E 0 90 29 34
        E 0 91 31 34
        E 0 92 57 34
        E 0 92 60 34
        E 1217 80 29 00
        E 0 81 31 00
        E 0 82 57 00
        E 0 82 60 00
        E 0 90 27 34
        E 0 91 29 34
        E 0 92 30 34
        E 0 92 3d 34
        E 1218 81 29 00
        E 0 82 3d 00
        E 0 91 2b 34
        E 0 92 3a 34
        E 1218 81 2c 00
        E 0 80 27 00
        E 0 90 26 34
        E 0 91 27 34
        E 978 82 30 00
        E 0 82 3a 00
        E 0 81 27 00
        E 0 91 29 33
        E 0 92 2e 33
        E 0 92 39 33
        E 460 81 2b 00
        E 0 82 2e 00
        E 0 91 28 33
        E 0 92 30 33
        E 461 80 26 00
        E 0 81 29 00
        E 0 82 30 00
        E 0 90 24 33
        E 0 91 2b 33
        E 0 92 2f 33
        E 460 82 39 00
        E 0 80 24 00
        E 0 82 2f 00
        E 0 90 23 33
        E 0 92 32 33
        E 0 92 36 33
        E 460 81 28 00
        E 0 80 23 00
        E 0 82 32 00
        E 0 82 36 00
        E 0 90 28 34
        E 0 91 2a 34
        E 0 92 3b 34
        E 0 92 3e 34
        E 783 81 2b 00
        E 0 80 28 00
        E 0 81 2a 00
        E 0 82 3e 00
        E 0 90 27 34
        E 0 91 28 34
        E 0 91 2c 34
        E 0 92 3d 34
        E 782 82 3b 00
        E 0 80 27 00
        E 0 81 28 00
        E 0 81 2c 00
        E 0 82 3d 00
        E 0 90 2c 34
        E 0 91 31 34
        E 0 91 34 34
        E 0 92 45 34
        E 0 92 47 34
        E 783 82 45 00
        E 0 82 47 00
        E 0 92 51 34
        E 0 92 53 34
        E 2445 81 31 00
        E 0 82 51 00
        E 0 91 33 34
        E 0 92 55 34
        E 1223 80 2c 00
        E 0 81 34 00
        E 0 82 53 00
        E 0 81 33 00
        E 0 82 55 00
        E 0 90 27 34
        E 0 91 28 34
        E 0 91 2c 34
        E 0 92 3b 34
        E 0 92 61 34
        E 1222 80 27 00
        E 0 81 28 00
        E 0 82 3b 00
        E 0 90 28 34
        E 0 91 2a 34
        E 0 92 39 34
        E 1223 81 2c 00
        E 0 80 28 00
        E 0 90 26 34
        E 0 91 28 34
        E 982 82 39 00
        E 0 92 45 34
        E 786 82 61 00
        E 0 80 26 00
        E 0 82 45 00
        E 0 90 25 34
        E 0 92 32 34
        E 0 92 51 34
        E 2455 82 32 00
        E 0 92 2c 34
        E 1227 81 28 00
        E 0 80 25 00
        E 0 82 51 00
        E 0 82 2c 00
        E 0 90 28 34
        E 0 91 2c 34
        E 0 92 2d 34
        E 0 92 3d 34
        E 1228 80 28 00
        E 0 81 2c 00
        E 0 82 2d 00
        E 0 90 26 34
        E 0 91 2d 34
        E 0 92 2f 34
        E 1227 82 3d 00
        E 0 81 2d 00
        E 0 91 2b 34
        E 0 92 39 34
        E 986 81 2a 00
        E 0 80 26 00
        E 0 82 2f 00
        E 0 82 39 00
        E 0 90 2a 34
        E 0 91 2d 34
        E 0 92 32 34
        E 0 92 3b 34
        E 789 81 2d 00
        E 0 82 32 00
        E 0 82 3b 00
        E 0 91 32 34
        E 0 92 39 34
        E 0 92 47 34
        E 2465 81 2b 00
        E 0 80 2a 00
        E 0 81 32 00
        E 0 82 39 00
        E 0 82 47 00
        E 0 90 2b 34
        E 0 91 2c 34
        E 0 91 35 34
        E 0 92 4b 34
        E 0 92 60 34
        E 986 82 4b 00
        E 0 82 60 00
        E 0 92 54 34
        E 0 92 57 34
        E 986 80 2b 00
        E 0 81 35 00
        E 0 82 54 00
        E 0 82 57 00
        E 0 90 24 34
        E 0 91 2b 34
        E 0 92 35 34
        E 0 92 3f 34
        E 986 81 2b 00
        E 0 82 3f 00
        E 0 91 2e 34
        E 0 92 3d 34
        E 986 82 35 00
        E 0 81 2e 00
        E 0 91 35 34
        E 0 92 46 34
        E 986 80 24 00
        E 0 90 2a 36
        E 986 81 2c 00
        E 0 81 35 00
        E 0 82 46 00
        E 0 80 2a 00
        E 0 90 2c 36
        E 0 91 2d 36
        E 0 91 34 36
        E 0 92 47 36
        E 986 82 3d 00
        E 0 80 2c 00
        E 0 81 2d 00
        E 0 81 34 00
        E 0 82 47 00
        E 0 90 23 36
        E 0 91 27 36
        E 0 91 28 36
        E 0 92 2c 36
        E 0 92 55 36
        E 986 81 27 00
        E 0 82 55 00
        E 0 91 25 3b
        E 0 92 51 3b
        E 770 80 23 00
        E 0 82 2c 00
        E 0 81 25 00
        E 0 82 51 00
        E 0 90 24 3b
        E 0 91 26 3b
        E 0 92 2b 3b
        E 0 92 53 3b
        E 771 81 28 00
        E 0 80 24 00
        E 0 81 26 00
        E 0 82 2b 00
        E 0 82 53 00
        E 0 90 28 3b
        E 0 91 2a 3b
        E 0 91 2b 3b
        E 0 92 3e 3b
        E 0 92 5f 3b
        E 770 82 3e 00
        E 0 82 5f 00
        E 0 92 32 3b
        E 0 92 3b 3b
        E 588 80 28 00
        E 0 81 2a 00
        E 0 81 2b 00
        E 0 82 32 00
        E 0 82 3b 00
        E 0 90 2c 3b
        E 0 91 2e 3b
        E 0 91 31 3b
        E 0 92 35 3b
        E 0 92 60 3b
        E 587 80 2c 00
        E 0 81 2e 00
        E 0 81 31 00
        E 0 82 60 00
        E 0 90 22 3b
        E 0 91 24 3b
        E 0 91 2c 3b
        E 0 92 3d 3b
        E 588 82 35 00
        E 0 80 22 00
        E 0 81 24 00
        E 0 81 2c 00
        E 0 82 3d 00
        E 0 90 2c 3b
        E 0 91 31 3b
        E 0 91 35 3b
        E 0 92 3a 3b
        E 0 92 48 3b
        E 588 80 2c 00
        E 0 81 35 00
        E 0 82 48 00
        E 0 90 2a 3b
        E 0 91 33 3b
        E 0 92 47 3b
        E 470 81 31 00
        E 0 82 3a 00
        E 0 80 2a 00
        E 0 81 33 00
        E 0 82 47 00
        E 0 90 25 3b
        E 0 91 27 3b
        E 0 91 2a 3b
        E 0 92 3b 3b
        E 0 92 46 3b
        E 470 80 25 00
        E 0 81 2a 00
        E 0 82 3b 00
        E 0 82 46 00
        E 0 90 22 3b
        E 0 91 25 3b
        E 0 92 2a 3b
        E 0 92 2f 3b
        E 1177 81 27 00
        E 0 80 22 00
        E 0 81 25 00
        E 0 82 2a 00
        E 0 82 2f 00
        E 0 90 21 36
        E 0 91 28 36
        E 0 91 29 36
        E 0 92 2b 36
        E 0 92 60 36
        E 717 80 21 00
        E 0 81 28 00
        E 0 82 2b 00
        E 0 90 28 36
        E 0 91 2b 36
        E 0 92 5d 36
        E 717 82 60 00
        E 0 82 5d 00
        E 0 92 2d 36
        E 0 92 48 36
        E 718 80 28 00
        E 0 81 2b 00
        E 0 90 26 36
        E 0 91 28 36
        E 717 82 2d 00
        E 0 82 48 00
        E 0 92 3c 36
        E 0 92 45 36
        E 718 81 28 00
        E 0 82 3c 00
        E 0 91 2b 36
        E 0 92 3a 36
        E 717 80 26 00
        E 0 82 45 00
        E 0 82 3a 00
        E 0 90 27 36
        E 0 92 3e 36
        E 0 92 46 36
        E 1037 82 3e 00
        E 0 82 46 00
        E 0 92 4a 36
        E 0 92 52 36
        E 1441 81 29 00
        E 0 81 2b 00
        E 0 80 27 00
        E 0 82 4a 00
        E 0 82 52 00
        E 0 90 23 36
        E 0 91 28 36
        E 0 91 2c 36
        E 0 92 33 36
        E 0 92 55 36
        E 576 80 23 00
        E 0 81 28 00
        E 0 82 33 00
        E 0 90 28 36
        E 0 91 33 36
        E 0 92 5f 36
        E 576 82 55 00
        E 0 81 33 00
        E 0 82 5f 00
        E 0 91 2f 36
        E 0 92 33 36
        E 0 92 3d 36
        E 577 80 28 00
        E 0 81 2f 00
        E 0 82 33 00
        E 0 90 2a 36
        E 0 91 2d 36
        E 0 92 34 36
        E 576 82 3d 00
        E 0 81 2d 00
        E 0 91 31 36
        E 0 92 5d 36
        E 576 81 2c 00
        E 0 80 2a 00
        E 0 82 34 00
        E 0 90 28 3b
        E 0 91 2a 3b
        E 0 92 32 3b
        E 576 81 31 00
        E 0 80 28 00
        E 0 81 2a 00
        E 0 82 32 00
        E 0 90 29 3b
        E 0 91 2b 3b
        E 0 91 30 3b
        E 0 92 34 3b
        E 576 82 5d 00
        E 0 80 29 00
        E 0 81 30 00
        E 0 82 34 00
        E 0 90 23 3b
        E 0 91 34 3b
        E 0 92 3c 3b
        E 0 92 45 3b
        E 577 80 23 00
        E 0 81 34 00
        E 0 82 3c 00
        E 0 82 45 00
        E 0 90 21 3b
        E 0 91 30 3b
        E 0 92 34 3b
        E 0 92 5f 3b
        E 439 81 2b 00
        E 0 80 21 00
        E 0 81 30 00
        E 0 82 34 00
        E 0 82 5f 00
        E 0 90 25 3b
        E 0 91 29 3b
        E 0 91 2a 3b
        E 0 92 33 3b
        E 0 92 5e 3b
        E 440 80 25 00
        E 0 81 29 00
        E 0 82 5e 00
        E 0 90 29 3b
        E 0 91 31 3b
        E 0 92 52 3b
        E 440 81 2a 00
        E 0 82 33 00
        E 0 80 29 00
        E 0 81 31 00
        E 0 82 52 00
        E 0 90 22 3b
        E 0 91 27 3b
        E 0 91 29 3b
        E 0 92 2a 3b
        E 0 92 61 3b
        E 439 80 22 00
        E 0 81 29 00
        E 0 82 61 00
        E 0 90 23 3b
        E 0 91 28 3b
        E 0 92 5c 3b
        E 352 81 27 00
        E 0 82 2a 00
        E 0 80 23 00
        E 0 81 28 00
        E 0 82 5c 00
        E 0 90 27 3b
        E 0 91 2a 3b
        E 0 91 2c 3b
        E 0 92 34 3b
        E 0 92 3b 3b
        E 352 80 27 00
        E 0 82 34 00
        E 0 82 3b 00
        E 0 90 28 3b
        E 0 92 4b 3b
        E 0 92 5f 3b
        E 3028 81 2a 00
        E 0 81 2c 00
        E 0 80 28 00
        E 0 82 4b 00
        E 0 82 5f 00
        E 0 90 22 33
        E 0 91 26 33
        E 0 91 29 33
        E 0 92 30 33
        E 0 92 45 33
        E 1311 80 22 00
        E 0 81 26 00
        E 0 82 45 00
        E 0 90 26 33
        E 0 91 2e 33
        E 0 92 39 33
        E 1310 82 30 00
        E 0 80 26 00
        E 0 81 2e 00
        E 0 82 39 00
        E 0 90 24 33
        E 0 91 26 33
        E 0 92 51 33
        E 0 92 52 33
        E 1310 81 29 00
        E 0 80 24 00
        E 0 81 26 00
        E 0 82 51 00
        E 0 82 52 00
        E 0 90 28 33
        E 0 91 2c 33
        E 0 91 31 33
        E 0 92 33 33
        E 0 92 5f 33
        E 1310 81 31 00
        E 0 82 33 00
        E 0 82 5f 00
        E 0 91 33 33
        E 0 92 3d 33
        E 0 92 53 33
        E 1310 80 28 00
        E 0 81 2c 00
        E 0 81 33 00
        E 0 82 3d 00
        E 0 82 53 00
        E 0 90 23 33
        E 0 91 25 33
        E 0 91 28 33
        E 0 92 2c 33
        E 0 92 33 33
        E 1311 80 23 00
        E 0 81 25 00
        E 0 82 33 00
        E 0 90 21 33
        E 0 91 2a 33
        E 0 92 31 33
        E 1310 81 28 00
        E 0 82 2c 00
        E 0 80 21 00
        E 0 82 31 00
        E 0 90 28 33
        E 0 91 2c 33
        E 0 92 51 33
        E 0 92 61 33
        E 1310 80 28 00
        E 0 81 2c 00
        E 0 90 26 33
        E 0 91 2f 33
        E 1310 82 61 00
        E 0 81 2f 00
        E 0 91 2b 33
        E 0 92 5f 33
        E 1053 81 2a 00
        E 0 82 51 00
        E 0 91 28 32
        E 0 92 54 32
        E 495 80 26 00
        E 0 82 5f 00
        E 0 81 28 00
        E 0 90 28 32
        E 0 91 29 32
        E 0 92 5d 32
        E 495 81 2b 00
        E 0 80 28 00
        E 0 90 26 32
        E 0 91 2e 32
        E 495 82 54 00
        E 0 82 5d 00
        E 0 80 26 00
        E 0 90 27 32
        E 0 92 56 32
        E 0 92 5b 32
        E 495 81 2e 00
        E 0 82 5b 00
        E 0 91 2b 33
        E 0 92 52 33
        E 842 81 29 00
        E 0 80 27 00
        E 0 82 56 00
        E 0 81 2b 00
        E 0 90 29 33
        E 0 91 2a 33
        E 0 91 2c 33
        E 0 92 55 33
        E 842 82 52 00
        E 0 80 29 00
        E 0 81 2a 00
        E 0 81 2c 00
        E 0 82 55 00
        E 0 90 2c 33
        E 0 91 31 33
        E 0 91 35 33
        E 0 92 5e 33
        E 0 92 60 33
        E 842 80 2c 00
        E 0 81 31 00
        E 0 81 35 00
        E 0 82 5e 00
        E 0 82 60 00
        E 0 90 22 33
        E 0 91 2c 33
        E 0 91 30 33
        E 0 92 35 33
        E 0 92 3d 33
        E 2631 80 22 00
        E 0 81 2c 00
        E 0 81 30 00
        E 0 82 35 00
        E 0 82 3d 00
        E 0 90 28 33
        E 0 91 2b 33
        E 0 91 32 33
        E 0 92 47 33
        E 0 92 54 33
        E 1315 80 28 00
        E 0 81 2b 00
        E 0 81 32 00
        E 0 82 47 00
        E 0 82 54 00
        E 0 90 24 33
        E 0 91 26 33
        E 0 91 28 33
        E 0 92 2b 33
        E 0 92 3b 33
        E 1316 80 24 00
        E 0 81 26 00
        E 0 81 28 00
        E 0 82 2b 00
        E 0 82 3b 00
        E 0 90 28 33
        E 0 91 2b 33
        E 0 91 32 33
        E 0 92 3c 33
        E 0 92 53 33
        E 1315 80 28 00
        E 0 81 32 00
        E 0 82 53 00
        E 0 90 29 33
        E 0 91 34 33
        E 0 92 51 33
        E 1316 82 51 00
        E 0 92 39 33
        E 1315 80 29 00
        E 0 81 34 00
        E 0 82 39 00
        E 0 90 28 33
        E 0 91 32 33
        E 0 92 3b 33
        E 1316 82 3c 00
        E 0 80 28 00
        E 0 81 32 00
        E 0 90 2a 33
        E 0 91 34 33
        E 0 92 3e 33
        E 1056 81 2b 00
        E 0 81 34 00
        E 0 82 3e 00
        E 0 91 2d 32
        E 0 91 32 32
        E 0 92 3d 32
        E 498 82 3b 00
        E 0 81 2d 00
        E 0 81 32 00
        E 0 91 2c 32
        E 0 91 34 32
        E 0 92 39 32
        E 497 80 2a 00
        E 0 81 34 00
        E 0 82 39 00
        E 0 90 28 32
        E 0 91 33 32
        E 0 92 3b 32
        E 497 82 3d 00
        E 0 80 28 00
        E 0 81 33 00
        E 0 90 27 32
        E 0 91 36 32
        E 0 92 3a 32
        E 497 80 27 00
        E 0 81 36 00
        E 0 82 3a 00
        E 0 90 2a 33
        E 0 91 3a 33
        E 0 92 3f 33
        E 845 82 3b 00
        E 0 80 2a 00
        E 0 81 3a 00
        E 0 90 29 33
        E 0 91 37 33
        E 0 92 3c 33
        E 846 82 3f 00
        E 0 81 37 00
        E 0 91 31 33
        E 0 92 33 33
        E 845 82 3c 00
        E 0 81 31 00
        E 0 82 33 00
        E 0 91 33 33
        E 0 92 3d 33
        E 0 92 48 33
        E 2641 80 29 00
        E 0 81 33 00
        E 0 82 3d 00
        E 0 90 2b 33
        E 0 91 35 33
        E 0 92 3f 33
        E 1321 80 2b 00
        E 0 81 35 00
        E 0 82 3f 00
        E 0 90 27 33
        E 0 91 2b 33
        E 0 92 41 33
        E 1321 82 48 00
        E 0 80 27 00
        E 0 81 2b 00
        E 0 90 24 33
        E 0 91 2e 33
        E 0 92 49 33
        E 1321 80 24 00
        E 0 81 2e 00
        E 0 90 22 33
        E 0 91 2a 33
        E 1061 82 41 00
        E 0 82 49 00
        E 0 80 22 00
        E 0 81 2a 00
        E 0 90 2a 33
        E 0 91 35 33
        E 0 92 46 33
        E 0 92 61 33
        E 848 80 2a 00
        E 0 81 35 00
        E 0 82 46 00
        E 0 82 61 00
        E 0 90 29 33
        E 0 91 2a 33
        E 0 92 31 33
        E 0 92 52 33
        E 2652 80 29 00
        E 0 81 2a 00
        E 0 90 24 33
        E 0 91 29 33
        E 1326 81 2c 00
        E 0 82 31 00
        E 0 82 52 00
        E 0 80 24 00
        E 0 81 29 00
        E 0 90 2c 33
        E 0 91 2e 33
        E 0 91 30 33
        E 0 92 35 33
        E 0 92 3d 33
        E 1326 80 2c 00
        E 0 81 30 00
        E 0 82 35 00
        E 0 90 29 33
        E 0 91 33 33
        E 0 92 36 33
        E 1326 81 2e 00
        E 0 80 29 00
        E 0 82 36 00
        E 0 90 2a 33
        E 0 91 2f 33
        E 0 92 3a 33
        E 1065 82 3d 00
        E 0 81 33 00
        E 0 80 2a 00
        E 0 81 2f 00
        E 0 82 3a 00
        E 0 90 22 33
        E 0 91 23 33
        E 0 91 27 33
        E 0 92 2a 33
        E 0 92 31 33
        E 853 80 22 00
        E 0 81 23 00
        E 0 81 27 00
        E 0 82 2a 00
        E 0 90 27 33
        E 0 91 2a 33
        E 0 91 2e 33
        E 0 92 2f 33
        E 2662 82 31 00
        E 0 80 27 00
        E 0 81 2a 00
        E 0 81 2e 00
        E 0 82 2f 00
        E 0 90 2b 33
        E 0 91 30 33
        E 0 91 34 33
        E 0 92 51 33
        E 0 92 5f 33
        E 1332 80 2b 00
        E 0 81 30 00
        E 0 82 51 00
        E 0 82 5f 00
        E 0 90 23 33
        E 0 91 2b 33
        E 0 92 3c 33
        E 0 92 45 33
        E 1331 80 23 00
        E 0 81 2b 00
        E 0 82 3c 00
        E 0 82 45 00
        E 0 90 2b 33
        E 0 91 30 33
        E 0 92 47 33
        E 0 92 5d 33
        E 1331 80 2b 00
        E 0 81 30 00
        E 0 82 47 00
        E 0 90 29 33
        E 0 91 32 33
        E 0 92 48 33
        E 1332 81 34 00
        E 0 82 5d 00
        E 0 80 29 00
        E 0 81 32 00
        E 0 82 48 00
        E 0 90 26 33
        E 0 91 28 33
        E 0 91 29 33
        E 0 92 30 33
        E 0 92 39 33
        E 1331 81 28 00
        E 0 82 30 00
        E 0 91 2b 33
        E 0 92 2e 33
        E 1331 80 26 00
        E 0 82 39 00
        E 0 82 2e 00
        E 0 90 27 33
        E 0 92 32 33
        E 0 92 3a 33
        E 1070 81 29 00
        E 0 82 32 00
        E 0 91 2c 32
        E 0 92 30 32
        E 503 81 2b 00
        E 0 82 3a 00
        E 0 82 30 00
        E 0 91 29 32
        E 0 92 31 32
        E 0 92 3c 32
        E 503 80 27 00
        E 0 81 29 00
        E 0 82 3c 00
        E 0 90 29 32
        E 0 91 2a 32
        E 0 92 3a 32
        E 504 81 2c 00
        E 0 82 31 00
        E 0 80 29 00
        E 0 82 3a 00
        E 0 90 27 32
        E 0 91 2e 32
        E 0 92 2f 32
        E 0 92 3d 32
        E 503 80 27 00
        E 0 81 2e 00
        E 0 82 3d 00
        E 0 90 25 33
        E 0 91 27 33
        E 0 92 2e 33
        E 855 82 2f 00
        E 0 80 25 00
        E 0 81 27 00
        E 0 82 2e 00
        E 0 90 26 33
        E 0 91 28 33
        E 0 92 2d 33
        E 0 92 31 33
        E 856 80 26 00
        E 0 81 28 00
        E 0 82 2d 00
        E 0 82 31 00
        E 0 90 28 33
        E 0 91 2c 33
        E 0 92 3d 33
        E 0 92 45 33
        E 855 82 3d 00
        E 0 82 45 00
        E 0 92 49 33
        E 0 92 51 33
        E 2674 80 28 00
        E 0 81 2c 00
        E 0 90 26 33
        E 0 91 28 33
        E 1336 82 49 00
        E 0 82 51 00
        E 0 92 45 33
        E 0 92 55 33
        E 1337 81 2a 00
        E 0 80 26 00
        E 0 82 55 00
        E 0 90 25 33
        E 0 91 2c 33
        E 0 92 53 33
        E 1337 82 45 00
        E 0 80 25 00
        E 0 90 27 33
        E 0 92 49 33
        E 1074 82 53 00
        E 0 82 49 00
        E 0 92 3b 33
        E 0 92 55 33
        E 858 82 3b 00
        E 0 82 55 00
        E 0 92 47 33
        E 0 92 61 33
        E 2685 80 27 00
        E 0 82 61 00
        E 0 90 25 33
        E 0 92 5d 33
        E 1342 81 28 00
        E 0 81 2c 00
        E 0 82 47 00
        E 0 80 25 00
        E 0 82 5d 00
        E 0 90 2c 33
        E 0 91 2d 33
        E 0 91 2f 33
        E 0 92 31 33
        E 0 92 34 33
        E 1342 80 2c 00
        E 0 81 2d 00
        E 0 82 31 00
        E 0 90 2a 33
        E 0 91 2c 33
        E 0 92 33 33
        E 1342 81 2f 00
        E 0 82 34 00
        E 0 91 2e 33
        E 0 92 2f 33
        E 1940 82 33 00
        E 0 81 2e 00
        E 0 82 2f 00
        E 0 91 33 33
        E 0 92 3a 33
        E 0 92 3b 33
        E 2695 80 2a 00
        E 0 81 2c 00
        E 0 81 33 00
        E 0 82 3a 00
        E 0 82 3b 00
        E 0 90 26 33
        E 0 91 29 33
        E 0 91 2e 33
        E 0 92 30 33
        E 0 92 51 33
        E 1078 81 2e 00
        E 0 82 30 00
        E 0 82 51 00
        E 0 91 30 33
        E 0 92 3a 33
        E 0 92 45 33
        E 1078 80 26 00
        E 0 81 30 00
        E 0 82 3a 00
        E 0 82 45 00
        E 0 90 24 33
        E 0 91 26 33
        E 0 92 5d 33
        E 0 92 5e 33
        E 1078 80 24 00
        E 0 81 26 00
        E 0 82 5d 00
        E 0 90 26 33
        E 0 91 27 33
        E 0 92 5b 33
        E 1078 82 5e 00
        E 0 80 26 00
        E 0 81 27 00
        E 0 82 5b 00
        E 0 90 27 33
        E 0 91 2b 33
        E 0 92 46 33
        E 0 92 56 33
        E 1078 80 27 00
        E 0 82 56 00
        E 0 90 26 34
        E 0 92 51 34
        E 1078 81 29 00
        E 0 82 46 00
        E 0 82 51 00
        E 0 91 28 34
        E 0 92 47 34
        E 0 92 4e 34
        E 1078 81 2b 00
        E 0 80 26 00
        E 0 82 47 00
        E 0 82 4e 00
        E 0 90 23 34
        E 0 91 26 34
        E 0 92 2b 34
        E 0 92 48 34
        E 1078 81 26 00
        E 0 82 48 00
        E 0 91 2a 36
        E 0 92 4a 36
        E 842 82 2b 00
        E 0 81 2a 00
        E 0 82 4a 00
        E 0 91 27 36
        E 0 92 2c 36
        E 0 92 49 36
        E 842 81 28 00
        E 0 80 23 00
        E 0 81 27 00
        E 0 82 2c 00
        E 0 82 49 00
        E 0 90 2c 36
        E 0 91 31 36
        E 0 91 34 36
        E 0 92 3b 36
        E 0 92 5d 36
        E 842 81 31 00
        E 0 82 3b 00
        E 0 82 5d 00
        E 0 91 33 3b
        E 0 92 3d 3b
        E 0 92 5f 3b
        E 658 81 34 00
        E 0 81 33 00
        E 0 82 3d 00
        E 0 82 5f 00
        E 0 91 31 3b
        E 0 91 35 3b
        E 0 92 3c 3b
        E 0 92 5e 3b
        E 658 80 2c 00
        E 0 81 31 00
        E 0 81 35 00
        E 0 82 3c 00
        E 0 82 5e 00
        E 0 90 29 3b
        E 0 91 2a 3b
        E 0 91 2c 3b
        E 0 92 31 3b
        E 0 92 46 3b
        E 658 80 29 00
        E 0 82 31 00
        E 0 82 46 00
        E 0 90 22 3b
        E 0 92 35 3b
        E 0 92 61 3b
        E 502 81 2a 00
        E 0 81 2c 00
        E 0 80 22 00
        E 0 82 35 00
        E 0 82 61 00
        E 0 90 26 3b
        E 0 91 28 3b
        E 0 91 2b 3b
        E 0 92 30 3b
        E 0 92 53 3b
        E 502 82 30 00
        E 0 82 53 00
        E 0 92 3c 3b
        E 0 92 47 3b
        E 502 80 26 00
        E 0 81 28 00
        E 0 82 3c 00
        E 0 82 47 00
        E 0 90 28 3b
        E 0 91 32 3b
        E 0 92 54 3b
        E 0 92 5f 3b
        E 502 81 32 00
        E 0 82 54 00
        E 0 82 5f 00
        E 0 91 30 3b
        E 0 92 53 3b
        E 0 92 5d 3b
        E 402 81 2b 00
        E 0 80 28 00
        E 0 82 53 00
        E 0 82 5d 00
        E 0 90 2b 3b
        E 0 91 2f 3b
        E 0 92 34 3b
        E 0 92 39 3b
        E 401 81 30 00
        E 0 81 2f 00
        E 0 82 34 00
        E 0 82 39 00
        E 0 91 34 3b
        E 0 91 3c 3b
        E 0 92 53 3b
        E 0 92 5d 3b
        E 1005 80 2b 00
        E 0 81 34 00
        E 0 81 3c 00
        E 0 82 53 00
        E 0 82 5d 00
        E 0 90 27 36
        E 0 91 29 36
        E 0 91 2a 36
        E 0 92 31 36
        E 0 92 52 36
        E 613 82 31 00
        E 0 82 52 00
        E 0 92 3d 36
        E 0 92 46 36
        E 613 80 27 00
        E 0 81 29 00
        E 0 82 3d 00
        E 0 82 46 00
        E 0 90 29 36
        E 0 91 33 36
        E 0 92 55 36
        E 0 92 5e 36
        E 613 80 29 00
        E 0 82 55 00
        E 0 82 5e 00
        E 0 90 28 36
        E 0 92 53 36
        E 0 92 5c 36
        E 612 81 33 00
        E 0 80 28 00
        E 0 82 53 00
        E 0 82 5c 00
        E 0 90 27 36
        E 0 91 28 36
        E 0 92 2c 36
        E 0 92 2f 36
        E 613 80 27 00
        E 0 81 28 00
        E 0 82 2c 00
        E 0 90 25 36
        E 0 91 27 36
        E 0 92 2e 36
        E 613 81 2a 00
        E 0 82 2f 00
        E 0 91 29 36
        E 0 92 2a 36
        E 886 80 25 00
        E 0 81 27 00
        E 0 82 2e 00
        E 0 82 2a 00
        E 0 90 27 36
        E 0 91 2a 36
        E 0 92 31 36
        E 0 92 3a 36
        E 1230 81 29 00
        E 0 80 27 00
        E 0 81 2a 00
        E 0 82 31 00
        E 0 82 3a 00
        E 0 90 29 36
        E 0 91 2b 36
        E 0 91 34 36
        E 0 92 3c 36
        E 0 92 5d 36
        E 492 82 3c 00
        E 0 82 5d 00
        E 0 92 48 36
        E 0 92 51 36
        E 493 80 29 00
        E 0 81 34 00
        E 0 82 48 00
        E 0 82 51 00
        E 0 90 21 36
        E 0 91 29 36
        E 0 92 30 36
        E 0 92 34 36
        E 492 81 2b 00
        E 0 80 21 00
        E 0 81 29 00
        E 0 82 34 00
        E 0 90 22 36
        E 0 91 26 36
        E 0 91 2d 36
        E 0 92 35 36
        E 492 82 30 00
        E 0 80 22 00
        E 0 81 2d 00
        E 0 82 35 00
        E 0 90 24 36
        E 0 91 29 36
        E 0 92 39 36
        E 0 92 52 36
        E 492 81 26 00
        E 0 80 24 00
        E 0 82 52 00
        E 0 90 26 3b
        E 0 91 28 3b
        E 0 92 54 3b
        E 492 81 29 00
        E 0 80 26 00
        E 0 81 28 00
        E 0 82 54 00
        E 0 90 25 3b
        E 0 91 26 3b
        E 0 91 2a 3b
        E 0 92 53 3b
        E 492 82 39 00
        E 0 80 25 00
        E 0 81 26 00
        E 0 81 2a 00
        E 0 90 2a 3b
        E 0 91 2b 3b
        E 0 91 2d 3b
        E 0 92 32 3b
        E 493 82 53 00
        E 0 81 2d 00
        E 0 82 32 00
        E 0 91 32 3b
        E 0 92 3b 3b
        E 0 92 51 3b
        E 375 80 2a 00
        E 0 81 2b 00
        E 0 81 32 00
        E 0 82 3b 00
        E 0 82 51 00
        E 0 90 27 3b
        E 0 91 29 3b
        E 0 91 2c 3b
        E 0 92 3c 3b
        E 0 92 55 3b
        E 376 82 3c 00
        E 0 82 55 00
        E 0 92 30 3b
        E 0 92 61 3b
        E 375 82 30 00
        E 0 82 61 00
        E 0 92 3d 3b
        E 0 92 48 3b
        E 376 80 27 00
        E 0 82 3d 00
        E 0 82 48 00
        E 0 90 25 3b
        E 0 92 3c 3b
        E 0 92 46 3b
        E 300 81 29 00
        E 0 80 25 00
        E 0 82 3c 00
        E 0 82 46 00
        E 0 90 22 3b
        E 0 91 31 3b
        E 0 92 35 3b
        E 0 92 54 3b
        E 300 81 2c 00
        E 0 80 22 00
        E 0 82 35 00
        E 0 82 54 00
        E 0 90 2c 3b
        E 0 91 35 3b
        E 0 92 3c 3b
        E 0 92 46 3b
        E 1468 81 31 00
        E 0 80 2c 00
        E 0 81 35 00
        E 0 82 3c 00
        E 0 82 46 00
        E 0 90 28 34
        E 0 91 2a 34
        E 0 91 2b 34
        E 0 92 3b 34
        E 0 92 56 34
        E 717 82 3b 00
        E 0 82 56 00
        E 0 92 2f 34
        E 0 92 62 34
        E 716 82 2f 00
        E 0 82 62 00
        E 0 92 3e 34
        E 0 92 47 34
        E 716 80 28 00
        E 0 81 2b 00
        E 0 82 3e 00
        E 0 82 47 00
        E 0 90 25 34
        E 0 91 27 34
        E 0 92 46 34
        E 0 92 5f 34
        E 716 80 25 00
        E 0 82 46 00
        E 0 82 5f 00
        E 0 90 23 34
        E 0 92 31 34
        E 0 92 3a 34
        E 716 80 23 00
        E 0 82 31 00
        E 0 82 3a 00
        E 0 90 25 34
        E 0 92 47 34
        E 0 92 52 34
        E 717 81 27 00
        E 0 80 25 00
        E 0 82 52 00
        E 0 90 27 34
        E 0 91 28 34
        E 0 92 50 34
        E 716 82 47 00
        E 0 80 27 00
        E 0 81 28 00
        E 0 82 50 00
        E 0 90 28 34
        E 0 91 2c 34
        E 0 92 3b 34
        E 0 92 3f 34
        E 716 80 28 00
        E 0 81 2c 00
        E 0 82 3f 00
        E 0 90 27 34
        E 0 91 2e 34
        E 0 92 3d 34
        E 716 82 3b 00
        E 0 81 2e 00
        E 0 91 29 34
        E 0 92 3a 34
        E 575 81 2a 00
        E 0 80 27 00
        E 0 82 3d 00
        E 0 90 25 33
        E 0 91 2c 33
        E 0 92 3c 33
        E 271 82 3a 00
        E 0 80 25 00
        E 0 90 27 33
        E 0 92 37 33
        E 271 81 29 00
        E 0 81 2c 00
        E 0 80 27 00
        E 0 90 26 33
        E 0 91 27 33
        E 0 91 2e 33
        E 271 82 3c 00
        E 0 81 27 00
        E 0 91 29 33
        E 0 92 39 33
        E 270 82 37 00
        E 0 80 26 00
        E 0 81 2e 00
        E 0 81 29 00
        E 0 90 29 34
        E 0 91 2b 34
        E 0 91 32 34
        E 0 92 46 34
        E 461 82 39 00
        E 0 80 29 00
        E 0 81 2b 00
        E 0 82 46 00
        E 0 90 28 34
        E 0 91 2a 34
        E 0 92 37 34
        E 0 92 47 34
        E 460 81 32 00
        E 0 80 28 00
        E 0 81 2a 00
        E 0 82 37 00
        E 0 82 47 00
        E 0 90 26 34
        E 0 91 28 34
        E 0 91 2b 34
        E 0 92 3b 34
        E 0 92 3c 34
        E 460 82 3b 00
        E 0 82 3c 00
        E 0 92 47 34
        E 0 92 48 34
        E 1438 80 26 00
        E 0 81 28 00
        E 0 82 48 00
        E 0 90 28 34
        E 0 91 2a 34
        E 0 92 4a 34
        E 719 82 4a 00
        E 0 92 62 34
        E 719 81 2a 00
        E 0 82 62 00
        E 0 91 2d 34
        E 0 92 60 34
        E 719 82 47 00
        E 0 81 2d 00
        E 0 91 29 34
        E 0 92 45 34
        E 578 80 28 00
        E 0 82 60 00
        E 0 90 24 34
        E 0 92 34 34
        E 462 81 29 00
        E 0 82 45 00
        E 0 80 24 00
        E 0 90 29 34
        E 0 91 30 34
        E 0 92 51 34
        E 1444 80 29 00
        E 0 81 30 00
        E 0 90 24 34
        E 0 91 2f 34
        E 722 81 2b 00
        E 0 82 51 00
        E 0 80 24 00
        E 0 81 2f 00
        E 0 90 2b 34
        E 0 91 2d 34
        E 0 91 30 34
        E 0 92 3b 34
        E 722 82 34 00
        E 0 80 2b 00
        E 0 82 3b 00
        E 0 90 28 34
        E 0 92 35 34
        E 0 92 3e 34
        E 722 81 2d 00
        E 0 80 28 00
        E 0 82 35 00
        E 0 90 29 34
        E 0 91 2e 34
        E 0 92 39 34
        E 580 81 30 00
        E 0 82 3e 00
        E 0 80 29 00
        E 0 81 2e 00
        E 0 82 39 00
        E 0 90 21 34
        E 0 91 24 34
        E 0 91 26 34
        E 0 92 29 34
        E 0 92 2e 34
        E 464 80 21 00
        E 0 81 24 00
        E 0 82 29 00
        E 0 82 2e 00
        E 0 90 24 34
        E 0 91 29 34
        E 0 92 2d 34
        E 0 92 3a 34
        E 1450 81 26 00
        E 0 80 24 00
        E 0 81 29 00
        E 0 82 2d 00
        E 0 82 3a 00
        E 0 90 2a 34
        E 0 91 2c 34
        E 0 91 3f 34
        E 0 92 47 34
        E 0 92 5e 34
        E 579 82 47 00
        E 0 82 5e 00
        E 0 92 52 34
        E 0 92 53 34
        E 580 80 2a 00
        E 0 81 3f 00
        E 0 82 52 00
        E 0 82 53 00
        E 0 90 22 34
        E 0 91 2a 34
        E 0 92 3b 34
        E 0 92 3f 34
        E 580 80 22 00
        E 0 81 2a 00
        E 0 90 25 34
        E 0 91 28 34
        E 580 82 3f 00
        E 0 80 25 00
        E 0 90 27 34
        E 0 92 61 34
        E 580 80 27 00
        E 0 82 61 00
        E 0 90 25 36
        E 0 92 5d 36
        E 580 81 2c 00
        E 0 82 3b 00
        E 0 80 25 00
        E 0 82 5d 00
        E 0 90 26 36
        E 0 91 2b 36
        E 0 92 3c 36
        E 0 92 5f 36
        E 580 81 28 00
        E 0 80 26 00
        E 0 82 3c 00
        E 0 82 5f 00
        E 0 90 28 36
        E 0 91 2a 36
        E 0 92 2f 36
        E 0 92 56 36
        E 580 80 28 00
        E 0 81 2a 00
        E 0 82 56 00
        E 0 90 26 3b
        E 0 91 28 3b
        E 0 92 54 3b
        E 453 82 2f 00
        E 0 80 26 00
        E 0 81 28 00
        E 0 82 54 00
        E 0 90 27 3b
        E 0 91 29 3b
        E 0 92 2e 3b
        E 0 92 56 3b
        E 453 80 27 00
        E 0 81 29 00
        E 0 82 2e 00
        E 0 82 56 00
        E 0 90 29 3b
        E 0 91 32 3b
        E 0 92 46 3b
        E 0 92 5d 3b
        E 453 82 46 00
        E 0 82 5d 00
        E 0 92 39 3b
        E 0 92 3a 3b
        E 345 81 2b 00
        E 0 80 29 00
        E 0 81 32 00
        E 0 82 39 00
        E 0 82 3a 00
        E 0 90 23 3b
        E 0 91 27 3b
        E 0 91 28 3b
        E 0 92 2c 3b
        E 0 92 55 3b
        E 346 80 23 00
        E 0 81 27 00
        E 0 82 2c 00
        E 0 90 27 3b
        E 0 91 2c 3b
        E 0 92 5f 3b
        E 346 82 55 00
        E 0 82 5f 00
        E 0 92 2f 3b
        E 0 92 3d 3b
        E 345 80 27 00
        E 0 81 2c 00
        E 0 82 2f 00
        E 0 90 26 3b
        E 0 91 2a 3b
        E 0 92 2d 3b
        E 277 82 2d 00
        E 0 92 51 3b
        E 276 82 3d 00
        E 0 82 51 00
        E 0 92 2d 3b
        E 0 92 31 3b
        E 692 81 28 00
        E 0 80 26 00
        E 0 81 2a 00
        E 0 82 2d 00
        E 0 82 31 00
        E 0 90 22 36
        E 0 91 2b 36
        E 0 91 2c 36
        E 0 92 33 36
        E 0 92 60 36
        E 422 80 22 00
        E 0 81 2b 00
        E 0 82 33 00
        E 0 90 2b 36
        E 0 91 33 36
        E 0 92 5e 36
        E 422 82 60 00
        E 0 81 33 00
        E 0 82 5e 00
        E 0 91 2e 36
        E 0 92 33 36
        E 0 92 48 36
        E 422 80 2b 00
        E 0 81 2e 00
        E 0 90 29 36
        E 0 91 2b 36
        E 422 82 33 00
        E 0 92 3f 36
        E 422 81 2b 00
        E 0 82 3f 00
        E 0 91 2e 36
        E 0 92 3d 36
        E 422 82 48 00
        E 0 81 2e 00
        E 0 91 2a 36
        E 0 92 46 36
        E 339 82 3d 00
        E 0 92 49 36
        E 271 82 46 00
        E 0 82 49 00
        E 0 92 52 36
        E 0 92 55 36
        E 847 81 2c 00
        E 0 80 29 00
        E 0 81 2a 00
        E 0 82 52 00
        E 0 82 55 00
        E 0 90 2a 36
        E 0 91 2b 36
        E 0 91 2f 36
        E 0 92 34 36
        E 0 92 56 36
        E 339 80 2a 00
        E 0 81 2f 00
        E 0 82 56 00
        E 0 90 23 36
        E 0 91 2a 36
        E 0 92 62 36
        E 339 82 34 00
        E 0 80 23 00
        E 0 81 2a 00
        E 0 82 62 00
        E 0 90 2a 36
        E 0 91 34 36
        E 0 92 3b 36
        E 0 92 3e 36
        E 339 80 2a 00
        E 0 81 34 00
        E 0 82 3e 00
        E 0 90 28 36
        E 0 91 39 36
        E 0 92 3c 36
        E 339 81 2b 00
        E 0 82 3b 00
        E 0 80 28 00
        E 0 81 39 00
        E 0 90 2b 36
        E 0 91 2f 36
        E 0 91 34 36
        E 0 92 5d 36
        E 339 80 2b 00
        E 0 81 2f 00
        E 0 90 29 3b
        E 0 91 2b 3b
        E 339 81 34 00
        E 0 82 5d 00
        E 0 80 29 00
        E 0 81 2b 00
        E 0 90 2b 3b
        E 0 91 2c 3b
        E 0 91 33 3b
        E 0 92 5e 3b
        E 339 82 3c 00
        E 0 80 2b 00
        E 0 81 2c 00
        E 0 81 33 00
        E 0 82 5e 00
        E 0 90 26 3b
        E 0 91 27 3b
        E 0 91 2b 3b
        E 0 92 3a 3b
        E 0 92 60 3b
        E 339 82 3a 00
        E 0 82 60 00
        E 0 92 48 3b
        E 0 92 5e 3b
        E 258 80 26 00
        E 0 81 27 00
        E 0 81 2b 00
        E 0 82 48 00
        E 0 82 5e 00
        E 0 90 2a 3b
        E 0 91 2c 3b
        E 0 91 31 3b
        E 0 92 34 3b
        E 0 92 5d 3b
        E 259 81 31 00
        E 0 82 34 00
        E 0 82 5d 00
        E 0 91 34 3b
        E 0 92 3d 3b
        E 0 92 51 3b
        E 258 80 2a 00
        E 0 81 2c 00
        E 0 81 34 00
        E 0 82 3d 00
        E 0 82 51 00
        E 0 90 21 3b
        E 0 91 25 3b
        E 0 91 2a 3b
        E 0 92 2c 3b
        E 0 92 34 3b
        E 259 81 25 00
        E 0 82 2c 00
        E 0 82 34 00
        E 0 91 23 3b
        E 0 92 2b 3b
        E 0 92 32 3b
        E 207 80 21 00
        E 0 81 23 00
        E 0 82 2b 00
        E 0 82 32 00
        E 0 90 23 3b
        E 0 91 2b 3b
        E 0 92 39 3b
        E 0 92 3e 3b
        E 206 81 2a 00
        E 0 80 23 00
        E 0 82 39 00
        E 0 82 3e 00
        E 0 90 2a 3b
        E 0 91 32 3b
        E 0 92 53 3b
        E 0 92 5d 3b
        E 2986 80 2a 00
        E 0 81 32 00
        E 0 82 53 00
        E 0 82 5d 00
        E 0 90 28 32
        E 0 91 30 32
        E 0 92 56 32
        E 0 92 5f 32
        E 566 80 28 00
        E 0 82 56 00
        E 0 82 5f 00
        E 0 90 29 32
        E 0 92 58 32
        E 0 92 5d 32
        E 567 81 2b 00
        E 0 80 29 00
        E 0 82 58 00
        E 0 90 26 32
        E 0 91 2e 32
        E 0 92 59 32
        E 567 81 30 00
        E 0 82 5d 00
        E 0 80 26 00
        E 0 90 27 32
        E 0 91 32 32
        E 0 92 5b 32
        E 566 82 59 00
        E 0 80 27 00
        E 0 81 32 00
        E 0 90 24 32
        E 0 91 33 32
        E 0 92 5c 32
        E 567 81 2e 00
        E 0 82 5b 00
        E 0 80 24 00
        E 0 90 25 32
        E 0 91 30 32
        E 0 92 59 32
        E 5382 81 33 00
        E 0 82 5c 00
        E 0 80 25 00
        E 0 81 30 00
        E 0 82 59 00
        E 0 b0 7b 00
        CCINTERP 32
        CHASE_CC_TAKEOFFS 1
        GUID {E9478CE0-F62D-0B41-B5E4-0BCCA16EFAD7}
        IGNTEMPO 0 120 4 4
        SRCCOLOR 15
        VELLANE -1 100 0 0 1
      >
    >
  >
  <TRACK {9DF55AC6-CDE8-504C-BC83-FF8704EEBEDD}
    NAME "Pianoteq 8"
    PEAKCOL 16576
    BEAT -1
    AUTOMODE 0
    PANLAWFLAGS 3
    VOLPAN 3.70343765830049 -0.64 -1 -1 1
    MUTESOLO 0 0 0
    IPHASE 0
    PLAYOFFS 0 1
    ISBUS 0 0
    BUSCOMP 0 0 0 0 0
    SHOWINMIX 1 0.6667 0.5 1 0.5 0 0 0
    FIXEDLANES 9 0 0 0 0
    SEL 0
    REC 1 5088 1 0 0 0 0 0
    VU 2
    TRACKHEIGHT 0 0 0 0 0 0 0
    INQ 0 0 0 0.5 100 0 0 100
    NCHAN 2
    FX 1
    TRACKID {9DF55AC6-CDE8-504C-BC83-FF8704EEBEDD}
    PERF 0
    AUXRECV 0 0 1 0 0 0 0 0 0 -1:U 0 -1 ''
    MIDIOUT -1
    MAINSEND 1 0
    <FXCHAIN
      WNDRECT 32 136 807 690
      SHOW 0
      LASTSEL 0
      DOCKED 0
      BYPASS 0 0 0
      <VST "VST3i: Pianoteq 8 (Modartt) (1->5ch)" "Pianoteq 8.vst3" 0 "" 1031062328{565354507438717069616E6F74657120} ""
        OMN0Pe5e7f4CAAAAAQAAAAAAAAACAAAAAAAAAAUAAAABAAAAAAAAAAIAAAAAAAAABAAAAAAAAAAIAAAAAAAAABAAAAAAAAAAzD4AAAEAAAD//xAA
        vD4AAAEAAABWc3RXAAAACAAAAAEAAAAAQ2NuSwAAPqRGQkNoAAAAAlB0OHEACAQBAAAAAAAAAAAAAAAAAAAAAAAAAAAAAAAAAAAAAAAAAAAAAAAAAAAAAAAAAAAAAAAA
        AAAAAAAAAAAAAAAAAAAAAAAAAAAAAAAAAAAAAAAAAAAAAAAAAAAAAAAAAAAAAAAAAAAAAAAAAAAAAAAAAAAAAAAAAAAAAAAAAAAAAAAAAAAAAAAAAAA+DKCYE/4CAAAA
        SDgSAMA9AAABAAAAEThWOLQ9AABQclZLKQAAAlhGVFCkPQAACgAAADIwMjUvMDIvMjMXAAAAUGlhbm90ZXEgOC40LjEvMjAyNTAyMDQ+hboHvIJqUeJb5wRXz2WnZGxs
        YWM9AAB0ZHRNKQYAABUAAABIQiBTdGVpbndheSBEIEZlbHQgSUkAAAAABwAAAE1vZGFydHQzAAAARmVsdCBwaWFubyBwcmVzZXQgdmFyaWFudCAocmV2ZXJzZWQgQ2Vs
        ZXN0ZSBwZWRhbCkuAAAAAEQBAAAVAAAASEIgU3RlaW53YXkgRCBGZWx0IElJAAAAAKEFAABHUlVVAAAABgAAAAEDwE1UcmsAAAWLAP8CJVBpZXQgRGUgUmlkZGVyIC0g
        RmVsdCBwaWFubyBtaW5pIGRlbW+DYJBDKYEONSUcRTmBLExGghewQAITQAB2QH+IOZA8MIEZRQAmQwCMQzwACTUAgj9FSIF0TACGW0hPbEUAhh44OSRIAIEXPy0+QiVn
        RiQ3sEAAZZBJP4M8sEB/hgGQTjNjSQAoRgCEG0IAgTlOAII/STuBZkkAhBc/AH44AINWRkaFPUYAg18yNYFeOTA/QDAtsEAAMJBDOoEKRzqDB7BADBRAf4VVkEAAE0cA
        CUMAgRdMP4J7TACFT0cxCTYpA0MwhTNDAIJbRwCGMUU7gV4yADU5AIEqNgCCdkUAhnewQABIkDorDTMyBkM0CT4ygxywQAYUQAB0QH+FI5A3KGM6AAozAFA3AIh5Py2G
        dz8AhmYzIIsHMwCBDz4AakMAlC85LYFnQEIcQzwmsEAAQZBHLYEOSk+BerBAIhJAf4MhkEoAI0MACkcAg3lPTIkJTkQcTwCLGk9AazkAJkAAEk4AhU9PAIE8Oh6COEAw
        LU0rCUovAEU2ALBAAIQ1QH+JNpBRPkhNAII7SgCDC0AACUUAhCRKOQA+NIoAPgAtOgCDREU1hCZRAC1KAEhFAIYdQzR+RjoaPCYKMDU3sEAAQJBLTwCwQBwUQACCQkB/
        gweQMACCGDwAWE1KUEsAVUYALEMAWE0AhmSwQABqkD8wAzUtAEoxCUU5AEE0hCOwQH+DEZA/AIINRQCCBDk7AEEALDUAI0oAhyJIRoFUOQAdSACHPT4vBi4vADotA0A0
        Y7BAAIQcQAwTQH+FPJBBJXdAAIRtQQA/PgCEYUUwhRVFAIUBSiSELkoAiglNJVlWJpJcLgCBMToAixJWAIMkVTyEUlZAY1UAQE0AgiZWAGpCNYFESSYksEAAgSWQVUAD
        TEOCCLBAHBNAAGNAf4VDkFFEP0wAClUASFEAhRtFQyRORElCAC1JAIIhRQCCalFMWk4AgiRRAINWsEAAYpBEIgBIKh1QOABBL4MdsEB/hUCQVC4/UACCA1QAhlpQKApL
        Jok9UABZSAAASwAAQQCBMkQAI1RDhAtUAIMqNB6BXUoxCjskLrBAAC2QQCYJTzuBGFM8SbBADAlAAGdAf4JMkDQAGjsAQE8AGkAALEoAClMAg0RPOIFeTwCET0A0BEM1
        E0w+hD9MAIUiSkSCGEMAgRdAAIEPSgCFIjo0gTQ9NXxBLQqwQAAjkEQzAEkyg1+wQH+FTJBNIEBEAEBJAIMIOgB8QQBiPQA1TQCEMEgvCUMtADwjEzktCbBAAINgQH+H
        P5BNLYEYQwAcSAAjPAAKOQCCUU0Ahz+wQAABkEcyA0wxBDsnA0EtCjgpg2SwQBYTQH+NVZBMAC5BAClHAIFFQT6BIkdMgR5KbIZFOACBaDsACUxNZUoAgjhHAC1MAIEO
        NzZIQQBrOjuBLD5CgQqwQABQkEg4EkVGCbBABgpAAINwQH+DAZBKPC1IAHdFAIEoSgCFcUEwAEY5LbBAAGdAEhNABhNAAIEbQAYKQAB5QH+DWJA+AIEXNwATOgCBDkMc
        SUEARkYAhANDAIIKMUKBV7BAAByQOC08RywEQSwLRDGCWLBAGBJAACNABgpAAH5Af4VxkDEAHEcAHEEAGkQAdjgAgzwwNoFesEAACZA6H0BCHQtFJxw+JoNksEB/hyKQ
        MABiPgAcOgAcQgAjRQCLJjUogVSwQAAakEomAD8pC0MrAEcsgmWwQH+BOZBDACRHAFlKAIZmTyoAVjmEZFM1N1YAgV5PAD9TAIJ1WyqBTFsAhU9fK4YFVjEKXwCGZ1Mr
        CVYAkBxPG4toUwAuTwAcPwA+NQCNZLBAAFBANBRAABNAARJAAIEqQAETQAASQAYTQAAA/y8AUHJzVSo3AABJAAAAAgAAAGQ0AAAAABoAAABHcmFuZCBTdGVpbndheSBE
        IChIYW1idXJnKQAAAAAAAAAAcHJvbWYAAAABAAAAAQAAAAEAAAACAAAAZDQAAAAAGgAAAEdyYW5kIFN0ZWlud2F5IEQgKEhhbWJ1cmcpAACAPwYAAAAAAAAAAAAAAAAA
        AAAAAAAAAAAAAFRG/////wAAAAAAAAAAAAAAAAAAAAByeWFsEAAAAAIAAAAAAAAAAAAAAP////9vbG9zEQAAAAEAAAABAAAARgAAAAAAAAAAAQAAAAEAAAAAAAAAAAAA
        AAEAAAAAAAAAAAAAAAEAAAAAAAAAAAAAAAEAAAAAAAAAAAAAAAEAAAAAAAAAAAAAAAEAAAAAAAAAAAAAAAEAAAAAAAAAAAAAAAEAAAAAAAAAAAAAAAEAAAAAAAAAAAAA
        AAAAQEADgAAAYGkAAAAAABBBAACAP2kAAADUznPAaFLkoMDwvEbA4zeKwBTMPsCUgWDARtUMwJzs/r9QNQLA1omLwEBOIMBs+ei/kv4cwNTPaMDOIpHAkMOYwJJ/ycBC
        z53ABN0TwOi6ScD08BvAfM8owIReHcDIwe6/5A3BwOCdD8BE/h3AQKHcvQBubcDU4kvAgBi4v1DE1b4QWIS+oOiZPmC6pMDaVJ7ATG0LwCCYSr98blzALGMQwADIc8Bg
        OF6/TJWUv0CS1b88R5u/TKfJP9Bczb4ovGu/ZEQJQBTZsz/4n3w/fKXvv8CtqD4oqhfA+KUCwKiJDMDg9Jq+ILn9vlhJFL+8lfO/UP+QP5Dp/D5kxGPAnIXFvwAAeT8u
        UAHAGASlv8ZcF8AyuYvASIMJP0DxyT2Ecr6/NGtZwOxL5L+ElFnA5NiswNg9Ib+AVQO9mL0yv1xnTcBovEnAQGitwJx/87/AQh0/gO70PSjYhL+gRJm+BvYSwLyFh78c
        3s8/FBm5P/yySUCsMlRArvIrQB5EJ0Cg2aI/IMt2PoD/777ouRA/wIxFPgCQID0sgibAKDE1wDxeq8C/vJzAAwAAAAEAAAAAAAAAAAAAAAMAAAAAAAAAAAAAAAAAAAAD
        AAAAAAAAAAAAAAAAAAAAAwAAAAEAAAABAAAAAQAAAIYVgD8AAAAAAQAAAAAAAADcfyI+A4AAAGBpAAAAAAAQQQAAgD9pAAAAYaZJP43TM0w/gwjSTj+CpIFRPw9ZQ1Q/
        3xdXP/n/WT94/Fw/Mw5gPxA2Yz8BdWY/CMxpPxA2Yz94/Fw/WUNUP/n/WT8zDmA/EDZjPwF1Zj8BdWY/AgjMaT82PG0/NjxtPwKoxnA/lWx0P5VsdD8CPC94P/kPfD/5
        D3w/DR0IgD+9OoQ/626GPzm2iD87go0/IQmQP4ynkj/MXpU/hh2bPyQonj/nUaE/uJykP6YKqD+mCqg/DfCdqz8GWa8/jz6zP3BRtz8rDMA/TLvEP2GmyT8I0s4/WUPU
        P/n/2T8zDuA/AXXmPzY87T82PO0/AZVs9D+VbPQ/AfkP/D/5D/w/gsIYAkCD624GQJMBAAAAAAAAAAAAAAAAAKDAAACgQAAAAEMAAAAAA4AAAFAAAHBCAQAAAAAAAAAA
        AAAAAAAQwQAAQEEBAAAAAQAAAAAAAABwnhnB0Ke/QAAAAAADgAAAYAIAAAAAAKhBAACuQgIAAAAAAAAAgQOAAABgAgAAAAAAqEEAAK5CAgAAAAAAgD+BgAAAADMzMz/S
        BAAAAAAAAAAAAAAAAACAAAAAP2ZmZj8DgAAAYFgAAAAAAKhBAACAP1gAAAC4wQJBVyDgBEEYtBVBoJoTQRh0KkE4NhZByLoQQRjSD0Fg9BBBCEoHQfBO/ECIbQ9B4C0J
        QTi+FkH4XBRBcBsGQQiYBkFQHidBWMkDQbiwDEHIUgFBmJcRQSDV40BYsg9BUMf+QMAEAkFgH91AoLwJQdBf40AwBdNAYOb6QPD15ECAW81AABP7QKDH7kCAcepAAMLm
        QODe0kCgDthAwInIQJDxy0DglMdAoPDXQGBP40Ago9hAQArHQLBYxkDQkd9AkPDLQACb2EDAVMZAwN3cQFA+y0BA8dxAkL7cQCAl9UCAos9AoHrpQKDzz0BAZdxAYIPj
        QLB510DAhtlAUNDsQNDmyEBQCtFAEO/VQKD310AQy8BAQHHTQMBc30BgEbhA8HavQIB56kDQ0NZA0BzMQOCH5EAwCuZAgEatQECr30DAc8BA0E7aQKDs0EDgFMVA4G7G
        QMD42kDw6N1AwPntQAOAAABgWAAAAAAAqEEAAIA/WAAAAIhZhb9XAMduvUDSBMAY5Yu/kI5jP5C/Xj+w4+w/QG8tvoCuQr4Y6+Q/WAyAwTBHPj+o5qO/8IUTwBBmKz8Q
        qiQ/MNnOP5SNncEgCA8/IFzxvlCnAL+gcsS/YGkRv4Aazb+gpNG/QLKmPiBjkz5gx2vBAMKaP5CA6r+4GJA/OOZcwQBJHD14dQDAIFFyP6A9Zj8ALxi+mE9OwYCsfL5E
        /RLAeBkbwaC3y74A1OW+SMa9wQAWDb8MiSbAcEDFwPAKNL84NXDAQM5wwQhULcEgqc3ASJQ8wAD46jsIH8fBUEdFwFwMCMAIH8fBABBWvggfx8FkbFLASNYUwNmWi8Ag
        UNfBQC3dvtRLysEW64/AP+qQwBCEx79Yt7rBmGxnwAhV0r+E2SrAgMCuwawMLsCYI9+/sCdEv4x1csBs7KjBDCl1wGDHWb+Qv16/oON4wHQNesDALXvA5EQ8wDxTfcAk
        WX7AA4AAAGACAAAAAACoQQAArkICAAAAAACAP4ECAAAAAQAAAFUAAABFcXVhbCB0ZW1wZXJhbWVudApUaGUgc3RhbmRhcmQgdHVuaW5nLCB3aGVyZSB0aGUgb2N0YXZl
        IGlzIGRpdmlkZWQgaW4gMTIgZXF1YWwgc3RlcHMuDAAAAAAAyEIAAEhDAACWQwAAyEMAAPpDAAAWRAAAL0QAAEhEAABhRAAAekQAgIlEAACWRAEAAAAAAAAABAAAAAAA
        3EM8AAAARQAAAEYAAAAAfwAAAAAAAAAHAAAARGVmYXVsdAAAAAAAAAAAAgAAAAOAAABgaQAAAAAAEEEAAIA/aQAAAOIUN8IJ134cwqwm+sHmJd3BtOXVwUfPrMGeuaDB
        To6IwShwTcE4xUPBOMVDwYGEGR3BV8iF2cDIMQ3B4NrPwFDZlcDANKHAgI65wGChHsBwBUvAAFz7vxj4jcBwBUvASPmYwICDAsCATsPAIMvJv0B0o78AJMm/QHEwwAAR
        TD8gnqK/IEq5P6DJcMBgHYw/sG9PwMAcoj9AB1vAwLMJQIDlE8AA2pY9wEmAP4AAjr4AFGS+wKZWP0BDq79AXIS/ALQMQMDfFsCgMNe/EMgdQAAeSz+Ar+a/gBALPwA+
        Nr+Q9y/AAJBtPoA9kz8AINu/QA2jQFCeL8AAnKs9gNvzv4AZOEAAgH1AUB4AwEB8OUCgOeC/YGLJvwCAkzpA7Jc/wBAjwEDMxr+A9eG/ANN5P6Acwr+ALpg+wD+sP1Dm
        PkCAgke/MBkVwOAw2L9AvI8/oF5PQABZyb+AafY/AJhav8DNc7+wXBXA4LT0v7AJKEAAyhs/oOhVQCC1F0BAhq0/4ODGv/C7F8BABDq/4MGyv+DBsr+EAAAAAAAAAAAA
        AIA/AQAAAAEAAAABAAAAHwAAAAOAAABIAQAAAAAAgD8AAAAADPTcPwOAAABgWAAAAAAAqEEAAIA/WAAAAAAAAACPCvqXPwEAAAAAAAAAAAJlSJI/AAAAAAAAAABCjWmQ
        PwAAAAB2KkQ6Fv0MPMEqlD/d0kk9XnWXPUxynD3+5pk/l80rPvmpfj7BKpQ/NOHRPs7ZAj8ZgB0/ey1EPwQScz80mG0/Z2JxP4dUGj9fFBU/OGdiP0/MNT+KUl4/Byzx
        Pm3/1j7WQs0+azxbP3PTFD4pNCM/Co+aPky/pT8NSAo/wSqUP+7Zsj7WPLk+cDJWPq+3Jz36uPc+9MZFPnm9jj9PTDs+akq/Pr+Pjj9a6I0/EGJiPtVhyj0AhI8/CzWK
        P10PCT+0xIE+33wkPo1LyTt5Dbs8a09ZPzeqPT7b5Ec+TfE7PyeYJj5gU28/kyM5P4JrNT7iSB8+CAU6PuplRz+2f288A4AAAGACAAAAAACoQQAArkICAAAAAACAP4ED
        gAAAAAYAAAAAAPVCAAB6QwAA60MAwI9EAAAbRQDwh0UDAAAABAAAAAEAAAACAAAABgAAAAUAAAAGAAAAMzNDwQUAAMDAAABgwAAAMEGamSlBAABAwAOAAABgAgAAAACA
        bUQAACBEAgAAAIXrkT4B16NwPgAAAAADgAAAUAAAcEIBAAAAAAAAAAAAgD8DgAAAUAAAcEIBAAAAAAAAAAEAAAAAAAAAAAAAAM3MzL3NzMw9AQAAAAAAAAAAAAAAAAAA
        vwAAAD8AAIA/A4AAAEADAAAAAACoQQAAcEIAANhCAwAAAAAAgD+CAAAAAAOAAABgAgAAAAAAqEEAAK5CAgAAAAAAAACBAACAPwOAAABgAgAAAAAAqEEAAK5CAgAAAAAA
        gD+BAAA0QgOAAABADwAAAAAAqEEAANBBAAD4QQAAEEIAAEBCAABwQgAAkEIAAKhCAAC0QgAAwEIAAMhCAADQQgAA1EIAANZCAADYQg8AAAAAAIDABAAAQMAAAADAAACA
        vwAAAAAAAAAAgQAAAEAHAACAQAAAwEAAACBBAACAQQAAoEEAAMhBAAAAQgAAgD8DgAAAQAMAAAAAAKhBAABwQgAA2EIDAAAAAACAP4IDgAAAQAUAAAAAAPBCAAB6QwAA
        ekQAAMhEAMAoRQUAAAAAAADAAQAAAAAAAAAAAgAAwL8AAMDAAQAAAAOAAAAgAgAAAAAAAAB3u10/AQAAAAMAAAACAAAAAAAAAAH+fj8/A4AAAGACAAAAAAAAAAAAgD8C
        AAAAAACAP4EDgAAAQAQAAAAAAAAAJpNJPv5+Pz8AAIA/BAAAAAAAAACBAACAP4EDgAAAYAIAAAAAAAAAAACAPwIAAAAAAAAAgQAAAADNzEw+AAAAAAAAAAAAAIA/mpkZ
        PwAAAADNzCxAA4AAAGACAAAAAACoQQAArkICAAAAAACAP4EAAIC/AAAAPwOAAABgAgAAAAAAwEEAAJBCAgAAAAAAgD+BAQAAAAEAAAABAAAACgAAAFNtYWxsIEhhbGwL
        AAAAbWVkaXVtaGFsbDEAAEDAAACQQQAAgD8AAIA/AAAAAI/CdT0AAMDAzcxMPgAAAACamYlAXjHbQwAAgD8AAIA/AQAAAAYAAACZmZk/AABAQAOAAABgWAAAAAAAqEEA
        AIA/WAAAAOdygT9XiQ98P5DWdT+adGo/FEx9P/dqfT+vrYU/CASCPwo3Zz+lj4Y/+vRyP/eGij/yrX0/Z8x2P8N2bj++4Yo/NnqFP9UQaD+QroQ/gk+HP+QOdj8iUIo/
        buOGP4eDiD/2QYc/9NdtP+GFiz+AlHI/OVt7PyyKiz8mrIg/7iVlP8NLiz+jaG8/OCpwP54wTz/uJWU/22WEPz8xZz8aboU/bdRpP8cmgT8YdHQ/1HRxPzgvWj9Yhmw/
        qExyP2rHZD/EP3U/sJ16PyOadz/+kIA/W/p3P9/hhT+qb20/YtlgP7a2bT/U6mE/h7N5P/dWgT+BFHA/+nNiPxwShz+SwGs/nOeHP2D5hT9pwXE/VNRwP7TKgj/rzYc/
        bt2HPz2iiD/Kums/H1aBPxQVfT9LcGo/NhdtP5lFdD+jvn8/tDuKP3otez/ujYw/yDZ1P6Y0Zz8Vwn4/1WqJP5Txaz9RAG4/A4AAAGBpAAAAAAAQQQAAgD9pAAAAYU1q
        PwMlHWg/kDt8P6e9gj+nvYI/ZGeTgT8583k/6+9lP2yeYT+da3U/OfN5PxfwcD9PUHM/I4JaPwbChz/bRoU/yRWMP+tqYj+yc4A/g4WLPw1XkT+cC2E/HyJ8Pw2Gej9A
        JnA/L/WFP8nSgT8QbH0/wcmKP3xEgz/obmk/+O95P7ercz+9CpM/TwKPP0OefD8EWGk/JviIP2LEgz8fbHU/umyEP49hXz/BxH4/A0OEP3BcaT8JTZU/I8mAP0wzgz+T
        vII/1S6EP+FUfj8bYIc/zCp3PwU3hT/X5IE/q81ePy9ukj/AjWM/MQhrP9jWZT/Jr5A/mC2EP9dUfz9JQIU/hUmIP1LHhz+73H0/TPpsP6l+jT+T140/zChoPzuQVz+r
        MVc/MduJP+cjlT8Td4Y/eWt4P077hD+Xj3Y/kQZ9P0laeT+r2Yo/x3B3P1N+hD+BTGs/tDxyP7JIjT8r2HU/yLpxP83YiT+7GXg/N/CNP4jBcT+Q+Ig/HZJ0P+tbfj+t
        84g/m4OEP/tviT/Hp4g/oUaMP8eniD9s6YM/i0WGP8eniD8AAAAAA4AAAGBYAAAAAACoQQAAgD9YAAAAlemKvjflLuo9nOKAvl0QHL4nWFU+5qNVvmzrhz5iHZK+S7qU
        Pp8smb4itEE+llw+vqKh570iwXY9BcFxPsP9pD3M/2a+jDtWvqmHc74+Kw6+VUGuva5+eD3cvwc+bTd2PriMQr4rFKs9BYWEve75Jr6kbEQ9DnV8vhJd471G7pW+1E8r
        vkZQwL1yQ4++fteou12g6D0IpI09ZkLou1znX71wDiC9vudzPjfstr1+irO9OVcSPof8FD6+umq+yV02vpFQlD4sRbm88RbjPEI3XD7JR2i+MFt2vXzYlj6wqiq9sKoq
        vR+oUt47UZyVPrJrVz0HR9M+Hw64PkXsyD6w/44+S9YwvXeDzT6G6ZQ+q3SfPqmrrz1FlPQ+oFV7PfNppT52PuA+iQLGPghAoz04x+s+YgFXPRNk4z6nIMQ+0dNsvYyl
        xz71FkQ+UsUcPvu9Tj7pR+C8wW9/Pk29Jb1wsdk+AQAAAAEAAAABAAAAAwAAPy2WiEADAAAAnwZxP61CcT+gp6g/A4AAAGBpAAAAAAAQQQAAgD9pAAAAx11SP2h7hUE/
        lZRIP9dCTD91GEc/I6tGP+LyTD9cqk4/r5RBP8fCRz+0nFI/2Ik9P40wTj9XJz0/kFpWP4f2Sz85BE4/1YhPP77FSz9lBEw/cLhFP/OkQz8jwz8/oLZKP6BPSz8pb0o/
        hM1EP8kWQj9xdk0/5BxcP/2TTT8pqFU//wJXPw6sXT+c1WI/zF1jP8a+Tz/Ja2E/NphqP3BJaT/F9FY/6qJwP9x4YT8ly20/fxVwP1RPcD/n134/VZl7PxqafT+Z5Hw/
        r+uDPxFagz9bNIU/IumDP+djdj86QIc/8yVtP8OTiD+wVHg/sHSAPxLSgT/A2ns/QnGAPxHFdj9faHI/vWZ4P+yxcz+Xg4c/5BZsP5rUhT976nQ/fWKDP3EBgz/6Dog/
        XkeHPyeygj/VkX8/R4p9P6NngT/AZoI/Wfd6P7KYgj/r13w/FQGBP3qYdz/NpHc/Io6BP3n+gT9sxXc/vGCCP2hIgj8MOIA/h6GEP7cggj8wgXo/EPaCPxrxhD+1qnk/
        97SFP140fT858XY/2wx4P1mGfj9Oj4A/G0OAPwOAAABAAwAAAAAAqEEAAHBCAADYQgMAAAAAAIA/ggOAAABAAwAAAAAAqEEAAHBCAADYQgMAAAAAAIA/ggAAgD8AAIA/
        BwAAAAAAgD+amZk+FK5HPzMzsz+amZk+CAAAAAAAAAAAAAAAAAAAAAAAAAAAAAAAAAAAAAAAAAAAAAAAA4AAAGBpAAAAAAAQQQAAgD9pAAAAgtuxP2j/V8o/gTufP7HF
        sz9r2JQ/XoKgP178gT/r0m0/Kc1mPyrukz/d4mU/ikxLP4J5TT+GWHA/gd6XP+3mqz8b5L4/TjidP8IbXz9wCXk/FYxuP85zeT+yMnU/y4JnPwsZvD8hBYc/0vWCP+Mz
        Pj/1x40/ZeaWP8ZncT8HxFQ/FbxCP6GzPD+CKXM/DCWjP7PVUT8+VDQ/aZ2DP13iaj8ERpA/iQ1MP6GTij91Yn0/0VtzPy03LD8gLIQ/nRBzP4deLD9bmD4/nQFVP8gd
        mz9KQnE/TR+lP/QHpj9nx6I/Q691PzLfdT+GvXA/nv2LP+ZDRD9W8VI/5sCfP7JlgT80OjU/O2uHP+nddj+pG4Q/1MSOP6RXWj/qFmc/GpOBP34foz82zX8/dROhP4Fm
        uz8V3WI/+rlVP0yjcD+oQak/+JOxP8ND5j8jqag/NtiEP7LQkz89p60/kAynP9yo4T/Ur8I/g0J5P5wJjT/ZEXA/NMNoP67leD/RNW4/u06CP4bwhD/NEYg/Ul5nP2/5
        Wj+eRl4/xEqLP0o0iz/br60/c9GjPwOAAABgaQAAAAAAEEEAAIA/aQAAAEaUdj8C/ABwPypwcj8qcHI/mI50cj9M8nhyP1Z9cj+qgXI/DoZyP3KKcj/WjnI/OpNyP56X
        cj8CnHI/ZqByP8qkcj8uqXI/gq1yP+axcj9KtnI/rrpyPxK/cj92w3I/2sdyPz7Mcj+i0HI/BtVyP1rZcj+CyHI/mbdyP8Kmcj/ZlXI/AYVyPyp0cj9BY3I/aVJyP4FB
        cj+pMHI/wR9yP+kOcj8A/nE/Ke1xP0DccT9oy3E/gLpxP6ipcT/QmHE/6IdxPxB3cT8nZnE/UFVxP2dEcT+PM3E/pyJxP88RcT/nAHE/D/BwPzffcD9PznA/d71wP46s
        cD+3m3A/zopwP/Z5cD8OaXA/NlhwP15HcD92NnA/niVwP7YUcD/eA3A/9fJvPx7ibz810W8/XcBvP3Wvbz+dnm8/tY1vP918bz8FbG8/HVtvPwOAAABAAwAAAAAAqEEA
        AHBCAADYQgMAAAAAAIA/ggOAAABgaQAAAAAAEEEAAIA/aQAAAEhsgD9BPqiAP33Xfz/s1n8/BCeAP93lfz++/H8/ByeAP2LPgD8XqYA/bY+APw+UgD/t9IA/1wmBP00v
        gD+Ndn8/F2aAP2BBgD+kDYA/ux5/P6POfj+Vln8/DISAPxrMgD/xhYA/QzSAP+tfgD/1jH8/OwuAP5SQfj/8LX8/LxmAP6Rifz9dFn8/QHZ/P20VgD8A/38/ygWAPxYu
        gD+NTIA/FmR/P1uJfz/IEYA/O2KAP8aegD+N8n8/8VF/P4oTgD9/ZX8/tLd+P3RMfz8NTH8/1mJ/PwlRgD+PV4A/rYiAPxnSfz93EH8/XVd/P5IbgD9jlH8/fx2AP70M
        gD/b138/31l/P4uveD+Lr3g/Jrdtez9083w/JP58P/yYfT/tjH0/ioV5P/USfD+LGnk/jER4P41udz+PLXY/kex0P5IWdD+z7XM/pYpyP3NIcD/Nm24/xydtP2ydbD/v
        dGs/A9RqP+guaj+nZWs/TVJsP7EobD9nKGw/PwVrPx8aaz8gHms/07FqP27Gaj/F52o/p6NqP8uIaT9My2k/uaFqP38Zaz+oYWs/AQAAAGkAAAAAABBBA4AAAGAMAQAA
        AAAAAAAAgD8MAQAAAAAAAP8AAAAA/wAAAACLAAAgQQOAAABgAgEAAAAAAAAAAIA/AgEAAAAAAAD/AAAAAP8AAAAAgQAAMEEDgAAAYPgAAAAAAAAAAACAP/gAAAAAAAAA
        /wAAAAD3AABAQQOAAABg7wAAAAAAAAAAAIA/7wAAAAAAAAD/AAAAAO4AAFBBA4AAAGDrAAAAAAAAAAAAgD/rAAAAAAAAAP8AAAAA6gAAYEEDgAAAYOMAAAAAAAAAAACA
        P+MAAAAAAAAA/wAAAADiAABwQQOAAABg2QAAAAAAAAAAAIA/2QAAAAAAAAD/AAAAANgAAIBBA4AAAGDTAAAAAAAAAAAAgD/TAAAAAAAAAP8AAAAA0gAAiEEDgAAAYNAA
        AAAAAAAAAACAP9AAAAAAAAAA/wAAAADPAACQQQOAAABgzgAAAAAAAAAAAIA/zgAAAAAAAAD/AAAAAM0AAJhBA4AAAGDLAAAAAAAAAAAAgD/LAAAAAAAAAP8AAAAAygAA
        oEEDgAAAYMkAAAAAAAAAAACAP8kAAAAAAAAA/wAAAADIAACoQQOAAABg4gAAAAAAAAAAAIA/4gAAAAAAAAD/AAAAAOEAALBBA4AAAGDaAAAAAAAAAAAAgD/aAAAAAAAA
        AIgAAKDAAQAAAAAAAAAA/wAAAADOAAC4QQOAAABg0QAAAAAAAAAAAIA/0QAAAAAAAAD/AAAAANAAAMBBA4AAAGD8AAAAAAAAAAAAgD/8AAAAAAAAAP8AAAAA+wAAyEED
        gAAAYOgAAAAAAAAAAACAP+gAAAAAAAAA/wAAAADnAADQQQOAAABg2QAAAAAAAAAAAIA/2QAAAAAAAACJAACgwAEAAAAAAAAAAP8AAAAAzAAA2EEDgAAAYMkAAAAAAAAA
        AACAP8kAAAAAAAAA/wAAAADIAADgQQOAAABg2wAAAAAAAAAAAIA/2wAAAAAAAACFAABAwAEAAAAAAAAAAP8AAAAA0gAA6EEDgAAAYOYAAAAAAAAAAACAP+YAAAAAAAAA
        /wAAAADlAADwQQOAAABg1gAAAAAAAAAAAIA/1gAAAAAAAAD/AAAAANUAAPhBA4AAAGDKAAAAAAAAAAAAgD/KAAAAAAAAAIQAACDAAQAAAAAAAAAA/wAAAADCAAAAQgOA
        AABgwwAAAAAAAAAAAIA/wwAAAAAAAAACAACAwAAAAAAAAAAA/wAAAAC/AAAEQgOAAABgzAAAAAAAAAAAAIA/zAAAAAAAAAACAAAAwAAAAAAAAAAAggAAQMABAAAAAAAA
        AACDAACAwAEAAAAAAAAAAP8AAAAAvQAACEIDgAAAYNIAAAAAAAAAAACAP9IAAAAAAAAABQAAAMAAAIA/AABAQAAAIMEAAAAAAAAAAP8AAAAAywAADEIDgAAAYMYAAAAA
        AAAAAACAP8YAAAAAAAAAAgAAgMAAAAAAAAAAAAIAAIDAAAAAAAAAAAC4AABAwAEAAAAAAAAAAP8AAAAAhAAAEEIDgAAAYMQAAAAAAAAAAACAP8QAAAAAAEDABAAAoMAA
        AADAAAAAAAAAQMAAAEDAAgAAgD8AAAAAAAAAAIMAAEDAAQAAAAAAAAAA/wAAAAC1AAAUQgOAAABgxAAAAAAAAAAAAIA/xAAAAAAAAAD/AAAAAMMAABhCA4AAAGDEAAAA
        AAAAAAAAgD/EAAAAAACAPwQAAABAAAAAwAAAQMAAAAAAAAAAAP8AAAAAvgAAHEIDgAAAYKsAAAAAAAAAAACAP6sAAAAAAAAAAgAAAMAAAABAAAAAQAIAAEDAAAAAAAAA
        AAD/AAAAAKQAACBCA4AAAGCrAAAAAAAAAAAAgD+rAAAAAABAQAIAAMA/AABAQAAAQEADAADAPwAAQMAAAAAAAAAAAP8AAAAAowAAJEIDgAAAYKsAAAAAAAAAAACAP6sA
        AAAAAAAA/wAAAACqAAAoQgOAAABgkwAAAAAAAAAAAIA/kwAAAAAAAMAEAAAAQAAAAAAAAABAAAAAAAAAAAD/AAAAAI0AACxCA4AAAGCTAAAAAAAAAAAAgD+TAAAAAAAA
        wAMAAAAAAACgwAAAAAAAAAAAgQAAQMABAAAAAAAAAAD/AAAAAIoAADBCA4AAAGCTAAAAAAAAAAAAgD+TAAAAAACAwAMAAADAAACAwAAAAAAAAAAA/wAAAACOAAA0QgOA
        AABggAAAAAAAAAAAAIA/gAAAAAAAQMADAACAvwAAgD8AAABAAAAAQIEAAMA/AgAAAAAAAEDAAABAwAEAAAAAAAAAAIUAAKDAAQAAAAAAAAAAgQAAQMABAAAAAAAAAADo
        AAA4QgOAAABggAAAAAAAAAAAAIA/gAAAAAAAAMACAAAAQAAAAAAAAAAA/AAAPEIDgAAAYIAAAAAAAAAAAACAP4AAAAAAAMDABQAAAEAAAIC/AACAPwAAAMAAAAAAAAAA
        AIcAAMC/AQAAAAAAAAAAlwAAQMCBAAAAANUAAEBCA4AAAGBsAAAAAAAAAAAAgD9sAAAAAABAwAMAAABAAABAwAAAAAAAAAAAowAAQMCBAAAAAMEAAERCA4AAAGBsAAAA
        AAAAAAAAgD9sAAAAAAAAwAEAAAAAAAAAAIEAAEDAAgAAAMAAAAAAAAAAAOQAAEhCA4AAAGBsAAAAAAAAAAAAgD9sAAAAAAAAAAIAAADAAAAAQAAAAEACAAAAAAAAAEAA
        AABAgQAAAACSAAAQwQEAAAAAAAAAAM4AAExCA4AAAGBnAAAAAAAAAAAAgD9nAAAAAAAAAIQAAMC/AQAAQMAAAEDABgAAIMCamdm/mpmZvwAAgL8zMzO/AAAAAAAAAADY
        AABQQgOAAABgVwAAAAAAAAAAAIA/VwAAAAAAAAABAAAAwAAAAMABAAAAAAAAAACGAACAwAIAAEBAAAAAAAAAAADIAABUQgOAAABgVwAAAAAAAAAAAIA/VwAAAAAAAACB
        AAAgQAUAAKDAAAAgwAAAAAAAAADAAAAAAAAAAADOAABYQgOAAABgVgAAAAAAAAAAAIA/VgAAAAAAAMACAACAvwAAAAAAAAAAhgAAQMADAAAAAAAAgMAAAAAAAAAAAMcA
        AFxCA4AAAGBJAAAAAAAAAAAAgD9JAAAAAAAAAAQAAADAAABAQAAAQMAAAAAAAAAAAAIAAIC/AAAAAAAAAACDAAAAwIIAAAAAiQAAgMCBAAAAAIkzMzPAgQAAAAChAABg
        QgOAAABgSQAAAAAAAAAAAIA/SQAAAAAAAAADAAAAwAAAgL8AAAAAAAAAAIEAAADAAQAAAAAAAAAAAgAAgL8AAAAAAAAAAAIAAADAAAAAAAAAAAC6AABkQgOAAABgSAAA
        AAAAAAAAAIA/SAAAAAAAAAAGAACAQAAAAEAAAIA/AAAAAAAAAEAAAIC/AACAvwYAAABAAAAAAAAAAMAAAAAAAAAAwAAAAAAAAAAAuQAAaEIDgAAAYEUAAAAAAAAAAACA
        P0UAAAAAAEBABgAAgD8AAADAAACAvwAAAAAAAADAAAAAAAAAAAAFAACAPwAAAMAAAAAAAAAAQAAAAAAAAAAAtwAAbEIDgAAAYD8AAAAAAAAAAACAPz8AAAAAAABAAwAA
        gL8AAIA/AAAAAAAAAAACAABAwAAAAAAAAAAAgQAAgD8DAADAwAAAgD8AAAAAAAAAALEAAHBCA4AAAGA5AAAAAAAAAAAAgD85AAAAAAAAPwMAAIA/AADAPwAAgL8AAIC/
        gQAAAAADAACAvwAAAMAAAEDAAABAwAYAAEBAAAAAAAAAQMAAAAAAMzMDwAAAAAAAAAAApwAAdEIDgAAAYDkAAAAAAAAAAACAPzkAAAAAAAAAAgAAAEAAAADAAAAAwAQA
        AABAAAAAAAAAAEAAAAAAAAAAAAIAAEDAAAAAAAAAAAACAABAwAAAAAAAAAAAqgAAeEIDgAAAYDYAAAAAAAAAAACAPzYAAAAAAADAAQAAAAAAAAAAswAAfEIDgAAAYDEA
        AAAAAAAAAACAPzEAAACAD8o9A8iS/D4Lknw/ydqdP8nanT8CMzMzP83MTL7NzEy+gsiSfL4DHpJ8vx9rvb8AAAAAAAAAAKIAAIBCA4AAAGAwAAAAAAAAAAAAgD8wAAAA
        AAAAAAUAAEBAAAAAAAAAgL8AAIA/AACAwAAAgMABAAAAAAAAAAADAADAwAAAAAAAAADAAAAAwAEAAAAAAAAAAKEAAIJCA4AAAGAuAAAAAAAAAAAAgD8uAAAAAAAAAIQA
        AABAAQAAAAAAAAAAAgAAgL8AAAAAAAAAAAIAAADAAAAAAAAAAACgAACEQgOAAABgKwAAAAAAAAAAAIA/KwAAAAAAAMAFAACAQAAAAAAAAIDAAAAAwAAAAAAAAAAAgc3M
        bMABAAAAAAAAAACBAADAwAEAAAAAAAAAAJwAAIZCA4AAAGAnAAAAAAAAAAAAgD8nAAAAAACAvwIAAABAAAAAAAAAAAACAABAwAAAAMAAAADABAAAAAAAAADAAAAAQAAA
        AAAAAAAAmwAAiEIDgAAAYCYAAAAAAAAAAACAPyYAAAAAAAC/CgAAgD8AAAC/AAAAAAAAwL8AACDAAACAvwAAAABmZmbAAACAPwAAAAAAAAAAmgAAikIDgAAAYCQAAAAA
        AAAAAACAPyQAAAAAAAAAgQAAgL8BAAAAAAAAAAACAABAwAAAAAAAAAAAnAAAjEIDgAAAYCIAAAAAAAAAAACAPyIAAAAAAIA/ggAAAACBAACAvwEAAAAAAAAAAJoAAI5C
        A4AAAGAgAAAAAAAAAAAAgD8gAAAAAAAAAIMAAABABAAAAAAAAABAAACAvwAAAAAAAAAAlgAAkEIDgAAAYB0AAAAAAAAAAACAPx0AAAAAAABAgQAAgECBAABAwAMAAABA
        AACAvwAAAAAAAAAAlAAAkkIDgAAAYBwAAAAAAAAAAACAPxwAAAAAAAAAgwAAoMACAAAAwAAAAAAAAAAAlAAAlEIDgAAAYBsAAAAAAAAAAACAPxsAAACSJD8/gpIkP78B
        AAAAAAAAAAACvFkPwKzrw7+s68O/AQAAAAAAAAAAkAAAlkIDgAAAYBkAAAAAAAAAAACAPxkAAAAAAAAAhfEyw7+CAAAAAI8AAJhCA4AAAGAYAAAAAAAAAAAAgD8YAAAA
        AACAPwMAAIC/AAAAAAAAAMAAAADABAAAgL8AAAAAAAAAwAAAAAAAAAAAjgAAmkIDgAAAYBYAAAAAAAAAAACAPxYAAAAAAMC/AQAAAAAAAAAAhAAAQMABAAAAAAAAAACM
        AACcQgOAAABgFQAAAAAAAAAAAIA/FQAAAAAAgD8BAAAAAAAAAAADAAAAwAAAQMAAAAAAAAAAAI4AAJ5CA4AAAGAUAAAAAAAAAAAAgD8UAAAAAAAAQAYAAIA/AABAwAAA
        gL8AAAAAAAAAwAAAAAAAAAAAjAAAoEIDgAAAYBMAAAAAAAAAAACAPxMAAAAAAAAAAwAAAEAAAIA/AAAAwAAAAMABAAAAAAAAAACMAACiQgOAAABgEgAAAAAAAAAAAIA/
        EgAAAAAAAD8DAACAPwAAgL8AAAAAAAAAAAEAAIC/AACAvwEAAAAAAAAAAIkAAKRCA4AAAGARAAAAAAAAAAAAgD8RAAAAAADAPwEAAMC/AADAvwEAAAAAAAAAAIwAAKZC
        A4AAAGAQAAAAAAAAAAAAgD8QAAAAMZJ8P4EAAAAAgR9rvb8DAAAAAB9rvb8AAAAAAAAAAIcAAKhCA4AAAGAPAAAAAAAAAAAAgD8PAAAA0lYCPwGJf8M/iX/DPwUAAAAA
        nH/DvwAAAACcf8O/AAAAAAAAAACGAACqQgOAAABgDgAAAAAAAAAAAIA/DgAAADGSfD8CMXGBPwAAAAAAAAAAAh9rvb8AAAAAAAAAAIcAAKxCA4AAAGANAAAAAAAAAAAA
        gD8NAAAACWaGP4EAAAAAARNmhr8TZoa/AQAAAAAAAAAAhgAArkIDgAAAYAwAAAAAAAAAAACAPwwAAAAAAIA/A1V6ej8AAIC/AAAAwAAAAMABAAAAAAAAAACFAACwQgOA
        AABgDAAAAAAAAAAAAIA/DAAAAAAAAACDZmaGvwEAAAAAAAAAAIUAALJCA4AAAGALAAAAAAAAAAAAgD8LAAAAAAAAAAQAAIC/AAAAwAAAgL8AAAAAAAAAAIUAALRCA4AA
        AGAKAAAAAAAAAAAAgD8KAAAAAAAAwAEAAAAAAAAAAIcAALZCA4AAAGAKAAAAAAAAAAAAgD8KAAAAAABAQAQAAABAAAAAwAAAQMAAAAAAAAAAAIQAALhCA4AAAGAJAAAA
        AAAAAAAAgD8JAAAA0UU3QAQXXfQ/F110Pxdd9D4AAAAAAAAAAIMAALpCA4AAAGAJAAAAAAAAAAAAgD8JAAAAo4suQAQuuug/LrpoPy666D4AAAAAAAAAAIMAALxCA4AA
        AGAIAAAAAAAAAAAAgD8IAAAAdNElQARGF90/RhddP0YX3T4AAAAAAAAAAIIAAL5CA4AAAGAIAAAAAAAAAAAAgD8IAAAARhcdQARddNE/XXRRP1100T4AAAAAAAAAAIIA
        AMBCA4AAAGAIAAAAAAAAAAAAgD8IAAAAF10UQAR00cU/AADAv3TRxT4AAAAAAAAAAIIAAMJCA4AAAGAIAAAAAAAAAAAAgD8IAAAA6aILQASMLro/jC46P4wuuj4AAAAA
        AAAAAIIAAMRCA4AAAGAIAAAAAAAAAAAAgD8IAAAAuugCQASji64/o4suP6OLrj4AAAAAAAAAAIIAAMZCA4AAAGAIAAAAAAAAAAAAgD8IAAAAFl30PwS56KI/uegiP7no
        oj4AAAAAAAAAAIIAAMhCA4AAAGAIAAAAAAAAAAAAgD8IAAAAuujiPwTSRZc/0kUXP9JFlz4AAAAAAAAAAIIAAMpCA4AAAGAIAAAAAAAAAAAAgD8IAAAAXHTRPwTooos/
        6KILP+iiiz4AAAAAAAAAAIIAAMxCA4AAAGAIAAAAAAAAAAAAgD8IAAAAAADAPwQAAIA/AAAAPwAAgD4AAAAAAAAAAIIAAM5CA4AAAGAIAAAAAAAAAAAAgD8IAAAAoouu
        PwQAAMC/LbroPi26aD4AAAAAAAAAAIIAANBCA4AAAGAIAAAAAAAAAAAAgD8IAAAARRedPwRcdFE/XHTRPlx0UT4AAAAAAAAAAIIAANJCA4AAAGAIAAAAAAAAAAAAgD8I
        AAAA6KKLPwSLLjo/iy66PosuOj4AAAAAAAAAAIIAANRCA4AAAGAIAAAAAAAAAAAAgD8IAAAAFl10PwS56CI/ueiiPrnoIj4AAAAAAAAAAIIAANZCA4AAAGAIAAAAAAAA
        AAAAgD8IAAAAXHRRPwToogs/6KKLPuiiCz4AAAAAAAAAAIIAANhCA4AAAGAEAAAAAAAAAAAAgD8EAAAAoosuPwMtuug+LbpoPi266D0AANpCA4AAAGAEAAAAAAAAAAAA
        gD8EAAAA6KILPwOLLro+iy46Posuuj0AANxCA4AAAGAEAAAAAAAAAAAAgD8EAAAAXHTRPgPooos+6KILPuiiiz0AAN5CA4AAAGAEAAAAAAAAAAAAgD8EAAAA6KKLPgOL
        Ljo+iy66PYsuOj0AAOBCA4AAAGAEAAAAAAAAAAAAgD8EAAAA6KILPgOLLro9iy46PYsuujwAAOJCA4AAAGAEAAAAAAAAAAAAgD8EAAAAAAAAAIM5lNc9A4AAAEALAAAA
        AADAQQAA4EEAAOhBAAAcQgAAIEIAAFxCAABwQgAAkEIAAKhCAADAQgAA2EILAAAAutqaP4P6pYk/Bm4plj/NvpE/+qWJP1zEdz+TLSU/XMT3PgEAAAABAAAAAQAAAIsH
        Nj9XVLM/AQAAAAEAAAABAAAAQZU1P3iV4T8BAAAAAAAAAAEAAAAzMzM/ZmamPwEAAAAAAAAAAQAAADMzMz9mZqY/AQAAAAAAAAABAAAAMzMzP2Zmpj8BAAAAAAAAAAAA
        8EIAAAAADgAAAAAAAD/NzMw9zcxMPgAAAD8DAAAAAAAAAAOAAABIAQAAAAAAAAAAAAAAA4AAAEgBAAAAAAAAAAQAAAACAAAACAAAAAQAAAABAAAAAQAAAAAAgD8AAIA/
        AQAAAAEAAAABAAAAAQAAAAEAAAAAAIA/AAAAAAAAgEAAALRCRgAAAAADgAAASAEAAAAAAAAAAAAAAAOAAABIAQAAAAAAAAAAAAAAAAAAAAOAAABIAQAAAAAAAAAAAAAA
        AwAAAAcAAAABAAAAAAAAAA4AAAAQAAAAAAAAAJqZGT4AAIA/AAAAAAAAAL8AAMBBAAAAAAAAAAAAAAAAAAAAAAAAAAAAAAAAAAAAAAAAAAAAAAAAAAAAAAMAAAAKAAAA
        AQAAAAAAAAAOAAAAEAAAAAAAAAAAAFxDAACAvwAAAD8AAABAAAB6RAAAAAAAAAA/AACAPwBAnEUAAABAmpkZPwAAQEAAAAAAAAAAAAAAAAADAAAACgAAAAEAAAAAAAAA
        DgAAABAAAAAAAAAAAADIQgAAAAAAAIA/AAAAQABAnEUAAIA/mpmZPgAAgD8AgDtGAAAAQAAAAD8AAEBAAAAAAAAAAAAAAAAAAQAAAAEAAAAAAIA/AABAwQAAAAADAAAA
        AwAAAAAAAAABAAAABQAAAAQAAAABAAAAAwAAAGY9ij7oUTg+XI+CP7GwaMIQboHABAAAAAUAAAAAAADAAABAwQAAwMIAAMDCAADAwgUAAAAAAAAAj8L1PAAAAAAAAAAA
        AAAAAAUAAAAAAAAAAAAAAAAAAAAAAAAAAAAAAAEAAAAAAAAABAAAAAEAAAADAAAARuF6P+hROD4K16M/sodOQhBugcAEAAAABQAAAAAAQMEAAADAAADAwgAAwMIAAMDC
        BQAAAI/CdTxSSR06AAAAAAAAAAAAAAAABQAAAAAAAAAAAAAAAAAAAAAAAAAAAAAAAQAAAAAAAAAEAAAAAQAAAAMAAACcxEA/N4kJQGq8xD/NzCNDzcwgwgMAAAAFAAAA
        AABwwQAAcMEAAHDCAABwwgAAcMIFAAAAAAAAAAAAAAAAAAAAAAAAAAAAAAAFAAAAAAAAAAAAAAAAAAAAAAAAAAAAAAABAAAAAAAAAAQAAAAAAAAAAwAAANejCECF6+E/
        rkfhP83M2EIAAAAABwAAAAUAAAAAAHDCAABwwgAAcMIAAHDCAABwwgUAAAAAAAAAAAAAAAAAAAAAAAAAAAAAAAUAAAAAAAAAAAAAAAAAAAAAAAAAAAAAAAEAAAAAAAAA
        BAAAAAAAAAADAAAAuB7FPz0KVz+uR+E/AAAAAAAAAAAAAAAABQAAAAAAcMIAAHDCAABwwgAAcMIAAHDCBQAAAAAAAAAAAAAAAAAAAAAAAAAAAAAABQAAAAAAAAAAAAAA
        AAAAAAAAAAAAAAAAAQAAAAAAAAABAAAAAAAAAAEAAAADAAAAUrgeP+xRuL5mZqY/AACQQQAAAAAAAAAAAAAAAAEAAAAAAAAAAAAAAAAAAABKVUNFUHJpdmF0ZURhdGEA
        AQFCeXBhc3MAAQEDAB0AAAAAAAAASlVDRVByaXZhdGVEYXRhAAAAAAAAAAA=
        AAAQAAAA
      >
      PRESETNAME "HB Steinway D Felt II"
      FLOATPOS 32 149 592 662
      FXID {B76D5FDE-A8CA-584F-8F0F-DB5EF086AAD7}
      WAK 0 0
      BYPASS 0 0 0
      <AU "AU: VCV Rack 2 FX (VCV)" "VCV: VCV Rack 2 FX" "" 1635085670 1447253574 1447253599
        6QMAAAAAAAAQAAAAAQAAAAAAAAACAAAAAAAAAAAAAAAAAAAAAAAAAAAAAAAAAAAAAAAAAAAAAAAAAAAAAAAAAAAAAAAAAAAAAAAAAAAAAAAAAAAAAAAAAAAAAAAAAAAA
        AAAAAAAAAAAAAAAAAAAAAAAAAAAAAAAAAAAAAAAAAAAAAAAAAAAAAAAAAAAQAAAAAQAAAAAAAAACAAAAAAAAAAAAAAAAAAAAAAAAAAAAAAAAAAAAAAAAAAAAAAAAAAAA
        AAAAAAAAAAAAAAAAAAAAAAAAAAAAAAAAAAAAAAAAAAAAAAAAAAAAAAAAAAAAAAAAAAAAAAAAAAAAAAAAAAAAAAAAAAAAAAAAAAAAAAAAAADsBwAAPD94bWwgdmVyc2lv
        bj0iMS4wIiBlbmNvZGluZz0iVVRGLTgiPz4KPCFET0NUWVBFIHBsaXN0IFBVQkxJQyAiLS8vQXBwbGUvL0RURCBQTElTVCAxLjAvL0VOIiAiaHR0cDovL3d3dy5hcHBs
        ZS5jb20vRFREcy9Qcm9wZXJ0eUxpc3QtMS4wLmR0ZCI+CjxwbGlzdCB2ZXJzaW9uPSIxLjAiPgo8ZGljdD4KCTxrZXk+ZGF0YTwva2V5PgoJPGRhdGE+CglLTFV2L1FC
        SVRTTUFsankwT1VCcjJBQTh4SGhnSHBnSG1WVGdGQzhBakUvTG5VMzdxYzdxeTY0MU9oK3ptY0VhZVF3MwoJT0taTlNVbEo4cmlmMzM3bW54TWdzUFJJQWFvQW5BQ3FB
        QlQ0Vng2OXREY3N1VmNELzhyRFhwVDFoaDg3cVpWMDhhODgKCTJDMXhjZnlHcFF0VmxKM3dyMnlBRFU0WVkyeXlOUWhsZDB1M3FyQndPRmFkSkN3SWxuZzJHM1kzWXdn
        V0Q4b0VCeEdJCglEeEVNQWdDempsUWxPN25VdE5ob211b2l1VTRCQUl3QVk0d0RZNndEdThEQWlHQWRHR01RakxFTGpESEhHQnZBR0lOZwoJaC9BR0RPN1VDc1lnbUFB
        REFkNk1xbFoxOVZtTGNYWS9RaGlsbEhIQzlnZGRkN1BIT0x1YkxSS1dELy8vbFllRHZHSEsKCVRpRHE0ZjlDejFXNTRXclZoNVZIditHSFFuS3RxN0pHUjgvSXhFaVox
        elMrQjJrdjdRM2JLNm9UL245SnBlckUvKytzCglVeU9VdFNTS0N6MVhCTC9oeUQ1WHdwYTZFdnlHSllqQ0ZVMFAyWTlwTWI1dWo0R1NtVy80Z2ZqL2YyVkRaYVBydVJM
        KwoJbFlmR3IwenA1SFB0d1FZbm5mM2cwcEQvVng0TW5ZL1NwaE5TR2x1VEM0WDh2eExoRFZ1MmlrUVlQQkFWcnhlbUYwZloKCXFuSllYTW9Da2lHUlFTWFRjTTVKbjV2
        d3lkYlJJRzhZZWlBSi83ZkNxbXJFVEtOdm1NT3hJQXVycWhGMDBBU2FzT0RjCgl5T0hmUHJjaVEzUW4vdDl3RlZsSnFod08vMWNlSE5hOWtvcmZzS1VnMVFzTVU0YkV4
        YUNZb0tobzlNWFdYTXR1NWowbQoJdnVFSFlrWGpUa3haSzRJU09BOTNXTmUxcmttQ3FHdHYyR3FBR2xod2JyVEIvNzkwTjRWdjJGcjF3a2FUcEZiOC93OGkKCUp2Z05X
        MGxkWUIxb1lnTWRDbVd0cWtybWd4c1IyaWlGc2tuYTdUR3UzWE1iY0w0WG1kMW9peFRLU0Z2TDExcDhLdHlnCglyY1UzSFJOaGZGTXlVVHEyTW01MEgrQTNUTjNvT2hJ
        a1FkWTFXZGVsc05IMTNBcnJtcXpyenVnZ0ErT2NyNkdNVFc1VQoJNTg1V1VZMjhZU3RpRlZqMmdVWFppUVM1SzNSS2hvbXd6ZGVtbExLalhGcEsrbnE2Zmc0eURNTk1L
        SmVPRFViR3VXNlMKCXV1N3VkaE0raUZNZWtqNEpvNXVTaWE4RmdLZW9nU2t5WkdnQUJBQXdCRWlRQUlBQ2dLRWhxZ0lTWUdBWUdNclRITU5oCglEQU1HR1FNRUFCbGpB
        QVFRUUFBQlRRQUdxd0ZDOUNtRVZqRDFOVnpma0JVVFprUkJZNm41a2w1OWRnQ1d2Ri90SWtrUwoJK0l5NGhvUkRRMjR2bEZnSW5vQWNXcUEvQjdGQ3grTTl3dVh0MTNS
        ZCtMcGt3OG5LQ1dlRk9GNTdRZXhYNllNNlBETFgKCTRGMVBweXNEb3ptd3l6RVhPTEtMTGpSWFZSVEk1OXVoVTBCYlRwNVBqRXBJZ3JKWk1EaUpGb1lpT2tzYWlSYUd2
        Uzd5CgliUk9JK3duM1ZIS2hPOGZpSndjcHE1Wmo0R3pQeVZtQ0ZweitKVEZCQUZRS0tKOWl0QWJXOENtWkZUWG9Vb3Z2V0x5TAoJZUNjZVVXc3hVS00yWFFkZVVCT0Zv
        cncwMXVQb1dRcXpOaEZwQVJKRm1ZeWRVVkl3cGc0RXhsTlk3UE4va0ZKWmNZNEUKCTRMcW45YTZBOUVnY1AxdWRMNVd5c1k5bGRqS0RRcXVvdTRXQ2QrRUc1UjZCTnhw
        UHJrTUVpcjN1VXpxUTdrWVNxWTZoCgl4VHdQQUMzYkFlQ0FaVnN6SUowNTRYNFI1ZENKMW1DMEY4UUIwR3NYZXFhK0JlbG03L2JUT21MSUhDb2NEc05GVVVrUAoJTEF6
        ak54eXluVGVRbnZHRitlMElZdz09Cgk8L2RhdGE+Cgk8a2V5Pm1hbnVmYWN0dXJlcjwva2V5PgoJPGludGVnZXI+MTQ0NzI1MzU5OTwvaW50ZWdlcj4KCTxrZXk+bmFt
        ZTwva2V5PgoJPHN0cmluZz5WQ1ZSYWNrPC9zdHJpbmc+Cgk8a2V5PnN1YnR5cGU8L2tleT4KCTxpbnRlZ2VyPjE0NDcyNTM1NzQ8L2ludGVnZXI+Cgk8a2V5PnR5cGU8
        L2tleT4KCTxpbnRlZ2VyPjE2MzUwODU2NzA8L2ludGVnZXI+Cgk8a2V5PnZlcnNpb248L2tleT4KCTxpbnRlZ2VyPjE8L2ludGVnZXI+CjwvZGljdD4KPC9wbGlzdD4K
        AQAAAAAAAAAAAA==
      >
      FLOATPOS 0 0 0 0
      FXID {5CF094C6-B0B3-8540-ADA2-6988E546D20D}
      WAK 0 0
    >
  >
  <TRACK {AA654F10-A467-8D45-86CE-3EA1A1F64A2B}
    NAME "Pianoteq 8"
    PEAKCOL 16576
    BEAT -1
    AUTOMODE 0
    PANLAWFLAGS 3
    VOLPAN 3.98107170553497 0 -1 -1 1
    MUTESOLO 0 0 0
    IPHASE 0
    PLAYOFFS 0 1
    ISBUS 0 0
    BUSCOMP 0 0 0 0 0
    SHOWINMIX 1 0.6667 0.5 1 0.5 0 0 0
    FIXEDLANES 9 0 0 0 0
    SEL 0
    REC 1 5088 1 0 0 0 0 0
    VU 2
    TRACKHEIGHT 0 0 0 0 0 0 0
    INQ 0 0 0 0.5 100 0 0 100
    NCHAN 2
    FX 1
    TRACKID {AA654F10-A467-8D45-86CE-3EA1A1F64A2B}
    PERF 0
    AUXRECV 0 0 1 0 0 0 0 0 0 -1:U 0 -1 ''
    MIDIOUT -1
    MAINSEND 1 0
    <FXCHAIN
      WNDRECT 32 255 815 571
      SHOW 0
      LASTSEL 1
      DOCKED 0
      BYPASS 0 0 0
      <VST "VST3i: Pianoteq 8 (Modartt) (1->5ch)" "Pianoteq 8.vst3" 0 "" 1031062328{565354507438717069616E6F74657120} ""
        OMN0Pe5e7f4CAAAAAQAAAAAAAAACAAAAAAAAAAUAAAABAAAAAAAAAAIAAAAAAAAABAAAAAAAAAAIAAAAAAAAABAAAAAAAAAA9xUAAAEAAAD//xAA
        5xUAAAEAAABWc3RXAAAACAAAAAEAAAAAQ2NuSwAAFc9GQkNoAAAAAlB0OHEACAQBAAAAAAAAAAAAAAAAAAAAAAAAAAAAAAAAAAAAAAAAAAAAAAAAAAAAAAAAAAAAAAAA
        AAAAAAAAAAAAAAAAAAAAAAAAAAAAAAAAAAAAAAAAAAAAAAAAAAAAAAAAAAAAAAAAAAAAAAAAAAAAAAAAAAAAAAAAAAAAAAAAAAAAAAAAAAAAAAAAAAAVN6CYE/4CAAAA
        SDgSAOsUAAABAAAAEThWON8UAABQclZLKQAAAlhGVFDPFAAACgAAADIwMjUvMDIvMjMXAAAAUGlhbm90ZXEgOC40LjEvMjAyNTAyMDTbiYsJd7D11Sso+HyXcVHIZGxs
        YY4UAAB0ZHRNMQQAAA4AAABDaW1iYWxvbSBiYXNpYwAAAAAHAAAATW9kYXJ0dIEAAABDaW1iYWxvbSBkZWZhdWx0IHByZXNldC4gSW1wb3J0YW50OiBzdXN0YWluIHBl
        ZGFsIGlzIGludmVyc2VkLCBzdHJpbmdzIGFyZSBkYW1wZWQgd2hlbiB0aGUgY2ltYmFsaXN0IGRlcHJlc3NlcyB0aGUgc3VzdGFpbiBwZWRhbC4AAAAARAEAAA4AAABD
        aW1iYWxvbSBiYXNpYwAAAABpAwAAR1JVVQAAAAYAAAABA8BNVHJrAAADUwD/AgwgTHVjIEhlbnJpb26BOLBAAIR9kChkhDwvWYMugC9VCZA0X4McN06BUoA3UYFHkDtZ
        gTWAO1uCHZA+SoF0gD5SgiKQQF2BU4BAYoJukEJSgUSAQlyDNZBDVIRJRUsHgENPhGuQR00DgEVUgW9HUoMzkEhKgiOASB6DFpBKRIFQgEpZTihhcjRjhTqwQH+EC5Aw
        XW6wQAAnkEBMOzdFLUNPZYAwXxZAXSeQPFsrgDdiEUNiOpBMYh+APFxzTG2FJJBMW4FngExbiEWQSkaBG4BKX4R3kExHgS2ATFuDRZBKQmyASlqEdZBIeYQYR1YjgEg4
        gS+QRUJSgEdbJkVfFJBDWYEVgENlRZBCVIFNgEJxC5BANYE+gEBiB5A+T4ESgD5lYpA8RYEvO0cWgDxVaztdLpA5RGWAOVtOkDdZgVY2YQeAN0iBNzZ2UJA0UmiANGCH
        A7BAfwyQKEKBci9CPzs9bLBAAByQQElDNEUpgCg+BDtQHS9NQEBdP5BHWSmANF2BQkdehDCQR2aBPIBHb4F0kEdNVIBHYYENkEdMYYBHX4EOkEdbbYBHXIEHkEdkZIBH
        X4EGkEdrdIBHaXuQR3N3gEdtgQuQR3VugEd9gReQR3NosEB/EoBHcoMykEVfYYBFXoN7kEdiVIBHYIUpkEVFaIBFXoZRkEM7hAKwQACGc4BDX4gPsEB/gV+QLyyBWDY+
        gWyANloGkDlMdTsvPIA5XAawQABmkD9GW4A7XDk/bSSQRVaBDoBFYYcXkEU/gUKART2Idy8+g2+QRTaBFYBFTIZckEM5hQyAQ1uKPZBCNIEVgEJdhl+wQH+FcZAoRYFX
        L0o1N0ENgChQTrBAADeQNFYOO1IHgC9eQTdZKzRlGDtpEZBAZIEBgEBvb7BAf5IQkC1bgQ80ZHCALV1XkDlbFYA0ZU2QPEwhgDljgSyQQFtGgDxXgR2QRU09gEBegQCQ
        SFYegEViaUhphnCQL02BGjZYf4AvXHOQOVsGgDZsdZA7TReAOWOBL5A/XW2AO1wikEJJdoA/aUOQR2YOgEJve0dpiGWQKFJ9L18pgChggUwvYCeQN1mBG4A3YiWQQE+B
        ZkNPRIBAXGSQR19GgENhc5BMXwSAR3tZTGsA/y8AUHJzVU0QAABJAAAACAAAAGN5bWJhbHVtAAAAAAgAAABDaW1iYWxvbQAAAAAAAAAAcHJvbVoAAAABAAAAAQAAAAEA
        AAAIAAAAY3ltYmFsdW0AAAAACAAAAENpbWJhbG9tAACAPwYAAAAAAAAAAAAAAAAAAAAAAAAAAAAAAFRG/////wAAAAAAAAAAAAAAAAAAAAByeWFsEAAAAAIAAAAAAAAA
        AAAAAP////9vbG9zEQAAAAEAAAABAAAARgAAAAAAAAAAAQAAAAEAAAAAAAAAAAAAAAEAAAAAAAAAAAAAAAEAAAAAAAAAAAAAAAEAAAAAAAAAAAAAAAEAAAAAAAAAAAAA
        AAEAAAAAAAAAAAAAAAEAAAAAAAAAAAAAAAEAAAAAAAAAAAAAAAEAAAAAAAAAAAAAAAAAAAADgAAAQAMAAAAAAKhBAABwQgAA2EIDAAAAAAAAAIIDAAAAAQAAAAAAAAAA
        AAAAAwAAAAAAAAAAAAAAAAAAAAMAAAAAAAAAAAAAAAAAAAADAAAAAQAAAAEAAAABAAAAAACAPwAAAAABAAAAAAAAAFOOEz4DgAAAYAIAAAAAABhCAABcQgIAAAANlE4/
        AWafnj8BAAAAAAAAAAAAAAAAAKDAAACgQAAAwEIAAIA/A4AAAFAAAHBCAQAAAAAAAAAAAAAAAAAAAAAAAAABAAAAAAAAAAAAAAAAAKDAAACgQAAAAAADgAAAYAIAAAAA
        AKhBAACuQgIAAAAAAAAAgQOAAABgAgAAAAAAqEEAAK5CAgAAAAAAgD+BgAAAAAAAAADSBAAAAAAAAAAAAAAAAACAAAAAPwAAgD8DgAAAYAIAAAAAAKhBAACuQgIAAAAA
        AAAAgQOAAABgAgAAAAAAqEEAAK5CAgAAAAAAAACBA4AAAGACAAAAAACoQQAArkICAAAAAACAP4ECAAAAAQAAAFUAAABFcXVhbCB0ZW1wZXJhbWVudApUaGUgc3RhbmRh
        cmQgdHVuaW5nLCB3aGVyZSB0aGUgb2N0YXZlIGlzIGRpdmlkZWQgaW4gMTIgZXF1YWwgc3RlcHMuDAAAAAAAyEIAAEhDAACWQwAAyEMAAPpDAAAWRAAAL0QAAEhEAABh
        RAAAekQAgIlEAACWRAEAAAAAAAAABAAAAAAA3EM8AAAARQAAAEYAAAAAfwAAAAAAAAAHAAAARGVmYXVsdAAAAAAAAAAAAgAAAAOAAABgAgAAAAAAqEEAAK5CAgAAAAAA
        AACBAQAAAAAAAAAAAIA/AQAAAAEAAAABAAAAHwAAAAOAAABIAQAAAAAAgD8AAAAAAACAPwOAAABgAgAAAAAAqEEAAK5CAgAAAAAAgD+BA4AAAGACAAAAAACoQQAArkIC
        AAAAAACAP4EDgAAAUAAAekQBAAAAAAAAAAOAAABQAAB6RAEAAAAAAIA/AAAAAAOAAABQAABwQgEAAAAAAAAAAACAPwOAAABQAABwQgEAAAAAAAAAAQAAAAAAAAAAAAAA
        zczMvc3MzD0BAAAAAAAAAAAAAAAAAAC/AAAAPwAAgD8DgAAAQAMAAAAAAKhBAABwQgAA2EIDAAAAAACAP4IAAAAAA4AAAGACAAAAAACoQQAArkICAAAAAAAAAIEAAIA/
        A4AAAGACAAAAAACoQQAArkICAAAAAACAP4EAAEhCA4AAAGACAAAAAACoQQAArkICAAAAAAAAAIEAAIA/A4AAAEADAAAAAACoQQAAcEIAANhCAwAAAAAAgD+CA4AAAEgB
        AAAAAAAAAAEAAAADgAAAYAIAAAAAAAAAAACAPwIAAAAAAAAAAQAAgD8DgAAAYAIAAAAAAAAAAACAPwIAAAAAAIA/gQOAAABABAAAAAAAAAAmk0k+/n4/PwAAgD8EAAAA
        AACAP4EAAAAAgQOAAABgAgAAAAAAAAAAAIA/AgAAAAAAAACBAAAAAM3MTD4AAAAAAAAAAAAAAAAAAAA/AAAAAGZm5j8DgAAAYAIAAAAAAKhBAACuQgIAAAAAAIA/gQAA
        gL8AAAA/A4AAAGACAAAAAADAQQAAkEICAAAAAACAP4EBAAAAAQAAAAEAAAAKAAAAU21hbGwgSGFsbAsAAABtZWRpdW1oYWxsMQAAQMAAAKBBAACAP5qZmT8AAAAAzcxM
        PQAAAAAAAAAAAAAAAFK4nj8AAKpDAACAPwAAgD8BAAAABgAAAAAAgD8AAIA/A4AAAGBYAAAAAACoQQAAgD9YAAAA/5VZP1c/G0I/3f1qP6f4UD8m/GA/viCLP98pNT9h
        zGo/y22IP/e7fz8mpJU/7tE5PzBsSz/S10U/GVt1P0NFZD//55A/yBSGP9/QWD/7Azg/2D0/P9W9jD9XMGI/wkdfP2pLlD+U+YE/wVJKP+qpUj+6UZU/ubuFP7l1Zj/r
        10w/REiRP+bHST/59GQ/bhpBP4FPOz/0VG4/LSc4P6MnZD/zD4c/2pGRPzj+kz8MQ40/wKSFPxe0Zj9bxkE/zueYP3a2Rz9XXlM/uMNqPweIXT8Y/1c/1FuIP3SckD9P
        +oo/QItMP0sdjT8rHFg/YyeAPxOyRz8Na3s/YDReP/zRbT982IU/biBiP7raPz8UZXM/aMWUP4hcZD9PvjQ/cBiBP003Nz84mZk/XClaPw+qOD8NzlQ/JrtaP8lXYz/q
        tDY/Z+uTP43xjz9ssZU/cKSUP1U/UT9luUA//bM7P9Nwgz8DgAAAQAMAAAAAAKhBAABwQgAA2EIDAAAAAACAP4IAAAAAA4AAAGBYAAAAAACoQQAAgD9YAAAAt/G3vVco
        I2K+8g4ivp5XDrzVFQS+ZwervYqE4T3k+9I8sLbDvC9qWT6Yr8Q9bvkyPo0pOD6fhJ49XeYpPj+4bT1UmOE8Hnt4vjgy1Tyenoy+UjJ4u+V0XT7kLxc8uPqYvgu7Pb2n
        nQI7qpYFvHAFnr13A1I+Oo5/PYPnOD45oze+iv2FPrPDFDw4T3u+bdaTPnFK4r0iREa+UuqovET+dL5o+yI9i8ufPex1BL7IBo2+8DH9veWmCj5pvpY8CBKbvTXhfL6Q
        wQs8gPE0PkojeL5ivGe+636ROwsFH702isI9oZkkvukDjz3BJbY8AvFyvmNR07zSxPA9nfxhPhyxjD4qwQS9LL6rPO5Vb75bV3G+WIkwvo3aO77J7nG+qomSPC7TJb5v
        Blc+OAH3vaLHJT5clBg+SrK2PdnQCj4UmnQ+b9MhPjKVcL5cNHS+ol3HPcEdmL59Q4G+zbKJPoGNbL4BAAAAAAAAAAEAAAAAAAA/AAAAQAMAAAAAAIA/AACAPwAAgD8D
        gAAAQAMAAAAAAKhBAABwQgAA2EIDAAAAAACAP4IDgAAAQAMAAAAAAKhBAABwQgAA2EIDAAAAAACAP4IDgAAAQAMAAAAAAKhBAABwQgAA2EIDAAAAAACAP4IAAIA/AACA
        PwcAAAAAAIA/AACAPmZmJj/NzIw/AACAPggAAAAAAAAAAAAAAAAAAAAAAAAAAAAAAAAAAAAAAAAAAAAAAAOAAABAAwAAAAAAqEEAAHBCAADYQgMAAAAAAIA/ggOAAABA
        AwAAAAAAqEEAAHBCAADYQgMAAAAAAIA/ggOAAABAAwAAAAAAqEEAAHBCAADYQgMAAAAAAIA/ggOAAABAAwAAAAAAqEEAAHBCAADYQgMAAAAAAIA/ggEAAAABAAAAAABw
        QgOAAABQAAAAAAEAAAAAAAAA2/EwPgOAAABAEwAAAAAAGEIAACBCAAAoQgAALEIAADRCAABAQgAAUEIAAFxCAABoQgAAdEIAAIBCAACEQgAAjEIAAJRCAACcQgAApkIA
        AK5CAAC2QgAAukITAAAAIM5YPxDB6nY/mohFP5Xymz9DQpk/IM5YP7Lzbj8y3lk/gZwkPxEwOT+tOV4/bhiNP9/raT/B6nY/paRTP3QmlD/B6vY/wer2PwF0JpQ/AQAA
        AAAAAAABAAAAMzMzP2Zmpj8BAAAAAAAAAAEAAAAzMzM/ZmamPwEAAAAAAAAAAQAAADMzMz9mZqY/AQAAAAAAAAABAAAAMzMzP2Zmpj8BAAAAAAAAAAEAAAAzMzM/Zmam
        PwEAAAAAAAAAAADwQgAAAAAOAAAAAAAAP83MzD3NzEw+AAAAPwMAAAAAAAAAA4AAAEgBAAAAAAAAAAAAAAADgAAASAEAAAAAAAAABAAAAAgAAAAHAAAAAwAAAAEAAAAB
        AAAAAACAPwAAgD8BAAAAAQAAAAEAAAABAAAAAQAAAAAAgD8AAAAAAACAQAAAtEJGAAAAAAOAAABIAQAAAAAAAAAAAAAAA4AAAEgBAAAAAAAAAAAAAAAAAAAAA4AAAEgB
        AAAAAAAAAAAAAAADAAAACAAAAAAAAAAAAAAADgAAABAAAAAAAAAAAACAPwAAAAAAAKDBAAAAAAAAAL8AAIA/AAAAAAAAAAAAAAAAAAAAAAAAAAAAAAAAAAAAAAAAAAAA
        AAAAAwAAAAkAAAAAAAAAAAAAAA4AAAAQAAAAAAAAAAAAgD8AAMA/AABAQAAAcMEAACBBAADwQQAAAAAAAAAAAAAAAAAAAAAAAAAAAAAAAAAAAAAAAAAAAAAAAAMAAAAA
        AAAAAAAAAAAAAAAOAAAAEAAAAAAAAAAAAAAAAAAAAAAAAAAAAAAAAAAAAAAAAAAAAAAAAAAAAAAAAAAAAAAAAAAAAAAAAAAAAAAAAAAAAAAAAAABAAAAAQAAAJsgGj8A
        AEDBAAAAAAMAAAADAAAAAAAAAAEAAAAFAAAABAAAAAEAAAADAAAAzczMPgAAAD9mZuY/AAAHw7wODcIIAAAABQAAAAAAAAAAAHDBAADAwgAAwMIAAMDCBQAAAAAAAAAA
        AAAAAAAAAAAAAAAAAAAABQAAAAAAAAAAAAAAAAAAAAAAAAAAAAAAAQAAAAAAAAAEAAAAAQAAAAMAAAAAAIA/AAAAP0jh6j8AAGHDvA4NwggAAAAFAAAAAABwwQAAAAAA
        AMDCAADAwgAAwMIFAAAAAAAAAAAAAAAAAAAAAAAAAAAAAAAFAAAAAAAAAAAAAAAAAAAAAAAAAAAAAAABAAAAAAAAAAQAAAAAAAAAAwAAAI/C9T89Cle/H4VrPwAAtEIA
        AAAAAAAAAAUAAAAAAEDBAABAwQAAcMIAAHDCAABwwgUAAAAAAAAAAAAAAAAAAAAAAAAAAAAAAAUAAAAAAAAAAAAAAAAAAAAAAAAAAAAAAAEAAAAAAAAABAAAAAAAAAAD
        AAAAMzMzv1yPwj6uR2E/AAAAAAAAAAAAAAAABQAAAAAAQMEAAEDBAABwwgAAcMIAAHDCBQAAAAAAAAAAAAAAAAAAAAAAAAAAAAAABQAAAAAAAAAAAAAAAAAAAAAAAAAA
        AAAAAQAAAAAAAAAEAAAAAAAAAAMAAAC4HsU/PQpXP65H4T8AAAAAAAAAAAAAAAAFAAAAAABAwQAAQMEAAHDCAABwwgAAcMIFAAAAAAAAAAAAAAAAAAAAAAAAAAAAAAAF
        AAAAAAAAAAAAAAAAAAAAAAAAAAAAAAABAAAAAAAAAAEAAAAAAAAAAQAAAAMAAAA9Clc/mpmZvmZmpj8AAJBBXI8SQAAAAAAAAAAAAQAAAAAAAAAAAAAAAAAAAEpVQ0VQ
        cml2YXRlRGF0YQABAUJ5cGFzcwABAQMAHQAAAAAAAABKVUNFUHJpdmF0ZURhdGEAAAAAAAAAAA==
        AAAQAAAA
      >
      PRESETNAME "Cimbalom basic"
      FLOATPOS 32 149 592 662
      FXID {1BDB9480-17FE-3248-A735-99C492CB791B}
      WAK 0 0
      BYPASS 0 0 0
      <AU "AU: Surge XT Effects (Surge Synth Team)" "Surge Synth Team: Surge XT Effects" "" 1635083896 1397119060 1450009153
        6QMAAAAAAAAEAAAAAQAAAAAAAAACAAAAAAAAAAAAAAAAAAAAAAAAAAAAAAACAAAAAQAAAAAAAAACAAAAAAAAAPYIAAA8P3htbCB2ZXJzaW9uPSIxLjAiIGVuY29kaW5n
        PSJVVEYtOCI/Pgo8IURPQ1RZUEUgcGxpc3QgUFVCTElDICItLy9BcHBsZS8vRFREIFBMSVNUIDEuMC8vRU4iICJodHRwOi8vd3d3LmFwcGxlLmNvbS9EVERzL1Byb3Bl
        cnR5TGlzdC0xLjAuZHRkIj4KPHBsaXN0IHZlcnNpb249IjEuMCI+CjxkaWN0PgoJPGtleT5kYXRhPC9rZXk+Cgk8ZGF0YT4KCUFBQUFBQUFBQUFBQUFBQU5LdXhrcWdB
        QUFBQXE3R1NyQUFBQUFDcnNaS3dBQUFBQUt1eGtyUUFBQUFBcTdHU3VBQUFBCglBQ3JzWks4QUFBQUFLdXhrc0FBQUFBQXE3R1N4QUFBQUFDcnNaTElBQUFBQUt1eGtz
        d0FBQUFBeW9ERGxBQUFBQURLZwoJTU9ZQUFBQUFOTi9qREFBQUFBQT0KCTwvZGF0YT4KCTxrZXk+ZWxlbWVudC1uYW1lPC9rZXk+Cgk8ZGljdD4KCQk8a2V5PjE8L2tl
        eT4KCQk8ZGljdD4KCQkJPGtleT4wPC9rZXk+CgkJCTxzdHJpbmc+SW5wdXQ8L3N0cmluZz4KCQkJPGtleT4xPC9rZXk+CgkJCTxzdHJpbmc+U2lkZWNoYWluPC9zdHJp
        bmc+CgkJPC9kaWN0PgoJCTxrZXk+Mjwva2V5PgoJCTxkaWN0PgoJCQk8a2V5PjA8L2tleT4KCQkJPHN0cmluZz5PdXRwdXQ8L3N0cmluZz4KCQk8L2RpY3Q+Cgk8L2Rp
        Y3Q+Cgk8a2V5Pmp1Y2VQbHVnaW5TdGF0ZTwva2V5PgoJPGRhdGE+CglWa015SWVZREFBQThQM2h0YkNCMlpYSnphVzl1UFNJeExqQWlJR1Z1WTI5a2FXNW5QU0pWVkVZ
        dE9DSS9QaUE4YzNWeQoJWjJWbWVDQnpkSEpsWVcxcGJtZFdaWEp6YVc5dVBTSXlJaUJtZUhCZk1EMGlNQzQxSWlCemRYSm5aWFpoYkhSNWNHVmYKCU1EMGlNaUlnYzNW
        eVoyVjJZV3hmTUQwaU1DNHdJaUJtZUhCZmNHRnlZVzFmWm1WaGRIVnlaWE5mTUQwaU1DSWdabmh3CglYekU5SWpBdU5TSWdjM1Z5WjJWMllXeDBlWEJsWHpFOUlqSWlJ
        SE4xY21kbGRtRnNYekU5SWpBdU5TSWdabmh3WDNCaAoJY21GdFgyWmxZWFIxY21Welh6RTlJakFpSUdaNGNGOHlQU0l3TGpVaUlITjFjbWRsZG1Gc2RIbHdaVjh5UFNJ
        eUlpQnoKCWRYSm5aWFpoYkY4eVBTSXdMalVpSUdaNGNGOXdZWEpoYlY5bVpXRjBkWEpsYzE4eVBTSXdJaUJtZUhCZk16MGlNUzR3CglJaUJ6ZFhKblpYWmhiSFI1Y0dW
        Zk16MGlNaUlnYzNWeVoyVjJZV3hmTXowaU1TNHdJaUJtZUhCZmNHRnlZVzFmWm1WaAoJZEhWeVpYTmZNejBpTUNJZ1puaHdYelE5SWpBdU1DSWdjM1Z5WjJWMllXeDBl
        WEJsWHpROUlqSWlJSE4xY21kbGRtRnMKCVh6UTlJakF1TUNJZ1puaHdYM0JoY21GdFgyWmxZWFIxY21Welh6UTlJakFpSUdaNGNGODFQU0l4TGpBaUlITjFjbWRsCglk
        bUZzZEhsd1pWODFQU0l5SWlCemRYSm5aWFpoYkY4MVBTSTNNQzR3SWlCbWVIQmZjR0Z5WVcxZlptVmhkSFZ5WlhOZgoJTlQwaU1DSWdabmh3WHpZOUlqQXVOVEF5TmpB
        ME1UZzJOVE0wT0RneE5pSWdjM1Z5WjJWMllXeDBlWEJsWHpZOUlqSWkKCUlITjFjbWRsZG1Gc1h6WTlJakF1TlNJZ1puaHdYM0JoY21GdFgyWmxZWFIxY21Welh6WTlJ
        akFpSUdaNGNGODNQU0l3CglMakF3TkRrNU9UazVPVGc0T0RJME1USTVNU0lnYzNWeVoyVjJZV3gwZVhCbFh6YzlJakFpSUhOMWNtZGxkbUZzWHpjOQoJSWpBaUlHWjRj
        Rjl3WVhKaGJWOW1aV0YwZFhKbGMxODNQU0l3SWlCbWVIQmZPRDBpTUM0ek1USTFJaUJ6ZFhKblpYWmgKCWJIUjVjR1ZmT0QwaU1pSWdjM1Z5WjJWMllXeGZPRDBpTFRJ
        dU1DSWdabmh3WDNCaGNtRnRYMlpsWVhSMWNtVnpYemc5CglJakFpSUdaNGNGODVQU0l3TGpBaUlITjFjbWRsZG1Gc2RIbHdaVjg1UFNJeUlpQnpkWEpuWlhaaGJGODVQ
        U0l3TGpBaQoJSUdaNGNGOXdZWEpoYlY5bVpXRjBkWEpsYzE4NVBTSXdJaUJtZUhCZk1UQTlJakF1TlNJZ2MzVnlaMlYyWVd4MGVYQmwKCVh6RXdQU0l5SWlCemRYSm5a
        WFpoYkY4eE1EMGlNQzR3SWlCbWVIQmZjR0Z5WVcxZlptVmhkSFZ5WlhOZk1UQTlJakFpCglJR1o0Y0Y4eE1UMGlNQzQxSWlCemRYSm5aWFpoYkhSNWNHVmZNVEU5SWpJ
        aUlITjFjbWRsZG1Gc1h6RXhQU0l3TGpBaQoJSUdaNGNGOXdZWEpoYlY5bVpXRjBkWEpsYzE4eE1UMGlNQ0lnWm5oMFBTSXhOU0l2UGdBPQoJPC9kYXRhPgoJPGtleT5t
        YW51ZmFjdHVyZXI8L2tleT4KCTxpbnRlZ2VyPjE0NTAwMDkxNTM8L2ludGVnZXI+Cgk8a2V5Pm5hbWU8L2tleT4KCTxzdHJpbmc+RGVmYXVsdDwvc3RyaW5nPgoJPGtl
        eT5zdWJ0eXBlPC9rZXk+Cgk8aW50ZWdlcj4xMzk3MTE5MDYwPC9pbnRlZ2VyPgoJPGtleT50eXBlPC9rZXk+Cgk8aW50ZWdlcj4xNjM1MDgzODk2PC9pbnRlZ2VyPgoJ
        PGtleT52ZXJzaW9uPC9rZXk+Cgk8aW50ZWdlcj4wPC9pbnRlZ2VyPgo8L2RpY3Q+CjwvcGxpc3Q+CgEAAAAAAAAAAAA=
      >
      FLOATPOS 64 251 600 543
      FXID {D34B71ED-ADF0-484B-805D-E44A514086FA}
      WAK 0 0
    >
  >
  <TRACK {14243C7B-D387-124E-9C74-CC85789D3829}
    NAME "Pianoteq 8"
    PEAKCOL 16576
    BEAT -1
    AUTOMODE 0
    PANLAWFLAGS 3
    VOLPAN 0.5942751695773 0.68 -1 -1 1
    MUTESOLO 0 0 0
    IPHASE 0
    PLAYOFFS 0 1
    ISBUS 0 0
    BUSCOMP 0 0 0 0 0
    SHOWINMIX 1 0.6667 0.5 1 0.5 0 0 0
    FIXEDLANES 9 0 0 0 0
    SEL 0
    REC 1 5088 1 0 0 0 0 0
    VU 2
    TRACKHEIGHT 0 0 0 0 0 0 0
    INQ 0 0 0 0.5 100 0 0 100
    NCHAN 2
    FX 1
    TRACKID {14243C7B-D387-124E-9C74-CC85789D3829}
    PERF 0
    AUXRECV 0 0 1 0 0 0 0 0 0 -1:U 0 -1 ''
    MIDIOUT -1
    MAINSEND 1 0
    <FXCHAIN
      WNDRECT 32 136 807 690
      SHOW 0
      LASTSEL 0
      DOCKED 0
      BYPASS 0 0 0
      <VST "VST3i: Pianoteq 8 (Modartt) (1->5ch)" "Pianoteq 8.vst3" 0 "" 1031062328{565354507438717069616E6F74657120} ""
        OMN0Pe5e7f4CAAAAAQAAAAAAAAACAAAAAAAAAAUAAAABAAAAAAAAAAIAAAAAAAAABAAAAAAAAAAIAAAAAAAAABAAAAAAAAAAXy4AAAEAAAD//xAA
        Ty4AAAEAAABWc3RXAAAACAAAAAEAAAAAQ2NuSwAALjdGQkNoAAAAAlB0OHEACAQBAAAAAAAAAAAAAAAAAAAAAAAAAAAAAAAAAAAAAAAAAAAAAAAAAAAAAAAAAAAAAAAA
        AAAAAAAAAAAAAAAAAAAAAAAAAAAAAAAAAAAAAAAAAAAAAAAAAAAAAAAAAAAAAAAAAAAAAAAAAAAAAAAAAAAAAAAAAAAAAAAAAAAAAAAAAAAAAAAAAAAtn6CYE/4CAAAA
        SDgSAFMtAAABAAAAEThWOEctAABQclZLKQAAAlhGVFA3LQAACgAAADIwMjUvMDIvMjMXAAAAUGlhbm90ZXEgOC40LjEvMjAyNTAyMDSxhlAQgLFdBsUYrtQ9lXn4ZGxs
        YfYsAAB0ZHRNnQMAAAkAAABLMiBEcmVhbXkAAAAABwAAAE1vZGFydHRRAAAASW5jcmVhc2luZyB0aGUgc3RlcmVvIHdpZHRoIGFuZCB0aGUgcmV2ZXJiIGR1cmF0aW9u
        IHR1cm5zIEsyIGludG8gYSBkcmVhbXkgcGlhbm8uAAAAAEQBAAAJAAAASzIgRHJlYW15AAAAAA8DAABHUlVVAAAABgAAAAEDwE1UcmsAAAL5AP8CDyBCbGF6IEp1cmpl
        dmNpYwCANQAwLgCEAkEAFZBCOD00IYYdsEB/gSCQPh8lOh+JboA6AIFPNACGF7BAACaAQgAAkENSBoA+ABOQKTKDDrBAf4F6gCkAOZA/TAWAQwASkDpCGTUugVeANQBs
        OgCDNLBAAB2APwAmkEVEHS40gnKwQH+BaoBFACeQQUoZPjYdgC4AE5A5IoMhgDkALLBAMApAAC+AQQA0kEZGDy0uB4A+AII/sEB/gl6ALQATkEJADj06BoBGAAuQNyqD
        QYA9AIIksEAAFYA3AAlCABSQR0YxLD6CbLBAQQhAf4MykDs6A0Q8CkA8Dzg6QYAsAGc4AFJHAExAADU7ABlEAIUfsEAAF5BITCQrNoNasEB/g3OQQTIERSwMPCEDPh8Y
        NSGFX4ArAINvPAAISAAYPgBcQQCDZ0UAApBJNoFJgDUACUkAArBAAByQSkY0KiyDK7BAf4NggCoAHpA5GYNRQCGDK4BKADuQRTaEekw6hTeAOQCEZkUAgShMAFZAAIIX
        kEw2ggSATAAmkE1AYbBAAIMSkClAarBAf4FUgCkAggOQNSyDCYA1AIErkDoyhSc/NC+AOgCDUZBCNIReRjgmgE0AhXiQTTSHeYA/AINETQCBIkYAbkIAhQiQS0wKsEAA
        A5ApOoNJsEB/hwWAKQCBHZA5MIVhPzaGa0IqhzZHOhOASwCNRJBLIosugEcAgWJCAAA/AGVLAIUlOQBWkEkugXmwQAALgEkAE5BKQIkgsEB/gXKQLh6FFzUghAOANQA6
        kDkdhDo+KoU3gEoAQpBFNo0qgD4AhRmQSDIUgEUAgQaQQB+aLIBIAANAAIVPkEYegWc+FY8LgEYAJi4AKj4ANjkAlnmwQACEVoApQAAqQAArQAAsQAAtQAAuQAA0QAA1
        QAA3QAA4QAA5QAA6QAA7QAA8QAA9QAA+QAA/QABAQABBQABCQABDQABEQABFQABGQABHQABIQABJQABKQABLQABMQABNQAD/LwBQcnNVSSkAAEkAAAACAAAAazIAAAAA
        CAAAAEdyYW5kIEsyAAAAAAAAAABwcm9tVAAAAAEAAAABAAAAAQAAAAIAAABrMgAAAAAIAAAAR3JhbmQgSzIAAIA/BgAAAAAAAAAAAAAAAAAAAAAAAAAAAAAAVEb/////
        AAAAAAAAAAAAAAAAAAAAAHJ5YWwQAAAAAgAAAAAAAAAAAAAA/////29sb3MRAAAAAQAAAAEAAABGAAAAAAAAAAABAAAAAQAAAAAAAAAAAAAAAQAAAAAAAAAAAAAAAQAA
        AAAAAAAAAAAAAQAAAAAAAAAAAAAAAQAAAAsAAABCcm9jZWxpYW5kZQAAAAABAAAAAAAAAAAAAAABAAAAAAAAAAAAAAABAAAAAAAAAAAAAAABAAAAAAAAAAAAAADs//+/
        A4AAAGBpAAAAAAAQQQAAgD9pAAAA7KPgP2gUXc0/DDXGP6hDNUC8HeE/jCOlP7JMA0DYum8/AL5ZPngjYj8w/r4+4AYKPuwM+j98Z+U/MC/av7KCGEA0O/E/vJfOPx6K
        IED4GmVAbNkuQMxViD/i3QlAoOrpvuhmET/kqPU/cMKVvtya5D8OQRJATPHrP9reFEAkp1VA9GlEQPSknD8QC+g+8K2MPkiTHT/0/oy//Bymv1gKcj8UE4g/vCOgP8il
        N0AkLrk/WCkmP9wMwD9AY9W9yMclv+xjxT8AJPw8qPxJv3DjpL+wtLk+SKs4v/qoCUDE3K0/8HH4vjy1i78IoBo/fMObP+Q4/j8g7Gc+6MFOv7DXxr7QRNS+KMtyv2xe
        iL84MUk/7Mj4P8D60b2uphZAVGHKv3iDCL94tC0/sv4GQOCHC76Ewu0/2Ag6P8gZFD/Q3EZA0LIoQIDkX70AQTq+gJd/PiCSF8AQM+y+SKciQEDkpD3wh44+vEzTPwDX
        iDx8Fuw/aDtlQKT8jb9eFUpA7Ke2PxgKIz+aFQBAZAvXP2JGKUBgtC4+APHTPAC5JL5EhMk/KPNEPwMAAAABAAAAAAAAAAAAAAADAAAAAAAAAAAAAAAAAAAAAwAAAAAA
        AAAAAAAAAAAAAAMAAAABAAAAAQAAAAEAAAAAAIBAAAAAAAEAAAAAAAAA5X8iPgOAAABACgAAAAAAqEEAAOhBAAAYQgAAIEIAACRCAAAsQgAAYEIAAJJCAACUQgAAtkIK
        AAAAYaZJPwcD0k4/EMxpP3L8XD9fQ1Q/OQ5gPzEIgD+rPrM/qz6zP4EBAAAAAAAAAAAAAAAAAKDAAACgQAAAtkIAAAAAA4AAAFAAAHBCAQAAAAAAAAAAAAAAAACAwAAA
        wMABAAAAAAAAAAAAAAAAAKDAAACgQAAAAAADgAAAYAIAAAAAAKhBAACuQgIAAAAAAAAAgQOAAABgAgAAAAAAqEEAAK5CAgAAAAAAgD+BgAAAAAAAAADSBAAAAAAAAAAA
        AAAAAACAAAAAPwAAgD8DgAAAUAAAcEIBAAAAAAAAAAOAAABgaQAAAAAAEEEAAIA/aQAAAAAAAMACAACAvwAAQMAAAEDABAAAQEAAAABAAADAQAAAgD8AAIA/BgAAwEAA
        AEBAAACAQAAAAMAAAEDAAACAQAAAgEAIAACgQAAAwEAAAIBAAAAAgAAAgD8AAADAAACAPwAAQMAAAEDAAwAAQEAAAIBAAACgQAAAoEAGAABAwAAAoEAAAACAAAAAQAAA
        QMAAAKBAAACgQBUAAEBAAACAQAAAAEAAAADAAACAPwAAgEAAAABAAACgQAAAQEAAAEDAAAAAgAAAgEAAAEDAAAAAgAAAgD8AAIC/AABAwAAAoEAAAEDAAAAAwAAAAIAA
        AACABQAAoEAAAEDAAAAAwAAAgL8AAEDAAABAwAMAAKBAAAAAwAAAQMAAAEDADwAAgEAAAIA/AABAwAAAgEAAAAAAAACAQAAAgL8AAABAAACgQAAAQMAAAIC/AAAAwAAA
        wEAAAKBAAABAwAAAQMADAAAAwAAAgD8AAEDAAABAwAEAAIC/AACAvwQAAMBAAACAQAAAQMAAAAAAAAAAAAcAAIA/AABAwAAAAMAAAMBAAABAwAAAwEAAAEDAAABAwIEA
        AABAA4AAAGACAAAAAACoQQAArkICAAAAAACAP4ECAAAAAQAAAFUAAABFcXVhbCB0ZW1wZXJhbWVudApUaGUgc3RhbmRhcmQgdHVuaW5nLCB3aGVyZSB0aGUgb2N0YXZl
        IGlzIGRpdmlkZWQgaW4gMTIgZXF1YWwgc3RlcHMuDAAAAAAAyEIAAEhDAACWQwAAyEMAAPpDAAAWRAAAL0QAAEhEAABhRAAAekQAgIlEAACWRAEAAAAAAAAABAAAAAAA
        3EM8AAAARQAAAEYAAAAAfwAAAAAAAAAHAAAARGVmYXVsdAAAAAAAAAAAAgAAAAOAAABgaQAAAAAAEEEAAIA/aQAAAAAASMIOAAAswgAAEMIAAODBAADIwQAAqMEAAJDB
        AABgwQAAQMEAACDBAAAQwQAAAMEAAODAAADAwAAAoMAAAKDAAQAAgMAAAIDAgQAAQMCCAAAAwIMAAIC/hwAAAADGAAAAAAAAAAAAAIA/AQAAAAEAAAABAAAAGAAAAAOA
        AABIAQAAAAAAgD8AAAAAmpmZPwOAAABgAgAAAAAAqEEAAK5CAgAAAAAAgD+BA4AAAGACAAAAAACoQQAArkICAAAAAACAP4EDgAAAUAAAekQBAAAAAAAAAAOAAABQAAB6
        RAEAAAAAAIA/AAAAAAOAAABQAABwQgEAAAAAAAAAAACAPwOAAABQAABwQgEAAAAAAAAAAQAAAAAAAAAAAAAAzczMvc3MzD0BAAAAAAAAAAAAAAAAAAC/AAAAPwAAgD8D
        gAAAQAMAAAAAAKhBAABwQgAA2EIDAAAAAACAP4IAAAAAA4AAAGACAAAAAACoQQAArkICAAAAAAAAAIEAAIA/A4AAAGACAAAAAACoQQAArkICAAAAAACAP4EAAPBBA4AA
        AEAHAAAAAACoQQAAkEIAAKhCAAC0QgAAwEIAAMhCAADYQgcAAAAAAAAAgQAAQEAEAACgQAAA4EAAAABBAAAQQQAAgD8DgAAAQAMAAAAAAKhBAABwQgAA2EIDAAAAAACA
        P4IDgAAASAEAAAAAAAAAAQAAAAOAAABgAgAAAAAAAAAAAIA/AgAAAAAAAAABAACAPwOAAABgAgAAAAAAAAAAAIA/AgAAAAAAgD+BA4AAAEAEAAAAAAAAAAyTST72fj8/
        AACAPwQAAAAAAAAAgQAAgD+BA4AAAGACAAAAAAAAAAAAgD8CAAAAAAAAAIEAAAAAzcxMPgAAAAAAAAAAAAAAAAAAAD8BAAAAPQoHQAOAAABgAgAAAAAAqEEAAK5CAgAA
        AAAAgD+BAACAvwAAAD8DgAAASAEAAAAAAIA/AQAAAAEAAAABAAAACwAAAEJyb2NlbGlhbmRlBgAAAGZvcmVzdAAAgEDULcVBAACAPwAAgEAAAAAA/vboOwAAcMHNzEy+
        AAAAADMzU0AAAKpDAACAPwAAgD8BAAAABgAAAJqZmT8AAIA/A4AAAGBpAAAAAAAQQQAAgD9pAAAAAACAP5P1uYI/VN6OlD/1uaI//YecP1sllD9ZhpQ/DcOXP0GajT9R
        TpA/LueaPwhVkj9fmKQ/6xyXPwNbnT8tQ6A/c2ilP64hlD92M5I/ofahPzpYkz/6uJI/ZTaYP85wlz8DeJs/h6KgP4/Zpj9WZas/nzKaP64hlD8gKaI/DkCRP+FAoD8y
        A6E/ZY2iPzMzoz8Gu60/bD6mP3gorD9pb6Q/L6ibP+FFoz9LKZM/U8ygP64hlD/qH5g/ofahP7VPqz/uTpA//vGaPzXSlj/5X48/J72fP/g2mT+Vn6A/Rl+hP9P2pz9o
        P54/bqOVP4hGlz94KKw/Mo+UP3HJpT+4QL4/CoCxP0G8pj9hMrU/oMO0Pzdxpj8DW6E/XsmqP1K4nj8Nc44/t9GcP7yukz+u06g/K/uWP0Q0rj9uaZ0/9bmeP6bQoT9a
        2I8/LQmkP8B4nj8sSKc/TiikPwOAAABgaQAAAAAAEEEAAIA/aQAAAAAAgD/oAAAAAAOAAABgXQAAAAAAqEEAAIA/XQAAAAAAAACHAe3YPFS/0b69+lP0vDy7wT0MC0m8
        Q3TIPPM5F70Cxsm9hLSLvTQNj7245aM8ELo6PTGQrD1W8Bu8fD5vvfpQ2Lwz0Ku8Tn7LPEHfLL0e/S88xHGFPRGgsL1lles7qW/EPVaDsL0ue5g9QORoPbGOnr1E1r+8
        xC6QPWrci728QMm9/sALvQkVnLyNLso98R1LvdvY8DvH5bm9DeCdvU5TlbyCot48c06HvbiJBD1xbY08aQIbujTIk72+toM9TZYkPHfHyL1rpWa97z0WvCd+kb34gVW9
        qrWVvPo2w70wwQQ9qbgWPQlkoL1BXbk9FNszPew/kT1A2G499derPc+1tD0Brqq9C4RYPbPsmb2rVLW844GyPbMOory646O91C2GvRIlK73lfke9KO6IPcwknz3RLQs8
        8Yf6O6apxD3xPtg8EmyMPcGtq72Y3Eg9B+0VvQA9qDwBAAAAAAAAAAEAAAAAAAA/AAAAQAMAAAAAAIA/AACAPwAAgD8DgAAAYGkAAAAAABBBAACAP2kAAAAAAIA/6AOA
        AABAAwAAAAAAqEEAAHBCAADYQgMAAAAAAIA/ggOAAABAAwAAAAAAqEEAAHBCAADYQgMAAAAAAIA/ggAAgD8AAIA/BwAAAAAAgD+amZk+zcxMPwAAwD+amZk+CAAAAAAA
        AAAAAAAAAAAAAAAAAAAAAAAAAAAAAAAAAAAAAAAAA4AAAGBpAAAAAAAQQQAAgD9pAAAA30t2P2ibmno/3zh8P3SRWT/gMHY/FuuBP3sHbj9zUYc/zROTP9UliD/wYpA/
        1GaUPxu7cD9KPnU/HWe3PzIeZT8K53I/JNp6PymLYj8ad0g/1z9dPzkrhj/+9mw/CTOgP+2Ejj+DOnQ/5rCdPzOGeD+4DGk/04xzP4bRZD8jREo/oDhPPzaHfj9wIIo/
        gwmMP2a8hT+E3KE/wW+kP7NLfD/SV3c/xodwP+ZjRj9jPGg/R/p8PxTsYz+QOYg/UxyQP9yXXj9+noM/dr2PPxhKlz/dmHo/eS2OP2ScTD+Vg2A/wgSLP2JNlT8hCnY/
        KaNlP4mBUj92F4E/ZqSRP5sTjD+HJY0/2ciWP0uImT+oQ3k/lS5aP14Vij+sKFA/9r2jP2yahT+KhXw/dDFWP/q0ij+5ikI/tUZyP7Vxgz9l8D0/UAFOP4c8kD9S/Zc/
        aC6WPyjUwz9Bwq8/4QF1PykqoD+ZL5o/OKiBP94fmj/I+HU/rBZFP5SCpT8qOUY/v8RsP9LJfT9xRVQ/ApNXP+vLPD9JBXs/Gz1/P4tkgj+yj1U/70xqPwOAAABgaQAA
        AAAAEEEAAIA/aQAAAIlAST+YoEBJPzX4UEk/uM5KP7BJTj9nHlM/aVpWP/1rVj/1p1k/PXlePze1YT/JxmE/yAJlPwvUaT8GEG0/fiFtP85JcD8fcnM/lYNzP47JeD/S
        pH8/ZnWCPy6Dgz8wJoY/dJiJP8GnjD9kRo8/INiTP3SQlz9lvZk/pX+dP/0eoj/coqc/PY+vP8V4tz/Kubw/oGHAP9i9xT8feMk/HPPNP2yj0T//INQ/UgnVP5Px1T9S
        Zdg/lU3ZP9k12j+Hqdw/9YfdP7yb3T8qet4/ze3gPyzM4T8P1uE/HdbhPx3W4T+ZA4AAAGBpAAAAAAAQQQAAgD9pAAAAAACAP5tKR4E/Kfz0gD9GPII/9+mBP0Exgz/x
        3oI/PSaEP+3Tgz85G4U/6siEPzYQhj+AV4c/MAWHP3xMiD8t+oc/yciIPyfviD+5uYk/I+SJP24riz+bm4s/PDyMP319jT9waI4/X1+PP3ewkD9IoZI/tbSUP//5lz+P
        HJo/utidPwAAoD9aQKI/bYWkP/b1pT8kA6c/NzenPycnpz9IRKc/JyenPzc3pz8nJ6c/JyenP4K9U6c/Aevgpj/r4KY/nQOAAABgaQAAAAAAEEEAAIA/aQAAALhLgj9o
        wbGBPz6SgD8JLX4/Bxp8P6s0fD+DbH0/1Vp+P3hRfz++PYA/5ayAP1bcgD8s7IA/7eOAP1+GgD/RB4A/ddB/PzkCgD+4FoA/nWCAP83kgD/pWoE/1EGBP1aMgD9MOYA/
        I8yAP9dsgT/5voE/6eGBPzGygT/KfoE/8UaBPynVgD+uqYA/9Q2BP7p6gT+AgoE/BUaBP+7bgD/yRYA/sYp/P58Nfz/z6H4/0VZ+P6mafT8AsH0/EFZ+P90Yfz95E4A/
        oaGAP/HjgD/oCYE/piWBP2PXgD/7YYA/6Z6AP6VMgT+tHoE/IPh/PwgOfj+9g30/ByN9PzghfD/FhXs/CE98P2v7fT+cun8/WYiAP2uGgD95B4A/EI1/P2TDfz/JEIA/
        +PZ/P5vifj/x330/SQZ+P0IegD8dP48/LdeAP1PygD9q3YA/scOAP3pLgD9/X4Q/lMqFP4Dufj/dvn4/71p+P+3Gfj8cvn8/XhaAP2Xwfz8iUYA/BiGBPxtpgT9nA4E/
        SrmAP7DYgD9f04A/tHuAPywIgD/RCn8/S5J+P/9Cfz8BAAAAWwAAAAAAEEEDgAAAYAwBAAAAAAAAAACAPwwBAAAAACBBBgAAoEAAACBAmpmZP5qZGT+amZk+AAAAAAAA
        AAD/AAAAAP8AAAAAhAAAIEEDgAAAYAIBAAAAAAAAAACAPwIBAAAAACBBBgAAoEAAACBAmpmZP5qZGT+amZk+AAAAAAAAAAD/AAAAAPoAADBBA4AAAGD0AAAAAAAAAAAA
        gD/0AAAAAAAgQQYAAKBAAAAgQJqZmT+amRk/mpmZPgAAAAAAAAAA/wAAAADsAABAQQOAAABg7gAAAAAAAAAAAIA/7gAAAAAAIEEGAACgQAAAIECamZk/mpkZP5qZmT4A
        AAAAAAAAAP8AAAAA5gAAUEEDgAAAYOkAAAAAAAAAAACAP+kAAAAAACBBBgAAoEAAACBAmpmZP5qZGT+amZk+AAAAAAAAAAD/AAAAAOEAAGBBA4AAAGDWAAAAAAAAAAAA
        gD/WAAAAAAAgQQYAAKBAAAAgQJqZmT+amRk/mpmZPgAAAAAAAAAA/wAAAADOAABwQQOAAABg0QAAAAAAAAAAAIA/0QAAAAAAIEEGAACgQAAAIECamZk/mpkZP5qZmT4A
        AAAAAAAAAP8AAAAAyQAAgEEDgAAAYM4AAAAAAAAAAACAP84AAAAAACBBBgAAoEAAACBAmpmZP5qZGT+amZk+AAAAAAAAAAD/AAAAAMYAAIhBA4AAAGDKAAAAAAAAAAAA
        gD/KAAAAAAAgQQYAAKBAAAAgQJqZmT+amRk/mpmZPgAAAAAAAAAA/wAAAADCAACQQQOAAABgyAAAAAAAAAAAAIA/yAAAAAAAIEEGAACgQAAAIECamZk/mpkZP5qZmT4A
        AAAAAAAAAP8AAAAAwAAAmEEDgAAAYMYAAAAAAAAAAACAP8YAAAAAACBBBgAAoEAAACBAmpmZP5qZGT+amZk+AAAAAAAAAAD/AAAAAL4AAKBBA4AAAGDCAAAAAAAAAAAA
        gD/CAAAAAAAgQQYAAKBAAAAgQJqZmT+amRk/mpmZPgAAAAAAAAAA/wAAAAC6AACoQQOAAABg4AAAAAAAAAAAAIA/4AAAAAAAIEEGAACgQAAAIECamZk/mpkZP5qZmT4A
        AAAAAAAAAP8AAAAA2AAAsEEDgAAAYNIAAAAAAAAAAACAP9IAAAAAACBBBgAAoEAAACBAmpmZP5qZGT+amZk+AAAAAAAAAAD/AAAAAMoAALhBA4AAAGDKAAAAAAAAAAAA
        gD/KAAAAAAAgQQYAAKBAAAAgQGZmBsCamRk/mpmZPgAAAAAAAAAA/wAAAADCAADAQQOAAABg7gAAAAAAAAAAAIA/7gAAAAAAIEEGAACgQAAAIECamZk/mpkZP5qZmT4A
        AAAAAAAAAP8AAAAA5gAAyEEDgAAAYNkAAAAAAAAAAACAP9kAAADMzBpBBhERnUAAAAAAmpmZP97dHT8iIqI+AAAAAAAAAAD/AAAAANEAANBBA4AAAGDIAAAAAAAAAAAA
        gD/IAAAAmZkVQQYiIppAmpkZQJqZmT8iIiI/q6qqPgAAAAAAAAAA/wAAAADAAADYQQOAAABgvAAAAAAAAAAAAIA/vAAAAGZmEEEGMzOXQMzMvL+amZk/ZmYmPzQzsz4A
        AAAAAAAAAP8AAAAAtAAA4EEDgAAAYNMAAAAAAAAAAACAP9MAAAAyMwtBBkRElEAzMzPAmpmZP6uqKj+8u7s+AAAAAAAAAAD/AAAAAMsAAOhBA4AAAGDdAAAAAAAAAAAA
        gD/dAAAA//8FQQYAAIBAMzMTQJqZmT/w7i4/RETEPgAAAAAAAAAA/wAAAADVAADwQQOAAABg0QAAAAAAAAAAAIA/0QAAAMzMAEEGZmaGQDMzU0CamZk/NDMzP83MzD4A
        AAAAAAAAAP8AAAAAyQAA+EEDgAAAYMcAAAAAAAAAAACAP8cAAAAyM/dABnh3i0D5ig9AmpmZP3h3Nz9WVdU+AAAAAAAAAAD/AAAAAL8AAABCA4AAAGC/AAAAAAAAAAAA
        gD+/AAAAzMzsQAaJiIhA27YNQJqZmT+8uzs/3t3dPgAAAAAAAAAA/wAAAAC3AAAEQgOAAABgygAAAAAAAAAAAIA/ygAAAGZm4kAGmpmFQL7iC0CamZk/AABAP2Zm5j4A
        AAAAAAAAAP8AAAAAwgAACEIDgAAAYNIAAAAAAAAAAACAP9IAAAAAANhABquqgkChDgpAmpmZP0VERD/v7u4+AAAAAAAAAAD/AAAAAMoAAAxCA4AAAGDDAAAAAAAAAAAA
        gD/DAAAAmZnNQAZ4d39AgzoIQJqZmT+JiEg/eHf3PgAAAAAAAAAA/wAAAAC7AAAQQgOAAABgxAAAAAAAAAAAAIA/xAAAADMzw0AGmpl5QGZmBkCamZk/zcxMPwAAAD8A
        AAAAAAAAAP8AAAAAvAAAFEIDgAAAYMQAAAAAAAAAAACAP8QAAAAAANBABmZmpkBmZvY/zcyMP7y7Oz+rquo+AAAAAAAAAAD/AAAAALwAABhCA4AAAGDDAAAAAAAAAAAA
        gD/DAAAAqqqiQAYAAFBA///fPwAAgD+rqio/VVXVPgAAAAAAAAAA/wAAAAC7AAAcQgOAAABgqwAAAAAAAAAAAIA/qwAAAGZmkkAGNDM7QJmZyT9nZmY/mpkZPwAAwD4A
        AAAAAAAAAP8AAAAAowAAIEIDgAAAYKsAAAAAAAAAAACAP6sAAABmZsZABgAAEEEyM7M/zcxMP4iICD+qqqo+AAAAAAAAAAD/AAAAAKMAACRCA4AAAGCoAAAAAAAAAAAA
        gD+oAAAAvbtjQAaamRFAzcycPzQzMz/w7u4+VlWVPgAAAAAAAAAA/wAAAACgAAAoQgOAAABgkwAAAAAAAAAAAIA/kwAAADMzQ0AGmpn5P2Zmhj+amRk/zczMPgAAgD4A
        AAAAAAAAAP8AAAAAiwAALEIDgAAAYJMAAAAAAAAAAACAP5MAAACrqiJABgEA0D8AAGA/AQAAP6uqqj5WVVU+AAAAAAAAAAD/AAAAAIsAADBCA4AAAGCTAAAAAAAAAAAA
        gD+TAAAAAABgQAYzMxNAMjMzP83MzD6IiIg+qqoqPgAAAAAAAAAA/wAAAACLAAA0QgOAAABggAAAAAAAAAAAAIA/gAAAADMzwz8Gmpl5P2ZmBj+amZk+zcxMPgAAAD4A
        AAAAAAAAAPgAADhCA4AAAGCAAAAAAAAAAAAAgD+AAAAAIyKCPwZoZiY/NDOzPs/MTD6KiAg+rKqqPQAAAAAAAAAA+AAAPEIDgAAAYIAAAAAAAAAAAACAP4AAAAAgIgI/
        BmRmpj4wMzM+yszMPYeIiD2oqio9AAAAAAAAAAD4AABAQgOAAABgbAAAAAAAAAAAAIA/bAAAAAAAAADrAABEQgOAAABgbAAAAAAAAAAAAIA/bAAAAAAAAADrAABIQgOA
        AABgbAAAAAAAAAAAAIA/bAAAAAAAAADrAABMQgOAAABgZgAAAAAAAAAAAIA/ZgAAAAAAAADlAABQQgOAAABgVwAAAAAAAAAAAIA/VwAAAAAAAADWAABUQgOAAABgVwAA
        AAAAAAAAAIA/VwAAAAAAAADWAABYQgOAAABgVgAAAAAAAAAAAIA/VgAAAAAAAADVAABcQgOAAABgSQAAAAAAAAAAAIA/SQAAAAAAAADIAABgQgOAAABgSQAAAAAAAAAA
        AIA/SQAAAAAAAADIAABkQgOAAABgSAAAAAAAAAAAAIA/SAAAAAAAAADHAABoQgOAAABgRAAAAAAAAAAAAIA/RAAAAAAAAADDAABsQgOAAABgQAAAAAAAAAAAAIA/QAAA
        AAAAAAC/AABwQgOAAABgOQAAAAAAAAAAAIA/OQAAAAAAAAC4AAB0QgOAAABgOQAAAAAAAAAAAIA/OQAAAAAAAAC4AAB4QgOAAABgNgAAAAAAAAAAAIA/NgAAAAAAAAC1
        AAB8QgOAAABgMQAAAAAAAAAAAIA/MQAAAAAAAACwAACAQgOAAABgMAAAAAAAAAAAAIA/MAAAAAAAAACvAACCQgOAAABgLQAAAAAAAAAAAIA/LQAAAAAAAACsAACEQgOA
        AABgKwAAAAAAAAAAAIA/KwAAAAAAAACqAACGQgOAAABgJwAAAAAAAAAAAIA/JwAAAAAAAACmAACIQgOAAABgJgAAAAAAAAAAAIA/JgAAAAAAAAClAACKQgOAAABgJAAA
        AAAAAAAAAIA/JAAAAAAAAACjAACMQgOAAABgIgAAAAAAAAAAAIA/IgAAAAAAAAChAACOQgOAAABgIAAAAAAAAAAAAIA/IAAAAAAAAACfAACQQgOAAABgHQAAAAAAAAAA
        AIA/HQAAAAAAAACcAACSQgOAAABgHAAAAAAAAAAAAIA/HAAAAAAAAACbAACUQgOAAABgGwAAAAAAAAAAAIA/GwAAAAAAAACaAACWQgOAAABgGQAAAAAAAAAAAIA/GQAA
        AAAAAACYAACYQgOAAABgGAAAAAAAAAAAAIA/GAAAAAAAAACXAACaQgOAAABgFgAAAAAAAAAAAIA/FgAAAAAAAACVAACcQgOAAABgFQAAAAAAAAAAAIA/FQAAAAAAAACU
        AACeQgOAAABgFAAAAAAAAAAAAIA/FAAAAAAAAACTAACgQgOAAABgEwAAAAAAAAAAAIA/EwAAAAAAAACSAACiQgOAAABgEgAAAAAAAAAAAIA/EgAAAAAAAACBAAAAQAIA
        AMBAAAAAAAAAAACMAACkQgOAAABgEQAAAAAAAAAAAIA/EQAAAGZmZsACMzOzvwAAAAAAAAAAjQAApkIDgAAAYBAAAAAAAAAAAACAPxAAAAAAAAAAjwAAqEIDgAAAYA8A
        AAAAAAAAAACAPw8AAAAAAAAAjgAAqkIDgAAAYA4AAAAAAAAAAACAPw4AAAAAAAAAjQAArEIDgAAAYA0AAAAAAAAAAACAPw0AAAAAAAAAjAAArkIDgAAAYAwAAAAAAAAA
        AACAPwwAAAAAAJDAAgAAAMAAAAAAAAAAAIgAALBCA4AAAGAMAAAAAAAAAAAAgD8MAAAAAAAAAIsAALJCA4AAAGALAAAAAAAAAAAAgD8LAAAAAAAAAIoAALRCA4AAAGAK
        AAAAAAAAAAAAgD8KAAAAzczMvQEAAAAAAAAAAIcAALZCA4AAAGAKAAAAAAAAAAAAgD8KAAAAAADwwAEAAAAAAAAAAAJmZua/AAAAAAAAAACEAAC4QgOAAABgCQAAAAAA
        AAAAAIA/CQAAAAAA4MABAAAAAAAAAACGAAC6QgOAAABgCQAAAAAAAAAAAIA/CQAAADMzK8ECMzMzwAAAAAAAAAAAhQAAvEIDgAAAYAgAAAAAAAAAAACAPwgAAADNzNzA
        AQAAAAAAAAAAhQAAvkIDgAAAYAgAAAAAAAAAAACAPwgAAAAAAKDAAQAAAAAAAAAAhQAAwEIDgAAAYAgAAAAAAAAAAACAPwgAAAAzM/PAAQAAAAAAAAAAhQAAyEIDgAAA
        YAgAAAAAAAAAAACAPwgAAAAAABDBAQAAAAAAAAAAhQAAzkIDgAAAYAgAAAAAAAAAAACAPwgAAAAAAEDAAQAAAAAAAAAAhQAA2EIDgAAAYAQAAAAAAAAAAACAPwQAAAAA
        AEDAAQAAAAAAAAAAgdy93D0DgAAAQBYAAAAAABBBAACoQQAAwEEAAOBBAADoQQAAAEIAAAhCAAAYQgAAJEIAADBCAABAQgAATEIAAGBCAABwQgAAgEIAAIhCAACQQgAA
        mEIAAKBCAACoQgAAwEIAANhCFgAAAKYgMT8EtOWMP6RTjz8015E/amqRP2pqkT+C7YGOPwFqapE/amqRPwTtgY4/mraLP+2Bjj+atos/mraLP4Gv61c/gVvtRT8C56Yp
        P0GD7T4BAAAAAAAAAAEAAAAzMzM/ZmamPwEAAAABAAAAAQAAAGZmZj/NzIw/AQAAAAAAAAABAAAAMzMzP2Zmpj8BAAAAAAAAAAEAAAAzMzM/ZmamPwEAAAAAAAAAAQAA
        ADMzMz9mZqY/AQAAAAAAAAAAAPBCAAAAAA4AAAAAAAA/zczMPc3MTD4AAAA/AwAAAAAAAAADgAAASAEAAAAAAAAAAAAAAAOAAABIAQAAAAAAAAAEAAAAAgAAAAMAAAAE
        AAAAAQAAAAEAAAAAAIA/AACAPwEAAAABAAAAAQAAAAEAAAABAAAAAACAPwAAAAAAAIBAAAC0QkYAAAAAA4AAAEgBAAAAAAAAAAAAAAADgAAASAEAAAAAAAAAAAAAAAAA
        AAADgAAASAEAAAAAAAAAAAAAAAMAAAAHAAAAAQAAAAAAAAAOAAAAEAAAAAAAAACPwnU9AACAPwAAAAAAAAC/AABwQgAAAAAAAAAAAAAAAAAAAAAAAAAAAAAAAAAAAAAA
        AAAAAAAAAAAAAAADAAAACgAAAAEAAAAAAAAADgAAABAAAAAAAAAAAADIQgAAAAAAAAA/AAAAQAAAlkMAAAAAAAAAPwAAgD8AQJxFAAAAQAAAgD8AAEBAAAAAAAAAAAAA
        AAAAAwAAAAoAAAABAAAAAAAAAA4AAAAQAAAAAAAAAAAAyEIAAAAAAACAPwAAAEAAQJxFAAAAQJqZmT4AAIA/AEAcRgAAAAAAAIA/AABAQAAAAAAAAAAAAAAAAAEAAAAB
        AAAAAACAPwAAQMEAAAAAAwAAAAMAAAAAAAAAAQAAAAUAAAAEAAAAAQAAAAMAAAAAAIA/mpnZPwAAwD8AAK5Cvw4NwgAAAAAFAAAAAAAAAAAAMMEAAMDCAADAwgAAwMIF
        AAAAAAAAAClcDz0AAAAAAAAAAAAAAAAFAAAAAAAAAAAAAAAAAAAAAAAAAAAAAAABAAAAAAAAAAQAAAABAAAAAwAAADMzsz+amZk/AADAPwAAbMO/Dg3CAAAAAAUAAAAA
        AHDBAAAAAAAAwMIAAMDCAADAwgUAAAAK1yM9+u1rOgAAAAAAAAAAAAAAAAUAAAAAAAAAAAAAAAAAAAAAAAAAAAAAAAEAAAAAAAAABAAAAAAAAAADAAAAj8L1Pz0KV78f
        hWs/AAC0QgAAAAAAAAAABQAAAAAAQMEAAEDBAABwwgAAcMIAAHDCBQAAAAAAAAAAAAAAAAAAAAAAAAAAAAAABQAAAAAAAAAAAAAAAAAAAAAAAAAAAAAAAQAAAAAAAAAE
        AAAAAAAAAAMAAAAzMzO/XI/CPq5HYT8AAAAAAAAAAAAAAAAFAAAAAABAwQAAQMEAAHDCAABwwgAAcMIFAAAAAAAAAAAAAAAAAAAAAAAAAAAAAAAFAAAAAAAAAAAAAAAA
        AAAAAAAAAAAAAAABAAAAAAAAAAQAAAAAAAAAAwAAALgexT89Clc/rkfhPwAAAAAAAAAAAAAAAAUAAAAAAEDBAABAwQAAcMIAAHDCAABwwgUAAAAAAAAAAAAAAAAAAAAA
        AAAAAAAAAAUAAAAAAAAAAAAAAAAAAAAAAAAAAAAAAAEAAAAAAAAAAQAAAAEAAAABAAAAAwAAADMzMz/NzEy+MzOzPwAAkEEAAAAAAAAAAAAAAAABAAAAAAAAAAAAAAAA
        AAAASlVDRVByaXZhdGVEYXRhAAEBQnlwYXNzAAEBAwAdAAAAAAAAAEpVQ0VQcml2YXRlRGF0YQAAAAAAAAAA
        AAAQAAAA
      >
      PRESETNAME "K2 Dreamy"
      FLOATPOS 32 149 592 662
      FXID {6C67196E-99C4-ED4E-8335-569CBD97CA14}
      WAK 0 0
      BYPASS 0 0 0
      <AU "AU: VCV Rack 2 FX (VCV)" "VCV: VCV Rack 2 FX" "" 1635085670 1447253574 1447253599
        6QMAAAAAAAAQAAAAAQAAAAAAAAACAAAAAAAAAAAAAAAAAAAAAAAAAAAAAAAAAAAAAAAAAAAAAAAAAAAAAAAAAAAAAAAAAAAAAAAAAAAAAAAAAAAAAAAAAAAAAAAAAAAA
        AAAAAAAAAAAAAAAAAAAAAAAAAAAAAAAAAAAAAAAAAAAAAAAAAAAAAAAAAAAQAAAAAQAAAAAAAAACAAAAAAAAAAAAAAAAAAAAAAAAAAAAAAAAAAAAAAAAAAAAAAAAAAAA
        AAAAAAAAAAAAAAAAAAAAAAAAAAAAAAAAAAAAAAAAAAAAAAAAAAAAAAAAAAAAAAAAAAAAAAAAAAAAAAAAAAAAAAAAAAAAAAAAAAAAAAAAAACcCAAAPD94bWwgdmVyc2lv
        bj0iMS4wIiBlbmNvZGluZz0iVVRGLTgiPz4KPCFET0NUWVBFIHBsaXN0IFBVQkxJQyAiLS8vQXBwbGUvL0RURCBQTElTVCAxLjAvL0VOIiAiaHR0cDovL3d3dy5hcHBs
        ZS5jb20vRFREcy9Qcm9wZXJ0eUxpc3QtMS4wLmR0ZCI+CjxwbGlzdCB2ZXJzaW9uPSIxLjAiPgo8ZGljdD4KCTxrZXk+ZGF0YTwva2V5PgoJPGRhdGE+CglLTFV2L1FC
        SVhTY0Fpa0VZRERkUWE5Z0EvMlFWQVFBQUVFV29Ja0lWVitDbmNHZlRmcXBpdHJKclRid3huSVl3eXA4TwoJQzZMTlRVbVo3TG9OUFY1OVBUOFJ4VDFTdUFDc0FMSUFF
        Y3pNeVFSdTJzNEtnaGc4bE1wbzV1VGh5blBUa0ZvNW1qbDUKCXpFdFpidnFaRVZsSnQ1bVRSelBsS2F5NWFhblNpcHFSWms0MnZEdUgvdS9odjNQUTNhVmFYVkEwSEN1
        bkNnb0M1ZkZhCgkzTG43V2dnVUQ0bUZCeERFQjRrRkFXQk5SNUxTakZScVVtWTBUVktCVktjQWdFVmdyY1ZocmRWaE9iaTRrRmdkMWxvUQoJYTYwTWF5MjIxaHF3MW9K
        WUxJRXRHTEFqSzlhQ1dBSU1CR0JmbExUVmRWNy8zdUxPejdrSElYeUxlMjZPdWZ2aTl4WjMKCVgwb0ZKZTdSY2RQVFNnY3ptaUN5YW1ibUNCSVR6VTFQaUZ3d0hScVpU
        ek16Yy9KZ0VkdzBOU09VZXBxNTB1ZktibHBhCgkrWFR5Y0c3Nm9ZQlVlMlZUNlBCL0N3TmJnODlCNSt4ZGVXNTYza2hHbXBrWklpazVOVE16bTQ2RXFHa2xpa3FmSzlI
        YwoJZERTZkN1bEoxUVROVFVzMDQwYlRBM3BqL3IzbTN4Z0htWVdiZm1nek16TW5HNm9aM2FkQ21qbDVVR0JPRnNoZ1k5L2MKCXV5VXUzcHppRWN6TXlZT0pTNHZSNCtK
        aWZQOVFpUUh2Ly8vK3ZUTnhnVXhqc0xuN1l4ajNGSWZ2S2U3YU0yNzZvZTNlCgk0a3h6a0luTm55bWVQSjdpcnB4V1JnMDJaaFJKQ0V2MDZCSEc5dDZ6RnIvakk3aHAr
        bEJJTTljS1c4bW9tWS9jdElaagoJYVFOYnljZ3hHcUVUR0p3YU9jMDhuMXF4RWRXcG1ibnBLcHFTSkRXY1p1YmtvV0ZyaFZUTlRjOE1TVHJRTUVGSVVDOG8KCUppZ3FZ
        bnYvektFNzB4cnp1T21IZGtLaFRrMU5HMUVGenRNZDlsWjdKNGxHOXR6MDVLQVdHSndhWVRRenMrSUJIUWsxCgliU1VoRXo0TTkvLy94dDd5M252dkVFSzNOSWNCUWU0
        TGRLMTViUEhCNWNFNEgra3c0cjlyckRsMGJJbVFRY2UwaHVaagoJWUR2UTNEUlZvK3BJVktMMlR2WldpaG5kcDFiWU85bGJIM1QyRHphUGprSElPQXpwUENkU3BWWlMx
        MG9MZXlkNzY0YWwKCUVXcHBKVTBMZXllSlZ0SzBnSkJnUTBaellsTDJUaExGckM0RTBXZEsxMFliMWlLYWtweG1sSkZSTHliSG5CVFV5V05XCglrWVM0YVdseVZBcDZU
        cnc5RXhmNFhHUFBuREZ4K1lET3FFRzlNa1JvQUFBQVVBVUFKTUFDQUprWnFnMFNvR0FRRUltUwoJR0VSUkVJWlFGS09JQUNDREFCQUNBUUJBd0pBQUhGb0RKdlFyaE4x
        MTZHc1N2aUZXN0ppaExnSW1sSUJzd09OY0YxUkQKCWluQUhwOUVQaW5QUU1KYkxLSjJrRlpDS01wWUFRZXJPcVFCTjc5Z3FNcVhjYkphYlREUUJoVFJzQ1lGRU9VRVNQ
        aHNXCglCNUpZSU4weWVvYnk3NWxKTHFlVDJSZTZBd1hrVnVkeU1lZHFYbmpPVWZEQUFDVTBxQ0NFRmlneXdTRjBFQVFHVHl1UwoJQllpUkxEY3lTRllnUXJLc01DUmZX
        UGRJYjVVL1FZVlYzRWR5VTAxa0tDS0FheUlvSjd4eDJRY2tXeEFpQTQ4b0hyZmsKCW9QOEo1aVlGSk9aZHVEY1k2WUdSd3BjcEViRGxibmdDc243d0pFUXNISGVHcHFu
        Y1lEdW9YM09idlpwOERMUnk2T1crCglDS0lSbFJ1VXZ3VmFneXY1dEVvckd1WnFPTDR4ZGhmOVBISFBMY2V3SWJVeEJLdzc5VW9VTUtPeE80NUdTR0hLSm1LMwoJajB0
        UStLa1ZxSVFBV3dlZ3hkTzdMTWFFVlVxY1ZjTHNnVVZzbmZIT0dPUUpjZnlzZmQ0NXBTZ2pGK2Nna25tUUNPcjcKCW9za3JnZ2NUS1ZLU05lcFdMOXdvNit3bG13Njdk
        U1BCbUdOYnBHTU5BQmhzQi9EaEttdVdBUWtjY211L2xkSFFkVExZCglMVUxoQVhDZ1p4aFRyNDMwMVZ6VWtkN3Znd3I1OEJCd2ZGWktFbHQ2ZnRzWXR1Yk5PV2ZPWUw4
        UHZBdz0KCTwvZGF0YT4KCTxrZXk+bWFudWZhY3R1cmVyPC9rZXk+Cgk8aW50ZWdlcj4xNDQ3MjUzNTk5PC9pbnRlZ2VyPgoJPGtleT5uYW1lPC9rZXk+Cgk8c3RyaW5n
        PlZDVlJhY2s8L3N0cmluZz4KCTxrZXk+c3VidHlwZTwva2V5PgoJPGludGVnZXI+MTQ0NzI1MzU3NDwvaW50ZWdlcj4KCTxrZXk+dHlwZTwva2V5PgoJPGludGVnZXI+
        MTYzNTA4NTY3MDwvaW50ZWdlcj4KCTxrZXk+dmVyc2lvbjwva2V5PgoJPGludGVnZXI+MTwvaW50ZWdlcj4KPC9kaWN0Pgo8L3BsaXN0PgoBAAAAAAAAAAAA
      >
      FLOATPOS 0 0 0 0
      FXID {B16322B3-AEEB-5747-AC63-1C6F8AC75F9E}
      WAK 0 0
    >
  >
>
