<REAPER_PROJECT 0.1 "7.33/macOS-arm64" 1740669870
  <NOTES 0 2
  >
  RIPPLE 0
  GROUPOVERRIDE 0 0 0
  AUTOXFADE 129
  ENVATTACH 3
  POOLEDENVATTACH 0
  MIXERUIFLAGS 11 48
  ENVFADESZ10 40
  PEAKGAIN 1
  FEEDBACK 0
  PANLAW 1
  PROJOFFS 0 0 0
  MAXPROJLEN 0 0
  GRID 3199 8 1 8 1 0 0 0
  TIMEMODE 1 5 -1 30 0 0 -1
  VIDEO_CONFIG 0 0 65792
  PANMODE 3
  PANLAWFLAGS 3
  CURSOR 328
  ZOOM 1.04825960103961 0 0
  VZOOMEX 6 0
  USE_REC_CFG 0
  RECMODE 1
  SMPTESYNC 0 30 100 40 1000 300 0 0 1 0 0
  LOOP 1
  LOOPGRAN 0 4
  RECORD_PATH "Media" ""
  <RECORD_CFG
    ZXZhdxgAAQ==
  >
  <APPLYFX_CFG
  >
  RENDER_FILE ""
  RENDER_PATTERN ""
  RENDER_FMT 0 2 0
  RENDER_1X 0
  RENDER_RANGE 1 0 0 18 1000
  RENDER_RESAMPLE 3 0 1
  RENDER_ADDTOPROJ 0
  RENDER_STEMS 0
  RENDER_DITHER 0
  TIMELOCKMODE 1
  TEMPOENVLOCKMODE 1
  ITEMMIX 1
  DEFPITCHMODE 589824 0
  TAKELANE 1
  SAMPLERATE 44100 0 0
  <RENDER_CFG
    ZXZhdxgAAQ==
  >
  LOCK 1
  <METRONOME 6 2
    VOL 0.25 0.125
    BEATLEN 4
    FREQ 1760 880 1
    SAMPLES "" "" "" ""
    SPLIGNORE 0 0
    SPLDEF 2 660 "" 0 ""
    SPLDEF 3 440 "" 0 ""
    PATTERN 0 169
    PATTERNSTR ABBB
    MULT 1
  >
  GLOBAL_AUTO -1
  TEMPO 120 4 4 0
  PLAYRATE 1 0 0.25 4
  SELECTION 5.5 5.5
  SELECTION2 5.5 5.5
  MASTERAUTOMODE 0
  MASTERTRACKHEIGHT 0 0
  MASTERPEAKCOL 16576
  MASTERMUTESOLO 0
  MASTERTRACKVIEW 0 0.6667 0.5 0.5 0 0 0 0 0 0 0 0 0 0
  MASTERHWOUT 0 0 1 0 0 0 0 -1
  MASTER_NCH 2 2
  MASTER_VOLUME 0.33829259018268 0 -1 -1 1
  MASTER_PANMODE 3
  MASTER_PANLAWFLAGS 3
  MASTER_FX 1
  MASTER_SEL 0
  <MASTERFXLIST
    WNDRECT 32 548 815 263
    SHOW 0
    LASTSEL 0
    DOCKED 0
    BYPASS 1 0 0
    <AU "AU: AUReverb2 (Apple)" "Apple: AUReverb2" "" 1635083896 1920361010 1634758764
      6QMAAAAAAAACAAAAAQAAAAAAAAACAAAAAAAAAAIAAAABAAAAAAAAAAIAAAAAAAAALwIAADw/eG1sIHZlcnNpb249IjEuMCIgZW5jb2Rpbmc9IlVURi04Ij8+CjwhRE9D
      VFlQRSBwbGlzdCBQVUJMSUMgIi0vL0FwcGxlLy9EVEQgUExJU1QgMS4wLy9FTiIgImh0dHA6Ly93d3cuYXBwbGUuY29tL0RURHMvUHJvcGVydHlMaXN0LTEuMC5kdGQi
      Pgo8cGxpc3QgdmVyc2lvbj0iMS4wIj4KPGRpY3Q+Cgk8a2V5PmRhdGE8L2tleT4KCTxkYXRhPgoJQUFBQUFBQUFBQUFBQUFBSEFBQUFBRUpEbVprQUFBQUJQNEFBQUFB
      QUFBSThBeEp2QUFBQUF6MU16TTBBQUFBRVB3cDkKCU5RQUFBQVUvQUFBQUFBQUFCa0lUMnlJPQoJPC9kYXRhPgoJPGtleT5tYW51ZmFjdHVyZXI8L2tleT4KCTxpbnRl
      Z2VyPjE2MzQ3NTg3NjQ8L2ludGVnZXI+Cgk8a2V5Pm5hbWU8L2tleT4KCTxzdHJpbmc+VW50aXRsZWQ8L3N0cmluZz4KCTxrZXk+c3VidHlwZTwva2V5PgoJPGludGVn
      ZXI+MTkyMDM2MTAxMDwvaW50ZWdlcj4KCTxrZXk+dHlwZTwva2V5PgoJPGludGVnZXI+MTYzNTA4Mzg5NjwvaW50ZWdlcj4KCTxrZXk+dmVyc2lvbjwva2V5PgoJPGlu
      dGVnZXI+MDwvaW50ZWdlcj4KPC9kaWN0Pgo8L3BsaXN0PgoBAAAAAAAAAAAA
    >
    FLOATPOS 64 544 600 235
    FXID {9A605900-225D-E941-9AB3-F46337113F6D}
    WAK 0 0
  >
  <MASTERPLAYSPEEDENV
    EGUID {62061924-2D06-CA41-B745-01B95C42C262}
    ACT 0 -1
    VIS 0 1 1
    LANEHEIGHT 0 0
    ARM 0
    DEFSHAPE 0 -1 -1
  >
  <TEMPOENVEX
    EGUID {A8FBE181-5174-A549-BE0D-A3409F4C84EC}
    ACT 0 -1
    VIS 1 0 1
    LANEHEIGHT 0 0
    ARM 0
    DEFSHAPE 1 -1 -1
  >
  <PROJBAY
  >
  <TRACK {58856C49-DCFE-B24A-85A4-61A95C2CD20B}
    NAME "Generated score"
    PEAKCOL 16576
    BEAT -1
    AUTOMODE 0
    PANLAWFLAGS 3
    VOLPAN 1.82452995868445 0 -1 -1 1
    MUTESOLO 0 0 0
    IPHASE 0
    PLAYOFFS 0 1
    ISBUS 0 0
    BUSCOMP 0 0 0 0 0
    SHOWINMIX 1 0.6667 0.5 1 0.5 0 0 0
    FIXEDLANES 9 0 0 0 0
    SEL 0
    REC 1 5088 1 0 0 0 0 0
    VU 2
    TRACKHEIGHT 0 0 0 0 0 0 0
    INQ 0 0 0 0.5 100 0 0 100
    NCHAN 2
    FX 1
    TRACKID {58856C49-DCFE-B24A-85A4-61A95C2CD20B}
    PERF 0
    MIDIOUT -1
    MAINSEND 1 0
    <FXCHAIN
      WNDRECT 0 121 807 690
      SHOW 0
      LASTSEL 0
      DOCKED 0
    >
    <ITEM
      POSITION 0
      SNAPOFFS 0
      LENGTH 480.01770833333336
      LOOP 1
      ALLTAKES 0
      FADEIN 1 0 0 1 0 0 0
      FADEOUT 1 0 0 1 0 0 0
      MUTE 0 0
      SEL 0
      IGUID {784AB46B-ECA2-0449-BB67-775EC845F67A}
      IID 21
      NAME ""
      VOLPAN 1 0 1 -1
      SOFFS 0 0
      PLAYRATE 1 1 0 -1 0 0.0025
      CHANMODE 0
      GUID {C052CCB5-4A18-CC41-92C9-25FA42FA4CD1}
      <SOURCE MIDI
        HASDATA 1 960 QN
        CCINTERP 32
        POOLEDEVTS {47EF0DC2-9D0A-1841-B732-37CE16E8DEEA}
        E 34 90 24 34
        E 0 91 26 34
        E 0 91 29 34
        E 0 92 2e 34
        E 0 92 5d 34
        E 2748 80 24 00
        E 0 81 26 00
        E 0 81 29 00
        E 0 82 2e 00
        E 0 82 5d 00
        E 0 90 25 34
        E 0 91 28 34
        E 0 91 2c 34
        E 0 92 33 34
        E 0 92 47 34
        E 1375 80 25 00
        E 0 81 28 00
        E 0 82 47 00
        E 0 90 28 34
        E 0 91 31 34
        E 0 92 3b 34
        E 2748 82 33 00
        E 0 80 28 00
        E 0 82 3b 00
        E 0 90 2a 34
        E 0 92 34 34
        E 0 92 39 34
        E 1375 81 31 00
        E 0 80 2a 00
        E 0 82 39 00
        E 0 90 21 34
        E 0 91 2a 34
        E 0 92 31 34
        E 1374 81 2c 00
        E 0 82 34 00
        E 0 80 21 00
        E 0 82 31 00
        E 0 90 25 34
        E 0 91 2d 34
        E 0 92 2f 34
        E 0 92 32 34
        E 1374 80 25 00
        E 0 82 2f 00
        E 0 90 28 34
        E 0 92 31 34
        E 1104 81 2a 00
        E 0 80 28 00
        E 0 82 31 00
        E 0 90 2a 33
        E 0 91 2b 33
        E 0 92 2f 33
        E 519 81 2d 00
        E 0 82 32 00
        E 0 80 2a 00
        E 0 82 2f 00
        E 0 90 26 33
        E 0 91 2f 33
        E 0 92 30 33
        E 0 92 34 33
        E 520 80 26 00
        E 0 81 2f 00
        E 0 90 29 33
        E 0 91 2d 33
        E 519 81 2b 00
        E 0 82 34 00
        E 0 80 29 00
        E 0 90 26 33
        E 0 91 29 33
        E 0 92 2e 33
        E 520 82 30 00
        E 0 81 2d 00
        E 0 80 26 00
        E 0 82 2e 00
        E 0 90 24 34
        E 0 91 26 34
        E 0 92 5d 34
        E 0 92 5e 34
        E 883 90 25 34
        E 0 91 27 34
        E 0 92 5c 34
        E 0 92 60 34
        E 883 90 2c 34
        E 0 91 2e 34
        E 0 91 30 34
        E 0 92 35 34
        E 0 92 3d 34
        E 883 90 22 34
        E 0 91 2c 34
        E 0 91 35 34
        E 0 92 3c 34
        E 982 80 24 00
        E 0 81 26 00
        E 0 82 5d 00
        E 0 82 5e 00
        E 884 81 29 00
        E 0 80 25 00
        E 0 81 27 00
        E 0 82 5c 00
        E 0 82 60 00
        E 883 80 2c 00
        E 0 81 2e 00
        E 0 81 30 00
        E 0 82 35 00
        E 11 90 2a 34
        E 0 91 2b 34
        E 0 91 2f 34
        E 0 92 32 34
        E 0 92 51 34
        E 1379 91 32 34
        E 0 92 3b 34
        E 0 92 45 34
        E 1369 82 3d 00
        E 0 80 22 00
        E 0 81 2c 00
        E 0 81 35 00
        E 0 82 3c 00
        E 1380 81 2f 00
        E 0 82 32 00
        E 0 82 51 00
        E 11 90 28 34
        E 0 91 30 34
        E 0 92 3e 34
        E 0 92 47 34
        E 1380 92 54 34
        E 0 92 5f 34
        E 1369 80 2a 00
        E 0 82 3b 00
        E 0 82 45 00
        E 11 90 2a 34
        E 0 91 2f 34
        E 0 92 56 34
        E 0 92 5d 34
        E 1368 81 30 00
        E 0 82 3e 00
        E 0 82 47 00
        E 11 92 58 34
        E 1109 91 2d 33
        E 0 92 55 33
        E 260 81 32 00
        E 0 80 28 00
        E 0 82 54 00
        E 0 82 5f 00
        E 261 91 2c 33
        E 522 90 28 33
        E 0 92 57 33
        E 521 92 52 33
        E 76 82 5d 00
        E 446 90 22 34
        E 0 91 23 34
        E 0 91 2a 34
        E 0 92 2c 34
        E 0 92 4b 34
        E 662 81 2b 00
        E 225 90 24 34
        E 0 91 29 34
        E 0 91 2b 34
        E 297 82 56 00
        E 521 82 58 00
        E 0 81 2d 00
        E 68 90 2b 34
        E 0 91 2e 34
        E 0 92 30 34
        E 0 92 33 34
        E 454 82 55 00
        E 0 80 28 00
        E 433 92 3c 34
        E 88 80 2a 00
        E 0 81 2f 00
        E 0 82 57 00
        E 0 82 52 00
        E 887 81 23 00
        E 0 81 2a 00
        E 887 82 2c 00
        E 0 82 4b 00
        E 0 80 24 00
        E 0 81 29 00
        E 886 80 2b 00
        E 0 81 2e 00
        E 0 82 30 00
        E 22 90 25 34
        E 0 91 26 34
        E 0 91 2a 34
        E 0 92 45 34
        E 0 92 5f 34
        E 1386 90 23 34
        E 0 92 31 34
        E 0 92 39 34
        E 1363 81 2c 00
        E 0 80 22 00
        E 0 81 2b 00
        E 0 82 33 00
        E 0 82 3c 00
        E 1385 80 25 00
        E 0 82 45 00
        E 0 82 5f 00
        E 23 91 2b 34
        E 0 92 34 34
        E 0 92 36 34
        E 1385 91 28 34
        E 0 92 2b 34
        E 0 92 62 34
        E 1363 82 31 00
        E 0 82 39 00
        E 22 92 2d 34
        E 0 92 60 34
        E 1363 81 26 00
        E 0 82 34 00
        E 0 82 36 00
        E 23 90 26 34
        E 0 92 2f 34
        E 1112 90 28 33
        E 0 91 29 33
        E 251 81 2a 00
        E 0 82 2b 00
        E 0 82 62 00
        E 273 91 2d 33
        E 0 92 2e 33
        E 524 90 27 33
        E 0 92 62 33
        E 523 91 2c 33
        E 0 92 30 33
        E 0 92 5e 33
        E 65 80 23 00
        E 459 90 22 34
        E 0 91 24 34
        E 0 92 2c 34
        E 0 92 3f 34
        E 654 81 28 00
        E 0 82 2f 00
        E 236 90 23 34
        E 0 91 25 34
        E 0 91 2a 34
        E 287 82 2d 00
        E 0 80 28 00
        E 524 82 60 00
        E 0 80 26 00
        E 0 81 2d 00
        E 524 81 29 00
        E 0 82 62 00
        E 445 92 2f 34
        E 78 81 2b 00
        E 0 80 27 00
        E 0 82 30 00
        E 0 82 5e 00
        E 891 81 24 00
        E 0 82 2c 00
        E 890 81 25 00
        E 890 82 2e 00
        E 0 80 23 00
        E 33 90 25 34
        E 0 91 2e 34
        E 1391 90 27 34
        E 0 91 2f 34
        E 0 92 31 34
        E 0 92 52 34
        E 1358 81 2c 00
        E 0 80 22 00
        E 33 91 2c 34
        E 0 92 35 34
        E 1358 82 3f 00
        E 0 82 2f 00
        E 0 81 2e 00
        E 33 91 29 34
        E 0 92 33 34
        E 1117 90 29 34
        E 0 91 31 34
        E 0 92 5e 34
        E 241 80 27 00
        E 0 81 2f 00
        E 0 82 31 00
        E 653 91 33 34
        E 0 92 3d 34
        E 738 81 2c 00
        E 0 82 35 00
        E 1117 81 2a 00
        E 0 80 25 00
        E 0 81 29 00
        E 893 82 33 00
        E 0 81 31 00
        E 0 82 5e 00
        E 45 90 2a 34
        E 0 91 2c 34
        E 0 91 35 34
        E 1396 92 2e 34
        E 0 92 55 34
        E 1352 81 33 00
        E 45 90 27 34
        E 0 91 29 34
        E 0 92 30 34
        E 1352 82 52 00
        E 0 82 3d 00
        E 0 80 2a 00
        E 0 81 35 00
        E 44 90 25 34
        E 0 92 54 34
        E 1122 90 2c 34
        E 0 91 2e 34
        E 0 91 31 34
        E 0 92 35 34
        E 230 80 29 00
        E 667 90 22 34
        E 0 92 60 34
        E 730 82 55 00
        E 0 80 27 00
        E 0 82 30 00
        E 1122 82 2e 00
        E 0 81 29 00
        E 0 80 25 00
        E 897 82 54 00
        E 0 80 2c 00
        E 0 81 2e 00
        E 56 90 2a 34
        E 0 91 2b 34
        E 0 91 32 34
        E 0 92 39 34
        E 0 92 3b 34
        E 1402 91 2d 34
        E 0 92 32 34
        E 0 92 47 34
        E 1346 81 2c 00
        E 0 81 31 00
        E 0 82 35 00
        E 0 80 22 00
        E 0 82 60 00
        E 1402 81 32 00
        E 0 82 39 00
        E 0 82 3b 00
        E 56 90 28 34
        E 0 91 2f 34
        E 0 92 30 34
        E 0 92 4a 34
        E 1402 90 24 34
        E 0 91 26 34
        E 0 91 28 34
        E 0 92 2b 34
        E 1346 80 2a 00
        E 0 81 2d 00
        E 0 82 32 00
        E 56 90 23 34
        E 0 91 2a 34
        E 0 92 45 34
        E 1347 81 2b 00
        E 0 80 28 00
        E 0 81 2f 00
        E 0 82 30 00
        E 0 82 4a 00
        E 55 92 42 34
        E 1126 91 25 33
        E 0 92 2d 33
        E 221 82 47 00
        E 0 80 24 00
        E 309 90 21 33
        E 0 92 2c 33
        E 530 91 27 33
        E 0 92 3d 33
        E 530 92 3a 33
        E 33 82 45 00
        E 497 90 2a 34
        E 0 91 2c 34
        E 0 91 2f 34
        E 0 92 33 34
        E 0 92 52 34
        E 629 82 2b 00
        E 272 90 29 34
        E 0 91 2b 34
        E 0 91 30 34
        E 0 92 50 34
        E 258 81 26 00
        E 0 82 2d 00
        E 530 82 42 00
        E 0 81 25 00
        E 0 80 21 00
        E 113 90 2b 34
        E 0 92 5e 34
        E 417 81 28 00
        E 0 82 3d 00
        E 484 91 33 34
        E 0 92 3c 34
        E 46 80 23 00
        E 0 81 2a 00
        E 0 82 2c 00
        E 0 81 27 00
        E 0 82 3a 00
        E 901 80 2a 00
        E 0 81 2f 00
        E 901 80 29 00
        E 0 81 2b 00
        E 0 82 50 00
        E 901 82 33 00
        E 0 81 30 00
        E 0 82 5e 00
        E 67 90 29 34
        E 0 91 2b 34
        E 0 92 50 34
        E 1407 92 48 34
        E 0 92 4b 34
        E 1341 82 52 00
        E 0 80 2b 00
        E 67 91 2e 34
        E 0 92 49 34
        E 1341 81 33 00
        E 0 82 3c 00
        E 0 82 50 00
        E 67 91 33 34
        E 1131 90 27 34
        E 0 91 29 34
        E 0 92 3c 34
        E 210 81 2b 00
        E 0 82 4b 00
        E 694 92 30 34
        E 0 92 55 34
        E 713 81 2e 00
        E 1131 81 2c 00
        E 0 80 29 00
        E 0 82 48 00
        E 0 81 33 00
        E 905 82 49 00
        E 0 82 3c 00
        E 78 90 25 34
        E 0 92 2e 34
        E 0 92 54 34
        E 1413 90 2c 34
        E 0 91 35 34
        E 0 91 3d 34
        E 0 92 5e 34
        E 1335 80 27 00
        E 0 82 30 00
        E 0 82 55 00
        E 79 90 2a 34
        E 0 91 3f 34
        E 0 92 55 34
        E 1335 81 29 00
        E 0 80 25 00
        E 0 82 2e 00
        E 78 91 36 34
        E 0 91 41 34
        E 1135 91 2c 34
        E 200 82 54 00
        E 0 81 3d 00
        E 709 92 52 34
        E 0 92 61 34
        E 705 81 3f 00
        E 1135 80 2c 00
        E 0 81 36 00
        E 0 81 41 00
        E 908 82 5e 00
        E 0 82 55 00
        E 90 90 21 34
        E 0 91 2b 34
        E 0 91 34 34
        E 0 92 3c 34
        E 0 92 47 34
        E 1419 90 2b 34
        E 0 91 3c 34
        E 0 92 5d 34
        E 1329 81 35 00
        E 0 80 2a 00
        E 0 81 2c 00
        E 0 82 52 00
        E 0 82 61 00
        E 1419 80 21 00
        E 0 81 2b 00
        E 0 82 3c 00
        E 90 90 29 34
        E 0 91 3e 34
        E 0 92 48 34
        E 1419 90 28 34
        E 0 91 29 34
        E 0 91 30 34
        E 0 92 32 34
        E 0 92 39 34
        E 1329 82 47 00
        E 0 80 2b 00
        E 0 81 3c 00
        E 90 91 2b 34
        E 0 91 2d 34
        E 0 92 3a 34
        E 1329 81 34 00
        E 0 82 5d 00
        E 0 81 3e 00
        E 0 82 48 00
        E 1230 91 32 33
        E 0 92 33 33
        E 190 80 28 00
        E 0 81 29 00
        E 0 82 39 00
        E 346 90 2b 33
        E 0 91 2c 33
        E 0 91 2e 33
        E 0 92 3c 33
        E 537 92 31 33
        E 0 92 3f 33
        E 536 90 2a 33
        E 0 92 41 33
        E 536 91 35 34
        E 0 92 3d 34
        E 603 82 32 00
        E 0 81 2d 00
        E 309 90 2c 34
        E 0 91 2d 34
        E 0 91 34 34
        E 0 92 3b 34
        E 228 81 2b 00
        E 0 81 32 00
        E 536 82 33 00
        E 0 80 2b 00
        E 0 82 3c 00
        E 148 92 45 34
        E 389 80 29 00
        E 0 81 30 00
        E 0 82 3f 00
        E 523 92 39 34
        E 0 92 49 34
        E 13 81 2e 00
        E 0 82 31 00
        E 0 82 41 00
        E 912 82 3a 00
        E 0 81 35 00
        E 912 80 2c 00
        E 0 81 2d 00
        E 0 82 3b 00
        E 911 82 3d 00
        E 0 82 45 00
        E 101 90 22 34
        E 0 91 27 34
        E 0 91 29 34
        E 0 92 2b 34
        E 0 92 3e 34
        E 1425 90 27 34
        E 0 91 2b 34
        E 0 92 5e 34
        E 1324 81 2c 00
        E 0 80 2a 00
        E 0 81 34 00
        E 0 82 39 00
        E 0 82 49 00
        E 1425 80 22 00
        E 0 81 27 00
        E 0 82 2b 00
        E 101 91 2c 34
        E 0 92 3c 34
        E 1425 90 2b 34
        E 0 91 33 34
        E 0 92 3a 34
        E 1323 81 29 00
        E 0 82 3e 00
        E 101 91 35 34
        E 0 92 3e 34
        E 1324 82 5e 00
        E 101 91 32 34
        E 1144 90 26 33
        E 0 92 39 33
        E 180 81 2c 00
        E 0 80 2b 00
        E 0 81 33 00
        E 359 91 29 33
        E 0 91 34 33
        E 538 90 24 33
        E 0 92 3b 33
        E 528 82 3e 00
        E 11 90 23 33
        E 0 92 36 33
        E 0 92 3e 33
        E 539 90 28 34
        E 0 91 2a 34
        E 0 92 32 34
        E 594 80 27 00
        E 0 81 32 00
        E 321 90 27 34
        E 0 91 28 34
        E 0 91 2c 34
        E 0 92 31 34
        E 218 82 3a 00
        E 0 81 35 00
        E 538 82 3c 00
        E 0 80 26 00
        E 0 81 29 00
        E 160 92 33 34
        E 0 92 47 34
        E 379 82 39 00
        E 0 80 24 00
        E 536 92 3f 34
        E 2 81 34 00
        E 0 80 23 00
        E 0 82 36 00
        E 0 82 3e 00
        E 916 81 2b 00
        E 0 82 32 00
        E 915 80 27 00
        E 0 81 28 00
        E 0 82 31 00
        E 916 82 33 00
        E 0 82 47 00
        E 112 90 27 34
        E 0 91 28 34
        E 0 92 3d 34
        E 1431 90 23 34
        E 0 91 27 34
        E 0 92 2c 34
        E 0 92 55 34
        E 1318 80 28 00
        E 0 81 2a 00
        E 0 82 3f 00
        E 112 90 21 34
        E 0 91 2a 34
        E 1318 82 3b 00
        E 0 81 2c 00
        E 0 80 27 00
        E 0 82 3d 00
        E 113 91 2c 34
        E 0 92 2d 34
        E 1149 90 2c 34
        E 0 91 2d 34
        E 0 91 31 34
        E 0 92 34 34
        E 0 92 5f 34
        E 169 81 28 00
        E 0 81 27 00
        E 750 91 23 34
        E 0 92 3d 34
        E 680 82 2c 00
        E 0 81 2a 00
        E 1149 80 23 00
        E 0 82 55 00
        E 0 82 2d 00
        E 919 80 2c 00
        E 0 81 2d 00
        E 0 81 31 00
        E 0 82 5f 00
        E 124 91 2a 34
        E 1436 90 2a 34
        E 0 91 34 34
        E 0 92 45 34
        E 0 92 61 34
        E 1313 81 23 00
        E 124 91 2f 34
        E 0 91 32 34
        E 1312 80 21 00
        E 0 82 34 00
        E 0 82 3d 00
        E 0 81 2a 00
        E 1277 90 28 34
        E 0 91 2a 34
        E 0 92 55 34
        E 159 81 2c 00
        E 764 90 25 34
        E 0 91 26 34
        E 0 91 28 34
        E 0 92 2a 34
        E 0 92 39 34
        E 672 81 2f 00
        E 1154 80 2a 00
        E 0 81 34 00
        E 0 82 61 00
        E 0 81 32 00
        E 923 82 45 00
        E 0 80 28 00
        E 0 81 2a 00
        E 0 82 55 00
        E 135 90 2b 34
        E 0 91 2c 34
        E 0 91 35 34
        E 0 92 4b 34
        E 0 92 54 34
        E 1442 92 48 34
        E 0 92 57 34
        E 1307 80 25 00
        E 0 81 26 00
        E 0 81 28 00
        E 0 82 2a 00
        E 0 82 39 00
        E 1442 82 4b 00
        E 0 82 54 00
        E 135 90 2c 34
        E 0 91 2e 34
        E 0 92 55 34
        E 1442 90 22 34
        E 0 92 3d 34
        E 1307 80 2b 00
        E 0 82 57 00
        E 135 91 2a 34
        E 0 92 3f 34
        E 0 92 49 34
        E 1307 80 2c 00
        E 0 81 2e 00
        E 0 82 55 00
        E 135 91 36 34
        E 0 92 41 34
        E 1159 90 23 33
        E 0 91 2e 33
        E 148 82 48 00
        E 0 82 3d 00
        E 397 92 40 33
        E 0 92 4b 33
        E 545 91 39 33
        E 500 81 35 00
        E 0 81 2a 00
        E 45 90 26 33
        E 0 91 2d 33
        E 545 90 21 34
        E 0 91 28 34
        E 0 91 2a 34
        E 0 92 32 34
        E 0 92 3d 34
        E 568 80 22 00
        E 0 82 41 00
        E 358 91 29 34
        E 0 91 2b 34
        E 0 92 34 34
        E 0 92 3c 34
        E 187 82 3f 00
        E 0 81 2e 00
        E 545 82 4b 00
        E 195 90 28 34
        E 350 81 2c 00
        E 0 80 23 00
        E 0 81 39 00
        E 545 82 49 00
        E 0 81 36 00
        E 0 82 40 00
        E 0 80 26 00
        E 32 92 48 34
        E 895 81 2a 00
        E 0 82 3d 00
        E 927 81 2b 00
        E 0 82 34 00
        E 926 81 2d 00
        E 0 82 3c 00
        E 0 80 28 00
        E 147 91 2b 34
        E 0 92 34 34
        E 1448 90 29 34
        E 0 91 34 34
        E 0 92 5d 34
        E 0 92 60 34
        E 1301 81 28 00
        E 0 82 32 00
        E 147 90 28 34
        E 0 91 32 34
        E 0 92 5f 34
        E 1300 80 21 00
        E 0 81 29 00
        E 0 82 48 00
        E 0 82 34 00
        E 147 91 30 34
        E 1163 90 2b 34
        E 0 91 3c 34
        E 138 80 29 00
        E 793 91 2f 34
        E 0 92 34 34
        E 0 92 51 34
        E 655 82 60 00
        E 0 81 32 00
        E 1163 81 2b 00
        E 0 80 28 00
        E 930 81 34 00
        E 0 82 5d 00
        E 0 82 5f 00
        E 0 81 3c 00
        E 159 91 32 34
        E 0 92 53 34
        E 1453 90 23 34
        E 0 91 24 34
        E 0 91 28 34
        E 0 92 2b 34
        E 0 92 32 34
        E 1295 81 2f 00
        E 0 82 51 00
        E 159 91 26 34
        E 0 91 2a 34
        E 0 92 2d 34
        E 1295 81 30 00
        E 0 80 2b 00
        E 0 82 34 00
        E 0 81 32 00
        E 0 82 53 00
        E 159 92 2a 34
        E 1167 90 26 34
        E 0 91 2b 34
        E 0 92 2f 34
        E 0 92 34 34
        E 128 81 24 00
        E 0 82 32 00
        E 806 92 32 34
        E 647 82 2d 00
        E 1168 81 28 00
        E 0 82 2b 00
        E 0 81 26 00
        E 0 82 2a 00
        E 934 80 26 00
        E 0 82 2f 00
        E 3089 91 2d 36
        E 0 92 36 36
        E 1460 90 24 36
        E 0 91 2e 36
        E 0 92 35 36
        E 1289 81 2a 00
        E 0 82 34 00
        E 170 90 29 36
        E 0 91 39 36
        E 0 92 3e 36
        E 0 92 52 36
        E 1289 80 23 00
        E 0 82 36 00
        E 170 91 30 3b
        E 1141 91 31 3b
        E 0 91 38 3b
        E 0 92 3f 3b
        E 0 92 54 3b
        E 149 82 32 00
        E 0 81 2d 00
        E 0 80 24 00
        E 0 81 2e 00
        E 0 82 35 00
        E 991 90 22 3b
        E 0 91 2c 3b
        E 0 91 35 3b
        E 0 92 3d 3b
        E 0 92 48 3b
        E 468 81 2b 00
        E 672 90 27 45
        E 468 81 39 00
        E 0 82 3e 00
        E 0 82 52 00
        E 0 81 30 00
        E 423 90 28 45
        E 0 91 36 45
        E 0 92 47 45
        E 717 80 29 00
        E 0 81 31 00
        E 0 81 38 00
        E 0 82 54 00
        E 173 90 25 45
        E 0 91 28 45
        E 0 92 33 45
        E 891 91 2a 5a
        E 0 92 34 5a
        E 77 80 22 00
        E 619 90 26 5a
        E 0 91 2b 5a
        E 0 91 2d 5a
        E 0 92 36 5a
        E 271 81 35 00
        E 0 82 3d 00
        E 0 82 48 00
        E 425 92 3b 5a
        E 0 92 62 5a
        E 466 82 3f 00
        E 0 81 36 00
        E 230 92 4a 5a
        E 0 92 5f 5a
        E 531 90 2c 5a
        E 0 91 30 5a
        E 0 91 35 5a
        E 0 92 3d 5a
        E 0 92 52 5a
        E 130 80 25 00
        E 0 81 28 00
        E 0 82 33 00
        E 401 91 3c 5a
        E 0 92 46 5a
        E 295 81 2c 00
        E 0 80 27 00
        E 0 82 34 00
        E 696 82 47 00
        E 0 80 26 00
        E 0 81 2d 00
        E 0 82 36 00
        E 71 91 36 5a
        E 425 90 2a 5a
        E 0 91 2c 5a
        E 0 92 5e 5a
        E 200 82 3b 00
        E 0 82 62 00
        E 224 91 31 5a
        E 0 92 35 5a
        E 0 92 3a 5a
        E 307 80 28 00
        E 0 81 2a 00
        E 0 81 2b 00
        E 0 82 4a 00
        E 0 82 5f 00
        E 530 81 30 00
        E 0 82 52 00
        E 226 90 23 45
        E 0 91 28 45
        E 0 91 2b 45
        E 0 92 32 45
        E 0 92 48 45
        E 648 90 28 45
        E 0 91 32 45
        E 0 92 5f 45
        E 188 81 3c 00
        E 425 80 2c 00
        E 0 81 35 00
        E 0 82 46 00
        E 0 81 36 00
        E 425 82 3d 00
        E 0 82 5e 00
        E 259 91 29 45
        E 0 92 5d 45
        E 648 92 39 45
        E 0 92 54 45
        E 156 80 2a 00
        E 0 81 2c 00
        E 0 81 31 00
        E 0 82 35 00
        E 0 82 3a 00
        E 492 90 29 45
        E 0 92 3a 45
        E 0 92 51 45
        E 156 80 23 00
        E 0 81 28 00
        E 0 82 32 00
        E 492 91 30 45
        E 521 90 26 45
        E 0 91 2d 45
        E 0 92 30 45
        E 0 92 52 45
        E 283 82 5f 00
        E 133 90 21 45
        E 0 91 22 45
        E 0 91 24 45
        E 0 92 26 45
        E 0 92 29 45
        E 515 82 48 00
        E 0 82 5d 00
        E 648 80 28 00
        E 0 82 39 00
        E 0 82 54 00
        E 138 90 25 45
        E 0 91 28 45
        E 0 91 2c 45
        E 0 92 33 45
        E 0 92 47 45
        E 511 81 2b 00
        E 10 90 28 45
        E 0 91 31 45
        E 0 92 3b 45
        E 510 81 32 00
        E 0 80 29 00
        E 0 82 3a 00
        E 0 82 51 00
        E 0 81 30 00
        E 417 81 29 00
        E 0 80 26 00
        E 0 81 2d 00
        E 0 82 30 00
        E 0 82 52 00
        E 114 90 2a 45
        E 0 92 34 45
        E 0 92 39 45
        E 521 91 2a 45
        E 0 92 31 45
        E 520 90 23 5a
        E 0 91 2d 5a
        E 146 81 22 00
        E 0 81 24 00
        E 0 82 26 00
        E 0 82 29 00
        E 375 90 24 5a
        E 0 91 2b 5a
        E 0 91 2f 5a
        E 0 92 32 5a
        E 146 80 25 00
        E 0 81 28 00
        E 0 82 47 00
        E 375 90 2b 5a
        E 0 91 30 5a
        E 0 91 34 5a
        E 0 92 51 5a
        E 0 92 5f 5a
        E 520 92 53 5a
        E 146 82 33 00
        E 0 80 28 00
        E 0 82 3b 00
        E 251 90 22 5a
        E 0 91 25 5a
        E 0 91 29 5a
        E 0 92 2a 5a
        E 0 92 33 5a
        E 269 81 31 00
        E 0 80 2a 00
        E 0 82 39 00
        E 128 90 25 5a
        E 0 92 5e 5a
        E 393 80 21 00
        E 402 91 27 5a
        E 0 92 2f 5a
        E 119 81 2c 00
        E 0 82 31 00
        E 0 80 23 00
        E 199 92 31 5a
        E 317 92 46 5a
        E 4 82 34 00
        E 0 80 24 00
        E 0 81 2b 00
        E 0 81 2f 00
        E 0 82 32 00
        E 521 81 34 00
        E 0 82 51 00
        E 397 81 2d 00
        E 0 80 2b 00
        E 0 81 30 00
        E 0 82 53 00
        E 397 81 25 00
        E 0 82 2a 00
        E 234 90 29 3b
        E 0 91 2b 3b
        E 0 91 34 3b
        E 0 92 45 3b
        E 0 92 48 3b
        E 560 81 29 00
        E 0 82 33 00
        E 197 92 39 3b
        E 0 92 54 3b
        E 121 82 5e 00
        E 318 80 22 00
        E 0 82 2f 00
        E 0 82 31 00
        E 1077 90 27 3b
        E 0 91 28 3b
        E 0 91 2c 3b
        E 0 92 31 3b
        E 0 92 3b 3b
        E 475 81 2a 00
        E 0 82 5f 00
        E 0 80 25 00
        E 0 81 27 00
        E 0 82 46 00
        E 282 92 2f 3b
        E 0 92 3d 3b
        E 476 82 45 00
        E 0 82 48 00
        E 1039 90 28 3b
        E 0 91 2a 3b
        E 0 92 2d 3b
        E 476 80 29 00
        E 0 81 2b 00
        E 0 81 34 00
        E 0 82 39 00
        E 0 82 54 00
        E 282 92 5d 3b
        E 476 82 3b 00
        E 281 90 25 3b
        E 0 91 2f 3b
        E 0 92 32 3b
        E 758 91 31 3b
        E 476 80 27 00
        E 0 81 28 00
        E 0 82 2f 00
        E 132 90 2a 36
        E 0 91 2b 36
        E 287 92 30 36
        E 0 92 62 36
        E 286 90 29 36
        E 0 91 2d 36
        E 0 92 34 36
        E 0 92 60 36
        E 52 82 3d 00
        E 0 82 2d 00
        E 234 91 2e 36
        E 287 90 22 3b
        E 0 91 24 3b
        E 0 91 26 3b
        E 0 92 29 3b
        E 0 92 51 3b
        E 237 81 2c 00
        E 0 82 31 00
        E 249 90 24 3b
        E 0 91 25 3b
        E 0 91 27 3b
        E 0 92 50 3b
        E 487 91 2c 3b
        E 0 92 35 3b
        E 0 92 3c 3b
        E 21 80 25 00
        E 466 90 2c 3b
        E 0 91 35 3b
        E 0 92 5e 3b
        E 143 81 2a 00
        E 286 82 5d 00
        E 0 80 2a 00
        E 287 80 28 00
        E 0 81 2f 00
        E 0 82 30 00
        E 0 82 62 00
        E 286 81 2b 00
        E 0 82 34 00
        E 286 82 32 00
        E 0 80 29 00
        E 0 81 2d 00
        E 0 82 60 00
        E 0 81 2e 00
        E 233 91 33 3b
        E 0 92 3d 3b
        E 0 92 60 3b
        E 254 81 24 00
        E 0 81 26 00
        E 0 82 51 00
        E 487 82 29 00
        E 0 80 24 00
        E 0 81 25 00
        E 0 81 27 00
        E 0 82 50 00
        E 20 90 27 3b
        E 0 91 29 3b
        E 0 92 48 3b
        E 0 92 49 3b
        E 467 80 22 00
        E 0 82 35 00
        E 293 91 2b 3b
        E 0 92 46 3b
        E 761 92 41 3b
        E 467 81 31 00
        E 0 82 3c 00
        E 0 82 5e 00
        E 144 90 29 3b
        E 0 92 4b 3b
        E 0 92 54 3b
        E 489 92 57 3b
        E 127 80 2c 00
        E 0 81 35 00
        E 0 81 33 00
        E 0 82 3d 00
        E 0 82 60 00
        E 761 81 29 00
        E 0 82 49 00
        E 639 90 2b 3b
        E 0 91 2e 3b
        E 121 82 46 00
        E 611 80 27 00
        E 0 82 48 00
        E 0 82 41 00
        E 31 90 22 3b
        E 0 92 3f 3b
        E 0 92 60 3b
        E 458 82 4b 00
        E 0 82 54 00
        E 306 91 29 3b
        E 0 92 62 3b
        E 764 91 27 3b
        E 0 92 3e 3b
        E 457 80 29 00
        E 156 90 27 3b
        E 0 91 32 3b
        E 0 92 5e 3b
        E 491 92 52 3b
        E 0 92 54 3b
        E 117 81 2c 00
        E 0 82 57 00
        E 0 80 2b 00
        E 0 81 2e 00
        E 1416 90 2c 3b
        E 0 91 2f 3b
        E 0 91 34 3b
        E 0 92 39 3b
        E 0 92 3d 3b
        E 111 82 3f 00
        E 0 81 29 00
        E 0 82 62 00
        E 503 91 2d 3b
        E 0 92 3b 3b
        E 111 81 2b 00
        E 0 80 22 00
        E 0 82 60 00
        E 0 81 27 00
        E 0 82 3e 00
        E 490 82 5e 00
        E 625 90 2a 3b
        E 614 90 26 3b
        E 0 91 28 3b
        E 0 91 2a 3b
        E 0 92 51 3b
        E 0 92 61 3b
        E 295 80 27 00
        E 0 82 52 00
        E 0 82 54 00
        E 318 90 25 45
        E 0 91 26 45
        E 0 92 5f 45
        E 295 81 2f 00
        E 318 90 23 45
        E 0 91 27 45
        E 0 92 50 45
        E 0 92 5e 45
        E 614 92 2e 45
        E 0 92 53 45
        E 295 80 2c 00
        E 0 81 2d 00
        E 0 82 3b 00
        E 318 92 2c 5a
        E 0 92 52 5a
        E 295 81 32 00
        E 0 81 34 00
        E 0 82 39 00
        E 0 82 3d 00
        E 0 80 2a 00
        E 184 90 24 5a
        E 0 91 29 5a
        E 0 92 4f 5a
        E 430 80 26 00
        E 0 81 28 00
        E 0 82 61 00
        E 50 90 22 5a
        E 0 91 2b 5a
        E 0 91 2c 5a
        E 0 92 33 5a
        E 0 92 54 5a
        E 479 90 2b 5a
        E 0 91 33 5a
        E 0 92 3c 5a
        E 0 92 46 5a
        E 84 82 51 00
        E 0 81 26 00
        E 0 82 5f 00
        E 281 90 26 5a
        E 0 91 28 5a
        E 0 92 39 5a
        E 0 92 55 5a
        E 332 82 50 00
        E 0 82 5e 00
        E 34 92 2d 5a
        E 0 92 61 5a
        E 580 80 25 00
        E 0 82 2e 00
        E 0 82 53 00
        E 151 92 2b 5a
        E 0 92 5f 5a
        E 293 90 28 5a
        E 0 92 47 5a
        E 0 92 62 5a
        E 35 80 23 00
        E 0 82 52 00
        E 257 90 23 5a
        E 0 92 56 5a
        E 222 81 27 00
        E 0 82 2c 00
        E 0 80 24 00
        E 0 81 29 00
        E 0 82 4f 00
        E 479 80 22 00
        E 0 82 33 00
        E 0 82 54 00
        E 31 90 2c 45
        E 0 91 30 45
        E 0 91 35 45
        E 0 92 3d 45
        E 0 92 5e 45
        E 335 81 2c 00
        E 0 80 2b 00
        E 0 81 33 00
        E 0 82 3c 00
        E 0 82 46 00
        E 111 91 3c 45
        E 0 92 52 45
        E 254 82 39 00
        E 0 82 55 00
        E 639 91 36 45
        E 93 82 2d 00
        E 0 82 61 00
        E 292 80 26 00
        E 0 82 5f 00
        E 61 90 22 45
        E 0 91 2c 45
        E 0 92 35 45
        E 0 92 49 45
        E 232 81 2b 00
        E 0 80 28 00
        E 0 82 47 00
        E 0 82 62 00
        E 214 90 24 45
        E 0 91 29 45
        E 0 92 33 45
        E 447 92 31 45
        E 0 92 46 45
        E 71 81 28 00
        E 0 82 2b 00
        E 0 80 23 00
        E 0 82 56 00
        E 287 92 48 45
        E 159 81 30 00
        E 0 82 5e 00
        E 128 91 3d 45
        E 0 92 5e 45
        E 764 81 3c 00
        E 132 90 2a 45
        E 0 91 2b 45
        E 0 91 32 45
        E 0 92 39 45
        E 0 92 5f 45
        E 315 82 52 00
        E 0 81 36 00
        E 44 90 23 45
        E 0 92 2d 45
        E 0 92 3e 45
        E 402 82 35 00
        E 314 91 28 45
        E 0 92 2f 45
        E 132 82 49 00
        E 0 82 33 00
        E 227 90 26 45
        E 0 92 47 45
        E 132 81 29 00
        E 0 82 31 00
        E 0 82 46 00
        E 226 92 45 5a
        E 60 82 3d 00
        E 0 80 22 00
        E 0 81 2c 00
        E 299 90 25 5a
        E 0 92 44 5a
        E 358 91 31 5a
        E 0 91 34 5a
        E 240 81 35 00
        E 0 82 48 00
        E 0 81 3d 00
        E 0 82 5e 00
        E 119 91 2f 5a
        E 0 92 34 5a
        E 0 92 5d 5a
        E 239 80 2a 00
        E 0 81 32 00
        E 0 82 5f 00
        E 34 90 27 5a
        E 0 91 29 5a
        E 0 92 4a 5a
        E 0 92 52 5a
        E 274 92 46 5a
        E 0 92 56 5a
        E 409 80 23 00
        E 0 82 2d 00
        E 138 92 54 5a
        E 218 90 29 5a
        E 0 91 2c 5a
        E 0 92 57 5a
        E 0 92 60 5a
        E 2 82 3e 00
        E 0 82 2f 00
        E 217 92 3c 5a
        E 0 92 4b 5a
        E 142 80 26 00
        E 358 80 24 00
        E 359 81 2a 00
        E 0 81 28 00
        E 0 82 45 00
        E 0 80 25 00
        E 358 82 39 00
        E 0 82 47 00
        E 0 81 34 00
        E 274 80 2c 00
        E 0 81 31 00
        E 0 81 2f 00
        E 0 82 34 00
        E 0 82 5d 00
        E 273 82 4a 00
        E 0 82 52 00
        E 120 90 21 36
        E 0 91 23 36
        E 0 91 26 36
        E 0 92 2a 36
        E 0 92 31 36
        E 427 82 46 00
        E 0 82 56 00
        E 219 82 44 00
        E 0 80 27 00
        E 0 81 29 00
        E 0 82 54 00
        E 169 90 23 36
        E 0 91 2a 36
        E 0 92 5d 36
        E 50 82 57 00
        E 0 82 60 00
        E 1581 90 24 36
        E 0 91 29 36
        E 0 92 33 36
        E 0 92 55 36
        E 303 81 2b 00
        E 0 80 29 00
        E 0 82 3c 00
        E 0 82 4b 00
        E 512 90 29 36
        E 0 91 33 36
        E 0 92 60 36
        E 303 80 21 00
        E 0 81 23 00
        E 0 82 2a 00
        E 1327 90 2a 36
        E 0 91 35 36
        E 0 92 5e 36
        E 303 81 26 00
        E 0 82 31 00
        E 0 80 23 00
        E 0 81 2a 00
        E 0 82 5d 00
        E 512 92 46 36
        E 303 80 24 00
        E 0 81 29 00
        E 0 82 33 00
        E 512 92 48 36
        E 815 91 31 36
        E 0 92 52 36
        E 303 82 60 00
        E 351 92 4f 34
        E 309 90 26 34
        E 0 91 2b 34
        E 155 82 55 00
        E 0 82 5e 00
        E 153 92 51 34
        E 308 91 29 34
        E 0 91 34 34
        E 308 90 28 36
        E 0 91 32 36
        E 0 92 45 36
        E 46 80 2a 00
        E 477 91 2a 36
        E 0 92 47 36
        E 524 92 49 36
        E 524 92 55 36
        E 253 81 2c 00
        E 0 80 29 00
        E 0 82 4f 00
        E 308 81 33 00
        E 0 82 52 00
        E 308 81 35 00
        E 0 82 46 00
        E 0 81 2b 00
        E 308 81 34 00
        E 460 90 29 36
        E 0 91 2b 36
        E 0 91 2c 36
        E 0 92 30 36
        E 0 92 57 36
        E 64 82 48 00
        E 0 81 29 00
        E 524 81 31 00
        E 0 80 26 00
        E 0 82 47 00
        E 230 90 24 36
        E 0 91 27 36
        E 0 92 2c 36
        E 0 92 35 36
        E 293 82 51 00
        E 0 82 49 00
        E 1343 91 25 36
        E 0 92 2e 36
        E 294 80 28 00
        E 0 81 32 00
        E 0 82 45 00
        E 0 81 2a 00
        E 0 82 55 00
        E 525 90 2c 36
        E 0 91 31 36
        E 0 91 35 36
        E 0 92 46 36
        E 0 92 54 36
        E 293 80 29 00
        E 0 82 30 00
        E 0 82 57 00
        E 525 90 2a 36
        E 0 91 33 36
        E 0 92 55 36
        E 818 91 36 36
        E 294 81 2b 00
        E 0 81 27 00
        E 0 82 2c 00
        E 364 90 2f 34
        E 309 91 34 34
        E 0 92 47 34
        E 0 92 57 34
        E 145 81 2c 00
        E 0 80 24 00
        E 0 82 35 00
        E 0 81 25 00
        E 0 82 2e 00
        E 164 91 39 34
        E 310 92 4a 34
        E 309 90 26 36
        E 0 91 28 36
        E 0 91 2a 36
        E 0 92 45 36
        E 0 92 49 36
        E 36 81 31 00
        E 0 82 54 00
        E 490 90 28 36
        E 0 91 29 36
        E 0 91 2b 36
        E 0 92 48 36
        E 526 92 51 36
        E 459 81 35 00
        E 66 92 54 36
        E 244 82 46 00
        E 0 81 33 00
        E 0 80 2f 00
        E 309 81 36 00
        E 0 82 57 00
        E 309 80 2c 00
        E 0 82 47 00
        E 310 80 2a 00
        E 0 82 55 00
        E 0 81 34 00
        E 0 81 39 00
        E 0 82 4a 00
        E 525 81 2a 00
        E 0 82 49 00
        E 768 90 29 36
        E 0 91 30 36
        E 0 92 34 36
        E 0 92 39 36
        E 284 82 48 00
        E 0 82 51 00
        E 538 92 32 36
        E 0 92 3b 36
        E 821 91 2f 36
        E 0 92 30 36
        E 284 80 26 00
        E 0 81 28 00
        E 0 81 29 00
        E 376 90 2b 36
        E 0 91 34 36
        E 0 92 3c 36
        E 446 82 45 00
        E 0 82 54 00
        E 82 91 2d 36
        E 739 80 29 00
        E 0 82 34 00
        E 822 81 30 00
        E 0 82 32 00
        E 89 92 3e 36
        E 571 80 28 00
        E 0 81 2b 00
        E 0 82 30 00
        E 254 90 26 36
        E 0 91 28 36
        E 0 91 2b 36
        E 0 92 30 36
        E 0 92 47 36
        E 274 82 39 00
        E 551 91 2a 36
        E 0 92 2f 36
        E 0 92 45 36
        E 825 92 40 36
        E 274 82 3b 00
        E 0 81 2d 00
        E 388 90 28 36
        E 0 92 32 36
        E 0 92 53 36
        E 437 81 2f 00
        E 0 80 2b 00
        E 0 81 34 00
        E 0 82 3c 00
        E 0 82 3e 00
        E 93 92 3e 36
        E 732 81 28 00
        E 0 82 30 00
        E 824 82 45 00
        E 101 90 29 36
        E 0 91 2c 36
        E 0 91 33 36
        E 0 92 54 36
        E 0 92 55 36
        E 562 80 26 00
        E 0 82 2f 00
        E 0 82 40 00
        E 266 90 25 36
        E 0 91 27 36
        E 0 91 29 36
        E 0 92 2c 36
        E 0 92 48 36
        E 264 82 32 00
        E 0 82 53 00
        E 1393 90 22 36
        E 0 92 49 36
        E 263 81 2b 00
        E 0 82 47 00
        E 0 80 28 00
        E 0 82 3e 00
        E 565 90 2a 36
        E 0 91 2e 36
        E 0 92 35 36
        E 0 92 61 36
        E 264 80 29 00
        E 0 81 33 00
        E 0 82 54 00
        E 0 82 55 00
        E 564 90 29 36
        E 0 91 30 36
        E 0 92 33 36
        E 828 92 31 36
        E 0 92 60 36
        E 264 80 25 00
        E 0 81 27 00
        E 0 82 48 00
        E 401 91 2b 34
        E 313 90 27 34
        E 0 92 32 34
        E 114 81 2a 00
        E 0 81 29 00
        E 0 82 2c 00
        E 0 80 22 00
        E 0 82 49 00
        E 200 90 26 34
        E 0 92 5d 34
        E 313 91 29 34
        E 0 92 34 34
        E 313 90 28 36
        E 0 91 2d 36
        E 0 92 54 36
        E 3 80 2a 00
        E 529 91 2a 36
        E 0 92 53 36
        E 299 82 61 00
        E 233 91 32 36
        E 0 92 39 36
        E 0 92 55 36
        E 532 90 25 36
        E 0 91 26 36
        E 0 91 28 36
        E 0 92 2a 36
        E 0 92 2d 36
        E 213 81 2c 00
        E 0 80 29 00
        E 0 82 33 00
        E 313 82 60 00
        E 0 80 27 00
        E 313 81 2e 00
        E 0 82 35 00
        E 0 81 2b 00
        E 313 81 30 00
        E 0 82 5d 00
        E 0 82 34 00
        E 511 90 23 36
        E 0 91 25 36
        E 21 82 32 00
        E 0 81 29 00
        E 0 82 54 00
        E 533 82 31 00
        E 0 80 26 00
        E 0 81 2d 00
        E 0 82 53 00
        E 278 92 2f 36
        E 0 92 5d 36
        E 254 80 28 00
        E 0 81 32 00
        E 0 82 39 00
        E 0 82 55 00
        E 577 90 26 36
        E 0 92 5b 36
        E 832 91 2b 36
        E 668 90 21 36
        E 0 92 32 36
        E 0 92 47 36
        E 417 81 26 00
        E 0 82 2a 00
        E 0 82 2d 00
        E 0 80 23 00
        E 0 81 25 00
        E 117 90 2a 36
        E 0 91 32 36
        E 715 80 25 00
        E 831 81 28 00
        E 0 82 5b 00
        E 124 90 28 36
        E 0 92 5b 36
        E 544 82 2f 00
        E 0 80 26 00
        E 291 91 34 36
        E 0 92 3b 36
        E 0 92 3e 36
        E 244 80 21 00
        E 0 82 32 00
        E 591 91 39 36
        E 0 92 3c 36
        E 835 91 3b 36
        E 243 82 5d 00
        E 427 91 2f 36
        E 0 92 32 36
        E 408 81 2a 00
        E 0 82 47 00
        E 0 81 32 00
        E 0 82 5b 00
        E 129 90 23 36
        E 0 91 28 36
        E 0 92 48 36
        E 706 80 2a 00
        E 0 81 34 00
        E 835 82 3b 00
        E 0 81 39 00
        E 135 90 27 36
        E 0 91 29 36
        E 0 91 2a 36
        E 0 92 52 36
        E 0 92 55 36
        E 536 82 3e 00
        E 0 82 3c 00
        E 0 81 3b 00
        E 135 92 46 36
        E 0 92 61 36
        E 401 80 28 00
        E 0 81 2f 00
        E 940 91 2c 36
        E 0 92 5f 36
        E 670 90 22 36
        E 0 92 33 36
        E 67 81 2b 00
        E 0 82 32 00
        E 0 80 23 00
        E 0 81 28 00
        E 0 82 48 00
        E 604 90 25 3b
        E 0 91 2e 3b
        E 66 82 52 00
        E 0 82 55 00
        E 605 90 26 3b
        E 0 91 2d 3b
        E 0 92 34 3b
        E 670 91 26 3b
        E 0 92 3b 3b
        E 0 92 45 3b
        E 66 81 29 00
        E 605 91 28 45
        E 0 92 3d 45
        E 66 80 27 00
        E 0 82 46 00
        E 458 90 28 45
        E 0 91 29 45
        E 0 91 2b 45
        E 0 92 3c 45
        E 213 81 2c 00
        E 0 80 22 00
        E 311 92 30 45
        E 0 92 39 45
        E 359 82 5f 00
        E 0 82 33 00
        E 0 81 2e 00
        E 574 90 27 5a
        E 0 91 2c 5a
        E 0 92 3a 5a
        E 97 81 2a 00
        E 0 82 61 00
        E 0 81 2d 00
        E 0 82 34 00
        E 312 90 24 5a
        E 0 92 33 5a
        E 0 92 41 5a
        E 358 80 25 00
        E 0 81 26 00
        E 0 82 3b 00
        E 51 90 2b 5a
        E 0 91 35 5a
        E 0 92 48 5a
        E 0 92 57 5a
        E 313 90 25 5a
        E 0 91 26 5a
        E 0 92 2d 5a
        E 0 92 2f 5a
        E 160 82 3d 00
        E 152 90 21 5a
        E 0 91 25 5a
        E 0 92 2a 5a
        E 0 92 3b 5a
        E 372 82 45 00
        E 0 82 3c 00
        E 252 92 2b 5a
        E 250 90 2a 5a
        E 0 91 32 5a
        E 0 92 45 5a
        E 0 92 47 5a
        E 22 80 26 00
        E 0 81 28 00
        E 0 81 29 00
        E 228 92 32 5a
        E 181 80 28 00
        E 0 82 39 00
        E 410 82 30 00
        E 0 80 27 00
        E 0 82 3a 00
        E 34 90 27 45
        E 0 91 29 45
        E 0 92 49 45
        E 0 92 54 45
        E 375 80 24 00
        E 0 82 33 00
        E 0 82 41 00
        E 6 92 55 45
        E 306 81 2c 00
        E 0 80 2b 00
        E 0 81 35 00
        E 0 82 57 00
        E 312 80 25 00
        E 0 82 2d 00
        E 0 82 2f 00
        E 145 92 46 45
        E 381 90 22 45
        E 0 91 27 45
        E 0 92 61 45
        E 99 81 26 00
        E 0 81 25 00
        E 250 82 2b 00
        E 32 92 2c 45
        E 0 92 5f 45
        E 218 81 2b 00
        E 0 80 2a 00
        E 0 81 32 00
        E 0 82 45 00
        E 0 82 47 00
        E 163 90 25 45
        E 0 92 2e 45
        E 306 92 53 45
        E 0 92 5e 45
        E 156 80 21 00
        E 0 82 3b 00
        E 0 82 32 00
        E 89 92 52 45
        E 292 82 49 00
        E 0 82 54 00
        E 474 90 26 45
        E 0 91 28 45
        E 0 92 30 45
        E 0 92 39 45
        E 288 82 48 00
        E 18 92 2d 45
        E 0 92 3c 45
        E 363 80 27 00
        E 0 82 55 00
        E 0 82 46 00
        E 249 91 2b 45
        E 133 82 2a 00
        E 0 82 61 00
        E 174 90 29 45
        E 0 91 2e 45
        E 0 92 32 45
        E 0 92 51 45
        E 207 80 22 00
        E 0 82 2c 00
        E 99 91 30 5a
        E 306 91 31 5a
        E 0 92 33 5a
        E 0 92 50 5a
        E 146 82 53 00
        E 0 82 5e 00
        E 160 90 2c 5a
        E 0 91 35 5a
        E 0 91 3a 5a
        E 0 92 3d 5a
        E 0 92 60 5a
        E 306 91 3d 5a
        E 0 92 48 5a
        E 0 92 5e 5a
        E 234 92 2b 5a
        E 0 92 53 5a
        E 65 81 27 00
        E 0 82 5f 00
        E 0 80 25 00
        E 0 82 52 00
        E 168 90 28 5a
        E 0 92 47 5a
        E 139 82 30 00
        E 329 92 30 5a
        E 283 82 2d 00
        E 0 82 3c 00
        E 90 90 24 5a
        E 0 91 26 5a
        E 0 92 2f 5a
        E 216 81 29 00
        E 0 82 2e 00
        E 0 82 39 00
        E 306 81 2b 00
        E 306 81 2e 00
        E 0 82 51 00
        E 86 91 2c 3b
        E 0 92 2e 3b
        E 0 92 55 3b
        E 221 81 30 00
        E 0 81 31 00
        E 0 82 33 00
        E 0 82 50 00
        E 224 90 22 3b
        E 0 91 29 3b
        E 0 92 2c 3b
        E 0 92 61 3b
        E 82 81 3a 00
        E 0 82 3d 00
        E 0 82 60 00
        E 233 80 2c 00
        E 0 81 35 00
        E 0 81 3d 00
        E 0 82 48 00
        E 0 82 5e 00
        E 576 91 2d 3b
        E 312 82 47 00
        E 134 90 21 3b
        E 0 92 3c 3b
        E 53 80 26 00
        E 0 82 53 00
        E 838 91 2b 3b
        E 0 92 3a 3b
        E 75 81 28 00
        E 0 82 2b 00
        E 0 80 24 00
        E 0 81 26 00
        E 0 82 2f 00
        E 370 91 2e 3b
        E 0 92 3e 3b
        E 0 92 45 3b
        E 76 81 2c 00
        E 0 82 2e 00
        E 0 82 55 00
        E 370 90 27 3b
        E 0 91 30 3b
        E 0 92 46 3b
        E 445 91 33 3b
        E 76 80 22 00
        E 0 82 2c 00
        E 0 82 61 00
        E 282 90 2b 36
        E 0 91 2c 36
        E 163 80 28 00
        E 0 82 30 00
        E 0 81 2d 00
        E 6 91 31 36
        E 0 92 3f 36
        E 0 92 48 36
        E 168 90 2a 36
        E 0 92 41 36
        E 168 91 2f 36
        E 0 92 42 36
        E 169 90 23 3b
        E 0 91 27 3b
        E 0 91 2a 3b
        E 0 92 31 3b
        E 286 90 25 3b
        E 0 92 39 3b
        E 94 81 29 00
        E 192 91 26 3b
        E 254 80 21 00
        E 33 90 26 3b
        E 412 81 2e 00
        E 446 81 30 00
        E 36 90 28 3b
        E 322 81 2b 00
        E 0 82 3e 00
        E 126 91 32 3b
        E 0 92 49 3b
        E 42 82 3c 00
        E 0 81 33 00
        E 0 80 2b 00
        E 169 80 29 00
        E 0 82 3f 00
        E 0 82 48 00
        E 168 81 2c 00
        E 0 80 2a 00
        E 0 82 41 00
        E 68 91 2c 3b
        E 0 92 47 3b
        E 100 80 27 00
        E 0 82 46 00
        E 0 82 42 00
        E 287 82 3a 00
        E 0 81 27 00
        E 60 92 36 3b
        E 226 80 25 00
        E 134 90 2a 3b
        E 0 91 34 3b
        E 0 92 55 3b
        E 152 80 23 00
        E 0 81 26 00
        E 135 91 2d 3b
        E 0 92 34 3b
        E 0 92 61 3b
        E 760 81 2f 00
        E 0 82 31 00
        E 0 80 26 00
        E 138 90 2c 3b
        E 0 91 2f 3b
        E 309 82 32 00
        E 140 92 51 3b
        E 0 92 5f 3b
        E 308 81 2a 00
        E 0 81 32 00
        E 0 82 49 00
        E 142 91 33 3b
        E 0 92 4e 3b
        E 305 82 47 00
        E 144 92 4b 3b
        E 215 82 45 00
        E 0 80 28 00
        E 0 82 36 00
        E 145 90 27 3b
        E 0 91 28 3b
        E 0 92 47 3b
        E 143 82 39 00
        E 146 92 3b 3b
        E 752 80 2a 00
        E 150 90 22 3b
        E 0 91 24 3b
        E 0 91 26 3b
        E 0 92 29 3b
        E 0 92 5d 3b
        E 299 81 2d 00
        E 0 82 34 00
        E 0 81 2f 00
        E 62 90 24 3b
        E 0 91 29 3b
        E 0 92 2e 3b
        E 721 90 26 3b
        E 0 91 27 3b
        E 0 92 4f 3b
        E 115 81 33 00
        E 0 82 4e 00
        E 246 92 2b 3b
        E 0 92 3a 3b
        E 115 81 31 00
        E 0 81 34 00
        E 0 80 2c 00
        E 0 82 5f 00
        E 0 82 4b 00
        E 289 82 55 00
        E 0 82 47 00
        E 317 90 23 45
        E 0 92 39 45
        E 361 90 28 45
        E 0 91 2b 45
        E 0 91 32 45
        E 0 92 48 45
        E 0 92 5f 45
        E 224 81 2c 00
        E 0 82 61 00
        E 0 80 27 00
        E 0 82 3b 00
        E 137 91 30 5a
        E 0 92 47 5a
        E 223 80 22 00
        E 0 82 29 00
        E 59 91 2a 5a
        E 0 91 31 5a
        E 0 92 44 5a
        E 282 90 2c 5a
        E 0 91 34 5a
        E 0 91 3d 5a
        E 281 91 2d 5a
        E 0 92 3b 5a
        E 0 92 3d 5a
        E 215 90 22 5a
        E 0 92 33 5a
        E 0 92 56 5a
        E 215 90 29 5a
        E 0 91 33 5a
        E 0 92 5e 5a
        E 30 82 2e 00
        E 0 82 4f 00
        E 361 80 26 00
        E 39 92 54 5a
        E 0 92 5c 5a
        E 172 90 27 5a
        E 0 92 2c 5a
        E 0 92 30 5a
        E 150 81 26 00
        E 0 80 24 00
        E 0 81 27 00
        E 0 82 3a 00
        E 22 90 2b 5a
        E 0 91 2c 5a
        E 0 91 35 5a
        E 0 92 57 5a
        E 339 81 28 00
        E 0 81 24 00
        E 0 82 2b 00
        E 0 80 23 00
        E 0 82 39 00
        E 92 90 25 45
        E 0 91 26 45
        E 0 92 2f 45
        E 0 92 39 45
        E 262 92 2d 45
        E 6 81 32 00
        E 0 82 48 00
        E 0 82 5f 00
        E 282 81 30 00
        E 237 90 23 45
        E 0 92 2b 45
        E 45 82 5d 00
        E 0 80 28 00
        E 0 81 31 00
        E 0 82 44 00
        E 218 90 2a 45
        E 0 91 32 45
        E 64 81 3d 00
        E 198 90 28 45
        E 0 92 49 45
        E 17 80 2c 00
        E 0 81 34 00
        E 0 81 2d 00
        E 0 82 3d 00
        E 215 80 22 00
        E 0 82 33 00
        E 31 90 26 45
        E 0 91 31 45
        E 211 92 45 45
        E 188 82 56 00
        E 0 82 5e 00
        E 172 80 29 00
        E 0 81 33 00
        E 0 82 5c 00
        E 172 81 29 00
        E 0 81 2b 00
        E 0 80 27 00
        E 0 82 2c 00
        E 0 82 30 00
        E 163 90 22 45
        E 0 92 3f 45
        E 0 92 60 45
        E 211 91 3f 45
        E 0 92 5e 45
        E 57 82 54 00
        E 0 81 35 00
        E 0 82 57 00
        E 262 82 2f 00
        E 103 90 29 45
        E 0 92 61 45
        E 211 91 30 45
        E 0 92 33 45
        E 210 91 2e 5a
        E 0 92 31 5a
        E 0 92 48 5a
        E 1 82 2d 00
        E 210 92 32 5a
        E 52 80 23 00
        E 0 82 2b 00
        E 159 91 29 5a
        E 0 92 30 5a
        E 0 92 5d 5a
        E 104 80 2a 00
        E 262 81 32 00
        E 0 80 28 00
        E 6 90 2a 5a
        E 0 91 34 5a
        E 0 92 57 5a
        E 161 90 27 5a
        E 0 92 2f 5a
        E 0 92 40 5a
        E 44 82 51 00
        E 0 81 31 00
        E 277 92 2d 5a
        E 258 90 21 5a
        E 0 92 34 5a
        E 0 92 55 5a
        E 161 82 47 00
        E 211 82 3f 00
        E 421 80 2b 00
        E 0 82 5e 00
        E 211 82 60 00
        E 0 81 3f 00
        E 211 82 49 00
        E 0 81 30 00
        E 0 82 33 00
        E 211 82 31 00
        E 0 82 48 00
        E 211 80 29 00
        E 0 82 32 00
        E 211 80 26 00
        E 0 81 2e 00
        E 0 82 5d 00
        E 160 81 26 00
        E 0 82 39 00
        E 0 80 22 00
        E 0 81 29 00
        E 0 82 30 00
        E 161 82 3b 00
        E 0 82 57 00
        E 322 80 27 00
        E 0 82 2f 00
        E 129 80 25 00
        E 0 82 40 00
        E 0 82 2d 00
        E 128 82 45 00
        E 0 82 61 00
        E 0 80 2a 00
        E 0 81 34 00
        E 607 90 26 36
        E 0 91 27 36
        E 0 91 2b 36
        E 0 92 3c 36
        E 0 92 46 36
        E 2346 80 26 00
        E 0 81 27 00
        E 0 81 2b 00
        E 0 82 3c 00
        E 0 82 46 00
        E 275 90 26 36
        E 0 91 27 36
        E 0 91 2b 36
        E 0 92 3a 36
        E 0 92 48 36
        E 127 81 2a 00
        E 0 81 2c 00
        E 0 80 21 00
        E 0 82 34 00
        E 0 82 55 00
        E 2220 80 26 00
        E 0 81 27 00
        E 0 81 2b 00
        E 0 82 3a 00
        E 0 82 48 00
        E 275 90 26 36
        E 0 91 27 36
        E 0 91 2b 36
        E 0 92 3a 36
        E 0 92 48 36
        E 2346 80 26 00
        E 0 81 27 00
        E 0 81 2b 00
        E 0 82 3a 00
        E 0 82 48 00
        E 275 90 27 36
        E 0 91 29 36
        E 0 91 2b 36
        E 0 92 38 36
        E 0 92 48 36
        E 2347 80 27 00
        E 0 81 29 00
        E 0 81 2b 00
        E 0 82 38 00
        E 0 82 48 00
        E 275 90 24 36
        E 0 91 29 36
        E 0 91 2b 36
        E 0 92 2c 36
        E 0 92 3f 36
        E 2346 80 24 00
        E 0 81 29 00
        E 0 81 2b 00
        E 0 82 2c 00
        E 0 82 3f 00
        E 275 90 24 36
        E 0 91 29 36
        E 0 91 2c 36
        E 0 92 2e 36
        E 0 92 3d 36
        E 2347 80 24 00
        E 0 81 29 00
        E 0 81 2c 00
        E 0 82 2e 00
        E 0 82 3d 00
        E 275 90 22 36
        E 0 91 29 36
        E 0 91 2a 36
        E 0 92 2c 36
        E 0 92 3d 36
        E 1830 80 22 00
        E 0 81 29 00
        E 0 81 2a 00
        E 0 82 2c 00
        E 0 82 3d 00
        E 275 90 23 34
        E 0 91 27 34
        E 0 91 2a 34
        E 0 92 2e 34
        E 0 92 3d 34
        E 716 80 23 00
        E 0 81 27 00
        E 0 81 2a 00
        E 0 82 2e 00
        E 0 82 3d 00
        E 275 90 27 34
        E 0 91 28 34
        E 0 91 2a 34
        E 0 92 2c 34
        E 0 92 3b 34
        E 716 80 27 00
        E 0 81 28 00
        E 0 81 2a 00
        E 0 82 2c 00
        E 0 82 3b 00
        E 275 90 25 34
        E 0 91 28 34
        E 0 91 2c 34
        E 0 92 2d 34
        E 0 92 3b 34
        E 716 80 25 00
        E 0 81 28 00
        E 0 81 2c 00
        E 0 82 2d 00
        E 0 82 3b 00
        E 275 90 26 34
        E 0 91 28 34
        E 0 91 2a 34
        E 0 92 2d 34
        E 0 92 3d 34
        E 716 80 26 00
        E 0 81 28 00
        E 0 81 2a 00
        E 0 82 2d 00
        E 0 82 3d 00
        E 275 90 21 36
        E 0 91 26 36
        E 0 91 28 36
        E 0 92 2a 36
        E 0 92 3d 36
        E 1684 91 29 36
        E 0 92 2b 36
        E 0 92 3c 36
        E 1685 90 2b 36
        E 0 91 2d 36
        E 0 91 30 36
        E 0 92 34 36
        E 0 92 47 36
        E 1064 81 26 00
        E 0 82 2a 00
        E 0 82 3d 00
        E 620 91 2b 36
        E 0 92 53 36
        E 1064 81 28 00
        E 0 81 29 00
        E 0 82 2b 00
        E 0 82 3c 00
        E 1685 80 2b 00
        E 0 81 2d 00
        E 0 82 47 00
        E 2515 90 27 36
        E 0 91 2a 36
        E 0 91 2f 36
        E 0 92 31 36
        E 0 92 46 36
        E 2632 91 31 36
        E 0 92 3a 36
        E 0 92 3b 36
        E 117 80 21 00
        E 0 81 30 00
        E 0 82 34 00
        E 0 81 2b 00
        E 0 82 53 00
        E 2632 81 2f 00
        E 0 82 31 00
        E 0 82 46 00
        E 2515 90 28 36
        E 0 91 33 36
        E 0 92 38 36
        E 2632 90 23 36
        E 0 91 2c 36
        E 0 92 34 36
        E 0 92 3f 36
        E 117 80 27 00
        E 0 81 31 00
        E 0 82 3a 00
        E 2515 90 22 36
        E 0 91 2f 36
        E 0 92 33 36
        E 0 92 3d 36
        E 117 82 3b 00
        E 0 80 28 00
        E 0 81 33 00
        E 0 82 38 00
        E 2515 91 29 36
        E 117 80 23 00
        E 0 81 2c 00
        E 0 82 34 00
        E 0 82 3f 00
        E 1997 90 24 34
        E 0 91 2c 34
        E 0 92 31 34
        E 0 92 3a 34
        E 635 81 2f 00
        E 360 92 37 34
        E 995 91 27 34
        E 0 91 2e 34
        E 0 92 32 34
        E 759 81 2a 00
        E 0 80 22 00
        E 0 82 3d 00
        E 236 90 22 34
        E 0 91 2d 34
        E 759 82 31 00
        E 0 82 3a 00
        E 236 90 21 36
        E 0 91 2b 36
        E 0 92 3a 36
        E 0 92 3e 36
        E 759 82 33 00
        E 0 81 2c 00
        E 932 90 23 36
        E 0 91 28 36
        E 0 92 36 36
        E 63 80 24 00
        E 0 81 27 00
        E 0 81 2e 00
        E 994 82 37 00
        E 0 82 32 00
        E 0 80 22 00
        E 0 81 2d 00
        E 634 92 30 36
        E 0 92 32 36
        E 1058 81 29 00
        E 0 80 21 00
        E 0 82 3a 00
        E 634 90 28 36
        E 0 91 30 36
        E 0 92 5f 36
        E 1057 82 3e 00
        E 0 82 36 00
        E 1691 80 23 00
        E 0 81 28 00
        E 0 82 30 00
        E 2537 90 2c 36
        E 0 91 31 36
        E 0 91 35 36
        E 0 92 3c 36
        E 0 92 52 36
        E 2642 92 46 36
        E 0 92 48 36
        E 106 81 2b 00
        E 0 82 32 00
        E 0 80 28 00
        E 0 81 30 00
        E 0 82 5f 00
        E 2643 82 3c 00
        E 0 82 52 00
        E 2537 90 2a 36
        E 0 91 33 36
        E 0 92 49 36
        E 2642 90 22 36
        E 0 91 27 36
        E 0 91 29 36
        E 0 92 2a 36
        E 0 92 31 36
        E 106 80 2c 00
        E 0 81 31 00
        E 0 82 48 00
        E 2537 91 2a 36
        E 0 92 2c 36
        E 0 92 2f 36
        E 106 81 35 00
        E 0 82 46 00
        E 0 80 2a 00
        E 0 81 33 00
        E 0 82 49 00
        E 2536 90 27 36
        E 0 91 28 36
        E 106 81 29 00
        E 0 82 2a 00
        E 0 82 31 00
        E 2017 90 23 34
        E 0 91 2c 34
        E 0 92 2d 34
        E 0 92 31 34
        E 626 80 22 00
        E 0 81 27 00
        E 373 90 26 34
        E 999 91 26 34
        E 0 92 2b 34
        E 750 82 2c 00
        E 0 82 2f 00
        E 0 80 27 00
        E 248 90 24 34
        E 0 92 2f 34
        E 751 81 2c 00
        E 248 92 5f 36
        E 751 82 31 00
        E 0 80 26 00
        E 947 90 26 36
        E 0 91 27 36
        E 0 91 29 36
        E 0 92 5e 36
        E 52 81 2a 00
        E 0 80 23 00
        E 0 82 2d 00
        E 999 82 2f 00
        E 647 90 29 36
        E 0 91 2b 36
        E 0 91 2d 36
        E 0 92 32 36
        E 0 92 3a 36
        E 1051 81 28 00
        E 0 81 26 00
        E 0 80 24 00
        E 0 82 5f 00
        E 647 90 21 36
        E 0 92 46 36
        E 1051 82 2b 00
        E 0 80 26 00
        E 0 81 27 00
        E 0 82 5e 00
        E 1698 80 29 00
        E 0 81 2d 00
        E 0 82 3a 00
        E 2558 90 26 36
        E 0 92 33 36
        E 2653 90 27 36
        E 0 92 4a 36
        E 0 92 5e 36
        E 95 82 32 00
        E 0 80 21 00
        E 2558 91 2d 36
        E 0 92 48 36
        E 96 82 46 00
        E 0 82 33 00
        E 2557 91 28 36
        E 0 92 5d 36
        E 96 81 2b 00
        E 0 80 27 00
        E 0 82 4a 00
        E 2653 82 5e 00
        E 0 81 2d 00
        E 1087 92 51 36
        E 0 92 54 36
        E 2749 82 48 00
        E 0 82 5d 00
        E 2579 90 24 36
        E 0 91 26 36
        E 0 92 52 36
        E 2664 90 21 36
        E 0 92 30 36
        E 85 80 26 00
        E 0 81 28 00
        E 0 82 54 00
        E 2579 91 28 36
        E 0 92 2b 36
        E 0 92 54 36
        E 85 82 51 00
        E 0 80 24 00
        E 2579 91 24 36
        E 0 92 53 36
        E 84 81 26 00
        E 0 82 52 00
        E 0 82 30 00
        E 2055 90 2b 36
        E 0 91 2d 36
        E 0 91 34 36
        E 0 92 3c 36
        E 0 92 5f 36
        E 609 81 29 00
        E 0 82 54 00
        E 1103 91 23 36
        E 0 91 2b 36
        E 0 92 34 36
        E 0 92 48 36
        E 1037 81 28 00
        E 0 82 2b 00
        E 0 81 24 00
        E 0 82 53 00
        E 1712 80 2b 00
        E 0 81 2d 00
        E 0 81 34 00
        E 0 82 3c 00
        E 0 82 5f 00
        E 2600 90 27 36
        E 0 91 2a 36
        E 0 91 2e 36
        E 0 92 31 36
        E 0 92 3b 36
        E 2675 90 22 36
        E 0 91 27 36
        E 0 92 47 36
        E 74 80 21 00
        E 0 81 23 00
        E 0 81 2b 00
        E 0 82 34 00
        E 0 82 48 00
        E 2674 80 27 00
        E 0 81 2e 00
        E 0 82 3b 00
        E 2601 90 23 36
        E 0 91 28 36
        E 0 92 33 36
        E 0 92 44 36
        E 2674 90 2a 36
        E 0 91 2c 36
        E 0 91 34 36
        E 0 92 3f 36
        E 0 92 53 36
        E 74 82 31 00
        E 0 80 22 00
        E 0 81 27 00
        E 0 82 47 00
        E 2601 91 2e 36
        E 0 91 33 36
        E 0 92 3d 36
        E 74 81 2a 00
        E 0 80 23 00
        E 0 81 28 00
        E 0 82 33 00
        E 0 82 44 00
        E 2600 90 29 36
        E 0 91 2a 36
        E 0 92 52 36
        E 74 81 2c 00
        E 0 81 34 00
        E 0 82 3f 00
        E 2075 91 2c 34
        E 0 91 31 34
        E 0 92 3c 34
        E 600 80 2a 00
        E 0 82 53 00
        E 0 81 2e 00
        E 411 92 4f 34
        E 1011 90 27 34
        E 0 91 2e 34
        E 0 91 32 34
        E 726 82 3d 00
        E 0 81 2a 00
        E 284 92 39 34
        E 727 82 52 00
        E 0 81 31 00
        E 284 91 2b 36
        E 0 91 3a 36
        E 0 92 3e 36
        E 0 92 51 36
        E 727 81 33 00
        E 0 81 2c 00
        E 992 90 28 36
        E 0 91 3b 36
        E 0 92 4e 36
        E 19 82 3c 00
        E 0 80 27 00
        E 1011 82 4f 00
        E 0 81 2e 00
        E 0 81 32 00
        E 0 82 39 00
        E 689 91 30 36
        E 0 92 32 36
        E 0 92 53 36
        E 1030 80 29 00
        E 0 81 3a 00
        E 0 82 51 00
        E 688 91 32 36
        E 0 92 3c 36
        E 0 92 47 36
        E 1030 82 3e 00
        E 0 81 3b 00
        E 0 82 4e 00
        E 1719 81 30 00
        E 0 82 32 00
        E 0 82 53 00
        E 2622 90 2a 36
        E 0 91 34 36
        E 0 92 3e 36
        E 2685 92 56 36
        E 63 80 28 00
        E 0 81 32 00
        E 0 82 3c 00
        E 2622 90 2b 36
        E 0 91 2d 36
        E 0 92 54 36
        E 64 82 3e 00
        E 2622 90 29 36
        E 0 92 45 36
        E 63 80 2a 00
        E 0 82 56 00
        E 2093 92 60 36
        E 592 82 47 00
        E 0 80 2b 00
        E 0 81 2d 00
        E 1134 90 28 36
        E 0 91 29 36
        E 0 92 30 36
        E 0 92 39 36
        E 1023 82 54 00
        E 1726 81 34 00
        E 0 80 29 00
        E 0 82 45 00
        E 0 82 60 00
        E 2643 90 23 36
        E 0 91 28 36
        E 2696 91 34 36
        E 0 92 3c 36
        E 0 92 5d 36
        E 53 80 28 00
        E 0 81 29 00
        E 2643 90 26 36
        E 0 91 29 36
        E 53 82 30 00
        E 0 82 39 00
        E 0 81 28 00
        E 2643 91 30 36
        E 0 92 3a 36
        E 53 81 2b 00
        E 0 80 23 00
        E 2113 90 24 36
        E 0 91 26 36
        E 0 92 51 36
        E 0 92 5e 36
        E 583 81 34 00
        E 0 82 3c 00
        E 1149 90 22 36
        E 0 92 30 36
        E 0 92 45 36
        E 1016 82 5d 00
        E 0 80 26 00
        E 0 81 30 00
        E 0 82 3a 00
        E 1733 80 24 00
        E 0 82 51 00
        E 0 82 5e 00
        E 2665 91 2a 36
        E 0 91 2c 36
        E 0 92 33 36
        E 0 92 5f 36
        E 2707 90 2a 36
        E 0 91 33 36
        E 0 92 5e 36
        E 42 81 29 00
        E 0 81 26 00
        E 0 82 30 00
        E 0 82 45 00
        E 2707 80 22 00
        E 0 81 2a 00
        E 0 82 33 00
        E 2665 90 27 36
        E 0 91 34 36
        E 0 92 61 36
        E 2707 91 28 36
        E 0 92 2f 36
        E 0 92 49 36
        E 41 80 2a 00
        E 0 81 33 00
        E 0 82 5e 00
        E 2666 90 28 36
        E 0 91 2a 36
        E 0 92 2d 36
        E 41 82 5f 00
        E 0 81 34 00
        E 0 82 61 00
        E 2666 90 26 36
        E 41 80 27 00
        E 0 82 2f 00
        E 2133 90 23 34
        E 0 91 2b 34
        E 0 92 4a 34
        E 574 81 2c 00
        E 0 80 28 00
        E 449 90 24 34
        E 0 92 2f 34
        E 1023 90 21 34
        E 0 92 30 34
        E 0 92 4d 34
        E 702 82 49 00
        E 0 81 2a 00
        E 0 80 26 00
        E 321 90 22 34
        E 0 91 26 34
        E 0 91 2d 34
        E 702 82 2d 00
        E 0 80 23 00
        E 321 91 29 36
        E 0 92 2d 36
        E 0 92 46 36
        E 703 82 4a 00
        E 0 82 2f 00
        E 1023 81 28 00
        E 0 81 2b 00
        E 0 80 21 00
        E 14 90 25 36
        E 0 91 27 36
        E 0 92 2c 36
        E 0 92 48 36
        E 1009 82 30 00
        E 0 82 4d 00
        E 0 80 22 00
        E 0 81 2d 00
        E 730 90 29 36
        E 0 91 2b 36
        E 0 91 2c 36
        E 0 92 4b 36
        E 1009 80 24 00
        E 0 81 26 00
        E 0 82 2d 00
        E 0 82 46 00
        E 731 92 3c 36
        E 0 92 57 36
        E 1009 81 29 00
        E 0 80 25 00
        E 0 81 27 00
        E 0 82 2c 00
        E 1739 82 48 00
        E 0 82 4b 00
        E 2687 90 21 36
        E 0 91 2a 36
        E 0 92 3e 36
        E 0 92 53 36
        E 2718 90 2a 36
        E 0 91 3e 36
        E 0 92 5d 36
        E 31 80 29 00
        E 0 81 2c 00
        E 0 82 3c 00
        E 0 82 57 00
        E 2717 81 2b 00
        E 0 80 21 00
        E 0 81 2a 00
        E 0 82 3e 00
        E 2687 90 28 36
        E 0 92 54 36
        E 0 92 5f 36
        E 2718 91 2f 36
        E 0 92 32 36
        E 0 92 3c 36
        E 31 82 53 00
        E 0 80 2a 00
        E 0 82 5d 00
        E 2687 90 2a 36
        E 0 91 2d 36
        E 0 92 2f 36
        E 0 92 3e 36
        E 31 81 3e 00
        E 0 82 54 00
        E 0 82 5f 00
        E 2687 90 26 36
        E 0 91 2a 36
        E 0 92 3d 36
        E 31 80 28 00
        E 0 81 2f 00
        E 0 82 32 00
        E 0 82 3c 00
        E 2152 90 28 34
        E 0 91 2c 34
        E 0 92 2d 34
        E 565 80 2a 00
        E 0 82 3e 00
        E 462 90 27 34
        E 0 91 28 34
        E 1027 92 3a 34
        E 694 81 2d 00
        E 0 80 26 00
        E 334 91 29 34
        E 0 92 31 34
        E 694 80 28 00
        E 0 82 2d 00
        E 333 90 29 36
        E 0 91 33 36
        E 694 81 28 00
        E 1027 82 2f 00
        E 0 81 2c 00
        E 25 91 2b 36
        E 0 91 32 36
        E 0 92 3c 36
        E 1002 81 2a 00
        E 0 81 29 00
        E 0 82 31 00
        E 744 90 2b 36
        E 0 91 2c 36
        E 0 91 3f 36
        E 0 92 46 36
        E 0 92 48 36
        E 1003 82 3d 00
        E 0 80 29 00
        E 0 81 33 00
        E 744 91 3a 36
        E 0 92 3f 36
        E 0 92 54 36
        E 1002 80 27 00
        E 0 82 3a 00
        E 0 81 2b 00
        E 0 81 32 00
        E 0 82 3c 00
        E 1746 81 3f 00
        E 0 82 46 00
        E 0 82 48 00
        E 2709 90 27 36
        E 0 91 2b 36
        E 0 92 3e 36
        E 2729 90 22 36
        E 0 91 24 36
        E 0 91 26 36
        E 0 92 27 36
        E 0 92 2b 36
        E 20 80 2b 00
        E 0 81 2c 00
        E 0 82 3f 00
        E 2709 90 24 36
        E 0 91 27 36
        E 0 91 29 36
        E 0 92 2c 36
        E 20 81 3a 00
        E 0 82 54 00
        E 0 80 27 00
        E 0 81 2b 00
        E 0 82 3e 00
        E 2708 91 25 36
        E 0 92 29 36
        E 20 80 22 00
        E 0 81 24 00
        E 0 81 26 00
        E 0 82 27 00
        E 2729 82 2b 00
        E 0 81 29 00
        E 1196 90 25 36
        E 0 91 29 36
        E 0 92 60 36
        E 2749 80 24 00
        E 0 81 25 00
        E 0 82 29 00
        E 2731 90 27 36
        E 0 91 2b 36
        E 2739 90 2b 36
        E 0 91 2c 36
        E 0 91 33 36
        E 0 92 35 36
        E 0 92 48 36
        E 9 81 27 00
        E 0 80 25 00
        E 2731 90 2c 36
        E 0 91 2e 36
        E 0 91 31 36
        E 9 82 2c 00
        E 0 81 29 00
        E 0 82 60 00
        E 0 80 27 00
        E 0 81 2b 00
        E 2731 90 2a 36
        E 0 92 46 36
        E 9 80 2b 00
        E 0 81 33 00
        E 2739 82 48 00
        E 0 80 2c 00
        E 0 81 2e 00
        E 1213 91 35 36
        E 0 92 3a 36
        E 0 92 3d 36
        E 2748 82 35 00
        E 0 81 31 00
        E 0 82 46 00
        E 2753 90 28 36
        E 0 91 2a 36
        E 0 91 2b 36
        E 0 92 53 36
        E 0 92 56 36
        E 2748 81 2c 00
        E 0 80 2a 00
        E 0 81 35 00
        E 0 82 3a 00
        E 0 82 3d 00
        E 3 92 47 36
        E 0 92 62 36
        E 2748 82 53 00
        E 0 82 56 00
        E 2753 91 2d 36
        E 0 92 60 36
        E 2748 81 2a 00
        E 0 82 62 00
        E 2 90 21 36
        E 0 91 30 36
        E 0 92 34 36
        E 0 92 5f 36
        E 2749 80 28 00
        E 0 82 47 00
        E 0 81 2d 00
        E 0 82 60 00
        E 2 91 29 36
        E 0 91 32 36
        E 0 92 60 36
        E 2749 81 2b 00
        E 0 81 30 00
        E 0 82 5f 00
        E 2 91 30 36
        E 0 92 32 36
        E 0 92 5e 36
        E 2209 90 22 34
        E 0 92 33 34
        E 0 92 5b 34
        E 539 82 34 00
        E 0 82 60 00
        E 501 91 2c 34
        E 1040 90 25 34
        E 0 92 5c 34
        E 669 80 21 00
        E 0 82 32 00
        E 0 82 5e 00
        E 370 91 2a 34
        E 0 91 2e 34
        E 0 92 35 34
        E 669 81 32 00
        E 371 92 2c 36
        E 0 92 61 36
        E 669 82 5b 00
        E 0 81 2c 00
        E 1040 81 30 00
        E 0 82 33 00
        E 58 90 23 36
        E 0 91 28 36
        E 0 91 2c 36
        E 0 92 2d 36
        E 982 80 25 00
        E 0 82 5c 00
        E 0 81 2e 00
        E 0 82 35 00
        E 786 91 27 36
        E 0 92 55 36
        E 981 81 29 00
        E 0 80 22 00
        E 0 81 2a 00
        E 786 90 27 36
        E 0 92 5f 36
        E 981 82 61 00
        E 0 82 2d 00
        E 1768 82 2c 00
        E 0 80 23 00
        E 0 81 28 00
        E 0 81 27 00
        E 2775 90 25 36
        E 0 92 53 36
        E 0 92 5d 36
        E 2748 82 55 00
        E 0 80 27 00
        E 0 82 5f 00
        E 14 90 2c 36
        E 0 91 2f 36
        E 0 91 34 36
        E 0 92 3d 36
        E 2748 81 2c 00
        E 0 80 25 00
        E 0 82 53 00
        E 13 92 3f 36
        E 0 92 5a 36
        E 2749 82 5d 00
        E 0 82 3d 00
        E 13 91 36 36
        E 0 92 5e 36
        E 2218 90 2a 36
        E 0 91 2c 36
        E 530 81 34 00
        E 0 82 5a 00
        E 1245 91 3b 36
        E 0 92 52 36
        E 974 80 2c 00
        E 0 81 36 00
        E 1774 81 2f 00
        E 0 82 5e 00
        E 2797 91 3f 36
        E 0 92 40 36
        E 0 92 53 36
        E 2749 82 3f 00
        E 0 81 3b 00
        E 0 82 52 00
        E 24 90 28 36
        E 0 91 2a 36
        E 0 92 2f 36
        E 0 92 3f 36
        E 2749 80 2a 00
        E 0 81 3f 00
        E 0 82 40 00
        E 0 82 53 00
        E 24 90 27 36
        E 0 91 2e 36
        E 0 92 3d 36
        E 2748 81 2c 00
        E 0 80 28 00
        E 0 82 3f 00
        E 25 91 29 36
        E 0 92 2e 36
        E 2748 82 2f 00
        E 0 81 2e 00
        E 1261 90 22 36
        E 0 91 27 36
        E 0 92 2a 36
        E 0 92 49 36
        E 2748 81 2a 00
        E 0 80 27 00
        E 0 82 3d 00
        E 0 82 2e 00
        E 2819 90 24 33
        E 0 91 25 33
        E 0 92 2c 33
        E 0 92 46 33
        E 369 81 25 00
        E 0 82 46 00
        E 0 92 43 33
        E 369 81 29 00
        E 0 82 2c 00
        E 0 91 26 33
        E 0 92 2e 33
        E 369 81 27 00
        E 0 80 24 00
        E 0 82 2e 00
        E 0 91 29 33
        E 0 92 2d 33
        E 1642 82 2a 00
        E 0 82 49 00
        E 1766 90 23 33
        E 0 91 28 33
        E 0 92 2b 33
        E 0 92 42 33
        E 1471 90 26 33
        E 0 91 2b 33
        E 0 92 2f 33
        E 0 92 60 33
        E 1278 80 22 00
        E 0 82 43 00
        E 0 81 29 00
        E 0 82 2d 00
        E 192 91 2a 34
        E 0 92 5f 34
        E 1149 90 25 34
        E 0 91 27 34
        E 0 92 2c 34
        E 129 81 26 00
        E 0 80 23 00
        E 0 82 42 00
        E 1020 90 21 34
        E 0 91 2c 34
        E 0 91 31 34
        E 0 92 34 34
        E 451 81 2b 00
        E 0 82 2f 00
        E 0 82 60 00
        E 697 90 27 36
        E 451 81 28 00
        E 0 82 2b 00
        E 0 80 26 00
        E 0 81 2a 00
        E 447 91 30 36
        E 0 92 35 36
        E 0 92 5e 36
        E 702 81 27 00
        E 0 82 2c 00
        E 195 90 29 36
        E 0 91 2a 36
        E 0 92 49 36
        E 0 92 52 36
        E 898 91 29 3b
        E 0 92 48 3b
        E 56 80 21 00
        E 645 90 26 3b
        E 0 91 2b 3b
        E 0 92 46 3b
        E 0 92 51 3b
        E 252 82 5f 00
        E 0 81 31 00
        E 0 82 34 00
        E 0 80 27 00
        E 449 90 27 3b
        E 0 92 32 3b
        E 0 92 3a 3b
        E 449 81 30 00
        E 0 82 35 00
        E 0 82 5e 00
        E 252 91 33 3b
        E 0 92 56 3b
        E 0 92 5e 3b
        E 535 90 2c 3b
        E 0 91 31 3b
        E 0 91 34 3b
        E 0 92 47 3b
        E 110 81 2a 00
        E 0 82 49 00
        E 425 92 45 3b
        E 0 92 53 3b
        E 276 80 25 00
        E 0 81 2c 00
        E 0 82 52 00
        E 0 82 48 00
        E 701 80 26 00
        E 0 82 46 00
        E 93 92 42 3b
        E 428 90 28 3b
        E 0 91 2a 3b
        E 0 91 2c 3b
        E 0 92 55 3b
        E 0 92 5d 3b
        E 181 81 29 00
        E 0 80 27 00
        E 0 82 32 00
        E 0 82 3a 00
        E 247 92 39 3b
        E 0 92 49 3b
        E 288 80 29 00
        E 0 81 2b 00
        E 0 81 33 00
        E 0 82 56 00
        E 0 82 5e 00
        E 534 82 47 00
        E 248 90 22 36
        E 0 91 26 36
        E 0 91 27 36
        E 0 92 2b 36
        E 0 92 60 36
        E 653 90 26 36
        E 0 91 2b 36
        E 0 92 5e 36
        E 169 82 45 00
        E 0 82 53 00
        E 428 82 51 00
        E 0 80 2c 00
        E 0 81 31 00
        E 0 81 34 00
        E 0 82 42 00
        E 428 82 55 00
        E 0 82 5d 00
        E 281 90 25 36
        E 0 91 29 36
        E 0 92 5c 36
        E 653 92 30 36
        E 0 92 33 36
        E 137 80 28 00
        E 0 81 2a 00
        E 0 82 39 00
        E 0 82 49 00
        E 516 90 27 36
        E 0 92 2e 36
        E 137 80 22 00
        E 0 81 26 00
        E 0 82 2b 00
        E 1041 90 24 36
        E 0 92 32 36
        E 265 82 5e 00
        E 154 90 22 36
        E 499 82 60 00
        E 0 82 5c 00
        E 653 80 25 00
        E 0 81 29 00
        E 0 82 33 00
        E 160 91 28 36
        E 0 91 2a 36
        E 0 92 3d 36
        E 0 92 51 36
        E 493 81 2c 00
        E 0 81 2b 00
        E 0 80 27 00
        E 31 92 45 36
        E 0 92 49 36
        E 493 82 30 00
        E 420 82 2e 00
        E 0 80 24 00
        E 136 92 47 36
        E 525 90 21 36
        E 524 91 25 3b
        E 126 81 27 00
        E 0 80 22 00
        E 399 90 22 3b
        E 0 91 23 3b
        E 0 92 33 3b
        E 0 92 44 3b
        E 126 82 3d 00
        E 0 82 51 00
        E 398 90 27 3b
        E 0 92 2c 3b
        E 0 92 53 3b
        E 525 91 2c 3b
        E 0 92 2f 3b
        E 0 92 40 3b
        E 126 82 49 00
        E 274 90 24 3b
        E 0 91 26 3b
        E 0 91 29 3b
        E 0 92 2e 3b
        E 0 92 5d 3b
        E 250 80 26 00
        E 0 82 45 00
        E 150 92 3a 3b
        E 0 92 51 3b
        E 800 92 37 3b
        E 99 82 32 00
        E 0 82 47 00
        E 0 80 21 00
        E 0 81 25 00
        E 221 90 29 3b
        E 0 91 2b 3b
        E 0 91 2d 3b
        E 0 92 32 3b
        E 0 92 52 3b
        E 304 81 23 00
        E 0 82 33 00
        E 0 82 44 00
        E 16 91 32 3b
        E 508 81 28 00
        E 0 82 2c 00
        E 0 82 53 00
        E 400 81 2a 00
        E 0 80 27 00
        E 0 81 2c 00
        E 0 82 2f 00
        E 0 82 40 00
        E 400 82 2e 00
        E 0 82 5d 00
        E 257 90 27 34
        E 0 91 28 34
        E 0 91 2c 34
        E 0 92 3b 34
        E 0 92 55 34
        E 544 80 24 00
        E 219 92 2f 34
        E 0 92 61 34
        E 101 80 22 00
        E 0 81 26 00
        E 0 81 29 00
        E 0 82 37 00
        E 320 81 2d 00
        E 0 82 32 00
        E 0 82 52 00
        E 1105 90 2b 34
        E 0 91 3f 34
        E 0 92 46 34
        E 0 92 48 34
        E 459 82 3a 00
        E 0 82 51 00
        E 0 80 29 00
        E 0 81 2b 00
        E 0 81 32 00
        E 305 91 3a 34
        E 0 92 3f 34
        E 0 92 54 34
        E 458 82 3b 00
        E 0 82 55 00
        E 1068 90 29 34
        E 0 91 3d 34
        E 459 80 27 00
        E 0 81 28 00
        E 0 82 2f 00
        E 0 82 61 00
        E 304 91 31 34
        E 0 92 33 34
        E 459 81 3f 00
        E 0 82 46 00
        E 0 82 48 00
        E 304 90 27 34
        E 0 91 30 34
        E 0 92 37 34
        E 0 92 52 34
        E 764 91 2b 34
        E 0 92 32 34
        E 459 80 2b 00
        E 0 81 3a 00
        E 154 90 26 33
        E 0 91 2e 33
        E 0 92 35 33
        E 0 92 51 33
        E 288 91 29 33
        E 0 92 34 33
        E 289 90 24 33
        E 0 91 2f 33
        E 32 82 3f 00
        E 0 81 3d 00
        E 256 92 4e 33
        E 289 90 2a 34
        E 0 91 32 34
        E 0 92 5f 34
        E 218 82 54 00
        E 0 80 29 00
        E 0 81 31 00
        E 0 82 33 00
        E 272 90 28 34
        E 0 91 31 34
        E 0 92 33 34
        E 490 90 21 34
        E 0 91 34 34
        E 0 92 3d 34
        E 0 92 47 34
        E 1 82 37 00
        E 490 90 2c 34
        E 0 91 3d 34
        E 0 92 5d 34
        E 123 80 27 00
        E 0 82 52 00
        E 0 82 32 00
        E 289 81 2e 00
        E 0 82 35 00
        E 288 81 30 00
        E 0 81 29 00
        E 289 82 51 00
        E 0 80 24 00
        E 288 80 26 00
        E 0 81 2f 00
        E 0 82 4e 00
        E 255 91 3f 34
        E 0 92 49 34
        E 236 81 2b 00
        E 0 82 34 00
        E 0 80 2a 00
        E 0 81 32 00
        E 490 80 28 00
        E 0 81 31 00
        E 0 82 33 00
        E 41 90 28 34
        E 0 91 33 34
        E 0 92 55 34
        E 449 80 21 00
        E 0 82 3d 00
        E 317 90 2a 34
        E 0 92 45 34
        E 766 91 2a 34
        E 0 91 32 34
        E 450 81 3d 00
        E 0 82 5d 00
        E 166 92 51 34
        E 492 90 25 34
        E 0 91 26 34
        E 0 91 28 34
        E 0 92 2a 34
        E 108 82 5f 00
        E 0 80 2c 00
        E 0 81 3f 00
        E 0 82 49 00
        E 767 82 47 00
        E 0 81 33 00
        E 664 92 2c 34
        E 102 81 2c 00
        E 0 81 34 00
        E 0 80 2a 00
        E 667 90 21 34
        E 0 91 2c 34
        E 0 92 31 34
        E 0 92 34 34
        E 441 80 28 00
        E 0 82 55 00
        E 0 81 32 00
        E 0 82 51 00
        E 329 91 2d 34
        E 0 92 2f 34
        E 0 92 32 34
        E 769 90 23 34
        E 0 91 2b 34
        E 0 92 2d 34
        E 441 81 26 00
        E 0 82 2a 00
        E 177 92 3e 34
        E 494 90 2a 34
        E 0 91 2f 34
        E 0 92 5d 34
        E 98 82 45 00
        E 0 81 2a 00
        E 0 81 28 00
        E 0 82 2c 00
        E 769 81 2c 00
        E 0 82 31 00
        E 0 82 34 00
        E 678 90 29 34
        E 0 91 2c 34
        E 0 92 3c 34
        E 0 92 3f 34
        E 92 80 25 00
        E 0 81 2d 00
        E 526 92 30 34
        E 0 92 4b 34
        E 92 82 32 00
        E 0 80 23 00
        E 0 82 2d 00
        E 494 80 21 00
        E 0 82 2f 00
        E 650 91 2e 34
        E 0 92 31 34
        E 0 92 48 34
        E 618 90 2c 34
        E 0 91 31 34
        E 0 91 35 34
        E 0 92 52 34
        E 277 82 3e 00
        E 0 80 2a 00
        E 0 81 2f 00
        E 0 82 5d 00
        E 341 92 36 36
        E 277 82 3f 00
        E 341 91 34 36
        E 0 92 39 36
        E 0 92 53 36
        E 618 90 25 36
        E 0 91 27 36
        E 0 91 28 36
        E 0 92 2c 36
        E 0 92 2f 36
        E 277 81 2b 00
        E 0 82 30 00
        E 0 82 4b 00
        E 341 90 23 3b
        E 0 91 25 3b
        E 0 92 2d 3b
        E 277 80 29 00
        E 0 81 2c 00
        E 0 81 2e 00
        E 0 82 31 00
        E 0 82 48 00
        E 206 90 24 3b
        E 0 91 26 3b
        E 0 92 2b 3b
        E 412 82 3c 00
        E 71 91 2a 3b
        E 0 91 2b 3b
        E 0 92 34 3b
        E 0 92 56 3b
        E 482 90 2a 3b
        E 0 92 3e 3b
        E 0 92 47 3b
        E 65 81 35 00
        E 0 82 52 00
        E 0 82 36 00
        E 304 91 30 3b
        E 0 92 35 3b
        E 0 92 3a 3b
        E 314 82 39 00
        E 0 82 53 00
        E 54 91 2e 3b
        E 0 92 3c 3b
        E 564 80 25 00
        E 0 81 27 00
        E 173 92 33 3b
        E 0 92 3b 3b
        E 294 90 25 3b
        E 0 91 27 3b
        E 15 82 2c 00
        E 0 81 25 00
        E 0 82 2d 00
        E 280 90 27 3b
        E 0 92 53 3b
        E 0 92 5e 3b
        E 203 81 28 00
        E 0 80 24 00
        E 0 81 26 00
        E 0 82 2b 00
        E 483 80 23 00
        E 0 82 34 00
        E 0 82 56 00
        E 51 90 28 36
        E 0 91 29 36
        E 0 92 48 36
        E 0 92 5d 36
        E 317 81 34 00
        E 0 82 3e 00
        E 0 82 47 00
        E 133 92 51 36
        E 0 92 54 36
        E 236 81 30 00
        E 663 90 26 36
        E 0 91 28 36
        E 73 80 2c 00
        E 0 82 35 00
        E 0 82 3c 00
        E 295 80 2a 00
        E 0 81 2e 00
        E 0 82 33 00
        E 0 82 3b 00
        E 82 90 21 36
        E 0 91 26 36
        E 0 92 29 36
        E 213 82 2f 00
        E 0 81 2a 00
        E 0 82 3a 00
        E 0 80 25 00
        E 0 81 27 00
        E 237 92 2b 36
        E 0 92 52 36
        E 449 91 27 36
        E 51 81 31 00
        E 0 80 27 00
        E 0 82 53 00
        E 0 82 5e 00
        E 310 90 22 36
        E 0 92 56 36
        E 140 82 48 00
        E 0 82 5d 00
        E 149 90 27 36
        E 0 92 5e 36
        E 750 80 28 00
        E 153 90 25 36
        E 0 92 2c 36
        E 0 92 2f 36
        E 297 82 51 00
        E 64 90 23 36
        E 0 92 31 36
        E 385 82 54 00
        E 0 82 29 00
        E 338 91 2a 36
        E 112 81 26 00
        E 249 90 2a 36
        E 0 91 2c 36
        E 0 91 34 36
        E 0 92 51 36
        E 0 92 61 36
        E 112 80 26 00
        E 0 82 52 00
        E 249 90 28 3b
        E 0 91 32 3b
        E 40 81 29 00
        E 0 82 2b 00
        E 0 80 22 00
        E 321 90 29 3b
        E 0 92 60 3b
        E 361 90 2b 3b
        E 0 91 39 3b
        E 0 92 3c 3b
        E 0 92 53 3b
        E 221 82 56 00
        E 0 80 27 00
        E 0 82 5e 00
        E 140 91 3b 3b
        E 0 92 5d 3b
        E 221 80 25 00
        E 0 82 2f 00
        E 55 91 33 3b
        E 0 92 52 3b
        E 0 92 55 3b
        E 275 90 25 3b
        E 0 91 29 3b
        E 0 92 2a 3b
        E 0 92 46 3b
        E 392 80 23 00
        E 159 90 23 3b
        E 0 92 44 3b
        E 202 80 21 00
        E 0 82 2c 00
        E 0 82 31 00
        E 19 90 27 3b
        E 0 92 2c 3b
        E 0 92 5f 3b
        E 220 92 3b 3b
        E 0 92 40 3b
        E 122 80 2a 00
        E 362 82 61 00
        E 0 80 28 00
        E 0 81 32 00
        E 361 81 2b 00
        E 0 82 51 00
        E 0 82 60 00
        E 361 81 39 00
        E 0 82 53 00
        E 275 81 34 00
        E 0 80 2b 00
        E 0 82 3c 00
        E 0 81 3b 00
        E 0 82 5d 00
        E 276 80 29 00
        E 0 81 33 00
        E 0 82 52 00
        E 0 82 55 00
        E 142 90 21 33
        E 0 91 24 33
        E 0 91 26 33
        E 0 92 29 33
        E 0 92 3a 33
        E 409 80 25 00
        E 0 81 29 00
        E 0 82 46 00
        E 220 81 27 00
        E 0 82 2a 00
        E 0 80 23 00
        E 0 82 44 00
        E 192 90 24 33
        E 0 91 29 33
        E 0 92 5d 33
        E 29 81 28 00
        E 0 81 2a 00
        E 0 82 2c 00
        E 0 82 5f 00
        E 1613 90 23 33
        E 0 91 25 33
        E 0 91 28 33
        E 0 92 2c 33
        E 0 92 33 33
        E 285 81 2c 00
        E 0 80 27 00
        E 0 82 3b 00
        E 0 82 40 00
        E 536 90 25 33
        E 0 91 2c 33
        E 0 92 5f 33
        E 285 80 21 00
        E 0 81 24 00
        E 0 82 29 00
        E 1358 91 2d 33
        E 0 92 36 33
        E 0 92 5c 33
        E 285 81 26 00
        E 0 82 3a 00
        E 0 80 24 00
        E 0 81 29 00
        E 0 82 5d 00
        E 536 91 2a 33
        E 0 92 34 33
        E 0 92 45 33
        E 285 80 23 00
        E 0 81 25 00
        E 0 82 2c 00
        E 536 91 2f 33
        E 0 92 32 33
        E 821 90 23 33
        E 0 91 2b 33
        E 285 82 33 00
        E 0 82 5f 00
        E 375 90 26 32
        E 0 92 30 32
        E 0 92 47 32
        E 310 90 28 32
        E 0 91 29 32
        E 136 81 2d 00
        E 0 82 36 00
        E 0 82 5c 00
        E 174 91 2d 32
        E 0 92 2e 32
        E 0 92 48 32
        E 311 90 27 32
        E 0 92 4a 32
        E 310 92 46 33
        E 0 92 62 33
        E 26 81 2c 00
        E 0 82 34 00
        E 502 90 29 33
        E 0 91 2c 33
        E 0 92 61 33
        E 320 80 25 00
        E 0 81 2f 00
        E 207 90 24 33
        E 0 91 35 33
        E 0 92 3d 33
        E 0 92 52 33
        E 452 82 32 00
        E 0 80 23 00
        E 76 90 2c 33
        E 0 91 30 33
        E 235 81 28 00
        E 0 82 47 00
        E 310 82 45 00
        E 0 82 30 00
        E 0 80 28 00
        E 310 80 26 00
        E 0 81 2d 00
        E 0 82 48 00
        E 311 82 2e 00
        E 0 82 4a 00
        E 483 90 23 33
        E 0 91 24 33
        E 0 91 26 33
        E 0 92 28 33
        E 0 92 2b 33
        E 44 81 2b 00
        E 0 81 29 00
        E 0 80 27 00
        E 0 82 62 00
        E 528 81 2a 00
        E 0 80 29 00
        E 0 82 61 00
        E 252 91 28 33
        E 0 92 5f 33
        E 276 81 2c 00
        E 0 82 52 00
        E 1373 90 21 33
        E 0 91 29 33
        E 0 92 60 33
        E 276 82 46 00
        E 0 81 35 00
        E 0 82 3d 00
        E 0 80 2c 00
        E 0 81 30 00
        E 549 90 29 33
        E 0 91 2b 33
        E 0 91 34 33
        E 0 92 45 33
        E 275 80 23 00
        E 0 81 24 00
        E 0 82 28 00
        E 549 90 28 33
        E 0 91 32 33
        E 0 92 47 33
        E 825 90 2a 33
        E 0 92 62 33
        E 275 80 24 00
        E 0 81 26 00
        E 0 82 5f 00
        E 387 91 2d 32
        E 0 92 61 32
        E 311 91 2c 32
        E 126 82 2b 00
        E 0 81 28 00
        E 0 80 21 00
        E 0 81 29 00
        E 186 91 33 32
        E 312 90 27 32
        E 0 91 36 32
        E 0 92 5e 32
        E 311 91 3f 33
        E 0 92 46 33
        E 0 92 5f 33
        E 16 80 29 00
        E 514 90 29 33
        E 0 92 43 33
        E 530 92 48 33
        E 0 92 55 33
        E 442 81 2b 00
        E 0 82 62 00
        E 88 90 25 33
        E 0 91 27 33
        E 0 91 29 33
        E 0 92 2c 33
        E 0 92 3c 33
        E 224 81 32 00
        E 0 81 2d 00
        E 312 81 34 00
        E 0 82 45 00
        E 311 80 28 00
        E 0 82 61 00
        E 312 82 47 00
        E 0 80 27 00
        E 0 81 36 00
        E 0 82 5e 00
        E 496 90 27 33
        E 0 91 2b 33
        E 34 80 2a 00
        E 0 82 46 00
        E 0 82 5f 00
        E 529 82 60 00
        E 0 81 3f 00
        E 0 82 43 00
        E 265 92 3f 33
        E 265 81 33 00
        E 0 82 48 00
        E 0 82 55 00
        E 563 91 2e 33
        E 0 92 3d 33
        E 827 91 2a 33
        E 0 92 3a 33
        E 266 80 25 00
        E 0 81 27 00
        E 399 92 49 33
        E 429 81 29 00
        E 0 82 2c 00
        E 0 80 27 00
        E 103 92 2e 33
        E 0 92 55 33
        E 724 81 2b 00
        E 0 82 3f 00
        E 828 81 2c 00
        E 0 82 3c 00
        E 0 81 2e 00
        E 110 90 25 33
        E 0 91 29 33
        E 0 92 54 33
        E 555 82 3d 00
        E 277 90 2c 33
        E 0 91 35 33
        E 0 91 3d 33
        E 0 92 48 33
        E 0 92 52 33
        E 255 82 3a 00
        E 0 82 49 00
        E 576 90 2a 33
        E 0 91 3f 33
        E 0 92 49 33
        E 831 91 33 33
        E 0 92 47 33
        E 255 80 29 00
        E 0 81 2a 00
        E 0 82 55 00
        E 412 90 27 33
        E 0 91 2a 33
        E 0 91 31 33
        E 0 92 3b 33
        E 0 92 46 33
        E 419 82 2e 00
        E 0 80 25 00
        E 0 81 29 00
        E 0 82 54 00
        E 115 92 3a 33
        E 716 80 2c 00
        E 0 82 48 00
        E 831 81 35 00
        E 0 81 3f 00
        E 0 82 49 00
        E 122 90 2b 33
        E 0 91 2f 33
        E 0 91 34 33
        E 0 92 3c 33
        E 0 92 5d 33
        E 546 81 3d 00
        E 0 82 52 00
        E 0 80 2a 00
        E 0 81 33 00
        E 289 91 3b 33
        E 0 92 51 33
        E 245 82 3b 00
        E 0 82 46 00
        E 1423 90 29 33
        E 0 91 3c 33
        E 0 92 3e 33
        E 246 82 47 00
        E 0 80 27 00
        E 0 81 2a 00
        E 0 81 31 00
        E 0 82 3a 00
        E 589 90 24 33
        E 0 91 28 33
        E 0 91 29 33
        E 0 92 2d 33
        E 0 92 32 33
        E 245 81 2f 00
        E 0 82 5d 00
        E 589 90 22 33
        E 0 91 2b 33
        E 835 91 27 33
        E 0 92 2b 33
        E 245 80 2b 00
        E 0 82 3c 00
        E 0 81 3b 00
        E 425 92 2c 32
        E 0 92 30 32
        E 315 90 25 32
        E 94 81 34 00
        E 0 82 51 00
        E 0 80 29 00
        E 0 81 3c 00
        E 0 82 3e 00
        E 222 91 25 32
        E 0 92 2a 32
        E 315 90 23 32
        E 0 92 2e 32
        E 298 80 24 00
        E 0 81 28 00
        E 17 91 23 33
        E 0 92 31 33
        E 537 90 21 33
        E 0 91 28 33
        E 280 81 29 00
        E 0 82 2d 00
        E 256 90 2a 33
        E 0 91 2c 33
        E 0 91 31 33
        E 0 92 34 33
        E 0 92 39 33
        E 414 82 2b 00
        E 122 91 2d 33
        E 0 92 3d 33
        E 194 81 2b 00
        E 315 82 30 00
        E 0 80 25 00
        E 316 82 2c 00
        E 315 80 23 00
        E 0 82 2e 00
        E 536 80 22 00
        E 0 81 27 00
        E 0 81 23 00
        E 0 82 31 00
        E 0 90 28 33
        E 0 91 2a 33
        E 536 81 25 00
        E 0 82 2a 00
        E 0 80 21 00
        E 0 81 28 00
        E 301 90 21 33
        E 0 91 28 33
        E 0 92 49 33
        E 236 81 31 00
        E 0 82 39 00
        E 602 90 23 33
        E 0 92 31 33
        E 0 92 45 33
        E 838 90 27 33
        E 0 92 47 33
        E 235 80 2a 00
        E 0 82 34 00
        E 438 91 33 33
        E 0 92 5f 33
        E 400 81 2d 00
        E 138 92 53 33
        E 700 82 32 00
        E 0 81 2a 00
        E 0 80 21 00
        E 837 80 23 00
        E 0 82 45 00
        E 145 91 31 33
        E 0 92 51 33
        E 528 81 28 00
        E 0 82 31 00
        E 0 80 27 00
        E 314 90 2c 33
        E 0 91 34 33
        E 0 92 39 33
        E 225 82 3d 00
        E 616 92 36 33
        E 841 91 2f 33
        E 0 92 5e 33
        E 225 82 49 00
        E 0 82 53 00
        E 450 90 2a 33
        E 0 92 3a 33
        E 391 80 28 00
        E 0 82 47 00
        E 0 82 51 00
        E 150 90 23 33
        E 0 91 2a 33
        E 0 92 2e 33
        E 0 92 3f 33
        E 691 81 31 00
        E 0 82 39 00
        E 841 81 33 00
        E 0 81 34 00
        E 157 90 22 33
        E 0 91 24 33
        E 0 91 26 33
        E 0 92 29 33
        E 0 92 45 33
        E 519 80 2c 00
        E 0 82 36 00
        E 0 81 2f 00
        E 0 82 5e 00
        E 157 90 24 33
        E 0 91 29 33
        E 0 92 39 33
        E 383 82 5f 00
        E 0 80 2a 00
        E 0 82 3a 00
        E 968 90 26 33
        E 0 91 27 33
        E 0 92 37 33
        E 675 91 2b 33
        E 0 92 33 33
        E 0 92 62 33
        E 47 81 2c 00
        E 0 80 23 00
        E 0 81 2a 00
        E 0 82 3f 00
        E 629 90 21 34
        E 0 92 32 34
        E 0 92 5e 34
        E 46 81 24 00
        E 0 82 29 00
        E 0 82 45 00
        E 630 90 23 34
        E 0 91 28 34
        E 0 91 2a 34
        E 0 92 5b 34
        E 675 90 28 34
        E 0 91 32 34
        E 0 92 47 34
        E 0 92 48 34
        E 46 81 26 00
        E 0 80 24 00
        E 0 82 39 00
        E 630 90 2a 36
        E 0 91 34 36
        E 0 92 4a 36
        E 46 82 2e 00
        E 0 80 26 00
        E 0 81 27 00
        E 0 82 37 00
        E 482 91 2c 36
        E 0 91 33 36
        E 0 92 49 36
        E 194 80 22 00
        E 0 82 33 00
        E 0 82 62 00
        E 334 90 2c 36
        E 0 91 39 36
        E 0 92 3d 36
        E 341 81 29 00
        E 0 80 21 00
        E 0 82 5e 00
        E 599 91 31 3b
        E 0 91 35 3b
        E 0 92 3c 3b
        E 0 92 46 3b
        E 77 82 32 00
        E 0 80 23 00
        E 0 81 28 00
        E 0 81 2a 00
        E 0 82 5b 00
        E 335 90 22 3b
        E 0 91 2a 3b
        E 0 92 35 3b
        E 340 81 32 00
        E 0 82 48 00
        E 72 90 25 3b
        E 315 91 2f 3b
        E 0 92 32 3b
        E 141 80 2a 00
        E 0 82 4a 00
        E 174 90 23 3b
        E 0 91 28 3b
        E 0 92 48 3b
        E 354 82 49 00
        E 275 92 30 3b
        E 0 92 45 3b
        E 252 90 2b 3b
        E 0 91 3c 3b
        E 0 92 53 3b
        E 1 81 39 00
        E 250 90 21 3b
        E 162 81 33 00
        E 413 80 2c 00
        E 0 81 31 00
        E 0 81 35 00
        E 55 90 29 36
        E 0 91 33 36
        E 0 92 55 36
        E 0 92 5e 36
        E 357 82 3d 00
        E 0 80 22 00
        E 27 91 27 36
        E 0 91 29 36
        E 0 92 2a 36
        E 0 92 52 36
        E 288 81 2c 00
        E 0 82 46 00
        E 0 82 35 00
        E 314 80 28 00
        E 0 82 3c 00
        E 0 81 2f 00
        E 166 92 50 36
        E 384 92 2c 36
        E 0 92 33 36
        E 79 82 32 00
        E 0 82 48 00
        E 252 81 2b 00
        E 0 82 30 00
        E 53 90 22 36
        E 0 92 2f 36
        E 0 92 31 36
        E 199 81 34 00
        E 0 82 45 00
        E 0 80 2b 00
        E 0 81 3c 00
        E 0 82 53 00
        E 630 82 47 00
        E 0 80 21 00
        E 111 90 27 36
        E 273 80 29 00
        E 0 81 33 00
        E 0 82 55 00
        E 498 90 29 36
        E 0 91 2b 36
        E 0 91 34 36
        E 0 92 39 36
        E 0 92 48 36
        E 270 80 25 00
        E 0 82 52 00
        E 38 91 2d 36
        E 0 92 34 36
        E 0 92 54 36
        E 346 81 28 00
        E 0 82 50 00
        E 271 91 2e 36
        E 0 92 32 36
        E 113 80 23 00
        E 0 82 2c 00
        E 0 82 33 00
        E 196 90 26 36
        E 0 92 30 36
        E 0 92 45 36
        E 188 82 2f 00
        E 120 91 28 3b
        E 309 90 25 3b
        E 0 91 26 3b
        E 0 92 2f 3b
        E 126 81 27 00
        E 0 82 2a 00
        E 0 80 22 00
        E 182 90 2a 3b
        E 0 91 2f 3b
        E 0 92 3e 3b
        E 308 91 32 3b
        E 0 92 5d 3b
        E 0 92 5f 3b
        E 236 91 2c 3b
        E 0 91 31 3b
        E 0 92 33 3b
        E 45 82 5e 00
        E 0 82 31 00
        E 0 80 27 00
        E 190 91 33 3b
        E 0 92 3c 3b
        E 0 92 3d 3b
        E 119 81 34 00
        E 352 92 3a 3b
        E 188 90 2c 3b
        E 0 91 35 3b
        E 0 91 3d 3b
        E 0 92 5e 3b
        E 77 82 34 00
        E 111 91 3a 3b
        E 197 81 2d 00
        E 0 82 54 00
        E 0 82 32 00
        E 309 81 29 00
        E 0 81 2e 00
        E 308 80 26 00
        E 0 82 30 00
        E 0 81 28 00
        E 106 92 34 34
        E 0 92 56 34
        E 203 81 2a 00
        E 0 82 45 00
        E 0 80 25 00
        E 0 81 26 00
        E 0 82 2f 00
        E 246 90 23 34
        E 0 91 2a 34
        E 0 92 62 34
        E 62 82 39 00
        E 0 82 3e 00
        E 235 81 32 00
        E 0 82 5d 00
        E 0 82 5f 00
        E 236 82 33 00
        E 365 90 22 34
        E 0 91 25 34
        E 0 91 27 34
        E 0 92 2a 34
        E 0 92 47 34
        E 105 81 33 00
        E 189 80 29 00
        E 0 81 2c 00
        E 0 81 31 00
        E 0 82 3c 00
        E 0 82 3a 00
        E 155 90 25 34
        E 33 82 48 00
        E 0 81 3d 00
        E 865 90 27 34
        E 0 91 28 34
        E 0 92 5c 34
        E 55 82 3d 00
        E 0 80 2c 00
        E 0 81 35 00
        E 0 81 3a 00
        E 394 90 28 34
        E 0 91 2c 34
        E 0 92 3f 34
        E 55 80 2a 00
        E 0 81 2f 00
        E 0 82 56 00
        E 393 91 2e 34
        E 0 92 3d 34
        E 449 91 29 34
        E 0 92 46 34
        E 56 81 2b 00
        E 0 82 34 00
        E 0 80 23 00
        E 0 82 62 00
        E 305 92 3c 33
        E 144 80 22 00
        E 0 81 25 00
        E 0 82 2a 00
        E 26 92 43 33
        E 169 90 26 33
        E 0 91 2b 33
        E 170 92 3a 33
        E 0 92 45 33
        E 170 90 29 34
        E 0 91 32 34
        E 362 82 5e 00
        E 449 82 47 00
        E 0 82 5c 00
        E 54 92 3b 34
        E 0 92 48 34
        E 395 82 3f 00
        E 449 81 2e 00
        E 57 92 4a 34
        E 303 81 2a 00
        E 0 82 3d 00
        E 148 92 62 34
        E 22 80 25 00
        E 170 80 27 00
        E 0 81 2c 00
        E 169 81 27 00
        E 90 91 2d 34
        E 0 92 60 34
        E 80 81 29 00
        E 0 82 3a 00
        E 289 82 46 00
        E 0 82 45 00
        E 0 80 29 00
        E 81 91 29 34
        E 0 92 39 34
        E 207 82 43 00
        E 0 81 32 00
        E 155 90 24 34
        E 0 92 34 34
        E 133 82 3c 00
        E 157 90 29 34
        E 0 92 30 34
        E 745 81 28 00
        E 0 80 26 00
        E 0 82 48 00
        E 160 90 2b 34
        E 0 91 2f 34
        E 290 82 4a 00
        E 162 91 30 34
        E 0 92 51 34
        E 289 82 62 00
        E 164 91 32 34
        E 287 82 3b 00
        E 165 91 2e 34
        E 0 92 32 34
        E 197 80 28 00
        E 0 82 60 00
        E 167 90 22 34
        E 0 91 24 34
        E 0 91 26 34
        E 0 92 29 34
        E 0 92 45 34
        E 122 81 29 00
        E 0 82 39 00
        E 0 80 24 00
        E 169 90 24 34
        E 0 91 29 34
        E 0 92 2e 34
        E 0 92 39 34
        E 736 81 2b 00
        E 172 91 2a 34
        E 0 91 2c 34
        E 0 92 3f 34
        E 0 92 47 34
        E 281 81 2d 00
        E 0 82 34 00
        E 0 82 30 00
        E 83 90 2a 34
        E 0 91 3f 34
        E 0 92 5e 34
        E 369 80 2b 00
        E 0 81 2f 00
        E 357 90 28 34
        E 0 92 49 34
        E 0 92 5f 34
        E 96 81 30 00
        E 0 81 32 00
        E 268 91 2f 34
        E 0 92 31 34
        E 0 92 33 34
        E 95 80 29 00
        E 0 82 51 00
        E 0 81 2e 00
        E 0 82 32 00
        E 268 91 2d 36
        E 0 92 2f 36
        E 23 81 24 00
        E 0 82 29 00
        E 0 82 45 00
        E 341 91 2b 36
        E 0 92 30 36
        E 0 92 32 36
        E 363 90 23 36
        E 0 92 2b 36
        E 0 92 34 36
        E 205 80 24 00
        E 0 81 29 00
        E 0 82 2e 00
        E 0 82 39 00
        E 159 91 28 3b
        E 204 80 22 00
        E 0 82 3f 00
        E 80 90 22 3b
        E 0 91 27 3b
        E 0 91 29 3b
        E 284 90 29 3b
        E 0 91 32 3b
        E 0 92 51 3b
        E 284 92 52 3b
        E 79 82 47 00
        E 0 80 2a 00
        E 137 90 27 3b
        E 0 92 61 3b
        E 217 90 25 3b
        E 0 92 53 3b
        E 10 81 3f 00
        E 0 82 49 00
        E 726 82 2f 00
        E 44 90 26 3b
        E 320 81 2f 00
        E 113 90 2b 36
        E 0 91 3f 36
        E 0 92 46 36
        E 0 92 48 36
        E 250 82 34 00
        E 15 91 3a 36
        E 0 92 3f 36
        E 0 92 54 36
        E 269 81 26 00
        E 0 82 30 00
        E 0 80 23 00
        E 260 91 35 36
        E 24 82 2b 00
        E 0 80 22 00
        E 0 81 27 00
        E 0 81 29 00
        E 240 92 57 36
        E 44 82 5e 00
        E 0 81 32 00
        E 217 81 2b 00
        E 0 80 29 00
        E 0 82 52 00
        E 4 90 2c 36
        E 0 91 2e 36
        E 0 92 55 36
        E 212 82 5f 00
        E 0 80 27 00
        E 52 90 2a 36
        E 0 92 52 36
        E 382 82 33 00
        E 0 82 53 00
        E 173 82 32 00
        E 0 82 51 00
        E 0 80 25 00
        E 173 81 2a 00
        E 0 80 28 00
        E 0 82 31 00
        E 0 81 2d 00
        E 185 90 23 36
        E 0 91 26 36
        E 0 92 2b 36
        E 0 92 34 36
        E 213 91 2b 36
        E 0 92 5f 36
        E 36 81 28 00
        E 264 81 3f 00
        E 0 82 48 00
        E 125 90 24 36
        E 0 91 2d 36
        E 212 91 34 36
        E 0 92 39 36
        E 0 92 3c 36
        E 192 81 3a 00
        E 20 90 29 3b
        E 213 91 33 3b
        E 0 92 3a 3b
        E 32 82 3f 00
        E 180 91 27 3b
        E 0 92 48 3b
        E 0 92 5e 3b
        E 84 82 57 00
        E 265 82 54 00
        E 0 80 2c 00
        E 0 81 2e 00
        E 26 90 25 3b
        E 162 92 31 3b
        E 194 82 55 00
        E 0 82 52 00
        E 130 92 2f 3b
        E 0 92 32 3b
        E 129 91 2f 3b
        E 0 92 3e 3b
        E 0 92 45 3b
        E 130 90 21 3b
        E 0 91 23 3b
        E 142 82 61 00
        E 0 82 46 00
        E 0 81 35 00
        E 212 81 26 00
        E 638 82 5f 00
        E 0 80 24 00
        E 212 80 23 00
        E 212 81 34 00
        E 0 80 29 00
        E 213 80 2b 00
        E 0 81 33 00
        E 212 82 48 00
        E 0 82 5e 00
        E 30 90 23 32
        E 0 91 24 32
        E 0 91 28 32
        E 132 80 26 00
        E 0 82 3c 00
        E 0 82 3a 00
        E 0 81 27 00
        E 162 81 2c 00
        E 0 82 34 00
        E 0 82 39 00
        E 0 80 25 00
        E 61 91 29 32
        E 0 92 3c 32
        E 263 82 31 00
        E 92 90 22 32
        E 0 91 26 32
        E 0 92 2d 32
        E 38 81 2d 00
        E 0 82 2f 00
        E 0 82 32 00
        E 130 80 2a 00
        E 0 81 2b 00
        E 0 81 2f 00
        E 0 82 45 00
        E 188 90 26 32
        E 0 91 27 32
        E 0 92 3a 32
        E 355 90 24 32
        E 0 91 2b 32
        E 0 92 2c 32
        E 355 90 25 32
        E 973 81 23 00
        E 355 82 3e 00
        E 0 80 23 00
        E 0 81 24 00
        E 355 80 21 00
        E 0 81 28 00
        E 355 80 22 00
        E 0 81 26 00
        E 0 82 2d 00
        E 355 82 2b 00
        E 0 80 26 00
        E 355 82 3a 00
        E 0 80 24 00
        E 0 81 2b 00
        E 3374 81 29 00
        E 0 82 3c 00
        E 0 81 27 00
        E 0 82 2c 00
        E 0 80 25 00
        E 0 b0 7b 00
        CCINTERP 32
        CHASE_CC_TAKEOFFS 1
        GUID {3AC4090E-49D0-3E40-8B11-A6182CC780AF}
        IGNTEMPO 0 120 4 4
        SRCCOLOR 20
        VELLANE -1 100 0 0 1
      >
    >
  >
  <TRACK {9DF55AC6-CDE8-504C-BC83-FF8704EEBEDD}
    NAME "Pianoteq 8"
    PEAKCOL 16576
    BEAT -1
    AUTOMODE 0
    PANLAWFLAGS 3
    VOLPAN 3.12623897622342 -0.64 -1 -1 1
    MUTESOLO 0 0 0
    IPHASE 0
    PLAYOFFS 0 1
    ISBUS 0 0
    BUSCOMP 0 0 0 0 0
    SHOWINMIX 1 0.6667 0.5 1 0.5 0 0 0
    FIXEDLANES 9 0 0 0 0
    SEL 0
    REC 1 5088 1 0 0 0 0 0
    VU 2
    TRACKHEIGHT 0 0 0 0 0 0 0
    INQ 0 0 0 0.5 100 0 0 100
    NCHAN 2
    FX 1
    TRACKID {9DF55AC6-CDE8-504C-BC83-FF8704EEBEDD}
    PERF 0
    AUXRECV 0 0 1 0 0 0 0 0 0 -1:U 0 -1 ''
    MIDIOUT -1
    MAINSEND 1 0
    <FXCHAIN
      WNDRECT 32 136 807 690
      SHOW 0
      LASTSEL 0
      DOCKED 0
      BYPASS 0 0 0
      <VST "VST3i: Pianoteq 8 (Modartt) (1->5ch)" "Pianoteq 8.vst3" 0 "" 1031062328{565354507438717069616E6F74657120} ""
        OMN0Pe5e7f4CAAAAAQAAAAAAAAACAAAAAAAAAAUAAAABAAAAAAAAAAIAAAAAAAAABAAAAAAAAAAIAAAAAAAAABAAAAAAAAAAzD4AAAEAAAD//xAA
        vD4AAAEAAABWc3RXAAAACAAAAAEAAAAAQ2NuSwAAPqRGQkNoAAAAAlB0OHEACAQBAAAAAAAAAAAAAAAAAAAAAAAAAAAAAAAAAAAAAAAAAAAAAAAAAAAAAAAAAAAAAAAA
        AAAAAAAAAAAAAAAAAAAAAAAAAAAAAAAAAAAAAAAAAAAAAAAAAAAAAAAAAAAAAAAAAAAAAAAAAAAAAAAAAAAAAAAAAAAAAAAAAAAAAAAAAAAAAAAAAAA+DKCYE/4CAAAA
        SDgSAMA9AAABAAAAEThWOLQ9AABQclZLKQAAAlhGVFCkPQAACgAAADIwMjUvMDIvMjcXAAAAUGlhbm90ZXEgOC40LjEvMjAyNTAyMDQ+hboHvIJqUeJb5wRXz2WnZGxs
        YWM9AAB0ZHRNKQYAABUAAABIQiBTdGVpbndheSBEIEZlbHQgSUkAAAAABwAAAE1vZGFydHQzAAAARmVsdCBwaWFubyBwcmVzZXQgdmFyaWFudCAocmV2ZXJzZWQgQ2Vs
        ZXN0ZSBwZWRhbCkuAAAAAEQBAAAVAAAASEIgU3RlaW53YXkgRCBGZWx0IElJAAAAAKEFAABHUlVVAAAABgAAAAEDwE1UcmsAAAWLAP8CJVBpZXQgRGUgUmlkZGVyIC0g
        RmVsdCBwaWFubyBtaW5pIGRlbW+DYJBDKYEONSUcRTmBLExGghewQAITQAB2QH+IOZA8MIEZRQAmQwCMQzwACTUAgj9FSIF0TACGW0hPbEUAhh44OSRIAIEXPy0+QiVn
        RiQ3sEAAZZBJP4M8sEB/hgGQTjNjSQAoRgCEG0IAgTlOAII/STuBZkkAhBc/AH44AINWRkaFPUYAg18yNYFeOTA/QDAtsEAAMJBDOoEKRzqDB7BADBRAf4VVkEAAE0cA
        CUMAgRdMP4J7TACFT0cxCTYpA0MwhTNDAIJbRwCGMUU7gV4yADU5AIEqNgCCdkUAhnewQABIkDorDTMyBkM0CT4ygxywQAYUQAB0QH+FI5A3KGM6AAozAFA3AIh5Py2G
        dz8AhmYzIIsHMwCBDz4AakMAlC85LYFnQEIcQzwmsEAAQZBHLYEOSk+BerBAIhJAf4MhkEoAI0MACkcAg3lPTIkJTkQcTwCLGk9AazkAJkAAEk4AhU9PAIE8Oh6COEAw
        LU0rCUovAEU2ALBAAIQ1QH+JNpBRPkhNAII7SgCDC0AACUUAhCRKOQA+NIoAPgAtOgCDREU1hCZRAC1KAEhFAIYdQzR+RjoaPCYKMDU3sEAAQJBLTwCwQBwUQACCQkB/
        gweQMACCGDwAWE1KUEsAVUYALEMAWE0AhmSwQABqkD8wAzUtAEoxCUU5AEE0hCOwQH+DEZA/AIINRQCCBDk7AEEALDUAI0oAhyJIRoFUOQAdSACHPT4vBi4vADotA0A0
        Y7BAAIQcQAwTQH+FPJBBJXdAAIRtQQA/PgCEYUUwhRVFAIUBSiSELkoAiglNJVlWJpJcLgCBMToAixJWAIMkVTyEUlZAY1UAQE0AgiZWAGpCNYFESSYksEAAgSWQVUAD
        TEOCCLBAHBNAAGNAf4VDkFFEP0wAClUASFEAhRtFQyRORElCAC1JAIIhRQCCalFMWk4AgiRRAINWsEAAYpBEIgBIKh1QOABBL4MdsEB/hUCQVC4/UACCA1QAhlpQKApL
        Jok9UABZSAAASwAAQQCBMkQAI1RDhAtUAIMqNB6BXUoxCjskLrBAAC2QQCYJTzuBGFM8SbBADAlAAGdAf4JMkDQAGjsAQE8AGkAALEoAClMAg0RPOIFeTwCET0A0BEM1
        E0w+hD9MAIUiSkSCGEMAgRdAAIEPSgCFIjo0gTQ9NXxBLQqwQAAjkEQzAEkyg1+wQH+FTJBNIEBEAEBJAIMIOgB8QQBiPQA1TQCEMEgvCUMtADwjEzktCbBAAINgQH+H
        P5BNLYEYQwAcSAAjPAAKOQCCUU0Ahz+wQAABkEcyA0wxBDsnA0EtCjgpg2SwQBYTQH+NVZBMAC5BAClHAIFFQT6BIkdMgR5KbIZFOACBaDsACUxNZUoAgjhHAC1MAIEO
        NzZIQQBrOjuBLD5CgQqwQABQkEg4EkVGCbBABgpAAINwQH+DAZBKPC1IAHdFAIEoSgCFcUEwAEY5LbBAAGdAEhNABhNAAIEbQAYKQAB5QH+DWJA+AIEXNwATOgCBDkMc
        SUEARkYAhANDAIIKMUKBV7BAAByQOC08RywEQSwLRDGCWLBAGBJAACNABgpAAH5Af4VxkDEAHEcAHEEAGkQAdjgAgzwwNoFesEAACZA6H0BCHQtFJxw+JoNksEB/hyKQ
        MABiPgAcOgAcQgAjRQCLJjUogVSwQAAakEomAD8pC0MrAEcsgmWwQH+BOZBDACRHAFlKAIZmTyoAVjmEZFM1N1YAgV5PAD9TAIJ1WyqBTFsAhU9fK4YFVjEKXwCGZ1Mr
        CVYAkBxPG4toUwAuTwAcPwA+NQCNZLBAAFBANBRAABNAARJAAIEqQAETQAASQAYTQAAA/y8AUHJzVSo3AABJAAAAAgAAAGQ0AAAAABoAAABHcmFuZCBTdGVpbndheSBE
        IChIYW1idXJnKQAAAAAAAAAAcHJvbWYAAAABAAAAAQAAAAEAAAACAAAAZDQAAAAAGgAAAEdyYW5kIFN0ZWlud2F5IEQgKEhhbWJ1cmcpAACAPwYAAAAAAAAAAAAAAAAA
        AAAAAAAAAAAAAFRG/////wAAAAAAAAAAAAAAAAAAAAByeWFsEAAAAAIAAAAAAAAAAAAAAP////9vbG9zEQAAAAEAAAABAAAARgAAAAAAAAAAAQAAAAEAAAAAAAAAAAAA
        AAEAAAAAAAAAAAAAAAEAAAAAAAAAAAAAAAEAAAAAAAAAAAAAAAEAAAAAAAAAAAAAAAEAAAAAAAAAAAAAAAEAAAAAAAAAAAAAAAEAAAAAAAAAAAAAAAEAAAAAAAAAAAAA
        AAAAQEADgAAAYGkAAAAAABBBAACAP2kAAADUznPAaFLkoMDwvEbA4zeKwBTMPsCUgWDARtUMwJzs/r9QNQLA1omLwEBOIMBs+ei/kv4cwNTPaMDOIpHAkMOYwJJ/ycBC
        z53ABN0TwOi6ScD08BvAfM8owIReHcDIwe6/5A3BwOCdD8BE/h3AQKHcvQBubcDU4kvAgBi4v1DE1b4QWIS+oOiZPmC6pMDaVJ7ATG0LwCCYSr98blzALGMQwADIc8Bg
        OF6/TJWUv0CS1b88R5u/TKfJP9Bczb4ovGu/ZEQJQBTZsz/4n3w/fKXvv8CtqD4oqhfA+KUCwKiJDMDg9Jq+ILn9vlhJFL+8lfO/UP+QP5Dp/D5kxGPAnIXFvwAAeT8u
        UAHAGASlv8ZcF8AyuYvASIMJP0DxyT2Ecr6/NGtZwOxL5L+ElFnA5NiswNg9Ib+AVQO9mL0yv1xnTcBovEnAQGitwJx/87/AQh0/gO70PSjYhL+gRJm+BvYSwLyFh78c
        3s8/FBm5P/yySUCsMlRArvIrQB5EJ0Cg2aI/IMt2PoD/777ouRA/wIxFPgCQID0sgibAKDE1wDxeq8C/vJzAAwAAAAEAAAAAAAAAAAAAAAMAAAAAAAAAAAAAAAAAAAAD
        AAAAAAAAAAAAAAAAAAAAAwAAAAEAAAABAAAAAQAAAIYVgD8AAAAAAQAAAAAAAADcfyI+A4AAAGBpAAAAAAAQQQAAgD9pAAAAYaZJP43TM0w/gwjSTj+CpIFRPw9ZQ1Q/
        3xdXP/n/WT94/Fw/Mw5gPxA2Yz8BdWY/CMxpPxA2Yz94/Fw/WUNUP/n/WT8zDmA/EDZjPwF1Zj8BdWY/AgjMaT82PG0/NjxtPwKoxnA/lWx0P5VsdD8CPC94P/kPfD/5
        D3w/DR0IgD+9OoQ/626GPzm2iD87go0/IQmQP4ynkj/MXpU/hh2bPyQonj/nUaE/uJykP6YKqD+mCqg/DfCdqz8GWa8/jz6zP3BRtz8rDMA/TLvEP2GmyT8I0s4/WUPU
        P/n/2T8zDuA/AXXmPzY87T82PO0/AZVs9D+VbPQ/AfkP/D/5D/w/gsIYAkCD624GQJMBAAAAAAAAAAAAAAAAAKDAAACgQAAAAEMAAAAAA4AAAFAAAHBCAQAAAAAAAAAA
        AAAAAAAQwQAAQEEBAAAAAQAAAAAAAABwnhnB0Ke/QAAAAAADgAAAYAIAAAAAAKhBAACuQgIAAAAAAAAAgQOAAABgAgAAAAAAqEEAAK5CAgAAAAAAgD+BgAAAADMzMz/S
        BAAAAAAAAAAAAAAAAACAAAAAP2ZmZj8DgAAAYFgAAAAAAKhBAACAP1gAAAC4wQJBVyDgBEEYtBVBoJoTQRh0KkE4NhZByLoQQRjSD0Fg9BBBCEoHQfBO/ECIbQ9B4C0J
        QTi+FkH4XBRBcBsGQQiYBkFQHidBWMkDQbiwDEHIUgFBmJcRQSDV40BYsg9BUMf+QMAEAkFgH91AoLwJQdBf40AwBdNAYOb6QPD15ECAW81AABP7QKDH7kCAcepAAMLm
        QODe0kCgDthAwInIQJDxy0DglMdAoPDXQGBP40Ago9hAQArHQLBYxkDQkd9AkPDLQACb2EDAVMZAwN3cQFA+y0BA8dxAkL7cQCAl9UCAos9AoHrpQKDzz0BAZdxAYIPj
        QLB510DAhtlAUNDsQNDmyEBQCtFAEO/VQKD310AQy8BAQHHTQMBc30BgEbhA8HavQIB56kDQ0NZA0BzMQOCH5EAwCuZAgEatQECr30DAc8BA0E7aQKDs0EDgFMVA4G7G
        QMD42kDw6N1AwPntQAOAAABgWAAAAAAAqEEAAIA/WAAAAIhZhb9XAMduvUDSBMAY5Yu/kI5jP5C/Xj+w4+w/QG8tvoCuQr4Y6+Q/WAyAwTBHPj+o5qO/8IUTwBBmKz8Q
        qiQ/MNnOP5SNncEgCA8/IFzxvlCnAL+gcsS/YGkRv4Aazb+gpNG/QLKmPiBjkz5gx2vBAMKaP5CA6r+4GJA/OOZcwQBJHD14dQDAIFFyP6A9Zj8ALxi+mE9OwYCsfL5E
        /RLAeBkbwaC3y74A1OW+SMa9wQAWDb8MiSbAcEDFwPAKNL84NXDAQM5wwQhULcEgqc3ASJQ8wAD46jsIH8fBUEdFwFwMCMAIH8fBABBWvggfx8FkbFLASNYUwNmWi8Ag
        UNfBQC3dvtRLysEW64/AP+qQwBCEx79Yt7rBmGxnwAhV0r+E2SrAgMCuwawMLsCYI9+/sCdEv4x1csBs7KjBDCl1wGDHWb+Qv16/oON4wHQNesDALXvA5EQ8wDxTfcAk
        WX7AA4AAAGACAAAAAACoQQAArkICAAAAAACAP4ECAAAAAQAAAFUAAABFcXVhbCB0ZW1wZXJhbWVudApUaGUgc3RhbmRhcmQgdHVuaW5nLCB3aGVyZSB0aGUgb2N0YXZl
        IGlzIGRpdmlkZWQgaW4gMTIgZXF1YWwgc3RlcHMuDAAAAAAAyEIAAEhDAACWQwAAyEMAAPpDAAAWRAAAL0QAAEhEAABhRAAAekQAgIlEAACWRAEAAAAAAAAABAAAAAAA
        3EM8AAAARQAAAEYAAAAAfwAAAAAAAAAHAAAARGVmYXVsdAAAAAAAAAAAAgAAAAOAAABgaQAAAAAAEEEAAIA/aQAAAOIUN8IJ134cwqwm+sHmJd3BtOXVwUfPrMGeuaDB
        To6IwShwTcE4xUPBOMVDwYGEGR3BV8iF2cDIMQ3B4NrPwFDZlcDANKHAgI65wGChHsBwBUvAAFz7vxj4jcBwBUvASPmYwICDAsCATsPAIMvJv0B0o78AJMm/QHEwwAAR
        TD8gnqK/IEq5P6DJcMBgHYw/sG9PwMAcoj9AB1vAwLMJQIDlE8AA2pY9wEmAP4AAjr4AFGS+wKZWP0BDq79AXIS/ALQMQMDfFsCgMNe/EMgdQAAeSz+Ar+a/gBALPwA+
        Nr+Q9y/AAJBtPoA9kz8AINu/QA2jQFCeL8AAnKs9gNvzv4AZOEAAgH1AUB4AwEB8OUCgOeC/YGLJvwCAkzpA7Jc/wBAjwEDMxr+A9eG/ANN5P6Acwr+ALpg+wD+sP1Dm
        PkCAgke/MBkVwOAw2L9AvI8/oF5PQABZyb+AafY/AJhav8DNc7+wXBXA4LT0v7AJKEAAyhs/oOhVQCC1F0BAhq0/4ODGv/C7F8BABDq/4MGyv+DBsr+EAAAAAAAAAAAA
        AIA/AQAAAAEAAAABAAAAHwAAAAOAAABIAQAAAAAAgD8AAAAADPTcPwOAAABgWAAAAAAAqEEAAIA/WAAAAAAAAACPCvqXPwEAAAAAAAAAAAJlSJI/AAAAAAAAAABCjWmQ
        PwAAAAB2KkQ6Fv0MPMEqlD/d0kk9XnWXPUxynD3+5pk/l80rPvmpfj7BKpQ/NOHRPs7ZAj8ZgB0/ey1EPwQScz80mG0/Z2JxP4dUGj9fFBU/OGdiP0/MNT+KUl4/Byzx
        Pm3/1j7WQs0+azxbP3PTFD4pNCM/Co+aPky/pT8NSAo/wSqUP+7Zsj7WPLk+cDJWPq+3Jz36uPc+9MZFPnm9jj9PTDs+akq/Pr+Pjj9a6I0/EGJiPtVhyj0AhI8/CzWK
        P10PCT+0xIE+33wkPo1LyTt5Dbs8a09ZPzeqPT7b5Ec+TfE7PyeYJj5gU28/kyM5P4JrNT7iSB8+CAU6PuplRz+2f288A4AAAGACAAAAAACoQQAArkICAAAAAACAP4ED
        gAAAAAYAAAAAAPVCAAB6QwAA60MAwI9EAAAbRQDwh0UDAAAABAAAAAEAAAACAAAABgAAAAUAAAAGAAAAMzNDwQUAAMDAAABgwAAAMEGamSlBAABAwAOAAABgAgAAAACA
        bUQAACBEAgAAAIXrkT4B16NwPgAAAAADgAAAUAAAcEIBAAAAAAAAAAAAgD8DgAAAUAAAcEIBAAAAAAAAAAEAAAAAAAAAAAAAAM3MzL3NzMw9AQAAAAAAAAAAAAAAAAAA
        vwAAAD8AAIA/A4AAAEADAAAAAACoQQAAcEIAANhCAwAAAAAAgD+CAAAAAAOAAABgAgAAAAAAqEEAAK5CAgAAAAAAAACBAACAPwOAAABgAgAAAAAAqEEAAK5CAgAAAAAA
        gD+BAAA0QgOAAABADwAAAAAAqEEAANBBAAD4QQAAEEIAAEBCAABwQgAAkEIAAKhCAAC0QgAAwEIAAMhCAADQQgAA1EIAANZCAADYQg8AAAAAAIDABAAAQMAAAADAAACA
        vwAAAAAAAAAAgQAAAEAHAACAQAAAwEAAACBBAACAQQAAoEEAAMhBAAAAQgAAgD8DgAAAQAMAAAAAAKhBAABwQgAA2EIDAAAAAACAP4IDgAAAQAUAAAAAAPBCAAB6QwAA
        ekQAAMhEAMAoRQUAAAAAAADAAQAAAAAAAAAAAgAAwL8AAMDAAQAAAAOAAAAgAgAAAAAAAAB3u10/AQAAAAMAAAACAAAAAAAAAAH+fj8/A4AAAGACAAAAAAAAAAAAgD8C
        AAAAAACAP4EDgAAAQAQAAAAAAAAAJpNJPv5+Pz8AAIA/BAAAAAAAAACBAACAP4EDgAAAYAIAAAAAAAAAAACAPwIAAAAAAAAAgQAAAADNzEw+AAAAAAAAAAAAAIA/mpkZ
        PwAAAADNzCxAA4AAAGACAAAAAACoQQAArkICAAAAAACAP4EAAIC/AAAAPwOAAABgAgAAAAAAwEEAAJBCAgAAAAAAgD+BAQAAAAEAAAABAAAACgAAAFNtYWxsIEhhbGwL
        AAAAbWVkaXVtaGFsbDEAAEDAAACQQQAAgD8AAIA/AAAAAI/CdT0AAMDAzcxMPgAAAACamYlAXjHbQwAAgD8AAIA/AQAAAAYAAACZmZk/AABAQAOAAABgWAAAAAAAqEEA
        AIA/WAAAAOdygT9XiQ98P5DWdT+adGo/FEx9P/dqfT+vrYU/CASCPwo3Zz+lj4Y/+vRyP/eGij/yrX0/Z8x2P8N2bj++4Yo/NnqFP9UQaD+QroQ/gk+HP+QOdj8iUIo/
        buOGP4eDiD/2QYc/9NdtP+GFiz+AlHI/OVt7PyyKiz8mrIg/7iVlP8NLiz+jaG8/OCpwP54wTz/uJWU/22WEPz8xZz8aboU/bdRpP8cmgT8YdHQ/1HRxPzgvWj9Yhmw/
        qExyP2rHZD/EP3U/sJ16PyOadz/+kIA/W/p3P9/hhT+qb20/YtlgP7a2bT/U6mE/h7N5P/dWgT+BFHA/+nNiPxwShz+SwGs/nOeHP2D5hT9pwXE/VNRwP7TKgj/rzYc/
        bt2HPz2iiD/Kums/H1aBPxQVfT9LcGo/NhdtP5lFdD+jvn8/tDuKP3otez/ujYw/yDZ1P6Y0Zz8Vwn4/1WqJP5Txaz9RAG4/A4AAAGBpAAAAAAAQQQAAgD9pAAAAYU1q
        PwMlHWg/kDt8P6e9gj+nvYI/ZGeTgT8583k/6+9lP2yeYT+da3U/OfN5PxfwcD9PUHM/I4JaPwbChz/bRoU/yRWMP+tqYj+yc4A/g4WLPw1XkT+cC2E/HyJ8Pw2Gej9A
        JnA/L/WFP8nSgT8QbH0/wcmKP3xEgz/obmk/+O95P7ercz+9CpM/TwKPP0OefD8EWGk/JviIP2LEgz8fbHU/umyEP49hXz/BxH4/A0OEP3BcaT8JTZU/I8mAP0wzgz+T
        vII/1S6EP+FUfj8bYIc/zCp3PwU3hT/X5IE/q81ePy9ukj/AjWM/MQhrP9jWZT/Jr5A/mC2EP9dUfz9JQIU/hUmIP1LHhz+73H0/TPpsP6l+jT+T140/zChoPzuQVz+r
        MVc/MduJP+cjlT8Td4Y/eWt4P077hD+Xj3Y/kQZ9P0laeT+r2Yo/x3B3P1N+hD+BTGs/tDxyP7JIjT8r2HU/yLpxP83YiT+7GXg/N/CNP4jBcT+Q+Ig/HZJ0P+tbfj+t
        84g/m4OEP/tviT/Hp4g/oUaMP8eniD9s6YM/i0WGP8eniD8AAAAAA4AAAGBYAAAAAACoQQAAgD9YAAAAlemKvjflLuo9nOKAvl0QHL4nWFU+5qNVvmzrhz5iHZK+S7qU
        Pp8smb4itEE+llw+vqKh570iwXY9BcFxPsP9pD3M/2a+jDtWvqmHc74+Kw6+VUGuva5+eD3cvwc+bTd2PriMQr4rFKs9BYWEve75Jr6kbEQ9DnV8vhJd471G7pW+1E8r
        vkZQwL1yQ4++fteou12g6D0IpI09ZkLou1znX71wDiC9vudzPjfstr1+irO9OVcSPof8FD6+umq+yV02vpFQlD4sRbm88RbjPEI3XD7JR2i+MFt2vXzYlj6wqiq9sKoq
        vR+oUt47UZyVPrJrVz0HR9M+Hw64PkXsyD6w/44+S9YwvXeDzT6G6ZQ+q3SfPqmrrz1FlPQ+oFV7PfNppT52PuA+iQLGPghAoz04x+s+YgFXPRNk4z6nIMQ+0dNsvYyl
        xz71FkQ+UsUcPvu9Tj7pR+C8wW9/Pk29Jb1wsdk+AQAAAAEAAAABAAAAAwAAPy2WiEADAAAAnwZxP61CcT+gp6g/A4AAAGBpAAAAAAAQQQAAgD9pAAAAx11SP2h7hUE/
        lZRIP9dCTD91GEc/I6tGP+LyTD9cqk4/r5RBP8fCRz+0nFI/2Ik9P40wTj9XJz0/kFpWP4f2Sz85BE4/1YhPP77FSz9lBEw/cLhFP/OkQz8jwz8/oLZKP6BPSz8pb0o/
        hM1EP8kWQj9xdk0/5BxcP/2TTT8pqFU//wJXPw6sXT+c1WI/zF1jP8a+Tz/Ja2E/NphqP3BJaT/F9FY/6qJwP9x4YT8ly20/fxVwP1RPcD/n134/VZl7PxqafT+Z5Hw/
        r+uDPxFagz9bNIU/IumDP+djdj86QIc/8yVtP8OTiD+wVHg/sHSAPxLSgT/A2ns/QnGAPxHFdj9faHI/vWZ4P+yxcz+Xg4c/5BZsP5rUhT976nQ/fWKDP3EBgz/6Dog/
        XkeHPyeygj/VkX8/R4p9P6NngT/AZoI/Wfd6P7KYgj/r13w/FQGBP3qYdz/NpHc/Io6BP3n+gT9sxXc/vGCCP2hIgj8MOIA/h6GEP7cggj8wgXo/EPaCPxrxhD+1qnk/
        97SFP140fT858XY/2wx4P1mGfj9Oj4A/G0OAPwOAAABAAwAAAAAAqEEAAHBCAADYQgMAAAAAAIA/ggOAAABAAwAAAAAAqEEAAHBCAADYQgMAAAAAAIA/ggAAgD8AAIA/
        BwAAAAAAgD+amZk+FK5HPzMzsz+amZk+CAAAAAAAAAAAAAAAAAAAAAAAAAAAAAAAAAAAAAAAAAAAAAAAA4AAAGBpAAAAAAAQQQAAgD9pAAAAgtuxP2j/V8o/gTufP7HF
        sz9r2JQ/XoKgP178gT/r0m0/Kc1mPyrukz/d4mU/ikxLP4J5TT+GWHA/gd6XP+3mqz8b5L4/TjidP8IbXz9wCXk/FYxuP85zeT+yMnU/y4JnPwsZvD8hBYc/0vWCP+Mz
        Pj/1x40/ZeaWP8ZncT8HxFQ/FbxCP6GzPD+CKXM/DCWjP7PVUT8+VDQ/aZ2DP13iaj8ERpA/iQ1MP6GTij91Yn0/0VtzPy03LD8gLIQ/nRBzP4deLD9bmD4/nQFVP8gd
        mz9KQnE/TR+lP/QHpj9nx6I/Q691PzLfdT+GvXA/nv2LP+ZDRD9W8VI/5sCfP7JlgT80OjU/O2uHP+nddj+pG4Q/1MSOP6RXWj/qFmc/GpOBP34foz82zX8/dROhP4Fm
        uz8V3WI/+rlVP0yjcD+oQak/+JOxP8ND5j8jqag/NtiEP7LQkz89p60/kAynP9yo4T/Ur8I/g0J5P5wJjT/ZEXA/NMNoP67leD/RNW4/u06CP4bwhD/NEYg/Ul5nP2/5
        Wj+eRl4/xEqLP0o0iz/br60/c9GjPwOAAABgaQAAAAAAEEEAAIA/aQAAAEaUdj8C/ABwPypwcj8qcHI/mI50cj9M8nhyP1Z9cj+qgXI/DoZyP3KKcj/WjnI/OpNyP56X
        cj8CnHI/ZqByP8qkcj8uqXI/gq1yP+axcj9KtnI/rrpyPxK/cj92w3I/2sdyPz7Mcj+i0HI/BtVyP1rZcj+CyHI/mbdyP8Kmcj/ZlXI/AYVyPyp0cj9BY3I/aVJyP4FB
        cj+pMHI/wR9yP+kOcj8A/nE/Ke1xP0DccT9oy3E/gLpxP6ipcT/QmHE/6IdxPxB3cT8nZnE/UFVxP2dEcT+PM3E/pyJxP88RcT/nAHE/D/BwPzffcD9PznA/d71wP46s
        cD+3m3A/zopwP/Z5cD8OaXA/NlhwP15HcD92NnA/niVwP7YUcD/eA3A/9fJvPx7ibz810W8/XcBvP3Wvbz+dnm8/tY1vP918bz8FbG8/HVtvPwOAAABAAwAAAAAAqEEA
        AHBCAADYQgMAAAAAAIA/ggOAAABgaQAAAAAAEEEAAIA/aQAAAEhsgD9BPqiAP33Xfz/s1n8/BCeAP93lfz++/H8/ByeAP2LPgD8XqYA/bY+APw+UgD/t9IA/1wmBP00v
        gD+Ndn8/F2aAP2BBgD+kDYA/ux5/P6POfj+Vln8/DISAPxrMgD/xhYA/QzSAP+tfgD/1jH8/OwuAP5SQfj/8LX8/LxmAP6Rifz9dFn8/QHZ/P20VgD8A/38/ygWAPxYu
        gD+NTIA/FmR/P1uJfz/IEYA/O2KAP8aegD+N8n8/8VF/P4oTgD9/ZX8/tLd+P3RMfz8NTH8/1mJ/PwlRgD+PV4A/rYiAPxnSfz93EH8/XVd/P5IbgD9jlH8/fx2AP70M
        gD/b138/31l/P4uveD+Lr3g/Jrdtez9083w/JP58P/yYfT/tjH0/ioV5P/USfD+LGnk/jER4P41udz+PLXY/kex0P5IWdD+z7XM/pYpyP3NIcD/Nm24/xydtP2ydbD/v
        dGs/A9RqP+guaj+nZWs/TVJsP7EobD9nKGw/PwVrPx8aaz8gHms/07FqP27Gaj/F52o/p6NqP8uIaT9My2k/uaFqP38Zaz+oYWs/AQAAAGkAAAAAABBBA4AAAGAMAQAA
        AAAAAAAAgD8MAQAAAAAAAP8AAAAA/wAAAACLAAAgQQOAAABgAgEAAAAAAAAAAIA/AgEAAAAAAAD/AAAAAP8AAAAAgQAAMEEDgAAAYPgAAAAAAAAAAACAP/gAAAAAAAAA
        /wAAAAD3AABAQQOAAABg7wAAAAAAAAAAAIA/7wAAAAAAAAD/AAAAAO4AAFBBA4AAAGDrAAAAAAAAAAAAgD/rAAAAAAAAAP8AAAAA6gAAYEEDgAAAYOMAAAAAAAAAAACA
        P+MAAAAAAAAA/wAAAADiAABwQQOAAABg2QAAAAAAAAAAAIA/2QAAAAAAAAD/AAAAANgAAIBBA4AAAGDTAAAAAAAAAAAAgD/TAAAAAAAAAP8AAAAA0gAAiEEDgAAAYNAA
        AAAAAAAAAACAP9AAAAAAAAAA/wAAAADPAACQQQOAAABgzgAAAAAAAAAAAIA/zgAAAAAAAAD/AAAAAM0AAJhBA4AAAGDLAAAAAAAAAAAAgD/LAAAAAAAAAP8AAAAAygAA
        oEEDgAAAYMkAAAAAAAAAAACAP8kAAAAAAAAA/wAAAADIAACoQQOAAABg4gAAAAAAAAAAAIA/4gAAAAAAAAD/AAAAAOEAALBBA4AAAGDaAAAAAAAAAAAAgD/aAAAAAAAA
        AIgAAKDAAQAAAAAAAAAA/wAAAADOAAC4QQOAAABg0QAAAAAAAAAAAIA/0QAAAAAAAAD/AAAAANAAAMBBA4AAAGD8AAAAAAAAAAAAgD/8AAAAAAAAAP8AAAAA+wAAyEED
        gAAAYOgAAAAAAAAAAACAP+gAAAAAAAAA/wAAAADnAADQQQOAAABg2QAAAAAAAAAAAIA/2QAAAAAAAACJAACgwAEAAAAAAAAAAP8AAAAAzAAA2EEDgAAAYMkAAAAAAAAA
        AACAP8kAAAAAAAAA/wAAAADIAADgQQOAAABg2wAAAAAAAAAAAIA/2wAAAAAAAACFAABAwAEAAAAAAAAAAP8AAAAA0gAA6EEDgAAAYOYAAAAAAAAAAACAP+YAAAAAAAAA
        /wAAAADlAADwQQOAAABg1gAAAAAAAAAAAIA/1gAAAAAAAAD/AAAAANUAAPhBA4AAAGDKAAAAAAAAAAAAgD/KAAAAAAAAAIQAACDAAQAAAAAAAAAA/wAAAADCAAAAQgOA
        AABgwwAAAAAAAAAAAIA/wwAAAAAAAAACAACAwAAAAAAAAAAA/wAAAAC/AAAEQgOAAABgzAAAAAAAAAAAAIA/zAAAAAAAAAACAAAAwAAAAAAAAAAAggAAQMABAAAAAAAA
        AACDAACAwAEAAAAAAAAAAP8AAAAAvQAACEIDgAAAYNIAAAAAAAAAAACAP9IAAAAAAAAABQAAAMAAAIA/AABAQAAAIMEAAAAAAAAAAP8AAAAAywAADEIDgAAAYMYAAAAA
        AAAAAACAP8YAAAAAAAAAAgAAgMAAAAAAAAAAAAIAAIDAAAAAAAAAAAC4AABAwAEAAAAAAAAAAP8AAAAAhAAAEEIDgAAAYMQAAAAAAAAAAACAP8QAAAAAAEDABAAAoMAA
        AADAAAAAAAAAQMAAAEDAAgAAgD8AAAAAAAAAAIMAAEDAAQAAAAAAAAAA/wAAAAC1AAAUQgOAAABgxAAAAAAAAAAAAIA/xAAAAAAAAAD/AAAAAMMAABhCA4AAAGDEAAAA
        AAAAAAAAgD/EAAAAAACAPwQAAABAAAAAwAAAQMAAAAAAAAAAAP8AAAAAvgAAHEIDgAAAYKsAAAAAAAAAAACAP6sAAAAAAAAAAgAAAMAAAABAAAAAQAIAAEDAAAAAAAAA
        AAD/AAAAAKQAACBCA4AAAGCrAAAAAAAAAAAAgD+rAAAAAABAQAIAAMA/AABAQAAAQEADAADAPwAAQMAAAAAAAAAAAP8AAAAAowAAJEIDgAAAYKsAAAAAAAAAAACAP6sA
        AAAAAAAA/wAAAACqAAAoQgOAAABgkwAAAAAAAAAAAIA/kwAAAAAAAMAEAAAAQAAAAAAAAABAAAAAAAAAAAD/AAAAAI0AACxCA4AAAGCTAAAAAAAAAAAAgD+TAAAAAAAA
        wAMAAAAAAACgwAAAAAAAAAAAgQAAQMABAAAAAAAAAAD/AAAAAIoAADBCA4AAAGCTAAAAAAAAAAAAgD+TAAAAAACAwAMAAADAAACAwAAAAAAAAAAA/wAAAACOAAA0QgOA
        AABggAAAAAAAAAAAAIA/gAAAAAAAQMADAACAvwAAgD8AAABAAAAAQIEAAMA/AgAAAAAAAEDAAABAwAEAAAAAAAAAAIUAAKDAAQAAAAAAAAAAgQAAQMABAAAAAAAAAADo
        AAA4QgOAAABggAAAAAAAAAAAAIA/gAAAAAAAAMACAAAAQAAAAAAAAAAA/AAAPEIDgAAAYIAAAAAAAAAAAACAP4AAAAAAAMDABQAAAEAAAIC/AACAPwAAAMAAAAAAAAAA
        AIcAAMC/AQAAAAAAAAAAlwAAQMCBAAAAANUAAEBCA4AAAGBsAAAAAAAAAAAAgD9sAAAAAABAwAMAAABAAABAwAAAAAAAAAAAowAAQMCBAAAAAMEAAERCA4AAAGBsAAAA
        AAAAAAAAgD9sAAAAAAAAwAEAAAAAAAAAAIEAAEDAAgAAAMAAAAAAAAAAAOQAAEhCA4AAAGBsAAAAAAAAAAAAgD9sAAAAAAAAAAIAAADAAAAAQAAAAEACAAAAAAAAAEAA
        AABAgQAAAACSAAAQwQEAAAAAAAAAAM4AAExCA4AAAGBnAAAAAAAAAAAAgD9nAAAAAAAAAIQAAMC/AQAAQMAAAEDABgAAIMCamdm/mpmZvwAAgL8zMzO/AAAAAAAAAADY
        AABQQgOAAABgVwAAAAAAAAAAAIA/VwAAAAAAAAABAAAAwAAAAMABAAAAAAAAAACGAACAwAIAAEBAAAAAAAAAAADIAABUQgOAAABgVwAAAAAAAAAAAIA/VwAAAAAAAACB
        AAAgQAUAAKDAAAAgwAAAAAAAAADAAAAAAAAAAADOAABYQgOAAABgVgAAAAAAAAAAAIA/VgAAAAAAAMACAACAvwAAAAAAAAAAhgAAQMADAAAAAAAAgMAAAAAAAAAAAMcA
        AFxCA4AAAGBJAAAAAAAAAAAAgD9JAAAAAAAAAAQAAADAAABAQAAAQMAAAAAAAAAAAAIAAIC/AAAAAAAAAACDAAAAwIIAAAAAiQAAgMCBAAAAAIkzMzPAgQAAAAChAABg
        QgOAAABgSQAAAAAAAAAAAIA/SQAAAAAAAAADAAAAwAAAgL8AAAAAAAAAAIEAAADAAQAAAAAAAAAAAgAAgL8AAAAAAAAAAAIAAADAAAAAAAAAAAC6AABkQgOAAABgSAAA
        AAAAAAAAAIA/SAAAAAAAAAAGAACAQAAAAEAAAIA/AAAAAAAAAEAAAIC/AACAvwYAAABAAAAAAAAAAMAAAAAAAAAAwAAAAAAAAAAAuQAAaEIDgAAAYEUAAAAAAAAAAACA
        P0UAAAAAAEBABgAAgD8AAADAAACAvwAAAAAAAADAAAAAAAAAAAAFAACAPwAAAMAAAAAAAAAAQAAAAAAAAAAAtwAAbEIDgAAAYD8AAAAAAAAAAACAPz8AAAAAAABAAwAA
        gL8AAIA/AAAAAAAAAAACAABAwAAAAAAAAAAAgQAAgD8DAADAwAAAgD8AAAAAAAAAALEAAHBCA4AAAGA5AAAAAAAAAAAAgD85AAAAAAAAPwMAAIA/AADAPwAAgL8AAIC/
        gQAAAAADAACAvwAAAMAAAEDAAABAwAYAAEBAAAAAAAAAQMAAAAAAMzMDwAAAAAAAAAAApwAAdEIDgAAAYDkAAAAAAAAAAACAPzkAAAAAAAAAAgAAAEAAAADAAAAAwAQA
        AABAAAAAAAAAAEAAAAAAAAAAAAIAAEDAAAAAAAAAAAACAABAwAAAAAAAAAAAqgAAeEIDgAAAYDYAAAAAAAAAAACAPzYAAAAAAADAAQAAAAAAAAAAswAAfEIDgAAAYDEA
        AAAAAAAAAACAPzEAAACAD8o9A8iS/D4Lknw/ydqdP8nanT8CMzMzP83MTL7NzEy+gsiSfL4DHpJ8vx9rvb8AAAAAAAAAAKIAAIBCA4AAAGAwAAAAAAAAAAAAgD8wAAAA
        AAAAAAUAAEBAAAAAAAAAgL8AAIA/AACAwAAAgMABAAAAAAAAAAADAADAwAAAAAAAAADAAAAAwAEAAAAAAAAAAKEAAIJCA4AAAGAuAAAAAAAAAAAAgD8uAAAAAAAAAIQA
        AABAAQAAAAAAAAAAAgAAgL8AAAAAAAAAAAIAAADAAAAAAAAAAACgAACEQgOAAABgKwAAAAAAAAAAAIA/KwAAAAAAAMAFAACAQAAAAAAAAIDAAAAAwAAAAAAAAAAAgc3M
        bMABAAAAAAAAAACBAADAwAEAAAAAAAAAAJwAAIZCA4AAAGAnAAAAAAAAAAAAgD8nAAAAAACAvwIAAABAAAAAAAAAAAACAABAwAAAAMAAAADABAAAAAAAAADAAAAAQAAA
        AAAAAAAAmwAAiEIDgAAAYCYAAAAAAAAAAACAPyYAAAAAAAC/CgAAgD8AAAC/AAAAAAAAwL8AACDAAACAvwAAAABmZmbAAACAPwAAAAAAAAAAmgAAikIDgAAAYCQAAAAA
        AAAAAACAPyQAAAAAAAAAgQAAgL8BAAAAAAAAAAACAABAwAAAAAAAAAAAnAAAjEIDgAAAYCIAAAAAAAAAAACAPyIAAAAAAIA/ggAAAACBAACAvwEAAAAAAAAAAJoAAI5C
        A4AAAGAgAAAAAAAAAAAAgD8gAAAAAAAAAIMAAABABAAAAAAAAABAAACAvwAAAAAAAAAAlgAAkEIDgAAAYB0AAAAAAAAAAACAPx0AAAAAAABAgQAAgECBAABAwAMAAABA
        AACAvwAAAAAAAAAAlAAAkkIDgAAAYBwAAAAAAAAAAACAPxwAAAAAAAAAgwAAoMACAAAAwAAAAAAAAAAAlAAAlEIDgAAAYBsAAAAAAAAAAACAPxsAAACSJD8/gpIkP78B
        AAAAAAAAAAACvFkPwKzrw7+s68O/AQAAAAAAAAAAkAAAlkIDgAAAYBkAAAAAAAAAAACAPxkAAAAAAAAAhfEyw7+CAAAAAI8AAJhCA4AAAGAYAAAAAAAAAAAAgD8YAAAA
        AACAPwMAAIC/AAAAAAAAAMAAAADABAAAgL8AAAAAAAAAwAAAAAAAAAAAjgAAmkIDgAAAYBYAAAAAAAAAAACAPxYAAAAAAMC/AQAAAAAAAAAAhAAAQMABAAAAAAAAAACM
        AACcQgOAAABgFQAAAAAAAAAAAIA/FQAAAAAAgD8BAAAAAAAAAAADAAAAwAAAQMAAAAAAAAAAAI4AAJ5CA4AAAGAUAAAAAAAAAAAAgD8UAAAAAAAAQAYAAIA/AABAwAAA
        gL8AAAAAAAAAwAAAAAAAAAAAjAAAoEIDgAAAYBMAAAAAAAAAAACAPxMAAAAAAAAAAwAAAEAAAIA/AAAAwAAAAMABAAAAAAAAAACMAACiQgOAAABgEgAAAAAAAAAAAIA/
        EgAAAAAAAD8DAACAPwAAgL8AAAAAAAAAAAEAAIC/AACAvwEAAAAAAAAAAIkAAKRCA4AAAGARAAAAAAAAAAAAgD8RAAAAAADAPwEAAMC/AADAvwEAAAAAAAAAAIwAAKZC
        A4AAAGAQAAAAAAAAAAAAgD8QAAAAMZJ8P4EAAAAAgR9rvb8DAAAAAB9rvb8AAAAAAAAAAIcAAKhCA4AAAGAPAAAAAAAAAAAAgD8PAAAA0lYCPwGJf8M/iX/DPwUAAAAA
        nH/DvwAAAACcf8O/AAAAAAAAAACGAACqQgOAAABgDgAAAAAAAAAAAIA/DgAAADGSfD8CMXGBPwAAAAAAAAAAAh9rvb8AAAAAAAAAAIcAAKxCA4AAAGANAAAAAAAAAAAA
        gD8NAAAACWaGP4EAAAAAARNmhr8TZoa/AQAAAAAAAAAAhgAArkIDgAAAYAwAAAAAAAAAAACAPwwAAAAAAIA/A1V6ej8AAIC/AAAAwAAAAMABAAAAAAAAAACFAACwQgOA
        AABgDAAAAAAAAAAAAIA/DAAAAAAAAACDZmaGvwEAAAAAAAAAAIUAALJCA4AAAGALAAAAAAAAAAAAgD8LAAAAAAAAAAQAAIC/AAAAwAAAgL8AAAAAAAAAAIUAALRCA4AA
        AGAKAAAAAAAAAAAAgD8KAAAAAAAAwAEAAAAAAAAAAIcAALZCA4AAAGAKAAAAAAAAAAAAgD8KAAAAAABAQAQAAABAAAAAwAAAQMAAAAAAAAAAAIQAALhCA4AAAGAJAAAA
        AAAAAAAAgD8JAAAA0UU3QAQXXfQ/F110Pxdd9D4AAAAAAAAAAIMAALpCA4AAAGAJAAAAAAAAAAAAgD8JAAAAo4suQAQuuug/LrpoPy666D4AAAAAAAAAAIMAALxCA4AA
        AGAIAAAAAAAAAAAAgD8IAAAAdNElQARGF90/RhddP0YX3T4AAAAAAAAAAIIAAL5CA4AAAGAIAAAAAAAAAAAAgD8IAAAARhcdQARddNE/XXRRP1100T4AAAAAAAAAAIIA
        AMBCA4AAAGAIAAAAAAAAAAAAgD8IAAAAF10UQAR00cU/AADAv3TRxT4AAAAAAAAAAIIAAMJCA4AAAGAIAAAAAAAAAAAAgD8IAAAA6aILQASMLro/jC46P4wuuj4AAAAA
        AAAAAIIAAMRCA4AAAGAIAAAAAAAAAAAAgD8IAAAAuugCQASji64/o4suP6OLrj4AAAAAAAAAAIIAAMZCA4AAAGAIAAAAAAAAAAAAgD8IAAAAFl30PwS56KI/uegiP7no
        oj4AAAAAAAAAAIIAAMhCA4AAAGAIAAAAAAAAAAAAgD8IAAAAuujiPwTSRZc/0kUXP9JFlz4AAAAAAAAAAIIAAMpCA4AAAGAIAAAAAAAAAAAAgD8IAAAAXHTRPwTooos/
        6KILP+iiiz4AAAAAAAAAAIIAAMxCA4AAAGAIAAAAAAAAAAAAgD8IAAAAAADAPwQAAIA/AAAAPwAAgD4AAAAAAAAAAIIAAM5CA4AAAGAIAAAAAAAAAAAAgD8IAAAAoouu
        PwQAAMC/LbroPi26aD4AAAAAAAAAAIIAANBCA4AAAGAIAAAAAAAAAAAAgD8IAAAARRedPwRcdFE/XHTRPlx0UT4AAAAAAAAAAIIAANJCA4AAAGAIAAAAAAAAAAAAgD8I
        AAAA6KKLPwSLLjo/iy66PosuOj4AAAAAAAAAAIIAANRCA4AAAGAIAAAAAAAAAAAAgD8IAAAAFl10PwS56CI/ueiiPrnoIj4AAAAAAAAAAIIAANZCA4AAAGAIAAAAAAAA
        AAAAgD8IAAAAXHRRPwToogs/6KKLPuiiCz4AAAAAAAAAAIIAANhCA4AAAGAEAAAAAAAAAAAAgD8EAAAAoosuPwMtuug+LbpoPi266D0AANpCA4AAAGAEAAAAAAAAAAAA
        gD8EAAAA6KILPwOLLro+iy46Posuuj0AANxCA4AAAGAEAAAAAAAAAAAAgD8EAAAAXHTRPgPooos+6KILPuiiiz0AAN5CA4AAAGAEAAAAAAAAAAAAgD8EAAAA6KKLPgOL
        Ljo+iy66PYsuOj0AAOBCA4AAAGAEAAAAAAAAAAAAgD8EAAAA6KILPgOLLro9iy46PYsuujwAAOJCA4AAAGAEAAAAAAAAAAAAgD8EAAAAAAAAAIM5lNc9A4AAAEALAAAA
        AADAQQAA4EEAAOhBAAAcQgAAIEIAAFxCAABwQgAAkEIAAKhCAADAQgAA2EILAAAAutqaP4P6pYk/Bm4plj/NvpE/+qWJP1zEdz+TLSU/XMT3PgEAAAABAAAAAQAAAIsH
        Nj9XVLM/AQAAAAEAAAABAAAAQZU1P3iV4T8BAAAAAAAAAAEAAAAzMzM/ZmamPwEAAAAAAAAAAQAAADMzMz9mZqY/AQAAAAAAAAABAAAAMzMzP2Zmpj8BAAAAAAAAAAAA
        8EIAAAAADgAAAAAAAD/NzMw9zcxMPgAAAD8DAAAAAAAAAAOAAABIAQAAAAAAAAAAAAAAA4AAAEgBAAAAAAAAAAQAAAACAAAACAAAAAQAAAABAAAAAQAAAAAAgD8AAIA/
        AQAAAAEAAAABAAAAAQAAAAEAAAAAAIA/AAAAAAAAgEAAALRCRgAAAAADgAAASAEAAAAAAAAAAAAAAAOAAABIAQAAAAAAAAAAAAAAAAAAAAOAAABIAQAAAAAAAAAAAAAA
        AwAAAAcAAAABAAAAAAAAAA4AAAAQAAAAAAAAAJqZGT4AAIA/AAAAAAAAAL8AAMBBAAAAAAAAAAAAAAAAAAAAAAAAAAAAAAAAAAAAAAAAAAAAAAAAAAAAAAMAAAAKAAAA
        AQAAAAAAAAAOAAAAEAAAAAAAAAAAAFxDAACAvwAAAD8AAABAAAB6RAAAAAAAAAA/AACAPwBAnEUAAABAmpkZPwAAQEAAAAAAAAAAAAAAAAADAAAACgAAAAEAAAAAAAAA
        DgAAABAAAAAAAAAAAADIQgAAAAAAAIA/AAAAQABAnEUAAIA/mpmZPgAAgD8AgDtGAAAAQAAAAD8AAEBAAAAAAAAAAAAAAAAAAQAAAAEAAAAAAIA/AABAwQAAAAADAAAA
        AwAAAAAAAAABAAAABQAAAAQAAAABAAAAAwAAAGY9ij7oUTg+XI+CP7GwaMIQboHABAAAAAUAAAAAAADAAABAwQAAwMIAAMDCAADAwgUAAAAAAAAAj8L1PAAAAAAAAAAA
        AAAAAAUAAAAAAAAAAAAAAAAAAAAAAAAAAAAAAAEAAAAAAAAABAAAAAEAAAADAAAARuF6P+hROD4K16M/sodOQhBugcAEAAAABQAAAAAAQMEAAADAAADAwgAAwMIAAMDC
        BQAAAI/CdTxSSR06AAAAAAAAAAAAAAAABQAAAAAAAAAAAAAAAAAAAAAAAAAAAAAAAQAAAAAAAAAEAAAAAQAAAAMAAACcxEA/N4kJQGq8xD/NzCNDzcwgwgMAAAAFAAAA
        AABwwQAAcMEAAHDCAABwwgAAcMIFAAAAAAAAAAAAAAAAAAAAAAAAAAAAAAAFAAAAAAAAAAAAAAAAAAAAAAAAAAAAAAABAAAAAAAAAAQAAAAAAAAAAwAAANejCECF6+E/
        rkfhP83M2EIAAAAABwAAAAUAAAAAAHDCAABwwgAAcMIAAHDCAABwwgUAAAAAAAAAAAAAAAAAAAAAAAAAAAAAAAUAAAAAAAAAAAAAAAAAAAAAAAAAAAAAAAEAAAAAAAAA
        BAAAAAAAAAADAAAAuB7FPz0KVz+uR+E/AAAAAAAAAAAAAAAABQAAAAAAcMIAAHDCAABwwgAAcMIAAHDCBQAAAAAAAAAAAAAAAAAAAAAAAAAAAAAABQAAAAAAAAAAAAAA
        AAAAAAAAAAAAAAAAAQAAAAAAAAABAAAAAAAAAAEAAAADAAAAUrgeP+xRuL5mZqY/AACQQQAAAAAAAAAAAAAAAAEAAAAAAAAAAAAAAAAAAABKVUNFUHJpdmF0ZURhdGEA
        AQFCeXBhc3MAAQEDAB0AAAAAAAAASlVDRVByaXZhdGVEYXRhAAAAAAAAAAA=
        AAAQAAAA
      >
      PRESETNAME "HB Steinway D Felt II"
      FLOATPOS 32 149 592 662
      FXID {B76D5FDE-A8CA-584F-8F0F-DB5EF086AAD7}
      WAK 0 0
      BYPASS 0 0 0
      <AU "AU: VCV Rack 2 FX (VCV)" "VCV: VCV Rack 2 FX" "" 1635085670 1447253574 1447253599
        6QMAAAAAAAAQAAAAAQAAAAAAAAACAAAAAAAAAAAAAAAAAAAAAAAAAAAAAAAAAAAAAAAAAAAAAAAAAAAAAAAAAAAAAAAAAAAAAAAAAAAAAAAAAAAAAAAAAAAAAAAAAAAA
        AAAAAAAAAAAAAAAAAAAAAAAAAAAAAAAAAAAAAAAAAAAAAAAAAAAAAAAAAAAQAAAAAQAAAAAAAAACAAAAAAAAAAAAAAAAAAAAAAAAAAAAAAAAAAAAAAAAAAAAAAAAAAAA
        AAAAAAAAAAAAAAAAAAAAAAAAAAAAAAAAAAAAAAAAAAAAAAAAAAAAAAAAAAAAAAAAAAAAAAAAAAAAAAAAAAAAAAAAAAAAAAAAAAAAAAAAAADoBwAAPD94bWwgdmVyc2lv
        bj0iMS4wIiBlbmNvZGluZz0iVVRGLTgiPz4KPCFET0NUWVBFIHBsaXN0IFBVQkxJQyAiLS8vQXBwbGUvL0RURCBQTElTVCAxLjAvL0VOIiAiaHR0cDovL3d3dy5hcHBs
        ZS5jb20vRFREcy9Qcm9wZXJ0eUxpc3QtMS4wLmR0ZCI+CjxwbGlzdCB2ZXJzaW9uPSIxLjAiPgo8ZGljdD4KCTxrZXk+ZGF0YTwva2V5PgoJPGRhdGE+CglLTFV2L1FC
        SVJTTUFodnl6T1VCcjJBQTh4SGhnSHBnSG1WVGdGQzhBakUvTG5VMzdxYzdxeTY0MU9oK3ptY0VhZVF3MwoJT0taTlNVbEo4cmlmMzM3bW54TWdzUFJJQWFrQW5BQ3BB
        UHdyajE3YUc1YmNxNEYvNVdFdnluckRqNTNVU3JyNFZ4N3MKCWxyZzRmc1BTaFNyS1R2aFhOc0Q1Sm93eHp0Z2FoTEs3cFZ0VldEZ2NxMDRTRmdSTFBKdnlkVGRqQ0JZ
        UHlnUUhFWWdQCglFUXdDQUxPT1ZDVTd1ZFMwMkdpYTZpSzVUZ0VBakFCampBTmpyQU83d01DSVlCMFlZeENNc1F1TU1jY1lHOEFZZzJDSAoJOEFZTTd0UUt4aUNZQUFN
        QjNveXFWblgxV1h0eGRsOUcyYnExbkxEOVFkZmQ3REhPN21hTGhDWC9mK1hoSUcrWXNoT0kKCWV2aS8wSE5WYnJoYTlXSGwwVy80b1pCYzY2cXMwZEV6TWpGUzVqV043
        MEhhUzN2RDlvcnFoUDlmVXFrNjhmODc2OVFJCglaUzJKNGtMUEZjRnZPTExQbGJDbHJnUy9ZUW1pY0VYVFEvWmpXb3l2MjJPZ1pPWWJmaUQrLzEvWlVObm9lcTZFZitX
        aAoJOFN0VE92bGNlN0RCU1djL3VEVGsvNVVIUStlanRPbUVsTWJXNUVJaC82OUVlTU9XclNJUkJnOUVVUWdMMDR1amJGVTUKCUxDNWxBY21ReUtDU2FUam5wTTlOK0dU
        cmFKQTNERDJRaFA5YllWVTFZcWJSTjh6aFdKQ0ZWZFVJT21nQ1RWaHdidVR3CgliNTlia1NHNkUvOXZ1SXFzSkZVT2gvOHJEdzdyWGtuRmI5aFNrT29GaGlsRDRtSlFU
        RkJVTlBwaWE2NWxOL01lRTkvdwoJQTdHaWNTZW1yQlZCQ1p5SE82enJXdGNrUVMyK1lhc0JhbURCdWRFRy8vL1MzU0I4dzlhcUZ6YWFKTFhpLzM4UU1jRnYKCTJFcnFB
        dXRBRS90d0hRcGxyYXBLNW9NYkVkb29oYkpKMnUweHJ0MXpHM0MrRjVuZGFJc1V5a2hieTlkYWZDcmNvSzNGCglOeDBUWVh4VE1sRTZ0akp1ZEIvZ04wemQ2RG9TSkVI
        V05WblhwYkRSOWR3SzY1cXM2ODdvSUFQam5LK2hqRTF1Vk9mTwoJVmxHTnZHRXJZaFZZOW9GRjJZa0V1U3QwU29hSnNNM1hwcFN5bzF4YVN2cDZ1bjRPTWd6RFRDaVhq
        ZzFHeHJsdWtycnUKCTduWVRQb2hUSHBJK0NhT2Jrb212dlE2QXA2aUJLVEprYUFBRUFEQWtTSkFBZ0FJQW9hR3FBaEpnWUJnWUN0UWNnMkVNCglBd1laQXdRQUdXTUFC
        QkJBQUFGTkFBYXJBVUwwS1lSV2tQSWxqRzhPRlNPeDRnRnlvZjJpdlg5ekFxYlUvMXBGU1djOAoJVFhacmprUERqemVVV0JDZUFCRmFvRDhIczBMSDRUM0M0ODNHZEQz
        d2VtakQxY3JsYWNrelhueEI0S3ZremplUCtqV3MKCXViUHJob0hmSE5oazBwV014QkZYbWlFcUN0eno3ZEFwb0Mwbnp5ZEdKU3hCcVZRVVRxS0Z3WWl1SW8wV0NxTmVG
        a0h0CglFMlQ2YVhsRStZQjc3V0lnQnh1ckZtZmdiTC9KZjRGV21SN0VOOEVXVlBLVWZ6SmFBMnY0ZE0wenpibmM0anNQN3lMZQoJaVlQVFdneFRxRzFSNERucVZWQWdY
        V005SExwSVVjZ21PaTJBVUpUSjJCdEtCRDExTkNBZXdVS2RjWmNVbTVXNHM0Q1gKCVRhMzNrdU52UytHcjFUbE1tVCtHdU13enBsQ0lkdlYrSWVHZHVFR2RST0NQeHBO
        MVNFc3hyNHNySFV4NEk1RzFZelV4Cgl5QUdneTNZQU9IRFoxZ1lreDRCb3Z3bHk2RVJyTU5vTHdnRG90UXVkcVc5cnV2RVg5c09LWVp3Q0tod093MFZSU1M4cwoJRE9O
        M0p0bk9tMHpQK01MOGRvUW0KCTwvZGF0YT4KCTxrZXk+bWFudWZhY3R1cmVyPC9rZXk+Cgk8aW50ZWdlcj4xNDQ3MjUzNTk5PC9pbnRlZ2VyPgoJPGtleT5uYW1lPC9r
        ZXk+Cgk8c3RyaW5nPlZDVlJhY2s8L3N0cmluZz4KCTxrZXk+c3VidHlwZTwva2V5PgoJPGludGVnZXI+MTQ0NzI1MzU3NDwvaW50ZWdlcj4KCTxrZXk+dHlwZTwva2V5
        PgoJPGludGVnZXI+MTYzNTA4NTY3MDwvaW50ZWdlcj4KCTxrZXk+dmVyc2lvbjwva2V5PgoJPGludGVnZXI+MTwvaW50ZWdlcj4KPC9kaWN0Pgo8L3BsaXN0PgoBAAAA
        AAAAAAAA
      >
      FLOATPOS 0 0 0 0
      FXID {5CF094C6-B0B3-8540-ADA2-6988E546D20D}
      WAK 0 0
    >
  >
  <TRACK {AA654F10-A467-8D45-86CE-3EA1A1F64A2B}
    NAME "Pianoteq 8"
    PEAKCOL 16576
    BEAT -1
    AUTOMODE 0
    PANLAWFLAGS 3
    VOLPAN 0.49866990604774 0 -1 -1 1
    MUTESOLO 0 0 0
    IPHASE 0
    PLAYOFFS 0 1
    ISBUS 0 0
    BUSCOMP 0 0 0 0 0
    SHOWINMIX 1 0.6667 0.5 1 0.5 0 0 0
    FIXEDLANES 9 0 0 0 0
    SEL 0
    REC 1 5088 1 0 0 0 0 0
    VU 2
    TRACKHEIGHT 0 0 0 0 0 0 0
    INQ 0 0 0 0.5 100 0 0 100
    NCHAN 2
    FX 1
    TRACKID {AA654F10-A467-8D45-86CE-3EA1A1F64A2B}
    PERF 0
    AUXRECV 0 0 1 0 0 0 0 0 0 -1:U 0 -1 ''
    MIDIOUT -1
    MAINSEND 1 0
    <FXCHAIN
      WNDRECT 32 310 1035 516
      SHOW 0
      LASTSEL 1
      DOCKED 0
      BYPASS 0 0 0
      <VST "VST3i: Pianoteq 8 (Modartt) (1->5ch)" "Pianoteq 8.vst3" 0 "" 1031062328{565354507438717069616E6F74657120} ""
        OMN0Pe5e7f4CAAAAAQAAAAAAAAACAAAAAAAAAAUAAAABAAAAAAAAAAIAAAAAAAAABAAAAAAAAAAIAAAAAAAAABAAAAAAAAAA9xUAAAEAAAD//xAA
        5xUAAAEAAABWc3RXAAAACAAAAAEAAAAAQ2NuSwAAFc9GQkNoAAAAAlB0OHEACAQBAAAAAAAAAAAAAAAAAAAAAAAAAAAAAAAAAAAAAAAAAAAAAAAAAAAAAAAAAAAAAAAA
        AAAAAAAAAAAAAAAAAAAAAAAAAAAAAAAAAAAAAAAAAAAAAAAAAAAAAAAAAAAAAAAAAAAAAAAAAAAAAAAAAAAAAAAAAAAAAAAAAAAAAAAAAAAAAAAAAAAVN6CYE/4CAAAA
        SDgSAOsUAAABAAAAEThWON8UAABQclZLKQAAAlhGVFDPFAAACgAAADIwMjUvMDIvMjcXAAAAUGlhbm90ZXEgOC40LjEvMjAyNTAyMDTbiYsJd7D11Sso+HyXcVHIZGxs
        YY4UAAB0ZHRNMQQAAA4AAABDaW1iYWxvbSBiYXNpYwAAAAAHAAAATW9kYXJ0dIEAAABDaW1iYWxvbSBkZWZhdWx0IHByZXNldC4gSW1wb3J0YW50OiBzdXN0YWluIHBl
        ZGFsIGlzIGludmVyc2VkLCBzdHJpbmdzIGFyZSBkYW1wZWQgd2hlbiB0aGUgY2ltYmFsaXN0IGRlcHJlc3NlcyB0aGUgc3VzdGFpbiBwZWRhbC4AAAAARAEAAA4AAABD
        aW1iYWxvbSBiYXNpYwAAAABpAwAAR1JVVQAAAAYAAAABA8BNVHJrAAADUwD/AgwgTHVjIEhlbnJpb26BOLBAAIR9kChkhDwvWYMugC9VCZA0X4McN06BUoA3UYFHkDtZ
        gTWAO1uCHZA+SoF0gD5SgiKQQF2BU4BAYoJukEJSgUSAQlyDNZBDVIRJRUsHgENPhGuQR00DgEVUgW9HUoMzkEhKgiOASB6DFpBKRIFQgEpZTihhcjRjhTqwQH+EC5Aw
        XW6wQAAnkEBMOzdFLUNPZYAwXxZAXSeQPFsrgDdiEUNiOpBMYh+APFxzTG2FJJBMW4FngExbiEWQSkaBG4BKX4R3kExHgS2ATFuDRZBKQmyASlqEdZBIeYQYR1YjgEg4
        gS+QRUJSgEdbJkVfFJBDWYEVgENlRZBCVIFNgEJxC5BANYE+gEBiB5A+T4ESgD5lYpA8RYEvO0cWgDxVaztdLpA5RGWAOVtOkDdZgVY2YQeAN0iBNzZ2UJA0UmiANGCH
        A7BAfwyQKEKBci9CPzs9bLBAAByQQElDNEUpgCg+BDtQHS9NQEBdP5BHWSmANF2BQkdehDCQR2aBPIBHb4F0kEdNVIBHYYENkEdMYYBHX4EOkEdbbYBHXIEHkEdkZIBH
        X4EGkEdrdIBHaXuQR3N3gEdtgQuQR3VugEd9gReQR3NosEB/EoBHcoMykEVfYYBFXoN7kEdiVIBHYIUpkEVFaIBFXoZRkEM7hAKwQACGc4BDX4gPsEB/gV+QLyyBWDY+
        gWyANloGkDlMdTsvPIA5XAawQABmkD9GW4A7XDk/bSSQRVaBDoBFYYcXkEU/gUKART2Idy8+g2+QRTaBFYBFTIZckEM5hQyAQ1uKPZBCNIEVgEJdhl+wQH+FcZAoRYFX
        L0o1N0ENgChQTrBAADeQNFYOO1IHgC9eQTdZKzRlGDtpEZBAZIEBgEBvb7BAf5IQkC1bgQ80ZHCALV1XkDlbFYA0ZU2QPEwhgDljgSyQQFtGgDxXgR2QRU09gEBegQCQ
        SFYegEViaUhphnCQL02BGjZYf4AvXHOQOVsGgDZsdZA7TReAOWOBL5A/XW2AO1wikEJJdoA/aUOQR2YOgEJve0dpiGWQKFJ9L18pgChggUwvYCeQN1mBG4A3YiWQQE+B
        ZkNPRIBAXGSQR19GgENhc5BMXwSAR3tZTGsA/y8AUHJzVU0QAABJAAAACAAAAGN5bWJhbHVtAAAAAAgAAABDaW1iYWxvbQAAAAAAAAAAcHJvbVoAAAABAAAAAQAAAAEA
        AAAIAAAAY3ltYmFsdW0AAAAACAAAAENpbWJhbG9tAACAPwYAAAAAAAAAAAAAAAAAAAAAAAAAAAAAAFRG/////wAAAAAAAAAAAAAAAAAAAAByeWFsEAAAAAIAAAAAAAAA
        AAAAAP////9vbG9zEQAAAAEAAAABAAAARgAAAAAAAAAAAQAAAAEAAAAAAAAAAAAAAAEAAAAAAAAAAAAAAAEAAAAAAAAAAAAAAAEAAAAAAAAAAAAAAAEAAAAAAAAAAAAA
        AAEAAAAAAAAAAAAAAAEAAAAAAAAAAAAAAAEAAAAAAAAAAAAAAAEAAAAAAAAAAAAAAAAAAAADgAAAQAMAAAAAAKhBAABwQgAA2EIDAAAAAAAAAIIDAAAAAQAAAAAAAAAA
        AAAAAwAAAAAAAAAAAAAAAAAAAAMAAAAAAAAAAAAAAAAAAAADAAAAAQAAAAEAAAABAAAAAACAPwAAAAABAAAAAAAAAFOOEz4DgAAAYAIAAAAAABhCAABcQgIAAAANlE4/
        AWafnj8BAAAAAAAAAAAAAAAAAKDAAACgQAAAwEIAAIA/A4AAAFAAAHBCAQAAAAAAAAAAAAAAAAAAAAAAAAABAAAAAAAAAAAAAAAAAKDAAACgQAAAAAADgAAAYAIAAAAA
        AKhBAACuQgIAAAAAAAAAgQOAAABgAgAAAAAAqEEAAK5CAgAAAAAAgD+BgAAAAAAAAADSBAAAAAAAAAAAAAAAAACAAAAAPwAAgD8DgAAAYAIAAAAAAKhBAACuQgIAAAAA
        AAAAgQOAAABgAgAAAAAAqEEAAK5CAgAAAAAAAACBA4AAAGACAAAAAACoQQAArkICAAAAAACAP4ECAAAAAQAAAFUAAABFcXVhbCB0ZW1wZXJhbWVudApUaGUgc3RhbmRh
        cmQgdHVuaW5nLCB3aGVyZSB0aGUgb2N0YXZlIGlzIGRpdmlkZWQgaW4gMTIgZXF1YWwgc3RlcHMuDAAAAAAAyEIAAEhDAACWQwAAyEMAAPpDAAAWRAAAL0QAAEhEAABh
        RAAAekQAgIlEAACWRAEAAAAAAAAABAAAAAAA3EM8AAAARQAAAEYAAAAAfwAAAAAAAAAHAAAARGVmYXVsdAAAAAAAAAAAAgAAAAOAAABgAgAAAAAAqEEAAK5CAgAAAAAA
        AACBAQAAAAAAAAAAAIA/AQAAAAEAAAABAAAAHwAAAAOAAABIAQAAAAAAgD8AAAAAAACAPwOAAABgAgAAAAAAqEEAAK5CAgAAAAAAgD+BA4AAAGACAAAAAACoQQAArkIC
        AAAAAACAP4EDgAAAUAAAekQBAAAAAAAAAAOAAABQAAB6RAEAAAAAAIA/AAAAAAOAAABQAABwQgEAAAAAAAAAAACAPwOAAABQAABwQgEAAAAAAAAAAQAAAAAAAAAAAAAA
        zczMvc3MzD0BAAAAAAAAAAAAAAAAAAC/AAAAPwAAgD8DgAAAQAMAAAAAAKhBAABwQgAA2EIDAAAAAACAP4IAAAAAA4AAAGACAAAAAACoQQAArkICAAAAAAAAAIEAAIA/
        A4AAAGACAAAAAACoQQAArkICAAAAAACAP4EAAEhCA4AAAGACAAAAAACoQQAArkICAAAAAAAAAIEAAIA/A4AAAEADAAAAAACoQQAAcEIAANhCAwAAAAAAgD+CA4AAAEgB
        AAAAAAAAAAEAAAADgAAAYAIAAAAAAAAAAACAPwIAAAAAAAAAAQAAgD8DgAAAYAIAAAAAAAAAAACAPwIAAAAAAIA/gQOAAABABAAAAAAAAAAmk0k+/n4/PwAAgD8EAAAA
        AACAP4EAAAAAgQOAAABgAgAAAAAAAAAAAIA/AgAAAAAAAACBAAAAAM3MTD4AAAAAAAAAAAAAAAAAAAA/AAAAAGZm5j8DgAAAYAIAAAAAAKhBAACuQgIAAAAAAIA/gQAA
        gL8AAAA/A4AAAGACAAAAAADAQQAAkEICAAAAAACAP4EBAAAAAQAAAAEAAAAKAAAAU21hbGwgSGFsbAsAAABtZWRpdW1oYWxsMQAAQMAAAKBBAACAP5qZmT8AAAAAzcxM
        PQAAAAAAAAAAAAAAAFK4nj8AAKpDAACAPwAAgD8BAAAABgAAAAAAgD8AAIA/A4AAAGBYAAAAAACoQQAAgD9YAAAA/5VZP1c/G0I/3f1qP6f4UD8m/GA/viCLP98pNT9h
        zGo/y22IP/e7fz8mpJU/7tE5PzBsSz/S10U/GVt1P0NFZD//55A/yBSGP9/QWD/7Azg/2D0/P9W9jD9XMGI/wkdfP2pLlD+U+YE/wVJKP+qpUj+6UZU/ubuFP7l1Zj/r
        10w/REiRP+bHST/59GQ/bhpBP4FPOz/0VG4/LSc4P6MnZD/zD4c/2pGRPzj+kz8MQ40/wKSFPxe0Zj9bxkE/zueYP3a2Rz9XXlM/uMNqPweIXT8Y/1c/1FuIP3SckD9P
        +oo/QItMP0sdjT8rHFg/YyeAPxOyRz8Na3s/YDReP/zRbT982IU/biBiP7raPz8UZXM/aMWUP4hcZD9PvjQ/cBiBP003Nz84mZk/XClaPw+qOD8NzlQ/JrtaP8lXYz/q
        tDY/Z+uTP43xjz9ssZU/cKSUP1U/UT9luUA//bM7P9Nwgz8DgAAAQAMAAAAAAKhBAABwQgAA2EIDAAAAAACAP4IAAAAAA4AAAGBYAAAAAACoQQAAgD9YAAAAt/G3vVco
        I2K+8g4ivp5XDrzVFQS+ZwervYqE4T3k+9I8sLbDvC9qWT6Yr8Q9bvkyPo0pOD6fhJ49XeYpPj+4bT1UmOE8Hnt4vjgy1Tyenoy+UjJ4u+V0XT7kLxc8uPqYvgu7Pb2n
        nQI7qpYFvHAFnr13A1I+Oo5/PYPnOD45oze+iv2FPrPDFDw4T3u+bdaTPnFK4r0iREa+UuqovET+dL5o+yI9i8ufPex1BL7IBo2+8DH9veWmCj5pvpY8CBKbvTXhfL6Q
        wQs8gPE0PkojeL5ivGe+636ROwsFH702isI9oZkkvukDjz3BJbY8AvFyvmNR07zSxPA9nfxhPhyxjD4qwQS9LL6rPO5Vb75bV3G+WIkwvo3aO77J7nG+qomSPC7TJb5v
        Blc+OAH3vaLHJT5clBg+SrK2PdnQCj4UmnQ+b9MhPjKVcL5cNHS+ol3HPcEdmL59Q4G+zbKJPoGNbL4BAAAAAAAAAAEAAAAAAAA/AAAAQAMAAAAAAIA/AACAPwAAgD8D
        gAAAQAMAAAAAAKhBAABwQgAA2EIDAAAAAACAP4IDgAAAQAMAAAAAAKhBAABwQgAA2EIDAAAAAACAP4IDgAAAQAMAAAAAAKhBAABwQgAA2EIDAAAAAACAP4IAAIA/AACA
        PwcAAAAAAIA/AACAPmZmJj/NzIw/AACAPggAAAAAAAAAAAAAAAAAAAAAAAAAAAAAAAAAAAAAAAAAAAAAAAOAAABAAwAAAAAAqEEAAHBCAADYQgMAAAAAAIA/ggOAAABA
        AwAAAAAAqEEAAHBCAADYQgMAAAAAAIA/ggOAAABAAwAAAAAAqEEAAHBCAADYQgMAAAAAAIA/ggOAAABAAwAAAAAAqEEAAHBCAADYQgMAAAAAAIA/ggEAAAABAAAAAABw
        QgOAAABQAAAAAAEAAAAAAAAA2/EwPgOAAABAEwAAAAAAGEIAACBCAAAoQgAALEIAADRCAABAQgAAUEIAAFxCAABoQgAAdEIAAIBCAACEQgAAjEIAAJRCAACcQgAApkIA
        AK5CAAC2QgAAukITAAAAIM5YPxDB6nY/mohFP5Xymz9DQpk/IM5YP7Lzbj8y3lk/gZwkPxEwOT+tOV4/bhiNP9/raT/B6nY/paRTP3QmlD/B6vY/wer2PwF0JpQ/AQAA
        AAAAAAABAAAAMzMzP2Zmpj8BAAAAAAAAAAEAAAAzMzM/ZmamPwEAAAAAAAAAAQAAADMzMz9mZqY/AQAAAAAAAAABAAAAMzMzP2Zmpj8BAAAAAAAAAAEAAAAzMzM/Zmam
        PwEAAAAAAAAAAADwQgAAAAAOAAAAAAAAP83MzD3NzEw+AAAAPwMAAAAAAAAAA4AAAEgBAAAAAAAAAAAAAAADgAAASAEAAAAAAAAABAAAAAgAAAAHAAAAAwAAAAEAAAAB
        AAAAAACAPwAAgD8BAAAAAQAAAAEAAAABAAAAAQAAAAAAgD8AAAAAAACAQAAAtEJGAAAAAAOAAABIAQAAAAAAAAAAAAAAA4AAAEgBAAAAAAAAAAAAAAAAAAAAA4AAAEgB
        AAAAAAAAAAAAAAADAAAACAAAAAAAAAAAAAAADgAAABAAAAAAAAAAAACAPwAAAAAAAKDBAAAAAAAAAL8AAIA/AAAAAAAAAAAAAAAAAAAAAAAAAAAAAAAAAAAAAAAAAAAA
        AAAAAwAAAAkAAAAAAAAAAAAAAA4AAAAQAAAAAAAAAAAAgD8AAMA/AABAQAAAcMEAACBBAADwQQAAAAAAAAAAAAAAAAAAAAAAAAAAAAAAAAAAAAAAAAAAAAAAAAMAAAAA
        AAAAAAAAAAAAAAAOAAAAEAAAAAAAAAAAAAAAAAAAAAAAAAAAAAAAAAAAAAAAAAAAAAAAAAAAAAAAAAAAAAAAAAAAAAAAAAAAAAAAAAAAAAAAAAABAAAAAQAAAJsgGj8A
        AEDBAAAAAAMAAAADAAAAAAAAAAEAAAAFAAAABAAAAAEAAAADAAAAzczMPgAAAD9mZuY/AAAHw7wODcIIAAAABQAAAAAAAAAAAHDBAADAwgAAwMIAAMDCBQAAAAAAAAAA
        AAAAAAAAAAAAAAAAAAAABQAAAAAAAAAAAAAAAAAAAAAAAAAAAAAAAQAAAAAAAAAEAAAAAQAAAAMAAAAAAIA/AAAAP0jh6j8AAGHDvA4NwggAAAAFAAAAAABwwQAAAAAA
        AMDCAADAwgAAwMIFAAAAAAAAAAAAAAAAAAAAAAAAAAAAAAAFAAAAAAAAAAAAAAAAAAAAAAAAAAAAAAABAAAAAAAAAAQAAAAAAAAAAwAAAI/C9T89Cle/H4VrPwAAtEIA
        AAAAAAAAAAUAAAAAAEDBAABAwQAAcMIAAHDCAABwwgUAAAAAAAAAAAAAAAAAAAAAAAAAAAAAAAUAAAAAAAAAAAAAAAAAAAAAAAAAAAAAAAEAAAAAAAAABAAAAAAAAAAD
        AAAAMzMzv1yPwj6uR2E/AAAAAAAAAAAAAAAABQAAAAAAQMEAAEDBAABwwgAAcMIAAHDCBQAAAAAAAAAAAAAAAAAAAAAAAAAAAAAABQAAAAAAAAAAAAAAAAAAAAAAAAAA
        AAAAAQAAAAAAAAAEAAAAAAAAAAMAAAC4HsU/PQpXP65H4T8AAAAAAAAAAAAAAAAFAAAAAABAwQAAQMEAAHDCAABwwgAAcMIFAAAAAAAAAAAAAAAAAAAAAAAAAAAAAAAF
        AAAAAAAAAAAAAAAAAAAAAAAAAAAAAAABAAAAAAAAAAEAAAAAAAAAAQAAAAMAAAA9Clc/mpmZvmZmpj8AAJBBXI8SQAAAAAAAAAAAAQAAAAAAAAAAAAAAAAAAAEpVQ0VQ
        cml2YXRlRGF0YQABAUJ5cGFzcwABAQMAHQAAAAAAAABKVUNFUHJpdmF0ZURhdGEAAAAAAAAAAA==
        AAAQAAAA
      >
      PRESETNAME "Cimbalom basic"
      FLOATPOS 32 149 592 662
      FXID {1BDB9480-17FE-3248-A735-99C492CB791B}
      WAK 0 0
      BYPASS 0 0 0
      <AU "AU: ValhallaSupermassive (Valhalla DSP, LLC)" "Valhalla DSP, LLC: ValhallaSupermassive" "" 1635083896 1934451059 1866754414
        6QMAAAAAAAACAAAAAQAAAAAAAAACAAAAAAAAAAIAAAABAAAAAAAAAAIAAAAAAAAASwYAADw/eG1sIHZlcnNpb249IjEuMCIgZW5jb2Rpbmc9IlVURi04Ij8+CjwhRE9D
        VFlQRSBwbGlzdCBQVUJMSUMgIi0vL0FwcGxlLy9EVEQgUExJU1QgMS4wLy9FTiIgImh0dHA6Ly93d3cuYXBwbGUuY29tL0RURHMvUHJvcGVydHlMaXN0LTEuMC5kdGQi
        Pgo8cGxpc3QgdmVyc2lvbj0iMS4wIj4KPGRpY3Q+Cgk8a2V5PmRhdGE8L2tleT4KCTxkYXRhPgoJQUFBQUFBQUFBQUFBQUFBU0FBQUFNRDhBQUFBQUFBQXhQb0FBQUFB
        QUFESStra2tsQUFBQU16OEFBQUFBQUFBMEFBQUEKCUFBQUFBRFUvZ0FBQUFBQUFOajhBQUFBQUFBQTNBQUFBQUFBQUFEZy9nQUFBQUFBQU9RQUFBQUFBQUFZZlA0QUFB
        QUFBCglCaUErakRQOEFBQUdJVDhBQUFBQUFBWWlQU3FxcXdBQUJpTUFBQUFBQUFBR0pBQUFBQUFBQUFZbEFBQUFBQUFBQmlZQQoJQUFBQQoJPC9kYXRhPgoJPGtleT5l
        bGVtZW50LW5hbWU8L2tleT4KCTxkaWN0PgoJCTxrZXk+MTwva2V5PgoJCTxkaWN0PgoJCQk8a2V5PjA8L2tleT4KCQkJPHN0cmluZz5JbnB1dDwvc3RyaW5nPgoJCTwv
        ZGljdD4KCQk8a2V5PjI8L2tleT4KCQk8ZGljdD4KCQkJPGtleT4wPC9rZXk+CgkJCTxzdHJpbmc+T3V0cHV0PC9zdHJpbmc+CgkJPC9kaWN0PgoJPC9kaWN0PgoJPGtl
        eT5qdWNlUGx1Z2luU3RhdGU8L2tleT4KCTxkYXRhPgoJVmtNeUllNEJBQUE4UDNodGJDQjJaWEp6YVc5dVBTSXhMakFpSUdWdVkyOWthVzVuUFNKVlZFWXRPQ0kvUGlB
        OFZtRnMKCWFHRnNiR0ZUZFhCbGNtMWhjM05wZG1VZ2NHeDFaMmx1Vm1WeWMybHZiajBpTXk0d0xqQWlJSEJ5WlhObGRFNWhiV1U5CglJa1JsWm1GMWJIUWlJRTFwZUQw
        aU1DNDFJaUJFWld4aGVWTjVibU05SWpBdU1qVWlJRVJsYkdGNVRtOTBaVDBpTUM0eQoJT0RVM01UUXlPVGcwT0RZM01EazJJaUJFWld4aGVWOU5jejBpTUM0MUlpQkVa
        V3hoZVZkaGNuQTlJakF1TnpJMU1EQXcKCU1ESXpPRFF4T0RVM09TSWdRMnhsWVhJOUlqRXVNQ0lnUm1WbFpHSmhZMnM5SWpBdU5qZ3hPVGs1T1RneE5EQXpNelV3CglP
        Q0lnUkdWdWMybDBlVDBpTUM0ek5URXdNREF3TVRBNU5qY3lOVFEySWlCWGFXUjBhRDBpTVM0d0lpQk1iM2REZFhROQoJSWpBdU1DSWdTR2xuYUVOMWREMGlNUzR3SWlC
        TmIyUlNZWFJsUFNJd0xqSTNNemd6TkRFd09UTXdOak16TlRRaUlFMXYKCVpFUmxjSFJvUFNJd0xqVWlJRTF2WkdVOUlqQXVNRFF4TmpZMk5qWTNPVEE0TkRNd01TSWdV
        bVZ6WlhKMlpXUXhQU0l3CglMakFpSUZKbGMyVnlkbVZrTWowaU1DNHdJaUJTWlhObGNuWmxaRE05SWpBdU1DSWdVbVZ6WlhKMlpXUTBQU0l3TGpBaQoJSUcxcGVFeHZZ
        MnM5SWpBaUlIVnBWMmxrZEdnOUlqZ3lNQ0lnZFdsSVpXbG5hSFE5SWpRek5TSXZQZ0E9Cgk8L2RhdGE+Cgk8a2V5Pm1hbnVmYWN0dXJlcjwva2V5PgoJPGludGVnZXI+
        MTg2Njc1NDQxNDwvaW50ZWdlcj4KCTxrZXk+bmFtZTwva2V5PgoJPHN0cmluZz5VbnRpdGxlZDwvc3RyaW5nPgoJPGtleT5zdWJ0eXBlPC9rZXk+Cgk8aW50ZWdlcj4x
        OTM0NDUxMDU5PC9pbnRlZ2VyPgoJPGtleT50eXBlPC9rZXk+Cgk8aW50ZWdlcj4xNjM1MDgzODk2PC9pbnRlZ2VyPgoJPGtleT52ZXJzaW9uPC9rZXk+Cgk8aW50ZWdl
        cj4wPC9pbnRlZ2VyPgo8L2RpY3Q+CjwvcGxpc3Q+CgEAAAAAAAAAAAA=
      >
      FLOATPOS 64 306 820 488
      FXID {81992BD9-6484-2340-9F4C-C8B888C3C46D}
      WAK 0 0
    >
  >
  <TRACK {14243C7B-D387-124E-9C74-CC85789D3829}
    NAME "Pianoteq 8"
    PEAKCOL 16576
    BEAT -1
    AUTOMODE 0
    PANLAWFLAGS 3
    VOLPAN 0.69287534856501 0.68 -1 -1 1
    MUTESOLO 0 0 0
    IPHASE 0
    PLAYOFFS 0 1
    ISBUS 0 0
    BUSCOMP 0 0 0 0 0
    SHOWINMIX 1 0.6667 0.5 1 0.5 0 0 0
    FIXEDLANES 9 0 0 0 0
    SEL 0
    REC 1 5088 1 0 0 0 0 0
    VU 2
    TRACKHEIGHT 0 0 0 0 0 0 0
    INQ 0 0 0 0.5 100 0 0 100
    NCHAN 2
    FX 1
    TRACKID {14243C7B-D387-124E-9C74-CC85789D3829}
    PERF 0
    AUXRECV 0 0 1 0 0 0 0 0 0 -1:U 0 -1 ''
    MIDIOUT -1
    MAINSEND 1 0
    <FXCHAIN
      WNDRECT 32 136 807 690
      SHOW 0
      LASTSEL 0
      DOCKED 0
      BYPASS 0 0 0
      <VST "VST3i: Pianoteq 8 (Modartt) (1->5ch)" "Pianoteq 8.vst3" 0 "" 1031062328{565354507438717069616E6F74657120} ""
        OMN0Pe5e7f4CAAAAAQAAAAAAAAACAAAAAAAAAAUAAAABAAAAAAAAAAIAAAAAAAAABAAAAAAAAAAIAAAAAAAAABAAAAAAAAAAXy4AAAEAAAD//xAA
        Ty4AAAEAAABWc3RXAAAACAAAAAEAAAAAQ2NuSwAALjdGQkNoAAAAAlB0OHEACAQBAAAAAAAAAAAAAAAAAAAAAAAAAAAAAAAAAAAAAAAAAAAAAAAAAAAAAAAAAAAAAAAA
        AAAAAAAAAAAAAAAAAAAAAAAAAAAAAAAAAAAAAAAAAAAAAAAAAAAAAAAAAAAAAAAAAAAAAAAAAAAAAAAAAAAAAAAAAAAAAAAAAAAAAAAAAAAAAAAAAAAtn6CYE/4CAAAA
        SDgSAFMtAAABAAAAEThWOEctAABQclZLKQAAAlhGVFA3LQAACgAAADIwMjUvMDIvMjcXAAAAUGlhbm90ZXEgOC40LjEvMjAyNTAyMDSxhlAQgLFdBsUYrtQ9lXn4ZGxs
        YfYsAAB0ZHRNnQMAAAkAAABLMiBEcmVhbXkAAAAABwAAAE1vZGFydHRRAAAASW5jcmVhc2luZyB0aGUgc3RlcmVvIHdpZHRoIGFuZCB0aGUgcmV2ZXJiIGR1cmF0aW9u
        IHR1cm5zIEsyIGludG8gYSBkcmVhbXkgcGlhbm8uAAAAAEQBAAAJAAAASzIgRHJlYW15AAAAAA8DAABHUlVVAAAABgAAAAEDwE1UcmsAAAL5AP8CDyBCbGF6IEp1cmpl
        dmNpYwCANQAwLgCEAkEAFZBCOD00IYYdsEB/gSCQPh8lOh+JboA6AIFPNACGF7BAACaAQgAAkENSBoA+ABOQKTKDDrBAf4F6gCkAOZA/TAWAQwASkDpCGTUugVeANQBs
        OgCDNLBAAB2APwAmkEVEHS40gnKwQH+BaoBFACeQQUoZPjYdgC4AE5A5IoMhgDkALLBAMApAAC+AQQA0kEZGDy0uB4A+AII/sEB/gl6ALQATkEJADj06BoBGAAuQNyqD
        QYA9AIIksEAAFYA3AAlCABSQR0YxLD6CbLBAQQhAf4MykDs6A0Q8CkA8Dzg6QYAsAGc4AFJHAExAADU7ABlEAIUfsEAAF5BITCQrNoNasEB/g3OQQTIERSwMPCEDPh8Y
        NSGFX4ArAINvPAAISAAYPgBcQQCDZ0UAApBJNoFJgDUACUkAArBAAByQSkY0KiyDK7BAf4NggCoAHpA5GYNRQCGDK4BKADuQRTaEekw6hTeAOQCEZkUAgShMAFZAAIIX
        kEw2ggSATAAmkE1AYbBAAIMSkClAarBAf4FUgCkAggOQNSyDCYA1AIErkDoyhSc/NC+AOgCDUZBCNIReRjgmgE0AhXiQTTSHeYA/AINETQCBIkYAbkIAhQiQS0wKsEAA
        A5ApOoNJsEB/hwWAKQCBHZA5MIVhPzaGa0IqhzZHOhOASwCNRJBLIosugEcAgWJCAAA/AGVLAIUlOQBWkEkugXmwQAALgEkAE5BKQIkgsEB/gXKQLh6FFzUghAOANQA6
        kDkdhDo+KoU3gEoAQpBFNo0qgD4AhRmQSDIUgEUAgQaQQB+aLIBIAANAAIVPkEYegWc+FY8LgEYAJi4AKj4ANjkAlnmwQACEVoApQAAqQAArQAAsQAAtQAAuQAA0QAA1
        QAA3QAA4QAA5QAA6QAA7QAA8QAA9QAA+QAA/QABAQABBQABCQABDQABEQABFQABGQABHQABIQABJQABKQABLQABMQABNQAD/LwBQcnNVSSkAAEkAAAACAAAAazIAAAAA
        CAAAAEdyYW5kIEsyAAAAAAAAAABwcm9tVAAAAAEAAAABAAAAAQAAAAIAAABrMgAAAAAIAAAAR3JhbmQgSzIAAIA/BgAAAAAAAAAAAAAAAAAAAAAAAAAAAAAAVEb/////
        AAAAAAAAAAAAAAAAAAAAAHJ5YWwQAAAAAgAAAAAAAAAAAAAA/////29sb3MRAAAAAQAAAAEAAABGAAAAAAAAAAABAAAAAQAAAAAAAAAAAAAAAQAAAAAAAAAAAAAAAQAA
        AAAAAAAAAAAAAQAAAAAAAAAAAAAAAQAAAAsAAABCcm9jZWxpYW5kZQAAAAABAAAAAAAAAAAAAAABAAAAAAAAAAAAAAABAAAAAAAAAAAAAAABAAAAAAAAAAAAAADs//+/
        A4AAAGBpAAAAAAAQQQAAgD9pAAAA7KPgP2gUXc0/DDXGP6hDNUC8HeE/jCOlP7JMA0DYum8/AL5ZPngjYj8w/r4+4AYKPuwM+j98Z+U/MC/av7KCGEA0O/E/vJfOPx6K
        IED4GmVAbNkuQMxViD/i3QlAoOrpvuhmET/kqPU/cMKVvtya5D8OQRJATPHrP9reFEAkp1VA9GlEQPSknD8QC+g+8K2MPkiTHT/0/oy//Bymv1gKcj8UE4g/vCOgP8il
        N0AkLrk/WCkmP9wMwD9AY9W9yMclv+xjxT8AJPw8qPxJv3DjpL+wtLk+SKs4v/qoCUDE3K0/8HH4vjy1i78IoBo/fMObP+Q4/j8g7Gc+6MFOv7DXxr7QRNS+KMtyv2xe
        iL84MUk/7Mj4P8D60b2uphZAVGHKv3iDCL94tC0/sv4GQOCHC76Ewu0/2Ag6P8gZFD/Q3EZA0LIoQIDkX70AQTq+gJd/PiCSF8AQM+y+SKciQEDkpD3wh44+vEzTPwDX
        iDx8Fuw/aDtlQKT8jb9eFUpA7Ke2PxgKIz+aFQBAZAvXP2JGKUBgtC4+APHTPAC5JL5EhMk/KPNEPwMAAAABAAAAAAAAAAAAAAADAAAAAAAAAAAAAAAAAAAAAwAAAAAA
        AAAAAAAAAAAAAAMAAAABAAAAAQAAAAEAAAAAAIBAAAAAAAEAAAAAAAAA5X8iPgOAAABACgAAAAAAqEEAAOhBAAAYQgAAIEIAACRCAAAsQgAAYEIAAJJCAACUQgAAtkIK
        AAAAYaZJPwcD0k4/EMxpP3L8XD9fQ1Q/OQ5gPzEIgD+rPrM/qz6zP4EBAAAAAAAAAAAAAAAAAKDAAACgQAAAtkIAAAAAA4AAAFAAAHBCAQAAAAAAAAAAAAAAAACAwAAA
        wMABAAAAAAAAAAAAAAAAAKDAAACgQAAAAAADgAAAYAIAAAAAAKhBAACuQgIAAAAAAAAAgQOAAABgAgAAAAAAqEEAAK5CAgAAAAAAgD+BgAAAAAAAAADSBAAAAAAAAAAA
        AAAAAACAAAAAPwAAgD8DgAAAUAAAcEIBAAAAAAAAAAOAAABgaQAAAAAAEEEAAIA/aQAAAAAAAMACAACAvwAAQMAAAEDABAAAQEAAAABAAADAQAAAgD8AAIA/BgAAwEAA
        AEBAAACAQAAAAMAAAEDAAACAQAAAgEAIAACgQAAAwEAAAIBAAAAAgAAAgD8AAADAAACAPwAAQMAAAEDAAwAAQEAAAIBAAACgQAAAoEAGAABAwAAAoEAAAACAAAAAQAAA
        QMAAAKBAAACgQBUAAEBAAACAQAAAAEAAAADAAACAPwAAgEAAAABAAACgQAAAQEAAAEDAAAAAgAAAgEAAAEDAAAAAgAAAgD8AAIC/AABAwAAAoEAAAEDAAAAAwAAAAIAA
        AACABQAAoEAAAEDAAAAAwAAAgL8AAEDAAABAwAMAAKBAAAAAwAAAQMAAAEDADwAAgEAAAIA/AABAwAAAgEAAAAAAAACAQAAAgL8AAABAAACgQAAAQMAAAIC/AAAAwAAA
        wEAAAKBAAABAwAAAQMADAAAAwAAAgD8AAEDAAABAwAEAAIC/AACAvwQAAMBAAACAQAAAQMAAAAAAAAAAAAcAAIA/AABAwAAAAMAAAMBAAABAwAAAwEAAAEDAAABAwIEA
        AABAA4AAAGACAAAAAACoQQAArkICAAAAAACAP4ECAAAAAQAAAFUAAABFcXVhbCB0ZW1wZXJhbWVudApUaGUgc3RhbmRhcmQgdHVuaW5nLCB3aGVyZSB0aGUgb2N0YXZl
        IGlzIGRpdmlkZWQgaW4gMTIgZXF1YWwgc3RlcHMuDAAAAAAAyEIAAEhDAACWQwAAyEMAAPpDAAAWRAAAL0QAAEhEAABhRAAAekQAgIlEAACWRAEAAAAAAAAABAAAAAAA
        3EM8AAAARQAAAEYAAAAAfwAAAAAAAAAHAAAARGVmYXVsdAAAAAAAAAAAAgAAAAOAAABgaQAAAAAAEEEAAIA/aQAAAAAASMIOAAAswgAAEMIAAODBAADIwQAAqMEAAJDB
        AABgwQAAQMEAACDBAAAQwQAAAMEAAODAAADAwAAAoMAAAKDAAQAAgMAAAIDAgQAAQMCCAAAAwIMAAIC/hwAAAADGAAAAAAAAAAAAAIA/AQAAAAEAAAABAAAAGAAAAAOA
        AABIAQAAAAAAgD8AAAAAmpmZPwOAAABgAgAAAAAAqEEAAK5CAgAAAAAAgD+BA4AAAGACAAAAAACoQQAArkICAAAAAACAP4EDgAAAUAAAekQBAAAAAAAAAAOAAABQAAB6
        RAEAAAAAAIA/AAAAAAOAAABQAABwQgEAAAAAAAAAAACAPwOAAABQAABwQgEAAAAAAAAAAQAAAAAAAAAAAAAAzczMvc3MzD0BAAAAAAAAAAAAAAAAAAC/AAAAPwAAgD8D
        gAAAQAMAAAAAAKhBAABwQgAA2EIDAAAAAACAP4IAAAAAA4AAAGACAAAAAACoQQAArkICAAAAAAAAAIEAAIA/A4AAAGACAAAAAACoQQAArkICAAAAAACAP4EAAPBBA4AA
        AEAHAAAAAACoQQAAkEIAAKhCAAC0QgAAwEIAAMhCAADYQgcAAAAAAAAAgQAAQEAEAACgQAAA4EAAAABBAAAQQQAAgD8DgAAAQAMAAAAAAKhBAABwQgAA2EIDAAAAAACA
        P4IDgAAASAEAAAAAAAAAAQAAAAOAAABgAgAAAAAAAAAAAIA/AgAAAAAAAAABAACAPwOAAABgAgAAAAAAAAAAAIA/AgAAAAAAgD+BA4AAAEAEAAAAAAAAAAyTST72fj8/
        AACAPwQAAAAAAAAAgQAAgD+BA4AAAGACAAAAAAAAAAAAgD8CAAAAAAAAAIEAAAAAzcxMPgAAAAAAAAAAAAAAAAAAAD8BAAAAPQoHQAOAAABgAgAAAAAAqEEAAK5CAgAA
        AAAAgD+BAACAvwAAAD8DgAAASAEAAAAAAIA/AQAAAAEAAAABAAAACwAAAEJyb2NlbGlhbmRlBgAAAGZvcmVzdAAAgEDULcVBAACAPwAAgEAAAAAA/vboOwAAcMHNzEy+
        AAAAADMzU0AAAKpDAACAPwAAgD8BAAAABgAAAJqZmT8AAIA/A4AAAGBpAAAAAAAQQQAAgD9pAAAAAACAP5P1uYI/VN6OlD/1uaI//YecP1sllD9ZhpQ/DcOXP0GajT9R
        TpA/LueaPwhVkj9fmKQ/6xyXPwNbnT8tQ6A/c2ilP64hlD92M5I/ofahPzpYkz/6uJI/ZTaYP85wlz8DeJs/h6KgP4/Zpj9WZas/nzKaP64hlD8gKaI/DkCRP+FAoD8y
        A6E/ZY2iPzMzoz8Gu60/bD6mP3gorD9pb6Q/L6ibP+FFoz9LKZM/U8ygP64hlD/qH5g/ofahP7VPqz/uTpA//vGaPzXSlj/5X48/J72fP/g2mT+Vn6A/Rl+hP9P2pz9o
        P54/bqOVP4hGlz94KKw/Mo+UP3HJpT+4QL4/CoCxP0G8pj9hMrU/oMO0Pzdxpj8DW6E/XsmqP1K4nj8Nc44/t9GcP7yukz+u06g/K/uWP0Q0rj9uaZ0/9bmeP6bQoT9a
        2I8/LQmkP8B4nj8sSKc/TiikPwOAAABgaQAAAAAAEEEAAIA/aQAAAAAAgD/oAAAAAAOAAABgXQAAAAAAqEEAAIA/XQAAAAAAAACHAe3YPFS/0b69+lP0vDy7wT0MC0m8
        Q3TIPPM5F70Cxsm9hLSLvTQNj7245aM8ELo6PTGQrD1W8Bu8fD5vvfpQ2Lwz0Ku8Tn7LPEHfLL0e/S88xHGFPRGgsL1lles7qW/EPVaDsL0ue5g9QORoPbGOnr1E1r+8
        xC6QPWrci728QMm9/sALvQkVnLyNLso98R1LvdvY8DvH5bm9DeCdvU5TlbyCot48c06HvbiJBD1xbY08aQIbujTIk72+toM9TZYkPHfHyL1rpWa97z0WvCd+kb34gVW9
        qrWVvPo2w70wwQQ9qbgWPQlkoL1BXbk9FNszPew/kT1A2G499derPc+1tD0Brqq9C4RYPbPsmb2rVLW844GyPbMOory646O91C2GvRIlK73lfke9KO6IPcwknz3RLQs8
        8Yf6O6apxD3xPtg8EmyMPcGtq72Y3Eg9B+0VvQA9qDwBAAAAAAAAAAEAAAAAAAA/AAAAQAMAAAAAAIA/AACAPwAAgD8DgAAAYGkAAAAAABBBAACAP2kAAAAAAIA/6AOA
        AABAAwAAAAAAqEEAAHBCAADYQgMAAAAAAIA/ggOAAABAAwAAAAAAqEEAAHBCAADYQgMAAAAAAIA/ggAAgD8AAIA/BwAAAAAAgD+amZk+zcxMPwAAwD+amZk+CAAAAAAA
        AAAAAAAAAAAAAAAAAAAAAAAAAAAAAAAAAAAAAAAAA4AAAGBpAAAAAAAQQQAAgD9pAAAA30t2P2ibmno/3zh8P3SRWT/gMHY/FuuBP3sHbj9zUYc/zROTP9UliD/wYpA/
        1GaUPxu7cD9KPnU/HWe3PzIeZT8K53I/JNp6PymLYj8ad0g/1z9dPzkrhj/+9mw/CTOgP+2Ejj+DOnQ/5rCdPzOGeD+4DGk/04xzP4bRZD8jREo/oDhPPzaHfj9wIIo/
        gwmMP2a8hT+E3KE/wW+kP7NLfD/SV3c/xodwP+ZjRj9jPGg/R/p8PxTsYz+QOYg/UxyQP9yXXj9+noM/dr2PPxhKlz/dmHo/eS2OP2ScTD+Vg2A/wgSLP2JNlT8hCnY/
        KaNlP4mBUj92F4E/ZqSRP5sTjD+HJY0/2ciWP0uImT+oQ3k/lS5aP14Vij+sKFA/9r2jP2yahT+KhXw/dDFWP/q0ij+5ikI/tUZyP7Vxgz9l8D0/UAFOP4c8kD9S/Zc/
        aC6WPyjUwz9Bwq8/4QF1PykqoD+ZL5o/OKiBP94fmj/I+HU/rBZFP5SCpT8qOUY/v8RsP9LJfT9xRVQ/ApNXP+vLPD9JBXs/Gz1/P4tkgj+yj1U/70xqPwOAAABgaQAA
        AAAAEEEAAIA/aQAAAIlAST+YoEBJPzX4UEk/uM5KP7BJTj9nHlM/aVpWP/1rVj/1p1k/PXlePze1YT/JxmE/yAJlPwvUaT8GEG0/fiFtP85JcD8fcnM/lYNzP47JeD/S
        pH8/ZnWCPy6Dgz8wJoY/dJiJP8GnjD9kRo8/INiTP3SQlz9lvZk/pX+dP/0eoj/coqc/PY+vP8V4tz/Kubw/oGHAP9i9xT8feMk/HPPNP2yj0T//INQ/UgnVP5Px1T9S
        Zdg/lU3ZP9k12j+Hqdw/9YfdP7yb3T8qet4/ze3gPyzM4T8P1uE/HdbhPx3W4T+ZA4AAAGBpAAAAAAAQQQAAgD9pAAAAAACAP5tKR4E/Kfz0gD9GPII/9+mBP0Exgz/x
        3oI/PSaEP+3Tgz85G4U/6siEPzYQhj+AV4c/MAWHP3xMiD8t+oc/yciIPyfviD+5uYk/I+SJP24riz+bm4s/PDyMP319jT9waI4/X1+PP3ewkD9IoZI/tbSUP//5lz+P
        HJo/utidPwAAoD9aQKI/bYWkP/b1pT8kA6c/NzenPycnpz9IRKc/JyenPzc3pz8nJ6c/JyenP4K9U6c/Aevgpj/r4KY/nQOAAABgaQAAAAAAEEEAAIA/aQAAALhLgj9o
        wbGBPz6SgD8JLX4/Bxp8P6s0fD+DbH0/1Vp+P3hRfz++PYA/5ayAP1bcgD8s7IA/7eOAP1+GgD/RB4A/ddB/PzkCgD+4FoA/nWCAP83kgD/pWoE/1EGBP1aMgD9MOYA/
        I8yAP9dsgT/5voE/6eGBPzGygT/KfoE/8UaBPynVgD+uqYA/9Q2BP7p6gT+AgoE/BUaBP+7bgD/yRYA/sYp/P58Nfz/z6H4/0VZ+P6mafT8AsH0/EFZ+P90Yfz95E4A/
        oaGAP/HjgD/oCYE/piWBP2PXgD/7YYA/6Z6AP6VMgT+tHoE/IPh/PwgOfj+9g30/ByN9PzghfD/FhXs/CE98P2v7fT+cun8/WYiAP2uGgD95B4A/EI1/P2TDfz/JEIA/
        +PZ/P5vifj/x330/SQZ+P0IegD8dP48/LdeAP1PygD9q3YA/scOAP3pLgD9/X4Q/lMqFP4Dufj/dvn4/71p+P+3Gfj8cvn8/XhaAP2Xwfz8iUYA/BiGBPxtpgT9nA4E/
        SrmAP7DYgD9f04A/tHuAPywIgD/RCn8/S5J+P/9Cfz8BAAAAWwAAAAAAEEEDgAAAYAwBAAAAAAAAAACAPwwBAAAAACBBBgAAoEAAACBAmpmZP5qZGT+amZk+AAAAAAAA
        AAD/AAAAAP8AAAAAhAAAIEEDgAAAYAIBAAAAAAAAAACAPwIBAAAAACBBBgAAoEAAACBAmpmZP5qZGT+amZk+AAAAAAAAAAD/AAAAAPoAADBBA4AAAGD0AAAAAAAAAAAA
        gD/0AAAAAAAgQQYAAKBAAAAgQJqZmT+amRk/mpmZPgAAAAAAAAAA/wAAAADsAABAQQOAAABg7gAAAAAAAAAAAIA/7gAAAAAAIEEGAACgQAAAIECamZk/mpkZP5qZmT4A
        AAAAAAAAAP8AAAAA5gAAUEEDgAAAYOkAAAAAAAAAAACAP+kAAAAAACBBBgAAoEAAACBAmpmZP5qZGT+amZk+AAAAAAAAAAD/AAAAAOEAAGBBA4AAAGDWAAAAAAAAAAAA
        gD/WAAAAAAAgQQYAAKBAAAAgQJqZmT+amRk/mpmZPgAAAAAAAAAA/wAAAADOAABwQQOAAABg0QAAAAAAAAAAAIA/0QAAAAAAIEEGAACgQAAAIECamZk/mpkZP5qZmT4A
        AAAAAAAAAP8AAAAAyQAAgEEDgAAAYM4AAAAAAAAAAACAP84AAAAAACBBBgAAoEAAACBAmpmZP5qZGT+amZk+AAAAAAAAAAD/AAAAAMYAAIhBA4AAAGDKAAAAAAAAAAAA
        gD/KAAAAAAAgQQYAAKBAAAAgQJqZmT+amRk/mpmZPgAAAAAAAAAA/wAAAADCAACQQQOAAABgyAAAAAAAAAAAAIA/yAAAAAAAIEEGAACgQAAAIECamZk/mpkZP5qZmT4A
        AAAAAAAAAP8AAAAAwAAAmEEDgAAAYMYAAAAAAAAAAACAP8YAAAAAACBBBgAAoEAAACBAmpmZP5qZGT+amZk+AAAAAAAAAAD/AAAAAL4AAKBBA4AAAGDCAAAAAAAAAAAA
        gD/CAAAAAAAgQQYAAKBAAAAgQJqZmT+amRk/mpmZPgAAAAAAAAAA/wAAAAC6AACoQQOAAABg4AAAAAAAAAAAAIA/4AAAAAAAIEEGAACgQAAAIECamZk/mpkZP5qZmT4A
        AAAAAAAAAP8AAAAA2AAAsEEDgAAAYNIAAAAAAAAAAACAP9IAAAAAACBBBgAAoEAAACBAmpmZP5qZGT+amZk+AAAAAAAAAAD/AAAAAMoAALhBA4AAAGDKAAAAAAAAAAAA
        gD/KAAAAAAAgQQYAAKBAAAAgQGZmBsCamRk/mpmZPgAAAAAAAAAA/wAAAADCAADAQQOAAABg7gAAAAAAAAAAAIA/7gAAAAAAIEEGAACgQAAAIECamZk/mpkZP5qZmT4A
        AAAAAAAAAP8AAAAA5gAAyEEDgAAAYNkAAAAAAAAAAACAP9kAAADMzBpBBhERnUAAAAAAmpmZP97dHT8iIqI+AAAAAAAAAAD/AAAAANEAANBBA4AAAGDIAAAAAAAAAAAA
        gD/IAAAAmZkVQQYiIppAmpkZQJqZmT8iIiI/q6qqPgAAAAAAAAAA/wAAAADAAADYQQOAAABgvAAAAAAAAAAAAIA/vAAAAGZmEEEGMzOXQMzMvL+amZk/ZmYmPzQzsz4A
        AAAAAAAAAP8AAAAAtAAA4EEDgAAAYNMAAAAAAAAAAACAP9MAAAAyMwtBBkRElEAzMzPAmpmZP6uqKj+8u7s+AAAAAAAAAAD/AAAAAMsAAOhBA4AAAGDdAAAAAAAAAAAA
        gD/dAAAA//8FQQYAAIBAMzMTQJqZmT/w7i4/RETEPgAAAAAAAAAA/wAAAADVAADwQQOAAABg0QAAAAAAAAAAAIA/0QAAAMzMAEEGZmaGQDMzU0CamZk/NDMzP83MzD4A
        AAAAAAAAAP8AAAAAyQAA+EEDgAAAYMcAAAAAAAAAAACAP8cAAAAyM/dABnh3i0D5ig9AmpmZP3h3Nz9WVdU+AAAAAAAAAAD/AAAAAL8AAABCA4AAAGC/AAAAAAAAAAAA
        gD+/AAAAzMzsQAaJiIhA27YNQJqZmT+8uzs/3t3dPgAAAAAAAAAA/wAAAAC3AAAEQgOAAABgygAAAAAAAAAAAIA/ygAAAGZm4kAGmpmFQL7iC0CamZk/AABAP2Zm5j4A
        AAAAAAAAAP8AAAAAwgAACEIDgAAAYNIAAAAAAAAAAACAP9IAAAAAANhABquqgkChDgpAmpmZP0VERD/v7u4+AAAAAAAAAAD/AAAAAMoAAAxCA4AAAGDDAAAAAAAAAAAA
        gD/DAAAAmZnNQAZ4d39AgzoIQJqZmT+JiEg/eHf3PgAAAAAAAAAA/wAAAAC7AAAQQgOAAABgxAAAAAAAAAAAAIA/xAAAADMzw0AGmpl5QGZmBkCamZk/zcxMPwAAAD8A
        AAAAAAAAAP8AAAAAvAAAFEIDgAAAYMQAAAAAAAAAAACAP8QAAAAAANBABmZmpkBmZvY/zcyMP7y7Oz+rquo+AAAAAAAAAAD/AAAAALwAABhCA4AAAGDDAAAAAAAAAAAA
        gD/DAAAAqqqiQAYAAFBA///fPwAAgD+rqio/VVXVPgAAAAAAAAAA/wAAAAC7AAAcQgOAAABgqwAAAAAAAAAAAIA/qwAAAGZmkkAGNDM7QJmZyT9nZmY/mpkZPwAAwD4A
        AAAAAAAAAP8AAAAAowAAIEIDgAAAYKsAAAAAAAAAAACAP6sAAABmZsZABgAAEEEyM7M/zcxMP4iICD+qqqo+AAAAAAAAAAD/AAAAAKMAACRCA4AAAGCoAAAAAAAAAAAA
        gD+oAAAAvbtjQAaamRFAzcycPzQzMz/w7u4+VlWVPgAAAAAAAAAA/wAAAACgAAAoQgOAAABgkwAAAAAAAAAAAIA/kwAAADMzQ0AGmpn5P2Zmhj+amRk/zczMPgAAgD4A
        AAAAAAAAAP8AAAAAiwAALEIDgAAAYJMAAAAAAAAAAACAP5MAAACrqiJABgEA0D8AAGA/AQAAP6uqqj5WVVU+AAAAAAAAAAD/AAAAAIsAADBCA4AAAGCTAAAAAAAAAAAA
        gD+TAAAAAABgQAYzMxNAMjMzP83MzD6IiIg+qqoqPgAAAAAAAAAA/wAAAACLAAA0QgOAAABggAAAAAAAAAAAAIA/gAAAADMzwz8Gmpl5P2ZmBj+amZk+zcxMPgAAAD4A
        AAAAAAAAAPgAADhCA4AAAGCAAAAAAAAAAAAAgD+AAAAAIyKCPwZoZiY/NDOzPs/MTD6KiAg+rKqqPQAAAAAAAAAA+AAAPEIDgAAAYIAAAAAAAAAAAACAP4AAAAAgIgI/
        BmRmpj4wMzM+yszMPYeIiD2oqio9AAAAAAAAAAD4AABAQgOAAABgbAAAAAAAAAAAAIA/bAAAAAAAAADrAABEQgOAAABgbAAAAAAAAAAAAIA/bAAAAAAAAADrAABIQgOA
        AABgbAAAAAAAAAAAAIA/bAAAAAAAAADrAABMQgOAAABgZgAAAAAAAAAAAIA/ZgAAAAAAAADlAABQQgOAAABgVwAAAAAAAAAAAIA/VwAAAAAAAADWAABUQgOAAABgVwAA
        AAAAAAAAAIA/VwAAAAAAAADWAABYQgOAAABgVgAAAAAAAAAAAIA/VgAAAAAAAADVAABcQgOAAABgSQAAAAAAAAAAAIA/SQAAAAAAAADIAABgQgOAAABgSQAAAAAAAAAA
        AIA/SQAAAAAAAADIAABkQgOAAABgSAAAAAAAAAAAAIA/SAAAAAAAAADHAABoQgOAAABgRAAAAAAAAAAAAIA/RAAAAAAAAADDAABsQgOAAABgQAAAAAAAAAAAAIA/QAAA
        AAAAAAC/AABwQgOAAABgOQAAAAAAAAAAAIA/OQAAAAAAAAC4AAB0QgOAAABgOQAAAAAAAAAAAIA/OQAAAAAAAAC4AAB4QgOAAABgNgAAAAAAAAAAAIA/NgAAAAAAAAC1
        AAB8QgOAAABgMQAAAAAAAAAAAIA/MQAAAAAAAACwAACAQgOAAABgMAAAAAAAAAAAAIA/MAAAAAAAAACvAACCQgOAAABgLQAAAAAAAAAAAIA/LQAAAAAAAACsAACEQgOA
        AABgKwAAAAAAAAAAAIA/KwAAAAAAAACqAACGQgOAAABgJwAAAAAAAAAAAIA/JwAAAAAAAACmAACIQgOAAABgJgAAAAAAAAAAAIA/JgAAAAAAAAClAACKQgOAAABgJAAA
        AAAAAAAAAIA/JAAAAAAAAACjAACMQgOAAABgIgAAAAAAAAAAAIA/IgAAAAAAAAChAACOQgOAAABgIAAAAAAAAAAAAIA/IAAAAAAAAACfAACQQgOAAABgHQAAAAAAAAAA
        AIA/HQAAAAAAAACcAACSQgOAAABgHAAAAAAAAAAAAIA/HAAAAAAAAACbAACUQgOAAABgGwAAAAAAAAAAAIA/GwAAAAAAAACaAACWQgOAAABgGQAAAAAAAAAAAIA/GQAA
        AAAAAACYAACYQgOAAABgGAAAAAAAAAAAAIA/GAAAAAAAAACXAACaQgOAAABgFgAAAAAAAAAAAIA/FgAAAAAAAACVAACcQgOAAABgFQAAAAAAAAAAAIA/FQAAAAAAAACU
        AACeQgOAAABgFAAAAAAAAAAAAIA/FAAAAAAAAACTAACgQgOAAABgEwAAAAAAAAAAAIA/EwAAAAAAAACSAACiQgOAAABgEgAAAAAAAAAAAIA/EgAAAAAAAACBAAAAQAIA
        AMBAAAAAAAAAAACMAACkQgOAAABgEQAAAAAAAAAAAIA/EQAAAGZmZsACMzOzvwAAAAAAAAAAjQAApkIDgAAAYBAAAAAAAAAAAACAPxAAAAAAAAAAjwAAqEIDgAAAYA8A
        AAAAAAAAAACAPw8AAAAAAAAAjgAAqkIDgAAAYA4AAAAAAAAAAACAPw4AAAAAAAAAjQAArEIDgAAAYA0AAAAAAAAAAACAPw0AAAAAAAAAjAAArkIDgAAAYAwAAAAAAAAA
        AACAPwwAAAAAAJDAAgAAAMAAAAAAAAAAAIgAALBCA4AAAGAMAAAAAAAAAAAAgD8MAAAAAAAAAIsAALJCA4AAAGALAAAAAAAAAAAAgD8LAAAAAAAAAIoAALRCA4AAAGAK
        AAAAAAAAAAAAgD8KAAAAzczMvQEAAAAAAAAAAIcAALZCA4AAAGAKAAAAAAAAAAAAgD8KAAAAAADwwAEAAAAAAAAAAAJmZua/AAAAAAAAAACEAAC4QgOAAABgCQAAAAAA
        AAAAAIA/CQAAAAAA4MABAAAAAAAAAACGAAC6QgOAAABgCQAAAAAAAAAAAIA/CQAAADMzK8ECMzMzwAAAAAAAAAAAhQAAvEIDgAAAYAgAAAAAAAAAAACAPwgAAADNzNzA
        AQAAAAAAAAAAhQAAvkIDgAAAYAgAAAAAAAAAAACAPwgAAAAAAKDAAQAAAAAAAAAAhQAAwEIDgAAAYAgAAAAAAAAAAACAPwgAAAAzM/PAAQAAAAAAAAAAhQAAyEIDgAAA
        YAgAAAAAAAAAAACAPwgAAAAAABDBAQAAAAAAAAAAhQAAzkIDgAAAYAgAAAAAAAAAAACAPwgAAAAAAEDAAQAAAAAAAAAAhQAA2EIDgAAAYAQAAAAAAAAAAACAPwQAAAAA
        AEDAAQAAAAAAAAAAgdy93D0DgAAAQBYAAAAAABBBAACoQQAAwEEAAOBBAADoQQAAAEIAAAhCAAAYQgAAJEIAADBCAABAQgAATEIAAGBCAABwQgAAgEIAAIhCAACQQgAA
        mEIAAKBCAACoQgAAwEIAANhCFgAAAKYgMT8EtOWMP6RTjz8015E/amqRP2pqkT+C7YGOPwFqapE/amqRPwTtgY4/mraLP+2Bjj+atos/mraLP4Gv61c/gVvtRT8C56Yp
        P0GD7T4BAAAAAAAAAAEAAAAzMzM/ZmamPwEAAAABAAAAAQAAAGZmZj/NzIw/AQAAAAAAAAABAAAAMzMzP2Zmpj8BAAAAAAAAAAEAAAAzMzM/ZmamPwEAAAAAAAAAAQAA
        ADMzMz9mZqY/AQAAAAAAAAAAAPBCAAAAAA4AAAAAAAA/zczMPc3MTD4AAAA/AwAAAAAAAAADgAAASAEAAAAAAAAAAAAAAAOAAABIAQAAAAAAAAAEAAAAAgAAAAMAAAAE
        AAAAAQAAAAEAAAAAAIA/AACAPwEAAAABAAAAAQAAAAEAAAABAAAAAACAPwAAAAAAAIBAAAC0QkYAAAAAA4AAAEgBAAAAAAAAAAAAAAADgAAASAEAAAAAAAAAAAAAAAAA
        AAADgAAASAEAAAAAAAAAAAAAAAMAAAAHAAAAAQAAAAAAAAAOAAAAEAAAAAAAAACPwnU9AACAPwAAAAAAAAC/AABwQgAAAAAAAAAAAAAAAAAAAAAAAAAAAAAAAAAAAAAA
        AAAAAAAAAAAAAAADAAAACgAAAAEAAAAAAAAADgAAABAAAAAAAAAAAADIQgAAAAAAAAA/AAAAQAAAlkMAAAAAAAAAPwAAgD8AQJxFAAAAQAAAgD8AAEBAAAAAAAAAAAAA
        AAAAAwAAAAoAAAABAAAAAAAAAA4AAAAQAAAAAAAAAAAAyEIAAAAAAACAPwAAAEAAQJxFAAAAQJqZmT4AAIA/AEAcRgAAAAAAAIA/AABAQAAAAAAAAAAAAAAAAAEAAAAB
        AAAAAACAPwAAQMEAAAAAAwAAAAMAAAAAAAAAAQAAAAUAAAAEAAAAAQAAAAMAAAAAAIA/mpnZPwAAwD8AAK5Cvw4NwgAAAAAFAAAAAAAAAAAAMMEAAMDCAADAwgAAwMIF
        AAAAAAAAAClcDz0AAAAAAAAAAAAAAAAFAAAAAAAAAAAAAAAAAAAAAAAAAAAAAAABAAAAAAAAAAQAAAABAAAAAwAAADMzsz+amZk/AADAPwAAbMO/Dg3CAAAAAAUAAAAA
        AHDBAAAAAAAAwMIAAMDCAADAwgUAAAAK1yM9+u1rOgAAAAAAAAAAAAAAAAUAAAAAAAAAAAAAAAAAAAAAAAAAAAAAAAEAAAAAAAAABAAAAAAAAAADAAAAj8L1Pz0KV78f
        hWs/AAC0QgAAAAAAAAAABQAAAAAAQMEAAEDBAABwwgAAcMIAAHDCBQAAAAAAAAAAAAAAAAAAAAAAAAAAAAAABQAAAAAAAAAAAAAAAAAAAAAAAAAAAAAAAQAAAAAAAAAE
        AAAAAAAAAAMAAAAzMzO/XI/CPq5HYT8AAAAAAAAAAAAAAAAFAAAAAABAwQAAQMEAAHDCAABwwgAAcMIFAAAAAAAAAAAAAAAAAAAAAAAAAAAAAAAFAAAAAAAAAAAAAAAA
        AAAAAAAAAAAAAAABAAAAAAAAAAQAAAAAAAAAAwAAALgexT89Clc/rkfhPwAAAAAAAAAAAAAAAAUAAAAAAEDBAABAwQAAcMIAAHDCAABwwgUAAAAAAAAAAAAAAAAAAAAA
        AAAAAAAAAAUAAAAAAAAAAAAAAAAAAAAAAAAAAAAAAAEAAAAAAAAAAQAAAAEAAAABAAAAAwAAADMzMz/NzEy+MzOzPwAAkEEAAAAAAAAAAAAAAAABAAAAAAAAAAAAAAAA
        AAAASlVDRVByaXZhdGVEYXRhAAEBQnlwYXNzAAEBAwAdAAAAAAAAAEpVQ0VQcml2YXRlRGF0YQAAAAAAAAAA
        AAAQAAAA
      >
      PRESETNAME "K2 Dreamy"
      FLOATPOS 32 149 592 662
      FXID {6C67196E-99C4-ED4E-8335-569CBD97CA14}
      WAK 0 0
      BYPASS 0 0 0
      <AU "AU: VCV Rack 2 FX (VCV)" "VCV: VCV Rack 2 FX" "" 1635085670 1447253574 1447253599
        6QMAAAAAAAAQAAAAAQAAAAAAAAACAAAAAAAAAAAAAAAAAAAAAAAAAAAAAAAAAAAAAAAAAAAAAAAAAAAAAAAAAAAAAAAAAAAAAAAAAAAAAAAAAAAAAAAAAAAAAAAAAAAA
        AAAAAAAAAAAAAAAAAAAAAAAAAAAAAAAAAAAAAAAAAAAAAAAAAAAAAAAAAAAQAAAAAQAAAAAAAAACAAAAAAAAAAAAAAAAAAAAAAAAAAAAAAAAAAAAAAAAAAAAAAAAAAAA
        AAAAAAAAAAAAAAAAAAAAAAAAAAAAAAAAAAAAAAAAAAAAAAAAAAAAAAAAAAAAAAAAAAAAAAAAAAAAAAAAAAAAAAAAAAAAAAAAAAAAAAAAAACcCAAAPD94bWwgdmVyc2lv
        bj0iMS4wIiBlbmNvZGluZz0iVVRGLTgiPz4KPCFET0NUWVBFIHBsaXN0IFBVQkxJQyAiLS8vQXBwbGUvL0RURCBQTElTVCAxLjAvL0VOIiAiaHR0cDovL3d3dy5hcHBs
        ZS5jb20vRFREcy9Qcm9wZXJ0eUxpc3QtMS4wLmR0ZCI+CjxwbGlzdCB2ZXJzaW9uPSIxLjAiPgo8ZGljdD4KCTxrZXk+ZGF0YTwva2V5PgoJPGRhdGE+CglLTFV2L1FC
        SVZTY0Fla0VVRERkUWE5Z0EvMlFWQVFBQUVFV29Ja0lWVitDbmNHZlRmcXBpdHJKclRid3huSVl3eXA4TwoJQzZMTlRVbVo3TG9OUFY1OVBUOFJ4VDFTdUFDc0FMRUFF
        Y3pNeVFSdTJzNEtnaGc4bE1wbzV1VGh5blBUa0ZvNW1qbDUKCXpFdFpidnFaRVZsSnQ1bVRSelBsS2F5NWFhblNpcHFSWms0MlBHd08vZC95L3AyRDdpN1Y2b0tpNFZn
        NVZWQVFLSS9YCglBcHU3cjRWQThaQlllQUJCZkpCWUVBRFdkQ1FwelVpbEptVkcweVFWU0hVS0FGZ0UxbG9jMWxvZGxvT0xDNG5WWWEwRgoJc2RiS3NOWmlhNjBCYXky
        SXhSTFlnZ0U3c21JdGlDWEFRQUQyUlVsYlhlZjE3UzN1REI5OGY0ZUxlMjZPdWZ2aTl4WjMKCVgwb0ZKZjdPY2RQVFNnY3ptaUN5YW1ibUNCSVR6VTFQaUZ3d0hScVpU
        ek16Yy9KZ0VkdzBOU09VZXBxNTB1ZktibHBhCgkrWFR5Y0c3Nm9ZQlVlMlZUNlBCL0N3TmJnODlCNSt4ZGVXNTYza2hHbXBrWklpazVOVE16bTQ2RXFHa2xpa3FmSzlI
        YwoJZERTZkN1bEoxUVROVFVzMDQwYlRBM3BqL3IzbTN4Z0htWVdiZm1nek16TW5HNm9aM2FkQ21qbDVVR0JPRnNoZ1k5L2MKCXV5VXUzcHppRWN6TXlZT0pTNHZSNCtK
        aWZQOVFpUUgvL3YvdjN6c1RGOGcwQnB1N1A0WnhUM0g0bnVLdVBlT21IOXJ1CglMYzQwQjVuWS9Kbml5ZU1wN3NwcFpkUmdZMGFSaExCRWp4NWhiTzg5YS9FN1BvS2Jw
        ZytGTkhPdHNKV01tdm5JVFdzNAoJbGphd2xZd2NveEU2Z2NHcGtkUE04NmtWRzFHZG1wbWJycUlwU1ZMRGFXWk9IaHEyVmtqVjNQVE1rS1FERFJPRUJQV0MKCVlvS2lJ
        cmIzenh5Nk02MHhqNXQrYUNjVTZ0VFV0QkZWNER6ZFlXKzFkNUxvUDI1NmNsQUxERTZOTUpxWldmRWRDVFZ0CglKU0VUUGd6My8vL0czdkxlZSs4UVFyYzBod0ZCN2d0
        MHJYbHM4Y0hsd1RnZjZURGl2MnVzT1hSc2laQkJ4N1NHNW1OZwoJTzlEY05GV2o2a2hVb3ZaTzlsYUtHZDJuVnRnNzJWc2ZkUFlQTm8rT1FjZzRET2s4SjFLbFZsTFhT
        Z3Q3SjN2cmhxVVIKCWFta2xUUXQ3SjRsVzByU0FrR0JEUm5OaVV2Wk9Fc1dzTGdUUlowclhSaHZXSXBxU25HYVVrVkV2SnNlY0ZOVEpZMWFSCgloTGhwYVhKVUNucE92
        RDBURi9oY1k4K2NNWEVKZ002b01iMHlSR2dBQUFBZ0JRQWtzQUlBbVptcURSS2dZQkFRaVpJWQoJUkZFUWhsQVVvNGdBSUlNQUVBSUJBRURBa0FBY1dnTW05Q3VFM1RY
        MEpSbmZIQ3QyN2hnVDh4YXF3UnYwY2s1M0NxQWkKCTNkYlQ5QStrT0dzWUMyZVVUdElLU0VVWlM0Z2dkZWRVZ0taM2JGV1pVbTQyeTAxZU5JRkNITFJFUXFKY29oS2FC
        RzRPCglpRmlnMmp0Nmh2THZtVWt1cDVQWkYzZUJOYWlzenVYS25OYjQzaXNma2tZR09lVkpKRVc1eXRNTERVNG5RM0R3bENLeAoJQURJU0JVUUdpU1dRa0NoQUVCSWZM
        SHVFRjBvL1FjVXFEaUp4c3VSU3FDS0FhNElxSTd6RG5BSWtVek9pZzllVkQxaHkKCXd2dGtsaVpscEdWZTNCK09GTUJKOFI4dkVVRDFibWdDY243d0pLSjNqbnZGMjFa
        dXdCYnExOXhtWHdZbkF5MTgrcGd1CglnbTFGNVFibGI0TFc0RW8rcmRJenc5d054M2ZIN3FLZkorN2hjZ3dhVXB0Q3dGcW9WVUpoTTQzWmNUcFppbEEya1dVLwoJTmtl
        cHQ1YWdVcUlzSFlVWmorK3lPQnRhS1hoV1UyQVFMR0x2cm5kbTBFOE94eGV1ejdmaFM1blZPSU5JNTBFMHJ1L0sKCVJ0NFJNQ2dJa1pPdGNiZjZJVXRaVjYvWmROaWxH
        d2xEanQwaUZXc0FZTVE3Z0E5dVdiY01TTUNZYy90UlJrUFh5V0MzCglxSVVId0lQR1lVeTl2dEpwYnlrRGVyOFBLbVREUXdhTG81S1FzQ2ZnMS9hd01HL2dOZk0yOXZz
        UXlnPT0KCTwvZGF0YT4KCTxrZXk+bWFudWZhY3R1cmVyPC9rZXk+Cgk8aW50ZWdlcj4xNDQ3MjUzNTk5PC9pbnRlZ2VyPgoJPGtleT5uYW1lPC9rZXk+Cgk8c3RyaW5n
        PlZDVlJhY2s8L3N0cmluZz4KCTxrZXk+c3VidHlwZTwva2V5PgoJPGludGVnZXI+MTQ0NzI1MzU3NDwvaW50ZWdlcj4KCTxrZXk+dHlwZTwva2V5PgoJPGludGVnZXI+
        MTYzNTA4NTY3MDwvaW50ZWdlcj4KCTxrZXk+dmVyc2lvbjwva2V5PgoJPGludGVnZXI+MTwvaW50ZWdlcj4KPC9kaWN0Pgo8L3BsaXN0PgoBAAAAAAAAAAAA
      >
      FLOATPOS 0 0 0 0
      FXID {B16322B3-AEEB-5747-AC63-1C6F8AC75F9E}
      WAK 0 0
    >
  >
>
