<REAPER_PROJECT 0.1 "7.33/macOS-arm64" 1740253439
  <NOTES 0 2
  >
  RIPPLE 0
  GROUPOVERRIDE 0 0 0
  AUTOXFADE 129
  ENVATTACH 3
  POOLEDENVATTACH 0
  MIXERUIFLAGS 11 48
  ENVFADESZ10 40
  PEAKGAIN 1
  FEEDBACK 0
  PANLAW 1
  PROJOFFS 0 0 0
  MAXPROJLEN 0 0
  GRID 3199 8 1 8 1 0 0 0
  TIMEMODE 1 5 -1 30 0 0 -1
  VIDEO_CONFIG 0 0 65792
  PANMODE 3
  PANLAWFLAGS 3
  CURSOR 0
  ZOOM 1.04825960103961 0 0
  VZOOMEX 6 0
  USE_REC_CFG 0
  RECMODE 1
  SMPTESYNC 0 30 100 40 1000 300 0 0 1 0 0
  LOOP 1
  LOOPGRAN 0 4
  RECORD_PATH "Media" ""
  <RECORD_CFG
    ZXZhdxgAAQ==
  >
  <APPLYFX_CFG
  >
  RENDER_FILE ""
  RENDER_PATTERN ""
  RENDER_FMT 0 2 0
  RENDER_1X 0
  RENDER_RANGE 1 0 0 18 1000
  RENDER_RESAMPLE 3 0 1
  RENDER_ADDTOPROJ 0
  RENDER_STEMS 0
  RENDER_DITHER 0
  TIMELOCKMODE 1
  TEMPOENVLOCKMODE 1
  ITEMMIX 1
  DEFPITCHMODE 589824 0
  TAKELANE 1
  SAMPLERATE 44100 0 0
  <RENDER_CFG
    ZXZhdxgAAQ==
  >
  LOCK 1
  <METRONOME 6 2
    VOL 0.25 0.125
    BEATLEN 4
    FREQ 1760 880 1
    SAMPLES "" "" "" ""
    SPLIGNORE 0 0
    SPLDEF 2 660 "" 0 ""
    SPLDEF 3 440 "" 0 ""
    PATTERN 0 169
    PATTERNSTR ABBB
    MULT 1
  >
  GLOBAL_AUTO -1
  TEMPO 120 4 4 0
  PLAYRATE 1 0 0.25 4
  SELECTION 5.5 5.5
  SELECTION2 5.5 5.5
  MASTERAUTOMODE 0
  MASTERTRACKHEIGHT 0 0
  MASTERPEAKCOL 16576
  MASTERMUTESOLO 0
  MASTERTRACKVIEW 0 0.6667 0.5 0.5 0 0 0 0 0 0 0 0 0 0
  MASTERHWOUT 0 0 1 0 0 0 0 -1
  MASTER_NCH 2 2
  MASTER_VOLUME 0.33829259018268 0 -1 -1 1
  MASTER_PANMODE 3
  MASTER_PANLAWFLAGS 3
  MASTER_FX 1
  MASTER_SEL 0
  <MASTERFXLIST
    WNDRECT 32 548 815 263
    SHOW 0
    LASTSEL 0
    DOCKED 0
    BYPASS 0 0 0
    <AU "AU: AUReverb2 (Apple)" "Apple: AUReverb2" "" 1635083896 1920361010 1634758764
      6QMAAAAAAAACAAAAAQAAAAAAAAACAAAAAAAAAAIAAAABAAAAAAAAAAIAAAAAAAAALwIAADw/eG1sIHZlcnNpb249IjEuMCIgZW5jb2Rpbmc9IlVURi04Ij8+CjwhRE9D
      VFlQRSBwbGlzdCBQVUJMSUMgIi0vL0FwcGxlLy9EVEQgUExJU1QgMS4wLy9FTiIgImh0dHA6Ly93d3cuYXBwbGUuY29tL0RURHMvUHJvcGVydHlMaXN0LTEuMC5kdGQi
      Pgo8cGxpc3QgdmVyc2lvbj0iMS4wIj4KPGRpY3Q+Cgk8a2V5PmRhdGE8L2tleT4KCTxkYXRhPgoJQUFBQUFBQUFBQUFBQUFBSEFBQUFBRUpOTXpRQUFBQUJQNEFBQUFB
      QUFBSThBeEp2QUFBQUF6NzlkMElBQUFBRVA0QUEKCUFBQUFBQVUvQUFBQUFBQUFCa080VU9VPQoJPC9kYXRhPgoJPGtleT5tYW51ZmFjdHVyZXI8L2tleT4KCTxpbnRl
      Z2VyPjE2MzQ3NTg3NjQ8L2ludGVnZXI+Cgk8a2V5Pm5hbWU8L2tleT4KCTxzdHJpbmc+VW50aXRsZWQ8L3N0cmluZz4KCTxrZXk+c3VidHlwZTwva2V5PgoJPGludGVn
      ZXI+MTkyMDM2MTAxMDwvaW50ZWdlcj4KCTxrZXk+dHlwZTwva2V5PgoJPGludGVnZXI+MTYzNTA4Mzg5NjwvaW50ZWdlcj4KCTxrZXk+dmVyc2lvbjwva2V5PgoJPGlu
      dGVnZXI+MDwvaW50ZWdlcj4KPC9kaWN0Pgo8L3BsaXN0PgoBAAAAAAAAAAAA
    >
    FLOATPOS 0 0 0 0
    FXID {2E4235C9-4011-7540-9681-3227452B4A72}
    WAK 0 0
  >
  <MASTERPLAYSPEEDENV
    EGUID {62061924-2D06-CA41-B745-01B95C42C262}
    ACT 0 -1
    VIS 0 1 1
    LANEHEIGHT 0 0
    ARM 0
    DEFSHAPE 0 -1 -1
  >
  <TEMPOENVEX
    EGUID {A8FBE181-5174-A549-BE0D-A3409F4C84EC}
    ACT 0 -1
    VIS 1 0 1
    LANEHEIGHT 0 0
    ARM 0
    DEFSHAPE 1 -1 -1
  >
  <PROJBAY
  >
  <TRACK {58856C49-DCFE-B24A-85A4-61A95C2CD20B}
    NAME "Generated score"
    PEAKCOL 16576
    BEAT -1
    AUTOMODE 0
    PANLAWFLAGS 3
    VOLPAN 1.82452995868445 0 -1 -1 1
    MUTESOLO 0 0 0
    IPHASE 0
    PLAYOFFS 0 1
    ISBUS 0 0
    BUSCOMP 0 0 0 0 0
    SHOWINMIX 1 0.6667 0.5 1 0.5 0 0 0
    FIXEDLANES 9 0 0 0 0
    SEL 0
    REC 1 5088 1 0 0 0 0 0
    VU 2
    TRACKHEIGHT 0 0 0 0 0 0 0
    INQ 0 0 0 0.5 100 0 0 100
    NCHAN 2
    FX 1
    TRACKID {58856C49-DCFE-B24A-85A4-61A95C2CD20B}
    PERF 0
    MIDIOUT -1
    MAINSEND 1 0
    <FXCHAIN
      WNDRECT 0 121 807 690
      SHOW 0
      LASTSEL 0
      DOCKED 0
    >
    <ITEM
      POSITION 0
      SNAPOFFS 0
      LENGTH 480.01800347410114
      LOOP 1
      ALLTAKES 0
      FADEIN 1 0 0 1 0 0 0
      FADEOUT 1 0 0 1 0 0 0
      MUTE 0 0
      SEL 0
      IGUID {E6589A99-9B3B-F942-81E7-486D3BBFE75B}
      IID 8
      NAME ""
      VOLPAN 1 0 1 -1
      SOFFS 0 0
      PLAYRATE 1 1 0 -1 0 0.0025
      CHANMODE 0
      GUID {D2A5C5DE-CDC3-DC4E-9A66-582B1D226C33}
      <SOURCE MIDI
        HASDATA 1 960 QN
        CCINTERP 32
        POOLEDEVTS {75E702E1-B781-FD45-B2AF-2395E5749C11}
        E 34 90 2b 33
        E 0 91 2d 33
        E 0 91 30 33
        E 0 92 35 33
        E 0 92 64 33
        E 1383 82 64 00
        E 0 92 4c 33
        E 1382 80 2b 00
        E 0 81 2d 00
        E 0 81 30 00
        E 0 82 35 00
        E 0 82 4c 00
        E 0 90 30 33
        E 0 91 32 33
        E 0 91 39 33
        E 0 92 4c 33
        E 0 92 65 33
        E 1383 80 30 00
        E 0 81 32 00
        E 0 81 39 00
        E 0 82 4c 00
        E 0 82 65 00
        E 0 90 29 33
        E 0 91 30 33
        E 0 91 32 33
        E 0 92 40 33
        E 0 92 45 33
        E 1383 80 29 00
        E 0 81 30 00
        E 0 81 32 00
        E 0 82 40 00
        E 0 82 45 00
        E 0 90 30 33
        E 0 91 32 33
        E 0 91 39 33
        E 0 92 58 33
        E 0 92 59 33
        E 2765 81 39 00
        E 0 82 58 00
        E 0 82 59 00
        E 0 91 34 33
        E 0 92 39 33
        E 0 92 4d 33
        E 1383 80 30 00
        E 0 81 34 00
        E 0 82 39 00
        E 0 90 2d 33
        E 0 91 37 33
        E 0 92 3a 33
        E 1382 80 2d 00
        E 0 81 37 00
        E 0 90 30 33
        E 0 91 39 33
        E 1111 81 32 00
        E 0 82 4d 00
        E 0 82 3a 00
        E 0 80 30 00
        E 0 81 39 00
        E 0 90 2f 32
        E 0 91 33 32
        E 0 91 36 32
        E 0 92 38 32
        E 0 92 4c 32
        E 523 81 33 00
        E 0 81 36 00
        E 0 82 38 00
        E 0 91 31 32
        E 0 91 38 32
        E 0 92 39 32
        E 522 80 2f 00
        E 0 81 31 00
        E 0 81 38 00
        E 0 90 31 32
        E 0 91 32 32
        E 0 91 36 32
        E 523 82 4c 00
        E 0 82 39 00
        E 0 80 31 00
        E 0 90 2f 32
        E 0 92 37 32
        E 0 92 51 32
        E 522 81 32 00
        E 0 81 36 00
        E 0 80 2f 00
        E 0 82 37 00
        E 0 82 51 00
        E 0 90 2c 33
        E 0 91 2e 33
        E 0 91 31 33
        E 0 92 35 33
        E 0 92 4e 33
        E 2777 80 2c 00
        E 0 81 2e 00
        E 0 81 31 00
        E 0 82 35 00
        E 0 82 4e 00
        E 0 90 31 33
        E 0 91 33 33
        E 0 91 35 33
        E 0 92 36 33
        E 0 92 46 33
        E 1388 80 31 00
        E 0 81 33 00
        E 0 81 35 00
        E 0 82 36 00
        E 0 90 29 33
        E 0 91 31 33
        E 0 91 33 33
        E 0 92 42 33
        E 1388 80 29 00
        E 0 82 42 00
        E 0 90 2a 33
        E 0 92 41 33
        E 2777 82 46 00
        E 0 81 31 00
        E 0 81 33 00
        E 0 80 2a 00
        E 0 82 41 00
        E 0 90 31 33
        E 0 91 33 33
        E 0 91 3a 33
        E 0 92 5a 33
        E 0 92 65 33
        E 1388 80 31 00
        E 0 81 3a 00
        E 0 82 5a 00
        E 0 82 65 00
        E 0 90 2e 33
        E 0 91 3b 33
        E 0 92 5c 33
        E 0 92 66 33
        E 1388 80 2e 00
        E 0 82 5c 00
        E 0 90 31 33
        E 0 92 5e 33
        E 1115 81 33 00
        E 0 81 3b 00
        E 0 82 66 00
        E 0 80 31 00
        E 0 82 5e 00
        E 0 90 30 32
        E 0 91 34 32
        E 0 91 39 32
        E 0 92 5b 32
        E 0 92 65 32
        E 525 81 34 00
        E 0 81 39 00
        E 0 82 5b 00
        E 0 91 32 32
        E 0 91 3a 32
        E 0 92 5d 32
        E 525 80 30 00
        E 0 81 32 00
        E 0 82 5d 00
        E 0 90 32 32
        E 0 91 33 32
        E 0 92 5b 32
        E 524 82 65 00
        E 0 81 3a 00
        E 0 80 32 00
        E 0 82 5b 00
        E 0 90 30 32
        E 0 91 38 32
        E 0 92 5e 32
        E 0 92 67 32
        E 525 81 33 00
        E 0 80 30 00
        E 0 81 38 00
        E 0 82 5e 00
        E 0 82 67 00
        E 0 90 2d 33
        E 0 91 2f 33
        E 0 91 32 33
        E 0 92 5b 33
        E 0 92 66 33
        E 2788 80 2d 00
        E 0 81 2f 00
        E 0 81 32 00
        E 0 82 5b 00
        E 0 82 66 00
        E 0 90 32 33
        E 0 91 3b 33
        E 0 91 42 33
        E 0 92 43 33
        E 0 92 64 33
        E 1394 81 42 00
        E 0 82 43 00
        E 0 82 64 00
        E 0 91 43 33
        E 0 92 4e 33
        E 0 92 58 33
        E 1393 80 32 00
        E 0 81 3b 00
        E 0 81 43 00
        E 0 82 4e 00
        E 0 82 58 00
        E 0 90 28 33
        E 0 91 32 33
        E 0 91 3b 33
        E 0 92 42 33
        E 0 92 43 33
        E 2788 80 28 00
        E 0 82 42 00
        E 0 82 43 00
        E 0 90 2a 33
        E 0 92 43 33
        E 0 92 4c 33
        E 1394 81 32 00
        E 0 80 2a 00
        E 0 90 2d 33
        E 0 91 30 33
        E 1394 80 2d 00
        E 0 81 30 00
        E 0 90 30 33
        E 0 91 32 33
        E 1119 81 3b 00
        E 0 82 43 00
        E 0 82 4c 00
        E 0 80 30 00
        E 0 81 32 00
        E 0 90 2e 32
        E 0 91 31 32
        E 0 91 38 32
        E 0 92 42 32
        E 0 92 4d 32
        E 527 80 2e 00
        E 0 81 38 00
        E 0 82 4d 00
        E 0 90 2f 32
        E 0 91 3a 32
        E 0 92 4b 32
        E 527 81 31 00
        E 0 81 3a 00
        E 0 82 4b 00
        E 0 91 33 32
        E 0 91 38 32
        E 0 92 4c 32
        E 527 82 42 00
        E 0 81 33 00
        E 0 81 38 00
        E 0 91 31 32
        E 0 91 39 32
        E 0 92 44 32
        E 526 80 2f 00
        E 0 82 4c 00
        E 0 81 31 00
        E 0 81 39 00
        E 0 82 44 00
        E 0 90 2c 33
        E 0 91 30 33
        E 0 91 33 33
        E 0 92 3a 33
        E 0 92 4f 33
        E 2799 80 2c 00
        E 0 81 30 00
        E 0 81 33 00
        E 0 82 3a 00
        E 0 82 4f 00
        E 0 90 33 33
        E 0 91 3c 33
        E 0 91 44 33
        E 0 92 4d 33
        E 0 92 5b 33
        E 1400 81 44 00
        E 0 82 4d 00
        E 0 82 5b 00
        E 0 91 41 33
        E 0 92 44 33
        E 0 92 67 33
        E 1399 81 41 00
        E 0 82 44 00
        E 0 82 67 00
        E 0 91 44 33
        E 0 92 4f 33
        E 0 92 59 33
        E 2799 81 3c 00
        E 0 81 44 00
        E 0 82 4f 00
        E 0 82 59 00
        E 0 91 35 33
        E 0 91 3c 33
        E 0 92 43 33
        E 0 92 44 33
        E 1399 80 33 00
        E 0 81 35 00
        E 0 82 43 00
        E 0 90 31 33
        E 0 91 3a 33
        E 0 92 41 33
        E 1399 81 3c 00
        E 0 80 31 00
        E 0 81 3a 00
        E 0 90 33 33
        E 0 91 3c 33
        E 0 91 3d 33
        E 1125 82 44 00
        E 0 82 41 00
        E 0 80 33 00
        E 0 81 3c 00
        E 0 81 3d 00
        E 0 90 32 32
        E 0 91 39 32
        E 0 91 3b 32
        E 0 92 42 32
        E 0 92 43 32
        E 528 81 39 00
        E 0 81 3b 00
        E 0 82 42 00
        E 0 91 3b 32
        E 0 91 3c 32
        E 0 92 40 32
        E 529 80 32 00
        E 0 81 3b 00
        E 0 81 3c 00
        E 0 82 40 00
        E 0 90 30 32
        E 0 91 39 32
        E 0 91 40 32
        E 0 92 41 32
        E 529 82 43 00
        E 0 81 39 00
        E 0 81 40 00
        E 0 91 3a 32
        E 0 91 3e 32
        E 0 92 45 32
        E 529 80 30 00
        E 0 82 41 00
        E 0 81 3a 00
        E 0 81 3e 00
        E 0 82 45 00
        E 0 90 2f 33
        E 0 91 31 33
        E 0 91 39 33
        E 0 92 40 33
        E 0 92 44 33
        E 2810 80 2f 00
        E 0 81 39 00
        E 0 82 44 00
        E 0 90 2d 33
        E 0 91 38 33
        E 0 92 42 33
        E 1405 82 40 00
        E 0 81 38 00
        E 0 91 34 33
        E 0 92 38 33
        E 1405 80 2d 00
        E 0 81 34 00
        E 0 82 38 00
        E 0 90 2f 33
        E 0 91 32 33
        E 0 92 39 33
        E 1405 81 31 00
        E 0 80 2f 00
        E 0 81 32 00
        E 0 90 31 33
        E 0 91 32 33
        E 0 91 34 33
        E 1129 82 42 00
        E 0 82 39 00
        E 0 81 34 00
        E 0 91 45 33
        E 0 92 4c 33
        E 0 92 5a 33
        E 2821 82 4c 00
        E 0 92 47 33
        E 1411 81 45 00
        E 0 82 5a 00
        E 0 82 47 00
        E 0 91 3b 33
        E 0 92 4e 33
        E 0 92 51 33
        E 1410 80 31 00
        E 0 81 32 00
        E 0 82 51 00
        E 0 90 32 33
        E 0 91 34 33
        E 0 92 4f 33
        E 1411 81 34 00
        E 0 91 39 33
        E 1133 81 3b 00
        E 0 80 32 00
        E 0 82 4f 00
        E 0 81 39 00
        E 0 90 2f 33
        E 0 91 32 33
        E 0 91 39 33
        E 0 92 5b 33
        E 2833 82 4e 00
        E 0 80 2f 00
        E 0 81 32 00
        E 0 81 39 00
        E 0 82 5b 00
        E 0 90 32 33
        E 0 91 37 33
        E 0 91 3b 33
        E 0 92 4c 33
        E 0 92 4e 33
        E 1416 82 4c 00
        E 0 82 4e 00
        E 0 92 40 33
        E 0 92 5a 33
        E 1416 82 40 00
        E 0 82 5a 00
        E 0 92 42 33
        E 0 92 58 33
        E 2833 81 37 00
        E 0 81 3b 00
        E 0 82 42 00
        E 0 82 58 00
        E 0 91 34 33
        E 0 91 36 33
        E 0 92 37 33
        E 0 92 3b 33
        E 1416 80 32 00
        E 0 81 36 00
        E 0 82 37 00
        E 0 82 3b 00
        E 0 90 2f 33
        E 0 91 37 33
        E 0 92 39 33
        E 0 92 3c 33
        E 1417 80 2f 00
        E 0 82 39 00
        E 0 90 32 33
        E 0 92 3b 33
        E 1137 81 34 00
        E 0 81 37 00
        E 0 82 3c 00
        E 0 80 32 00
        E 0 82 3b 00
        E 0 90 31 32
        E 0 91 35 32
        E 0 91 36 32
        E 0 92 38 32
        E 0 92 3a 32
        E 536 81 35 00
        E 0 82 38 00
        E 0 82 3a 00
        E 0 91 33 32
        E 0 92 3a 32
        E 0 92 3b 32
        E 535 80 31 00
        E 0 81 33 00
        E 0 82 3a 00
        E 0 90 33 32
        E 0 91 34 32
        E 0 92 38 32
        E 535 81 36 00
        E 0 82 3b 00
        E 0 80 33 00
        E 0 82 38 00
        E 0 90 2f 32
        E 0 91 38 32
        E 0 92 39 32
        E 0 92 3d 32
        E 536 81 34 00
        E 0 80 2f 00
        E 0 81 38 00
        E 0 82 39 00
        E 0 82 3d 00
        E 0 90 2e 33
        E 0 91 30 33
        E 0 91 33 33
        E 0 92 37 33
        E 0 92 38 33
        E 2844 80 2e 00
        E 0 82 37 00
        E 0 82 38 00
        E 0 90 2c 33
        E 0 92 35 33
        E 0 92 37 33
        E 1422 81 30 00
        E 0 81 33 00
        E 0 80 2c 00
        E 0 82 35 00
        E 0 82 37 00
        E 0 90 33 33
        E 0 91 38 33
        E 0 91 3c 33
        E 0 92 41 33
        E 0 92 43 33
        E 1422 80 33 00
        E 0 81 38 00
        E 0 82 43 00
        E 0 90 31 33
        E 0 91 3a 33
        E 0 92 44 33
        E 1422 81 3c 00
        E 0 80 31 00
        E 0 81 3a 00
        E 0 90 33 33
        E 0 91 3c 33
        E 0 91 3d 33
        E 1142 82 41 00
        E 0 82 44 00
        E 0 80 33 00
        E 0 81 3c 00
        E 0 81 3d 00
        E 0 90 30 33
        E 0 91 31 33
        E 0 91 33 33
        E 0 92 4d 33
        E 0 92 50 33
        E 2855 80 30 00
        E 0 81 31 00
        E 0 81 33 00
        E 0 90 2e 33
        E 0 91 30 33
        E 0 91 31 33
        E 1428 82 4d 00
        E 0 82 50 00
        E 0 92 44 33
        E 0 92 4d 33
        E 1428 81 30 00
        E 0 81 31 00
        E 0 82 44 00
        E 0 91 31 33
        E 0 91 33 33
        E 0 92 42 33
        E 1428 81 33 00
        E 0 91 38 33
        E 1146 80 2e 00
        E 0 82 4d 00
        E 0 81 31 00
        E 0 82 42 00
        E 0 81 38 00
        E 0 90 2c 33
        E 0 91 2e 33
        E 0 91 31 33
        E 0 92 4d 33
        E 0 92 4e 33
        E 2867 80 2c 00
        E 0 81 2e 00
        E 0 81 31 00
        E 0 82 4d 00
        E 0 82 4e 00
        E 0 90 31 33
        E 0 91 33 33
        E 0 91 36 33
        E 0 92 46 33
        E 0 92 4d 33
        E 1434 81 36 00
        E 0 82 46 00
        E 0 82 4d 00
        E 0 91 41 33
        E 0 92 42 33
        E 0 92 46 33
        E 1433 80 31 00
        E 0 81 33 00
        E 0 81 41 00
        E 0 82 42 00
        E 0 82 46 00
        E 0 90 2a 33
        E 0 91 31 33
        E 0 91 33 33
        E 0 92 46 33
        E 0 92 59 33
        E 2867 80 2a 00
        E 0 81 31 00
        E 0 81 33 00
        E 0 82 46 00
        E 0 82 59 00
        E 0 90 31 33
        E 0 91 33 33
        E 0 91 35 33
        E 0 92 3a 33
        E 0 92 66 33
        E 1433 80 31 00
        E 0 81 35 00
        E 0 82 3a 00
        E 0 90 2e 33
        E 0 91 38 33
        E 0 92 3b 33
        E 1434 80 2e 00
        E 0 81 38 00
        E 0 90 31 33
        E 0 91 3a 33
        E 1151 81 33 00
        E 0 82 66 00
        E 0 82 3b 00
        E 0 80 31 00
        E 0 81 3a 00
        E 0 90 30 32
        E 0 91 34 32
        E 0 91 37 32
        E 0 92 39 32
        E 0 92 65 32
        E 542 81 34 00
        E 0 81 37 00
        E 0 82 39 00
        E 0 91 32 32
        E 0 91 39 32
        E 0 92 3a 32
        E 542 80 30 00
        E 0 81 32 00
        E 0 81 39 00
        E 0 90 32 32
        E 0 91 33 32
        E 0 91 37 32
        E 542 82 65 00
        E 0 82 3a 00
        E 0 80 32 00
        E 0 81 37 00
        E 0 90 2e 32
        E 0 91 38 32
        E 0 92 3c 32
        E 0 92 67 32
        E 542 81 33 00
        E 0 80 2e 00
        E 0 81 38 00
        E 0 82 3c 00
        E 0 90 2d 33
        E 0 91 2f 33
        E 0 91 32 33
        E 0 92 36 33
        E 2878 82 67 00
        E 0 80 2d 00
        E 0 81 2f 00
        E 0 81 32 00
        E 0 82 36 00
        E 0 90 32 33
        E 0 91 34 33
        E 0 91 3b 33
        E 0 92 43 33
        E 0 92 4e 33
        E 1439 80 32 00
        E 0 81 34 00
        E 0 82 4e 00
        E 0 90 28 33
        E 0 91 32 33
        E 0 92 5a 33
        E 1439 81 3b 00
        E 0 82 43 00
        E 0 80 28 00
        E 0 81 32 00
        E 0 82 5a 00
        E 0 90 32 33
        E 0 91 3b 33
        E 0 91 40 33
        E 0 92 42 33
        E 0 92 43 33
        E 2879 80 32 00
        E 0 81 3b 00
        E 0 81 40 00
        E 0 82 42 00
        E 0 82 43 00
        E 0 90 2a 33
        E 0 91 32 33
        E 0 91 3b 33
        E 0 92 43 33
        E 0 92 64 33
        E 1439 80 2a 00
        E 0 81 32 00
        E 0 90 2d 33
        E 0 91 30 33
        E 1439 80 2d 00
        E 0 81 30 00
        E 0 90 30 33
        E 0 91 32 33
        E 1156 81 3b 00
        E 0 82 43 00
        E 0 82 64 00
        E 0 80 30 00
        E 0 81 32 00
        E 0 90 2e 32
        E 0 91 31 32
        E 0 91 38 32
        E 0 92 42 32
        E 0 92 65 32
        E 544 80 2e 00
        E 0 81 38 00
        E 0 82 65 00
        E 0 90 2f 32
        E 0 91 3a 32
        E 0 92 63 32
        E 544 81 31 00
        E 0 81 3a 00
        E 0 82 63 00
        E 0 91 33 32
        E 0 91 38 32
        E 0 92 64 32
        E 544 82 42 00
        E 0 81 33 00
        E 0 81 38 00
        E 0 91 31 32
        E 0 91 39 32
        E 0 92 44 32
        E 544 80 2f 00
        E 0 82 64 00
        E 0 81 31 00
        E 0 81 39 00
        E 0 82 44 00
        E 0 90 2c 33
        E 0 91 30 33
        E 0 91 33 33
        E 0 92 3a 33
        E 0 92 67 33
        E 2890 80 2c 00
        E 0 82 3a 00
        E 0 82 67 00
        E 0 90 2b 33
        E 0 92 38 33
        E 0 92 65 33
        E 1445 81 30 00
        E 0 81 33 00
        E 0 80 2b 00
        E 0 82 38 00
        E 0 82 65 00
        E 0 90 29 33
        E 0 91 33 33
        E 0 91 3c 33
        E 0 92 43 33
        E 0 92 44 33
        E 1445 81 33 00
        E 0 82 43 00
        E 0 82 44 00
        E 0 91 31 33
        E 0 92 44 33
        E 0 92 46 33
        E 1445 81 3c 00
        E 0 81 31 00
        E 0 82 46 00
        E 0 91 33 33
        E 0 91 3d 33
        E 0 92 48 33
        E 1161 80 29 00
        E 0 82 44 00
        E 0 81 3d 00
        E 0 82 48 00
        E 0 90 31 33
        E 0 91 35 33
        E 0 92 3c 33
        E 0 92 50 33
        E 2901 81 33 00
        E 0 80 31 00
        E 0 82 3c 00
        E 0 90 30 33
        E 0 91 31 33
        E 0 92 3a 33
        E 1451 82 50 00
        E 0 92 44 33
        E 1451 80 30 00
        E 0 81 31 00
        E 0 82 44 00
        E 0 90 31 33
        E 0 91 33 33
        E 0 92 42 33
        E 1451 81 35 00
        E 0 81 33 00
        E 0 91 35 33
        E 0 91 38 33
        E 1165 82 3a 00
        E 0 80 31 00
        E 0 82 42 00
        E 0 81 35 00
        E 0 81 38 00
        E 0 90 2e 33
        E 0 91 31 33
        E 0 91 35 33
        E 0 92 38 33
        E 0 92 4e 33
        E 2913 80 2e 00
        E 0 81 31 00
        E 0 82 38 00
        E 0 82 4e 00
        E 0 90 31 33
        E 0 91 33 33
        E 0 92 3a 33
        E 0 92 42 33
        E 1457 81 35 00
        E 0 80 31 00
        E 0 81 33 00
        E 0 82 42 00
        E 0 90 29 33
        E 0 91 31 33
        E 0 91 33 33
        E 0 92 4e 33
        E 1457 80 29 00
        E 0 81 31 00
        E 0 81 33 00
        E 0 82 4e 00
        E 0 90 31 33
        E 0 91 33 33
        E 0 91 36 33
        E 0 92 41 33
        E 2913 82 3a 00
        E 0 81 36 00
        E 0 82 41 00
        E 0 91 46 33
        E 0 92 5a 33
        E 0 92 65 33
        E 1456 80 31 00
        E 0 82 5a 00
        E 0 82 65 00
        E 0 90 2f 33
        E 0 92 5c 33
        E 0 92 66 33
        E 1457 81 46 00
        E 0 80 2f 00
        E 0 82 5c 00
        E 0 90 31 33
        E 0 91 47 33
        E 0 92 5e 33
        E 1170 81 33 00
        E 0 82 66 00
        E 0 80 31 00
        E 0 81 47 00
        E 0 82 5e 00
        E 0 90 30 32
        E 0 91 34 32
        E 0 91 45 32
        E 0 92 5b 32
        E 0 92 65 32
        E 551 81 34 00
        E 0 81 45 00
        E 0 82 5b 00
        E 0 91 32 32
        E 0 91 46 32
        E 0 92 5d 32
        E 550 80 30 00
        E 0 81 32 00
        E 0 82 5d 00
        E 0 90 32 32
        E 0 91 33 32
        E 0 92 5b 32
        E 551 82 65 00
        E 0 80 32 00
        E 0 82 5b 00
        E 0 90 30 32
        E 0 92 5c 32
        E 0 92 67 32
        E 550 81 46 00
        E 0 81 33 00
        E 0 80 30 00
        E 0 82 5c 00
        E 0 82 67 00
        E 0 90 2f 33
        E 0 91 32 33
        E 0 91 39 33
        E 0 92 5b 33
        E 0 92 66 33
        E 2925 81 39 00
        E 0 82 5b 00
        E 0 82 66 00
        E 0 91 37 33
        E 0 92 5a 33
        E 0 92 64 33
        E 1463 80 2f 00
        E 0 81 32 00
        E 0 81 37 00
        E 0 82 5a 00
        E 0 82 64 00
        E 0 90 28 33
        E 0 91 2a 33
        E 0 91 32 33
        E 0 92 3b 33
        E 0 92 4f 33
        E 1462 81 2a 00
        E 0 81 32 00
        E 0 91 2d 33
        E 0 91 30 33
        E 1463 81 2d 00
        E 0 81 30 00
        E 0 91 30 33
        E 0 91 32 33
        E 1174 80 28 00
        E 0 82 3b 00
        E 0 82 4f 00
        E 0 90 2f 33
        E 0 92 34 33
        E 0 92 43 33
        E 2937 81 30 00
        E 0 81 32 00
        E 0 80 2f 00
        E 0 90 2d 33
        E 0 91 2f 33
        E 0 91 30 33
        E 1468 82 43 00
        E 0 92 37 33
        E 1469 82 34 00
        E 0 80 2d 00
        E 0 81 2f 00
        E 0 82 37 00
        E 0 90 29 33
        E 0 91 2d 33
        E 0 92 32 33
        E 0 92 34 33
        E 1468 80 29 00
        E 0 82 32 00
        E 0 82 34 00
        E 0 90 2b 33
        E 0 92 34 33
        E 0 92 35 33
        E 1179 82 35 00
        E 0 92 41 33
        E 2949 81 30 00
        E 0 81 2d 00
        E 0 80 2b 00
        E 0 82 41 00
        E 0 90 29 33
        E 0 91 30 33
        E 0 91 32 33
        E 0 92 45 33
        E 1474 82 34 00
        E 0 80 29 00
        E 0 90 28 33
        E 0 92 35 33
        E 1474 81 30 00
        E 0 81 32 00
        E 0 82 45 00
        E 0 80 28 00
        E 0 82 35 00
        E 0 90 30 33
        E 0 91 32 33
        E 0 91 39 33
        E 0 92 40 33
        E 0 92 65 33
        E 2949 82 40 00
        E 0 82 65 00
        E 0 92 4d 33
        E 0 92 64 33
        E 1474 80 30 00
        E 0 81 39 00
        E 0 82 4d 00
        E 0 82 64 00
        E 0 90 2d 33
        E 0 91 3a 33
        E 0 92 4f 33
        E 0 92 65 33
        E 1474 80 2d 00
        E 0 82 4f 00
        E 0 90 30 33
        E 0 92 51 33
        E 1185 81 32 00
        E 0 81 3a 00
        E 0 82 65 00
        E 0 80 30 00
        E 0 82 51 00
        E 0 90 2f 32
        E 0 91 33 32
        E 0 91 38 32
        E 0 92 4e 32
        E 0 92 64 32
        E 557 81 33 00
        E 0 81 38 00
        E 0 82 4e 00
        E 0 91 31 32
        E 0 91 39 32
        E 0 92 50 32
        E 557 80 2f 00
        E 0 81 31 00
        E 0 82 50 00
        E 0 90 31 32
        E 0 91 32 32
        E 0 92 4e 32
        E 557 82 64 00
        E 0 81 39 00
        E 0 80 31 00
        E 0 82 4e 00
        E 0 90 2f 32
        E 0 91 37 32
        E 0 92 51 32
        E 0 92 66 32
        E 557 81 32 00
        E 0 80 2f 00
        E 0 81 37 00
        E 0 82 51 00
        E 0 82 66 00
        E 0 90 2c 33
        E 0 91 2e 33
        E 0 91 31 33
        E 0 92 4e 33
        E 0 92 65 33
        E 2961 80 2c 00
        E 0 81 2e 00
        E 0 81 31 00
        E 0 82 4e 00
        E 0 90 31 33
        E 0 91 33 33
        E 0 91 36 33
        E 0 92 46 33
        E 1480 82 65 00
        E 0 81 36 00
        E 0 91 42 33
        E 0 92 59 33
        E 1480 80 31 00
        E 0 81 33 00
        E 0 82 46 00
        E 0 81 42 00
        E 0 82 59 00
        E 0 90 29 33
        E 0 91 31 33
        E 0 91 33 33
        E 0 92 36 33
        E 0 92 46 33
        E 2960 80 29 00
        E 0 81 31 00
        E 0 81 33 00
        E 0 82 36 00
        E 0 82 46 00
        E 0 90 31 33
        E 0 91 33 33
        E 0 91 3a 33
        E 0 92 4d 33
        E 0 92 66 33
        E 1481 80 31 00
        E 0 81 3a 00
        E 0 82 4d 00
        E 0 90 2e 33
        E 0 91 3b 33
        E 0 92 50 33
        E 1480 80 2e 00
        E 0 82 50 00
        E 0 90 31 33
        E 0 92 52 33
        E 1189 81 33 00
        E 0 82 66 00
        E 0 81 3b 00
        E 0 80 31 00
        E 0 82 52 00
        E 0 90 30 32
        E 0 91 34 32
        E 0 91 39 32
        E 0 92 4f 32
        E 0 92 65 32
        E 559 81 34 00
        E 0 81 39 00
        E 0 82 4f 00
        E 0 91 32 32
        E 0 91 3a 32
        E 0 92 51 32
        E 560 80 30 00
        E 0 81 32 00
        E 0 82 51 00
        E 0 90 32 32
        E 0 91 33 32
        E 0 92 4f 32
        E 559 82 65 00
        E 0 81 3a 00
        E 0 80 32 00
        E 0 82 4f 00
        E 0 90 30 32
        E 0 91 38 32
        E 0 92 52 32
        E 0 92 67 32
        E 560 81 33 00
        E 0 80 30 00
        E 0 81 38 00
        E 0 82 52 00
        E 0 90 2d 33
        E 0 91 2f 33
        E 0 91 32 33
        E 0 92 4e 33
        E 2972 82 67 00
        E 0 80 2d 00
        E 0 81 2f 00
        E 0 81 32 00
        E 0 82 4e 00
        E 0 90 32 33
        E 0 91 3b 33
        E 0 91 43 33
        E 0 92 4c 33
        E 0 92 4e 33
        E 1486 81 43 00
        E 0 82 4c 00
        E 0 82 4e 00
        E 0 91 40 33
        E 0 92 43 33
        E 0 92 5a 33
        E 1486 81 40 00
        E 0 82 5a 00
        E 0 91 42 33
        E 0 92 58 33
        E 2972 81 3b 00
        E 0 82 43 00
        E 0 81 42 00
        E 0 82 58 00
        E 0 91 34 33
        E 0 91 36 33
        E 0 92 3b 33
        E 0 92 43 33
        E 1486 80 32 00
        E 0 81 36 00
        E 0 82 3b 00
        E 0 90 2f 33
        E 0 91 39 33
        E 0 92 3c 33
        E 1486 80 2f 00
        E 0 81 39 00
        E 0 82 3c 00
        E 0 90 30 33
        E 0 91 3b 33
        E 0 92 3e 33
        E 1194 81 34 00
        E 0 82 43 00
        E 0 80 30 00
        E 0 81 3b 00
        E 0 82 3e 00
        E 0 90 31 32
        E 0 91 36 32
        E 0 91 3a 32
        E 0 92 41 32
        E 0 92 44 32
        E 562 81 3a 00
        E 0 82 41 00
        E 0 82 44 00
        E 0 91 3b 32
        E 0 92 3f 32
        E 0 92 46 32
        E 561 80 31 00
        E 0 82 3f 00
        E 0 82 46 00
        E 0 90 33 32
        E 0 92 40 32
        E 0 92 44 32
        E 562 81 36 00
        E 0 80 33 00
        E 0 90 31 32
        E 0 91 39 32
        E 562 81 3b 00
        E 0 82 40 00
        E 0 82 44 00
        E 0 80 31 00
        E 0 81 39 00
        E 0 90 30 33
        E 0 91 33 33
        E 0 91 37 33
        E 0 92 38 33
        E 0 92 3a 33
        E 2984 81 37 00
        E 0 82 38 00
        E 0 82 3a 00
        E 0 91 35 33
        E 0 92 37 33
        E 0 92 38 33
        E 1492 80 30 00
        E 0 81 33 00
        E 0 81 35 00
        E 0 82 37 00
        E 0 82 38 00
        E 0 90 33 33
        E 0 91 3c 33
        E 0 91 41 33
        E 0 92 43 33
        E 0 92 44 33
        E 1492 80 33 00
        E 0 82 43 00
        E 0 82 44 00
        E 0 90 31 33
        E 0 92 44 33
        E 0 92 46 33
        E 1492 81 3c 00
        E 0 80 31 00
        E 0 82 46 00
        E 0 90 33 33
        E 0 91 3d 33
        E 0 92 48 33
        E 1199 81 41 00
        E 0 82 44 00
        E 0 80 33 00
        E 0 81 3d 00
        E 0 82 48 00
        E 0 90 31 33
        E 0 91 33 33
        E 0 91 3c 33
        E 0 92 4d 33
        E 0 92 50 33
        E 2996 80 31 00
        E 0 81 33 00
        E 0 81 3c 00
        E 0 90 30 33
        E 0 91 31 33
        E 0 91 3a 33
        E 1498 82 4d 00
        E 0 82 50 00
        E 0 92 44 33
        E 0 92 4d 33
        E 1498 80 30 00
        E 0 81 31 00
        E 0 82 44 00
        E 0 90 31 33
        E 0 91 33 33
        E 0 92 42 33
        E 1498 81 33 00
        E 0 91 38 33
        E 1203 81 3a 00
        E 0 82 4d 00
        E 0 80 31 00
        E 0 82 42 00
        E 0 81 38 00
        E 0 90 2e 33
        E 0 91 31 33
        E 0 91 38 33
        E 0 92 4d 33
        E 0 92 4e 33
        E 3008 80 2e 00
        E 0 81 31 00
        E 0 81 38 00
        E 0 82 4d 00
        E 0 82 4e 00
        E 0 90 31 33
        E 0 91 33 33
        E 0 91 3a 33
        E 0 92 42 33
        E 0 92 4d 33
        E 1505 82 42 00
        E 0 82 4d 00
        E 0 92 41 33
        E 0 92 4e 33
        E 1504 81 3a 00
        E 0 82 41 00
        E 0 82 4e 00
        E 0 91 36 33
        E 0 92 3a 33
        E 0 92 59 33
        E 3008 81 36 00
        E 0 82 3a 00
        E 0 82 59 00
        E 0 91 35 33
        E 0 92 46 33
        E 0 92 66 33
        E 1504 80 31 00
        E 0 81 35 00
        E 0 90 2f 33
        E 0 91 38 33
        E 1504 80 2f 00
        E 0 81 38 00
        E 0 90 31 33
        E 0 91 3b 33
        E 1208 81 33 00
        E 0 82 46 00
        E 0 82 66 00
        E 0 80 31 00
        E 0 81 3b 00
        E 0 90 30 32
        E 0 91 34 32
        E 0 91 39 32
        E 0 92 43 32
        E 0 92 65 32
        E 569 81 34 00
        E 0 81 39 00
        E 0 82 43 00
        E 0 91 32 32
        E 0 91 3a 32
        E 0 92 45 32
        E 568 80 30 00
        E 0 81 32 00
        E 0 82 45 00
        E 0 90 32 32
        E 0 91 33 32
        E 0 92 43 32
        E 569 82 65 00
        E 0 81 3a 00
        E 0 80 32 00
        E 0 82 43 00
        E 0 90 30 32
        E 0 91 38 32
        E 0 92 46 32
        E 0 92 67 32
        E 568 81 33 00
        E 0 80 30 00
        E 0 81 38 00
        E 0 82 46 00
        E 0 82 67 00
        E 0 90 2b 33
        E 0 91 2d 33
        E 0 91 2f 33
        E 0 92 32 33
        E 0 92 36 33
        E 3020 80 2b 00
        E 0 81 2d 00
        E 0 82 36 00
        E 0 90 2a 33
        E 0 91 2b 33
        E 0 92 34 33
        E 1511 81 2f 00
        E 0 82 32 00
        E 0 80 2a 00
        E 0 81 2b 00
        E 0 82 34 00
        E 0 90 32 33
        E 0 91 36 33
        E 0 91 37 33
        E 0 92 3b 33
        E 0 92 40 33
        E 1510 80 32 00
        E 0 81 36 00
        E 0 81 37 00
        E 0 90 30 33
        E 0 91 37 33
        E 0 91 39 33
        E 1510 82 3b 00
        E 0 80 30 00
        E 0 81 39 00
        E 0 90 32 33
        E 0 91 3b 33
        E 0 92 3c 33
        E 1213 82 40 00
        E 0 81 37 00
        E 0 80 32 00
        E 0 81 3b 00
        E 0 82 3c 00
        E 0 90 2f 33
        E 0 91 30 33
        E 0 91 32 33
        E 0 92 43 33
        E 0 92 4c 33
        E 3032 80 2f 00
        E 0 81 30 00
        E 0 81 32 00
        E 0 90 2d 33
        E 0 91 2f 33
        E 0 91 30 33
        E 1516 82 43 00
        E 0 92 37 33
        E 1516 81 2f 00
        E 0 81 30 00
        E 0 82 37 00
        E 0 91 30 33
        E 0 91 32 33
        E 0 92 35 33
        E 1517 81 32 00
        E 0 82 35 00
        E 0 91 35 33
        E 0 92 37 33
        E 1217 80 2d 00
        E 0 81 30 00
        E 0 81 35 00
        E 0 82 37 00
        E 0 90 2b 33
        E 0 91 2d 33
        E 0 91 30 33
        E 0 92 41 33
        E 3045 80 2b 00
        E 0 81 2d 00
        E 0 81 30 00
        E 0 82 41 00
        E 0 90 29 33
        E 0 91 30 33
        E 0 91 32 33
        E 0 92 45 33
        E 1522 82 4c 00
        E 0 80 29 00
        E 0 81 30 00
        E 0 81 32 00
        E 0 82 45 00
        E 0 90 30 33
        E 0 91 32 33
        E 0 91 35 33
        E 0 92 40 33
        E 0 92 45 33
        E 1523 81 35 00
        E 0 82 40 00
        E 0 82 45 00
        E 0 91 39 33
        E 0 92 58 33
        E 0 92 65 33
        E 3044 81 39 00
        E 0 82 58 00
        E 0 82 65 00
        E 0 91 34 33
        E 0 92 39 33
        E 0 92 59 33
        E 1522 80 30 00
        E 0 81 34 00
        E 0 82 39 00
        E 0 90 2d 33
        E 0 91 37 33
        E 0 92 3a 33
        E 1523 80 2d 00
        E 0 81 37 00
        E 0 90 30 33
        E 0 91 39 33
        E 1222 81 32 00
        E 0 82 59 00
        E 0 82 3a 00
        E 0 80 30 00
        E 0 81 39 00
        E 0 90 2f 32
        E 0 91 33 32
        E 0 91 36 32
        E 0 92 38 32
        E 0 92 58 32
        E 576 81 33 00
        E 0 81 36 00
        E 0 82 38 00
        E 0 91 31 32
        E 0 91 38 32
        E 0 92 39 32
        E 575 80 2f 00
        E 0 81 31 00
        E 0 81 38 00
        E 0 90 31 32
        E 0 91 32 32
        E 0 91 36 32
        E 576 82 58 00
        E 0 82 39 00
        E 0 80 31 00
        E 0 90 2f 32
        E 0 92 37 32
        E 0 92 5d 32
        E 575 81 32 00
        E 0 81 36 00
        E 0 80 2f 00
        E 0 82 37 00
        E 0 82 5d 00
        E 0 90 2c 33
        E 0 91 2e 33
        E 0 91 31 33
        E 0 92 35 33
        E 0 92 5a 33
        E 3057 80 2c 00
        E 0 81 2e 00
        E 0 81 31 00
        E 0 82 35 00
        E 0 82 5a 00
        E 0 90 31 33
        E 0 91 33 33
        E 0 91 35 33
        E 0 92 42 33
        E 0 92 46 33
        E 1528 80 31 00
        E 0 81 33 00
        E 0 81 35 00
        E 0 82 42 00
        E 0 82 46 00
        E 0 90 29 33
        E 0 91 31 33
        E 0 91 33 33
        E 0 92 46 33
        E 0 92 4e 33
        E 1529 80 29 00
        E 0 81 31 00
        E 0 81 33 00
        E 0 82 46 00
        E 0 82 4e 00
        E 0 90 31 33
        E 0 91 33 33
        E 0 91 36 33
        E 0 92 41 33
        E 0 92 46 33
        E 3056 81 36 00
        E 0 82 41 00
        E 0 82 46 00
        E 0 91 3a 33
        E 0 92 65 33
        E 0 92 66 33
        E 1529 80 31 00
        E 0 81 3a 00
        E 0 82 65 00
        E 0 82 66 00
        E 0 90 2e 33
        E 0 91 3b 33
        E 0 92 66 33
        E 0 92 68 33
        E 1528 82 66 00
        E 0 82 68 00
        E 0 92 61 33
        E 0 92 66 33
        E 1228 81 33 00
        E 0 80 2e 00
        E 0 81 3b 00
        E 0 82 61 00
        E 0 82 66 00
        E 0 90 2d 32
        E 0 91 35 32
        E 0 91 3c 32
        E 0 92 64 32
        E 0 92 67 32
        E 577 80 2d 00
        E 0 81 35 00
        E 0 82 64 00
        E 0 82 67 00
        E 0 90 2e 32
        E 0 91 32 32
        E 0 92 65 32
        E 0 92 69 32
        E 578 81 3c 00
        E 0 81 32 00
        E 0 82 69 00
        E 0 91 33 32
        E 0 91 3e 32
        E 0 92 67 32
        E 578 82 65 00
        E 0 81 3e 00
        E 0 82 67 00
        E 0 91 3c 32
        E 0 92 67 32
        E 0 92 68 32
        E 578 80 2e 00
        E 0 81 33 00
        E 0 81 3c 00
        E 0 82 67 00
        E 0 82 68 00
        E 0 90 2d 33
        E 0 91 2f 33
        E 0 91 32 33
        E 0 92 66 33
        E 0 92 67 33
        E 3069 80 2d 00
        E 0 82 66 00
        E 0 82 67 00
        E 0 90 2b 33
        E 0 92 64 33
        E 0 92 66 33
        E 1534 81 2f 00
        E 0 81 32 00
        E 0 80 2b 00
        E 0 82 64 00
        E 0 82 66 00
        E 0 90 28 33
        E 0 91 32 33
        E 0 91 36 33
        E 0 92 3b 33
        E 0 92 43 33
        E 1535 81 32 00
        E 0 81 36 00
        E 0 91 30 33
        E 0 91 39 33
        E 1534 82 3b 00
        E 0 81 30 00
        E 0 81 39 00
        E 0 91 32 33
        E 0 91 3b 33
        E 0 92 3c 33
        E 1233 80 28 00
        E 0 81 3b 00
        E 0 82 3c 00
        E 0 90 30 33
        E 0 91 34 33
        E 0 92 3b 33
        E 3081 81 32 00
        E 0 80 30 00
        E 0 82 3b 00
        E 0 90 2f 33
        E 0 91 30 33
        E 0 92 39 33
        E 1541 82 43 00
        E 0 82 39 00
        E 0 92 37 33
        E 0 92 39 33
        E 1540 80 2f 00
        E 0 81 30 00
        E 0 82 37 00
        E 0 90 30 33
        E 0 91 32 33
        E 0 92 35 33
        E 1541 81 34 00
        E 0 81 32 00
        E 0 82 35 00
        E 0 91 34 33
        E 0 91 35 33
        E 0 92 37 33
        E 1238 82 39 00
        E 0 80 30 00
        E 0 81 34 00
        E 0 81 35 00
        E 0 90 2d 33
        E 0 91 30 33
        E 0 91 34 33
        E 0 92 41 33
        E 3093 82 37 00
        E 0 80 2d 00
        E 0 81 30 00
        E 0 82 41 00
        E 0 90 30 33
        E 0 91 32 33
        E 0 92 35 33
        E 0 92 39 33
        E 1547 81 34 00
        E 0 80 30 00
        E 0 81 32 00
        E 0 82 35 00
        E 0 82 39 00
        E 0 90 28 33
        E 0 91 30 33
        E 0 91 32 33
        E 0 92 39 33
        E 0 92 41 33
        E 1547 80 28 00
        E 0 81 30 00
        E 0 81 32 00
        E 0 82 39 00
        E 0 82 41 00
        E 0 90 30 33
        E 0 91 32 33
        E 0 91 40 33
        E 0 92 45 33
        E 0 92 65 33
        E 3094 81 40 00
        E 0 82 45 00
        E 0 82 65 00
        E 0 91 45 33
        E 0 92 4d 33
        E 0 92 64 33
        E 1547 80 30 00
        E 0 82 4d 00
        E 0 82 64 00
        E 0 90 2e 33
        E 0 92 4f 33
        E 0 92 65 33
        E 1547 81 45 00
        E 0 80 2e 00
        E 0 82 4f 00
        E 0 90 30 33
        E 0 91 46 33
        E 0 92 51 33
        E 1242 81 32 00
        E 0 82 65 00
        E 0 80 30 00
        E 0 81 46 00
        E 0 82 51 00
        E 0 90 2f 32
        E 0 91 33 32
        E 0 91 44 32
        E 0 92 4e 32
        E 0 92 64 32
        E 585 81 33 00
        E 0 81 44 00
        E 0 82 4e 00
        E 0 91 31 32
        E 0 91 45 32
        E 0 92 50 32
        E 585 80 2f 00
        E 0 81 31 00
        E 0 82 50 00
        E 0 90 31 32
        E 0 91 32 32
        E 0 92 4e 32
        E 584 82 64 00
        E 0 80 31 00
        E 0 82 4e 00
        E 0 90 2f 32
        E 0 92 4f 32
        E 0 92 66 32
        E 585 81 45 00
        E 0 81 32 00
        E 0 80 2f 00
        E 0 82 4f 00
        E 0 82 66 00
        E 0 90 2e 33
        E 0 91 31 33
        E 0 91 38 33
        E 0 92 4e 33
        E 0 92 65 33
        E 3106 81 38 00
        E 0 91 33 33
        E 1553 80 2e 00
        E 0 82 4e 00
        E 0 82 65 00
        E 0 90 29 33
        E 0 92 46 33
        E 0 92 66 33
        E 1553 81 31 00
        E 0 80 29 00
        E 0 90 2c 33
        E 0 91 2f 33
        E 1553 80 2c 00
        E 0 81 2f 00
        E 0 90 2f 33
        E 0 91 31 33
        E 1248 81 33 00
        E 0 82 46 00
        E 0 82 66 00
        E 0 80 2f 00
        E 0 81 31 00
        E 0 90 2e 33
        E 0 91 2f 33
        E 0 91 31 33
        E 0 92 33 33
        E 0 92 36 33
        E 3118 80 2e 00
        E 0 81 2f 00
        E 0 81 31 00
        E 0 90 2c 33
        E 0 91 2e 33
        E 0 91 2f 33
        E 1560 82 33 00
        E 0 82 36 00
        E 0 80 2c 00
        E 0 81 2e 00
        E 0 81 2f 00
        E 0 90 2a 33
        E 0 91 2c 33
        E 0 91 2e 33
        E 0 92 2f 33
        E 0 92 33 33
        E 1559 80 2a 00
        E 0 81 2c 00
        E 0 81 2e 00
        E 0 82 2f 00
        E 0 82 33 00
        E 0 90 2c 33
        E 0 91 2f 33
        E 0 91 31 33
        E 0 92 33 33
        E 0 92 34 33
        E 1559 81 31 00
        E 0 82 33 00
        E 0 82 34 00
        E 0 91 33 33
        E 0 92 34 33
        E 0 92 36 33
        E 1253 80 2c 00
        E 0 81 2f 00
        E 0 81 33 00
        E 0 82 34 00
        E 0 82 36 00
        E 0 90 33 33
        E 0 91 38 33
        E 0 91 3b 33
        E 0 92 40 33
        E 0 92 42 33
        E 6262 82 40 00
        E 0 82 42 00
        E 0 92 3d 34
        E 0 92 40 34
        E 1566 80 33 00
        E 0 81 3b 00
        E 0 82 3d 00
        E 0 82 40 00
        E 0 90 31 34
        E 0 91 3a 34
        E 0 92 3c 34
        E 0 92 41 34
        E 1565 81 38 00
        E 0 80 31 00
        E 0 81 3a 00
        E 0 82 3c 00
        E 0 82 41 00
        E 0 90 30 34
        E 0 91 31 34
        E 0 91 33 34
        E 0 92 44 34
        E 0 92 4d 34
        E 1566 80 30 00
        E 0 81 31 00
        E 0 81 33 00
        E 0 90 2e 36
        E 0 91 30 36
        E 0 91 31 36
        E 1223 82 44 00
        E 0 80 2e 00
        E 0 81 30 00
        E 0 81 31 00
        E 0 90 2d 36
        E 0 91 2e 36
        E 0 91 32 36
        E 0 92 43 36
        E 1223 82 4d 00
        E 0 80 2d 00
        E 0 81 2e 00
        E 0 82 43 00
        E 0 90 2e 36
        E 0 91 30 36
        E 0 92 39 36
        E 0 92 59 36
        E 1223 80 2e 00
        E 0 81 30 00
        E 0 82 39 00
        E 0 90 2d 3b
        E 0 91 2e 3b
        E 0 92 37 3b
        E 956 82 59 00
        E 0 80 2d 00
        E 0 81 2e 00
        E 0 82 37 00
        E 0 90 2b 3b
        E 0 91 2f 3b
        E 0 92 36 3b
        E 0 92 58 3b
        E 956 80 2b 00
        E 0 82 36 00
        E 0 82 58 00
        E 0 90 2d 3b
        E 0 92 37 3b
        E 0 92 5a 3b
        E 955 80 2d 00
        E 0 82 37 00
        E 0 82 5a 00
        E 0 90 2b 45
        E 0 92 36 45
        E 0 92 58 45
        E 747 81 32 00
        E 0 80 2b 00
        E 0 82 36 00
        E 0 90 2c 45
        E 0 91 31 45
        E 0 92 33 45
        E 746 81 2f 00
        E 0 82 58 00
        E 0 80 2c 00
        E 0 81 31 00
        E 0 82 33 00
        E 0 90 28 45
        E 0 91 33 45
        E 0 91 38 45
        E 0 92 3b 45
        E 0 92 4e 45
        E 747 82 4e 00
        E 0 92 49 5a
        E 583 80 28 00
        E 0 81 33 00
        E 0 82 3b 00
        E 0 82 49 00
        E 0 90 29 5a
        E 0 91 31 5a
        E 0 92 3a 5a
        E 0 92 48 5a
        E 583 81 38 00
        E 0 80 29 00
        E 0 82 3a 00
        E 0 82 48 00
        E 0 90 30 5a
        E 0 91 33 5a
        E 0 92 35 5a
        E 0 92 50 5a
        E 1028 81 31 00
        E 0 80 30 00
        E 0 81 33 00
        E 0 82 35 00
        E 0 82 50 00
        E 0 90 29 5a
        E 0 91 2c 5a
        E 0 91 31 5a
        E 0 92 33 5a
        E 0 92 3c 5a
        E 445 80 29 00
        E 0 81 2c 00
        E 0 81 31 00
        E 0 82 33 00
        E 0 82 3c 00
        E 0 90 2c 5a
        E 0 91 31 5a
        E 0 91 33 5a
        E 0 92 3c 5a
        E 0 92 65 5a
        E 445 80 2c 00
        E 0 82 3c 00
        E 0 82 65 00
        E 0 90 30 5a
        E 0 92 35 5a
        E 0 92 68 5a
        E 445 81 31 00
        E 0 81 33 00
        E 0 80 30 00
        E 0 90 2e 5a
        E 0 91 30 5a
        E 0 91 31 5a
        E 356 82 35 00
        E 0 82 68 00
        E 0 92 44 5a
        E 0 92 59 5a
        E 1247 82 44 00
        E 0 82 59 00
        E 0 92 4d 45
        E 0 92 68 45
        E 543 80 2e 00
        E 0 82 4d 00
        E 0 82 68 00
        E 0 90 2c 45
        E 0 92 3a 45
        E 0 92 41 45
        E 543 80 2c 00
        E 0 82 3a 00
        E 0 82 41 00
        E 0 90 2e 45
        E 0 92 59 45
        E 0 92 5c 45
        E 544 81 30 00
        E 0 81 31 00
        E 0 80 2e 00
        E 0 90 30 45
        E 0 91 31 45
        E 0 91 33 45
        E 543 82 59 00
        E 0 92 35 45
        E 543 80 30 00
        E 0 81 31 00
        E 0 82 35 00
        E 0 90 2e 45
        E 0 91 30 45
        E 0 92 37 45
        E 543 82 5c 00
        E 0 80 2e 00
        E 0 82 37 00
        E 0 90 2c 45
        E 0 92 35 45
        E 0 92 5b 45
        E 436 81 33 00
        E 0 81 30 00
        E 0 80 2c 00
        E 0 82 35 00
        E 0 82 5b 00
        E 0 90 33 45
        E 0 91 38 45
        E 0 91 3c 45
        E 0 92 41 45
        E 0 92 67 45
        E 1091 80 33 00
        E 0 81 38 00
        E 0 81 3c 00
        E 0 82 41 00
        E 0 82 67 00
        E 0 90 2b 45
        E 0 91 30 45
        E 0 91 33 45
        E 0 92 38 45
        E 0 92 3a 45
        E 436 80 2b 00
        E 0 81 30 00
        E 0 81 33 00
        E 0 82 38 00
        E 0 82 3a 00
        E 0 90 30 45
        E 0 91 33 45
        E 0 91 38 45
        E 0 92 3a 45
        E 0 92 67 45
        E 437 80 30 00
        E 0 81 33 00
        E 0 81 38 00
        E 0 82 3a 00
        E 0 82 67 00
        E 0 90 2c 45
        E 0 91 30 45
        E 0 91 33 45
        E 0 92 37 45
        E 0 92 3a 45
        E 872 80 2c 00
        E 0 82 37 00
        E 0 82 3a 00
        E 0 90 2e 45
        E 0 92 5b 45
        E 0 92 5c 45
        E 436 80 2e 00
        E 0 82 5b 00
        E 0 82 5c 00
        E 0 90 2c 5a
        E 0 92 59 5a
        E 0 92 5b 5a
        E 437 81 33 00
        E 0 80 2c 00
        E 0 82 59 00
        E 0 82 5b 00
        E 0 90 2d 5a
        E 0 91 32 5a
        E 0 92 58 5a
        E 0 92 59 5a
        E 436 81 30 00
        E 0 80 2d 00
        E 0 81 32 00
        E 0 82 58 00
        E 0 82 59 00
        E 0 90 2b 5a
        E 0 91 2d 5a
        E 0 91 30 5a
        E 0 92 59 5a
        E 0 92 64 5a
        E 769 80 2b 00
        E 0 81 2d 00
        E 0 81 30 00
        E 0 82 59 00
        E 0 82 64 00
        E 0 90 2d 5a
        E 0 91 30 5a
        E 0 91 35 5a
        E 0 92 37 5a
        E 0 92 58 5a
        E 333 81 35 00
        E 0 82 37 00
        E 0 82 58 00
        E 0 91 37 5a
        E 0 92 41 5a
        E 0 92 4c 5a
        E 333 80 2d 00
        E 0 81 30 00
        E 0 81 37 00
        E 0 82 41 00
        E 0 82 4c 00
        E 0 90 29 5a
        E 0 91 2d 5a
        E 0 91 30 5a
        E 0 92 37 5a
        E 0 92 64 5a
        E 333 80 29 00
        E 0 82 37 00
        E 0 82 64 00
        E 0 90 28 5a
        E 0 92 35 5a
        E 0 92 62 5a
        E 266 81 2d 00
        E 0 81 30 00
        E 0 80 28 00
        E 0 82 35 00
        E 0 82 62 00
        E 0 90 29 5a
        E 0 91 30 5a
        E 0 91 32 5a
        E 0 92 45 5a
        E 0 92 4c 5a
        E 1568 80 29 00
        E 0 81 30 00
        E 0 81 32 00
        E 0 82 4c 00
        E 0 90 30 3b
        E 0 91 32 3b
        E 0 91 40 3b
        E 0 92 4d 3b
        E 634 81 40 00
        E 0 82 4d 00
        E 0 91 34 3b
        E 0 92 59 3b
        E 635 81 34 00
        E 0 82 59 00
        E 0 91 41 3b
        E 0 92 4c 3b
        E 635 82 45 00
        E 0 80 30 00
        E 0 81 32 00
        E 0 81 41 00
        E 0 82 4c 00
        E 0 90 2d 3b
        E 0 91 30 3b
        E 0 91 37 3b
        E 0 92 41 3b
        E 0 92 58 3b
        E 635 82 41 00
        E 0 82 58 00
        E 0 92 4c 3b
        E 0 92 4d 3b
        E 635 81 37 00
        E 0 82 4c 00
        E 0 82 4d 00
        E 0 91 35 3b
        E 0 92 37 3b
        E 0 92 64 3b
        E 1270 80 2d 00
        E 0 81 30 00
        E 0 81 35 00
        E 0 82 64 00
        E 0 90 29 3b
        E 0 91 2d 3b
        E 0 91 30 3b
        E 0 92 40 3b
        E 635 82 37 00
        E 0 80 29 00
        E 0 81 2d 00
        E 0 90 2b 3b
        E 0 91 2f 3b
        E 0 92 32 3b
        E 634 81 30 00
        E 0 81 2f 00
        E 0 82 32 00
        E 0 91 2d 3b
        E 0 91 2f 3b
        E 0 92 30 3b
        E 510 82 40 00
        E 0 81 2d 00
        E 0 81 2f 00
        E 0 82 30 00
        E 0 91 2c 36
        E 0 91 30 36
        E 0 92 33 36
        E 0 92 41 36
        E 240 81 2c 00
        E 0 82 41 00
        E 0 91 2e 36
        E 0 92 3e 36
        E 240 81 30 00
        E 0 82 33 00
        E 0 81 2e 00
        E 0 91 2d 36
        E 0 91 2e 36
        E 0 92 35 36
        E 240 80 2b 00
        E 0 81 2e 00
        E 0 82 35 00
        E 0 90 29 36
        E 0 91 30 36
        E 0 92 34 36
        E 240 82 3e 00
        E 0 81 2d 00
        E 0 80 29 00
        E 0 81 30 00
        E 0 82 34 00
        E 0 90 31 3b
        E 0 91 33 3b
        E 0 91 3b 3b
        E 0 92 44 3b
        E 0 92 58 3b
        E 1275 80 31 00
        E 0 81 33 00
        E 0 90 33 3b
        E 0 91 36 3b
        E 638 81 3b 00
        E 0 81 36 00
        E 0 91 3b 3b
        E 0 91 42 3b
        E 637 82 44 00
        E 0 82 58 00
        E 0 81 3b 00
        E 0 91 3a 3b
        E 0 92 47 3b
        E 0 92 55 3b
        E 637 81 3a 00
        E 0 82 55 00
        E 0 91 38 3b
        E 0 92 52 3b
        E 512 80 33 00
        E 0 81 42 00
        E 0 82 47 00
        E 0 81 38 00
        E 0 82 52 00
        E 0 90 2f 3b
        E 0 91 33 3b
        E 0 91 3a 3b
        E 0 92 44 3b
        E 0 92 5a 3b
        E 1280 80 2f 00
        E 0 81 3a 00
        E 0 82 44 00
        E 0 90 31 3b
        E 0 91 3b 3b
        E 0 92 46 3b
        E 640 82 5a 00
        E 0 82 46 00
        E 0 92 52 3b
        E 0 92 66 3b
        E 640 81 33 00
        E 0 81 3b 00
        E 0 82 52 00
        E 0 91 35 3b
        E 0 91 3a 3b
        E 0 92 50 3b
        E 640 82 66 00
        E 0 81 35 00
        E 0 82 50 00
        E 0 91 33 3b
        E 0 92 4e 3b
        E 0 92 65 3b
        E 514 80 31 00
        E 0 81 3a 00
        E 0 81 33 00
        E 0 82 4e 00
        E 0 82 65 00
        E 0 90 29 3b
        E 0 91 31 3b
        E 0 91 33 3b
        E 0 92 46 3b
        E 0 92 66 3b
        E 1285 80 29 00
        E 0 81 31 00
        E 0 81 33 00
        E 0 82 46 00
        E 0 82 66 00
        E 0 90 2c 3b
        E 0 91 2e 3b
        E 0 91 31 3b
        E 0 92 36 3b
        E 0 92 59 3b
        E 515 82 36 00
        E 0 82 59 00
        E 0 92 42 3b
        E 0 92 4d 3b
        E 514 80 2c 00
        E 0 81 2e 00
        E 0 81 31 00
        E 0 82 42 00
        E 0 82 4d 00
        E 0 90 2a 3b
        E 0 91 2c 3b
        E 0 91 2e 3b
        E 0 92 31 3b
        E 0 92 65 3b
        E 1028 80 2a 00
        E 0 81 2c 00
        E 0 81 2e 00
        E 0 82 31 00
        E 0 82 65 00
        E 0 90 2e 3b
        E 0 91 31 3b
        E 0 91 38 3b
        E 0 92 41 3b
        E 0 92 5a 3b
        E 514 81 38 00
        E 0 91 33 45
        E 514 81 31 00
        E 0 82 41 00
        E 0 82 5a 00
        E 0 91 30 45
        E 0 92 3e 45
        E 0 92 5b 45
        E 514 80 2e 00
        E 0 81 33 00
        E 0 81 30 00
        E 0 82 3e 00
        E 0 82 5b 00
        E 0 90 32 45
        E 0 91 33 45
        E 0 91 46 45
        E 0 92 59 45
        E 0 92 67 45
        E 514 82 59 00
        E 0 92 54 5a
        E 401 80 32 00
        E 0 81 33 00
        E 0 81 46 00
        E 0 82 54 00
        E 0 90 30 5a
        E 0 91 34 5a
        E 0 91 45 5a
        E 0 92 53 5a
        E 402 81 34 00
        E 0 81 45 00
        E 0 82 53 00
        E 0 91 32 5a
        E 0 91 3b 5a
        E 0 92 64 5a
        E 708 82 67 00
        E 0 80 30 00
        E 0 81 32 00
        E 0 81 3b 00
        E 0 82 64 00
        E 0 90 2f 5a
        E 0 91 30 5a
        E 0 91 32 5a
        E 0 92 4f 5a
        E 0 92 58 5a
        E 306 82 4f 00
        E 0 82 58 00
        E 0 92 4c 5a
        E 0 92 5b 5a
        E 307 82 4c 00
        E 0 82 5b 00
        E 0 92 43 5a
        E 0 92 64 5a
        E 306 80 2f 00
        E 0 81 30 00
        E 0 81 32 00
        E 0 90 2d 5a
        E 0 91 2f 5a
        E 0 91 30 5a
        E 245 82 43 00
        E 0 82 64 00
        E 0 80 2d 00
        E 0 81 2f 00
        E 0 81 30 00
        E 0 90 2b 5a
        E 0 91 2d 5a
        E 0 91 2f 5a
        E 0 92 30 5a
        E 0 92 40 5a
        E 859 80 2b 00
        E 0 81 2d 00
        E 0 81 2f 00
        E 0 82 30 00
        E 0 82 40 00
        E 0 90 2d 45
        E 0 91 2f 45
        E 0 91 30 45
        E 0 92 34 45
        E 0 92 4f 45
        E 374 80 2d 00
        E 0 81 2f 00
        E 0 81 30 00
        E 0 82 34 00
        E 0 82 4f 00
        E 0 90 28 45
        E 0 91 2d 45
        E 0 91 2f 45
        E 0 92 30 45
        E 0 92 5b 45
        E 374 80 28 00
        E 0 81 2d 00
        E 0 81 2f 00
        E 0 82 30 00
        E 0 82 5b 00
        E 0 90 2d 45
        E 0 91 2f 45
        E 0 91 30 45
        E 0 92 40 45
        E 0 92 43 45
        E 374 80 2d 00
        E 0 81 2f 00
        E 0 81 30 00
        E 0 90 2f 45
        E 0 91 30 45
        E 0 91 32 45
        E 374 82 40 00
        E 0 82 43 00
        E 0 92 37 45
        E 0 92 64 45
        E 374 80 2f 00
        E 0 81 30 00
        E 0 82 64 00
        E 0 90 2d 45
        E 0 91 2f 45
        E 0 92 66 45
        E 374 82 37 00
        E 0 80 2d 00
        E 0 82 66 00
        E 0 90 2b 45
        E 0 92 36 45
        E 0 92 64 45
        E 300 81 32 00
        E 0 81 2f 00
        E 0 80 2b 00
        E 0 82 36 00
        E 0 82 64 00
        E 0 90 28 45
        E 0 91 32 45
        E 0 91 37 45
        E 0 92 3b 45
        E 0 92 4e 45
        E 751 80 28 00
        E 0 81 32 00
        E 0 81 37 00
        E 0 82 3b 00
        E 0 82 4e 00
        E 0 90 2d 45
        E 0 91 2f 45
        E 0 91 32 45
        E 0 92 5a 45
        E 0 92 5b 45
        E 301 82 5a 00
        E 0 82 5b 00
        E 0 92 4e 45
        E 0 92 67 45
        E 300 82 4e 00
        E 0 82 67 00
        E 0 92 4f 45
        E 0 92 66 45
        E 601 82 4f 00
        E 0 82 66 00
        E 0 92 42 45
        E 0 92 43 45
        E 300 80 2d 00
        E 0 82 42 00
        E 0 82 43 00
        E 0 90 2b 5a
        E 0 92 40 5a
        E 0 92 42 5a
        E 301 81 32 00
        E 0 80 2b 00
        E 0 82 40 00
        E 0 82 42 00
        E 0 90 2c 5a
        E 0 91 31 5a
        E 0 92 3f 5a
        E 0 92 40 5a
        E 300 81 2f 00
        E 0 80 2c 00
        E 0 81 31 00
        E 0 82 3f 00
        E 0 82 40 00
        E 0 90 33 5a
        E 0 91 38 5a
        E 0 91 3b 5a
        E 0 92 4e 5a
        E 0 92 58 5a
        E 530 80 33 00
        E 0 81 38 00
        E 0 82 4e 00
        E 0 82 58 00
        E 0 90 2a 5a
        E 0 91 33 5a
        E 0 92 44 5a
        E 0 92 4c 5a
        E 229 80 2a 00
        E 0 81 33 00
        E 0 82 44 00
        E 0 82 4c 00
        E 0 90 33 5a
        E 0 91 36 5a
        E 0 92 40 5a
        E 0 92 44 5a
        E 229 81 36 00
        E 0 82 40 00
        E 0 82 44 00
        E 0 91 38 5a
        E 0 92 58 5a
        E 0 92 66 5a
        E 229 82 58 00
        E 0 82 66 00
        E 0 92 55 5a
        E 0 92 64 5a
        E 184 81 3b 00
        E 0 80 33 00
        E 0 81 38 00
        E 0 82 55 00
        E 0 82 64 00
        E 0 90 2f 5a
        E 0 91 31 5a
        E 0 91 33 5a
        E 0 92 34 5a
        E 0 92 5c 5a
        E 1762 80 2f 00
        E 0 82 34 00
        E 0 82 5c 00
        E 0 90 28 36
        E 0 92 38 36
        E 0 92 3b 36
        E 683 81 31 00
        E 0 81 33 00
        E 0 80 28 00
        E 0 82 38 00
        E 0 82 3b 00
        E 0 90 31 36
        E 0 91 33 36
        E 0 91 38 36
        E 0 92 3b 36
        E 0 92 64 36
        E 683 80 31 00
        E 0 81 33 00
        E 0 81 38 00
        E 0 82 3b 00
        E 0 82 64 00
        E 0 90 2c 36
        E 0 91 31 36
        E 0 91 33 36
        E 0 92 34 36
        E 0 92 3b 36
        E 683 80 2c 00
        E 0 81 31 00
        E 0 81 33 00
        E 0 82 34 00
        E 0 82 3b 00
        E 0 90 33 36
        E 0 91 36 36
        E 0 91 3b 36
        E 0 92 44 36
        E 0 92 4c 36
        E 684 81 36 00
        E 0 81 3b 00
        E 0 82 44 00
        E 0 82 4c 00
        E 0 91 3b 36
        E 0 91 40 36
        E 0 92 42 36
        E 0 92 44 36
        E 683 80 33 00
        E 0 81 3b 00
        E 0 81 40 00
        E 0 82 42 00
        E 0 82 44 00
        E 0 90 2a 36
        E 0 91 33 36
        E 0 91 3b 36
        E 0 92 44 36
        E 0 92 58 36
        E 1366 80 2a 00
        E 0 81 33 00
        E 0 81 3b 00
        E 0 82 44 00
        E 0 82 58 00
        E 0 90 33 36
        E 0 91 34 36
        E 0 91 38 36
        E 0 92 3b 36
        E 0 92 66 36
        E 683 80 33 00
        E 0 81 34 00
        E 0 81 38 00
        E 0 90 31 36
        E 0 91 33 36
        E 0 91 3a 36
        E 683 82 3b 00
        E 0 80 31 00
        E 0 81 3a 00
        E 0 90 2f 36
        E 0 91 38 36
        E 0 92 3a 36
        E 549 81 33 00
        E 0 81 38 00
        E 0 82 3a 00
        E 0 91 34 34
        E 0 91 37 34
        E 0 92 3e 34
        E 258 81 34 00
        E 0 81 37 00
        E 0 82 3e 00
        E 0 91 32 34
        E 0 91 39 34
        E 0 92 3d 34
        E 258 80 2f 00
        E 0 81 32 00
        E 0 81 39 00
        E 0 90 2d 34
        E 0 91 34 34
        E 0 91 38 34
        E 258 82 66 00
        E 0 80 2d 00
        E 0 81 34 00
        E 0 90 2f 34
        E 0 91 33 34
        E 0 92 64 34
        E 258 82 3d 00
        E 0 81 38 00
        E 0 80 2f 00
        E 0 81 33 00
        E 0 82 64 00
        E 0 90 2e 36
        E 0 91 32 36
        E 0 91 33 36
        E 0 92 3c 36
        E 0 92 43 36
        E 1372 80 2e 00
        E 0 81 32 00
        E 0 81 33 00
        E 0 82 3c 00
        E 0 82 43 00
        E 0 90 32 36
        E 0 91 33 36
        E 0 91 35 36
        E 0 92 46 36
        E 0 92 4f 36
        E 686 80 32 00
        E 0 81 33 00
        E 0 81 35 00
        E 0 82 4f 00
        E 0 90 29 36
        E 0 91 32 36
        E 0 91 33 36
        E 0 92 5b 36
        E 686 82 46 00
        E 0 80 29 00
        E 0 81 32 00
        E 0 81 33 00
        E 0 82 5b 00
        E 0 90 32 36
        E 0 91 33 36
        E 0 91 41 36
        E 0 92 43 36
        E 0 92 46 36
        E 1371 80 32 00
        E 0 81 33 00
        E 0 81 41 00
        E 0 82 43 00
        E 0 82 46 00
        E 0 90 2b 36
        E 0 91 32 36
        E 0 91 33 36
        E 0 92 46 36
        E 0 92 65 36
        E 686 80 2b 00
        E 0 81 32 00
        E 0 81 33 00
        E 0 90 2d 36
        E 0 91 30 36
        E 0 91 32 36
        E 686 82 46 00
        E 0 81 30 00
        E 0 91 2e 36
        E 0 92 43 36
        E 551 80 2d 00
        E 0 81 32 00
        E 0 81 2e 00
        E 0 82 43 00
        E 0 90 2e 34
        E 0 91 31 34
        E 0 91 33 34
        E 0 92 42 34
        E 259 81 31 00
        E 0 81 33 00
        E 0 82 42 00
        E 0 91 30 34
        E 0 91 31 34
        E 0 92 44 34
        E 259 80 2e 00
        E 0 81 31 00
        E 0 82 44 00
        E 0 90 2c 34
        E 0 91 33 34
        E 0 92 43 34
        E 259 82 65 00
        E 0 80 2c 00
        E 0 90 2e 34
        E 0 92 62 34
        E 259 81 30 00
        E 0 81 33 00
        E 0 82 43 00
        E 0 80 2e 00
        E 0 82 62 00
        E 0 90 2a 36
        E 0 91 31 36
        E 0 91 32 36
        E 0 92 39 36
        E 0 92 3b 36
        E 1378 81 31 00
        E 0 81 32 00
        E 0 82 3b 00
        E 0 91 32 36
        E 0 91 34 36
        E 0 92 3d 36
        E 688 80 2a 00
        E 0 82 39 00
        E 0 81 32 00
        E 0 81 34 00
        E 0 82 3d 00
        E 0 90 28 36
        E 0 91 31 36
        E 0 91 32 36
        E 0 92 42 36
        E 0 92 45 36
        E 689 81 31 00
        E 0 81 32 00
        E 0 82 42 00
        E 0 91 2f 36
        E 0 91 31 36
        E 0 92 44 36
        E 688 82 45 00
        E 0 81 2f 00
        E 0 82 44 00
        E 0 91 2d 36
        E 0 92 42 36
        E 0 92 44 36
        E 553 82 42 00
        E 0 82 44 00
        E 0 92 38 36
        E 0 92 42 36
        E 1383 81 2d 00
        E 0 82 38 00
        E 0 82 42 00
        E 0 91 2f 36
        E 0 92 39 36
        E 0 92 44 36
        E 691 80 28 00
        E 0 81 31 00
        E 0 81 2f 00
        E 0 90 2f 36
        E 0 91 31 36
        E 0 91 34 36
        E 692 82 39 00
        E 0 82 44 00
        E 0 81 31 00
        E 0 91 33 36
        E 0 92 38 36
        E 0 92 42 36
        E 691 81 34 00
        E 0 81 33 00
        E 0 82 42 00
        E 0 91 31 36
        E 0 91 33 36
        E 0 92 40 36
        E 555 80 2f 00
        E 0 82 38 00
        E 0 81 31 00
        E 0 81 33 00
        E 0 82 40 00
        E 0 90 31 36
        E 0 91 33 36
        E 0 91 3b 36
        E 0 92 40 36
        E 0 92 5c 36
        E 1388 80 31 00
        E 0 81 33 00
        E 0 81 3b 00
        E 0 82 40 00
        E 0 82 5c 00
        E 0 90 33 36
        E 0 91 34 36
        E 0 91 38 36
        E 0 92 3b 36
        E 0 92 42 36
        E 695 80 33 00
        E 0 81 34 00
        E 0 82 42 00
        E 0 90 28 36
        E 0 91 33 36
        E 0 92 4e 36
        E 694 80 28 00
        E 0 81 33 00
        E 0 82 4e 00
        E 0 90 33 36
        E 0 91 36 36
        E 0 92 40 36
        E 1388 81 38 00
        E 0 82 3b 00
        E 0 81 36 00
        E 0 82 40 00
        E 0 91 3b 36
        E 0 91 44 36
        E 0 92 5a 36
        E 0 92 64 36
        E 694 81 44 00
        E 0 82 64 00
        E 0 91 46 36
        E 0 92 61 36
        E 694 82 61 00
        E 0 92 5c 36
        E 558 80 33 00
        E 0 81 3b 00
        E 0 81 46 00
        E 0 82 5c 00
        E 0 90 34 34
        E 0 91 3e 34
        E 0 91 47 34
        E 0 92 5b 34
        E 262 80 34 00
        E 0 81 3e 00
        E 0 82 5b 00
        E 0 90 32 34
        E 0 91 3d 34
        E 0 92 5d 34
        E 262 81 47 00
        E 0 80 32 00
        E 0 82 5d 00
        E 0 90 34 34
        E 0 91 45 34
        E 0 92 5c 34
        E 263 82 5a 00
        E 0 80 34 00
        E 0 81 45 00
        E 0 90 33 34
        E 0 91 47 34
        E 0 92 58 34
        E 262 81 3d 00
        E 0 82 5c 00
        E 0 80 33 00
        E 0 81 47 00
        E 0 82 58 00
        E 0 90 2b 36
        E 0 91 32 36
        E 0 91 33 36
        E 0 92 3a 36
        E 0 92 48 36
        E 1394 81 32 00
        E 0 81 33 00
        E 0 82 48 00
        E 0 91 33 36
        E 0 91 35 36
        E 0 92 4a 36
        E 697 80 2b 00
        E 0 82 3a 00
        E 0 81 33 00
        E 0 81 35 00
        E 0 82 4a 00
        E 0 90 29 36
        E 0 91 2b 36
        E 0 91 32 36
        E 0 92 33 36
        E 0 92 52 36
        E 697 81 2b 00
        E 0 81 32 00
        E 0 82 33 00
        E 0 91 2d 36
        E 0 91 30 36
        E 0 92 32 36
        E 697 82 52 00
        E 0 81 30 00
        E 0 91 2e 36
        E 0 92 4f 36
        E 559 82 4f 00
        E 0 92 37 36
        E 1400 81 2d 00
        E 0 81 2e 00
        E 0 82 37 00
        E 0 91 2e 36
        E 0 91 30 36
        E 0 92 39 36
        E 699 80 29 00
        E 0 82 32 00
        E 0 81 2e 00
        E 0 81 30 00
        E 0 90 2e 36
        E 0 91 30 36
        E 0 91 32 36
        E 0 92 35 36
        E 700 82 39 00
        E 0 80 2e 00
        E 0 81 32 00
        E 0 90 2d 36
        E 0 91 34 36
        E 0 92 37 36
        E 700 82 35 00
        E 0 81 34 00
        E 0 82 37 00
        E 0 91 32 36
        E 0 92 34 36
        E 0 92 35 36
        E 562 81 30 00
        E 0 80 2d 00
        E 0 81 32 00
        E 0 82 34 00
        E 0 82 35 00
        E 0 90 30 36
        E 0 91 32 36
        E 0 91 39 36
        E 0 92 40 36
        E 0 92 4d 36
        E 1405 80 30 00
        E 0 81 32 00
        E 0 81 39 00
        E 0 82 40 00
        E 0 82 4d 00
        E 0 90 28 36
        E 0 91 2b 36
        E 0 91 2d 36
        E 0 92 30 36
        E 0 92 65 36
        E 562 80 28 00
        E 0 81 2b 00
        E 0 81 2d 00
        E 0 82 30 00
        E 0 90 2b 36
        E 0 91 2d 36
        E 0 91 30 36
        E 0 92 64 36
        E 562 82 65 00
        E 0 82 64 00
        E 0 92 34 36
        E 0 92 59 36
        E 1124 82 34 00
        E 0 82 59 00
        E 0 92 41 36
        E 0 92 58 36
        E 562 80 2b 00
        E 0 82 41 00
        E 0 90 29 3b
        E 0 92 3e 3b
        E 562 81 30 00
        E 0 82 58 00
        E 0 80 29 00
        E 0 90 2a 3b
        E 0 91 2f 3b
        E 0 92 55 3b
        E 562 81 2d 00
        E 0 82 3e 00
        E 0 80 2a 00
        E 0 81 2f 00
        E 0 82 55 00
        E 0 90 28 3b
        E 0 91 31 3b
        E 0 91 32 3b
        E 0 92 39 3b
        E 0 92 5a 3b
        E 562 80 28 00
        E 0 82 39 00
        E 0 90 2d 45
        E 0 92 3b 45
        E 439 81 31 00
        E 0 81 32 00
        E 0 80 2d 00
        E 0 82 3b 00
        E 0 90 2c 45
        E 0 91 2f 45
        E 0 91 33 45
        E 0 92 3a 45
        E 439 82 5a 00
        E 0 80 2c 00
        E 0 81 2f 00
        E 0 82 3a 00
        E 0 90 2f 45
        E 0 91 31 45
        E 0 92 36 45
        E 0 92 52 45
        E 439 80 2f 00
        E 0 81 31 00
        E 0 82 52 00
        E 0 90 2e 5a
        E 0 91 2f 5a
        E 0 92 50 5a
        E 343 82 36 00
        E 0 80 2e 00
        E 0 81 2f 00
        E 0 82 50 00
        E 0 90 2c 5a
        E 0 91 30 5a
        E 0 92 35 5a
        E 0 92 4f 5a
        E 343 80 2c 00
        E 0 82 35 00
        E 0 82 4f 00
        E 0 90 2e 5a
        E 0 92 37 5a
        E 0 92 50 5a
        E 605 81 33 00
        E 0 81 30 00
        E 0 80 2e 00
        E 0 82 37 00
        E 0 82 50 00
        E 0 90 2b 5a
        E 0 91 2c 5a
        E 0 91 30 5a
        E 0 92 33 5a
        E 0 92 3a 5a
        E 261 80 2b 00
        E 0 81 2c 00
        E 0 81 30 00
        E 0 82 33 00
        E 0 82 3a 00
        E 0 90 2c 5a
        E 0 91 30 5a
        E 0 91 33 5a
        E 0 92 3a 5a
        E 0 92 67 5a
        E 262 80 2c 00
        E 0 82 3a 00
        E 0 82 67 00
        E 0 90 2e 5a
        E 0 92 37 5a
        E 0 92 68 5a
        E 262 80 2e 00
        E 0 82 37 00
        E 0 82 68 00
        E 0 90 2c 5a
        E 0 92 35 5a
        E 0 92 67 5a
        E 209 81 30 00
        E 0 81 33 00
        E 0 80 2c 00
        E 0 82 35 00
        E 0 82 67 00
        E 0 90 33 5a
        E 0 91 38 5a
        E 0 91 3c 5a
        E 0 92 5b 5a
        E 0 92 65 5a
        E 733 81 38 00
        E 0 82 5b 00
        E 0 82 65 00
        E 0 91 37 45
        E 0 92 44 45
        E 0 92 59 45
        E 320 81 3c 00
        E 0 81 37 00
        E 0 82 59 00
        E 0 91 3c 45
        E 0 91 43 45
        E 0 92 4d 45
        E 319 80 33 00
        E 0 81 3c 00
        E 0 81 43 00
        E 0 82 4d 00
        E 0 90 2b 45
        E 0 91 33 45
        E 0 91 3c 45
        E 0 92 65 45
        E 320 80 2b 00
        E 0 82 65 00
        E 0 90 2e 45
        E 0 92 67 45
        E 319 82 44 00
        E 0 81 33 00
        E 0 81 3c 00
        E 0 82 67 00
        E 0 91 30 45
        E 0 91 33 45
        E 0 92 37 45
        E 0 92 5c 45
        E 320 81 30 00
        E 0 82 5c 00
        E 0 91 32 45
        E 0 92 59 45
        E 319 82 59 00
        E 0 92 54 45
        E 257 82 37 00
        E 0 82 54 00
        E 0 92 3c 45
        E 0 92 4f 45
        E 641 80 2e 00
        E 0 81 33 00
        E 0 81 32 00
        E 0 82 3c 00
        E 0 90 32 45
        E 0 91 33 45
        E 0 91 41 45
        E 0 92 46 45
        E 257 82 4f 00
        E 0 81 41 00
        E 0 91 35 45
        E 0 92 5b 45
        E 256 81 35 00
        E 0 82 5b 00
        E 0 91 43 45
        E 0 92 4d 45
        E 514 80 32 00
        E 0 81 33 00
        E 0 82 46 00
        E 0 81 43 00
        E 0 82 4d 00
        E 0 90 29 45
        E 0 91 32 45
        E 0 91 33 45
        E 0 92 37 45
        E 0 92 46 45
        E 256 80 29 00
        E 0 90 30 5a
        E 257 81 32 00
        E 0 81 33 00
        E 0 82 46 00
        E 0 80 30 00
        E 0 90 2f 5a
        E 0 91 30 5a
        E 0 91 34 5a
        E 0 92 45 5a
        E 256 80 2f 00
        E 0 81 30 00
        E 0 82 45 00
        E 0 90 30 5a
        E 0 91 32 5a
        E 0 92 3b 5a
        E 453 82 37 00
        E 0 81 34 00
        E 0 80 30 00
        E 0 81 32 00
        E 0 82 3b 00
        E 0 90 28 5a
        E 0 91 30 5a
        E 0 91 32 5a
        E 0 92 3b 5a
        E 0 92 5b 5a
        E 196 80 28 00
        E 0 81 30 00
        E 0 81 32 00
        E 0 82 3b 00
        E 0 82 5b 00
        E 0 90 30 5a
        E 0 91 32 5a
        E 0 91 3b 5a
        E 0 92 5b 5a
        E 0 92 64 5a
        E 195 81 3b 00
        E 0 82 5b 00
        E 0 82 64 00
        E 0 91 34 5a
        E 0 92 3b 5a
        E 0 92 4f 5a
        E 196 80 30 00
        E 0 81 32 00
        E 0 82 3b 00
        E 0 90 2f 5a
        E 0 91 30 5a
        E 0 92 39 5a
        E 157 81 34 00
        E 0 82 4f 00
        E 0 80 2f 00
        E 0 81 30 00
        E 0 90 2b 5a
        E 0 91 2f 5a
        E 0 91 30 5a
        E 0 92 58 5a
        E 922 82 39 00
        E 0 80 2b 00
        E 0 81 2f 00
        E 0 81 30 00
        E 0 82 58 00
        E 0 90 2f 3b
        E 0 91 30 3b
        E 0 91 39 3b
        E 0 92 4c 3b
        E 0 92 4f 3b
        E 373 82 4c 00
        E 0 82 4f 00
        E 0 92 40 3b
        E 0 92 5b 3b
        E 373 82 40 00
        E 0 82 5b 00
        E 0 92 43 3b
        E 0 92 58 3b
        E 374 80 2f 00
        E 0 81 39 00
        E 0 82 43 00
        E 0 82 58 00
        E 0 90 28 3b
        E 0 91 32 3b
        E 0 92 3b 3b
        E 0 92 67 3b
        E 373 81 30 00
        E 0 80 28 00
        E 0 81 32 00
        E 0 82 3b 00
        E 0 90 30 3b
        E 0 91 32 3b
        E 0 91 3b 3b
        E 0 92 64 3b
        E 374 82 67 00
        E 0 81 3b 00
        E 0 82 64 00
        E 0 91 34 3b
        E 0 92 3b 3b
        E 0 92 5b 3b
        E 746 81 34 00
        E 0 82 3b 00
        E 0 82 5b 00
        E 0 91 3b 3b
        E 0 92 43 3b
        E 0 92 58 3b
        E 374 80 30 00
        E 0 81 3b 00
        E 0 82 58 00
        E 0 90 2f 3b
        E 0 91 39 3b
        E 0 92 5a 3b
        E 373 82 43 00
        E 0 81 39 00
        E 0 82 5a 00
        E 0 91 37 3b
        E 0 92 42 3b
        E 0 92 58 3b
        E 300 80 2f 00
        E 0 81 37 00
        E 0 82 42 00
        E 0 82 58 00
        E 0 90 30 36
        E 0 91 3a 36
        E 0 92 43 36
        E 0 92 57 36
        E 141 80 30 00
        E 0 81 3a 00
        E 0 82 57 00
        E 0 90 2e 36
        E 0 91 39 36
        E 0 92 59 36
        E 141 82 43 00
        E 0 80 2e 00
        E 0 81 39 00
        E 0 82 59 00
        E 0 90 2d 36
        E 0 91 3c 36
        E 0 92 41 36
        E 0 92 58 36
        E 141 81 32 00
        E 0 81 3c 00
        E 0 82 41 00
        E 0 91 30 36
        E 0 91 3b 36
        E 0 92 43 36
        E 142 80 2d 00
        E 0 82 58 00
        E 0 81 30 00
        E 0 81 3b 00
        E 0 82 43 00
        E 0 90 2f 3b
        E 0 91 33 3b
        E 0 91 3a 3b
        E 0 92 44 3b
        E 0 92 5a 3b
        E 749 80 2f 00
        E 0 81 3a 00
        E 0 82 44 00
        E 0 90 31 3b
        E 0 91 3b 3b
        E 0 92 46 3b
        E 375 82 5a 00
        E 0 82 46 00
        E 0 92 52 3b
        E 0 92 66 3b
        E 375 81 33 00
        E 0 81 3b 00
        E 0 82 52 00
        E 0 91 35 3b
        E 0 91 3a 3b
        E 0 92 50 3b
        E 375 82 66 00
        E 0 81 35 00
        E 0 82 50 00
        E 0 91 33 3b
        E 0 92 4e 3b
        E 0 92 65 3b
        E 301 80 31 00
        E 0 81 3a 00
        E 0 81 33 00
        E 0 82 4e 00
        E 0 82 65 00
        E 0 90 29 3b
        E 0 91 31 3b
        E 0 91 33 3b
        E 0 92 46 3b
        E 0 92 66 3b
        E 753 80 29 00
        E 0 81 33 00
        E 0 90 2c 3b
        E 0 91 35 3b
        E 376 82 46 00
        E 0 82 66 00
        E 0 80 2c 00
        E 0 81 35 00
        E 0 90 2e 3b
        E 0 91 38 3b
        E 0 92 4e 3b
        E 0 92 65 3b
        E 377 80 2e 00
        E 0 81 38 00
        E 0 82 4e 00
        E 0 90 30 3b
        E 0 91 33 3b
        E 0 92 50 3b
        E 376 81 31 00
        E 0 80 30 00
        E 0 81 33 00
        E 0 90 2e 3b
        E 0 91 30 3b
        E 0 91 31 3b
        E 303 82 65 00
        E 0 82 50 00
        E 0 80 2e 00
        E 0 81 30 00
        E 0 81 31 00
        E 0 90 2c 3b
        E 0 91 2e 3b
        E 0 91 30 3b
        E 0 92 31 3b
        E 0 92 35 3b
        E 755 80 2c 00
        E 0 81 2e 00
        E 0 81 30 00
        E 0 82 31 00
        E 0 82 35 00
        E 0 90 29 3b
        E 0 91 30 3b
        E 0 91 31 3b
        E 0 92 33 3b
        E 0 92 5c 3b
        E 303 80 29 00
        E 0 81 30 00
        E 0 81 31 00
        E 0 82 33 00
        E 0 82 5c 00
        E 0 90 30 3b
        E 0 91 31 3b
        E 0 91 33 3b
        E 0 92 5c 3b
        E 0 92 65 3b
        E 302 82 5c 00
        E 0 82 65 00
        E 0 92 35 3b
        E 0 92 50 3b
        E 605 82 35 00
        E 0 82 50 00
        E 0 92 38 3b
        E 0 92 59 3b
        E 302 80 30 00
        E 0 81 31 00
        E 0 81 33 00
        E 0 90 2e 45
        E 0 91 30 45
        E 0 91 31 45
        E 302 82 38 00
        E 0 80 2e 00
        E 0 81 30 00
        E 0 81 31 00
        E 0 90 2d 45
        E 0 91 2e 45
        E 0 91 32 45
        E 0 92 37 45
        E 303 82 59 00
        E 0 81 32 00
        E 0 82 37 00
        E 0 91 30 45
        E 0 92 32 45
        E 0 92 65 45
        E 302 80 2d 00
        E 0 81 2e 00
        E 0 81 30 00
        E 0 90 2b 5a
        E 0 91 2d 5a
        E 0 91 2e 5a
        E 236 82 65 00
        E 0 80 2b 00
        E 0 81 2d 00
        E 0 81 2e 00
        E 0 90 2a 5a
        E 0 91 2b 5a
        E 0 91 2f 5a
        E 0 92 64 5a
        E 236 80 2a 00
        E 0 81 2b 00
        E 0 82 64 00
        E 0 90 2b 5a
        E 0 91 2d 5a
        E 0 92 66 5a
        E 417 82 32 00
        E 0 81 2f 00
        E 0 80 2b 00
        E 0 81 2d 00
        E 0 82 66 00
        E 0 90 2d 5a
        E 0 91 2f 5a
        E 0 91 32 5a
        E 0 92 4f 5a
        E 0 92 5a 5a
        E 180 82 4f 00
        E 0 82 5a 00
        E 0 92 4e 5a
        E 0 92 5b 5a
        E 180 82 4e 00
        E 0 82 5b 00
        E 0 92 43 5a
        E 0 92 66 5a
        E 180 80 2d 00
        E 0 82 43 00
        E 0 82 66 00
        E 0 90 2b 5a
        E 0 92 42 5a
        E 0 92 64 5a
        E 145 81 2f 00
        E 0 81 32 00
        E 0 80 2b 00
        E 0 82 64 00
        E 0 90 32 5a
        E 0 91 37 5a
        E 0 91 3b 5a
        E 0 92 4c 5a
        E 504 82 42 00
        E 0 82 4c 00
        E 0 92 40 45
        E 0 92 66 45
        E 220 80 32 00
        E 0 81 37 00
        E 0 81 3b 00
        E 0 82 40 00
        E 0 82 66 00
        E 0 90 2a 45
        E 0 91 32 45
        E 0 91 34 45
        E 0 92 3b 45
        E 0 92 43 45
        E 220 80 2a 00
        E 0 81 32 00
        E 0 81 34 00
        E 0 82 3b 00
        E 0 82 43 00
        E 0 90 32 45
        E 0 91 37 45
        E 0 91 3b 45
        E 0 92 4c 45
        E 0 92 5a 45
        E 220 81 37 00
        E 0 82 4c 00
        E 0 91 39 45
        E 0 92 4f 45
        E 220 80 32 00
        E 0 81 3b 00
        E 0 82 5a 00
        E 0 81 39 00
        E 0 82 4f 00
        E 0 90 2d 45
        E 0 91 2f 45
        E 0 91 32 45
        E 0 92 37 45
        E 0 92 66 45
        E 220 81 2f 00
        E 0 82 37 00
        E 0 82 66 00
        E 0 91 31 45
        E 0 92 36 45
        E 0 92 64 45
        E 220 82 64 00
        E 0 92 5f 45
        E 177 80 2d 00
        E 0 82 5f 00
        E 0 90 2f 45
        E 0 92 51 45
        E 442 80 2f 00
        E 0 82 51 00
        E 0 90 28 45
        E 0 92 45 45
        E 176 81 32 00
        E 0 81 31 00
        E 0 82 36 00
        E 0 80 28 00
        E 0 82 45 00
        E 0 90 31 45
        E 0 91 32 45
        E 0 91 36 45
        E 0 92 45 45
        E 0 92 64 45
        E 177 80 31 00
        E 0 81 32 00
        E 0 81 36 00
        E 0 82 45 00
        E 0 82 64 00
        E 0 90 2a 45
        E 0 91 31 45
        E 0 91 32 45
        E 0 92 34 45
        E 0 92 45 45
        E 353 80 2a 00
        E 0 81 31 00
        E 0 81 32 00
        E 0 82 34 00
        E 0 82 45 00
        E 0 90 31 45
        E 0 91 32 45
        E 0 91 39 45
        E 0 92 58 45
        E 0 92 5a 45
        E 177 80 31 00
        E 0 81 32 00
        E 0 82 58 00
        E 0 90 2f 5a
        E 0 91 31 5a
        E 0 92 56 5a
        E 177 81 39 00
        E 0 80 2f 00
        E 0 81 31 00
        E 0 82 56 00
        E 0 90 2e 5a
        E 0 91 2f 5a
        E 0 91 38 5a
        E 0 92 57 5a
        E 177 82 5a 00
        E 0 80 2e 00
        E 0 81 2f 00
        E 0 81 38 00
        E 0 82 57 00
        E 0 90 2f 5a
        E 0 91 31 5a
        E 0 91 33 5a
        E 0 92 52 5a
        E 0 92 66 5a
        E 311 80 2f 00
        E 0 81 31 00
        E 0 81 33 00
        E 0 82 52 00
        E 0 82 66 00
        E 0 90 31 5a
        E 0 91 33 5a
        E 0 91 3a 5a
        E 0 92 3b 5a
        E 0 92 5a 5a
        E 135 81 3a 00
        E 0 82 3b 00
        E 0 82 5a 00
        E 0 91 3b 5a
        E 0 92 46 5a
        E 0 92 4e 5a
        E 135 80 31 00
        E 0 81 33 00
        E 0 81 3b 00
        E 0 82 46 00
        E 0 82 4e 00
        E 0 90 2e 5a
        E 0 91 31 5a
        E 0 91 33 5a
        E 0 92 3b 5a
        E 0 92 66 5a
        E 134 81 31 00
        E 0 82 3b 00
        E 0 91 2f 5a
        E 0 92 38 5a
        E 108 82 66 00
        E 0 82 38 00
        E 0 92 36 5a
        E 0 92 5c 5a
        E 1664 80 2e 00
        E 0 82 36 00
        E 0 82 5c 00
        E 0 90 2a 34
        E 0 92 38 34
        E 0 92 3a 34
        E 628 81 33 00
        E 0 81 2f 00
        E 0 80 2a 00
        E 0 82 38 00
        E 0 82 3a 00
        E 0 90 2f 34
        E 0 91 33 34
        E 0 91 38 34
        E 0 92 3a 34
        E 0 92 66 34
        E 628 80 2f 00
        E 0 81 33 00
        E 0 81 38 00
        E 0 82 3a 00
        E 0 82 66 00
        E 0 90 2c 34
        E 0 91 2f 34
        E 0 91 33 34
        E 0 92 36 34
        E 0 92 3a 34
        E 628 80 2c 00
        E 0 81 2f 00
        E 0 81 33 00
        E 0 82 36 00
        E 0 82 3a 00
        E 0 90 31 34
        E 0 91 33 34
        E 0 91 3b 34
        E 0 92 46 34
        E 0 92 5a 34
        E 627 82 46 00
        E 0 82 5a 00
        E 0 92 4e 34
        E 0 92 52 34
        E 628 81 3b 00
        E 0 82 4e 00
        E 0 82 52 00
        E 0 91 3a 34
        E 0 92 3b 34
        E 0 92 66 34
        E 1255 80 31 00
        E 0 81 33 00
        E 0 81 3a 00
        E 0 82 66 00
        E 0 90 2e 34
        E 0 91 31 34
        E 0 91 33 34
        E 0 92 42 34
        E 628 82 3b 00
        E 0 81 33 00
        E 0 91 35 34
        E 0 92 38 34
        E 628 82 42 00
        E 0 81 35 00
        E 0 82 38 00
        E 0 91 33 34
        E 0 92 36 34
        E 0 92 41 34
        E 504 80 2e 00
        E 0 81 33 00
        E 0 82 36 00
        E 0 82 41 00
        E 0 90 2f 33
        E 0 91 32 33
        E 0 92 39 33
        E 0 92 42 33
        E 237 80 2f 00
        E 0 81 32 00
        E 0 82 39 00
        E 0 90 2d 33
        E 0 91 34 33
        E 0 92 38 33
        E 238 82 42 00
        E 0 80 2d 00
        E 0 82 38 00
        E 0 90 2c 33
        E 0 92 3b 33
        E 0 92 3f 33
        E 237 81 31 00
        E 0 81 34 00
        E 0 82 3b 00
        E 0 91 2f 33
        E 0 91 36 33
        E 0 92 3a 33
        E 237 80 2c 00
        E 0 82 3f 00
        E 0 81 2f 00
        E 0 81 36 00
        E 0 82 3a 00
        E 0 90 2b 34
        E 0 91 2e 34
        E 0 91 32 34
        E 0 92 39 34
        E 0 92 41 34
        E 1261 80 2b 00
        E 0 81 2e 00
        E 0 81 32 00
        E 0 82 39 00
        E 0 82 41 00
        E 0 90 30 34
        E 0 91 32 34
        E 0 91 3a 34
        E 0 92 41 34
        E 0 92 51 34
        E 630 81 3a 00
        E 0 82 41 00
        E 0 82 51 00
        E 0 91 35 34
        E 0 92 3a 34
        E 0 92 5d 34
        E 630 81 35 00
        E 0 82 3a 00
        E 0 82 5d 00
        E 0 91 3a 34
        E 0 92 45 34
        E 0 92 4d 34
        E 1261 80 30 00
        E 0 81 32 00
        E 0 81 3a 00
        E 0 82 45 00
        E 0 82 4d 00
        E 0 90 29 34
        E 0 91 30 34
        E 0 91 32 34
        E 0 92 39 34
        E 0 92 3a 34
        E 630 80 29 00
        E 0 81 32 00
        E 0 82 39 00
        E 0 82 3a 00
        E 0 90 28 34
        E 0 91 35 34
        E 0 92 37 34
        E 0 92 39 34
        E 630 81 35 00
        E 0 82 37 00
        E 0 91 32 34
        E 0 92 35 34
        E 506 80 28 00
        E 0 82 39 00
        E 0 81 32 00
        E 0 90 2c 33
        E 0 91 31 33
        E 0 92 3a 33
        E 238 81 31 00
        E 0 82 3a 00
        E 0 91 33 33
        E 0 92 37 33
        E 239 81 30 00
        E 0 82 35 00
        E 0 80 2c 00
        E 0 82 37 00
        E 0 90 30 33
        E 0 91 32 33
        E 0 92 37 33
        E 0 92 3a 33
        E 238 81 33 00
        E 0 80 30 00
        E 0 82 3a 00
        E 0 90 2e 33
        E 0 91 35 33
        E 0 92 39 33
        E 238 81 32 00
        E 0 82 37 00
        E 0 80 2e 00
        E 0 81 35 00
        E 0 82 39 00
        E 0 90 28 34
        E 0 91 2d 34
        E 0 91 31 34
        E 0 92 38 34
        E 0 92 42 34
        E 1266 81 2d 00
        E 0 82 38 00
        E 0 82 42 00
        E 0 91 2f 34
        E 0 92 39 34
        E 0 92 68 34
        E 632 80 28 00
        E 0 81 31 00
        E 0 81 2f 00
        E 0 82 39 00
        E 0 82 68 00
        E 0 90 2c 34
        E 0 91 2d 34
        E 0 91 2f 34
        E 0 92 31 34
        E 0 92 64 34
        E 633 80 2c 00
        E 0 81 2d 00
        E 0 81 2f 00
        E 0 82 31 00
        E 0 82 64 00
        E 0 90 2f 34
        E 0 91 31 34
        E 0 91 34 34
        E 0 92 39 34
        E 0 92 5c 34
        E 1266 81 34 00
        E 0 82 39 00
        E 0 82 5c 00
        E 0 91 39 34
        E 0 92 44 34
        E 0 92 58 34
        E 632 81 31 00
        E 0 81 39 00
        E 0 82 44 00
        E 0 91 33 34
        E 0 91 38 34
        E 0 92 42 34
        E 633 82 42 00
        E 0 92 3d 34
        E 508 81 33 00
        E 0 81 38 00
        E 0 82 3d 00
        E 0 91 37 33
        E 0 91 39 33
        E 0 92 3c 33
        E 240 81 37 00
        E 0 81 39 00
        E 0 82 3c 00
        E 0 91 36 33
        E 0 91 37 33
        E 0 92 3e 33
        E 239 82 58 00
        E 0 81 36 00
        E 0 81 37 00
        E 0 82 3e 00
        E 0 91 32 33
        E 0 91 39 33
        E 0 92 3d 33
        E 0 92 5a 33
        E 239 80 2f 00
        E 0 81 32 00
        E 0 81 39 00
        E 0 90 2d 33
        E 0 91 34 33
        E 0 91 38 33
        E 239 82 3d 00
        E 0 82 5a 00
        E 0 80 2d 00
        E 0 81 34 00
        E 0 81 38 00
        E 0 90 33 34
        E 0 91 3c 34
        E 0 91 44 34
        E 0 92 5b 34
        E 0 92 65 34
        E 1271 81 44 00
        E 0 82 5b 00
        E 0 82 65 00
        E 0 91 46 34
        E 0 92 5c 34
        E 0 92 67 34
        E 635 80 33 00
        E 0 81 3c 00
        E 0 81 46 00
        E 0 82 5c 00
        E 0 82 67 00
        E 0 90 30 34
        E 0 91 33 34
        E 0 91 3a 34
        E 0 92 50 34
        E 0 92 5b 34
        E 635 80 30 00
        E 0 81 3a 00
        E 0 82 50 00
        E 0 82 5b 00
        E 0 90 32 34
        E 0 91 37 34
        E 0 92 52 34
        E 0 92 59 34
        E 636 82 59 00
        E 0 92 54 34
        E 510 81 33 00
        E 0 80 32 00
        E 0 81 37 00
        E 0 82 52 00
        E 0 82 54 00
        E 0 90 2b 34
        E 0 91 32 34
        E 0 91 33 34
        E 0 92 3a 34
        E 0 92 48 34
        E 1276 81 32 00
        E 0 81 33 00
        E 0 82 48 00
        E 0 91 33 34
        E 0 91 35 34
        E 0 92 4a 34
        E 638 80 2b 00
        E 0 82 3a 00
        E 0 81 33 00
        E 0 81 35 00
        E 0 82 4a 00
        E 0 90 29 34
        E 0 91 2b 34
        E 0 91 32 34
        E 0 92 33 34
        E 0 92 52 34
        E 637 81 2b 00
        E 0 81 32 00
        E 0 82 33 00
        E 0 91 2d 34
        E 0 91 30 34
        E 0 92 32 34
        E 638 82 52 00
        E 0 81 30 00
        E 0 91 2e 34
        E 0 92 4f 34
        E 513 82 4f 00
        E 0 92 37 34
        E 1280 81 2d 00
        E 0 81 2e 00
        E 0 82 37 00
        E 0 91 2e 34
        E 0 91 30 34
        E 0 92 5d 34
        E 641 80 29 00
        E 0 82 32 00
        E 0 81 2e 00
        E 0 81 30 00
        E 0 82 5d 00
        E 0 90 2e 34
        E 0 91 30 34
        E 0 91 32 34
        E 0 92 5d 34
        E 0 92 65 34
        E 640 82 5d 00
        E 0 82 65 00
        E 0 92 35 34
        E 0 92 51 34
        E 1281 82 35 00
        E 0 82 51 00
        E 0 92 39 34
        E 0 92 59 34
        E 641 80 2e 00
        E 0 81 32 00
        E 0 82 39 00
        E 0 90 2d 34
        E 0 91 34 34
        E 0 92 37 34
        E 640 82 59 00
        E 0 81 34 00
        E 0 82 37 00
        E 0 91 32 34
        E 0 92 35 34
        E 0 92 58 34
        E 514 80 2d 00
        E 0 81 32 00
        E 0 82 35 00
        E 0 82 58 00
        E 0 90 2e 33
        E 0 91 31 33
        E 0 92 38 33
        E 0 92 59 33
        E 242 80 2e 00
        E 0 81 31 00
        E 0 82 38 00
        E 0 90 2c 33
        E 0 91 33 33
        E 0 92 37 33
        E 242 82 59 00
        E 0 80 2c 00
        E 0 82 37 00
        E 0 90 2b 33
        E 0 92 3a 33
        E 0 92 56 33
        E 243 81 30 00
        E 0 81 33 00
        E 0 82 3a 00
        E 0 91 2e 33
        E 0 91 35 33
        E 0 92 39 33
        E 242 80 2b 00
        E 0 82 56 00
        E 0 81 2e 00
        E 0 81 35 00
        E 0 82 39 00
        E 0 90 2c 34
        E 0 91 2d 34
        E 0 91 31 34
        E 0 92 42 34
        E 0 92 58 34
        E 1286 80 2c 00
        E 0 81 2d 00
        E 0 82 42 00
        E 0 90 2d 34
        E 0 91 2f 34
        E 0 92 44 34
        E 643 82 58 00
        E 0 92 64 34
        E 643 81 31 00
        E 0 80 2d 00
        E 0 82 44 00
        E 0 90 2c 34
        E 0 91 33 34
        E 0 92 42 34
        E 643 81 33 00
        E 0 82 42 00
        E 0 91 31 34
        E 0 92 3f 34
        E 516 82 64 00
        E 0 80 2c 00
        E 0 82 3f 00
        E 0 90 28 34
        E 0 92 33 34
        E 0 92 68 34
        E 1291 81 31 00
        E 0 80 28 00
        E 0 82 33 00
        E 0 90 2a 34
        E 0 91 33 34
        E 0 92 34 34
        E 646 81 2f 00
        E 0 82 68 00
        E 0 80 2a 00
        E 0 81 33 00
        E 0 82 34 00
        E 0 90 28 34
        E 0 91 33 34
        E 0 91 38 34
        E 0 92 3b 34
        E 0 92 66 34
        E 645 80 28 00
        E 0 81 38 00
        E 0 82 66 00
        E 0 90 2a 34
        E 0 91 3a 34
        E 0 92 61 34
        E 646 81 3a 00
        E 0 82 61 00
        E 0 91 38 34
        E 0 92 5e 34
        E 518 81 33 00
        E 0 82 3b 00
        E 0 81 38 00
        E 0 82 5e 00
        E 0 91 2e 34
        E 0 91 2f 34
        E 0 92 33 34
        E 0 92 68 34
        E 1297 81 2e 00
        E 0 81 2f 00
        E 0 82 33 00
        E 0 82 68 00
        E 0 91 31 34
        E 0 91 33 34
        E 0 92 3b 34
        E 0 92 52 34
        E 648 80 2a 00
        E 0 81 31 00
        E 0 81 33 00
        E 0 82 3b 00
        E 0 82 52 00
        E 0 90 31 34
        E 0 91 33 34
        E 0 91 3b 34
        E 0 92 52 34
        E 0 92 66 34
        E 648 81 3b 00
        E 0 82 52 00
        E 0 82 66 00
        E 0 91 36 34
        E 0 92 3b 34
        E 0 92 46 34
        E 1296 80 31 00
        E 0 81 33 00
        E 0 81 36 00
        E 0 82 46 00
        E 0 90 2e 34
        E 0 91 31 34
        E 0 91 33 34
        E 0 92 5a 34
        E 649 82 3b 00
        E 0 81 33 00
        E 0 91 35 34
        E 0 92 38 34
        E 648 82 5a 00
        E 0 81 35 00
        E 0 82 38 00
        E 0 91 33 34
        E 0 92 36 34
        E 0 92 59 34
        E 520 80 2e 00
        E 0 81 33 00
        E 0 82 36 00
        E 0 82 59 00
        E 0 90 2f 33
        E 0 91 32 33
        E 0 92 39 33
        E 0 92 5a 33
        E 245 80 2f 00
        E 0 81 32 00
        E 0 82 39 00
        E 0 90 2d 33
        E 0 91 34 33
        E 0 92 38 33
        E 245 82 5a 00
        E 0 80 2d 00
        E 0 82 38 00
        E 0 90 2c 33
        E 0 92 3b 33
        E 0 92 57 33
        E 245 81 31 00
        E 0 81 34 00
        E 0 82 3b 00
        E 0 91 2f 33
        E 0 91 36 33
        E 0 92 3a 33
        E 245 80 2c 00
        E 0 82 57 00
        E 0 81 2f 00
        E 0 81 36 00
        E 0 82 3a 00
        E 0 90 2b 34
        E 0 91 2e 34
        E 0 91 32 34
        E 0 92 39 34
        E 0 92 59 34
        E 1302 80 2b 00
        E 0 81 2e 00
        E 0 81 32 00
        E 0 82 39 00
        E 0 90 30 34
        E 0 91 32 34
        E 0 91 3a 34
        E 0 92 51 34
        E 651 82 59 00
        E 0 82 51 00
        E 0 92 4d 34
        E 0 92 5d 34
        E 650 82 4d 00
        E 0 82 5d 00
        E 0 92 45 34
        E 0 92 65 34
        E 1302 81 3a 00
        E 0 82 45 00
        E 0 82 65 00
        E 0 91 39 34
        E 0 92 3a 34
        E 0 92 41 34
        E 651 81 32 00
        E 0 81 39 00
        E 0 82 3a 00
        E 0 91 34 34
        E 0 91 37 34
        E 0 92 39 34
        E 650 82 41 00
        E 0 81 34 00
        E 0 81 37 00
        E 0 91 32 34
        E 0 91 35 34
        E 0 92 40 34
        E 523 82 39 00
        E 0 81 32 00
        E 0 82 40 00
        E 0 91 31 33
        E 0 92 3a 33
        E 0 92 44 33
        E 246 81 31 00
        E 0 82 3a 00
        E 0 82 44 00
        E 0 91 33 33
        E 0 92 38 33
        E 0 92 43 33
        E 246 81 35 00
        E 0 81 33 00
        E 0 82 38 00
        E 0 91 32 33
        E 0 91 33 33
        E 0 92 3a 33
        E 246 80 30 00
        E 0 81 33 00
        E 0 82 3a 00
        E 0 90 2e 33
        E 0 91 35 33
        E 0 92 39 33
        E 246 82 43 00
        E 0 81 32 00
        E 0 80 2e 00
        E 0 81 35 00
        E 0 82 39 00
        E 0 90 2d 34
        E 0 91 31 34
        E 0 91 38 34
        E 0 92 40 34
        E 0 92 42 34
        E 1307 80 2d 00
        E 0 81 38 00
        E 0 82 42 00
        E 0 90 2f 34
        E 0 91 39 34
        E 0 92 44 34
        E 653 82 40 00
        E 0 82 44 00
        E 0 92 44 34
        E 0 92 4c 34
        E 654 81 31 00
        E 0 81 39 00
        E 0 82 44 00
        E 0 91 33 34
        E 0 91 38 34
        E 0 92 42 34
        E 653 82 42 00
        E 0 92 3d 34
        E 525 80 2f 00
        E 0 82 4c 00
        E 0 81 38 00
        E 0 82 3d 00
        E 0 90 31 34
        E 0 91 3b 34
        E 0 92 58 34
        E 0 92 5c 34
        E 1312 81 33 00
        E 0 80 31 00
        E 0 90 33 34
        E 0 91 36 34
        E 656 81 3b 00
        E 0 82 5c 00
        E 0 81 36 00
        E 0 91 3b 34
        E 0 91 44 34
        E 0 92 5a 34
        E 656 82 58 00
        E 0 81 44 00
        E 0 91 46 34
        E 0 92 55 34
        E 656 82 55 00
        E 0 92 50 34
        E 527 80 33 00
        E 0 81 3b 00
        E 0 82 5a 00
        E 0 81 46 00
        E 0 82 50 00
        E 0 90 2f 34
        E 0 91 33 34
        E 0 91 3a 34
        E 0 92 5a 34
        E 0 92 5c 34
        E 1317 81 33 00
        E 0 81 3a 00
        E 0 82 5a 00
        E 0 82 5c 00
        E 0 91 31 34
        E 0 91 33 34
        E 0 92 46 34
        E 0 92 5a 34
        E 659 82 46 00
        E 0 82 5a 00
        E 0 92 4e 34
        E 0 92 52 34
        E 658 82 4e 00
        E 0 82 52 00
        E 0 92 3a 34
        E 0 92 66 34
        E 1318 80 2f 00
        E 0 81 31 00
        E 0 81 33 00
        E 0 82 3a 00
        E 0 82 66 00
        E 0 90 2e 34
        E 0 91 2f 34
        E 0 91 31 34
        E 0 92 33 34
        E 0 92 42 34
        E 658 80 2e 00
        E 0 81 2f 00
        E 0 82 33 00
        E 0 90 2c 34
        E 0 91 2e 34
        E 0 92 35 34
        E 659 82 42 00
        E 0 80 2c 00
        E 0 82 35 00
        E 0 90 2a 34
        E 0 92 33 34
        E 0 92 41 34
        E 529 81 2e 00
        E 0 80 2a 00
        E 0 82 33 00
        E 0 82 41 00
        E 0 90 2d 33
        E 0 91 2f 33
        E 0 92 32 33
        E 0 92 42 33
        E 249 80 2d 00
        E 0 81 2f 00
        E 0 82 32 00
        E 0 90 2c 33
        E 0 91 2d 33
        E 0 92 34 33
        E 249 82 42 00
        E 0 81 2d 00
        E 0 82 34 00
        E 0 91 2f 33
        E 0 92 33 33
        E 0 92 40 33
        E 249 81 31 00
        E 0 81 2f 00
        E 0 82 33 00
        E 0 82 40 00
        E 0 91 2e 33
        E 0 91 2f 33
        E 0 92 36 33
        E 0 92 3f 33
        E 249 80 2c 00
        E 0 81 2f 00
        E 0 82 36 00
        E 0 82 3f 00
        E 0 90 2d 34
        E 0 91 32 34
        E 0 92 37 34
        E 0 92 41 34
        E 1322 81 2e 00
        E 0 80 2d 00
        E 0 82 37 00
        E 0 90 2e 34
        E 0 91 30 34
        E 0 92 39 34
        E 662 82 41 00
        E 0 92 4d 34
        E 661 81 32 00
        E 0 80 2e 00
        E 0 82 39 00
        E 0 90 2d 34
        E 0 91 34 34
        E 0 92 37 34
        E 661 82 4d 00
        E 0 81 34 00
        E 0 82 37 00
        E 0 91 32 34
        E 0 92 35 34
        E 0 92 4c 34
        E 531 81 30 00
        E 0 80 2d 00
        E 0 81 32 00
        E 0 82 35 00
        E 0 82 4c 00
        E 0 90 30 34
        E 0 91 32 34
        E 0 91 39 34
        E 0 92 4d 34
        E 0 92 58 34
        E 1328 81 32 00
        E 0 91 37 34
        E 664 80 30 00
        E 0 81 39 00
        E 0 82 4d 00
        E 0 82 58 00
        E 0 81 37 00
        E 0 90 2b 34
        E 0 91 2d 34
        E 0 91 30 34
        E 0 92 41 34
        E 0 92 4c 34
        E 664 81 2d 00
        E 0 82 41 00
        E 0 91 2f 34
        E 0 92 3e 34
        E 664 82 3e 00
        E 0 92 39 34
        E 533 80 2b 00
        E 0 82 4c 00
        E 0 82 39 00
        E 0 90 2d 34
        E 0 92 4f 34
        E 0 92 64 34
        E 1334 81 30 00
        E 0 81 2f 00
        E 0 80 2d 00
        E 0 82 4f 00
        E 0 82 64 00
        E 0 90 30 34
        E 0 91 32 34
        E 0 91 37 34
        E 0 92 3b 34
        E 0 92 58 34
        E 533 81 37 00
        E 0 82 3b 00
        E 0 82 58 00
        E 0 91 3b 34
        E 0 92 43 34
        E 0 92 4c 34
        E 533 80 30 00
        E 0 81 32 00
        E 0 81 3b 00
        E 0 82 43 00
        E 0 82 4c 00
        E 0 90 2b 34
        E 0 91 30 34
        E 0 91 32 34
        E 0 92 3b 34
        E 0 92 64 34
        E 1067 80 2b 00
        E 0 82 3b 00
        E 0 82 64 00
        E 0 90 2f 34
        E 0 92 40 34
        E 0 92 67 34
        E 533 81 30 00
        E 0 81 32 00
        E 0 80 2f 00
        E 0 90 2d 36
        E 0 91 2f 36
        E 0 91 30 36
        E 533 82 67 00
        E 0 80 2d 00
        E 0 81 2f 00
        E 0 81 30 00
        E 0 90 2c 36
        E 0 91 2d 36
        E 0 91 31 36
        E 0 92 66 36
        E 534 82 40 00
        E 0 80 2c 00
        E 0 81 2d 00
        E 0 82 66 00
        E 0 90 2d 36
        E 0 91 2f 36
        E 0 92 4c 36
        E 0 92 5c 36
        E 533 80 2d 00
        E 0 81 2f 00
        E 0 82 5c 00
        E 0 90 2c 3b
        E 0 91 2d 3b
        E 0 92 5a 3b
        E 416 82 4c 00
        E 0 80 2c 00
        E 0 81 2d 00
        E 0 82 5a 00
        E 0 90 2a 3b
        E 0 91 2e 3b
        E 0 92 4b 3b
        E 0 92 59 3b
        E 417 80 2a 00
        E 0 82 4b 00
        E 0 82 59 00
        E 0 90 2c 3b
        E 0 92 4d 3b
        E 0 92 5a 3b
        E 417 80 2c 00
        E 0 82 4d 00
        E 0 82 5a 00
        E 0 90 2a 45
        E 0 92 4b 45
        E 0 92 59 45
        E 325 81 31 00
        E 0 80 2a 00
        E 0 82 59 00
        E 0 90 2b 45
        E 0 91 30 45
        E 0 92 56 45
        E 326 81 2e 00
        E 0 82 4b 00
        E 0 80 2b 00
        E 0 81 30 00
        E 0 82 56 00
        E 0 90 32 45
        E 0 91 33 45
        E 0 91 3a 45
        E 0 92 65 45
        E 0 92 67 45
        E 325 80 32 00
        E 0 81 33 00
        E 0 82 65 00
        E 0 90 30 5a
        E 0 91 32 5a
        E 0 92 63 5a
        E 254 81 3a 00
        E 0 80 30 00
        E 0 81 32 00
        E 0 82 63 00
        E 0 90 2f 5a
        E 0 91 30 5a
        E 0 91 39 5a
        E 0 92 64 5a
        E 255 82 67 00
        E 0 80 2f 00
        E 0 81 30 00
        E 0 81 39 00
        E 0 82 64 00
        E 0 90 28 5a
        E 0 91 2b 5a
        E 0 91 30 5a
        E 0 92 32 5a
        E 0 92 3b 5a
        E 448 80 28 00
        E 0 81 2b 00
        E 0 81 30 00
        E 0 82 32 00
        E 0 82 3b 00
        E 0 90 30 5a
        E 0 91 32 5a
        E 0 91 3b 5a
        E 0 92 43 5a
        E 0 92 64 5a
        E 194 82 43 00
        E 0 82 64 00
        E 0 92 4f 5a
        E 0 92 58 5a
        E 194 80 30 00
        E 0 81 32 00
        E 0 81 3b 00
        E 0 82 4f 00
        E 0 82 58 00
        E 0 90 28 5a
        E 0 91 30 5a
        E 0 91 32 5a
        E 0 92 3b 5a
        E 0 92 43 5a
        E 194 81 30 00
        E 0 81 32 00
        E 0 82 3b 00
        E 0 91 2f 5a
        E 0 91 30 5a
        E 0 92 39 5a
        E 155 80 28 00
        E 0 82 43 00
        E 0 82 39 00
        E 0 90 2d 5a
        E 0 92 4c 5a
        E 0 92 67 5a
        E 544 81 2f 00
        E 0 81 30 00
        E 0 80 2d 00
        E 0 82 4c 00
        E 0 82 67 00
        E 0 90 2f 45
        E 0 91 30 45
        E 0 91 39 45
        E 0 92 40 45
        E 0 92 43 45
        E 237 81 39 00
        E 0 82 40 00
        E 0 82 43 00
        E 0 91 34 45
        E 0 92 39 45
        E 0 92 4f 45
        E 237 81 34 00
        E 0 82 4f 00
        E 0 91 37 45
        E 0 92 4c 45
        E 236 80 2f 00
        E 0 81 30 00
        E 0 82 39 00
        E 0 90 30 45
        E 0 91 32 45
        E 0 92 3b 45
        E 237 81 37 00
        E 0 82 4c 00
        E 0 80 30 00
        E 0 81 32 00
        E 0 82 3b 00
        E 0 90 28 45
        E 0 91 30 45
        E 0 91 32 45
        E 0 92 37 45
        E 0 92 3b 45
        E 237 80 28 00
        E 0 81 30 00
        E 0 82 3b 00
        E 0 90 2a 45
        E 0 91 2f 45
        E 0 92 39 45
        E 237 82 37 00
        E 0 82 39 00
        E 0 92 34 45
        E 0 92 37 45
        E 190 81 32 00
        E 0 80 2a 00
        E 0 81 2f 00
        E 0 82 34 00
        E 0 82 37 00
        E 0 90 32 45
        E 0 91 34 45
        E 0 91 3b 45
        E 0 92 42 45
        E 0 92 43 45
        E 476 80 32 00
        E 0 81 34 00
        E 0 81 3b 00
        E 0 82 42 00
        E 0 82 43 00
        E 0 90 2f 45
        E 0 91 32 45
        E 0 91 39 45
        E 0 92 4f 45
        E 0 92 66 45
        E 190 82 4f 00
        E 0 82 66 00
        E 0 92 5a 45
        E 0 92 5b 45
        E 190 80 2f 00
        E 0 81 32 00
        E 0 81 39 00
        E 0 82 5a 00
        E 0 82 5b 00
        E 0 90 2a 45
        E 0 91 2f 45
        E 0 91 32 45
        E 0 92 39 45
        E 0 92 4f 45
        E 381 80 2a 00
        E 0 81 2f 00
        E 0 81 32 00
        E 0 82 4f 00
        E 0 90 2f 45
        E 0 91 32 45
        E 0 91 37 45
        E 0 92 4e 45
        E 190 82 39 00
        E 0 81 37 00
        E 0 82 4e 00
        E 0 91 36 5a
        E 0 92 37 5a
        E 0 92 4c 5a
        E 190 81 32 00
        E 0 81 36 00
        E 0 82 37 00
        E 0 91 31 5a
        E 0 91 33 5a
        E 0 92 38 5a
        E 190 80 2f 00
        E 0 82 4c 00
        E 0 81 31 00
        E 0 81 33 00
        E 0 82 38 00
        E 0 90 33 5a
        E 0 91 3b 5a
        E 0 91 42 5a
        E 0 92 44 5a
        E 0 92 64 5a
        E 336 81 42 00
        E 0 82 44 00
        E 0 82 64 00
        E 0 91 44 5a
        E 0 92 58 5a
        E 0 92 66 5a
        E 145 81 3b 00
        E 0 81 44 00
        E 0 82 58 00
        E 0 82 66 00
        E 0 91 36 5a
        E 0 91 38 5a
        E 0 92 3b 5a
        E 0 92 4c 5a
        E 145 81 36 00
        E 0 81 38 00
        E 0 82 3b 00
        E 0 82 4c 00
        E 0 91 3b 5a
        E 0 91 44 5a
        E 0 92 5a 5a
        E 0 92 64 5a
        E 145 82 5a 00
        E 0 92 55 5a
        E 116 80 33 00
        E 0 81 3b 00
        E 0 81 44 00
        E 0 82 64 00
        E 0 82 55 00
        E 0 90 31 5a
        E 0 91 33 5a
        E 0 91 3b 5a
        E 0 92 40 5a
        E 0 92 50 5a
        E 683 80 31 00
        E 0 81 33 00
        E 0 81 3b 00
        E 0 82 40 00
        E 0 82 50 00
        E 0 90 2f 3b
        E 0 91 31 3b
        E 0 91 33 3b
        E 0 92 34 3b
        E 0 92 38 3b
        E 277 80 2f 00
        E 0 81 31 00
        E 0 81 33 00
        E 0 82 34 00
        E 0 82 38 00
        E 0 90 28 3b
        E 0 91 2f 3b
        E 0 91 31 3b
        E 0 92 33 3b
        E 0 92 44 3b
        E 277 80 28 00
        E 0 81 2f 00
        E 0 81 31 00
        E 0 82 33 00
        E 0 82 44 00
        E 0 90 31 3b
        E 0 91 33 3b
        E 0 91 3b 3b
        E 0 92 40 3b
        E 0 92 68 3b
        E 277 80 31 00
        E 0 81 33 00
        E 0 81 3b 00
        E 0 82 40 00
        E 0 82 68 00
        E 0 90 33 3b
        E 0 91 36 3b
        E 0 91 38 3b
        E 0 92 3b 3b
        E 0 92 58 3b
        E 277 81 36 00
        E 0 81 38 00
        E 0 82 3b 00
        E 0 82 58 00
        E 0 91 38 3b
        E 0 91 3b 3b
        E 0 92 42 3b
        E 0 92 4c 3b
        E 277 81 38 00
        E 0 81 3b 00
        E 0 82 42 00
        E 0 82 4c 00
        E 0 91 3b 3b
        E 0 91 44 3b
        E 0 92 64 3b
        E 0 92 66 3b
        E 553 81 44 00
        E 0 82 64 00
        E 0 82 66 00
        E 0 91 40 3b
        E 0 92 44 3b
        E 0 92 5a 3b
        E 277 81 40 00
        E 0 82 44 00
        E 0 91 3d 3b
        E 0 92 46 3b
        E 277 81 3b 00
        E 0 81 3d 00
        E 0 82 46 00
        E 0 91 3a 3b
        E 0 91 3b 3b
        E 0 92 44 3b
        E 222 80 33 00
        E 0 82 5a 00
        E 0 81 3a 00
        E 0 82 44 00
        E 0 90 32 36
        E 0 91 37 36
        E 0 92 42 36
        E 0 92 58 36
        E 105 81 37 00
        E 0 82 42 00
        E 0 82 58 00
        E 0 91 36 36
        E 0 92 45 36
        E 0 92 55 36
        E 104 81 3b 00
        E 0 80 32 00
        E 0 82 45 00
        E 0 90 34 36
        E 0 91 39 36
        E 0 92 44 36
        E 105 81 36 00
        E 0 80 34 00
        E 0 81 39 00
        E 0 90 33 36
        E 0 91 34 36
        E 0 91 3b 36
        E 105 82 55 00
        E 0 82 44 00
        E 0 80 33 00
        E 0 81 34 00
        E 0 81 3b 00
        E 0 90 2e 3b
        E 0 91 32 3b
        E 0 91 33 3b
        E 0 92 48 3b
        E 0 92 4f 3b
        E 555 82 48 00
        E 0 92 4d 3b
        E 278 80 2e 00
        E 0 81 32 00
        E 0 81 33 00
        E 0 82 4f 00
        E 0 90 32 3b
        E 0 91 33 3b
        E 0 91 46 3b
        E 0 92 67 3b
        E 278 82 4d 00
        E 0 80 32 00
        E 0 81 33 00
        E 0 82 67 00
        E 0 90 30 3b
        E 0 91 32 3b
        E 0 92 51 3b
        E 0 92 65 3b
        E 278 81 46 00
        E 0 80 30 00
        E 0 82 51 00
        E 0 90 2e 3b
        E 0 91 45 3b
        E 0 92 4f 3b
        E 223 81 32 00
        E 0 82 65 00
        E 0 80 2e 00
        E 0 81 45 00
        E 0 82 4f 00
        E 0 90 2b 3b
        E 0 91 2d 3b
        E 0 91 2e 3b
        E 0 92 32 3b
        E 0 92 4d 3b
        E 559 80 2b 00
        E 0 81 2d 00
        E 0 81 2e 00
        E 0 90 2d 3b
        E 0 91 2e 3b
        E 0 91 30 3b
        E 279 82 4d 00
        E 0 92 59 3b
        E 279 82 32 00
        E 0 80 2d 00
        E 0 81 2e 00
        E 0 90 2b 3b
        E 0 91 2d 3b
        E 0 92 34 3b
        E 279 82 59 00
        E 0 80 2b 00
        E 0 82 34 00
        E 0 90 29 3b
        E 0 92 32 3b
        E 0 92 58 3b
        E 224 81 30 00
        E 0 81 2d 00
        E 0 80 29 00
        E 0 82 32 00
        E 0 82 58 00
        E 0 90 30 3b
        E 0 91 32 3b
        E 0 91 39 3b
        E 0 92 41 3b
        E 0 92 64 3b
        E 560 80 30 00
        E 0 81 32 00
        E 0 81 39 00
        E 0 82 41 00
        E 0 82 64 00
        E 0 90 2b 3b
        E 0 91 2d 3b
        E 0 91 30 3b
        E 0 92 4c 3b
        E 0 92 59 3b
        E 224 82 4c 00
        E 0 82 59 00
        E 0 92 40 3b
        E 0 92 65 3b
        E 224 82 40 00
        E 0 82 65 00
        E 0 92 4d 3b
        E 0 92 58 3b
        E 449 82 4d 00
        E 0 82 58 00
        E 0 92 34 3b
        E 0 92 41 3b
        E 224 80 2b 00
        E 0 82 34 00
        E 0 82 41 00
        E 0 90 29 45
        E 0 92 32 45
        E 0 92 40 45
        E 224 81 30 00
        E 0 80 29 00
        E 0 82 40 00
        E 0 90 2a 45
        E 0 91 2f 45
        E 0 92 3d 45
        E 224 81 2d 00
        E 0 82 32 00
        E 0 80 2a 00
        E 0 81 2f 00
        E 0 82 3d 00
        E 0 90 31 45
        E 0 91 32 45
        E 0 91 39 45
        E 0 92 4c 45
        E 0 92 4e 45
        E 224 80 31 00
        E 0 81 32 00
        E 0 82 4c 00
        E 0 90 2f 5a
        E 0 91 31 5a
        E 0 92 4a 5a
        E 175 81 39 00
        E 0 80 2f 00
        E 0 81 31 00
        E 0 82 4a 00
        E 0 90 2e 5a
        E 0 91 2f 5a
        E 0 91 38 5a
        E 0 92 4b 5a
        E 175 82 4e 00
        E 0 80 2e 00
        E 0 81 2f 00
        E 0 81 38 00
        E 0 82 4b 00
        E 0 90 2f 5a
        E 0 91 31 5a
        E 0 91 33 5a
        E 0 92 46 5a
        E 0 92 5a 5a
        E 309 80 2f 00
        E 0 82 46 00
        E 0 82 5a 00
        E 0 90 2e 5a
        E 0 92 3b 5a
        E 0 92 4e 5a
        E 134 81 31 00
        E 0 81 33 00
        E 0 80 2e 00
        E 0 82 4e 00
        E 0 90 31 5a
        E 0 91 33 5a
        E 0 91 3a 5a
        E 0 92 42 5a
        E 133 82 3b 00
        E 0 80 31 00
        E 0 81 33 00
        E 0 81 3a 00
        E 0 82 42 00
        E 0 90 2f 5a
        E 0 91 31 5a
        E 0 91 33 5a
        E 0 92 5a 5a
        E 0 92 5e 5a
        E 134 80 2f 00
        E 0 81 31 00
        E 0 82 5e 00
        E 0 90 2e 5a
        E 0 91 2f 5a
        E 0 92 5c 5a
        E 107 81 33 00
        E 0 82 5a 00
        E 0 80 2e 00
        E 0 81 2f 00
        E 0 82 5c 00
        E 0 90 2a 5a
        E 0 91 2e 5a
        E 0 91 2f 5a
        E 0 92 33 5a
        E 0 92 50 5a
        E 374 80 2a 00
        E 0 81 2e 00
        E 0 81 2f 00
        E 0 82 33 00
        E 0 82 50 00
        E 0 90 2e 45
        E 0 91 2f 45
        E 0 91 33 45
        E 0 92 66 45
        E 0 92 68 45
        E 163 80 2e 00
        E 0 82 66 00
        E 0 82 68 00
        E 0 90 2c 45
        E 0 92 3a 45
        E 0 92 5a 45
        E 163 81 2f 00
        E 0 81 33 00
        E 0 80 2c 00
        E 0 82 3a 00
        E 0 82 5a 00
        E 0 90 2a 45
        E 0 91 2e 45
        E 0 91 2f 45
        E 0 92 33 45
        E 0 92 68 45
        E 163 82 68 00
        E 0 92 61 45
        E 163 80 2a 00
        E 0 81 2e 00
        E 0 81 2f 00
        E 0 82 33 00
        E 0 82 61 00
        E 0 90 2f 45
        E 0 91 31 45
        E 0 91 33 45
        E 0 92 52 45
        E 0 92 5a 45
        E 163 80 2f 00
        E 0 81 33 00
        E 0 82 52 00
        E 0 90 2e 45
        E 0 91 35 45
        E 0 92 50 45
        E 163 82 5a 00
        E 0 81 35 00
        E 0 82 50 00
        E 0 91 33 45
        E 0 92 4e 45
        E 0 92 59 45
        E 131 81 31 00
        E 0 80 2e 00
        E 0 81 33 00
        E 0 82 4e 00
        E 0 82 59 00
        E 0 90 31 45
        E 0 91 33 45
        E 0 91 3a 45
        E 0 92 65 45
        E 0 92 66 45
        E 328 80 31 00
        E 0 81 33 00
        E 0 81 3a 00
        E 0 82 65 00
        E 0 82 66 00
        E 0 90 2e 45
        E 0 91 31 45
        E 0 91 36 45
        E 0 92 38 45
        E 0 92 4d 45
        E 131 81 36 00
        E 0 82 38 00
        E 0 82 4d 00
        E 0 91 38 45
        E 0 92 41 45
        E 0 92 42 45
        E 131 80 2e 00
        E 0 81 31 00
        E 0 81 38 00
        E 0 82 41 00
        E 0 82 42 00
        E 0 90 2a 45
        E 0 91 2e 45
        E 0 91 31 45
        E 0 92 38 45
        E 0 92 59 45
        E 262 80 2a 00
        E 0 82 38 00
        E 0 82 59 00
        E 0 90 2c 45
        E 0 92 35 45
        E 0 92 66 45
        E 131 80 2c 00
        E 0 82 35 00
        E 0 82 66 00
        E 0 90 2a 5a
        E 0 92 33 5a
        E 0 92 65 5a
        E 131 81 31 00
        E 0 80 2a 00
        E 0 82 65 00
        E 0 90 2b 5a
        E 0 91 30 5a
        E 0 92 62 5a
        E 131 81 2e 00
        E 0 82 33 00
        E 0 81 30 00
        E 0 82 62 00
        E 0 91 32 5a
        E 0 91 33 5a
        E 0 92 46 5a
        E 0 92 4d 5a
        E 231 80 2b 00
        E 0 81 32 00
        E 0 81 33 00
        E 0 82 4d 00
        E 0 90 32 5a
        E 0 91 33 5a
        E 0 91 41 5a
        E 0 92 4f 5a
        E 100 81 41 00
        E 0 82 4f 00
        E 0 91 35 5a
        E 0 92 5b 5a
        E 99 81 35 00
        E 0 82 5b 00
        E 0 91 43 5a
        E 0 92 4d 5a
        E 100 82 4d 00
        E 0 92 48 5a
        E 80 82 46 00
        E 0 80 32 00
        E 0 81 33 00
        E 0 81 43 00
        E 0 82 48 00
        E 0 90 2b 5a
        E 0 91 32 5a
        E 0 91 33 5a
        E 0 92 3a 5a
        E 0 92 3c 5a
        E 769 80 2b 00
        E 0 81 32 00
        E 0 81 33 00
        E 0 82 3a 00
        E 0 82 3c 00
        E 0 90 32 36
        E 0 91 33 36
        E 0 91 3c 36
        E 0 92 52 36
        E 0 92 67 36
        E 298 82 52 00
        E 0 82 67 00
        E 0 92 5b 36
        E 0 92 5e 36
        E 297 80 32 00
        E 0 81 33 00
        E 0 81 3c 00
        E 0 82 5b 00
        E 0 82 5e 00
        E 0 90 2b 36
        E 0 91 32 36
        E 0 91 33 36
        E 0 92 3c 36
        E 0 92 52 36
        E 298 80 2b 00
        E 0 81 32 00
        E 0 81 33 00
        E 0 82 3c 00
        E 0 82 52 00
        E 0 90 32 36
        E 0 91 33 36
        E 0 91 41 36
        E 0 92 46 36
        E 0 92 5b 36
        E 298 81 41 00
        E 0 82 5b 00
        E 0 91 35 36
        E 0 92 67 36
        E 298 82 46 00
        E 0 81 35 00
        E 0 82 67 00
        E 0 91 46 36
        E 0 92 4d 36
        E 0 92 4f 36
        E 596 80 32 00
        E 0 81 33 00
        E 0 81 46 00
        E 0 82 4d 00
        E 0 82 4f 00
        E 0 90 29 36
        E 0 91 32 36
        E 0 91 33 36
        E 0 92 43 36
        E 0 92 46 36
        E 297 81 32 00
        E 0 81 33 00
        E 0 82 43 00
        E 0 91 30 36
        E 0 91 32 36
        E 0 92 45 36
        E 298 82 46 00
        E 0 81 30 00
        E 0 82 45 00
        E 0 91 2e 36
        E 0 92 43 36
        E 0 92 45 36
        E 239 81 32 00
        E 0 81 2e 00
        E 0 82 43 00
        E 0 82 45 00
        E 0 91 31 34
        E 0 91 33 34
        E 0 92 42 34
        E 0 92 46 34
        E 113 81 31 00
        E 0 81 33 00
        E 0 82 42 00
        E 0 91 30 34
        E 0 91 31 34
        E 0 92 44 34
        E 113 80 29 00
        E 0 82 46 00
        E 0 81 31 00
        E 0 82 44 00
        E 0 90 2b 34
        E 0 91 33 34
        E 0 92 41 34
        E 0 92 44 34
        E 112 82 41 00
        E 0 82 44 00
        E 0 92 3e 34
        E 0 92 46 34
        E 113 81 30 00
        E 0 80 2b 00
        E 0 81 33 00
        E 0 82 3e 00
        E 0 82 46 00
        E 0 90 31 36
        E 0 91 32 36
        E 0 91 36 36
        E 0 92 3b 36
        E 0 92 45 36
        E 598 80 31 00
        E 0 81 32 00
        E 0 81 36 00
        E 0 82 3b 00
        E 0 82 45 00
        E 0 90 28 36
        E 0 91 2a 36
        E 0 91 31 36
        E 0 92 32 36
        E 0 92 51 36
        E 299 80 28 00
        E 0 81 2a 00
        E 0 81 31 00
        E 0 82 32 00
        E 0 82 51 00
        E 0 90 31 36
        E 0 91 32 36
        E 0 91 36 36
        E 0 92 39 36
        E 0 92 64 36
        E 299 81 36 00
        E 0 82 39 00
        E 0 82 64 00
        E 0 91 34 36
        E 0 92 45 36
        E 0 92 66 36
        E 598 81 34 00
        E 0 82 45 00
        E 0 82 66 00
        E 0 91 45 36
        E 0 92 4e 36
        E 0 92 58 36
        E 299 80 31 00
        E 0 81 32 00
        E 0 82 4e 00
        E 0 90 2f 36
        E 0 91 31 36
        E 0 92 50 36
        E 299 81 45 00
        E 0 80 2f 00
        E 0 82 50 00
        E 0 90 2d 36
        E 0 91 44 36
        E 0 92 4e 36
        E 240 81 31 00
        E 0 80 2d 00
        E 0 81 44 00
        E 0 82 4e 00
        E 0 90 30 34
        E 0 91 32 34
        E 0 91 45 34
        E 0 92 4d 34
        E 113 80 30 00
        E 0 81 32 00
        E 0 82 4d 00
        E 0 90 2f 34
        E 0 91 30 34
        E 0 92 4f 34
        E 113 81 45 00
        E 0 81 30 00
        E 0 82 4f 00
        E 0 91 32 34
        E 0 91 43 34
        E 0 92 4e 34
        E 113 82 58 00
        E 0 81 43 00
        E 0 91 45 34
        E 0 92 55 34
        E 113 80 2f 00
        E 0 81 32 00
        E 0 82 4e 00
        E 0 81 45 00
        E 0 82 55 00
        E 0 90 30 36
        E 0 91 31 36
        E 0 91 3a 36
        E 0 92 50 36
        E 0 92 65 36
        E 601 80 30 00
        E 0 81 31 00
        E 0 81 3a 00
        E 0 90 31 36
        E 0 91 33 36
        E 0 91 3c 36
        E 300 82 50 00
        E 0 92 5c 36
        E 300 82 65 00
        E 0 80 31 00
        E 0 81 3c 00
        E 0 90 30 36
        E 0 91 3a 36
        E 0 92 67 36
        E 300 82 5c 00
        E 0 81 3a 00
        E 0 82 67 00
        E 0 91 38 36
        E 0 92 5b 36
        E 0 92 65 36
        E 241 81 33 00
        E 0 80 30 00
        E 0 81 38 00
        E 0 82 5b 00
        E 0 82 65 00
        E 0 90 29 36
        E 0 91 2b 36
        E 0 91 33 36
        E 0 92 3c 36
        E 0 92 50 36
        E 603 80 29 00
        E 0 81 2b 00
        E 0 90 2b 36
        E 0 91 2e 36
        E 302 81 33 00
        E 0 82 3c 00
        E 0 82 50 00
        E 0 80 2b 00
        E 0 81 2e 00
        E 0 90 30 36
        E 0 91 33 36
        E 0 91 3a 36
        E 0 92 5c 36
        E 0 92 67 36
        E 301 80 30 00
        E 0 81 3a 00
        E 0 82 5c 00
        E 0 82 67 00
        E 0 90 32 36
        E 0 91 37 36
        E 0 92 5e 36
        E 0 92 65 36
        E 301 82 65 00
        E 0 92 60 36
        E 243 81 33 00
        E 0 80 32 00
        E 0 81 37 00
        E 0 82 5e 00
        E 0 82 60 00
        E 0 90 30 36
        E 0 91 32 36
        E 0 91 33 36
        E 0 92 37 36
        E 0 92 3a 36
        E 605 80 30 00
        E 0 82 37 00
        E 0 82 3a 00
        E 0 90 29 36
        E 0 92 3a 36
        E 0 92 67 36
        E 302 81 32 00
        E 0 81 33 00
        E 0 80 29 00
        E 0 82 3a 00
        E 0 90 32 36
        E 0 91 33 36
        E 0 91 3a 36
        E 0 92 65 36
        E 303 82 67 00
        E 0 81 3a 00
        E 0 82 65 00
        E 0 91 35 36
        E 0 92 3a 36
        E 0 92 5b 36
        E 605 81 35 00
        E 0 82 3a 00
        E 0 82 5b 00
        E 0 91 3a 36
        E 0 92 43 36
        E 0 92 59 36
        E 303 80 32 00
        E 0 81 33 00
        E 0 82 43 00
        E 0 90 30 36
        E 0 91 32 36
        E 0 92 45 36
        E 303 81 3a 00
        E 0 80 30 00
        E 0 82 45 00
        E 0 90 2e 36
        E 0 91 39 36
        E 0 92 43 36
        E 243 81 32 00
        E 0 81 39 00
        E 0 82 43 00
        E 0 91 33 34
        E 0 91 3d 34
        E 0 92 42 34
        E 114 81 33 00
        E 0 81 3d 00
        E 0 82 42 00
        E 0 91 31 34
        E 0 91 3c 34
        E 0 92 44 34
        E 114 80 2e 00
        E 0 81 31 00
        E 0 82 44 00
        E 0 90 2c 34
        E 0 91 33 34
        E 0 92 43 34
        E 115 82 59 00
        E 0 80 2c 00
        E 0 82 43 00
        E 0 90 2b 34
        E 0 92 46 34
        E 0 92 56 34
        E 114 81 3c 00
        E 0 81 33 00
        E 0 80 2b 00
        E 0 82 46 00
        E 0 82 56 00
        E 0 90 2f 36
        E 0 91 31 36
        E 0 91 32 36
        E 0 92 45 36
        E 0 92 66 36
        E 608 80 2f 00
        E 0 81 31 00
        E 0 81 32 00
        E 0 90 31 36
        E 0 91 32 36
        E 0 91 34 36
        E 304 82 45 00
        E 0 82 66 00
        E 0 81 34 00
        E 0 91 39 36
        E 0 92 4e 36
        E 0 92 64 36
        E 304 80 31 00
        E 0 81 32 00
        E 0 82 4e 00
        E 0 90 2f 36
        E 0 91 31 36
        E 0 92 50 36
        E 303 81 39 00
        E 0 80 2f 00
        E 0 82 50 00
        E 0 90 2d 36
        E 0 91 38 36
        E 0 92 4e 36
        E 245 81 31 00
        E 0 80 2d 00
        E 0 81 38 00
        E 0 90 2c 36
        E 0 91 2d 36
        E 0 91 31 36
        E 610 82 4e 00
        E 0 80 2c 00
        E 0 81 2d 00
        E 0 90 2d 36
        E 0 91 2f 36
        E 0 92 50 36
        E 305 82 64 00
        E 0 81 31 00
        E 0 80 2d 00
        E 0 81 2f 00
        E 0 82 50 00
        E 0 90 28 36
        E 0 91 2d 36
        E 0 91 2f 36
        E 0 92 31 36
        E 0 92 5c 36
        E 305 80 28 00
        E 0 81 2d 00
        E 0 82 31 00
        E 0 82 5c 00
        E 0 90 2a 36
        E 0 91 2c 36
        E 0 92 33 36
        E 0 92 58 36
        E 305 80 2a 00
        E 0 82 33 00
        E 0 82 58 00
        E 0 90 28 36
        E 0 92 31 36
        E 0 92 57 36
        E 245 81 2f 00
        E 0 81 2c 00
        E 0 80 28 00
        E 0 82 31 00
        E 0 82 57 00
        E 0 90 2c 36
        E 0 91 31 36
        E 0 91 33 36
        E 0 92 34 36
        E 0 92 3b 36
        E 613 80 2c 00
        E 0 81 31 00
        E 0 81 33 00
        E 0 82 34 00
        E 0 82 3b 00
        E 0 90 28 36
        E 0 91 33 36
        E 0 91 3b 36
        E 0 92 44 36
        E 0 92 4e 36
        E 245 80 28 00
        E 0 81 33 00
        E 0 81 3b 00
        E 0 82 44 00
        E 0 82 4e 00
        E 0 90 33 36
        E 0 91 3b 36
        E 0 91 44 36
        E 0 92 4e 36
        E 0 92 64 36
        E 245 81 3b 00
        E 0 81 44 00
        E 0 82 4e 00
        E 0 82 64 00
        E 0 91 34 36
        E 0 91 3b 36
        E 0 92 42 36
        E 0 92 44 36
        E 490 80 33 00
        E 0 81 34 00
        E 0 82 42 00
        E 0 82 44 00
        E 0 90 2a 36
        E 0 91 33 36
        E 0 92 44 36
        E 0 92 58 36
        E 245 80 2a 00
        E 0 82 58 00
        E 0 90 28 3b
        E 0 92 55 3b
        E 245 81 3b 00
        E 0 81 33 00
        E 0 80 28 00
        E 0 82 55 00
        E 0 90 29 3b
        E 0 91 31 3b
        E 0 91 3a 3b
        E 0 92 54 3b
        E 245 82 44 00
        E 0 80 29 00
        E 0 81 3a 00
        E 0 82 54 00
        E 0 90 2c 3b
        E 0 91 33 3b
        E 0 92 3c 3b
        E 0 92 65 3b
        E 245 81 31 00
        E 0 81 33 00
        E 0 82 3c 00
        E 0 91 30 45
        E 0 91 31 45
        E 0 92 3a 45
        E 191 80 2c 00
        E 0 81 30 00
        E 0 81 31 00
        E 0 82 3a 00
        E 0 90 2b 45
        E 0 91 2e 45
        E 0 91 32 45
        E 0 92 39 45
        E 192 82 65 00
        E 0 80 2b 00
        E 0 81 2e 00
        E 0 81 32 00
        E 0 82 39 00
        E 0 90 29 45
        E 0 91 2d 45
        E 0 91 30 45
        E 0 92 32 45
        E 0 92 3a 45
        E 191 81 30 00
        E 0 82 3a 00
        E 0 91 2e 5a
        E 0 92 37 5a
        E 150 80 29 00
        E 0 81 2d 00
        E 0 81 2e 00
        E 0 82 37 00
        E 0 90 28 5a
        E 0 91 2b 5a
        E 0 91 2f 5a
        E 0 92 36 5a
        E 149 80 28 00
        E 0 82 36 00
        E 0 90 2a 5a
        E 0 92 39 5a
        E 264 82 32 00
        E 0 81 2b 00
        E 0 81 2f 00
        E 0 80 2a 00
        E 0 82 39 00
        E 0 90 2f 5a
        E 0 91 32 5a
        E 0 91 39 5a
        E 0 92 43 5a
        E 0 92 66 5a
        E 114 82 43 00
        E 0 82 66 00
        E 0 92 4f 5a
        E 0 92 5a 5a
        E 114 80 2f 00
        E 0 81 32 00
        E 0 81 39 00
        E 0 82 4f 00
        E 0 82 5a 00
        E 0 90 2a 5a
        E 0 91 2f 5a
        E 0 91 32 5a
        E 0 92 39 5a
        E 0 92 43 5a
        E 114 82 39 00
        E 0 82 43 00
        E 0 92 37 5a
        E 0 92 40 5a
        E 91 80 2a 00
        E 0 81 2f 00
        E 0 81 32 00
        E 0 82 37 00
        E 0 82 40 00
        E 0 90 32 5a
        E 0 91 36 5a
        E 0 91 3b 5a
        E 0 92 43 5a
        E 0 92 58 5a
        E 320 81 36 00
        E 0 81 3b 00
        E 0 82 43 00
        E 0 82 58 00
        E 0 91 3b 45
        E 0 91 43 45
        E 0 92 4c 45
        E 0 92 5a 45
        E 139 81 43 00
        E 0 82 4c 00
        E 0 82 5a 00
        E 0 91 40 45
        E 0 92 43 45
        E 0 92 66 45
        E 140 81 40 00
        E 0 82 43 00
        E 0 82 66 00
        E 0 91 43 45
        E 0 92 4e 45
        E 0 92 58 45
        E 139 81 43 00
        E 0 82 4e 00
        E 0 82 58 00
        E 0 91 45 45
        E 0 92 4f 45
        E 0 92 5a 45
        E 139 80 32 00
        E 0 81 3b 00
        E 0 81 45 00
        E 0 82 4f 00
        E 0 82 5a 00
        E 0 90 2a 45
        E 0 91 2f 45
        E 0 91 32 45
        E 0 92 37 45
        E 0 92 39 45
        E 140 81 2f 00
        E 0 82 37 00
        E 0 82 39 00
        E 0 91 2d 45
        E 0 92 34 45
        E 0 92 3d 45
        E 139 81 32 00
        E 0 82 34 00
        E 0 82 3d 00
        E 0 91 31 45
        E 0 92 32 45
        E 0 92 3b 45
        E 112 80 2a 00
        E 0 81 2d 00
        E 0 81 31 00
        E 0 82 32 00
        E 0 82 3b 00
        E 0 90 31 45
        E 0 91 32 45
        E 0 91 3b 45
        E 0 92 42 45
        E 0 92 45 45
        E 279 81 3b 00
        E 0 82 42 00
        E 0 82 45 00
        E 0 91 34 45
        E 0 92 36 45
        E 0 92 39 45
        E 112 80 31 00
        E 0 81 32 00
        E 0 81 34 00
        E 0 82 36 00
        E 0 82 39 00
        E 0 90 28 45
        E 0 91 31 45
        E 0 91 32 45
        E 0 92 39 45
        E 0 92 42 45
        E 112 80 28 00
        E 0 81 31 00
        E 0 81 32 00
        E 0 82 39 00
        E 0 82 42 00
        E 0 90 31 45
        E 0 91 32 45
        E 0 91 40 45
        E 0 92 45 45
        E 0 92 66 45
        E 224 81 40 00
        E 0 82 45 00
        E 0 82 66 00
        E 0 91 45 45
        E 0 92 4e 45
        E 0 92 64 45
        E 112 82 64 00
        E 0 92 5f 5a
        E 112 80 31 00
        E 0 81 32 00
        E 0 81 45 00
        E 0 82 5f 00
        E 0 90 2f 5a
        E 0 91 33 5a
        E 0 91 44 5a
        E 0 92 5e 5a
        E 112 82 4e 00
        E 0 80 2f 00
        E 0 81 33 00
        E 0 81 44 00
        E 0 90 2a 5a
        E 0 91 31 5a
        E 0 91 33 5a
        E 0 92 3b 5a
        E 197 82 5e 00
        E 0 80 2a 00
        E 0 81 31 00
        E 0 81 33 00
        E 0 82 3b 00
        E 0 90 2e 5a
        E 0 91 2f 5a
        E 0 91 31 5a
        E 0 92 33 5a
        E 0 92 66 5a
        E 85 80 2e 00
        E 0 81 2f 00
        E 0 81 31 00
        E 0 82 33 00
        E 0 82 66 00
        E 0 90 2f 5a
        E 0 91 31 5a
        E 0 91 33 5a
        E 0 92 3a 5a
        E 0 92 5a 5a
        E 86 80 2f 00
        E 0 82 5a 00
        E 0 90 2a 5a
        E 0 92 47 5a
        E 85 81 31 00
        E 0 82 3a 00
        E 0 82 47 00
        E 0 91 2f 5a
        E 0 92 38 5a
        E 0 92 46 5a
        E 68 81 33 00
        E 0 80 2a 00
        E 0 81 2f 00
        E 0 82 38 00
        E 0 82 46 00
        E 0 90 2f 5a
        E 0 91 33 5a
        E 0 91 3a 5a
        E 0 92 42 5a
        E 0 92 50 5a
        E 402 80 2f 00
        E 0 81 33 00
        E 0 81 3a 00
        E 0 82 42 00
        E 0 82 50 00
        E 0 90 2e 3b
        E 0 91 2f 3b
        E 0 91 33 3b
        E 0 92 36 3b
        E 0 92 38 3b
        E 163 80 2e 00
        E 0 81 2f 00
        E 0 81 33 00
        E 0 82 36 00
        E 0 82 38 00
        E 0 90 2a 3b
        E 0 91 2e 3b
        E 0 91 2f 3b
        E 0 92 33 3b
        E 0 92 44 3b
        E 163 80 2a 00
        E 0 82 44 00
        E 0 90 2c 3b
        E 0 92 42 3b
        E 163 81 2e 00
        E 0 81 2f 00
        E 0 82 33 00
        E 0 80 2c 00
        E 0 82 42 00
        E 0 90 2f 3b
        E 0 91 31 3b
        E 0 91 33 3b
        E 0 92 3a 3b
        E 0 92 66 3b
        E 162 82 3a 00
        E 0 82 66 00
        E 0 92 46 3b
        E 0 92 5a 3b
        E 163 80 2f 00
        E 0 81 31 00
        E 0 81 33 00
        E 0 82 46 00
        E 0 82 5a 00
        E 0 90 2a 3b
        E 0 91 2f 3b
        E 0 91 31 3b
        E 0 92 33 3b
        E 0 92 3a 3b
        E 326 80 2a 00
        E 0 81 2f 00
        E 0 81 31 00
        E 0 82 33 00
        E 0 82 3a 00
        E 0 90 2e 3b
        E 0 91 31 3b
        E 0 91 33 3b
        E 0 92 47 3b
        E 0 92 4e 3b
        E 163 81 33 00
        E 0 82 47 00
        E 0 91 35 3b
        E 0 92 44 3b
        E 162 82 4e 00
        E 0 81 35 00
        E 0 82 44 00
        E 0 91 33 3b
        E 0 92 42 3b
        E 0 92 4d 3b
        E 131 80 2e 00
        E 0 81 33 00
        E 0 82 42 00
        E 0 82 4d 00
        E 0 90 2f 36
        E 0 91 32 36
        E 0 92 45 36
        E 0 92 4e 36
        E 62 80 2f 00
        E 0 81 32 00
        E 0 82 45 00
        E 0 90 2d 36
        E 0 91 34 36
        E 0 92 44 36
        E 61 82 4e 00
        E 0 80 2d 00
        E 0 81 34 00
        E 0 90 2f 36
        E 0 91 33 36
        E 0 92 4c 36
        E 62 81 31 00
        E 0 80 2f 00
        E 0 82 4c 00
        E 0 90 2e 36
        E 0 91 2f 36
        E 0 92 4e 36
        E 61 82 44 00
        E 0 81 33 00
        E 0 80 2e 00
        E 0 81 2f 00
        E 0 82 4e 00
        E 0 90 2b 3b
        E 0 91 2d 3b
        E 0 91 2e 3b
        E 0 92 32 3b
        E 0 92 4d 3b
        E 327 80 2b 00
        E 0 81 2d 00
        E 0 81 2e 00
        E 0 90 2d 3b
        E 0 91 2e 3b
        E 0 91 30 3b
        E 164 82 4d 00
        E 0 92 59 3b
        E 163 82 32 00
        E 0 80 2d 00
        E 0 81 2e 00
        E 0 90 2b 3b
        E 0 91 2d 3b
        E 0 92 34 3b
        E 164 82 59 00
        E 0 80 2b 00
        E 0 82 34 00
        E 0 90 29 3b
        E 0 92 32 3b
        E 0 92 58 3b
        E 131 81 30 00
        E 0 81 2d 00
        E 0 80 29 00
        E 0 82 32 00
        E 0 82 58 00
        E 0 90 30 3b
        E 0 91 32 3b
        E 0 91 39 3b
        E 0 92 41 3b
        E 0 92 64 3b
        E 328 81 32 00
        E 0 91 37 3b
        E 164 80 30 00
        E 0 81 39 00
        E 0 82 41 00
        E 0 82 64 00
        E 0 81 37 00
        E 0 90 2b 3b
        E 0 91 2d 3b
        E 0 91 30 3b
        E 0 92 35 3b
        E 0 92 58 3b
        E 164 81 2d 00
        E 0 82 35 00
        E 0 91 2f 3b
        E 0 92 32 3b
        E 164 81 30 00
        E 0 81 2f 00
        E 0 82 32 00
        E 0 91 2d 3b
        E 0 91 2f 3b
        E 0 92 30 3b
        E 132 80 2b 00
        E 0 82 58 00
        E 0 90 28 3b
        E 0 92 4f 3b
        E 330 81 2d 00
        E 0 81 2f 00
        E 0 82 30 00
        E 0 80 28 00
        E 0 82 4f 00
        E 0 90 2b 3b
        E 0 91 30 3b
        E 0 91 32 3b
        E 0 92 3b 3b
        E 0 92 64 3b
        E 132 80 2b 00
        E 0 81 30 00
        E 0 81 32 00
        E 0 82 64 00
        E 0 90 30 3b
        E 0 91 32 3b
        E 0 91 37 3b
        E 0 92 58 3b
        E 131 82 3b 00
        E 0 80 30 00
        E 0 81 32 00
        E 0 81 37 00
        E 0 82 58 00
        E 0 90 28 3b
        E 0 91 2b 3b
        E 0 91 30 3b
        E 0 92 32 3b
        E 0 92 3b 3b
        E 264 80 28 00
        E 0 81 2b 00
        E 0 81 30 00
        E 0 82 32 00
        E 0 82 3b 00
        E 0 90 2f 3b
        E 0 91 30 3b
        E 0 91 32 3b
        E 0 92 4c 3b
        E 0 92 5b 3b
        E 132 80 2f 00
        E 0 81 30 00
        E 0 81 32 00
        E 0 90 2d 45
        E 0 91 2f 45
        E 0 91 30 45
        E 132 82 5b 00
        E 0 80 2d 00
        E 0 81 2f 00
        E 0 81 30 00
        E 0 90 2c 45
        E 0 91 2d 45
        E 0 91 31 45
        E 0 92 5a 45
        E 131 82 4c 00
        E 0 80 2c 00
        E 0 81 2d 00
        E 0 82 5a 00
        E 0 90 2d 45
        E 0 91 2f 45
        E 0 92 50 45
        E 0 92 58 45
        E 132 80 2d 00
        E 0 81 2f 00
        E 0 82 50 00
        E 0 90 2c 5a
        E 0 91 2d 5a
        E 0 92 4e 5a
        E 103 82 58 00
        E 0 80 2c 00
        E 0 81 2d 00
        E 0 82 4e 00
        E 0 90 2a 5a
        E 0 91 2e 5a
        E 0 92 4d 5a
        E 0 92 57 5a
        E 103 80 2a 00
        E 0 82 4d 00
        E 0 82 57 00
        E 0 90 2c 5a
        E 0 92 4e 5a
        E 0 92 59 5a
        E 182 80 2c 00
        E 0 82 4e 00
        E 0 82 59 00
        E 0 90 2a 5a
        E 0 92 38 5a
        E 0 92 4d 5a
        E 78 81 31 00
        E 0 81 2e 00
        E 0 80 2a 00
        E 0 82 4d 00
        E 0 90 2e 5a
        E 0 91 31 5a
        E 0 91 36 5a
        E 0 92 41 5a
        E 79 82 38 00
        E 0 80 2e 00
        E 0 81 31 00
        E 0 81 36 00
        E 0 82 41 00
        E 0 90 2c 5a
        E 0 91 2e 5a
        E 0 91 31 5a
        E 0 92 59 5a
        E 0 92 66 5a
        E 79 80 2c 00
        E 0 82 59 00
        E 0 82 66 00
        E 0 90 2a 5a
        E 0 92 57 5a
        E 0 92 65 5a
        E 62 81 2e 00
        E 0 81 31 00
        E 0 80 2a 00
        E 0 82 57 00
        E 0 82 65 00
        E 0 90 31 5a
        E 0 91 33 5a
        E 0 91 3a 5a
        E 0 92 41 5a
        E 0 92 66 5a
        E 221 81 3a 00
        E 0 82 41 00
        E 0 82 66 00
        E 0 91 35 45
        E 0 92 42 45
        E 0 92 46 45
        E 95 80 31 00
        E 0 81 33 00
        E 0 81 35 00
        E 0 82 42 00
        E 0 82 46 00
        E 0 90 29 45
        E 0 91 31 45
        E 0 91 33 45
        E 0 92 46 45
        E 0 92 4e 45
        E 96 80 29 00
        E 0 81 31 00
        E 0 81 33 00
        E 0 82 46 00
        E 0 82 4e 00
        E 0 90 31 45
        E 0 91 33 45
        E 0 91 36 45
        E 0 92 41 45
        E 0 92 46 45
        E 96 81 33 00
        E 0 81 36 00
        E 0 91 36 45
        E 0 91 38 45
        E 96 80 31 00
        E 0 82 41 00
        E 0 82 46 00
        E 0 81 36 00
        E 0 81 38 00
        E 0 90 2c 45
        E 0 91 2e 45
        E 0 91 31 45
        E 0 92 59 45
        E 0 92 5a 45
        E 96 81 2e 00
        E 0 82 59 00
        E 0 82 5a 00
        E 0 91 30 45
        E 0 92 57 45
        E 0 92 59 45
        E 96 82 57 00
        E 0 92 52 45
        E 77 80 2c 00
        E 0 81 31 00
        E 0 81 30 00
        E 0 82 59 00
        E 0 82 52 00
        E 0 90 29 45
        E 0 91 2c 45
        E 0 91 30 45
        E 0 92 31 45
        E 0 92 3a 45
        E 193 80 29 00
        E 0 81 2c 00
        E 0 81 30 00
        E 0 82 31 00
        E 0 82 3a 00
        E 0 90 31 45
        E 0 91 33 45
        E 0 91 3c 45
        E 0 92 50 45
        E 0 92 65 45
        E 77 82 50 00
        E 0 82 65 00
        E 0 92 59 45
        E 0 92 5c 45
        E 77 80 31 00
        E 0 81 33 00
        E 0 81 3c 00
        E 0 82 59 00
        E 0 82 5c 00
        E 0 90 29 45
        E 0 91 31 45
        E 0 91 33 45
        E 0 92 3c 45
        E 0 92 50 45
        E 154 80 29 00
        E 0 81 31 00
        E 0 81 33 00
        E 0 82 50 00
        E 0 90 31 45
        E 0 91 33 45
        E 0 91 38 45
        E 0 92 4d 45
        E 77 82 3c 00
        E 0 80 31 00
        E 0 81 33 00
        E 0 90 30 5a
        E 0 91 31 5a
        E 0 92 3a 5a
        E 77 81 38 00
        E 0 80 30 00
        E 0 81 31 00
        E 0 82 3a 00
        E 0 90 2e 5a
        E 0 91 32 5a
        E 0 91 37 5a
        E 0 92 39 5a
        E 77 82 4d 00
        E 0 80 2e 00
        E 0 81 32 00
        E 0 81 37 00
        E 0 82 39 00
        E 0 90 2d 5a
        E 0 91 30 5a
        E 0 91 32 5a
        E 0 92 3a 5a
        E 0 92 59 5a
        E 136 80 2d 00
        E 0 81 30 00
        E 0 81 32 00
        E 0 82 3a 00
        E 0 82 59 00
        E 0 90 30 5a
        E 0 91 32 5a
        E 0 91 3a 5a
        E 0 92 4d 5a
        E 0 92 51 5a
        E 58 82 4d 00
        E 0 82 51 00
        E 0 92 41 5a
        E 0 92 5d 5a
        E 59 82 41 00
        E 0 82 5d 00
        E 0 92 45 5a
        E 0 92 59 5a
        E 59 80 30 00
        E 0 81 3a 00
        E 0 82 45 00
        E 0 90 2e 5a
        E 0 91 39 5a
        E 0 92 43 5a
        E 47 81 32 00
        E 0 82 59 00
        E 0 80 2e 00
        E 0 81 39 00
        E 0 82 43 00
        E 0 90 29 5a
        E 0 91 2e 5a
        E 0 91 32 5a
        E 0 92 37 5a
        E 0 92 39 5a
        E 2009 81 2e 00
        E 0 82 37 00
        E 0 82 39 00
        E 0 91 30 34
        E 0 92 3a 34
        E 0 92 5d 34
        E 427 80 29 00
        E 0 81 32 00
        E 0 81 30 00
        E 0 82 3a 00
        E 0 82 5d 00
        E 0 90 30 34
        E 0 91 32 34
        E 0 91 3a 34
        E 0 92 5d 34
        E 0 92 65 34
        E 428 81 3a 00
        E 0 82 5d 00
        E 0 82 65 00
        E 0 91 35 34
        E 0 92 3a 34
        E 0 92 51 34
        E 855 81 35 00
        E 0 82 51 00
        E 0 91 39 34
        E 0 92 59 34
        E 428 81 32 00
        E 0 82 3a 00
        E 0 81 39 00
        E 0 91 34 34
        E 0 91 37 34
        E 0 92 39 34
        E 427 82 59 00
        E 0 81 34 00
        E 0 81 37 00
        E 0 91 32 34
        E 0 91 35 34
        E 0 92 58 34
        E 344 82 39 00
        E 0 81 32 00
        E 0 81 35 00
        E 0 82 58 00
        E 0 91 31 33
        E 0 91 38 33
        E 0 92 3a 33
        E 0 92 59 33
        E 161 81 31 00
        E 0 81 38 00
        E 0 82 3a 00
        E 0 91 33 33
        E 0 91 37 33
        E 0 92 38 33
        E 162 82 59 00
        E 0 81 33 00
        E 0 81 37 00
        E 0 82 38 00
        E 0 91 32 33
        E 0 91 33 33
        E 0 92 3a 33
        E 0 92 5b 33
        E 162 80 30 00
        E 0 81 33 00
        E 0 82 3a 00
        E 0 90 2e 33
        E 0 91 35 33
        E 0 92 39 33
        E 161 81 32 00
        E 0 82 5b 00
        E 0 80 2e 00
        E 0 81 35 00
        E 0 82 39 00
        E 0 90 2d 34
        E 0 91 31 34
        E 0 91 38 34
        E 0 92 42 34
        E 0 92 58 34
        E 859 80 2d 00
        E 0 81 31 00
        E 0 81 38 00
        E 0 82 42 00
        E 0 90 2c 34
        E 0 91 2d 34
        E 0 91 2f 34
        E 0 92 31 34
        E 429 82 58 00
        E 0 80 2c 00
        E 0 81 2d 00
        E 0 81 2f 00
        E 0 82 31 00
        E 0 90 2d 34
        E 0 91 2f 34
        E 0 91 31 34
        E 0 92 38 34
        E 0 92 4c 34
        E 430 80 2d 00
        E 0 81 2f 00
        E 0 81 31 00
        E 0 82 38 00
        E 0 82 4c 00
        E 0 90 2f 34
        E 0 91 31 34
        E 0 91 39 34
        E 0 92 5c 34
        E 0 92 64 34
        E 859 82 5c 00
        E 0 82 64 00
        E 0 92 40 34
        E 0 92 50 34
        E 429 81 31 00
        E 0 81 39 00
        E 0 82 50 00
        E 0 91 33 34
        E 0 91 38 34
        E 0 92 4e 34
        E 429 82 40 00
        E 0 82 4e 00
        E 0 92 3d 34
        E 0 92 4c 34
        E 345 81 33 00
        E 0 81 38 00
        E 0 82 3d 00
        E 0 91 37 33
        E 0 91 39 33
        E 0 92 3c 33
        E 162 81 37 00
        E 0 81 39 00
        E 0 82 3c 00
        E 0 91 36 33
        E 0 91 37 33
        E 0 92 3e 33
        E 163 82 4c 00
        E 0 81 36 00
        E 0 81 37 00
        E 0 82 3e 00
        E 0 91 32 33
        E 0 91 39 33
        E 0 92 3d 33
        E 0 92 4e 33
        E 162 80 2f 00
        E 0 81 32 00
        E 0 81 39 00
        E 0 90 2d 33
        E 0 91 34 33
        E 0 91 38 33
        E 162 82 3d 00
        E 0 82 4e 00
        E 0 80 2d 00
        E 0 81 34 00
        E 0 81 38 00
        E 0 90 33 34
        E 0 91 3c 34
        E 0 91 44 34
        E 0 92 4d 34
        E 0 92 67 34
        E 862 80 33 00
        E 0 81 3c 00
        E 0 81 44 00
        E 0 82 4d 00
        E 0 82 67 00
        E 0 90 2e 34
        E 0 91 30 34
        E 0 91 33 34
        E 0 92 37 34
        E 0 92 44 34
        E 431 80 2e 00
        E 0 81 30 00
        E 0 81 33 00
        E 0 82 37 00
        E 0 82 44 00
        E 0 90 2b 34
        E 0 91 2e 34
        E 0 91 30 34
        E 0 92 33 34
        E 0 92 50 34
        E 432 80 2b 00
        E 0 81 2e 00
        E 0 81 30 00
        E 0 82 33 00
        E 0 82 50 00
        E 0 90 2e 34
        E 0 91 30 34
        E 0 91 33 34
        E 0 92 38 34
        E 0 92 43 34
        E 862 80 2e 00
        E 0 81 30 00
        E 0 81 33 00
        E 0 82 38 00
        E 0 82 43 00
        E 0 90 30 34
        E 0 91 33 34
        E 0 91 3a 34
        E 0 92 5c 34
        E 0 92 67 34
        E 431 80 30 00
        E 0 81 3a 00
        E 0 82 5c 00
        E 0 82 67 00
        E 0 90 32 34
        E 0 91 37 34
        E 0 92 5e 34
        E 0 92 65 34
        E 431 82 65 00
        E 0 92 60 34
        E 346 81 33 00
        E 0 80 32 00
        E 0 81 37 00
        E 0 82 60 00
        E 0 90 33 33
        E 0 91 36 33
        E 0 91 38 33
        E 0 92 5f 33
        E 163 81 36 00
        E 0 81 38 00
        E 0 82 5f 00
        E 0 91 35 33
        E 0 91 36 33
        E 0 92 61 33
        E 163 80 33 00
        E 0 81 36 00
        E 0 82 61 00
        E 0 90 31 33
        E 0 91 38 33
        E 0 92 60 33
        E 163 82 5e 00
        E 0 80 31 00
        E 0 90 33 33
        E 0 92 5b 33
        E 163 81 35 00
        E 0 81 38 00
        E 0 82 60 00
        E 0 80 33 00
        E 0 82 5b 00
        E 0 90 32 34
        E 0 91 34 34
        E 0 91 37 34
        E 0 92 3b 34
        E 0 92 42 34
        E 865 80 32 00
        E 0 81 34 00
        E 0 81 37 00
        E 0 82 3b 00
        E 0 82 42 00
        E 0 90 2d 34
        E 0 91 2f 34
        E 0 91 32 34
        E 0 92 4f 34
        E 0 92 66 34
        E 433 82 4f 00
        E 0 82 66 00
        E 0 92 5a 34
        E 0 92 5b 34
        E 433 80 2d 00
        E 0 81 2f 00
        E 0 81 32 00
        E 0 82 5a 00
        E 0 82 5b 00
        E 0 90 2a 34
        E 0 91 2d 34
        E 0 91 2f 34
        E 0 92 32 34
        E 0 92 4f 34
        E 866 80 2a 00
        E 0 81 2d 00
        E 0 81 2f 00
        E 0 82 32 00
        E 0 82 4f 00
        E 0 90 2d 34
        E 0 91 2f 34
        E 0 91 32 34
        E 0 92 37 34
        E 0 92 4e 34
        E 432 81 2f 00
        E 0 82 37 00
        E 0 82 4e 00
        E 0 91 31 34
        E 0 92 36 34
        E 0 92 4c 34
        E 433 82 4c 00
        E 0 92 47 34
        E 348 81 32 00
        E 0 81 31 00
        E 0 82 36 00
        E 0 82 47 00
        E 0 91 32 33
        E 0 91 35 33
        E 0 92 37 33
        E 0 92 46 33
        E 164 81 35 00
        E 0 82 37 00
        E 0 82 46 00
        E 0 91 34 33
        E 0 92 35 33
        E 0 92 48 33
        E 163 80 2d 00
        E 0 81 32 00
        E 0 82 35 00
        E 0 82 48 00
        E 0 90 2f 33
        E 0 91 30 33
        E 0 92 37 33
        E 0 92 45 33
        E 164 81 30 00
        E 0 82 45 00
        E 0 91 32 33
        E 0 92 42 33
        E 163 81 34 00
        E 0 80 2f 00
        E 0 82 37 00
        E 0 81 32 00
        E 0 82 42 00
        E 0 90 31 34
        E 0 91 33 34
        E 0 91 3a 34
        E 0 92 4e 34
        E 0 92 65 34
        E 869 81 33 00
        E 0 91 38 34
        E 435 80 31 00
        E 0 81 3a 00
        E 0 82 4e 00
        E 0 82 65 00
        E 0 81 38 00
        E 0 90 2c 34
        E 0 91 2e 34
        E 0 91 31 34
        E 0 92 42 34
        E 0 92 59 34
        E 435 81 2e 00
        E 0 82 42 00
        E 0 91 30 34
        E 0 92 3f 34
        E 434 82 3f 00
        E 0 92 3a 34
        E 349 80 2c 00
        E 0 81 31 00
        E 0 82 59 00
        E 0 81 30 00
        E 0 82 3a 00
        E 0 90 29 34
        E 0 91 2e 34
        E 0 91 30 34
        E 0 92 31 34
        E 0 92 5c 34
        E 873 81 2e 00
        E 0 81 30 00
        E 0 82 31 00
        E 0 91 30 34
        E 0 91 31 34
        E 0 92 33 34
        E 436 82 5c 00
        E 0 92 68 34
        E 436 80 29 00
        E 0 81 30 00
        E 0 81 31 00
        E 0 90 2b 34
        E 0 91 2e 34
        E 0 91 30 34
        E 437 82 68 00
        E 0 81 2e 00
        E 0 91 2c 34
        E 0 92 65 34
        E 350 82 33 00
        E 0 81 30 00
        E 0 81 2c 00
        E 0 82 65 00
        E 0 91 33 34
        E 0 91 35 34
        E 0 92 3c 34
        E 0 92 44 34
        E 876 80 2b 00
        E 0 81 35 00
        E 0 82 3c 00
        E 0 82 44 00
        E 0 90 30 34
        E 0 91 38 34
        E 0 92 3a 34
        E 0 92 67 34
        E 438 81 38 00
        E 0 82 3a 00
        E 0 82 67 00
        E 0 91 3a 34
        E 0 92 44 34
        E 0 92 5b 34
        E 438 81 33 00
        E 0 80 30 00
        E 0 81 3a 00
        E 0 82 44 00
        E 0 82 5b 00
        E 0 90 2b 34
        E 0 91 30 34
        E 0 91 33 34
        E 0 92 38 34
        E 0 92 3a 34
        E 876 80 2b 00
        E 0 82 38 00
        E 0 82 3a 00
        E 0 90 2e 34
        E 0 92 4f 34
        E 0 92 68 34
        E 438 81 30 00
        E 0 82 68 00
        E 0 91 32 34
        E 0 92 65 34
        E 438 82 65 00
        E 0 92 60 34
        E 352 81 33 00
        E 0 82 4f 00
        E 0 81 32 00
        E 0 82 60 00
        E 0 91 33 33
        E 0 91 36 33
        E 0 92 50 33
        E 0 92 5f 33
        E 166 82 50 00
        E 0 82 5f 00
        E 0 92 4d 33
        E 0 92 61 33
        E 165 81 33 00
        E 0 81 36 00
        E 0 82 61 00
        E 0 91 31 33
        E 0 91 38 33
        E 0 92 60 33
        E 166 80 2e 00
        E 0 81 31 00
        E 0 81 38 00
        E 0 90 2c 33
        E 0 91 33 33
        E 0 91 37 33
        E 165 82 4d 00
        E 0 82 60 00
        E 0 80 2c 00
        E 0 81 33 00
        E 0 81 37 00
        E 0 90 32 34
        E 0 91 36 34
        E 0 91 3b 34
        E 0 92 43 34
        E 0 92 64 34
        E 880 81 36 00
        E 0 82 64 00
        E 0 91 39 34
        E 0 92 66 34
        E 440 80 32 00
        E 0 81 3b 00
        E 0 82 43 00
        E 0 81 39 00
        E 0 82 66 00
        E 0 90 2b 34
        E 0 91 2f 34
        E 0 91 32 34
        E 0 92 39 34
        E 0 92 5a 34
        E 440 80 2b 00
        E 0 81 2f 00
        E 0 82 39 00
        E 0 82 5a 00
        E 0 90 2d 34
        E 0 91 31 34
        E 0 92 36 34
        E 0 92 58 34
        E 439 82 58 00
        E 0 92 53 34
        E 354 80 2d 00
        E 0 82 36 00
        E 0 82 53 00
        E 0 90 2a 34
        E 0 92 3b 34
        E 0 92 45 34
        E 883 81 32 00
        E 0 81 31 00
        E 0 82 3b 00
        E 0 91 32 34
        E 0 91 34 34
        E 0 92 3d 34
        E 441 80 2a 00
        E 0 82 45 00
        E 0 81 32 00
        E 0 81 34 00
        E 0 82 3d 00
        E 0 90 28 34
        E 0 91 31 34
        E 0 91 32 34
        E 0 92 45 34
        E 0 92 4e 34
        E 442 81 31 00
        E 0 81 32 00
        E 0 82 4e 00
        E 0 91 2f 34
        E 0 91 31 34
        E 0 92 50 34
        E 442 82 45 00
        E 0 81 2f 00
        E 0 82 50 00
        E 0 91 2d 34
        E 0 92 44 34
        E 0 92 4e 34
        E 354 82 44 00
        E 0 92 38 34
        E 887 81 31 00
        E 0 82 4e 00
        E 0 82 38 00
        E 0 91 2f 34
        E 0 92 31 34
        E 0 92 38 34
        E 443 80 28 00
        E 0 81 2d 00
        E 0 81 2f 00
        E 0 82 31 00
        E 0 82 38 00
        E 0 90 2d 34
        E 0 91 2f 34
        E 0 91 31 34
        E 0 92 38 34
        E 0 92 64 34
        E 444 80 2d 00
        E 0 81 2f 00
        E 0 81 31 00
        E 0 82 38 00
        E 0 82 64 00
        E 0 90 2c 34
        E 0 91 2d 34
        E 0 91 2f 34
        E 0 92 31 34
        E 0 92 34 34
        E 886 80 2c 00
        E 0 81 2d 00
        E 0 81 2f 00
        E 0 82 31 00
        E 0 82 34 00
        E 0 90 2f 34
        E 0 91 31 34
        E 0 91 39 34
        E 0 92 50 34
        E 0 92 58 34
        E 444 81 31 00
        E 0 81 39 00
        E 0 82 50 00
        E 0 91 33 34
        E 0 91 38 34
        E 0 92 4e 34
        E 443 82 4e 00
        E 0 92 49 34
        E 356 81 33 00
        E 0 81 38 00
        E 0 82 49 00
        E 0 91 37 33
        E 0 91 39 33
        E 0 92 48 33
        E 168 81 37 00
        E 0 81 39 00
        E 0 82 48 00
        E 0 91 36 33
        E 0 91 37 33
        E 0 92 4a 33
        E 167 82 58 00
        E 0 81 36 00
        E 0 81 37 00
        E 0 82 4a 00
        E 0 91 32 33
        E 0 91 39 33
        E 0 92 49 33
        E 0 92 5a 33
        E 168 80 2f 00
        E 0 81 32 00
        E 0 81 39 00
        E 0 90 2d 33
        E 0 91 34 33
        E 0 91 38 33
        E 167 82 49 00
        E 0 82 5a 00
        E 0 80 2d 00
        E 0 81 34 00
        E 0 81 38 00
        E 0 90 33 34
        E 0 91 3c 34
        E 0 91 44 34
        E 0 92 65 34
        E 0 92 67 34
        E 891 80 33 00
        E 0 81 3c 00
        E 0 81 44 00
        E 0 82 65 00
        E 0 82 67 00
        E 0 90 2e 34
        E 0 91 30 34
        E 0 91 33 34
        E 0 92 44 34
        E 0 92 4f 34
        E 445 82 44 00
        E 0 82 4f 00
        E 0 92 43 34
        E 0 92 50 34
        E 445 82 43 00
        E 0 82 50 00
        E 0 92 38 34
        E 0 92 5b 34
        E 890 80 2e 00
        E 0 81 30 00
        E 0 81 33 00
        E 0 82 38 00
        E 0 82 5b 00
        E 0 90 2c 34
        E 0 91 2e 34
        E 0 91 30 34
        E 0 92 33 34
        E 0 92 37 34
        E 445 80 2c 00
        E 0 81 30 00
        E 0 82 37 00
        E 0 90 2b 34
        E 0 91 32 34
        E 0 92 35 34
        E 445 82 33 00
        E 0 81 32 00
        E 0 82 35 00
        E 0 91 30 34
        E 0 92 32 34
        E 0 92 33 34
        E 358 81 2e 00
        E 0 80 2b 00
        E 0 81 30 00
        E 0 82 32 00
        E 0 90 2a 33
        E 0 91 2c 33
        E 0 91 2e 33
        E 0 92 2f 33
        E 168 80 2a 00
        E 0 81 2c 00
        E 0 82 2f 00
        E 0 90 29 33
        E 0 91 2a 33
        E 0 92 31 33
        E 168 82 33 00
        E 0 81 2a 00
        E 0 82 31 00
        E 0 91 2c 33
        E 0 92 30 33
        E 0 92 31 33
        E 169 81 2e 00
        E 0 80 29 00
        E 0 82 30 00
        E 0 82 31 00
        E 0 90 2b 33
        E 0 91 30 33
        E 0 92 33 33
        E 0 92 35 33
        E 168 81 2c 00
        E 0 80 2b 00
        E 0 81 30 00
        E 0 82 33 00
        E 0 82 35 00
        E 0 90 32 34
        E 0 91 37 34
        E 0 91 3b 34
        E 0 92 42 34
        E 0 92 4c 34
        E 894 81 37 00
        E 0 82 42 00
        E 0 82 4c 00
        E 0 91 39 34
        E 0 92 43 34
        E 0 92 4e 34
        E 447 80 32 00
        E 0 81 3b 00
        E 0 81 39 00
        E 0 82 43 00
        E 0 82 4e 00
        E 0 90 2d 34
        E 0 91 2f 34
        E 0 91 32 34
        E 0 92 37 34
        E 0 92 42 34
        E 447 81 2f 00
        E 0 82 37 00
        E 0 82 42 00
        E 0 91 31 34
        E 0 92 36 34
        E 0 92 40 34
        E 446 82 40 00
        E 0 92 3b 34
        E 359 80 2d 00
        E 0 82 36 00
        E 0 82 3b 00
        E 0 90 2f 34
        E 0 92 45 34
        E 0 92 5a 34
        E 898 81 32 00
        E 0 81 31 00
        E 0 80 2f 00
        E 0 90 31 34
        E 0 91 32 34
        E 0 91 34 34
        E 449 82 45 00
        E 0 82 5a 00
        E 0 81 34 00
        E 0 91 39 34
        E 0 92 4e 34
        E 0 92 58 34
        E 448 80 31 00
        E 0 81 32 00
        E 0 82 4e 00
        E 0 90 2f 34
        E 0 91 31 34
        E 0 92 50 34
        E 449 81 39 00
        E 0 80 2f 00
        E 0 82 50 00
        E 0 90 2d 34
        E 0 91 38 34
        E 0 92 4e 34
        E 360 81 31 00
        E 0 80 2d 00
        E 0 81 38 00
        E 0 90 2c 34
        E 0 91 2d 34
        E 0 91 31 34
        E 901 82 4e 00
        E 0 81 2d 00
        E 0 91 2f 34
        E 0 92 39 34
        E 451 82 58 00
        E 0 80 2c 00
        E 0 81 31 00
        E 0 81 2f 00
        E 0 90 2f 34
        E 0 91 31 34
        E 0 91 38 34
        E 0 92 4c 34
        E 450 82 39 00
        E 0 80 2f 00
        E 0 81 31 00
        E 0 81 38 00
        E 0 82 4c 00
        E 0 90 2d 34
        E 0 91 2f 34
        E 0 91 31 34
        E 0 92 64 34
        E 0 92 68 34
        E 901 82 64 00
        E 0 82 68 00
        E 0 92 40 34
        E 0 92 5c 34
        E 451 80 2d 00
        E 0 81 31 00
        E 0 82 5c 00
        E 0 90 2c 34
        E 0 91 33 34
        E 0 92 5a 34
        E 450 82 40 00
        E 0 81 33 00
        E 0 82 5a 00
        E 0 91 31 34
        E 0 92 3f 34
        E 0 92 58 34
        E 362 80 2c 00
        E 0 81 31 00
        E 0 82 3f 00
        E 0 90 2d 33
        E 0 91 30 33
        E 0 92 43 33
        E 171 80 2d 00
        E 0 81 30 00
        E 0 82 43 00
        E 0 90 2b 33
        E 0 91 32 33
        E 0 92 42 33
        E 170 82 58 00
        E 0 80 2b 00
        E 0 90 2d 33
        E 0 92 55 33
        E 170 81 2f 00
        E 0 81 32 00
        E 0 80 2d 00
        E 0 90 2c 33
        E 0 91 2d 33
        E 0 91 34 33
        E 170 82 42 00
        E 0 82 55 00
        E 0 80 2c 00
        E 0 81 2d 00
        E 0 81 34 00
        E 0 90 2b 34
        E 0 91 33 34
        E 0 91 3c 34
        E 0 92 44 34
        E 0 92 4d 34
        E 905 80 2b 00
        E 0 82 4d 00
        E 0 90 2e 34
        E 0 92 4f 34
        E 452 81 33 00
        E 0 81 3c 00
        E 0 82 44 00
        E 0 82 4f 00
        E 0 91 30 34
        E 0 91 33 34
        E 0 92 43 34
        E 0 92 68 34
        E 453 81 30 00
        E 0 82 68 00
        E 0 91 32 34
        E 0 92 65 34
        E 452 82 65 00
        E 0 92 60 34
        E 363 80 2e 00
        E 0 81 33 00
        E 0 82 43 00
        E 0 81 32 00
        E 0 82 60 00
        E 0 90 32 34
        E 0 91 33 34
        E 0 91 3a 34
        E 0 92 3c 34
        E 0 92 5b 34
        E 909 80 32 00
        E 0 81 33 00
        E 0 82 3c 00
        E 0 90 33 34
        E 0 91 35 34
        E 0 92 3e 34
        E 454 81 3a 00
        E 0 82 5b 00
        E 0 80 33 00
        E 0 81 35 00
        E 0 82 3e 00
        E 0 90 32 34
        E 0 91 33 34
        E 0 91 37 34
        E 0 92 46 34
        E 0 92 59 34
        E 454 80 32 00
        E 0 81 33 00
        E 0 81 37 00
        E 0 90 30 34
        E 0 91 32 34
        E 0 91 39 34
        E 454 82 46 00
        E 0 80 30 00
        E 0 81 39 00
        E 0 90 2e 34
        E 0 91 37 34
        E 0 92 45 34
        E 365 82 45 00
        E 0 92 39 34
        E 912 82 59 00
        E 0 80 2e 00
        E 0 81 37 00
        E 0 82 39 00
        E 0 90 30 34
        E 0 91 3a 34
        E 0 92 59 34
        E 0 92 5d 34
        E 456 81 32 00
        E 0 80 30 00
        E 0 81 3a 00
        E 0 82 59 00
        E 0 82 5d 00
        E 0 90 2d 34
        E 0 91 2e 34
        E 0 91 30 34
        E 0 92 32 34
        E 0 92 4d 34
        E 456 80 2d 00
        E 0 81 2e 00
        E 0 81 30 00
        E 0 82 32 00
        E 0 82 4d 00
        E 0 90 30 34
        E 0 91 32 34
        E 0 91 3a 34
        E 0 92 51 34
        E 0 92 65 34
        E 911 82 51 00
        E 0 82 65 00
        E 0 92 41 34
        E 0 92 45 34
        E 456 81 32 00
        E 0 81 3a 00
        E 0 82 45 00
        E 0 91 34 34
        E 0 91 39 34
        E 0 92 43 34
        E 456 82 41 00
        E 0 81 34 00
        E 0 82 43 00
        E 0 91 32 34
        E 0 92 40 34
        E 0 92 41 34
        E 367 80 30 00
        E 0 81 39 00
        E 0 81 32 00
        E 0 82 40 00
        E 0 90 2e 33
        E 0 91 30 33
        E 0 91 38 33
        E 0 92 3d 33
        E 172 80 2e 00
        E 0 81 38 00
        E 0 82 3d 00
        E 0 90 2c 33
        E 0 91 37 33
        E 0 92 3f 33
        E 172 82 41 00
        E 0 80 2c 00
        E 0 81 37 00
        E 0 82 3f 00
        E 0 90 2b 33
        E 0 91 3a 33
        E 0 92 3e 33
        E 0 92 3f 33
        E 173 81 30 00
        E 0 81 3a 00
        E 0 82 3f 00
        E 0 91 2e 33
        E 0 91 39 33
        E 0 92 41 33
        E 172 80 2b 00
        E 0 82 3e 00
        E 0 81 2e 00
        E 0 81 39 00
        E 0 82 41 00
        E 0 90 2d 34
        E 0 91 31 34
        E 0 91 38 34
        E 0 92 40 34
        E 0 92 4e 34
        E 916 81 31 00
        E 0 81 38 00
        E 0 82 40 00
        E 0 82 4e 00
        E 0 91 2f 34
        E 0 91 31 34
        E 0 92 38 34
        E 0 92 40 34
        E 457 82 38 00
        E 0 82 40 00
        E 0 92 34 34
        E 0 92 44 34
        E 458 80 2d 00
        E 0 81 2f 00
        E 0 81 31 00
        E 0 82 34 00
        E 0 82 44 00
        E 0 90 2c 34
        E 0 91 2d 34
        E 0 91 2f 34
        E 0 92 31 34
        E 0 92 4c 34
        E 916 80 2c 00
        E 0 81 2d 00
        E 0 81 2f 00
        E 0 82 31 00
        E 0 82 4c 00
        E 0 90 28 34
        E 0 91 2f 34
        E 0 91 31 34
        E 0 92 39 34
        E 0 92 5c 34
        E 457 80 28 00
        E 0 81 31 00
        E 0 82 39 00
        E 0 82 5c 00
        E 0 90 2a 34
        E 0 91 33 34
        E 0 92 38 34
        E 0 92 58 34
        E 458 80 2a 00
        E 0 82 58 00
        E 0 90 28 34
        E 0 92 55 34
        E 368 81 33 00
        E 0 82 38 00
        E 0 80 28 00
        E 0 82 55 00
        E 0 90 2b 33
        E 0 91 34 33
        E 0 92 39 33
        E 0 92 54 33
        E 173 82 39 00
        E 0 82 54 00
        E 0 92 36 33
        E 0 92 56 33
        E 173 80 2b 00
        E 0 81 34 00
        E 0 82 36 00
        E 0 82 56 00
        E 0 90 2a 33
        E 0 91 32 33
        E 0 92 39 33
        E 0 92 55 33
        E 173 81 2f 00
        E 0 81 32 00
        E 0 82 39 00
        E 0 91 2d 33
        E 0 91 34 33
        E 0 92 38 33
        E 173 80 2a 00
        E 0 82 55 00
        E 0 81 2d 00
        E 0 81 34 00
        E 0 90 33 34
        E 0 91 35 34
        E 0 91 37 34
        E 0 92 3c 34
        E 919 82 38 00
        E 0 80 33 00
        E 0 81 35 00
        E 0 81 37 00
        E 0 82 3c 00
        E 0 90 2e 34
        E 0 91 30 34
        E 0 91 33 34
        E 0 92 44 34
        E 0 92 67 34
        E 460 82 44 00
        E 0 82 67 00
        E 0 92 50 34
        E 0 92 5b 34
        E 460 80 2e 00
        E 0 81 30 00
        E 0 81 33 00
        E 0 82 50 00
        E 0 82 5b 00
        E 0 90 2b 34
        E 0 91 2e 34
        E 0 91 30 34
        E 0 92 33 34
        E 0 92 44 34
        E 919 80 2b 00
        E 0 82 44 00
        E 0 90 2c 34
        E 0 92 4f 34
        E 459 81 30 00
        E 0 80 2c 00
        E 0 82 4f 00
        E 0 90 2b 34
        E 0 91 32 34
        E 0 92 4d 34
        E 460 81 32 00
        E 0 82 4d 00
        E 0 91 30 34
        E 0 92 4a 34
        E 369 80 2b 00
        E 0 81 30 00
        E 0 82 4a 00
        E 0 90 2c 33
        E 0 91 2f 33
        E 0 92 4e 33
        E 174 80 2c 00
        E 0 81 2f 00
        E 0 82 4e 00
        E 0 90 2a 33
        E 0 91 31 33
        E 0 92 4d 33
        E 174 82 33 00
        E 0 80 2a 00
        E 0 81 31 00
        E 0 90 2c 33
        E 0 91 30 33
        E 0 92 31 33
        E 173 81 2e 00
        E 0 80 2c 00
        E 0 82 31 00
        E 0 90 2b 33
        E 0 91 2c 33
        E 0 92 33 33
        E 174 82 4d 00
        E 0 81 30 00
        E 0 80 2b 00
        E 0 81 2c 00
        E 0 82 33 00
        E 0 90 32 34
        E 0 91 37 34
        E 0 91 3b 34
        E 0 92 42 34
        E 0 92 64 34
        E 923 81 37 00
        E 0 82 42 00
        E 0 82 64 00
        E 0 91 39 34
        E 0 92 43 34
        E 0 92 66 34
        E 462 80 32 00
        E 0 81 3b 00
        E 0 81 39 00
        E 0 82 43 00
        E 0 82 66 00
        E 0 90 2d 34
        E 0 91 2f 34
        E 0 91 32 34
        E 0 92 37 34
        E 0 92 5a 34
        E 461 81 2f 00
        E 0 82 37 00
        E 0 82 5a 00
        E 0 91 31 34
        E 0 92 36 34
        E 0 92 58 34
        E 462 82 58 00
        E 0 92 53 34
        E 370 80 2d 00
        E 0 81 32 00
        E 0 81 31 00
        E 0 82 36 00
        E 0 82 53 00
        E 0 90 2a 34
        E 0 91 2f 34
        E 0 91 31 34
        E 0 92 32 34
        E 0 92 51 34
        E 927 81 2f 00
        E 0 81 31 00
        E 0 82 32 00
        E 0 91 31 34
        E 0 91 32 34
        E 0 92 34 34
        E 463 80 2a 00
        E 0 82 51 00
        E 0 82 34 00
        E 0 90 28 34
        E 0 92 39 34
        E 0 92 5a 34
        E 464 81 31 00
        E 0 81 32 00
        E 0 82 5a 00
        E 0 91 2f 34
        E 0 91 31 34
        E 0 92 5c 34
        E 463 82 39 00
        E 0 81 2f 00
        E 0 82 5c 00
        E 0 91 2d 34
        E 0 92 38 34
        E 0 92 5a 34
        E 372 81 31 00
        E 0 81 2d 00
        E 0 82 38 00
        E 0 91 2c 34
        E 0 91 2d 34
        E 0 92 31 34
        E 930 82 5a 00
        E 0 81 2c 00
        E 0 81 2d 00
        E 0 82 31 00
        E 0 91 2f 34
        E 0 91 31 34
        E 0 92 38 34
        E 0 92 39 34
        E 466 80 28 00
        E 0 81 2f 00
        E 0 81 31 00
        E 0 82 38 00
        E 0 82 39 00
        E 0 90 2f 34
        E 0 91 31 34
        E 0 91 38 34
        E 0 92 39 34
        E 0 92 64 34
        E 465 80 2f 00
        E 0 81 31 00
        E 0 81 38 00
        E 0 82 39 00
        E 0 82 64 00
        E 0 90 2c 34
        E 0 91 2f 34
        E 0 91 31 34
        E 0 92 34 34
        E 0 92 39 34
        E 930 80 2c 00
        E 0 82 34 00
        E 0 82 39 00
        E 0 90 2d 34
        E 0 92 58 34
        E 0 92 5c 34
        E 465 81 31 00
        E 0 80 2d 00
        E 0 82 5c 00
        E 0 90 2c 34
        E 0 91 33 34
        E 0 92 5a 34
        E 466 82 58 00
        E 0 81 33 00
        E 0 82 5a 00
        E 0 91 31 34
        E 0 92 57 34
        E 0 92 58 34
        E 373 80 2c 00
        E 0 81 31 00
        E 0 82 57 00
        E 0 82 58 00
        E 0 90 2d 33
        E 0 91 30 33
        E 0 92 58 33
        E 0 92 5b 33
        E 176 80 2d 00
        E 0 81 30 00
        E 0 82 5b 00
        E 0 90 2b 33
        E 0 91 32 33
        E 0 92 5a 33
        E 176 82 58 00
        E 0 80 2b 00
        E 0 90 2d 33
        E 0 92 55 33
        E 176 81 2f 00
        E 0 81 32 00
        E 0 80 2d 00
        E 0 90 2c 33
        E 0 91 2d 33
        E 0 91 34 33
        E 175 82 5a 00
        E 0 82 55 00
        E 0 80 2c 00
        E 0 81 2d 00
        E 0 81 34 00
        E 0 90 2b 34
        E 0 91 33 34
        E 0 91 3c 34
        E 0 92 44 34
        E 0 92 65 34
        E 935 80 2b 00
        E 0 82 65 00
        E 0 90 2e 34
        E 0 92 67 34
        E 467 81 33 00
        E 0 81 3c 00
        E 0 82 44 00
        E 0 82 67 00
        E 0 91 30 34
        E 0 91 33 34
        E 0 92 5b 34
        E 0 92 68 34
        E 467 81 30 00
        E 0 82 68 00
        E 0 91 32 34
        E 0 92 65 34
        E 467 82 65 00
        E 0 92 60 34
        E 375 80 2e 00
        E 0 82 5b 00
        E 0 82 60 00
        E 0 90 2b 34
        E 0 92 3c 34
        E 0 92 46 34
        E 938 81 33 00
        E 0 81 32 00
        E 0 82 3c 00
        E 0 91 33 34
        E 0 91 35 34
        E 0 92 3e 34
        E 469 80 2b 00
        E 0 81 33 00
        E 0 81 35 00
        E 0 82 3e 00
        E 0 90 29 34
        E 0 91 32 34
        E 0 91 33 34
        E 0 92 43 34
        E 469 81 32 00
        E 0 81 33 00
        E 0 82 43 00
        E 0 91 30 34
        E 0 91 32 34
        E 0 92 45 34
        E 469 82 46 00
        E 0 81 30 00
        E 0 82 45 00
        E 0 91 2e 34
        E 0 92 43 34
        E 0 92 45 34
        E 376 82 43 00
        E 0 82 45 00
        E 0 92 39 34
        E 0 92 43 34
        E 942 81 2e 00
        E 0 82 39 00
        E 0 82 43 00
        E 0 91 30 34
        E 0 92 3a 34
        E 0 92 69 34
        E 471 80 29 00
        E 0 81 32 00
        E 0 81 30 00
        E 0 82 3a 00
        E 0 82 69 00
        E 0 90 2d 34
        E 0 91 2e 34
        E 0 91 30 34
        E 0 92 32 34
        E 0 92 65 34
        E 470 80 2d 00
        E 0 81 2e 00
        E 0 81 30 00
        E 0 82 32 00
        E 0 82 65 00
        E 0 90 30 34
        E 0 91 32 34
        E 0 91 35 34
        E 0 92 3a 34
        E 0 92 5d 34
        E 942 81 35 00
        E 0 82 3a 00
        E 0 82 5d 00
        E 0 91 3a 34
        E 0 92 45 34
        E 0 92 59 34
        E 471 81 32 00
        E 0 81 3a 00
        E 0 82 45 00
        E 0 91 34 34
        E 0 91 39 34
        E 0 92 43 34
        E 471 82 59 00
        E 0 81 34 00
        E 0 82 43 00
        E 0 91 32 34
        E 0 92 41 34
        E 0 92 58 34
        E 378 81 39 00
        E 0 81 32 00
        E 0 82 41 00
        E 0 82 58 00
        E 0 91 31 33
        E 0 91 3a 33
        E 0 92 44 33
        E 0 92 59 33
        E 178 81 31 00
        E 0 81 3a 00
        E 0 82 44 00
        E 0 91 33 33
        E 0 91 38 33
        E 0 92 43 33
        E 178 82 59 00
        E 0 81 38 00
        E 0 91 3a 33
        E 0 92 56 33
        E 178 80 30 00
        E 0 81 33 00
        E 0 81 3a 00
        E 0 90 2e 33
        E 0 91 35 33
        E 0 91 39 33
        E 178 82 43 00
        E 0 82 56 00
        E 0 80 2e 00
        E 0 81 35 00
        E 0 81 39 00
        E 0 90 2d 34
        E 0 91 31 34
        E 0 91 38 34
        E 0 92 4e 34
        E 0 92 58 34
        E 945 81 31 00
        E 0 81 38 00
        E 0 82 4e 00
        E 0 91 2f 34
        E 0 91 31 34
        E 0 92 38 34
        E 473 82 58 00
        E 0 82 38 00
        E 0 92 44 34
        E 0 92 4c 34
        E 473 80 2d 00
        E 0 81 2f 00
        E 0 81 31 00
        E 0 82 44 00
        E 0 82 4c 00
        E 0 90 2c 34
        E 0 91 2d 34
        E 0 91 2f 34
        E 0 92 31 34
        E 0 92 64 34
        E 945 80 2c 00
        E 0 81 2d 00
        E 0 81 2f 00
        E 0 82 31 00
        E 0 82 64 00
        E 0 90 2f 34
        E 0 91 31 34
        E 0 91 39 34
        E 0 92 40 34
        E 0 92 5c 34
        E 473 81 31 00
        E 0 81 39 00
        E 0 82 5c 00
        E 0 91 33 34
        E 0 91 38 34
        E 0 92 5a 34
        E 472 82 40 00
        E 0 82 5a 00
        E 0 92 3d 34
        E 0 92 58 34
        E 380 81 33 00
        E 0 81 38 00
        E 0 82 3d 00
        E 0 91 37 33
        E 0 91 39 33
        E 0 92 3c 33
        E 179 81 37 00
        E 0 81 39 00
        E 0 82 3c 00
        E 0 91 36 33
        E 0 91 37 33
        E 0 92 3e 33
        E 178 82 58 00
        E 0 81 36 00
        E 0 81 37 00
        E 0 82 3e 00
        E 0 91 32 33
        E 0 91 39 33
        E 0 92 3d 33
        E 0 92 5a 33
        E 179 80 2f 00
        E 0 81 32 00
        E 0 81 39 00
        E 0 90 2d 33
        E 0 91 34 33
        E 0 91 38 33
        E 179 82 3d 00
        E 0 82 5a 00
        E 0 80 2d 00
        E 0 81 34 00
        E 0 90 33 34
        E 0 91 37 34
        E 0 92 3c 34
        E 0 92 4d 34
        E 949 81 38 00
        E 0 81 37 00
        E 0 82 4d 00
        E 0 91 38 34
        E 0 91 3a 34
        E 0 92 4f 34
        E 475 80 33 00
        E 0 82 3c 00
        E 0 81 38 00
        E 0 81 3a 00
        E 0 82 4f 00
        E 0 90 2c 34
        E 0 91 2e 34
        E 0 91 30 34
        E 0 92 33 34
        E 0 92 43 34
        E 474 80 2c 00
        E 0 81 30 00
        E 0 82 43 00
        E 0 90 2b 34
        E 0 91 32 34
        E 0 92 41 34
        E 475 81 32 00
        E 0 82 41 00
        E 0 91 30 34
        E 0 92 3e 34
        E 381 81 2e 00
        E 0 82 33 00
        E 0 80 2b 00
        E 0 81 30 00
        E 0 82 3e 00
        E 0 90 30 34
        E 0 91 32 34
        E 0 91 33 34
        E 0 92 3a 34
        E 0 92 5b 34
        E 953 80 30 00
        E 0 81 32 00
        E 0 81 33 00
        E 0 90 32 34
        E 0 91 33 34
        E 0 91 35 34
        E 476 82 3a 00
        E 0 82 5b 00
        E 0 81 35 00
        E 0 91 3a 34
        E 0 92 43 34
        E 0 92 59 34
        E 477 80 32 00
        E 0 81 33 00
        E 0 82 43 00
        E 0 90 30 34
        E 0 91 32 34
        E 0 92 45 34
        E 476 81 3a 00
        E 0 80 30 00
        E 0 82 45 00
        E 0 90 2e 34
        E 0 91 39 34
        E 0 92 43 34
        E 383 81 32 00
        E 0 80 2e 00
        E 0 81 39 00
        E 0 90 2d 34
        E 0 91 2e 34
        E 0 91 32 34
        E 957 82 59 00
        E 0 82 43 00
        E 0 80 2d 00
        E 0 81 2e 00
        E 0 90 2e 34
        E 0 91 30 34
        E 0 92 59 34
        E 0 92 69 34
        E 479 80 2e 00
        E 0 82 59 00
        E 0 82 69 00
        E 0 90 2d 34
        E 0 92 3a 34
        E 0 92 4d 34
        E 478 80 2d 00
        E 0 82 3a 00
        E 0 82 4d 00
        E 0 90 2e 34
        E 0 92 5d 34
        E 0 92 65 34
        E 957 82 5d 00
        E 0 82 65 00
        E 0 92 41 34
        E 0 92 51 34
        E 478 81 32 00
        E 0 80 2e 00
        E 0 82 51 00
        E 0 90 2d 34
        E 0 91 34 34
        E 0 92 4f 34
        E 479 81 34 00
        E 0 82 4f 00
        E 0 91 32 34
        E 0 92 4c 34
        E 384 82 41 00
        E 0 80 2d 00
        E 0 81 32 00
        E 0 82 4c 00
        E 0 90 2e 33
        E 0 91 31 33
        E 0 92 44 33
        E 0 92 4d 33
        E 181 80 2e 00
        E 0 81 31 00
        E 0 82 44 00
        E 0 90 2c 33
        E 0 91 33 33
        E 0 92 43 33
        E 181 82 4d 00
        E 0 80 2c 00
        E 0 90 2e 33
        E 0 92 4a 33
        E 180 81 30 00
        E 0 81 33 00
        E 0 80 2e 00
        E 0 82 4a 00
        E 0 90 2d 33
        E 0 91 2e 33
        E 0 91 32 33
        E 0 92 4d 33
        E 181 82 43 00
        E 0 80 2d 00
        E 0 81 2e 00
        E 0 81 32 00
        E 0 82 4d 00
        E 0 90 2c 34
        E 0 91 2d 34
        E 0 91 31 34
        E 0 92 40 34
        E 0 92 5a 34
        E 961 80 2c 00
        E 0 81 2d 00
        E 0 82 5a 00
        E 0 90 2d 34
        E 0 91 2f 34
        E 0 92 5c 34
        E 480 82 40 00
        E 0 92 4c 34
        E 481 81 31 00
        E 0 80 2d 00
        E 0 82 5c 00
        E 0 90 2c 34
        E 0 91 33 34
        E 0 92 5a 34
        E 480 82 4c 00
        E 0 81 33 00
        E 0 82 5a 00
        E 0 91 31 34
        E 0 92 4b 34
        E 0 92 58 34
        E 386 81 2f 00
        E 0 81 31 00
        E 0 82 4b 00
        E 0 91 31 34
        E 0 91 33 34
        E 0 92 3b 34
        E 964 81 31 00
        E 0 81 33 00
        E 0 91 33 34
        E 0 91 36 34
        E 483 80 2c 00
        E 0 82 3b 00
        E 0 81 36 00
        E 0 90 2a 34
        E 0 91 3b 34
        E 0 92 44 34
        E 482 82 58 00
        E 0 82 44 00
        E 0 92 46 34
        E 0 92 55 34
        E 482 82 55 00
        E 0 92 50 34
        E 388 81 33 00
        E 0 80 2a 00
        E 0 81 3b 00
        E 0 82 46 00
        E 0 82 50 00
        E 0 90 2c 34
        E 0 91 2f 34
        E 0 91 33 34
        E 0 92 3a 34
        E 0 92 5a 34
        E 968 80 2c 00
        E 0 81 2f 00
        E 0 82 3a 00
        E 0 82 5a 00
        E 0 90 2a 32
        E 0 91 2e 32
        E 0 92 3d 32
        E 0 92 59 32
        E 228 81 33 00
        E 0 80 2a 00
        E 0 82 3d 00
        E 0 90 2c 32
        E 0 91 31 32
        E 0 92 3c 32
        E 228 81 2e 00
        E 0 80 2c 00
        E 0 81 31 00
        E 0 90 2b 32
        E 0 91 2c 32
        E 0 91 33 32
        E 228 82 59 00
        E 0 81 2c 00
        E 0 91 2e 32
        E 0 92 56 32
        E 2104 81 33 00
        E 0 81 2e 00
        E 0 82 56 00
        E 0 91 2d 32
        E 0 91 34 32
        E 0 92 53 32
        E 908 82 3c 00
        E 0 80 2b 00
        E 0 81 2d 00
        E 0 81 34 00
        E 0 82 53 00
        E 0 90 28 32
        E 0 91 30 32
        E 0 91 32 32
        E 0 92 3b 32
        E 0 92 43 32
        E 907 81 30 00
        E 0 81 32 00
        E 0 82 3b 00
        E 0 91 2f 33
        E 0 91 30 33
        E 0 92 39 33
        E 710 82 43 00
        E 0 81 2f 00
        E 0 81 30 00
        E 0 82 39 00
        E 0 91 2d 33
        E 0 91 31 33
        E 0 92 38 33
        E 0 92 42 33
        E 709 80 28 00
        E 0 81 2d 00
        E 0 81 31 00
        E 0 82 42 00
        E 0 90 2f 33
        E 0 91 31 33
        E 0 91 34 33
        E 0 92 39 33
        E 709 82 38 00
        E 0 80 2f 00
        E 0 82 39 00
        E 0 90 2d 34
        E 0 92 36 34
        E 0 92 38 34
        E 554 81 34 00
        E 0 80 2d 00
        E 0 82 36 00
        E 0 82 38 00
        E 0 90 2e 34
        E 0 91 33 34
        E 0 92 35 34
        E 0 92 36 34
        E 555 81 33 00
        E 0 82 35 00
        E 0 82 36 00
        E 0 91 35 34
        E 0 92 36 34
        E 0 92 38 34
        E 554 81 35 00
        E 0 82 36 00
        E 0 82 38 00
        E 0 91 33 36
        E 0 92 35 36
        E 0 92 36 36
        E 433 81 31 00
        E 0 81 33 00
        E 0 82 35 00
        E 0 82 36 00
        E 0 91 30 36
        E 0 91 32 36
        E 0 92 33 36
        E 0 92 37 36
        E 433 80 2e 00
        E 0 81 30 00
        E 0 81 32 00
        E 0 82 33 00
        E 0 82 37 00
        E 0 90 32 36
        E 0 91 33 36
        E 0 91 43 36
        E 0 92 46 36
        E 0 92 4d 36
        E 433 82 4d 00
        E 0 92 48 3b
        E 338 80 32 00
        E 0 81 33 00
        E 0 82 46 00
        E 0 82 48 00
        E 0 90 30 3b
        E 0 91 34 3b
        E 0 92 45 3b
        E 0 92 47 3b
        E 338 81 43 00
        E 0 81 34 00
        E 0 82 45 00
        E 0 82 47 00
        E 0 91 32 3b
        E 0 91 3b 3b
        E 0 92 43 3b
        E 0 92 58 3b
        E 596 82 43 00
        E 0 82 58 00
        E 0 92 4c 3b
        E 0 92 67 3b
        E 258 80 30 00
        E 0 81 32 00
        E 0 81 3b 00
        E 0 82 4c 00
        E 0 82 67 00
        E 0 90 2f 3b
        E 0 91 30 3b
        E 0 91 32 3b
        E 0 92 37 3b
        E 0 92 40 3b
        E 258 80 2f 00
        E 0 81 30 00
        E 0 81 32 00
        E 0 82 37 00
        E 0 82 40 00
        E 0 90 30 3b
        E 0 91 32 3b
        E 0 91 3b 3b
        E 0 92 58 3b
        E 0 92 5b 3b
        E 258 80 30 00
        E 0 81 32 00
        E 0 81 3b 00
        E 0 90 2f 3b
        E 0 91 30 3b
        E 0 91 39 3b
        E 207 82 58 00
        E 0 82 5b 00
        E 0 81 39 00
        E 0 91 34 3b
        E 0 92 39 3b
        E 0 92 43 3b
        E 723 80 2f 00
        E 0 81 30 00
        E 0 81 34 00
        E 0 82 43 00
        E 0 90 28 36
        E 0 91 2f 36
        E 0 91 30 36
        E 0 92 67 36
        E 315 82 39 00
        E 0 80 28 00
        E 0 81 2f 00
        E 0 81 30 00
        E 0 82 67 00
        E 0 90 2b 36
        E 0 91 2d 36
        E 0 91 2f 36
        E 0 92 30 36
        E 0 92 64 36
        E 315 80 2b 00
        E 0 81 2d 00
        E 0 81 2f 00
        E 0 82 30 00
        E 0 82 64 00
        E 0 90 2f 36
        E 0 91 30 36
        E 0 91 34 36
        E 0 92 39 36
        E 0 92 5b 36
        E 315 80 2f 00
        E 0 81 30 00
        E 0 82 39 00
        E 0 90 30 36
        E 0 91 32 36
        E 0 92 3b 36
        E 315 81 34 00
        E 0 82 5b 00
        E 0 82 3b 00
        E 0 91 3b 36
        E 0 92 4f 36
        E 0 92 58 36
        E 315 80 30 00
        E 0 81 3b 00
        E 0 82 58 00
        E 0 90 2f 36
        E 0 91 39 36
        E 0 92 5a 36
        E 315 82 4f 00
        E 0 81 39 00
        E 0 82 5a 00
        E 0 91 37 36
        E 0 92 4e 36
        E 0 92 58 36
        E 253 81 32 00
        E 0 80 2f 00
        E 0 81 37 00
        E 0 82 4e 00
        E 0 82 58 00
        E 0 90 32 36
        E 0 91 3b 36
        E 0 91 43 36
        E 0 92 5a 36
        E 0 92 64 36
        E 632 80 32 00
        E 0 81 3b 00
        E 0 81 43 00
        E 0 82 5a 00
        E 0 82 64 00
        E 0 90 2d 36
        E 0 91 2f 36
        E 0 91 32 36
        E 0 92 37 36
        E 0 92 4e 36
        E 253 82 37 00
        E 0 82 4e 00
        E 0 92 42 36
        E 0 92 43 36
        E 253 80 2d 00
        E 0 81 2f 00
        E 0 81 32 00
        E 0 82 42 00
        E 0 82 43 00
        E 0 90 2b 36
        E 0 91 2d 36
        E 0 91 2f 36
        E 0 92 32 36
        E 0 92 5a 36
        E 506 80 2b 00
        E 0 81 2d 00
        E 0 81 2f 00
        E 0 82 32 00
        E 0 82 5a 00
        E 0 90 2f 36
        E 0 91 32 36
        E 0 91 36 36
        E 0 92 39 36
        E 0 92 5b 36
        E 253 81 36 00
        E 0 82 39 00
        E 0 82 5b 00
        E 0 91 34 3b
        E 0 92 37 3b
        E 0 92 5a 3b
        E 253 81 32 00
        E 0 81 34 00
        E 0 82 37 00
        E 0 82 5a 00
        E 0 91 31 3b
        E 0 91 33 3b
        E 0 92 38 3b
        E 0 92 58 3b
        E 253 80 2f 00
        E 0 81 31 00
        E 0 81 33 00
        E 0 82 38 00
        E 0 82 58 00
        E 0 90 33 3b
        E 0 91 3b 3b
        E 0 91 44 3b
        E 0 92 4c 3b
        E 0 92 66 3b
        E 446 81 3b 00
        E 0 81 44 00
        E 0 82 4c 00
        E 0 82 66 00
        E 0 91 38 3b
        E 0 91 3b 3b
        E 0 92 40 3b
        E 0 92 4e 3b
        E 193 81 38 00
        E 0 81 3b 00
        E 0 82 40 00
        E 0 82 4e 00
        E 0 91 34 3b
        E 0 91 38 3b
        E 0 92 3b 3b
        E 0 92 5a 3b
        E 193 81 34 00
        E 0 81 38 00
        E 0 82 3b 00
        E 0 82 5a 00
        E 0 91 38 3b
        E 0 91 3b 3b
        E 0 92 42 3b
        E 0 92 4c 3b
        E 193 82 42 00
        E 0 92 3d 3b
        E 155 80 33 00
        E 0 81 38 00
        E 0 81 3b 00
        E 0 82 4c 00
        E 0 82 3d 00
        E 0 90 28 3b
        E 0 91 2c 3b
        E 0 91 31 3b
        E 0 92 33 3b
        E 0 92 47 3b
        E 909 80 28 00
        E 0 81 2c 00
        E 0 81 31 00
        E 0 82 33 00
        E 0 82 47 00
        E 0 90 2f 34
        E 0 91 31 34
        E 0 91 33 34
        E 0 92 50 34
        E 0 92 64 34
        E 368 82 50 00
        E 0 82 64 00
        E 0 92 58 34
        E 0 92 5c 34
        E 368 80 2f 00
        E 0 81 31 00
        E 0 81 33 00
        E 0 82 58 00
        E 0 82 5c 00
        E 0 90 28 34
        E 0 91 2f 34
        E 0 91 31 34
        E 0 92 33 34
        E 0 92 50 34
        E 368 80 28 00
        E 0 81 2f 00
        E 0 81 31 00
        E 0 82 33 00
        E 0 82 50 00
        E 0 90 33 34
        E 0 91 38 34
        E 0 91 3b 34
        E 0 92 40 34
        E 0 92 5a 34
        E 368 81 38 00
        E 0 81 3b 00
        E 0 82 40 00
        E 0 82 5a 00
        E 0 91 34 34
        E 0 91 38 34
        E 0 92 3b 34
        E 0 92 66 34
        E 369 81 34 00
        E 0 81 38 00
        E 0 82 3b 00
        E 0 82 66 00
        E 0 91 38 34
        E 0 91 3b 34
        E 0 92 4c 34
        E 0 92 4e 34
        E 736 80 33 00
        E 0 81 38 00
        E 0 81 3b 00
        E 0 82 4c 00
        E 0 82 4e 00
        E 0 90 28 34
        E 0 91 33 34
        E 0 91 38 34
        E 0 92 3b 34
        E 0 92 42 34
        E 368 80 28 00
        E 0 81 38 00
        E 0 82 42 00
        E 0 90 2a 34
        E 0 91 3a 34
        E 0 92 3d 34
        E 368 82 3b 00
        E 0 81 3a 00
        E 0 82 3d 00
        E 0 91 38 34
        E 0 92 3a 34
        E 0 92 3b 34
        E 296 81 33 00
        E 0 81 38 00
        E 0 82 3a 00
        E 0 91 32 33
        E 0 91 34 33
        E 0 92 37 33
        E 139 81 32 00
        E 0 81 34 00
        E 0 82 37 00
        E 0 91 31 33
        E 0 91 32 33
        E 0 92 39 33
        E 139 80 2a 00
        E 0 82 3b 00
        E 0 81 32 00
        E 0 82 39 00
        E 0 90 2c 33
        E 0 91 34 33
        E 0 92 36 33
        E 0 92 39 33
        E 139 81 34 00
        E 0 82 36 00
        E 0 82 39 00
        E 0 91 33 33
        E 0 92 34 33
        E 0 92 3b 33
        E 140 81 31 00
        E 0 80 2c 00
        E 0 82 34 00
        E 0 82 3b 00
        E 0 90 30 34
        E 0 91 32 34
        E 0 92 37 34
        E 0 92 46 34
        E 739 81 33 00
        E 0 80 30 00
        E 0 81 32 00
        E 0 90 32 34
        E 0 91 33 34
        E 0 91 35 34
        E 370 82 37 00
        E 0 82 46 00
        E 0 92 3a 34
        E 0 92 4f 34
        E 369 80 32 00
        E 0 81 33 00
        E 0 82 4f 00
        E 0 90 30 34
        E 0 91 32 34
        E 0 92 51 34
        E 370 82 3a 00
        E 0 80 30 00
        E 0 82 51 00
        E 0 90 2e 34
        E 0 92 39 34
        E 0 92 4f 34
        E 297 81 35 00
        E 0 81 32 00
        E 0 80 2e 00
        E 0 82 39 00
        E 0 90 2d 34
        E 0 91 2e 34
        E 0 91 32 34
        E 0 92 35 34
        E 742 82 4f 00
        E 0 80 2d 00
        E 0 81 2e 00
        E 0 90 2e 34
        E 0 91 30 34
        E 0 92 51 34
        E 371 82 35 00
        E 0 92 41 34
        E 371 81 32 00
        E 0 80 2e 00
        E 0 82 51 00
        E 0 90 2d 34
        E 0 91 34 34
        E 0 92 4f 34
        E 371 81 34 00
        E 0 82 4f 00
        E 0 91 32 34
        E 0 92 4c 34
        E 299 81 30 00
        E 0 82 41 00
        E 0 80 2d 00
        E 0 81 32 00
        E 0 82 4c 00
        E 0 90 30 34
        E 0 91 32 34
        E 0 91 39 34
        E 0 92 4c 34
        E 0 92 65 34
        E 745 80 30 00
        E 0 81 32 00
        E 0 81 39 00
        E 0 82 4c 00
        E 0 82 65 00
        E 0 90 2d 34
        E 0 91 30 34
        E 0 91 34 34
        E 0 92 35 34
        E 0 92 37 34
        E 298 80 2d 00
        E 0 81 30 00
        E 0 81 34 00
        E 0 82 35 00
        E 0 82 37 00
        E 0 90 28 34
        E 0 91 2d 34
        E 0 91 30 34
        E 0 92 37 34
        E 0 92 41 34
        E 298 80 28 00
        E 0 82 41 00
        E 0 90 29 34
        E 0 92 40 34
        E 596 82 37 00
        E 0 80 29 00
        E 0 82 40 00
        E 0 90 2b 34
        E 0 92 59 34
        E 0 92 64 34
        E 298 80 2b 00
        E 0 82 59 00
        E 0 90 29 36
        E 0 92 56 36
        E 298 81 30 00
        E 0 82 64 00
        E 0 80 29 00
        E 0 90 2a 36
        E 0 91 2f 36
        E 0 92 61 36
        E 298 81 2d 00
        E 0 82 56 00
        E 0 81 2f 00
        E 0 82 61 00
        E 0 91 31 36
        E 0 91 32 36
        E 0 92 34 36
        E 0 92 45 36
        E 299 81 31 00
        E 0 81 32 00
        E 0 82 34 00
        E 0 91 2f 3b
        E 0 91 31 3b
        E 0 92 32 3b
        E 232 82 45 00
        E 0 81 2f 00
        E 0 81 31 00
        E 0 82 32 00
        E 0 91 2e 3b
        E 0 91 2f 3b
        E 0 92 33 3b
        E 0 92 44 3b
        E 233 80 2a 00
        E 0 81 2e 00
        E 0 81 2f 00
        E 0 82 33 00
        E 0 82 44 00
        E 0 90 2e 3b
        E 0 91 31 3b
        E 0 91 33 3b
        E 0 92 3b 3b
        E 0 92 42 3b
        E 411 80 2e 00
        E 0 81 31 00
        E 0 81 33 00
        E 0 82 42 00
        E 0 90 31 3b
        E 0 91 33 3b
        E 0 91 36 3b
        E 0 92 52 3b
        E 178 80 31 00
        E 0 81 33 00
        E 0 81 36 00
        E 0 82 52 00
        E 0 90 2a 3b
        E 0 91 31 3b
        E 0 91 33 3b
        E 0 92 5e 3b
        E 177 82 3b 00
        E 0 80 2a 00
        E 0 81 31 00
        E 0 81 33 00
        E 0 82 5e 00
        E 0 90 31 3b
        E 0 91 33 3b
        E 0 91 3b 3b
        E 0 92 42 3b
        E 0 92 46 3b
        E 178 80 31 00
        E 0 81 3b 00
        E 0 82 46 00
        E 0 90 2f 3b
        E 0 91 3a 3b
        E 0 92 44 3b
        E 142 81 33 00
        E 0 82 42 00
        E 0 80 2f 00
        E 0 81 3a 00
        E 0 82 44 00
        E 0 90 2e 3b
        E 0 91 2f 3b
        E 0 91 33 3b
        E 0 92 5a 3b
        E 0 92 68 3b
        E 498 80 2e 00
        E 0 81 2f 00
        E 0 81 33 00
        E 0 82 5a 00
        E 0 82 68 00
        E 0 90 2f 36
        E 0 91 33 36
        E 0 91 3a 36
        E 0 92 44 36
        E 0 92 4e 36
        E 217 82 44 00
        E 0 82 4e 00
        E 0 92 42 36
        E 0 92 50 36
        E 217 81 3a 00
        E 0 82 42 00
        E 0 82 50 00
        E 0 91 38 36
        E 0 92 3a 36
        E 0 92 5a 36
        E 217 80 2f 00
        E 0 81 38 00
        E 0 82 3a 00
        E 0 90 31 36
        E 0 91 3a 36
        E 0 92 3b 36
        E 217 82 5a 00
        E 0 92 42 36
        E 216 81 33 00
        E 0 81 3a 00
        E 0 82 3b 00
        E 0 91 35 36
        E 0 91 38 36
        E 0 92 3a 36
        E 217 82 42 00
        E 0 81 35 00
        E 0 81 38 00
        E 0 91 33 36
        E 0 91 36 36
        E 0 92 41 36
        E 175 82 3a 00
        E 0 81 36 00
        E 0 82 41 00
        E 0 91 42 36
        E 0 92 46 36
        E 0 92 4d 36
        E 435 80 31 00
        E 0 81 33 00
        E 0 81 42 00
        E 0 82 46 00
        E 0 82 4d 00
        E 0 90 2e 36
        E 0 91 31 36
        E 0 91 35 36
        E 0 92 38 36
        E 0 92 5a 36
        E 174 80 2e 00
        E 0 81 31 00
        E 0 81 35 00
        E 0 82 38 00
        E 0 82 5a 00
        E 0 90 29 36
        E 0 91 2a 36
        E 0 91 2c 36
        E 0 92 2e 36
        E 0 92 31 36
        E 174 80 29 00
        E 0 81 2a 00
        E 0 81 2c 00
        E 0 82 2e 00
        E 0 82 31 00
        E 0 90 2e 36
        E 0 91 31 36
        E 0 91 38 36
        E 0 92 41 36
        E 0 92 4e 36
        E 349 81 38 00
        E 0 82 41 00
        E 0 82 4e 00
        E 0 91 36 36
        E 0 92 38 36
        E 0 92 65 36
        E 174 81 36 00
        E 0 82 38 00
        E 0 91 33 3b
        E 0 92 36 3b
        E 174 81 31 00
        E 0 82 65 00
        E 0 82 36 00
        E 0 91 30 3b
        E 0 92 37 3b
        E 0 92 62 3b
        E 175 80 2e 00
        E 0 81 33 00
        E 0 81 30 00
        E 0 82 37 00
        E 0 82 62 00
        E 0 90 32 3b
        E 0 91 33 3b
        E 0 91 35 3b
        E 0 92 46 3b
        E 0 92 4f 3b
        E 307 80 32 00
        E 0 81 33 00
        E 0 81 35 00
        E 0 82 46 00
        E 0 82 4f 00
        E 0 90 29 3b
        E 0 91 2b 3b
        E 0 91 32 3b
        E 0 92 33 3b
        E 0 92 52 3b
        E 133 80 29 00
        E 0 81 2b 00
        E 0 81 32 00
        E 0 82 33 00
        E 0 82 52 00
        E 0 90 32 3b
        E 0 91 33 3b
        E 0 91 37 3b
        E 0 92 3a 3b
        E 0 92 65 3b
        E 132 81 37 00
        E 0 82 3a 00
        E 0 82 65 00
        E 0 91 35 3b
        E 0 92 46 3b
        E 0 92 67 3b
        E 133 80 32 00
        E 0 81 33 00
        E 0 81 35 00
        E 0 90 30 3b
        E 0 91 32 3b
        E 0 91 33 3b
        E 107 82 46 00
        E 0 82 67 00
        E 0 80 30 00
        E 0 81 32 00
        E 0 81 33 00
        E 0 90 32 3b
        E 0 91 33 3b
        E 0 91 3c 3b
        E 0 92 52 3b
        E 0 92 5b 3b
        E 1022 80 32 00
        E 0 81 33 00
        E 0 81 3c 00
        E 0 82 52 00
        E 0 82 5b 00
        E 0 90 2e 33
        E 0 91 30 33
        E 0 91 32 33
        E 0 92 33 33
        E 0 92 4f 33
        E 396 80 2e 00
        E 0 81 30 00
        E 0 81 32 00
        E 0 82 33 00
        E 0 82 4f 00
        E 0 90 30 33
        E 0 91 32 33
        E 0 91 33 33
        E 0 92 3a 33
        E 0 92 43 33
        E 396 80 30 00
        E 0 82 3a 00
        E 0 82 43 00
        E 0 90 2e 33
        E 0 92 48 33
        E 0 92 5b 33
        E 396 80 2e 00
        E 0 82 48 00
        E 0 82 5b 00
        E 0 90 29 33
        E 0 92 3a 33
        E 0 92 43 33
        E 396 81 32 00
        E 0 81 33 00
        E 0 80 29 00
        E 0 82 3a 00
        E 0 82 43 00
        E 0 90 32 33
        E 0 91 33 33
        E 0 91 3a 33
        E 0 92 43 33
        E 0 92 65 33
        E 396 81 3a 00
        E 0 82 43 00
        E 0 82 65 00
        E 0 91 35 33
        E 0 92 37 33
        E 0 92 3a 33
        E 793 81 35 00
        E 0 82 37 00
        E 0 82 3a 00
        E 0 91 46 33
        E 0 92 59 33
        E 0 92 5b 33
        E 396 80 32 00
        E 0 81 33 00
        E 0 82 5b 00
        E 0 90 30 33
        E 0 91 32 33
        E 0 92 5d 33
        E 396 81 46 00
        E 0 80 30 00
        E 0 82 5d 00
        E 0 90 2e 33
        E 0 91 45 33
        E 0 92 5b 33
        E 318 81 32 00
        E 0 80 2e 00
        E 0 81 45 00
        E 0 82 5b 00
        E 0 90 31 32
        E 0 91 33 32
        E 0 91 46 32
        E 0 92 5a 32
        E 150 80 31 00
        E 0 81 33 00
        E 0 82 5a 00
        E 0 90 30 32
        E 0 91 31 32
        E 0 92 5c 32
        E 149 81 46 00
        E 0 81 31 00
        E 0 82 5c 00
        E 0 91 33 32
        E 0 91 44 32
        E 0 92 5b 32
        E 150 82 59 00
        E 0 81 44 00
        E 0 91 46 32
        E 0 92 56 32
        E 150 80 30 00
        E 0 81 33 00
        E 0 82 5b 00
        E 0 81 46 00
        E 0 82 56 00
        E 0 90 31 33
        E 0 91 32 33
        E 0 91 3b 33
        E 0 92 5d 33
        E 0 92 66 33
        E 795 81 3b 00
        E 0 82 5d 00
        E 0 82 66 00
        E 0 91 39 33
        E 0 92 4e 33
        E 0 92 58 33
        E 398 82 4e 00
        E 0 82 58 00
        E 0 92 4c 33
        E 0 92 5a 33
        E 398 82 4c 00
        E 0 82 5a 00
        E 0 92 42 33
        E 0 92 64 33
        E 795 81 39 00
        E 0 82 42 00
        E 0 82 64 00
        E 0 91 36 33
        E 0 92 39 33
        E 0 92 40 33
        E 398 80 31 00
        E 0 81 32 00
        E 0 81 36 00
        E 0 82 40 00
        E 0 90 2f 33
        E 0 91 31 33
        E 0 91 34 33
        E 0 92 44 33
        E 397 82 39 00
        E 0 80 2f 00
        E 0 82 44 00
        E 0 90 2d 33
        E 0 92 38 33
        E 0 92 42 33
        E 320 81 31 00
        E 0 81 34 00
        E 0 82 38 00
        E 0 82 42 00
        E 0 91 30 32
        E 0 91 32 32
        E 0 92 35 32
        E 0 92 40 32
        E 150 81 30 00
        E 0 81 32 00
        E 0 82 35 00
        E 0 91 2f 32
        E 0 91 30 32
        E 0 92 37 32
        E 151 80 2d 00
        E 0 81 30 00
        E 0 82 37 00
        E 0 90 2b 32
        E 0 91 32 32
        E 0 92 36 32
        E 150 82 40 00
        E 0 80 2b 00
        E 0 82 36 00
        E 0 90 2a 32
        E 0 92 39 32
        E 0 92 3d 32
        E 150 81 2f 00
        E 0 81 32 00
        E 0 80 2a 00
        E 0 82 39 00
        E 0 82 3d 00
        E 0 90 2e 33
        E 0 91 30 33
        E 0 91 31 33
        E 0 92 38 33
        E 0 92 4d 33
        E 799 80 2e 00
        E 0 81 30 00
        E 0 81 31 00
        E 0 90 30 33
        E 0 91 31 33
        E 0 91 33 33
        E 399 82 38 00
        E 0 92 44 33
        E 399 82 4d 00
        E 0 80 30 00
        E 0 81 31 00
        E 0 90 2e 33
        E 0 91 30 33
        E 0 92 4f 33
        E 400 82 44 00
        E 0 80 2e 00
        E 0 82 4f 00
        E 0 90 2c 33
        E 0 92 43 33
        E 0 92 4d 33
        E 320 81 33 00
        E 0 81 30 00
        E 0 80 2c 00
        E 0 82 43 00
        E 0 82 4d 00
        E 0 90 33 33
        E 0 91 38 33
        E 0 91 3c 33
        E 0 92 4f 33
        E 0 92 59 33
        E 802 81 38 00
        E 0 82 4f 00
        E 0 82 59 00
        E 0 91 3a 33
        E 0 92 50 33
        E 0 92 5b 33
        E 401 80 33 00
        E 0 81 3c 00
        E 0 81 3a 00
        E 0 82 50 00
        E 0 82 5b 00
        E 0 90 2e 33
        E 0 91 30 33
        E 0 91 33 33
        E 0 92 44 33
        E 0 92 4f 33
        E 401 81 30 00
        E 0 82 44 00
        E 0 82 4f 00
        E 0 91 32 33
        E 0 92 43 33
        E 0 92 4d 33
        E 401 82 4d 00
        E 0 92 48 33
        E 322 80 2e 00
        E 0 82 43 00
        E 0 82 48 00
        E 0 90 30 33
        E 0 92 52 33
        E 0 92 67 33
        E 805 81 33 00
        E 0 81 32 00
        E 0 80 30 00
        E 0 82 52 00
        E 0 82 67 00
        E 0 90 32 33
        E 0 91 33 33
        E 0 91 37 33
        E 0 92 46 33
        E 0 92 59 33
        E 403 81 37 00
        E 0 82 59 00
        E 0 91 43 33
        E 0 92 4d 33
        E 402 80 32 00
        E 0 81 33 00
        E 0 81 43 00
        E 0 82 4d 00
        E 0 90 2b 33
        E 0 91 32 33
        E 0 91 33 33
        E 0 92 65 33
        E 805 82 46 00
        E 0 80 2b 00
        E 0 81 32 00
        E 0 81 33 00
        E 0 82 65 00
        E 0 90 32 33
        E 0 91 33 33
        E 0 91 3a 33
        E 0 92 41 33
        E 0 92 67 33
        E 403 80 32 00
        E 0 81 33 00
        E 0 82 41 00
        E 0 82 67 00
        E 0 90 30 33
        E 0 91 32 33
        E 0 92 45 33
        E 0 92 65 33
        E 402 81 3a 00
        E 0 80 30 00
        E 0 82 45 00
        E 0 90 2e 33
        E 0 91 39 33
        E 0 92 43 33
        E 323 81 32 00
        E 0 81 39 00
        E 0 82 43 00
        E 0 91 33 32
        E 0 91 3d 32
        E 0 92 42 32
        E 153 81 33 00
        E 0 81 3d 00
        E 0 82 42 00
        E 0 91 31 32
        E 0 91 3c 32
        E 0 92 44 32
        E 152 80 2e 00
        E 0 81 31 00
        E 0 82 44 00
        E 0 90 2c 32
        E 0 91 33 32
        E 0 92 43 32
        E 152 82 65 00
        E 0 80 2c 00
        E 0 82 43 00
        E 0 90 2b 32
        E 0 92 46 32
        E 0 92 62 32
        E 152 81 3c 00
        E 0 81 33 00
        E 0 80 2b 00
        E 0 82 46 00
        E 0 82 62 00
        E 0 90 2f 33
        E 0 91 31 33
        E 0 91 32 33
        E 0 92 4e 33
        E 0 92 69 33
        E 808 80 2f 00
        E 0 81 31 00
        E 0 81 32 00
        E 0 90 31 33
        E 0 91 32 33
        E 0 91 34 33
        E 404 82 4e 00
        E 0 82 69 00
        E 0 80 31 00
        E 0 81 32 00
        E 0 81 34 00
        E 0 90 2a 33
        E 0 91 31 33
        E 0 91 32 33
        E 0 92 45 33
        E 0 92 4c 33
        E 405 80 2a 00
        E 0 81 31 00
        E 0 81 32 00
        E 0 82 45 00
        E 0 90 2d 33
        E 0 91 2f 33
        E 0 91 31 33
        E 0 92 44 33
        E 404 80 2d 00
        E 0 81 2f 00
        E 0 82 44 00
        E 0 90 2c 33
        E 0 91 2d 33
        E 0 92 42 33
        E 324 80 2c 00
        E 0 82 42 00
        E 0 90 2a 33
        E 0 92 38 33
        E 812 81 2d 00
        E 0 80 2a 00
        E 0 82 38 00
        E 0 90 2c 33
        E 0 91 2f 33
        E 0 92 39 33
        E 405 82 4c 00
        E 0 92 58 33
        E 406 81 31 00
        E 0 82 39 00
        E 0 91 33 33
        E 0 92 36 33
        E 406 81 33 00
        E 0 82 36 00
        E 0 91 31 33
        E 0 92 33 33
        E 326 80 2c 00
        E 0 81 2f 00
        E 0 82 58 00
        E 0 81 31 00
        E 0 82 33 00
        E 0 90 31 33
        E 0 91 33 33
        E 0 91 3b 33
        E 0 92 44 33
        E 0 92 64 33
        E 815 80 31 00
        E 0 81 33 00
        E 0 81 3b 00
        E 0 82 44 00
        E 0 82 64 00
        E 0 90 33 33
        E 0 91 3b 33
        E 0 91 44 33
        E 0 92 58 33
        E 0 92 66 33
        E 326 81 3b 00
        E 0 81 44 00
        E 0 82 58 00
        E 0 82 66 00
        E 0 91 36 33
        E 0 91 38 33
        E 0 92 3b 33
        E 0 92 4c 33
        E 325 81 36 00
        E 0 81 38 00
        E 0 82 3b 00
        E 0 82 4c 00
        E 0 91 3b 33
        E 0 91 44 33
        E 0 92 5a 33
        E 0 92 64 33
        E 652 81 44 00
        E 0 82 5a 00
        E 0 82 64 00
        E 0 91 40 33
        E 0 92 44 33
        E 0 92 4e 33
        E 326 81 40 00
        E 0 82 4e 00
        E 0 91 3d 34
        E 0 92 4c 34
        E 326 80 33 00
        E 0 81 3b 00
        E 0 81 3d 00
        E 0 82 4c 00
        E 0 90 31 34
        E 0 91 3a 34
        E 0 91 3c 34
        E 0 92 4d 34
        E 326 82 44 00
        E 0 81 3a 00
        E 0 82 4d 00
        E 0 91 33 34
        E 0 92 4d 34
        E 0 92 50 34
        E 326 80 31 00
        E 0 81 3c 00
        E 0 81 33 00
        E 0 90 30 36
        E 0 91 31 36
        E 0 91 3a 36
        E 255 82 50 00
        E 0 80 30 00
        E 0 81 31 00
        E 0 81 3a 00
        E 0 90 2e 36
        E 0 91 32 36
        E 0 91 39 36
        E 0 92 4f 36
        E 254 82 4d 00
        E 0 80 2e 00
        E 0 81 39 00
        E 0 82 4f 00
        E 0 90 30 36
        E 0 91 3a 36
        E 0 92 45 36
        E 0 92 59 36
        E 255 80 30 00
        E 0 81 3a 00
        E 0 82 45 00
        E 0 90 2e 3b
        E 0 91 39 3b
        E 0 92 43 3b
        E 199 82 59 00
        E 0 80 2e 00
        E 0 81 39 00
        E 0 82 43 00
        E 0 90 2f 3b
        E 0 91 37 3b
        E 0 92 42 3b
        E 0 92 58 3b
        E 199 81 37 00
        E 0 82 42 00
        E 0 82 58 00
        E 0 91 39 3b
        E 0 92 43 3b
        E 0 92 5a 3b
        E 350 81 32 00
        E 0 80 2f 00
        E 0 81 39 00
        E 0 82 43 00
        E 0 82 5a 00
        E 0 90 2b 3b
        E 0 91 2d 3b
        E 0 91 2f 3b
        E 0 92 32 3b
        E 0 92 4e 3b
        E 152 80 2b 00
        E 0 81 2d 00
        E 0 81 2f 00
        E 0 82 32 00
        E 0 82 4e 00
        E 0 90 2d 3b
        E 0 91 2f 3b
        E 0 91 32 3b
        E 0 92 37 3b
        E 0 92 42 3b
        E 152 80 2d 00
        E 0 81 2f 00
        E 0 81 32 00
        E 0 82 37 00
        E 0 82 42 00
        E 0 90 2f 3b
        E 0 91 32 3b
        E 0 91 39 3b
        E 0 92 5a 3b
        E 0 92 5b 3b
        E 152 81 39 00
        E 0 82 5a 00
        E 0 82 5b 00
        E 0 91 37 3b
        E 0 92 58 3b
        E 0 92 5a 3b
        E 121 80 2f 00
        E 0 81 32 00
        E 0 81 37 00
        E 0 82 58 00
        E 0 90 32 3b
        E 0 91 3b 3b
        E 0 91 40 3b
        E 0 92 43 3b
        E 425 82 5a 00
        E 0 81 3b 00
        E 0 81 40 00
        E 0 82 43 00
        E 0 91 34 36
        E 0 91 37 36
        E 0 92 3b 36
        E 0 92 42 36
        E 185 80 32 00
        E 0 81 34 00
        E 0 82 42 00
        E 0 90 28 36
        E 0 91 32 36
        E 0 92 4e 36
        E 186 80 28 00
        E 0 81 32 00
        E 0 82 4e 00
        E 0 90 32 36
        E 0 91 36 36
        E 0 92 40 36
        E 185 81 37 00
        E 0 81 36 00
        E 0 82 40 00
        E 0 91 37 36
        E 0 91 39 36
        E 0 92 42 36
        E 185 82 3b 00
        E 0 80 32 00
        E 0 81 37 00
        E 0 82 42 00
        E 0 90 2f 36
        E 0 91 32 36
        E 0 92 4f 36
        E 0 92 5a 36
        E 186 81 39 00
        E 0 80 2f 00
        E 0 82 4f 00
        E 0 82 5a 00
        E 0 90 31 36
        E 0 91 36 36
        E 0 92 51 36
        E 0 92 58 36
        E 185 82 58 00
        E 0 92 53 36
        E 149 81 32 00
        E 0 80 31 00
        E 0 81 36 00
        E 0 82 51 00
        E 0 82 53 00
        E 0 90 2a 36
        E 0 91 31 36
        E 0 91 32 36
        E 0 92 3b 36
        E 0 92 69 36
        E 372 80 2a 00
        E 0 81 31 00
        E 0 81 32 00
        E 0 82 3b 00
        E 0 82 69 00
        E 0 90 31 36
        E 0 91 32 36
        E 0 91 39 36
        E 0 92 4e 36
        E 0 92 64 36
        E 148 82 4e 00
        E 0 82 64 00
        E 0 92 58 36
        E 0 92 5a 36
        E 149 80 31 00
        E 0 81 32 00
        E 0 81 39 00
        E 0 82 58 00
        E 0 82 5a 00
        E 0 90 28 36
        E 0 91 31 36
        E 0 91 32 36
        E 0 92 39 36
        E 0 92 4e 36
        E 298 80 28 00
        E 0 81 31 00
        E 0 81 32 00
        E 0 82 4e 00
        E 0 90 31 36
        E 0 91 32 36
        E 0 91 36 36
        E 0 92 4c 36
        E 149 80 31 00
        E 0 81 32 00
        E 0 82 4c 00
        E 0 90 2f 3b
        E 0 91 31 3b
        E 0 92 4a 3b
        E 148 82 39 00
        E 0 80 2f 00
        E 0 81 31 00
        E 0 82 4a 00
        E 0 90 2e 3b
        E 0 91 2f 3b
        E 0 92 38 3b
        E 0 92 4b 3b
        E 149 81 36 00
        E 0 82 38 00
        E 0 82 4b 00
        E 0 91 31 3b
        E 0 92 33 3b
        E 0 92 5a 3b
        E 262 80 2e 00
        E 0 81 2f 00
        E 0 81 31 00
        E 0 82 33 00
        E 0 82 5a 00
        E 0 90 2f 3b
        E 0 91 31 3b
        E 0 91 33 3b
        E 0 92 4e 3b
        E 0 92 52 3b
        E 114 82 4e 00
        E 0 82 52 00
        E 0 92 42 3b
        E 0 92 5e 3b
        E 114 82 42 00
        E 0 82 5e 00
        E 0 92 46 3b
        E 0 92 5a 3b
        E 113 80 2f 00
        E 0 81 31 00
        E 0 82 46 00
        E 0 90 2e 3b
        E 0 91 2f 3b
        E 0 92 44 3b
        E 91 81 33 00
        E 0 82 5a 00
        E 0 80 2e 00
        E 0 81 2f 00
        E 0 82 44 00
        E 0 90 2a 3b
        E 0 91 2e 3b
        E 0 91 2f 3b
        E 0 92 33 3b
        E 0 92 38 3b
        E 535 80 2a 00
        E 0 81 2e 00
        E 0 81 2f 00
        E 0 82 33 00
        E 0 82 38 00
        E 0 90 2e 34
        E 0 91 2f 34
        E 0 91 33 34
        E 0 92 50 34
        E 0 92 66 34
        E 216 82 50 00
        E 0 82 66 00
        E 0 92 5a 34
        E 0 92 5c 34
        E 217 80 2e 00
        E 0 81 2f 00
        E 0 81 33 00
        E 0 82 5a 00
        E 0 82 5c 00
        E 0 90 2a 34
        E 0 91 2e 34
        E 0 91 2f 34
        E 0 92 33 34
        E 0 92 50 34
        E 216 80 2a 00
        E 0 81 2e 00
        E 0 81 2f 00
        E 0 82 33 00
        E 0 82 50 00
        E 0 90 2f 34
        E 0 91 31 34
        E 0 91 33 34
        E 0 92 4e 34
        E 0 92 5e 34
        E 217 80 2f 00
        E 0 82 4e 00
        E 0 82 5e 00
        E 0 90 2e 34
        E 0 92 3b 34
        E 0 92 42 34
        E 216 80 2e 00
        E 0 82 3b 00
        E 0 82 42 00
        E 0 90 2f 34
        E 0 92 52 34
        E 0 92 5a 34
        E 433 82 52 00
        E 0 82 5a 00
        E 0 92 36 34
        E 0 92 46 34
        E 217 81 33 00
        E 0 80 2f 00
        E 0 82 46 00
        E 0 90 2e 34
        E 0 91 35 34
        E 0 92 44 34
        E 216 81 35 00
        E 0 82 44 00
        E 0 91 33 34
        E 0 92 41 34
        E 174 82 36 00
        E 0 80 2e 00
        E 0 81 33 00
        E 0 82 41 00
        E 0 90 2f 33
        E 0 91 32 33
        E 0 92 39 33
        E 0 92 42 33
        E 82 80 2f 00
        E 0 81 32 00
        E 0 82 39 00
        E 0 90 2d 33
        E 0 91 34 33
        E 0 92 38 33
        E 82 82 42 00
        E 0 80 2d 00
        E 0 82 38 00
        E 0 90 2c 33
        E 0 92 3b 33
        E 0 92 3f 33
        E 82 81 31 00
        E 0 81 34 00
        E 0 82 3b 00
        E 0 91 2f 33
        E 0 91 36 33
        E 0 92 3a 33
        E 82 80 2c 00
        E 0 82 3f 00
        E 0 81 2f 00
        E 0 81 36 00
        E 0 82 3a 00
        E 0 90 2d 34
        E 0 91 2e 34
        E 0 91 32 34
        E 0 92 35 34
        E 0 92 4f 34
        E 434 80 2d 00
        E 0 81 2e 00
        E 0 82 4f 00
        E 0 90 2e 34
        E 0 91 30 34
        E 0 92 51 34
        E 218 82 35 00
        E 0 92 41 34
        E 217 81 32 00
        E 0 80 2e 00
        E 0 82 51 00
        E 0 90 2d 34
        E 0 91 34 34
        E 0 92 4f 34
        E 218 81 34 00
        E 0 82 4f 00
        E 0 91 32 34
        E 0 92 4c 34
        E 174 81 30 00
        E 0 82 41 00
        E 0 80 2d 00
        E 0 81 32 00
        E 0 82 4c 00
        E 0 90 30 34
        E 0 91 32 34
        E 0 91 39 34
        E 0 92 4c 34
        E 0 92 65 34
        E 437 81 32 00
        E 0 91 37 34
        E 218 80 30 00
        E 0 81 39 00
        E 0 82 4c 00
        E 0 82 65 00
        E 0 81 37 00
        E 0 90 2b 34
        E 0 91 2d 34
        E 0 91 30 34
        E 0 92 40 34
        E 0 92 59 34
        E 218 81 2d 00
        E 0 82 40 00
        E 0 82 59 00
        E 0 91 2f 34
        E 0 92 3e 34
        E 0 92 58 34
        E 219 82 3e 00
        E 0 92 39 34
        E 175 80 2b 00
        E 0 82 58 00
        E 0 82 39 00
        E 0 90 2d 34
        E 0 92 58 34
        E 0 92 67 34
        E 438 81 30 00
        E 0 81 2f 00
        E 0 80 2d 00
        E 0 82 58 00
        E 0 82 67 00
        E 0 90 30 34
        E 0 91 32 34
        E 0 91 3b 34
        E 0 92 4c 34
        E 0 92 4f 34
        E 176 82 4c 00
        E 0 82 4f 00
        E 0 92 40 34
        E 0 92 5b 34
        E 175 82 40 00
        E 0 82 5b 00
        E 0 92 43 34
        E 0 92 58 34
        E 351 81 3b 00
        E 0 82 43 00
        E 0 82 58 00
        E 0 91 34 34
        E 0 92 37 34
        E 0 92 3b 34
        E 175 80 30 00
        E 0 81 32 00
        E 0 82 3b 00
        E 0 90 2f 36
        E 0 91 30 36
        E 0 92 39 36
        E 175 82 37 00
        E 0 80 2f 00
        E 0 81 30 00
        E 0 82 39 00
        E 0 90 2d 36
        E 0 91 31 36
        E 0 92 36 36
        E 0 92 38 36
        E 176 81 34 00
        E 0 80 2d 00
        E 0 81 31 00
        E 0 82 36 00
        E 0 82 38 00
        E 0 90 2c 36
        E 0 91 2f 36
        E 0 91 31 36
        E 0 92 39 36
        E 0 92 40 36
        E 175 81 2f 00
        E 0 82 39 00
        E 0 91 2d 3b
        E 0 92 36 3b
        E 137 80 2c 00
        E 0 82 40 00
        E 0 81 2d 00
        E 0 82 36 00
        E 0 90 2a 3b
        E 0 91 2e 3b
        E 0 92 35 3b
        E 0 92 3f 3b
        E 137 82 35 00
        E 0 82 3f 00
        E 0 92 38 3b
        E 0 92 41 3b
        E 241 81 31 00
        E 0 80 2a 00
        E 0 81 2e 00
        E 0 82 41 00
        E 0 90 2e 3b
        E 0 91 31 3b
        E 0 91 35 3b
        E 0 92 4e 3b
        E 105 80 2e 00
        E 0 81 31 00
        E 0 81 35 00
        E 0 82 4e 00
        E 0 90 29 3b
        E 0 91 2e 3b
        E 0 91 31 3b
        E 0 92 5a 3b
        E 104 82 38 00
        E 0 80 29 00
        E 0 81 2e 00
        E 0 81 31 00
        E 0 82 5a 00
        E 0 90 2e 3b
        E 0 91 31 3b
        E 0 91 38 3b
        E 0 92 41 3b
        E 0 92 42 3b
        E 105 81 38 00
        E 0 91 33 3b
        E 83 80 2e 00
        E 0 82 41 00
        E 0 82 42 00
        E 0 90 29 3b
        E 0 92 42 3b
        E 0 92 46 3b
        E 293 81 31 00
        E 0 81 33 00
        E 0 80 29 00
        E 0 82 42 00
        E 0 82 46 00
        E 0 90 31 36
        E 0 91 33 36
        E 0 91 46 36
        E 0 92 5a 36
        E 0 92 65 36
        E 128 82 5a 00
        E 0 82 65 00
        E 0 92 59 36
        E 0 92 66 36
        E 127 80 31 00
        E 0 81 33 00
        E 0 81 46 00
        E 0 82 59 00
        E 0 82 66 00
        E 0 90 29 36
        E 0 91 31 36
        E 0 91 33 36
        E 0 92 46 36
        E 0 92 5a 36
        E 128 80 29 00
        E 0 81 33 00
        E 0 90 2c 36
        E 0 91 35 36
        E 127 82 46 00
        E 0 82 5a 00
        E 0 80 2c 00
        E 0 81 35 00
        E 0 90 2e 36
        E 0 91 36 36
        E 0 92 38 36
        E 0 92 41 36
        E 128 80 2e 00
        E 0 81 36 00
        E 0 82 38 00
        E 0 90 2c 36
        E 0 91 33 36
        E 0 92 3c 36
        E 128 81 31 00
        E 0 81 33 00
        E 0 82 3c 00
        E 0 91 30 36
        E 0 91 31 36
        E 0 92 3a 36
        E 102 82 41 00
        E 0 80 2c 00
        E 0 81 30 00
        E 0 81 31 00
        E 0 82 3a 00
        E 0 90 30 36
        E 0 91 31 36
        E 0 91 3a 36
        E 0 92 44 36
        E 0 92 59 36
        E 256 81 3a 00
        E 0 82 44 00
        E 0 82 59 00
        E 0 91 33 36
        E 0 92 38 36
        E 0 92 4d 36
        E 103 82 38 00
        E 0 82 4d 00
        E 0 92 41 36
        E 0 92 44 36
        E 102 80 30 00
        E 0 81 31 00
        E 0 81 33 00
        E 0 82 41 00
        E 0 82 44 00
        E 0 90 31 36
        E 0 91 33 36
        E 0 91 3c 36
        E 0 92 59 36
        E 0 92 68 36
        E 205 81 3c 00
        E 0 82 59 00
        E 0 82 68 00
        E 0 91 35 36
        E 0 92 3c 36
        E 0 92 5c 36
        E 102 80 31 00
        E 0 81 33 00
        E 0 82 3c 00
        E 0 90 30 3b
        E 0 91 31 3b
        E 0 92 3a 3b
        E 103 82 5c 00
        E 0 80 30 00
        E 0 81 31 00
        E 0 82 3a 00
        E 0 90 2e 3b
        E 0 91 32 3b
        E 0 92 39 3b
        E 0 92 5b 3b
        E 102 81 35 00
        E 0 80 2e 00
        E 0 82 39 00
        E 0 82 5b 00
        E 0 90 30 3b
        E 0 91 3a 3b
        E 0 92 41 3b
        E 0 92 51 3b
        E 181 81 32 00
        E 0 80 30 00
        E 0 81 3a 00
        E 0 82 41 00
        E 0 82 51 00
        E 0 90 2e 3b
        E 0 91 30 3b
        E 0 91 32 3b
        E 0 92 35 3b
        E 0 92 39 3b
        E 78 80 2e 00
        E 0 81 30 00
        E 0 81 32 00
        E 0 82 35 00
        E 0 82 39 00
        E 0 90 29 3b
        E 0 91 2e 3b
        E 0 91 30 3b
        E 0 92 32 3b
        E 0 92 45 3b
        E 78 80 29 00
        E 0 82 45 00
        E 0 90 2d 3b
        E 0 92 41 3b
        E 79 81 2e 00
        E 0 81 30 00
        E 0 80 2d 00
        E 0 90 2b 3b
        E 0 91 2d 3b
        E 0 91 2e 3b
        E 62 82 32 00
        E 0 82 41 00
        E 0 80 2b 00
        E 0 81 2d 00
        E 0 81 2e 00
        E 0 90 2e 3b
        E 0 91 32 3b
        E 0 91 39 3b
        E 0 92 4f 3b
        E 0 92 59 3b
        E 965 80 2e 00
        E 0 81 32 00
        E 0 81 39 00
        E 0 82 4f 00
        E 0 82 59 00
        E 0 90 2d 32
        E 0 91 2e 32
        E 0 91 32 32
        E 0 92 37 32
        E 0 92 4d 32
        E 364 82 37 00
        E 0 82 4d 00
        E 0 92 41 32
        E 0 92 43 32
        E 364 80 2d 00
        E 0 81 2e 00
        E 0 81 32 00
        E 0 82 41 00
        E 0 82 43 00
        E 0 90 2b 32
        E 0 91 2d 32
        E 0 91 2e 32
        E 0 92 32 32
        E 0 92 59 32
        E 364 80 2b 00
        E 0 81 2d 00
        E 0 81 2e 00
        E 0 82 32 00
        E 0 82 59 00
        E 0 90 2e 32
        E 0 91 30 32
        E 0 91 32 32
        E 0 92 35 32
        E 0 92 45 32
        E 364 80 2e 00
        E 0 81 30 00
        E 0 81 32 00
        E 0 82 35 00
        E 0 82 45 00
        E 0 90 29 32
        E 0 91 2e 32
        E 0 91 30 32
        E 0 92 32 32
        E 0 92 51 32
        E 364 80 29 00
        E 0 81 2e 00
        E 0 81 30 00
        E 0 82 32 00
        E 0 82 51 00
        E 0 90 2e 32
        E 0 91 30 32
        E 0 91 32 32
        E 0 92 39 32
        E 0 92 41 32
        E 728 80 2e 00
        E 0 81 30 00
        E 0 81 32 00
        E 0 82 39 00
        E 0 82 41 00
        E 0 90 30 32
        E 0 91 32 32
        E 0 91 3a 32
        E 0 92 5d 32
        E 0 92 65 32
        E 364 81 32 00
        E 0 81 3a 00
        E 0 82 5d 00
        E 0 91 34 32
        E 0 91 39 32
        E 0 92 5b 32
        E 364 82 65 00
        E 0 81 34 00
        E 0 82 5b 00
        E 0 91 32 32
        E 0 92 59 32
        E 0 92 64 32
        E 293 81 39 00
        E 0 81 32 00
        E 0 82 59 00
        E 0 82 64 00
        E 0 91 31 32
        E 0 91 3a 32
        E 0 92 5c 32
        E 0 92 65 32
        E 137 81 31 00
        E 0 81 3a 00
        E 0 82 5c 00
        E 0 91 33 32
        E 0 91 38 32
        E 0 92 5b 32
        E 138 82 65 00
        E 0 81 38 00
        E 0 91 3a 32
        E 0 92 62 32
        E 137 80 30 00
        E 0 81 33 00
        E 0 82 62 00
        E 0 90 2d 32
        E 0 91 32 32
        E 0 92 65 32
        E 138 82 5b 00
        E 0 81 3a 00
        E 0 80 2d 00
        E 0 81 32 00
        E 0 82 65 00
        E 0 90 2a 32
        E 0 91 2c 32
        E 0 91 2d 32
        E 0 92 31 32
        E 0 92 64 32
        E 731 80 2a 00
        E 0 81 2c 00
        E 0 81 2d 00
        E 0 82 31 00
        E 0 90 2d 32
        E 0 91 2f 32
        E 0 91 31 32
        E 0 92 50 32
        E 365 82 64 00
        E 0 82 50 00
        E 0 92 58 32
        E 0 92 5c 32
        E 366 80 2d 00
        E 0 81 2f 00
        E 0 81 31 00
        E 0 82 58 00
        E 0 82 5c 00
        E 0 90 28 32
        E 0 91 2d 32
        E 0 91 2f 32
        E 0 92 31 32
        E 0 92 50 32
        E 731 80 28 00
        E 0 81 2d 00
        E 0 81 2f 00
        E 0 82 31 00
        E 0 82 50 00
        E 0 90 2d 32
        E 0 91 2f 32
        E 0 91 31 32
        E 0 92 38 32
        E 0 92 4c 32
        E 365 80 2d 00
        E 0 81 31 00
        E 0 82 38 00
        E 0 90 2c 32
        E 0 91 33 32
        E 0 92 36 32
        E 366 81 33 00
        E 0 82 36 00
        E 0 91 31 32
        E 0 92 33 32
        E 293 80 2c 00
        E 0 81 31 00
        E 0 82 33 00
        E 0 90 2d 32
        E 0 91 30 32
        E 0 92 37 32
        E 139 80 2d 00
        E 0 81 30 00
        E 0 82 37 00
        E 0 90 2b 32
        E 0 91 32 32
        E 0 92 36 32
        E 138 82 4c 00
        E 0 80 2b 00
        E 0 82 36 00
        E 0 90 2a 32
        E 0 92 39 32
        E 0 92 49 32
        E 138 81 2f 00
        E 0 81 32 00
        E 0 82 39 00
        E 0 91 2d 32
        E 0 91 34 32
        E 0 92 38 32
        E 138 80 2a 00
        E 0 82 49 00
        E 0 81 2d 00
        E 0 81 34 00
        E 0 82 38 00
        E 0 90 33 32
        E 0 91 38 32
        E 0 91 3c 32
        E 0 92 4f 32
        E 0 92 59 32
        E 734 80 33 00
        E 0 81 38 00
        E 0 81 3c 00
        E 0 82 4f 00
        E 0 82 59 00
        E 0 90 2e 32
        E 0 91 30 32
        E 0 91 33 32
        E 0 92 43 32
        E 0 92 68 32
        E 367 80 2e 00
        E 0 82 43 00
        E 0 82 68 00
        E 0 90 2c 32
        E 0 92 37 32
        E 0 92 3a 32
        E 367 80 2c 00
        E 0 82 37 00
        E 0 82 3a 00
        E 0 90 2e 32
        E 0 92 4f 32
        E 0 92 5c 32
        E 734 81 30 00
        E 0 81 33 00
        E 0 80 2e 00
        E 0 82 4f 00
        E 0 82 5c 00
        E 0 90 2b 32
        E 0 91 2e 32
        E 0 91 30 32
        E 0 92 33 32
        E 0 92 50 32
        E 367 81 30 00
        E 0 82 50 00
        E 0 91 32 32
        E 0 92 4d 32
        E 367 81 32 00
        E 0 82 4d 00
        E 0 91 30 32
        E 0 92 4a 32
        E 294 80 2b 00
        E 0 81 30 00
        E 0 82 4a 00
        E 0 90 2c 32
        E 0 91 2f 32
        E 0 92 4e 32
        E 139 80 2c 00
        E 0 81 2f 00
        E 0 82 4e 00
        E 0 90 2a 32
        E 0 91 31 32
        E 0 92 4d 32
        E 139 82 33 00
        E 0 80 2a 00
        E 0 81 31 00
        E 0 90 2c 32
        E 0 91 30 32
        E 0 92 31 32
        E 138 81 2e 00
        E 0 80 2c 00
        E 0 82 31 00
        E 0 90 2b 32
        E 0 91 2c 32
        E 0 92 33 32
        E 139 82 4d 00
        E 0 81 30 00
        E 0 80 2b 00
        E 0 81 2c 00
        E 0 82 33 00
        E 0 90 32 32
        E 0 91 37 32
        E 0 91 3b 32
        E 0 92 40 32
        E 0 92 66 32
        E 737 81 37 00
        E 0 82 40 00
        E 0 91 39 32
        E 0 92 43 32
        E 368 80 32 00
        E 0 81 3b 00
        E 0 82 66 00
        E 0 81 39 00
        E 0 82 43 00
        E 0 90 2d 32
        E 0 91 2f 32
        E 0 91 32 32
        E 0 92 36 32
        E 0 92 5b 32
        E 369 81 2f 00
        E 0 82 5b 00
        E 0 91 31 32
        E 0 92 58 32
        E 368 82 58 00
        E 0 92 53 32
        E 296 80 2d 00
        E 0 82 36 00
        E 0 82 53 00
        E 0 90 2f 32
        E 0 92 4e 32
        E 0 92 69 32
        E 740 81 32 00
        E 0 81 31 00
        E 0 80 2f 00
        E 0 90 31 32
        E 0 91 32 32
        E 0 91 34 32
        E 370 82 4e 00
        E 0 82 69 00
        E 0 80 31 00
        E 0 81 32 00
        E 0 81 34 00
        E 0 90 2a 32
        E 0 91 31 32
        E 0 91 32 32
        E 0 92 45 32
        E 0 92 4c 32
        E 370 80 2a 00
        E 0 81 31 00
        E 0 81 32 00
        E 0 82 45 00
        E 0 90 2d 32
        E 0 91 2f 32
        E 0 91 31 32
        E 0 92 44 32
        E 370 80 2d 00
        E 0 81 2f 00
        E 0 82 44 00
        E 0 90 2c 32
        E 0 91 2d 32
        E 0 92 42 32
        E 297 80 2c 00
        E 0 82 42 00
        E 0 90 2a 32
        E 0 92 38 32
        E 742 82 4c 00
        E 0 81 31 00
        E 0 81 2d 00
        E 0 80 2a 00
        E 0 82 38 00
        E 0 90 2f 32
        E 0 91 31 32
        E 0 91 39 32
        E 0 92 4c 32
        E 0 92 50 32
        E 372 82 4c 00
        E 0 82 50 00
        E 0 92 40 32
        E 0 92 5c 32
        E 371 82 40 00
        E 0 82 5c 00
        E 0 92 44 32
        E 0 92 58 32
        E 743 81 39 00
        E 0 82 44 00
        E 0 82 58 00
        E 0 91 34 32
        E 0 92 38 32
        E 0 92 39 32
        E 371 81 31 00
        E 0 82 38 00
        E 0 82 39 00
        E 0 91 33 32
        E 0 92 36 32
        E 0 92 38 32
        E 372 81 34 00
        E 0 81 33 00
        E 0 82 36 00
        E 0 91 31 32
        E 0 91 33 32
        E 0 92 34 32
        E 298 82 38 00
        E 0 81 31 00
        E 0 81 33 00
        E 0 82 34 00
        E 0 91 30 32
        E 0 91 34 32
        E 0 92 37 32
        E 0 92 39 32
        E 140 81 30 00
        E 0 82 37 00
        E 0 82 39 00
        E 0 91 32 32
        E 0 92 36 32
        E 0 92 37 32
        E 141 80 2f 00
        E 0 81 34 00
        E 0 81 32 00
        E 0 82 37 00
        E 0 90 2d 32
        E 0 91 31 32
        E 0 91 32 32
        E 0 92 3b 32
        E 140 81 32 00
        E 0 82 3b 00
        E 0 91 34 32
        E 0 92 38 32
        E 140 82 36 00
        E 0 80 2d 00
        E 0 81 31 00
        E 0 81 34 00
        E 0 82 38 00
        E 0 90 33 32
        E 0 91 3c 32
        E 0 91 41 32
        E 0 92 44 32
        E 0 92 4f 32
        E 746 81 41 00
        E 0 82 44 00
        E 0 91 44 32
        E 0 92 46 32
        E 373 80 33 00
        E 0 81 3c 00
        E 0 82 4f 00
        E 0 81 44 00
        E 0 82 46 00
        E 0 90 30 32
        E 0 91 33 32
        E 0 91 37 32
        E 0 92 3a 32
        E 0 92 44 32
        E 373 80 30 00
        E 0 81 37 00
        E 0 82 3a 00
        E 0 82 44 00
        E 0 90 32 32
        E 0 91 35 32
        E 0 92 37 32
        E 0 92 46 32
        E 373 81 33 00
        E 0 80 32 00
        E 0 81 35 00
        E 0 90 30 32
        E 0 91 32 32
        E 0 91 33 32
        E 299 82 37 00
        E 0 82 46 00
        E 0 80 30 00
        E 0 81 32 00
        E 0 81 33 00
        E 0 90 32 32
        E 0 91 33 32
        E 0 91 3c 32
        E 0 92 4f 32
        E 0 92 5e 32
        E 749 81 3c 00
        E 0 91 41 32
        E 374 82 4f 00
        E 0 82 5e 00
        E 0 81 41 00
        E 0 91 46 32
        E 0 92 4d 32
        E 0 92 5b 32
        E 375 80 32 00
        E 0 81 33 00
        E 0 81 46 00
        E 0 82 5b 00
        E 0 90 30 32
        E 0 91 32 32
        E 0 91 45 32
        E 0 92 5e 32
        E 374 80 30 00
        E 0 82 5e 00
        E 0 90 2e 32
        E 0 92 5b 32
        E 301 81 45 00
        E 0 91 39 32
        E 752 82 4d 00
        E 0 81 32 00
        E 0 82 5b 00
        E 0 81 39 00
        E 0 91 30 32
        E 0 91 32 32
        E 0 92 45 32
        E 0 92 4d 32
        E 376 82 45 00
        E 0 82 4d 00
        E 0 92 41 32
        E 0 92 51 32
        E 375 82 41 00
        E 0 82 51 00
        E 0 92 39 32
        E 0 92 59 32
        E 752 80 2e 00
        E 0 81 30 00
        E 0 81 32 00
        E 0 82 39 00
        E 0 82 59 00
        E 0 90 2d 32
        E 0 91 2e 32
        E 0 91 30 32
        E 0 92 32 32
        E 0 92 35 32
        E 376 80 2d 00
        E 0 81 2e 00
        E 0 82 32 00
        E 0 90 2b 32
        E 0 91 2d 32
        E 0 92 34 32
        E 376 82 35 00
        E 0 80 2b 00
        E 0 82 34 00
        E 0 90 29 32
        E 0 92 32 32
        E 0 92 34 32
        E 302 81 30 00
        E 0 81 2d 00
        E 0 82 32 00
        E 0 82 34 00
        E 0 91 2c 32
        E 0 91 2e 32
        E 0 92 30 32
        E 0 92 31 32
        E 142 80 29 00
        E 0 81 2e 00
        E 0 82 30 00
        E 0 82 31 00
        E 0 90 2b 32
        E 0 91 30 32
        E 0 92 33 32
        E 0 92 35 32
        E 142 81 2c 00
        E 0 82 33 00
        E 0 82 35 00
        E 0 91 2e 32
        E 0 92 32 32
        E 0 92 33 32
        E 142 80 2b 00
        E 0 81 30 00
        E 0 81 2e 00
        E 0 82 33 00
        E 0 90 29 32
        E 0 91 2d 32
        E 0 91 2e 32
        E 0 92 37 32
        E 142 82 32 00
        E 0 80 29 00
        E 0 81 2e 00
        E 0 82 37 00
        E 0 90 2c 32
        E 0 91 31 32
        E 0 92 34 32
        E 0 92 36 32
        E 755 81 2d 00
        E 0 80 2c 00
        E 0 82 36 00
        E 0 90 2d 32
        E 0 91 2f 32
        E 0 92 5c 32
        E 377 81 31 00
        E 0 82 34 00
        E 0 80 2d 00
        E 0 81 2f 00
        E 0 82 5c 00
        E 0 90 28 32
        E 0 91 2d 32
        E 0 91 2f 32
        E 0 92 31 32
        E 0 92 68 32
        E 378 80 28 00
        E 0 81 2d 00
        E 0 81 2f 00
        E 0 82 31 00
        E 0 82 68 00
        E 0 90 2d 32
        E 0 91 2f 32
        E 0 91 31 32
        E 0 92 40 32
        E 0 92 50 32
        E 754 82 40 00
        E 0 82 50 00
        E 0 92 38 32
        E 0 92 64 32
        E 378 80 2d 00
        E 0 81 31 00
        E 0 82 38 00
        E 0 90 2c 32
        E 0 91 33 32
        E 0 92 36 32
        E 377 81 33 00
        E 0 82 36 00
        E 0 91 31 32
        E 0 92 33 32
        E 303 80 2c 00
        E 0 81 31 00
        E 0 82 33 00
        E 0 90 2d 32
        E 0 91 30 32
        E 0 92 37 32
        E 143 80 2d 00
        E 0 81 30 00
        E 0 82 37 00
        E 0 90 2b 32
        E 0 91 32 32
        E 0 92 36 32
        E 143 82 64 00
        E 0 80 2b 00
        E 0 82 36 00
        E 0 90 2a 32
        E 0 92 39 32
        E 0 92 61 32
        E 142 81 2f 00
        E 0 81 32 00
        E 0 82 39 00
        E 0 91 2d 32
        E 0 91 34 32
        E 0 92 38 32
        E 143 80 2a 00
        E 0 82 61 00
        E 0 81 2d 00
        E 0 81 34 00
        E 0 82 38 00
        E 0 90 29 32
        E 0 91 33 32
        E 0 91 38 32
        E 0 92 3c 32
        E 0 92 5b 32
        E 758 80 29 00
        E 0 90 2e 32
        E 379 81 33 00
        E 0 81 38 00
        E 0 82 3c 00
        E 0 82 5b 00
        E 0 91 30 32
        E 0 91 33 32
        E 0 92 44 32
        E 0 92 67 32
        E 378 81 30 00
        E 0 82 44 00
        E 0 82 67 00
        E 0 91 32 32
        E 0 92 43 32
        E 0 92 65 32
        E 379 82 65 00
        E 0 92 60 32
        E 305 80 2e 00
        E 0 82 43 00
        E 0 82 60 00
        E 0 90 30 32
        E 0 92 37 32
        E 0 92 5e 32
        E 761 81 33 00
        E 0 81 32 00
        E 0 80 30 00
        E 0 90 32 32
        E 0 91 33 32
        E 0 91 35 32
        E 380 82 37 00
        E 0 82 5e 00
        E 0 92 3a 32
        E 0 92 67 32
        E 380 80 32 00
        E 0 81 33 00
        E 0 82 67 00
        E 0 90 30 32
        E 0 91 32 32
        E 0 92 69 32
        E 381 82 3a 00
        E 0 80 30 00
        E 0 82 69 00
        E 0 90 2e 32
        E 0 92 39 32
        E 0 92 67 32
        E 305 81 35 00
        E 0 81 32 00
        E 0 80 2e 00
        E 0 82 39 00
        E 0 90 2d 32
        E 0 91 2e 32
        E 0 91 32 32
        E 0 92 35 32
        E 764 82 67 00
        E 0 80 2d 00
        E 0 81 2e 00
        E 0 81 32 00
        E 0 82 35 00
        E 0 90 30 32
        E 0 91 32 32
        E 0 91 35 32
        E 0 92 3a 32
        E 0 92 45 32
        E 382 80 30 00
        E 0 81 32 00
        E 0 81 35 00
        E 0 82 45 00
        E 0 90 29 32
        E 0 91 30 32
        E 0 91 32 32
        E 0 92 51 32
        E 382 80 29 00
        E 0 81 30 00
        E 0 81 32 00
        E 0 82 51 00
        E 0 90 30 32
        E 0 91 32 32
        E 0 91 39 32
        E 0 92 41 32
        E 764 82 3a 00
        E 0 80 30 00
        E 0 81 32 00
        E 0 81 39 00
        E 0 82 41 00
        E 0 90 2e 32
        E 0 91 30 32
        E 0 91 32 32
        E 0 92 65 32
        E 0 92 69 32
        E 382 80 2e 00
        E 0 81 32 00
        E 0 82 69 00
        E 0 90 2d 32
        E 0 91 34 32
        E 0 92 67 32
        E 382 82 65 00
        E 0 81 34 00
        E 0 82 67 00
        E 0 91 32 32
        E 0 92 64 32
        E 0 92 65 32
        E 307 80 2d 00
        E 0 81 32 00
        E 0 82 64 00
        E 0 82 65 00
        E 0 90 2e 32
        E 0 91 31 32
        E 0 92 65 32
        E 0 92 68 32
        E 144 80 2e 00
        E 0 81 31 00
        E 0 82 68 00
        E 0 90 2c 32
        E 0 91 33 32
        E 0 92 67 32
        E 145 82 65 00
        E 0 80 2c 00
        E 0 90 2e 32
        E 0 92 62 32
        E 144 81 30 00
        E 0 81 33 00
        E 0 80 2e 00
        E 0 90 2d 32
        E 0 91 2e 32
        E 0 91 35 32
        E 144 82 67 00
        E 0 82 62 00
        E 0 80 2d 00
        E 0 81 2e 00
        E 0 81 35 00
        E 0 90 2a 32
        E 0 91 2d 32
        E 0 91 31 32
        E 0 92 38 32
        E 0 92 64 32
        E 767 80 2a 00
        E 0 81 2d 00
        E 0 82 38 00
        E 0 90 2c 32
        E 0 91 2f 32
        E 0 92 39 32
        E 384 82 64 00
        E 0 80 2c 00
        E 0 82 39 00
        E 0 90 28 32
        E 0 92 38 32
        E 0 92 39 32
        E 383 81 31 00
        E 0 80 28 00
        E 0 82 38 00
        E 0 82 39 00
        E 0 90 2a 32
        E 0 91 33 32
        E 0 92 34 32
        E 0 92 38 32
        E 384 80 2a 00
        E 0 81 33 00
        E 0 82 34 00
        E 0 90 28 32
        E 0 91 31 32
        E 0 92 33 32
        E 308 81 2f 00
        E 0 82 38 00
        E 0 80 28 00
        E 0 81 31 00
        E 0 82 33 00
        E 0 90 31 32
        E 0 91 33 32
        E 0 91 34 32
        E 0 92 3b 32
        E 0 92 50 32
        E 770 80 31 00
        E 0 81 33 00
        E 0 81 34 00
        E 0 90 33 32
        E 0 91 34 32
        E 0 91 36 32
        E 385 82 3b 00
        E 0 82 50 00
        E 0 81 36 00
        E 0 91 3b 32
        E 0 92 44 32
        E 0 92 4e 32
        E 385 80 33 00
        E 0 81 34 00
        E 0 82 44 00
        E 0 90 31 32
        E 0 91 33 32
        E 0 92 46 32
        E 385 81 3b 00
        E 0 80 31 00
        E 0 82 46 00
        E 0 90 2f 32
        E 0 91 3a 32
        E 0 92 44 32
        E 309 82 4e 00
        E 0 81 3a 00
        E 0 82 44 00
        E 0 91 36 32
        E 0 92 3a 32
        E 0 92 50 32
        E 773 81 33 00
        E 0 81 36 00
        E 0 82 3a 00
        E 0 82 50 00
        E 0 91 31 32
        E 0 91 33 32
        E 0 92 36 32
        E 0 92 3a 32
        E 309 80 2f 00
        E 0 81 31 00
        E 0 81 33 00
        E 0 82 36 00
        E 0 82 3a 00
        E 0 90 2a 32
        E 0 91 2f 32
        E 0 91 31 32
        E 0 92 33 32
        E 0 92 46 32
        E 310 80 2a 00
        E 0 82 46 00
        E 0 90 2e 32
        E 0 92 42 32
        E 618 81 2f 00
        E 0 81 31 00
        E 0 82 33 00
        E 0 80 2e 00
        E 0 82 42 00
        E 0 90 31 32
        E 0 91 33 32
        E 0 91 3b 32
        E 0 92 5e 32
        E 0 92 66 32
        E 309 80 31 00
        E 0 81 3b 00
        E 0 82 5e 00
        E 0 90 2f 33
        E 0 91 3a 33
        E 0 92 5c 33
        E 310 82 66 00
        E 0 80 2f 00
        E 0 81 3a 00
        E 0 82 5c 00
        E 0 90 30 33
        E 0 91 38 33
        E 0 92 5b 33
        E 0 92 65 33
        E 309 81 38 00
        E 0 82 5b 00
        E 0 82 65 00
        E 0 91 3a 33
        E 0 92 50 33
        E 0 92 67 33
        E 309 81 3a 00
        E 0 82 50 00
        E 0 82 67 00
        E 0 91 38 34
        E 0 92 4f 34
        E 0 92 65 34
        E 242 81 33 00
        E 0 81 38 00
        E 0 82 4f 00
        E 0 82 65 00
        E 0 91 32 34
        E 0 91 39 34
        E 0 92 4d 34
        E 0 92 64 34
        E 241 80 30 00
        E 0 81 32 00
        E 0 81 39 00
        E 0 82 4d 00
        E 0 82 64 00
        E 0 90 28 34
        E 0 91 2d 34
        E 0 91 30 34
        E 0 92 37 34
        E 0 92 59 34
        E 242 82 37 00
        E 0 92 32 36
        E 189 80 28 00
        E 0 81 30 00
        E 0 82 59 00
        E 0 90 2a 36
        E 0 91 2f 36
        E 0 92 55 36
        E 189 81 2d 00
        E 0 82 32 00
        E 0 80 2a 00
        E 0 81 2f 00
        E 0 82 55 00
        E 0 90 31 36
        E 0 91 32 36
        E 0 91 40 36
        E 0 92 45 36
        E 0 92 66 36
        E 188 81 40 00
        E 0 91 3b 3b
        E 148 80 31 00
        E 0 81 32 00
        E 0 82 45 00
        E 0 81 3b 00
        E 0 90 2f 3b
        E 0 91 33 3b
        E 0 91 3a 3b
        E 0 92 44 3b
        E 147 82 66 00
        E 0 80 2f 00
        E 0 81 33 00
        E 0 81 3a 00
        E 0 82 44 00
        E 0 90 2e 3b
        E 0 91 31 3b
        E 0 91 33 3b
        E 0 92 47 3b
        E 0 92 4e 3b
        E 260 80 2e 00
        E 0 82 47 00
        E 0 82 4e 00
        E 0 90 2f 3b
        E 0 92 42 3b
        E 0 92 46 3b
        E 113 82 42 00
        E 0 82 46 00
        E 0 92 36 3b
        E 0 92 52 3b
        E 112 82 36 00
        E 0 82 52 00
        E 0 92 3a 3b
        E 0 92 4e 3b
        E 113 81 31 00
        E 0 80 2f 00
        E 0 82 3a 00
        E 0 90 2e 3b
        E 0 91 2f 3b
        E 0 92 38 3b
        E 90 81 33 00
        E 0 82 4e 00
        E 0 80 2e 00
        E 0 81 2f 00
        E 0 82 38 00
        E 0 90 2f 3b
        E 0 91 33 3b
        E 0 91 3a 3b
        E 0 92 5c 3b
        E 0 92 66 3b
        E 315 80 2f 00
        E 0 81 33 00
        E 0 81 3a 00
        E 0 82 5c 00
        E 0 82 66 00
        E 0 90 2e 36
        E 0 91 2f 36
        E 0 91 33 36
        E 0 92 44 36
        E 0 92 5a 36
        E 137 82 44 00
        E 0 82 5a 00
        E 0 92 4e 36
        E 0 92 50 36
        E 138 82 4e 00
        E 0 82 50 00
        E 0 92 38 36
        E 0 92 66 36
        E 137 80 2e 00
        E 0 81 2f 00
        E 0 82 38 00
        E 0 90 2f 36
        E 0 91 31 36
        E 0 92 3a 36
        E 137 81 33 00
        E 0 82 66 00
        E 0 80 2f 00
        E 0 81 31 00
        E 0 82 3a 00
        E 0 90 2e 36
        E 0 91 2f 36
        E 0 91 31 36
        E 0 92 33 36
        E 0 92 4e 36
        E 138 80 2e 00
        E 0 81 2f 00
        E 0 82 33 00
        E 0 90 2c 36
        E 0 91 2e 36
        E 0 92 35 36
        E 137 82 4e 00
        E 0 80 2c 00
        E 0 82 35 00
        E 0 90 2a 36
        E 0 92 33 36
        E 0 92 4d 36
        E 110 81 31 00
        E 0 81 2e 00
        E 0 80 2a 00
        E 0 82 33 00
        E 0 82 4d 00
        E 0 90 31 36
        E 0 91 33 36
        E 0 91 3a 36
        E 0 92 42 36
        E 0 92 59 36
        E 276 80 31 00
        E 0 81 33 00
        E 0 81 3a 00
        E 0 82 42 00
        E 0 82 59 00
        E 0 90 2c 36
        E 0 91 2e 36
        E 0 91 31 36
        E 0 92 41 36
        E 0 92 5a 36
        E 110 82 41 00
        E 0 82 5a 00
        E 0 92 35 36
        E 0 92 66 36
        E 111 82 35 00
        E 0 82 66 00
        E 0 92 4d 36
        E 0 92 4e 36
        E 220 80 2c 00
        E 0 81 2e 00
        E 0 81 31 00
        E 0 82 4d 00
        E 0 82 4e 00
        E 0 90 29 36
        E 0 91 2c 36
        E 0 91 2e 36
        E 0 92 31 36
        E 0 92 42 36
        E 111 81 2c 00
        E 0 82 42 00
        E 0 91 2a 3b
        E 0 92 3f 3b
        E 110 80 29 00
        E 0 81 2e 00
        E 0 82 31 00
        E 0 81 2a 00
        E 0 90 2b 3b
        E 0 91 2e 3b
        E 0 91 30 3b
        E 0 92 32 3b
        E 110 82 3f 00
        E 0 80 2b 00
        E 0 81 2e 00
        E 0 81 30 00
        E 0 82 32 00
        E 0 90 32 3b
        E 0 91 33 3b
        E 0 91 3a 3b
        E 0 92 41 3b
        E 0 92 4f 3b
        E 195 80 32 00
        E 0 81 33 00
        E 0 81 3a 00
        E 0 82 41 00
        E 0 82 4f 00
        E 0 90 2b 3b
        E 0 91 32 3b
        E 0 91 33 3b
        E 0 92 35 3b
        E 0 92 46 3b
        E 84 80 2b 00
        E 0 82 35 00
        E 0 90 29 3b
        E 0 92 37 3b
        E 84 81 32 00
        E 0 81 33 00
        E 0 82 46 00
        E 0 80 29 00
        E 0 82 37 00
        E 0 90 32 3b
        E 0 91 33 3b
        E 0 91 3a 3b
        E 0 92 41 3b
        E 0 92 67 3b
        E 84 80 32 00
        E 0 81 33 00
        E 0 82 41 00
        E 0 90 30 3b
        E 0 91 32 3b
        E 0 92 3f 3b
        E 68 81 3a 00
        E 0 82 3f 00
        E 0 91 33 3b
        E 0 92 46 3b
        E 396 82 67 00
        E 0 80 30 00
        E 0 82 46 00
        E 0 90 2e 34
        E 0 92 3c 34
        E 0 92 5b 34
        E 160 81 32 00
        E 0 81 33 00
        E 0 80 2e 00
        E 0 82 5b 00
        E 0 90 32 34
        E 0 91 33 34
        E 0 91 3a 34
        E 0 92 4f 34
        E 161 82 3c 00
        E 0 80 32 00
        E 0 81 33 00
        E 0 81 3a 00
        E 0 82 4f 00
        E 0 90 30 34
        E 0 91 32 34
        E 0 91 33 34
        E 0 92 5e 34
        E 0 92 67 34
        E 160 80 30 00
        E 0 81 32 00
        E 0 81 33 00
        E 0 82 5e 00
        E 0 82 67 00
        E 0 90 32 34
        E 0 91 33 34
        E 0 91 35 34
        E 0 92 37 34
        E 0 92 46 34
        E 161 80 32 00
        E 0 81 33 00
        E 0 81 35 00
        E 0 82 37 00
        E 0 90 29 34
        E 0 91 32 34
        E 0 91 33 34
        E 0 92 43 34
        E 161 80 29 00
        E 0 82 43 00
        E 0 90 2b 34
        E 0 92 41 34
        E 321 82 46 00
        E 0 81 32 00
        E 0 81 33 00
        E 0 80 2b 00
        E 0 82 41 00
        E 0 90 32 34
        E 0 91 33 34
        E 0 91 3a 34
        E 0 92 5b 34
        E 0 92 65 34
        E 160 80 32 00
        E 0 81 33 00
        E 0 82 5b 00
        E 0 90 30 34
        E 0 91 32 34
        E 0 92 5d 34
        E 161 81 3a 00
        E 0 80 30 00
        E 0 82 5d 00
        E 0 90 2e 34
        E 0 91 39 34
        E 0 92 5b 34
        E 129 81 32 00
        E 0 81 39 00
        E 0 82 5b 00
        E 0 91 33 33
        E 0 91 3d 33
        E 0 92 5a 33
        E 60 81 33 00
        E 0 81 3d 00
        E 0 82 5a 00
        E 0 91 31 33
        E 0 91 3c 33
        E 0 92 5c 33
        E 61 80 2e 00
        E 0 81 31 00
        E 0 82 5c 00
        E 0 90 2c 33
        E 0 91 33 33
        E 0 92 5b 33
        E 61 82 65 00
        E 0 80 2c 00
        E 0 90 2e 33
        E 0 92 62 33
        E 60 81 3c 00
        E 0 81 33 00
        E 0 82 5b 00
        E 0 80 2e 00
        E 0 82 62 00
        E 0 90 2a 34
        E 0 91 2f 34
        E 0 91 31 34
        E 0 92 32 34
        E 0 92 69 34
        E 323 81 2f 00
        E 0 81 31 00
        E 0 82 32 00
        E 0 91 31 34
        E 0 91 32 34
        E 0 92 34 34
        E 161 80 2a 00
        E 0 82 69 00
        E 0 81 31 00
        E 0 81 32 00
        E 0 82 34 00
        E 0 90 28 34
        E 0 91 2a 34
        E 0 91 31 34
        E 0 92 32 34
        E 0 92 45 34
        E 161 81 2a 00
        E 0 81 31 00
        E 0 82 32 00
        E 0 91 2c 34
        E 0 91 2f 34
        E 0 92 31 34
        E 161 82 45 00
        E 0 81 2f 00
        E 0 91 2d 34
        E 0 92 42 34
        E 130 81 2c 00
        E 0 82 42 00
        E 0 91 2a 34
        E 0 92 38 34
        E 323 81 2d 00
        E 0 81 2a 00
        E 0 82 38 00
        E 0 91 2c 34
        E 0 91 2f 34
        E 0 92 39 34
        E 162 80 28 00
        E 0 82 31 00
        E 0 81 2c 00
        E 0 81 2f 00
        E 0 90 2c 34
        E 0 91 2f 34
        E 0 91 31 34
        E 0 92 34 34
        E 162 82 39 00
        E 0 81 31 00
        E 0 91 33 34
        E 0 92 36 34
        E 162 82 34 00
        E 0 81 33 00
        E 0 82 36 00
        E 0 91 31 34
        E 0 92 33 34
        E 0 92 34 34
        E 130 80 2c 00
        E 0 81 2f 00
        E 0 81 31 00
        E 0 82 33 00
        E 0 82 34 00
        E 0 90 31 34
        E 0 91 33 34
        E 0 91 3b 34
        E 0 92 40 34
        E 0 92 44 34
        E 325 80 31 00
        E 0 81 33 00
        E 0 82 40 00
        E 0 82 44 00
        E 0 90 33 34
        E 0 91 34 34
        E 0 92 44 34
        E 0 92 66 34
        E 129 81 3b 00
        E 0 80 33 00
        E 0 81 34 00
        E 0 82 44 00
        E 0 82 66 00
        E 0 90 28 34
        E 0 91 2a 34
        E 0 91 33 34
        E 0 92 3b 34
        E 0 92 50 34
        E 130 80 28 00
        E 0 81 2a 00
        E 0 81 33 00
        E 0 82 3b 00
        E 0 82 50 00
        E 0 90 33 34
        E 0 91 3b 34
        E 0 91 40 34
        E 0 92 44 34
        E 0 92 5a 34
        E 260 81 40 00
        E 0 82 5a 00
        E 0 91 42 34
        E 0 92 64 34
        E 130 81 42 00
        E 0 91 3d 36
        E 130 80 33 00
        E 0 81 3b 00
        E 0 82 64 00
        E 0 81 3d 00
        E 0 90 31 36
        E 0 91 3a 36
        E 0 91 3c 36
        E 0 92 65 36
        E 130 82 44 00
        E 0 80 31 00
        E 0 81 3a 00
        E 0 81 3c 00
        E 0 82 65 00
        E 0 90 29 36
        E 0 91 31 36
        E 0 91 33 36
        E 0 92 3c 36
        E 0 92 50 36
        E 130 81 31 00
        E 0 81 33 00
        E 0 82 3c 00
        E 0 91 30 3b
        E 0 91 31 3b
        E 0 92 3a 3b
        E 102 82 50 00
        E 0 81 30 00
        E 0 81 31 00
        E 0 82 3a 00
        E 0 91 2e 3b
        E 0 91 32 3b
        E 0 92 39 3b
        E 0 92 4f 3b
        E 101 80 29 00
        E 0 81 2e 00
        E 0 81 32 00
        E 0 82 39 00
        E 0 82 4f 00
        E 0 90 30 3b
        E 0 91 32 3b
        E 0 91 35 3b
        E 0 92 3a 3b
        E 0 92 45 3b
        E 179 80 30 00
        E 0 81 32 00
        E 0 81 35 00
        E 0 82 45 00
        E 0 90 29 3b
        E 0 91 30 3b
        E 0 91 32 3b
        E 0 92 69 3b
        E 78 82 3a 00
        E 0 80 29 00
        E 0 81 30 00
        E 0 81 32 00
        E 0 82 69 00
        E 0 90 2d 3b
        E 0 91 2e 3b
        E 0 91 30 3b
        E 0 92 32 3b
        E 0 92 65 3b
        E 77 80 2d 00
        E 0 81 2e 00
        E 0 81 30 00
        E 0 82 32 00
        E 0 82 65 00
        E 0 90 30 3b
        E 0 91 32 3b
        E 0 91 35 3b
        E 0 92 3a 3b
        E 0 92 5d 3b
        E 78 80 30 00
        E 0 82 3a 00
        E 0 82 5d 00
        E 0 90 2e 3b
        E 0 92 39 3b
        E 0 92 5b 3b
        E 62 81 35 00
        E 0 82 39 00
        E 0 82 5b 00
        E 0 91 39 3b
        E 0 92 43 3b
        E 0 92 4d 3b
        E 217 81 32 00
        E 0 80 2e 00
        E 0 81 39 00
        E 0 82 43 00
        E 0 82 4d 00
        E 0 90 2b 36
        E 0 91 2d 36
        E 0 91 2e 36
        E 0 92 32 36
        E 0 92 41 36
        E 94 80 2b 00
        E 0 81 2d 00
        E 0 81 2e 00
        E 0 82 32 00
        E 0 82 41 00
        E 0 90 2d 36
        E 0 91 2e 36
        E 0 91 32 36
        E 0 92 35 36
        E 0 92 37 36
        E 95 80 2d 00
        E 0 81 2e 00
        E 0 81 32 00
        E 0 82 35 00
        E 0 82 37 00
        E 0 90 2e 36
        E 0 91 32 36
        E 0 91 39 36
        E 0 92 4d 36
        E 0 92 5b 36
        E 95 80 2e 00
        E 0 81 39 00
        E 0 82 5b 00
        E 0 90 30 36
        E 0 91 3a 36
        E 0 92 5d 36
        E 94 82 4d 00
        E 0 81 3a 00
        E 0 82 5d 00
        E 0 91 35 36
        E 0 92 3a 36
        E 0 92 51 36
        E 95 81 32 00
        E 0 82 3a 00
        E 0 82 51 00
        E 0 91 34 36
        E 0 92 39 36
        E 0 92 4f 36
        E 94 81 34 00
        E 0 82 4f 00
        E 0 91 32 36
        E 0 92 4c 36
        E 76 81 35 00
        E 0 82 39 00
        E 0 82 4c 00
        E 0 91 40 36
        E 0 92 45 36
        E 0 92 65 36
        E 190 80 30 00
        E 0 81 32 00
        E 0 81 40 00
        E 0 82 45 00
        E 0 82 65 00
        E 0 90 28 36
        E 0 91 2b 36
        E 0 91 2d 36
        E 0 92 30 36
        E 0 92 41 36
        E 76 80 28 00
        E 0 81 2b 00
        E 0 81 2d 00
        E 0 82 30 00
        E 0 82 41 00
        E 0 90 2b 36
        E 0 91 2d 36
        E 0 91 30 36
        E 0 92 41 36
        E 0 92 64 36
        E 76 82 41 00
        E 0 82 64 00
        E 0 92 34 36
        E 0 92 35 36
        E 152 80 2b 00
        E 0 81 2d 00
        E 0 81 30 00
        E 0 82 34 00
        E 0 82 35 00
        E 0 90 2d 36
        E 0 91 30 36
        E 0 91 37 36
        E 0 92 58 36
        E 0 92 59 36
        E 76 81 37 00
        E 0 91 32 3b
        E 76 81 30 00
        E 0 82 58 00
        E 0 82 59 00
        E 0 91 2f 3b
        E 0 92 55 3b
        E 0 92 5a 3b
        E 76 80 2d 00
        E 0 81 32 00
        E 0 81 2f 00
        E 0 82 55 00
        E 0 82 5a 00
        E 0 90 28 3b
        E 0 91 2a 3b
        E 0 91 31 3b
        E 0 92 32 3b
        E 0 92 51 3b
        E 134 80 28 00
        E 0 81 2a 00
        E 0 81 31 00
        E 0 82 32 00
        E 0 82 51 00
        E 0 90 31 3b
        E 0 91 32 3b
        E 0 91 39 3b
        E 0 92 4e 3b
        E 0 92 64 3b
        E 58 82 4e 00
        E 0 82 64 00
        E 0 92 58 3b
        E 0 92 5a 3b
        E 58 80 31 00
        E 0 81 32 00
        E 0 81 39 00
        E 0 82 58 00
        E 0 82 5a 00
        E 0 90 28 3b
        E 0 91 31 3b
        E 0 91 32 3b
        E 0 92 39 3b
        E 0 92 4e 3b
        E 58 80 28 00
        E 0 82 39 00
        E 0 90 2d 3b
        E 0 92 3b 3b
        E 46 81 31 00
        E 0 81 32 00
        E 0 82 3b 00
        E 0 91 2f 3b
        E 0 91 31 3b
        E 0 92 32 3b
        E 446 82 4e 00
        E 0 80 2d 00
        E 0 81 2f 00
        E 0 81 31 00
        E 0 82 32 00
        E 0 90 2f 33
        E 0 91 31 33
        E 0 91 32 33
        E 0 92 42 33
        E 0 92 51 33
        E 172 82 42 00
        E 0 82 51 00
        E 0 92 36 33
        E 0 92 5d 33
        E 173 82 36 00
        E 0 82 5d 00
        E 0 92 45 33
        E 0 92 4e 33
        E 173 80 2f 00
        E 0 81 31 00
        E 0 81 32 00
        E 0 82 45 00
        E 0 82 4e 00
        E 0 90 31 33
        E 0 91 32 33
        E 0 91 39 33
        E 0 92 5a 33
        E 0 92 64 33
        E 172 82 5a 00
        E 0 82 64 00
        E 0 92 58 33
        E 0 92 66 33
        E 173 80 31 00
        E 0 81 32 00
        E 0 81 39 00
        E 0 82 58 00
        E 0 82 66 00
        E 0 90 28 33
        E 0 91 31 33
        E 0 91 32 33
        E 0 92 39 33
        E 0 92 5a 33
        E 345 80 28 00
        E 0 81 31 00
        E 0 81 32 00
        E 0 82 39 00
        E 0 82 5a 00
        E 0 90 31 33
        E 0 91 32 33
        E 0 91 39 33
        E 0 92 42 33
        E 0 92 4c 33
        E 173 80 31 00
        E 0 81 32 00
        E 0 82 42 00
        E 0 90 2f 33
        E 0 91 31 33
        E 0 92 44 33
        E 173 81 39 00
        E 0 80 2f 00
        E 0 82 44 00
        E 0 90 2d 33
        E 0 91 38 33
        E 0 92 42 33
        E 139 81 31 00
        E 0 81 38 00
        E 0 82 42 00
        E 0 91 32 32
        E 0 91 3c 32
        E 0 92 41 32
        E 65 81 32 00
        E 0 81 3c 00
        E 0 82 41 00
        E 0 91 30 32
        E 0 91 3b 32
        E 0 92 43 32
        E 65 80 2d 00
        E 0 81 30 00
        E 0 82 43 00
        E 0 90 2b 32
        E 0 91 32 32
        E 0 92 42 32
        E 65 82 4c 00
        E 0 80 2b 00
        E 0 82 42 00
        E 0 90 2a 32
        E 0 92 45 32
        E 0 92 49 32
        E 66 81 3b 00
        E 0 81 32 00
        E 0 80 2a 00
        E 0 82 45 00
        E 0 82 49 00
        E 0 90 2e 33
        E 0 91 30 33
        E 0 91 31 33
        E 0 92 44 33
        E 0 92 59 33
        E 347 80 2e 00
        E 0 81 30 00
        E 0 81 31 00
        E 0 82 44 00
        E 0 82 59 00
        E 0 90 2c 33
        E 0 91 31 33
        E 0 91 33 33
        E 0 92 3c 33
        E 0 92 4d 33
        E 173 80 2c 00
        E 0 81 31 00
        E 0 81 33 00
        E 0 82 4d 00
        E 0 90 31 33
        E 0 91 33 33
        E 0 91 38 33
        E 0 92 41 33
        E 173 82 3c 00
        E 0 80 31 00
        E 0 81 33 00
        E 0 81 38 00
        E 0 82 41 00
        E 0 90 30 33
        E 0 91 31 33
        E 0 91 33 33
        E 0 92 59 33
        E 0 92 68 33
        E 347 82 59 00
        E 0 82 68 00
        E 0 92 35 33
        E 0 92 5c 33
        E 174 80 30 00
        E 0 81 31 00
        E 0 82 35 00
        E 0 90 2e 33
        E 0 91 30 33
        E 0 92 37 33
        E 173 82 5c 00
        E 0 80 2e 00
        E 0 82 37 00
        E 0 90 2c 33
        E 0 92 35 33
        E 0 92 5b 33
        E 139 81 30 00
        E 0 80 2c 00
        E 0 82 35 00
        E 0 82 5b 00
        E 0 90 2f 32
        E 0 91 31 32
        E 0 92 34 32
        E 0 92 5c 32
        E 66 80 2f 00
        E 0 81 31 00
        E 0 82 34 00
        E 0 90 2e 32
        E 0 91 2f 32
        E 0 92 36 32
        E 65 82 5c 00
        E 0 81 2f 00
        E 0 91 31 32
        E 0 92 59 32
        E 66 81 33 00
        E 0 82 36 00
        E 0 81 31 00
        E 0 91 30 32
        E 0 91 31 32
        E 0 92 38 32
        E 65 80 2e 00
        E 0 82 59 00
        E 0 81 30 00
        E 0 81 31 00
        E 0 82 38 00
        E 0 90 2d 33
        E 0 91 2f 33
        E 0 91 30 33
        E 0 92 40 33
        E 0 92 5b 33
        E 349 80 2d 00
        E 0 81 2f 00
        E 0 81 30 00
        E 0 90 2f 33
        E 0 91 30 33
        E 0 91 32 33
        E 174 82 5b 00
        E 0 92 67 33
        E 174 82 40 00
        E 0 80 2f 00
        E 0 81 30 00
        E 0 90 2d 33
        E 0 91 2f 33
        E 0 92 42 33
        E 174 82 67 00
        E 0 80 2d 00
        E 0 90 2b 33
        E 0 92 64 33
        E 140 81 32 00
        E 0 81 2f 00
        E 0 82 42 00
        E 0 80 2b 00
        E 0 82 64 00
        E 0 90 2a 33
        E 0 91 32 33
        E 0 91 3b 33
        E 0 92 43 33
        E 0 92 4c 33
        E 349 80 2a 00
        E 0 82 4c 00
        E 0 90 2d 33
        E 0 92 4e 33
        E 175 81 32 00
        E 0 81 3b 00
        E 0 82 43 00
        E 0 82 4e 00
        E 0 91 2f 33
        E 0 91 32 33
        E 0 92 42 33
        E 0 92 67 33
        E 175 81 2f 00
        E 0 82 67 00
        E 0 91 31 33
        E 0 92 64 33
        E 175 82 64 00
        E 0 92 5f 33
        E 140 82 42 00
        E 0 82 5f 00
        E 0 92 3b 33
        E 0 92 5a 33
        E 351 80 2d 00
        E 0 81 32 00
        E 0 81 31 00
        E 0 82 3b 00
        E 0 90 31 33
        E 0 91 32 33
        E 0 91 45 33
        E 0 92 4c 33
        E 176 82 5a 00
        E 0 81 45 00
        E 0 82 4c 00
        E 0 91 40 33
        E 0 92 45 33
        E 0 92 66 33
        E 175 81 40 00
        E 0 82 45 00
        E 0 82 66 00
        E 0 91 45 33
        E 0 92 4e 33
        E 0 92 58 33
        E 351 81 45 00
        E 0 82 4e 00
        E 0 82 58 00
        E 0 91 34 33
        E 0 92 42 33
        E 0 92 45 33
        E 176 80 31 00
        E 0 81 32 00
        E 0 82 42 00
        E 0 90 2f 33
        E 0 91 31 33
        E 0 92 44 33
        E 175 82 45 00
        E 0 80 2f 00
        E 0 82 44 00
        E 0 90 2d 33
        E 0 92 42 33
        E 0 92 44 33
        E 141 81 31 00
        E 0 80 2d 00
        E 0 82 42 00
        E 0 82 44 00
        E 0 90 30 32
        E 0 91 32 32
        E 0 92 41 32
        E 0 92 45 32
        E 66 80 30 00
        E 0 81 32 00
        E 0 82 41 00
        E 0 90 2f 32
        E 0 91 30 32
        E 0 92 43 32
        E 67 82 45 00
        E 0 81 30 00
        E 0 82 43 00
        E 0 91 32 32
        E 0 92 42 32
        E 0 92 43 32
        E 66 81 34 00
        E 0 81 32 00
        E 0 82 43 00
        E 0 91 31 32
        E 0 91 32 32
        E 0 92 45 32
        E 66 80 2f 00
        E 0 82 42 00
        E 0 81 32 00
        E 0 82 45 00
        E 0 90 30 33
        E 0 91 3a 33
        E 0 92 41 33
        E 0 92 44 33
        E 353 81 31 00
        E 0 80 30 00
        E 0 81 3a 00
        E 0 90 31 33
        E 0 91 33 33
        E 0 91 3c 33
        E 176 82 44 00
        E 0 92 50 33
        E 176 82 41 00
        E 0 80 31 00
        E 0 81 3c 00
        E 0 90 30 33
        E 0 91 3a 33
        E 0 92 43 33
        E 176 82 50 00
        E 0 81 3a 00
        E 0 91 38 33
        E 0 92 4d 33
        E 142 81 33 00
        E 0 80 30 00
        E 0 82 43 00
        E 0 81 38 00
        E 0 82 4d 00
        E 0 90 33 33
        E 0 91 3c 33
        E 0 91 44 33
        E 0 92 4d 33
        E 0 92 5b 33
        E 354 81 44 00
        E 0 82 4d 00
        E 0 91 46 33
        E 0 92 50 33
        E 177 80 33 00
        E 0 81 3c 00
        E 0 82 5b 00
        E 0 81 46 00
        E 0 82 50 00
        E 0 90 30 33
        E 0 91 33 33
        E 0 91 3a 33
        E 0 92 43 33
        E 0 92 50 33
        E 177 80 30 00
        E 0 81 3a 00
        E 0 82 43 00
        E 0 82 50 00
        E 0 90 32 33
        E 0 91 37 33
        E 0 92 41 33
        E 0 92 52 33
        E 176 82 41 00
        E 0 92 3c 33
        E 143 81 33 00
        E 0 80 32 00
        E 0 81 37 00
        E 0 82 52 00
        E 0 82 3c 00
        E 0 90 2e 33
        E 0 91 32 33
        E 0 91 33 33
        E 0 92 48 33
        E 0 92 5b 33
        E 355 80 2e 00
        E 0 81 32 00
        E 0 81 33 00
        E 0 82 48 00
        E 0 82 5b 00
        E 0 90 32 33
        E 0 91 33 33
        E 0 91 3a 33
        E 0 92 4d 33
        E 0 92 4f 33
        E 142 82 4d 00
        E 0 82 4f 00
        E 0 92 41 33
        E 0 92 5b 33
        E 142 82 41 00
        E 0 82 5b 00
        E 0 92 43 33
        E 0 92 59 33
        E 284 81 3a 00
        E 0 82 43 00
        E 0 82 59 00
        E 0 91 35 33
        E 0 92 37 33
        E 0 92 3a 33
        E 142 80 32 00
        E 0 81 33 00
        E 0 81 35 00
        E 0 90 30 34
        E 0 91 32 34
        E 0 91 33 34
        E 142 82 3a 00
        E 0 80 30 00
        E 0 81 32 00
        E 0 81 33 00
        E 0 90 2f 34
        E 0 91 30 34
        E 0 91 34 34
        E 0 92 39 34
        E 143 81 34 00
        E 0 82 39 00
        E 0 91 32 34
        E 0 92 40 34
        E 142 80 2f 00
        E 0 81 30 00
        E 0 81 32 00
        E 0 90 2d 36
        E 0 91 2f 36
        E 0 91 30 36
        E 111 82 37 00
        E 0 80 2d 00
        E 0 81 2f 00
        E 0 81 30 00
        E 0 90 2c 36
        E 0 91 2d 36
        E 0 91 31 36
        E 0 92 36 36
        E 111 82 40 00
        E 0 81 31 00
        E 0 82 36 00
        E 0 91 2f 36
        E 0 92 31 36
        E 0 92 4c 36
        E 111 80 2c 00
        E 0 81 2d 00
        E 0 81 2f 00
        E 0 90 2a 3b
        E 0 91 2c 3b
        E 0 91 2d 3b
        E 86 82 4c 00
        E 0 80 2a 00
        E 0 81 2c 00
        E 0 81 2d 00
        E 0 90 29 3b
        E 0 91 2a 3b
        E 0 91 2e 3b
        E 0 92 4b 3b
        E 87 80 29 00
        E 0 81 2a 00
        E 0 82 4b 00
        E 0 90 2a 3b
        E 0 91 2c 3b
        E 0 92 4d 3b
        E 153 82 31 00
        E 0 81 2e 00
        E 0 80 2a 00
        E 0 81 2c 00
        E 0 82 4d 00
        E 0 90 2c 3b
        E 0 91 2e 3b
        E 0 91 31 3b
        E 0 92 41 3b
        E 0 92 4e 3b
        E 66 82 41 00
        E 0 82 4e 00
        E 0 92 35 3b
        E 0 92 5a 3b
        E 66 82 35 00
        E 0 82 5a 00
        E 0 92 42 3b
        E 0 92 4d 3b
        E 67 80 2c 00
        E 0 82 42 00
        E 0 90 2a 3b
        E 0 92 3f 3b
        E 52 81 2e 00
        E 0 81 31 00
        E 0 82 4d 00
        E 0 80 2a 00
        E 0 82 3f 00
        E 0 90 31 3b
        E 0 91 33 3b
        E 0 91 35 3b
        E 0 92 3a 3b
        E 0 92 42 3b
        E 186 80 31 00
        E 0 81 33 00
        E 0 81 35 00
        E 0 82 42 00
        E 0 90 29 36
        E 0 91 31 36
        E 0 91 33 36
        E 0 92 66 36
        E 81 82 3a 00
        E 0 80 29 00
        E 0 81 31 00
        E 0 81 33 00
        E 0 90 31 36
        E 0 91 33 36
        E 0 91 3a 36
        E 0 92 65 36
        E 80 82 66 00
        E 0 81 3a 00
        E 0 82 65 00
        E 0 91 35 36
        E 0 92 3a 36
        E 0 92 5a 36
        E 81 81 33 00
        E 0 81 35 00
        E 0 91 35 36
        E 0 91 38 36
        E 81 80 31 00
        E 0 82 3a 00
        E 0 82 5a 00
        E 0 81 35 00
        E 0 81 38 00
        E 0 90 2c 36
        E 0 91 2e 36
        E 0 91 31 36
        E 0 92 36 36
        E 0 92 4d 36
        E 81 81 2e 00
        E 0 82 36 00
        E 0 91 30 36
        E 0 92 33 36
        E 80 81 31 00
        E 0 81 30 00
        E 0 82 33 00
        E 0 91 2e 36
        E 0 91 30 36
        E 0 92 31 36
        E 65 80 2c 00
        E 0 82 4d 00
        E 0 81 2e 00
        E 0 81 30 00
        E 0 82 31 00
        E 0 90 2e 36
        E 0 91 30 36
        E 0 91 31 36
        E 0 92 44 36
        E 0 92 65 36
        E 163 80 2e 00
        E 0 81 30 00
        E 0 81 31 00
        E 0 82 44 00
        E 0 82 65 00
        E 0 90 2c 36
        E 0 91 31 36
        E 0 91 33 36
        E 0 92 3c 36
        E 0 92 59 36
        E 64 80 2c 00
        E 0 81 31 00
        E 0 81 33 00
        E 0 82 59 00
        E 0 90 31 36
        E 0 91 33 36
        E 0 91 38 36
        E 0 92 4d 36
        E 65 82 3c 00
        E 0 80 31 00
        E 0 81 33 00
        E 0 81 38 00
        E 0 82 4d 00
        E 0 90 30 36
        E 0 91 31 36
        E 0 91 33 36
        E 0 92 65 36
        E 0 92 68 36
        E 130 82 65 00
        E 0 82 68 00
        E 0 92 41 36
        E 0 92 5c 36
        E 65 80 30 00
        E 0 81 31 00
        E 0 81 33 00
        E 0 90 2e 3b
        E 0 91 30 3b
        E 0 91 31 3b
        E 65 82 5c 00
        E 0 80 2e 00
        E 0 81 30 00
        E 0 81 31 00
        E 0 90 2d 3b
        E 0 91 2e 3b
        E 0 91 32 3b
        E 0 92 5b 3b
        E 65 82 41 00
        E 0 80 2d 00
        E 0 81 2e 00
        E 0 82 5b 00
        E 0 90 2e 3b
        E 0 91 30 3b
        E 0 92 4d 3b
        E 0 92 51 3b
        E 114 80 2e 00
        E 0 82 4d 00
        E 0 82 51 00
        E 0 90 2d 3b
        E 0 92 3a 3b
        E 0 92 41 3b
        E 50 81 32 00
        E 0 81 30 00
        E 0 80 2d 00
        E 0 82 3a 00
        E 0 82 41 00
        E 0 90 30 3b
        E 0 91 32 3b
        E 0 91 35 3b
        E 0 92 39 3b
        E 0 92 3a 3b
        E 49 80 30 00
        E 0 81 32 00
        E 0 81 35 00
        E 0 82 39 00
        E 0 82 3a 00
        E 0 90 2e 3b
        E 0 91 30 3b
        E 0 91 32 3b
        E 0 92 4d 3b
        E 0 92 69 3b
        E 50 80 2e 00
        E 0 81 30 00
        E 0 82 69 00
        E 0 90 2d 3b
        E 0 91 2e 3b
        E 0 92 67 3b
        E 39 82 4d 00
        E 0 82 67 00
        E 0 92 4f 3b
        E 0 92 65 3b
        E 233 80 2d 00
        E 0 82 4f 00
        E 0 82 65 00
        E 0 90 2b 34
        E 0 92 39 34
        E 0 92 59 34
        E 95 81 32 00
        E 0 81 2e 00
        E 0 80 2b 00
        E 0 82 59 00
        E 0 90 2e 34
        E 0 91 32 34
        E 0 91 37 34
        E 0 92 4d 34
        E 94 82 39 00
        E 0 80 2e 00
        E 0 81 32 00
        E 0 81 37 00
        E 0 82 4d 00
        E 0 90 2d 34
        E 0 91 2e 34
        E 0 91 32 34
        E 0 92 65 34
        E 0 92 67 34
        E 95 80 2d 00
        E 0 81 2e 00
        E 0 81 32 00
        E 0 82 65 00
        E 0 82 67 00
        E 0 90 30 34
        E 0 91 32 34
        E 0 91 39 34
        E 0 92 3a 34
        E 0 92 41 34
        E 94 81 39 00
        E 0 82 41 00
        E 0 91 35 34
        E 0 92 45 34
        E 94 80 30 00
        E 0 81 32 00
        E 0 81 35 00
        E 0 82 45 00
        E 0 90 2d 34
        E 0 91 30 34
        E 0 91 32 34
        E 0 92 4d 34
        E 189 82 3a 00
        E 0 80 2d 00
        E 0 81 30 00
        E 0 81 32 00
        E 0 82 4d 00
        E 0 90 29 34
        E 0 91 2e 34
        E 0 91 30 34
        E 0 92 32 34
        E 0 92 69 34
        E 95 80 29 00
        E 0 81 2e 00
        E 0 82 32 00
        E 0 82 69 00
        E 0 90 28 34
        E 0 91 2d 34
        E 0 92 35 34
        E 0 92 67 34
        E 94 82 35 00
        E 0 82 67 00
        E 0 92 32 34
        E 0 92 65 34
        E 76 80 28 00
        E 0 81 2d 00
        E 0 82 32 00
        E 0 90 2c 33
        E 0 91 2e 33
        E 0 92 31 33
        E 35 80 2c 00
        E 0 81 2e 00
        E 0 82 31 00
        E 0 90 2b 33
        E 0 91 2c 33
        E 0 92 33 33
        E 36 82 65 00
        E 0 81 2c 00
        E 0 91 2e 33
        E 0 92 62 33
        E 36 81 30 00
        E 0 82 33 00
        E 0 81 2e 00
        E 0 91 2d 33
        E 0 91 2e 33
        E 0 92 35 33
        E 36 80 2b 00
        E 0 82 62 00
        E 0 81 2d 00
        E 0 81 2e 00
        E 0 82 35 00
        E 0 90 28 34
        E 0 91 2a 34
        E 0 91 2d 34
        E 0 92 31 34
        E 0 92 38 34
        E 189 81 2a 00
        E 0 81 2d 00
        E 0 82 38 00
        E 0 91 2c 34
        E 0 91 2f 34
        E 0 92 39 34
        E 95 80 28 00
        E 0 82 31 00
        E 0 81 2c 00
        E 0 81 2f 00
        E 0 90 2c 34
        E 0 91 2f 34
        E 0 91 31 34
        E 0 92 34 34
        E 95 82 39 00
        E 0 81 31 00
        E 0 91 33 34
        E 0 92 36 34
        E 94 82 34 00
        E 0 81 33 00
        E 0 82 36 00
        E 0 91 31 34
        E 0 92 33 34
        E 0 92 34 34
        E 77 80 2c 00
        E 0 81 2f 00
        E 0 81 31 00
        E 0 82 33 00
        E 0 82 34 00
        E 0 90 31 34
        E 0 91 33 34
        E 0 91 3b 34
        E 0 92 40 34
        E 0 92 44 34
        E 190 80 31 00
        E 0 81 33 00
        E 0 90 33 34
        E 0 91 36 34
        E 95 81 3b 00
        E 0 82 40 00
        E 0 81 36 00
        E 0 91 3b 34
        E 0 91 40 34
        E 0 92 42 34
        E 95 82 44 00
        E 0 81 3b 00
        E 0 81 40 00
        E 0 91 3a 34
        E 0 91 3d 34
        E 0 92 47 34
        E 95 81 3a 00
        E 0 81 3d 00
        E 0 82 47 00
        E 0 91 38 34
        E 0 91 3b 34
        E 0 92 46 34
        E 77 80 33 00
        E 0 81 38 00
        E 0 81 3b 00
        E 0 82 46 00
        E 0 90 2f 34
        E 0 91 33 34
        E 0 91 3a 34
        E 0 92 44 34
        E 191 82 42 00
        E 0 80 2f 00
        E 0 81 33 00
        E 0 81 3a 00
        E 0 82 44 00
        E 0 90 2e 34
        E 0 91 2f 34
        E 0 91 31 34
        E 0 92 33 34
        E 0 92 42 34
        E 76 80 2e 00
        E 0 81 2f 00
        E 0 81 31 00
        E 0 82 33 00
        E 0 82 42 00
        E 0 90 2f 34
        E 0 91 31 34
        E 0 91 33 34
        E 0 92 36 34
        E 0 92 3a 34
        E 77 80 2f 00
        E 0 82 36 00
        E 0 82 3a 00
        E 0 90 2e 34
        E 0 92 47 34
        E 0 92 4e 34
        E 153 80 2e 00
        E 0 82 47 00
        E 0 82 4e 00
        E 0 90 2a 34
        E 0 92 3b 34
        E 0 92 5e 34
        E 76 81 31 00
        E 0 82 3b 00
        E 0 82 5e 00
        E 0 91 2f 36
        E 0 92 3a 36
        E 0 92 5c 36
        E 77 80 2a 00
        E 0 81 2f 00
        E 0 82 3a 00
        E 0 82 5c 00
        E 0 90 29 36
        E 0 91 30 36
        E 0 92 38 36
        E 0 92 5b 36
        E 76 80 29 00
        E 0 82 38 00
        E 0 82 5b 00
        E 0 90 2b 36
        E 0 92 3a 36
        E 0 92 50 36
        E 77 82 3a 00
        E 0 82 50 00
        E 0 92 38 3b
        E 0 92 4d 3b
        E 59 81 33 00
        E 0 80 2b 00
        E 0 82 38 00
        E 0 82 4d 00
        E 0 90 29 3b
        E 0 91 32 3b
        E 0 92 39 3b
        E 0 92 4c 3b
        E 60 80 29 00
        E 0 81 32 00
        E 0 82 39 00
        E 0 82 4c 00
        E 0 90 2d 3b
        E 0 91 34 3b
        E 0 92 37 3b
        E 0 92 4d 3b
        E 105 81 30 00
        E 0 80 2d 00
        E 0 81 34 00
        E 0 82 37 00
        E 0 82 4d 00
        E 0 90 28 3b
        E 0 91 2b 3b
        E 0 91 2d 3b
        E 0 92 30 3b
        E 0 92 35 3b
        E 46 80 28 00
        E 0 81 2b 00
        E 0 81 2d 00
        E 0 82 30 00
        E 0 82 35 00
        E 0 90 2b 3b
        E 0 91 2d 3b
        E 0 91 30 3b
        E 0 92 35 3b
        E 0 92 64 3b
        E 45 80 2b 00
        E 0 81 2d 00
        E 0 81 30 00
        E 0 82 35 00
        E 0 82 64 00
        E 0 90 29 3b
        E 0 91 2b 3b
        E 0 91 2d 3b
        E 0 92 30 3b
        E 0 92 34 3b
        E 46 80 29 00
        E 0 81 2b 00
        E 0 82 34 00
        E 0 90 28 3b
        E 0 91 29 3b
        E 0 92 32 3b
        E 36 81 2d 00
        E 0 82 30 00
        E 0 80 28 00
        E 0 81 29 00
        E 0 82 32 00
        E 0 90 30 3b
        E 0 91 32 3b
        E 0 91 45 3b
        E 0 92 59 3b
        E 0 92 64 3b
        E 128 81 45 00
        E 0 82 59 00
        E 0 82 64 00
        E 0 91 39 36
        E 0 92 41 36
        E 0 92 58 36
        E 56 82 41 00
        E 0 82 58 00
        E 0 92 4c 36
        E 0 92 4d 36
        E 55 81 39 00
        E 0 82 4c 00
        E 0 82 4d 00
        E 0 91 35 36
        E 0 92 39 36
        E 0 92 64 36
        E 56 81 32 00
        E 0 81 35 00
        E 0 91 35 36
        E 0 91 37 36
        E 56 80 30 00
        E 0 82 39 00
        E 0 82 64 00
        E 0 81 35 00
        E 0 81 37 00
        E 0 90 2d 36
        E 0 91 30 36
        E 0 91 34 36
        E 0 92 37 36
        E 0 92 59 36
        E 55 80 2d 00
        E 0 81 34 00
        E 0 82 37 00
        E 0 82 59 00
        E 0 90 2f 36
        E 0 91 32 36
        E 0 92 34 36
        E 0 92 5b 36
        E 56 81 30 00
        E 0 80 2f 00
        E 0 81 32 00
        E 0 90 2d 36
        E 0 91 2f 36
        E 0 91 30 36
        E 44 82 34 00
        E 0 82 5b 00
        E 0 80 2d 00
        E 0 81 2f 00
        E 0 81 30 00
        E 0 90 2b 36
        E 0 91 2d 36
        E 0 91 2f 36
        E 0 92 30 36
        E 0 92 4c 36
        E 112 80 2b 00
        E 0 81 2d 00
        E 0 81 2f 00
        E 0 82 30 00
        E 0 82 4c 00
        E 0 90 2f 36
        E 0 91 30 36
        E 0 91 32 36
        E 0 92 40 36
        E 0 92 5b 36
        E 45 82 40 00
        E 0 82 5b 00
        E 0 92 34 36
        E 0 92 67 36
        E 44 82 34 00
        E 0 82 67 00
        E 0 92 4c 36
        E 0 92 4f 36
        E 90 80 2f 00
        E 0 81 30 00
        E 0 81 32 00
        E 0 82 4c 00
        E 0 82 4f 00
        E 0 90 28 36
        E 0 91 2f 36
        E 0 91 30 36
        E 0 92 32 36
        E 0 92 43 36
        E 45 81 2f 00
        E 0 81 30 00
        E 0 82 32 00
        E 0 91 2d 3b
        E 0 91 2f 3b
        E 0 92 30 3b
        E 44 82 43 00
        E 0 81 2d 00
        E 0 81 2f 00
        E 0 82 30 00
        E 0 91 2c 3b
        E 0 91 2d 3b
        E 0 92 31 3b
        E 0 92 42 3b
        E 45 80 28 00
        E 0 81 2c 00
        E 0 81 2d 00
        E 0 82 31 00
        E 0 82 42 00
        E 0 90 2d 3b
        E 0 91 2f 3b
        E 0 91 31 3b
        E 0 92 34 3b
        E 0 92 38 3b
        E 79 80 2d 00
        E 0 81 2f 00
        E 0 81 31 00
        E 0 82 34 00
        E 0 82 38 00
        E 0 90 28 3b
        E 0 91 2d 3b
        E 0 91 2f 3b
        E 0 92 31 3b
        E 0 92 5c 3b
        E 34 80 28 00
        E 0 81 2d 00
        E 0 81 2f 00
        E 0 82 31 00
        E 0 82 5c 00
        E 0 90 2d 3b
        E 0 91 2f 3b
        E 0 91 31 3b
        E 0 92 5c 3b
        E 0 92 64 3b
        E 34 82 5c 00
        E 0 82 64 00
        E 0 92 34 3b
        E 0 92 50 3b
        E 34 80 2d 00
        E 0 81 2f 00
        E 0 82 50 00
        E 0 90 2c 3b
        E 0 91 2d 3b
        E 0 92 4e 3b
        E 27 82 34 00
        E 0 82 4e 00
        E 0 92 36 3b
        E 0 92 4c 3b
        E 669 81 2d 00
        E 0 82 36 00
        E 0 91 2f 32
        E 0 92 33 32
        E 117 81 31 00
        E 0 82 4c 00
        E 0 81 2f 00
        E 0 82 33 00
        E 0 91 2e 32
        E 0 91 2f 32
        E 0 92 36 32
        E 0 92 4b 32
        E 116 80 2c 00
        E 0 81 2f 00
        E 0 82 36 00
        E 0 90 2a 32
        E 0 91 31 32
        E 0 92 35 32
        E 117 82 4b 00
        E 0 80 2a 00
        E 0 82 35 00
        E 0 90 29 32
        E 0 92 38 32
        E 0 92 48 32
        E 117 81 2e 00
        E 0 81 31 00
        E 0 82 38 00
        E 0 91 2c 32
        E 0 91 33 32
        E 0 92 37 32
        E 116 80 29 00
        E 0 81 2c 00
        E 0 81 33 00
        E 0 82 37 00
        E 0 90 2b 32
        E 0 91 2e 32
        E 0 91 32 32
        E 0 92 33 32
        E 1109 82 48 00
        E 0 80 2b 00
        E 0 81 2e 00
        E 0 81 32 00
        E 0 82 33 00
        E 0 b0 7b 00
        CCINTERP 32
        CHASE_CC_TAKEOFFS 1
        GUID {16748DE6-3B3E-E449-8403-9A492A76261B}
        IGNTEMPO 0 120 4 4
        SRCCOLOR 7
        VELLANE -1 100 0 0 1
        CFGEDITVIEW 0 0.001104 22 12 0 -1 0 0 0 0.5
        KEYSNAP 0
        TRACKSEL 252
        EVTFILTER 0 -1 -1 -1 -1 0 0 0 0 -1 -1 -1 -1 0 -1 0 -1 -1
        CFGEDIT 1 1 0 1 1 4 1 1 1 1 1 4 175 32 1352 843 0 0 0 0 0 0 0 0 3 0.5 0 0 1 64
      >
    >
    <ITEM
      POSITION 0
      SNAPOFFS 0
      LENGTH 480.0445454708572
      LOOP 1
      ALLTAKES 0
      FADEIN 1 0 0 1 0 0 0
      FADEOUT 1 0 0 1 0 0 0
      MUTE 0 0
      SEL 1
      IGUID {BA764155-7607-FB46-9A06-63C52D1AA356}
      IID 9
      NAME ""
      VOLPAN 1 0 1 -1
      SOFFS 0 0
      PLAYRATE 1 1 0 -1 0 0.0025
      CHANMODE 0
      GUID {4CAFA185-D47B-BF47-B8C7-3F2490ACBF58}
      <SOURCE MIDI
        HASDATA 1 960 QN
        CCINTERP 32
        POOLEDEVTS {0F5A5C6F-FCB2-7446-9FFB-51D323088ABF}
        E 85 90 2b 36
        E 0 91 2d 36
        E 0 91 30 36
        E 0 92 35 36
        E 0 92 64 36
        E 3421 82 64 00
        E 0 92 4c 36
        E 3421 80 2b 00
        E 0 81 2d 00
        E 0 81 30 00
        E 0 82 35 00
        E 0 82 4c 00
        E 0 90 2c 36
        E 0 91 2f 36
        E 0 91 33 36
        E 0 92 36 36
        E 0 92 3a 36
        E 3421 80 2c 00
        E 0 82 36 00
        E 0 90 2a 36
        E 0 92 38 36
        E 3421 82 3a 00
        E 0 80 2a 00
        E 0 82 38 00
        E 0 90 2e 36
        E 0 92 36 36
        E 0 92 68 36
        E 3421 80 2e 00
        E 0 82 36 00
        E 0 91 31 36
        E 0 92 34 36
        E 3422 82 68 00
        E 0 82 34 00
        E 0 92 5c 36
        E 0 92 64 36
        E 3421 81 2f 00
        E 0 81 33 00
        E 0 90 2d 36
        E 0 91 36 36
        E 3421 80 2d 00
        E 0 81 36 00
        E 0 90 2f 36
        E 0 91 39 36
        E 2748 82 5c 00
        E 0 80 2f 00
        E 0 91 32 33
        E 0 92 5a 33
        E 1293 81 31 00
        E 0 82 64 00
        E 0 81 39 00
        E 0 82 5a 00
        E 0 90 2f 33
        E 0 91 37 33
        E 0 92 5d 33
        E 0 92 66 33
        E 1293 80 2f 00
        E 0 82 5d 00
        E 0 82 66 00
        E 0 90 30 33
        E 0 92 5f 33
        E 0 92 64 33
        E 1293 81 32 00
        E 0 80 30 00
        E 0 82 5f 00
        E 0 90 2d 33
        E 0 91 35 33
        E 0 92 60 33
        E 1293 81 37 00
        E 0 82 64 00
        E 0 80 2d 00
        E 0 90 2e 33
        E 0 91 39 33
        E 0 92 62 33
        E 1035 82 60 00
        E 0 80 2e 00
        E 0 81 39 00
        E 0 90 2b 33
        E 0 91 3a 33
        E 0 92 63 33
        E 1034 81 35 00
        E 0 82 62 00
        E 0 80 2b 00
        E 0 90 2c 33
        E 0 91 37 33
        E 0 92 60 33
        E 1035 81 3a 00
        E 0 81 37 00
        E 0 91 35 33
        E 0 91 3d 33
        E 1034 82 63 00
        E 0 82 60 00
        E 0 81 35 00
        E 0 91 36 33
        E 0 92 5e 33
        E 0 92 65 33
        E 1035 80 2c 00
        E 0 81 36 00
        E 0 82 65 00
        E 0 90 2f 33
        E 0 91 33 33
        E 0 92 66 33
        E 1034 82 5e 00
        E 0 80 2f 00
        E 0 81 33 00
        E 0 90 32 36
        E 0 91 34 36
        E 0 92 5d 36
        E 2198 81 3d 00
        E 0 82 66 00
        E 0 81 34 00
        E 0 90 2a 36
        E 0 91 2f 36
        E 0 91 31 36
        E 2199 82 5d 00
        E 0 80 2a 00
        E 0 92 36 36
        E 0 92 69 36
        E 6869 80 32 00
        E 0 81 2f 00
        E 0 81 31 00
        E 0 82 36 00
        E 0 82 69 00
        E 0 90 30 36
        E 0 91 33 36
        E 0 91 3a 36
        E 0 92 50 36
        E 0 92 5b 36
        E 3435 82 50 00
        E 0 82 5b 00
        E 0 92 4f 36
        E 0 92 5c 36
        E 3435 82 4f 00
        E 0 82 5c 00
        E 0 92 44 36
        E 0 92 5b 36
        E 3435 80 30 00
        E 0 81 3a 00
        E 0 82 5b 00
        E 0 90 31 36
        E 0 91 3c 36
        E 0 92 59 36
        E 3435 82 59 00
        E 0 92 41 36
        E 3434 80 31 00
        E 0 81 3c 00
        E 0 82 41 00
        E 0 90 30 36
        E 0 91 3a 36
        E 0 92 43 36
        E 3435 82 44 00
        E 0 81 3a 00
        E 0 91 38 36
        E 0 92 41 36
        E 2759 81 38 00
        E 0 82 41 00
        E 0 91 3a 33
        E 0 92 3e 33
        E 1298 81 33 00
        E 0 80 30 00
        E 0 81 3a 00
        E 0 90 2e 33
        E 0 91 35 33
        E 0 91 39 33
        E 1299 82 43 00
        E 0 80 2e 00
        E 0 90 30 33
        E 0 92 40 33
        E 1298 82 3e 00
        E 0 81 35 00
        E 0 82 40 00
        E 0 91 34 33
        E 0 92 3b 33
        E 0 92 43 33
        E 1298 81 39 00
        E 0 80 30 00
        E 0 82 3b 00
        E 0 82 43 00
        E 0 90 2f 33
        E 0 91 37 33
        E 0 92 3e 33
        E 0 92 42 33
        E 1039 81 34 00
        E 0 81 37 00
        E 0 82 3e 00
        E 0 91 32 33
        E 0 91 39 33
        E 0 92 3d 33
        E 1039 80 2f 00
        E 0 81 32 00
        E 0 81 39 00
        E 0 90 2d 33
        E 0 91 34 33
        E 0 91 38 33
        E 1038 82 42 00
        E 0 80 2d 00
        E 0 81 34 00
        E 0 90 2f 33
        E 0 91 33 33
        E 0 92 40 33
        E 1039 82 3d 00
        E 0 82 40 00
        E 0 92 3a 33
        E 0 92 42 33
        E 1039 81 38 00
        E 0 80 2f 00
        E 0 82 3a 00
        E 0 82 42 00
        E 0 90 2e 33
        E 0 91 36 33
        E 0 92 3d 33
        E 0 92 41 33
        E 1038 81 36 00
        E 0 82 3d 00
        E 0 82 41 00
        E 0 91 37 36
        E 0 92 3c 36
        E 0 92 3e 36
        E 2207 80 2e 00
        E 0 81 37 00
        E 0 82 3c 00
        E 0 82 3e 00
        E 0 90 32 36
        E 0 91 43 36
        E 0 92 46 36
        E 0 92 4d 36
        E 2207 81 43 00
        E 0 82 4d 00
        E 0 92 4f 36
        E 0 92 59 36
        E 6898 82 59 00
        E 0 92 54 36
        E 3448 82 46 00
        E 0 82 54 00
        E 0 90 2e 36
        E 0 92 48 36
        E 3449 80 32 00
        E 0 82 4f 00
        E 0 80 2e 00
        E 0 90 2b 36
        E 0 91 35 36
        E 0 92 50 36
        E 3449 80 2b 00
        E 0 81 35 00
        E 0 90 2e 36
        E 0 91 37 36
        E 2770 82 48 00
        E 0 82 50 00
        E 0 81 37 00
        E 0 90 2c 36
        E 0 91 30 36
        E 0 92 4f 36
        E 6925 80 2e 00
        E 0 82 4f 00
        E 0 90 2b 36
        E 0 92 4d 36
        E 3462 80 2c 00
        E 0 81 30 00
        E 0 80 2b 00
        E 0 82 4d 00
        E 0 91 35 36
        E 0 91 37 36
        E 0 92 3c 36
        E 0 92 44 36
        E 3463 81 33 00
        E 0 81 37 00
        E 0 82 3c 00
        E 0 90 30 36
        E 0 91 3a 36
        E 0 92 3d 36
        E 3462 80 30 00
        E 0 81 3a 00
        E 0 82 3d 00
        E 0 90 31 36
        E 0 91 3c 36
        E 0 92 3f 36
        E 2781 81 35 00
        E 0 82 3f 00
        E 0 91 33 36
        E 0 92 41 36
        E 6953 82 44 00
        E 0 80 31 00
        E 0 81 3c 00
        E 0 81 33 00
        E 0 82 41 00
        E 0 90 32 36
        E 0 91 37 36
        E 0 91 3b 36
        E 0 92 58 36
        E 0 92 66 36
        E 3476 81 37 00
        E 0 82 58 00
        E 0 82 66 00
        E 0 90 2a 36
        E 0 92 43 36
        E 0 92 4c 36
        E 3477 80 2a 00
        E 0 82 43 00
        E 0 82 4c 00
        E 0 91 37 36
        E 0 92 58 36
        E 0 92 5a 36
        E 3476 80 32 00
        E 0 81 37 00
        E 0 82 5a 00
        E 0 90 30 36
        E 0 91 39 36
        E 0 92 5b 36
        E 3476 81 3b 00
        E 0 82 58 00
        E 0 81 39 00
        E 0 82 5b 00
        E 0 90 2d 36
        E 0 91 2f 36
        E 0 92 34 36
        E 0 92 43 36
        E 3477 81 2f 00
        E 0 82 34 00
        E 0 82 43 00
        E 0 91 32 36
        E 0 92 35 36
        E 0 92 40 36
        E 3476 81 32 00
        E 0 92 37 36
        E 2792 80 2d 00
        E 0 82 40 00
        E 0 82 37 00
        E 0 90 2e 33
        E 0 92 39 33
        E 0 92 3e 33
        E 1314 80 30 00
        E 0 80 2e 00
        E 0 82 39 00
        E 0 90 2b 33
        E 0 91 33 33
        E 0 92 3a 33
        E 1314 82 35 00
        E 0 82 3e 00
        E 0 80 2b 00
        E 0 81 33 00
        E 0 90 2c 33
        E 0 91 30 33
        E 0 91 37 33
        E 0 92 3f 33
        E 1314 82 3a 00
        E 0 81 30 00
        E 0 81 37 00
        E 0 91 31 33
        E 0 91 35 33
        E 0 92 3c 33
        E 1314 82 3f 00
        E 0 81 35 00
        E 0 82 3c 00
        E 0 91 36 33
        E 0 92 3a 33
        E 0 92 41 33
        E 1052 80 2c 00
        E 0 82 41 00
        E 0 90 2f 33
        E 0 92 3f 33
        E 1051 81 31 00
        E 0 82 3a 00
        E 0 80 2f 00
        E 0 82 3f 00
        E 0 90 2c 33
        E 0 91 33 33
        E 0 92 3b 33
        E 0 92 40 33
        E 1051 81 36 00
        E 0 80 2c 00
        E 0 81 33 00
        E 0 90 2d 33
        E 0 91 31 33
        E 0 91 38 33
        E 1051 82 3b 00
        E 0 81 31 00
        E 0 81 38 00
        E 0 91 32 33
        E 0 91 36 33
        E 0 92 3d 33
        E 1052 82 40 00
        E 0 81 36 00
        E 0 82 3d 00
        E 0 91 37 33
        E 0 92 3b 33
        E 0 92 42 33
        E 1051 80 2d 00
        E 0 81 37 00
        E 0 82 3b 00
        E 0 82 42 00
        E 0 90 2e 36
        E 0 91 39 36
        E 0 92 3c 36
        E 0 92 41 36
        E 2234 81 39 00
        E 0 82 3c 00
        E 0 82 41 00
        E 0 90 2d 36
        E 0 92 35 36
        E 0 92 43 36
        E 2233 82 35 00
        E 0 82 43 00
        E 0 92 41 36
        E 0 92 4f 36
        E 6981 80 2d 00
        E 0 82 4f 00
        E 0 91 30 36
        E 0 92 51 36
        E 3490 82 51 00
        E 0 92 69 36
        E 3491 81 32 00
        E 0 80 2e 00
        E 0 82 69 00
        E 0 90 2d 36
        E 0 91 34 36
        E 0 92 67 36
        E 3490 81 34 00
        E 0 82 67 00
        E 0 91 32 36
        E 0 92 64 36
        E 2804 82 41 00
        E 0 80 2d 00
        E 0 82 64 00
        E 0 91 35 36
        E 0 92 45 36
        E 0 92 4c 36
        E 7008 81 32 00
        E 0 81 35 00
        E 0 82 4c 00
        E 0 91 34 36
        E 0 91 37 36
        E 0 92 4d 36
        E 3505 82 45 00
        E 0 81 34 00
        E 0 81 37 00
        E 0 82 4d 00
        E 0 90 29 36
        E 0 91 2b 36
        E 0 91 2d 36
        E 0 92 64 36
        E 3504 80 29 00
        E 0 81 2d 00
        E 0 82 64 00
        E 0 90 28 36
        E 0 91 2f 36
        E 0 92 62 36
        E 3504 81 2f 00
        E 0 82 62 00
        E 0 91 2d 36
        E 0 92 5f 36
        E 2815 81 30 00
        E 0 81 2b 00
        E 0 80 28 00
        E 0 82 5f 00
        E 0 91 2f 36
        E 0 91 30 36
        E 0 92 34 36
        E 0 92 43 36
        E 14074 81 2d 00
        E 0 91 32 3b
        E 3518 81 2f 00
        E 0 81 30 00
        E 0 82 34 00
        E 0 90 2e 3b
        E 0 91 33 3b
        E 0 92 35 3b
        E 3519 82 43 00
        E 0 80 2e 00
        E 0 82 35 00
        E 0 90 30 3b
        E 0 92 4f 3b
        E 0 92 5e 3b
        E 3518 80 30 00
        E 0 91 35 45
        E 2749 81 32 00
        E 0 81 33 00
        E 0 82 4f 00
        E 0 90 31 45
        E 0 91 36 45
        E 0 92 50 45
        E 2749 82 5e 00
        E 0 81 36 00
        E 0 82 50 00
        E 0 91 33 45
        E 0 92 3a 45
        E 0 92 5a 45
        E 2748 81 33 00
        E 0 91 38 59
        E 2148 81 35 00
        E 0 82 3a 00
        E 0 82 5a 00
        E 0 81 38 00
        E 0 91 34 59
        E 0 91 39 59
        E 0 92 3b 59
        E 0 92 5c 59
        E 2147 81 34 00
        E 0 81 39 00
        E 0 82 3b 00
        E 0 82 5c 00
        E 0 90 2c 59
        E 0 91 2d 59
        E 0 92 36 59
        E 0 92 58 59
        E 2148 82 36 00
        E 0 82 58 00
        E 0 90 2a 59
        E 0 92 34 59
        E 1638 80 31 00
        E 0 80 2c 00
        E 0 81 2d 00
        E 0 80 2a 00
        E 0 82 34 00
        E 0 90 30 59
        E 0 91 32 59
        E 0 91 33 59
        E 0 92 37 59
        E 0 92 52 59
        E 1639 82 37 00
        E 0 82 52 00
        E 0 90 2b 59
        E 0 92 5e 59
        E 1638 80 2b 00
        E 0 82 5e 00
        E 0 92 37 59
        E 0 92 46 59
        E 1639 81 32 00
        E 0 82 46 00
        E 0 90 2e 59
        E 0 92 44 59
        E 1310 82 37 00
        E 0 92 43 59
        E 1311 82 44 00
        E 0 82 43 00
        E 0 90 2c 59
        E 0 92 67 59
        E 3280 80 30 00
        E 0 81 33 00
        E 0 80 2e 00
        E 0 80 2c 00
        E 0 82 67 00
        E 0 90 31 45
        E 0 91 32 45
        E 0 91 39 45
        E 0 92 5a 45
        E 0 92 64 45
        E 2000 82 5a 00
        E 0 82 64 00
        E 0 92 58 45
        E 0 92 66 45
        E 2000 82 58 00
        E 0 82 66 00
        E 0 92 4e 45
        E 0 92 64 45
        E 2000 80 31 00
        E 0 81 39 00
        E 0 90 2f 45
        E 0 91 37 45
        E 2000 82 4e 00
        E 0 82 64 00
        E 0 80 2f 00
        E 0 91 34 45
        E 0 92 3b 45
        E 0 92 5a 45
        E 2000 81 32 00
        E 0 81 37 00
        E 0 82 3b 00
        E 0 82 5a 00
        E 0 90 2f 45
        E 0 91 39 45
        E 0 92 3c 45
        E 0 92 5b 45
        E 2000 80 2f 00
        E 0 81 39 00
        E 0 90 32 45
        E 0 91 3b 45
        E 1606 81 34 00
        E 0 82 3c 00
        E 0 82 5b 00
        E 0 81 3b 00
        E 0 90 2f 45
        E 0 91 30 45
        E 0 92 40 45
        E 0 92 67 45
        E 4016 80 32 00
        E 0 80 2f 00
        E 0 81 30 00
        E 0 82 40 00
        E 0 82 67 00
        E 0 90 31 45
        E 0 91 33 45
        E 0 91 46 45
        E 0 92 65 45
        E 0 92 66 45
        E 1607 81 46 00
        E 0 82 65 00
        E 0 82 66 00
        E 0 91 36 45
        E 0 92 3a 45
        E 0 92 59 45
        E 1606 81 36 00
        E 0 82 3a 00
        E 0 82 59 00
        E 0 91 46 45
        E 0 92 5a 45
        E 0 92 65 45
        E 1607 80 31 00
        E 0 82 5a 00
        E 0 82 65 00
        E 0 90 2f 45
        E 0 92 5c 45
        E 0 92 66 45
        E 1606 81 46 00
        E 0 82 5c 00
        E 0 82 66 00
        E 0 91 36 45
        E 0 92 3a 45
        E 0 92 44 45
        E 1607 80 2f 00
        E 0 82 3a 00
        E 0 82 44 00
        E 0 90 31 59
        E 0 92 3b 59
        E 0 92 46 59
        E 1606 81 33 00
        E 0 80 31 00
        E 0 82 3b 00
        E 0 82 46 00
        E 0 90 32 59
        E 0 91 34 59
        E 0 92 3d 59
        E 0 92 45 59
        E 1606 81 36 00
        E 0 81 34 00
        E 0 82 3d 00
        E 0 82 45 00
        E 0 90 2a 59
        E 0 91 31 59
        E 0 92 39 59
        E 0 92 3b 59
        E 1607 80 2a 00
        E 0 82 39 00
        E 0 82 3b 00
        E 0 90 2f 59
        E 0 92 4e 59
        E 0 92 69 59
        E 1225 80 32 00
        E 0 81 31 00
        E 0 80 2f 00
        E 0 82 4e 00
        E 0 82 69 00
        E 0 90 33 59
        E 0 91 3c 59
        E 0 91 41 59
        E 0 92 44 59
        E 0 92 4f 59
        E 1226 81 41 00
        E 0 82 4f 00
        E 0 91 35 59
        E 0 92 5b 59
        E 1226 81 35 00
        E 0 82 5b 00
        E 0 91 41 59
        E 0 92 43 59
        E 1225 82 43 00
        E 0 91 3d 59
        E 981 81 41 00
        E 0 81 3d 00
        E 0 90 31 59
        E 0 92 59 59
        E 980 82 44 00
        E 0 82 59 00
        E 0 91 35 59
        E 0 92 38 59
        E 4791 80 33 00
        E 0 81 3c 00
        E 0 80 31 00
        E 0 81 35 00
        E 0 82 38 00
        E 0 90 2f 3b
        E 0 91 32 3b
        E 0 91 39 3b
        E 0 92 43 3b
        E 0 92 66 3b
        E 2338 82 43 00
        E 0 82 66 00
        E 0 92 4f 3b
        E 0 92 5a 3b
        E 2338 82 4f 00
        E 0 82 5a 00
        E 0 91 37 3b
        E 0 92 66 3b
        E 2337 80 2f 00
        E 0 81 32 00
        E 0 81 39 00
        E 0 81 37 00
        E 0 82 66 00
        E 0 90 31 3b
        E 0 91 33 3b
        E 0 91 35 3b
        E 0 92 36 3b
        E 0 92 3a 3b
        E 2338 81 35 00
        E 0 82 36 00
        E 0 90 29 3b
        E 0 92 42 3b
        E 2338 82 3a 00
        E 0 80 29 00
        E 0 82 42 00
        E 0 91 35 3b
        E 0 92 46 3b
        E 0 92 66 3b
        E 2337 80 31 00
        E 0 81 35 00
        E 0 90 2f 3b
        E 0 91 38 3b
        E 2338 82 46 00
        E 0 82 66 00
        E 0 81 38 00
        E 0 91 3a 3b
        E 0 92 44 3b
        E 0 92 4e 3b
        E 2338 80 2f 00
        E 0 81 3a 00
        E 0 82 4e 00
        E 0 90 31 3b
        E 0 91 3b 3b
        E 0 92 4c 3b
        E 2337 80 31 00
        E 0 91 36 3b
        E 1878 81 33 00
        E 0 81 36 00
        E 0 90 31 36
        E 0 91 39 36
        E 884 82 44 00
        E 0 81 3b 00
        E 0 80 31 00
        E 0 90 32 36
        E 0 91 3d 36
        E 0 92 42 36
        E 883 82 4c 00
        E 0 80 32 00
        E 0 81 3d 00
        E 0 82 42 00
        E 0 90 2f 36
        E 0 91 3e 36
        E 0 92 43 36
        E 0 92 4e 36
        E 884 81 39 00
        E 0 80 2f 00
        E 0 82 4e 00
        E 0 90 30 36
        E 0 91 3b 36
        E 0 92 4c 36
        E 883 81 3e 00
        E 0 81 3b 00
        E 0 91 39 35
        E 0 91 41 35
        E 707 82 43 00
        E 0 82 4c 00
        E 0 81 39 00
        E 0 91 3a 35
        E 0 92 45 35
        E 0 92 4a 35
        E 707 80 30 00
        E 0 81 3a 00
        E 0 82 45 00
        E 0 90 33 35
        E 0 91 37 35
        E 0 92 46 35
        E 707 81 41 00
        E 0 82 4a 00
        E 0 81 37 00
        E 0 91 38 35
        E 0 91 43 35
        E 0 92 48 35
        E 707 82 46 00
        E 0 81 43 00
        E 0 91 41 35
        E 0 92 49 35
        E 707 80 33 00
        E 0 82 48 00
        E 0 90 36 35
        E 0 92 46 35
        E 707 81 41 00
        E 0 80 36 00
        E 0 82 46 00
        E 0 91 39 3b
        E 0 91 40 3b
        E 0 92 47 3b
        E 1502 82 49 00
        E 0 81 39 00
        E 0 81 40 00
        E 0 82 47 00
        E 0 90 2d 3b
        E 0 91 31 3b
        E 0 92 42 3b
        E 0 92 58 3b
        E 1502 82 42 00
        E 0 82 58 00
        E 0 92 4e 3b
        E 0 92 64 3b
        E 4694 81 38 00
        E 0 80 2d 00
        E 0 82 4e 00
        E 0 90 2f 3b
        E 0 91 39 3b
        E 0 92 50 3b
        E 2347 81 39 00
        E 0 82 50 00
        E 0 90 2c 3b
        E 0 91 2d 3b
        E 2347 81 31 00
        E 0 81 2d 00
        E 0 90 2a 3b
        E 0 92 33 3b
        E 2347 82 64 00
        E 0 80 2a 00
        E 0 82 33 00
        E 0 90 28 3b
        E 0 92 31 3b
        E 0 92 63 3b
        E 1885 80 2c 00
        E 0 82 63 00
        E 0 92 33 3b
        E 0 92 50 3b
        E 4713 80 28 00
        E 0 82 31 00
        E 0 90 2a 3b
        E 0 92 34 3b
        E 2357 80 2f 00
        E 0 82 50 00
        E 0 80 2a 00
        E 0 82 34 00
        E 0 91 3b 3b
        E 0 91 42 3b
        E 0 92 44 3b
        E 0 92 4c 3b
        E 2356 81 3b 00
        E 0 82 44 00
        E 0 82 4c 00
        E 0 91 3a 3b
        E 0 92 47 3b
        E 0 92 49 3b
        E 2357 81 3a 00
        E 0 82 49 00
        E 0 91 38 3b
        E 0 92 46 3b
        E 1892 81 42 00
        E 0 82 47 00
        E 0 81 38 00
        E 0 82 46 00
        E 0 90 2f 3b
        E 0 91 3a 3b
        E 0 92 44 3b
        E 0 92 4e 3b
        E 4732 82 33 00
        E 0 80 2f 00
        E 0 81 3a 00
        E 0 82 44 00
        E 0 82 4e 00
        E 0 90 28 3b
        E 0 91 2b 3b
        E 0 91 2d 3b
        E 0 92 30 3b
        E 0 92 59 3b
        E 1893 80 28 00
        E 0 92 64 3b
        E 1893 82 59 00
        E 0 82 64 00
        E 0 90 28 3b
        E 0 92 4d 3b
        E 1892 81 2b 00
        E 0 80 28 00
        E 0 82 4d 00
        E 0 90 29 3b
        E 0 91 2e 3b
        E 0 92 4a 3b
        E 1893 81 2d 00
        E 0 80 29 00
        E 0 82 4a 00
        E 0 91 32 3b
        E 0 92 39 3b
        E 0 92 59 3b
        E 1893 82 30 00
        E 0 82 39 00
        E 0 90 2d 45
        E 0 92 37 45
        E 1893 81 2e 00
        E 0 82 59 00
        E 0 80 2d 00
        E 0 82 37 00
        E 0 90 2b 45
        E 0 91 2f 45
        E 0 92 36 45
        E 0 92 58 45
        E 1892 82 58 00
        E 0 91 2d 45
        E 1893 82 36 00
        E 0 81 2d 00
        E 0 90 2a 5a
        E 0 92 34 5a
        E 1479 81 32 00
        E 0 80 2b 00
        E 0 80 2a 00
        E 0 82 34 00
        E 0 90 28 5a
        E 0 91 2c 5a
        E 0 92 31 5a
        E 0 92 33 5a
        E 1479 81 2f 00
        E 0 81 2c 00
        E 0 82 31 00
        E 0 91 3b 5a
        E 0 92 44 5a
        E 0 92 66 5a
        E 1478 80 28 00
        E 0 82 66 00
        E 0 92 4c 5a
        E 0 92 4e 5a
        E 1128 82 33 00
        E 0 81 3b 00
        E 0 82 44 00
        E 0 82 4c 00
        E 0 82 4e 00
        E 0 90 2d 5a
        E 0 91 2e 5a
        E 0 91 30 5a
        E 0 92 32 5a
        E 0 92 41 5a
        E 1129 80 2d 00
        E 0 82 41 00
        E 0 92 35 5a
        E 0 92 39 5a
        E 1128 81 2e 00
        E 0 82 35 00
        E 0 82 39 00
        E 0 91 3a 5a
        E 0 92 41 5a
        E 0 92 5d 5a
        E 1128 82 41 00
        E 0 82 5d 00
        E 0 92 3f 5a
        E 0 92 5b 5a
        E 902 81 30 00
        E 0 81 3a 00
        E 0 82 3f 00
        E 0 90 2e 5a
        E 0 91 33 5a
        E 0 92 48 5a
        E 903 82 5b 00
        E 0 80 2e 00
        E 0 82 48 00
        E 0 91 37 5a
        E 0 92 3c 5a
        E 0 92 5e 5a
        E 2259 82 32 00
        E 0 81 33 00
        E 0 81 37 00
        E 0 82 3c 00
        E 0 82 5e 00
        E 0 90 2a 45
        E 0 91 2c 45
        E 0 91 2d 45
        E 0 92 31 45
        E 0 92 64 45
        E 1377 80 2a 00
        E 0 82 64 00
        E 0 92 36 45
        E 0 92 58 45
        E 1377 81 2c 00
        E 0 82 36 00
        E 0 82 58 00
        E 0 91 38 45
        E 0 92 5a 45
        E 0 92 64 45
        E 1377 81 38 00
        E 0 91 32 45
        E 1377 81 2d 00
        E 0 82 5a 00
        E 0 82 64 00
        E 0 91 36 45
        E 0 92 39 45
        E 0 92 40 45
        E 1377 81 32 00
        E 0 81 36 00
        E 0 82 40 00
        E 0 90 2f 45
        E 0 91 34 45
        E 0 92 44 45
        E 1377 82 39 00
        E 0 80 2f 00
        E 0 82 44 00
        E 0 90 2d 45
        E 0 92 38 45
        E 0 92 42 45
        E 1107 81 34 00
        E 0 82 38 00
        E 0 82 42 00
        E 0 90 2c 45
        E 0 92 36 45
        E 0 92 40 45
        E 2765 82 31 00
        E 0 80 2d 00
        E 0 80 2c 00
        E 0 82 36 00
        E 0 82 40 00
        E 0 90 29 45
        E 0 91 32 45
        E 0 91 33 45
        E 0 92 46 45
        E 0 92 4f 45
        E 1106 80 29 00
        E 0 92 65 45
        E 1106 82 4f 00
        E 0 82 65 00
        E 0 90 29 45
        E 0 92 43 45
        E 1106 81 32 00
        E 0 80 29 00
        E 0 90 2c 45
        E 0 91 30 45
        E 1107 82 46 00
        E 0 80 2c 00
        E 0 90 2e 45
        E 0 92 68 45
        E 1106 80 2e 00
        E 0 82 68 00
        E 0 90 2c 5a
        E 0 92 65 5a
        E 1106 81 33 00
        E 0 82 43 00
        E 0 80 2c 00
        E 0 82 65 00
        E 0 90 2d 5a
        E 0 91 32 5a
        E 0 92 41 5a
        E 0 92 64 5a
        E 1106 81 32 00
        E 0 82 41 00
        E 0 82 64 00
        E 0 90 28 5a
        E 0 91 2b 5a
        E 0 92 59 5a
        E 1106 80 28 00
        E 0 82 59 00
        E 0 92 41 5a
        E 0 92 4c 5a
        E 844 81 30 00
        E 0 80 2d 00
        E 0 81 2b 00
        E 0 82 41 00
        E 0 82 4c 00
        E 0 90 2e 5a
        E 0 91 31 5a
        E 0 91 33 5a
        E 0 92 3b 5a
        E 0 92 4e 5a
        E 844 80 2e 00
        E 0 82 4e 00
        E 0 91 3a 5a
        E 0 92 42 5a
        E 844 82 3b 00
        E 0 81 3a 00
        E 0 82 42 00
        E 0 90 2f 5a
        E 0 92 4e 5a
        E 0 92 5e 5a
        E 844 82 4e 00
        E 0 82 5e 00
        E 0 92 4c 5a
        E 0 92 5c 5a
        E 675 82 4c 00
        E 0 82 5c 00
        E 0 92 64 5a
        E 0 92 68 5a
        E 675 82 64 00
        E 0 82 68 00
        E 0 92 40 5a
        E 0 92 5c 5a
        E 10845 81 31 00
        E 0 81 33 00
        E 0 80 2f 00
        E 0 82 40 00
        E 0 82 5c 00
        E 0 90 29 3b
        E 0 91 30 3b
        E 0 91 32 3b
        E 0 92 3a 3b
        E 0 92 45 3b
        E 2515 80 29 00
        E 0 92 65 3b
        E 2515 82 45 00
        E 0 82 65 00
        E 0 90 29 3b
        E 0 92 39 3b
        E 2515 81 30 00
        E 0 82 39 00
        E 0 91 33 3b
        E 0 92 37 3b
        E 2515 82 3a 00
        E 0 80 29 00
        E 0 82 37 00
        E 0 90 2b 3b
        E 0 92 46 3b
        E 0 92 4d 3b
        E 2515 81 33 00
        E 0 80 2b 00
        E 0 82 46 00
        E 0 90 2e 3b
        E 0 91 30 3b
        E 0 92 45 3b
        E 2515 81 30 00
        E 0 82 45 00
        E 0 90 2d 3b
        E 0 92 43 3b
        E 2020 82 4d 00
        E 0 80 2e 00
        E 0 82 43 00
        E 0 91 30 36
        E 0 92 41 36
        E 0 92 4c 36
        E 951 81 32 00
        E 0 82 41 00
        E 0 91 2f 36
        E 0 92 43 36
        E 951 80 2d 00
        E 0 81 30 00
        E 0 82 43 00
        E 0 90 2b 36
        E 0 91 32 36
        E 0 92 42 36
        E 950 82 4c 00
        E 0 80 2b 00
        E 0 90 2d 36
        E 0 92 49 36
        E 951 81 2f 00
        E 0 81 32 00
        E 0 82 49 00
        E 0 90 2c 35
        E 0 91 31 35
        E 0 92 4c 35
        E 760 82 42 00
        E 0 80 2d 00
        E 0 91 2f 35
        E 0 92 3f 35
        E 761 81 31 00
        E 0 82 4c 00
        E 0 91 2e 35
        E 0 92 4e 35
        E 760 80 2c 00
        E 0 81 2f 00
        E 0 82 4e 00
        E 0 90 2a 35
        E 0 91 31 35
        E 0 92 4d 35
        E 761 82 3f 00
        E 0 80 2a 00
        E 0 90 2c 35
        E 0 92 3c 35
        E 760 81 2e 00
        E 0 81 31 00
        E 0 90 2b 35
        E 0 91 33 35
        E 761 82 4d 00
        E 0 80 2c 00
        E 0 80 2b 00
        E 0 81 33 00
        E 0 90 29 3b
        E 0 91 2d 3b
        E 0 91 32 3b
        E 0 92 4c 3b
        E 1616 82 3c 00
        E 0 80 29 00
        E 0 81 32 00
        E 0 90 2b 3b
        E 0 91 30 3b
        E 0 92 65 3b
        E 1616 82 4c 00
        E 0 80 2b 00
        E 0 82 65 00
        E 0 90 29 3b
        E 0 92 37 3b
        E 0 92 58 3b
        E 5051 81 2d 00
        E 0 81 30 00
        E 0 80 29 00
        E 0 82 37 00
        E 0 82 58 00
        E 0 90 2c 3b
        E 0 91 2e 3b
        E 0 91 2f 3b
        E 0 92 33 3b
        E 0 92 42 3b
        E 2525 80 2c 00
        E 0 82 42 00
        E 0 92 36 3b
        E 0 92 38 3b
        E 2525 81 2e 00
        E 0 82 36 00
        E 0 82 38 00
        E 0 91 3a 3b
        E 0 92 42 3b
        E 0 92 5c 3b
        E 2525 81 2f 00
        E 0 81 3a 00
        E 0 82 42 00
        E 0 90 31 3b
        E 0 91 3b 3b
        E 0 92 40 3b
        E 2525 82 40 00
        E 0 90 28 3b
        E 2526 82 33 00
        E 0 81 3b 00
        E 0 80 28 00
        E 0 90 2a 3b
        E 0 91 34 3b
        E 0 92 39 3b
        E 2525 80 2a 00
        E 0 90 2f 3b
        E 2028 82 5c 00
        E 0 80 2f 00
        E 0 91 32 36
        E 0 92 5a 36
        E 955 80 31 00
        E 0 81 34 00
        E 0 82 39 00
        E 0 82 5a 00
        E 0 90 2f 36
        E 0 91 36 36
        E 0 92 37 36
        E 0 92 5d 36
        E 954 80 2f 00
        E 0 81 36 00
        E 0 82 5d 00
        E 0 90 30 36
        E 0 91 34 36
        E 0 92 5f 36
        E 954 81 32 00
        E 0 80 30 00
        E 0 82 5f 00
        E 0 90 2d 36
        E 0 91 35 36
        E 0 92 60 36
        E 955 82 37 00
        E 0 81 34 00
        E 0 80 2d 00
        E 0 90 2e 35
        E 0 91 32 35
        E 0 92 39 35
        E 764 82 60 00
        E 0 80 2e 00
        E 0 82 39 00
        E 0 90 2b 35
        E 0 92 3a 35
        E 0 92 63 35
        E 763 81 35 00
        E 0 81 32 00
        E 0 80 2b 00
        E 0 90 2c 35
        E 0 91 30 35
        E 0 91 37 35
        E 764 82 3a 00
        E 0 81 30 00
        E 0 81 37 00
        E 0 91 31 35
        E 0 91 35 35
        E 0 92 3c 35
        E 763 82 63 00
        E 0 81 35 00
        E 0 82 3c 00
        E 0 91 36 35
        E 0 92 3a 35
        E 0 92 65 35
        E 764 80 2c 00
        E 0 82 65 00
        E 0 90 2f 35
        E 0 92 63 35
        E 763 82 3a 00
        E 0 80 2f 00
        E 0 82 63 00
        E 0 91 32 3b
        E 0 92 39 3b
        E 0 92 64 3b
        E 1623 82 39 00
        E 0 82 64 00
        E 0 92 3b 3b
        E 0 92 51 3b
        E 1623 81 36 00
        E 0 82 51 00
        E 0 92 42 3b
        E 0 92 5d 3b
        E 5070 82 3b 00
        E 0 91 40 3b
        E 2536 82 5d 00
        E 0 81 40 00
        E 0 91 34 3b
        E 0 92 39 3b
        E 2535 81 32 00
        E 0 82 42 00
        E 0 90 2f 3b
        E 0 92 44 3b
        E 2535 82 39 00
        E 0 80 2f 00
        E 0 82 44 00
        E 0 90 2d 3b
        E 0 92 38 3b
        E 0 92 42 3b
        E 2037 82 38 00
        E 0 90 2c 3b
        E 5091 82 42 00
        E 0 80 2c 00
        E 0 91 2f 3b
        E 0 92 44 3b
        E 2545 81 34 00
        E 0 80 2d 00
        E 0 82 44 00
        E 0 91 38 3b
        E 0 92 39 3b
        E 0 92 64 3b
        E 2546 81 31 00
        E 0 82 39 00
        E 0 91 33 3b
        E 0 91 36 3b
        E 2545 81 36 00
        E 0 91 31 3b
        E 2045 81 2f 00
        E 0 81 38 00
        E 0 82 64 00
        E 0 90 28 3b
        E 0 92 3b 3b
        E 0 92 5c 3b
        E 5111 81 33 00
        E 0 81 31 00
        E 0 80 28 00
        E 0 82 3b 00
        E 0 82 5c 00
        E 0 90 2d 3b
        E 0 91 30 3b
        E 0 91 32 3b
        E 0 92 3a 3b
        E 0 92 41 3b
        E 2556 80 2d 00
        E 0 82 41 00
        E 0 91 35 3b
        E 0 92 39 3b
        E 2556 82 3a 00
        E 0 81 35 00
        E 0 82 39 00
        E 0 90 2e 3b
        E 0 92 41 3b
        E 0 92 69 3b
        E 2556 81 30 00
        E 0 82 69 00
        E 0 91 33 3b
        E 0 92 67 3b
        E 2555 80 2e 00
        E 0 82 41 00
        E 0 82 67 00
        E 0 91 3a 3b
        E 0 92 5b 3b
        E 0 92 65 3b
        E 2556 81 33 00
        E 0 82 5b 00
        E 0 90 30 3b
        E 0 92 5d 3b
        E 2556 81 3a 00
        E 0 80 30 00
        E 0 82 5d 00
        E 0 90 2e 3b
        E 0 91 39 3b
        E 0 92 5b 3b
        E 2053 82 65 00
        E 0 80 2e 00
        E 0 81 39 00
        E 0 82 5b 00
        E 0 90 2d 36
        E 0 91 3c 36
        E 0 92 59 36
        E 0 92 64 36
        E 966 81 32 00
        E 0 81 3c 00
        E 0 82 59 00
        E 0 91 30 36
        E 0 91 3b 36
        E 0 92 5b 36
        E 966 80 2d 00
        E 0 81 30 00
        E 0 82 5b 00
        E 0 90 2b 36
        E 0 91 32 36
        E 0 92 5a 36
        E 966 82 64 00
        E 0 80 2b 00
        E 0 90 2d 36
        E 0 92 61 36
        E 966 81 3b 00
        E 0 81 32 00
        E 0 82 61 00
        E 0 91 31 35
        E 0 91 38 35
        E 0 92 64 35
        E 772 82 5a 00
        E 0 80 2d 00
        E 0 81 38 00
        E 0 90 2c 35
        E 0 91 3b 35
        E 0 92 57 35
        E 773 81 31 00
        E 0 82 64 00
        E 0 81 3b 00
        E 0 91 2f 35
        E 0 91 3a 35
        E 0 92 66 35
        E 773 80 2c 00
        E 0 81 2f 00
        E 0 82 66 00
        E 0 90 2a 35
        E 0 91 31 35
        E 0 92 65 35
        E 773 82 57 00
        E 0 80 2a 00
        E 0 90 2c 35
        E 0 92 54 35
        E 773 81 3a 00
        E 0 81 31 00
        E 0 91 33 35
        E 0 91 37 35
        E 773 82 65 00
        E 0 80 2c 00
        E 0 81 33 00
        E 0 81 37 00
        E 0 90 2d 3b
        E 0 91 32 3b
        E 0 91 35 3b
        E 0 92 64 3b
        E 1642 82 54 00
        E 0 81 32 00
        E 0 81 35 00
        E 0 90 2b 3b
        E 0 91 30 3b
        E 0 92 4d 3b
        E 1642 82 64 00
        E 0 82 4d 00
        E 0 90 28 3b
        E 0 92 65 3b
        E 5132 80 2b 00
        E 0 82 65 00
        E 0 91 29 3b
        E 0 92 62 3b
        E 2566 80 2d 00
        E 0 81 29 00
        E 0 82 62 00
        E 0 91 32 3b
        E 0 92 41 3b
        E 0 92 45 3b
        E 2566 81 30 00
        E 0 80 28 00
        E 0 90 2b 3b
        E 0 91 2e 3b
        E 2566 80 2b 00
        E 0 91 30 3b
        E 2061 82 41 00
        E 0 81 2e 00
        E 0 91 35 3b
        E 0 92 3a 3b
        E 5153 82 45 00
        E 0 81 30 00
        E 0 82 3a 00
        E 0 90 2e 3b
        E 0 92 39 3b
        E 0 92 43 3b
        E 2576 81 35 00
        E 0 82 39 00
        E 0 90 2d 3b
        E 0 92 4d 3b
        E 2576 80 2d 00
        E 0 82 4d 00
        E 0 91 30 3b
        E 0 92 4b 3b
        E 2577 81 30 00
        E 0 82 4b 00
        E 0 91 33 3b
        E 0 92 4d 3b
        E 2069 80 2e 00
        E 0 82 43 00
        E 0 82 4d 00
        E 0 91 3a 3b
        E 0 92 5b 3b
        E 0 92 65 3b
        E 5173 81 32 00
        E 0 81 3a 00
        E 0 82 5b 00
        E 0 82 65 00
        E 0 90 30 34
        E 0 91 38 34
        E 0 92 5e 34
        E 0 92 67 34
        E 1218 80 30 00
        E 0 82 5e 00
        E 0 82 67 00
        E 0 90 31 34
        E 0 92 60 34
        E 0 92 65 34
        E 1217 81 33 00
        E 0 80 31 00
        E 0 82 60 00
        E 0 90 2e 34
        E 0 91 36 34
        E 0 92 61 34
        E 1217 81 38 00
        E 0 82 65 00
        E 0 80 2e 00
        E 0 90 2f 34
        E 0 91 3a 34
        E 0 92 63 34
        E 11241 80 2f 00
        E 0 81 3a 00
        E 0 82 63 00
        E 0 90 32 34
        E 0 91 39 34
        E 0 92 64 34
        E 4850 82 61 00
        E 0 81 39 00
        E 0 82 64 00
        E 0 90 2d 34
        E 0 91 31 34
        E 0 92 3b 34
        E 4849 82 3b 00
        E 0 92 40 36
        E 3790 81 36 00
        E 0 80 32 00
        E 0 81 31 00
        E 0 91 30 36
        E 0 91 35 36
        E 0 92 37 36
        E 3789 80 2d 00
        E 0 82 40 00
        E 0 81 35 00
        E 0 82 37 00
        E 0 91 32 36
        E 0 91 39 36
        E 0 92 64 36
        E 0 92 65 36
        E 3789 81 32 00
        E 0 91 37 3b
        E 2960 81 39 00
        E 0 82 64 00
        E 0 82 65 00
        E 0 81 37 00
        E 0 91 38 3b
        E 0 91 3a 3b
        E 0 92 63 3b
        E 0 92 67 3b
        E 2960 81 30 00
        E 0 81 3a 00
        E 0 82 63 00
        E 0 82 67 00
        E 0 90 33 3b
        E 0 91 3c 3b
        E 0 92 4d 3b
        E 0 92 5b 3b
        E 2960 82 4d 00
        E 0 82 5b 00
        E 0 90 29 3b
        E 0 92 4f 3b
        E 2259 81 38 00
        E 0 80 33 00
        E 0 81 3c 00
        E 0 80 29 00
        E 0 82 4f 00
        E 0 90 2f 3b
        E 0 91 31 3b
        E 0 91 32 3b
        E 0 92 5d 3b
        E 0 92 66 3b
        E 2258 82 5d 00
        E 0 82 66 00
        E 0 92 5a 3b
        E 0 92 69 3b
        E 2259 82 5a 00
        E 0 82 69 00
        E 0 92 51 3b
        E 0 92 66 3b
        E 2258 81 31 00
        E 0 82 51 00
        E 0 90 2d 3b
        E 0 92 4f 3b
        E 1807 82 66 00
        E 0 82 4f 00
        E 0 90 2a 3b
        E 0 92 5b 3b
        E 1806 80 2a 00
        E 0 82 5b 00
        E 0 92 43 3b
        E 0 92 4e 3b
        E 4522 80 2f 00
        E 0 81 32 00
        E 0 80 2d 00
        E 0 82 43 00
        E 0 82 4e 00
        E 0 90 2c 36
        E 0 91 31 36
        E 0 91 33 36
        E 0 92 3c 36
        E 0 92 4d 36
        E 2757 80 2c 00
        E 0 82 4d 00
        E 0 91 38 36
        E 0 92 41 36
        E 2757 82 3c 00
        E 0 81 38 00
        E 0 82 41 00
        E 0 90 30 36
        E 0 92 4d 36
        E 0 92 68 36
        E 2756 80 30 00
        E 0 82 68 00
        E 0 90 2e 36
        E 0 92 66 36
        E 2757 82 4d 00
        E 0 80 2e 00
        E 0 91 3a 36
        E 0 92 65 36
        E 2757 81 31 00
        E 0 81 3a 00
        E 0 82 65 00
        E 0 90 2e 36
        E 0 91 3b 36
        E 0 92 68 36
        E 2757 82 68 00
        E 0 92 61 36
        E 2214 82 66 00
        E 0 80 2e 00
        E 0 82 61 00
        E 0 90 2a 36
        E 0 91 31 36
        E 0 92 3a 36
        E 5536 81 33 00
        E 0 81 3b 00
        E 0 80 2a 00
        E 0 81 31 00
        E 0 82 3a 00
        E 0 90 30 36
        E 0 91 32 36
        E 0 91 39 36
        E 0 92 41 36
        E 0 92 4c 36
        E 2215 82 41 00
        E 0 82 4c 00
        E 0 92 40 36
        E 0 92 4d 36
        E 2214 82 40 00
        E 0 82 4d 00
        E 0 91 35 36
        E 0 92 4c 36
        E 2215 80 30 00
        E 0 81 39 00
        E 0 81 35 00
        E 0 82 4c 00
        E 0 90 2d 36
        E 0 91 37 36
        E 0 92 3a 36
        E 0 92 4d 36
        E 2214 80 2d 00
        E 0 81 37 00
        E 0 82 3a 00
        E 0 82 4d 00
        E 0 90 2e 36
        E 0 91 39 36
        E 0 92 4f 36
        E 0 92 65 36
        E 2214 80 2e 00
        E 0 81 39 00
        E 0 82 4f 00
        E 0 90 30 3b
        E 0 91 3a 3b
        E 0 92 51 3b
        E 2215 81 32 00
        E 0 80 30 00
        E 0 81 3a 00
        E 0 82 51 00
        E 0 90 31 3b
        E 0 91 33 3b
        E 0 91 3c 3b
        E 0 92 50 3b
        E 2214 82 65 00
        E 0 81 33 00
        E 0 81 3c 00
        E 0 82 50 00
        E 0 90 30 3b
        E 0 91 3a 3b
        E 0 92 44 3b
        E 0 92 59 3b
        E 2214 82 44 00
        E 0 82 59 00
        E 0 91 35 3b
        E 0 92 38 3b
        E 1690 80 31 00
        E 0 80 30 00
        E 0 81 3a 00
        E 0 81 35 00
        E 0 82 38 00
        E 0 90 28 3b
        E 0 91 32 3b
        E 0 91 3b 3b
        E 0 92 43 3b
        E 0 92 66 3b
        E 1689 80 28 00
        E 0 92 64 3b
        E 1690 82 66 00
        E 0 82 64 00
        E 0 90 28 3b
        E 0 92 5a 3b
        E 1689 81 3b 00
        E 0 82 43 00
        E 0 82 5a 00
        E 0 91 3c 3b
        E 0 92 47 3b
        E 0 92 5b 3b
        E 1352 80 28 00
        E 0 81 3c 00
        E 0 82 47 00
        E 0 90 30 3b
        E 0 91 3b 3b
        E 0 92 40 3b
        E 1351 82 5b 00
        E 0 82 40 00
        E 0 92 43 3b
        E 0 92 64 3b
        E 6605 81 32 00
        E 0 80 30 00
        E 0 81 3b 00
        E 0 82 43 00
        E 0 82 64 00
        E 0 90 2e 34
        E 0 91 31 34
        E 0 91 38 34
        E 0 92 4d 34
        E 0 92 5a 34
        E 3222 81 38 00
        E 0 82 4d 00
        E 0 82 5a 00
        E 0 90 2a 34
        E 0 91 2c 34
        E 0 92 41 34
        E 3222 80 2a 00
        E 0 81 2c 00
        E 0 82 41 00
        E 0 91 38 34
        E 0 92 4d 34
        E 0 92 4e 34
        E 3223 80 2e 00
        E 0 81 31 00
        E 0 81 38 00
        E 0 82 4d 00
        E 0 82 4e 00
        E 0 90 30 34
        E 0 91 32 34
        E 0 91 39 34
        E 0 92 41 34
        E 0 92 64 34
        E 3222 82 41 00
        E 0 82 64 00
        E 0 92 4d 34
        E 0 92 58 34
        E 3222 82 4d 00
        E 0 82 58 00
        E 0 91 35 34
        E 0 92 64 34
        E 3223 80 30 00
        E 0 81 39 00
        E 0 81 35 00
        E 0 82 64 00
        E 0 90 2d 34
        E 0 91 37 34
        E 0 92 3a 34
        E 0 92 65 34
        E 3222 80 2d 00
        E 0 81 37 00
        E 0 82 3a 00
        E 0 82 65 00
        E 0 90 2e 34
        E 0 91 35 34
        E 0 92 39 34
        E 0 92 5b 34
        E 3222 80 2e 00
        E 0 81 35 00
        E 0 82 39 00
        E 0 90 30 34
        E 0 91 33 34
        E 0 92 3a 34
        E 3223 80 30 00
        E 0 91 35 34
        E 2588 81 32 00
        E 0 82 5b 00
        E 0 82 3a 00
        E 0 81 35 00
        E 0 90 30 32
        E 0 91 37 32
        E 0 92 38 32
        E 0 92 5e 32
        E 1218 80 30 00
        E 0 81 37 00
        E 0 82 5e 00
        E 0 90 31 32
        E 0 91 35 32
        E 0 92 60 32
        E 1218 81 33 00
        E 0 80 31 00
        E 0 82 60 00
        E 0 90 2e 32
        E 0 91 36 32
        E 0 92 61 32
        E 1218 82 38 00
        E 0 81 35 00
        E 0 80 2e 00
        E 0 90 2f 32
        E 0 91 33 32
        E 0 92 3a 32
        E 1218 82 61 00
        E 0 80 2f 00
        E 0 82 3a 00
        E 0 90 2c 32
        E 0 92 3b 32
        E 0 92 64 32
        E 974 81 36 00
        E 0 81 33 00
        E 0 80 2c 00
        E 0 90 2d 32
        E 0 91 31 32
        E 0 91 38 32
        E 975 82 3b 00
        E 0 81 31 00
        E 0 81 38 00
        E 0 91 32 32
        E 0 91 36 32
        E 0 92 3d 32
        E 974 82 64 00
        E 0 81 36 00
        E 0 82 3d 00
        E 0 91 37 32
        E 0 92 3b 32
        E 0 92 66 32
        E 974 80 2d 00
        E 0 82 66 00
        E 0 90 30 32
        E 0 92 64 32
        E 975 81 32 00
        E 0 82 3b 00
        E 0 80 30 00
        E 0 90 2d 32
        E 0 91 35 32
        E 0 92 3c 32
        E 974 82 64 00
        E 0 80 2d 00
        E 0 81 35 00
        E 0 90 2e 34
        E 0 91 38 34
        E 0 92 63 34
        E 2071 81 37 00
        E 0 80 2e 00
        E 0 81 38 00
        E 0 82 63 00
        E 0 90 33 34
        E 0 91 44 34
        E 0 92 4d 34
        E 0 92 67 34
        E 2070 81 44 00
        E 0 82 4d 00
        E 0 82 67 00
        E 0 91 37 34
        E 0 91 38 34
        E 0 92 59 34
        E 6471 81 37 00
        E 0 82 59 00
        E 0 91 3a 34
        E 0 92 5b 34
        E 3235 82 3c 00
        E 0 81 38 00
        E 0 81 3a 00
        E 0 82 5b 00
        E 0 90 2e 34
        E 0 91 30 34
        E 0 92 43 34
        E 0 92 44 34
        E 3235 81 30 00
        E 0 82 44 00
        E 0 91 32 34
        E 0 92 41 34
        E 3236 82 41 00
        E 0 92 3c 34
        E 2598 80 2e 00
        E 0 82 43 00
        E 0 82 3c 00
        E 0 90 30 34
        E 0 92 52 34
        E 0 92 5b 34
        E 6497 80 30 00
        E 0 91 35 34
        E 3248 82 52 00
        E 0 92 46 34
        E 3248 80 33 00
        E 0 82 5b 00
        E 0 90 30 34
        E 0 92 5d 34
        E 3249 82 46 00
        E 0 80 30 00
        E 0 82 5d 00
        E 0 90 2e 34
        E 0 92 45 34
        E 0 92 5b 34
        E 2609 82 45 00
        E 0 92 39 34
        E 6522 81 32 00
        E 0 81 35 00
        E 0 80 2e 00
        E 0 82 5b 00
        E 0 82 39 00
        E 0 90 2a 34
        E 0 91 33 34
        E 0 91 3b 34
        E 0 92 44 34
        E 0 92 64 34
        E 2609 80 2a 00
        E 0 82 64 00
        E 0 91 36 34
        E 0 92 58 34
        E 2609 82 44 00
        E 0 81 36 00
        E 0 82 58 00
        E 0 91 38 34
        E 0 92 64 34
        E 0 92 66 34
        E 2609 81 33 00
        E 0 81 38 00
        E 0 82 66 00
        E 0 90 31 34
        E 0 91 39 34
        E 0 92 68 34
        E 2609 81 3b 00
        E 0 82 64 00
        E 0 81 39 00
        E 0 82 68 00
        E 0 90 2d 34
        E 0 91 2f 34
        E 0 92 40 34
        E 0 92 50 34
        E 2609 81 2f 00
        E 0 82 50 00
        E 0 90 2c 36
        E 0 92 4e 36
        E 2610 80 2d 00
        E 0 82 40 00
        E 0 80 2c 00
        E 0 82 4e 00
        E 0 90 2a 36
        E 0 91 2e 36
        E 0 92 3f 36
        E 0 92 4d 36
        E 2609 80 2a 00
        E 0 82 3f 00
        E 0 82 4d 00
        E 0 90 2c 36
        E 0 92 36 36
        E 0 92 65 36
        E 2609 80 2c 00
        E 0 82 36 00
        E 0 90 2a 3b
        E 0 92 33 3b
        E 2038 80 31 00
        E 0 82 65 00
        E 0 80 2a 00
        E 0 90 2b 3b
        E 0 91 30 3b
        E 0 92 62 3b
        E 2038 81 2e 00
        E 0 80 2b 00
        E 0 81 30 00
        E 0 82 62 00
        E 0 90 32 3b
        E 0 91 37 3b
        E 0 92 3a 3b
        E 0 92 59 3b
        E 2039 81 37 00
        E 0 82 3a 00
        E 0 82 59 00
        E 0 91 35 3b
        E 0 92 46 3b
        E 0 92 67 3b
        E 1555 82 33 00
        E 0 80 32 00
        E 0 81 35 00
        E 0 82 46 00
        E 0 82 67 00
        E 0 90 28 3b
        E 0 91 2d 3b
        E 0 91 2f 3b
        E 0 92 31 3b
        E 0 92 44 3b
        E 1555 80 28 00
        E 0 92 64 3b
        E 1555 82 44 00
        E 0 82 64 00
        E 0 90 28 3b
        E 0 92 38 3b
        E 1555 80 28 00
        E 0 82 38 00
        E 0 90 2a 3b
        E 0 92 32 3b
        E 1244 81 2d 00
        E 0 80 2a 00
        E 0 92 39 3b
        E 0 92 42 3b
        E 1244 81 2f 00
        E 0 82 39 00
        E 0 82 42 00
        E 0 91 3b 3b
        E 0 92 5d 3b
        E 0 92 66 3b
        E 3114 82 31 00
        E 0 82 32 00
        E 0 81 3b 00
        E 0 82 5d 00
        E 0 82 66 00
        E 0 90 33 36
        E 0 91 38 36
        E 0 91 3c 36
        E 0 92 4f 36
        E 0 92 59 36
        E 1898 82 4f 00
        E 0 82 59 00
        E 0 92 4d 36
        E 0 92 5b 36
        E 1898 82 4d 00
        E 0 82 5b 00
        E 0 92 43 36
        E 0 92 59 36
        E 1899 82 43 00
        E 0 92 3d 36
        E 1898 81 38 00
        E 0 81 3c 00
        E 0 82 59 00
        E 0 82 3d 00
        E 0 90 29 36
        E 0 91 30 36
        E 0 91 31 36
        E 0 92 50 36
        E 1898 80 29 00
        E 0 81 31 00
        E 0 90 2b 36
        E 0 91 2e 36
        E 1899 82 50 00
        E 0 81 2e 00
        E 0 91 2c 36
        E 0 92 4d 36
        E 1524 81 30 00
        E 0 80 2b 00
        E 0 81 2c 00
        E 0 82 4d 00
        E 0 91 35 36
        E 0 91 38 36
        E 0 92 3c 36
        E 0 92 5b 36
        E 3812 80 33 00
        E 0 81 35 00
        E 0 81 38 00
        E 0 82 3c 00
        E 0 82 5b 00
        E 0 90 31 36
        E 0 91 32 36
        E 0 91 45 36
        E 0 92 58 36
        E 0 92 5a 36
        E 1525 82 58 00
        E 0 82 5a 00
        E 0 92 4c 36
        E 0 92 66 36
        E 1525 82 4c 00
        E 0 82 66 00
        E 0 92 4e 36
        E 0 92 58 36
        E 1524 80 31 00
        E 0 82 4e 00
        E 0 82 58 00
        E 0 90 2f 36
        E 0 92 4f 36
        E 0 92 5a 36
        E 1525 81 45 00
        E 0 82 4f 00
        E 0 82 5a 00
        E 0 90 2a 36
        E 0 92 37 36
        E 0 92 39 36
        E 1525 82 39 00
        E 0 92 34 3b
        E 1525 81 32 00
        E 0 80 2a 00
        E 0 82 37 00
        E 0 82 34 00
        E 0 90 28 3b
        E 0 91 31 3b
        E 0 92 33 3b
        E 0 92 38 3b
        E 1525 80 2f 00
        E 0 80 28 00
        E 0 81 31 00
        E 0 82 38 00
        E 0 90 2a 3b
        E 0 91 3b 3b
        E 0 92 44 3b
        E 0 92 64 3b
        E 1524 80 2a 00
        E 0 82 44 00
        E 0 82 64 00
        E 0 91 38 3b
        E 0 92 40 3b
        E 0 92 66 3b
        E 1164 82 33 00
        E 0 81 3b 00
        E 0 81 38 00
        E 0 82 40 00
        E 0 82 66 00
        E 0 90 30 3b
        E 0 91 32 3b
        E 0 91 35 3b
        E 0 92 39 3b
        E 0 92 3a 3b
        E 1163 81 35 00
        E 0 82 39 00
        E 0 90 29 3b
        E 0 92 45 3b
        E 1163 80 29 00
        E 0 82 45 00
        E 0 90 2d 3b
        E 0 92 35 3b
        E 1164 80 2d 00
        E 0 82 35 00
        E 0 90 2b 3b
        E 0 92 33 3b
        E 930 80 30 00
        E 0 80 2b 00
        E 0 92 3c 3b
        E 0 92 4f 3b
        E 931 82 3a 00
        E 0 82 4f 00
        E 0 90 2b 3b
        E 0 91 2e 3b
        E 8014 82 33 00
        E 0 82 3c 00
        E 0 80 2b 00
        E 0 90 2d 32
        E 0 92 35 32
        E 0 92 37 32
        E 1632 81 2e 00
        E 0 82 37 00
        E 0 91 30 32
        E 0 92 34 32
        E 1631 81 32 00
        E 0 80 2d 00
        E 0 82 35 00
        E 0 90 2b 32
        E 0 91 2f 32
        E 0 92 39 32
        E 1632 81 30 00
        E 0 82 39 00
        E 0 91 32 32
        E 0 92 36 32
        E 1631 82 34 00
        E 0 80 2b 00
        E 0 91 31 32
        E 0 92 39 32
        E 1632 81 2f 00
        E 0 81 32 00
        E 0 82 39 00
        E 0 90 2d 32
        E 0 91 34 32
        E 0 92 38 32
        E 15499 82 36 00
        E 0 81 31 00
        E 0 80 2d 00
        E 0 81 34 00
        E 0 82 38 00
        E 0 b0 7b 00
        CCINTERP 32
        CHASE_CC_TAKEOFFS 1
        GUID {1F65FF6D-1E1D-244B-9344-4BCE3E375F22}
        IGNTEMPO 0 120 4 4
        SRCCOLOR 8
        VELLANE -1 100 0 0 1
      >
    >
  >
  <TRACK {9DF55AC6-CDE8-504C-BC83-FF8704EEBEDD}
    NAME "Pianoteq 8"
    PEAKCOL 16576
    BEAT -1
    AUTOMODE 0
    PANLAWFLAGS 3
    VOLPAN 1.66917422443258 -0.64 -1 -1 1
    MUTESOLO 0 0 0
    IPHASE 0
    PLAYOFFS 0 1
    ISBUS 0 0
    BUSCOMP 0 0 0 0 0
    SHOWINMIX 1 0.6667 0.5 1 0.5 0 0 0
    FIXEDLANES 9 0 0 0 0
    SEL 0
    REC 1 5088 1 0 0 0 0 0
    VU 2
    TRACKHEIGHT 0 0 0 0 0 0 0
    INQ 0 0 0 0.5 100 0 0 100
    NCHAN 2
    FX 1
    TRACKID {9DF55AC6-CDE8-504C-BC83-FF8704EEBEDD}
    PERF 0
    AUXRECV 0 0 1 0 0 0 0 0 0 -1:U 0 -1 ''
    MIDIOUT -1
    MAINSEND 1 0
    <FXCHAIN
      WNDRECT 32 136 807 690
      SHOW 0
      LASTSEL 1
      DOCKED 0
      BYPASS 0 0 0
      <VST "VST3i: Pianoteq 8 (Modartt) (1->5ch)" "Pianoteq 8.vst3" 0 "" 1031062328{565354507438717069616E6F74657120} ""
        OMN0Pe5e7f4CAAAAAQAAAAAAAAACAAAAAAAAAAUAAAABAAAAAAAAAAIAAAAAAAAABAAAAAAAAAAIAAAAAAAAABAAAAAAAAAAzD4AAAEAAAD//xAA
        vD4AAAEAAABWc3RXAAAACAAAAAEAAAAAQ2NuSwAAPqRGQkNoAAAAAlB0OHEACAQBAAAAAAAAAAAAAAAAAAAAAAAAAAAAAAAAAAAAAAAAAAAAAAAAAAAAAAAAAAAAAAAA
        AAAAAAAAAAAAAAAAAAAAAAAAAAAAAAAAAAAAAAAAAAAAAAAAAAAAAAAAAAAAAAAAAAAAAAAAAAAAAAAAAAAAAAAAAAAAAAAAAAAAAAAAAAAAAAAAAAA+DKCYE/4CAAAA
        SDgSAMA9AAABAAAAEThWOLQ9AABQclZLKQAAAlhGVFCkPQAACgAAADIwMjUvMDIvMjIXAAAAUGlhbm90ZXEgOC40LjEvMjAyNTAyMDQ+hboHvIJqUeJb5wRXz2WnZGxs
        YWM9AAB0ZHRNKQYAABUAAABIQiBTdGVpbndheSBEIEZlbHQgSUkAAAAABwAAAE1vZGFydHQzAAAARmVsdCBwaWFubyBwcmVzZXQgdmFyaWFudCAocmV2ZXJzZWQgQ2Vs
        ZXN0ZSBwZWRhbCkuAAAAAEQBAAAVAAAASEIgU3RlaW53YXkgRCBGZWx0IElJAAAAAKEFAABHUlVVAAAABgAAAAEDwE1UcmsAAAWLAP8CJVBpZXQgRGUgUmlkZGVyIC0g
        RmVsdCBwaWFubyBtaW5pIGRlbW+DYJBDKYEONSUcRTmBLExGghewQAITQAB2QH+IOZA8MIEZRQAmQwCMQzwACTUAgj9FSIF0TACGW0hPbEUAhh44OSRIAIEXPy0+QiVn
        RiQ3sEAAZZBJP4M8sEB/hgGQTjNjSQAoRgCEG0IAgTlOAII/STuBZkkAhBc/AH44AINWRkaFPUYAg18yNYFeOTA/QDAtsEAAMJBDOoEKRzqDB7BADBRAf4VVkEAAE0cA
        CUMAgRdMP4J7TACFT0cxCTYpA0MwhTNDAIJbRwCGMUU7gV4yADU5AIEqNgCCdkUAhnewQABIkDorDTMyBkM0CT4ygxywQAYUQAB0QH+FI5A3KGM6AAozAFA3AIh5Py2G
        dz8AhmYzIIsHMwCBDz4AakMAlC85LYFnQEIcQzwmsEAAQZBHLYEOSk+BerBAIhJAf4MhkEoAI0MACkcAg3lPTIkJTkQcTwCLGk9AazkAJkAAEk4AhU9PAIE8Oh6COEAw
        LU0rCUovAEU2ALBAAIQ1QH+JNpBRPkhNAII7SgCDC0AACUUAhCRKOQA+NIoAPgAtOgCDREU1hCZRAC1KAEhFAIYdQzR+RjoaPCYKMDU3sEAAQJBLTwCwQBwUQACCQkB/
        gweQMACCGDwAWE1KUEsAVUYALEMAWE0AhmSwQABqkD8wAzUtAEoxCUU5AEE0hCOwQH+DEZA/AIINRQCCBDk7AEEALDUAI0oAhyJIRoFUOQAdSACHPT4vBi4vADotA0A0
        Y7BAAIQcQAwTQH+FPJBBJXdAAIRtQQA/PgCEYUUwhRVFAIUBSiSELkoAiglNJVlWJpJcLgCBMToAixJWAIMkVTyEUlZAY1UAQE0AgiZWAGpCNYFESSYksEAAgSWQVUAD
        TEOCCLBAHBNAAGNAf4VDkFFEP0wAClUASFEAhRtFQyRORElCAC1JAIIhRQCCalFMWk4AgiRRAINWsEAAYpBEIgBIKh1QOABBL4MdsEB/hUCQVC4/UACCA1QAhlpQKApL
        Jok9UABZSAAASwAAQQCBMkQAI1RDhAtUAIMqNB6BXUoxCjskLrBAAC2QQCYJTzuBGFM8SbBADAlAAGdAf4JMkDQAGjsAQE8AGkAALEoAClMAg0RPOIFeTwCET0A0BEM1
        E0w+hD9MAIUiSkSCGEMAgRdAAIEPSgCFIjo0gTQ9NXxBLQqwQAAjkEQzAEkyg1+wQH+FTJBNIEBEAEBJAIMIOgB8QQBiPQA1TQCEMEgvCUMtADwjEzktCbBAAINgQH+H
        P5BNLYEYQwAcSAAjPAAKOQCCUU0Ahz+wQAABkEcyA0wxBDsnA0EtCjgpg2SwQBYTQH+NVZBMAC5BAClHAIFFQT6BIkdMgR5KbIZFOACBaDsACUxNZUoAgjhHAC1MAIEO
        NzZIQQBrOjuBLD5CgQqwQABQkEg4EkVGCbBABgpAAINwQH+DAZBKPC1IAHdFAIEoSgCFcUEwAEY5LbBAAGdAEhNABhNAAIEbQAYKQAB5QH+DWJA+AIEXNwATOgCBDkMc
        SUEARkYAhANDAIIKMUKBV7BAAByQOC08RywEQSwLRDGCWLBAGBJAACNABgpAAH5Af4VxkDEAHEcAHEEAGkQAdjgAgzwwNoFesEAACZA6H0BCHQtFJxw+JoNksEB/hyKQ
        MABiPgAcOgAcQgAjRQCLJjUogVSwQAAakEomAD8pC0MrAEcsgmWwQH+BOZBDACRHAFlKAIZmTyoAVjmEZFM1N1YAgV5PAD9TAIJ1WyqBTFsAhU9fK4YFVjEKXwCGZ1Mr
        CVYAkBxPG4toUwAuTwAcPwA+NQCNZLBAAFBANBRAABNAARJAAIEqQAETQAASQAYTQAAA/y8AUHJzVSo3AABJAAAAAgAAAGQ0AAAAABoAAABHcmFuZCBTdGVpbndheSBE
        IChIYW1idXJnKQAAAAAAAAAAcHJvbWYAAAABAAAAAQAAAAEAAAACAAAAZDQAAAAAGgAAAEdyYW5kIFN0ZWlud2F5IEQgKEhhbWJ1cmcpAACAPwYAAAAAAAAAAAAAAAAA
        AAAAAAAAAAAAAFRG/////wAAAAAAAAAAAAAAAAAAAAByeWFsEAAAAAIAAAAAAAAAAAAAAP////9vbG9zEQAAAAEAAAABAAAARgAAAAAAAAAAAQAAAAEAAAAAAAAAAAAA
        AAEAAAAAAAAAAAAAAAEAAAAAAAAAAAAAAAEAAAAAAAAAAAAAAAEAAAAAAAAAAAAAAAEAAAAAAAAAAAAAAAEAAAAAAAAAAAAAAAEAAAAAAAAAAAAAAAEAAAAAAAAAAAAA
        AAAAQEADgAAAYGkAAAAAABBBAACAP2kAAADUznPAaFLkoMDwvEbA4zeKwBTMPsCUgWDARtUMwJzs/r9QNQLA1omLwEBOIMBs+ei/kv4cwNTPaMDOIpHAkMOYwJJ/ycBC
        z53ABN0TwOi6ScD08BvAfM8owIReHcDIwe6/5A3BwOCdD8BE/h3AQKHcvQBubcDU4kvAgBi4v1DE1b4QWIS+oOiZPmC6pMDaVJ7ATG0LwCCYSr98blzALGMQwADIc8Bg
        OF6/TJWUv0CS1b88R5u/TKfJP9Bczb4ovGu/ZEQJQBTZsz/4n3w/fKXvv8CtqD4oqhfA+KUCwKiJDMDg9Jq+ILn9vlhJFL+8lfO/UP+QP5Dp/D5kxGPAnIXFvwAAeT8u
        UAHAGASlv8ZcF8AyuYvASIMJP0DxyT2Ecr6/NGtZwOxL5L+ElFnA5NiswNg9Ib+AVQO9mL0yv1xnTcBovEnAQGitwJx/87/AQh0/gO70PSjYhL+gRJm+BvYSwLyFh78c
        3s8/FBm5P/yySUCsMlRArvIrQB5EJ0Cg2aI/IMt2PoD/777ouRA/wIxFPgCQID0sgibAKDE1wDxeq8C/vJzAAwAAAAEAAAAAAAAAAAAAAAMAAAAAAAAAAAAAAAAAAAAD
        AAAAAAAAAAAAAAAAAAAAAwAAAAEAAAABAAAAAQAAAIYVgD8AAAAAAQAAAAAAAADcfyI+A4AAAGBpAAAAAAAQQQAAgD9pAAAAYaZJP43TM0w/gwjSTj+CpIFRPw9ZQ1Q/
        3xdXP/n/WT94/Fw/Mw5gPxA2Yz8BdWY/CMxpPxA2Yz94/Fw/WUNUP/n/WT8zDmA/EDZjPwF1Zj8BdWY/AgjMaT82PG0/NjxtPwKoxnA/lWx0P5VsdD8CPC94P/kPfD/5
        D3w/DR0IgD+9OoQ/626GPzm2iD87go0/IQmQP4ynkj/MXpU/hh2bPyQonj/nUaE/uJykP6YKqD+mCqg/DfCdqz8GWa8/jz6zP3BRtz8rDMA/TLvEP2GmyT8I0s4/WUPU
        P/n/2T8zDuA/AXXmPzY87T82PO0/AZVs9D+VbPQ/AfkP/D/5D/w/gsIYAkCD624GQJMBAAAAAAAAAAAAAAAAAKDAAACgQAAAAEMAAAAAA4AAAFAAAHBCAQAAAAAAAAAA
        AAAAAAAQwQAAQEEBAAAAAQAAAAAAAABwnhnB0Ke/QAAAAAADgAAAYAIAAAAAAKhBAACuQgIAAAAAAAAAgQOAAABgAgAAAAAAqEEAAK5CAgAAAAAAgD+BgAAAADMzMz/S
        BAAAAAAAAAAAAAAAAACAAAAAP2ZmZj8DgAAAYFgAAAAAAKhBAACAP1gAAAC4wQJBVyDgBEEYtBVBoJoTQRh0KkE4NhZByLoQQRjSD0Fg9BBBCEoHQfBO/ECIbQ9B4C0J
        QTi+FkH4XBRBcBsGQQiYBkFQHidBWMkDQbiwDEHIUgFBmJcRQSDV40BYsg9BUMf+QMAEAkFgH91AoLwJQdBf40AwBdNAYOb6QPD15ECAW81AABP7QKDH7kCAcepAAMLm
        QODe0kCgDthAwInIQJDxy0DglMdAoPDXQGBP40Ago9hAQArHQLBYxkDQkd9AkPDLQACb2EDAVMZAwN3cQFA+y0BA8dxAkL7cQCAl9UCAos9AoHrpQKDzz0BAZdxAYIPj
        QLB510DAhtlAUNDsQNDmyEBQCtFAEO/VQKD310AQy8BAQHHTQMBc30BgEbhA8HavQIB56kDQ0NZA0BzMQOCH5EAwCuZAgEatQECr30DAc8BA0E7aQKDs0EDgFMVA4G7G
        QMD42kDw6N1AwPntQAOAAABgWAAAAAAAqEEAAIA/WAAAAIhZhb9XAMduvUDSBMAY5Yu/kI5jP5C/Xj+w4+w/QG8tvoCuQr4Y6+Q/WAyAwTBHPj+o5qO/8IUTwBBmKz8Q
        qiQ/MNnOP5SNncEgCA8/IFzxvlCnAL+gcsS/YGkRv4Aazb+gpNG/QLKmPiBjkz5gx2vBAMKaP5CA6r+4GJA/OOZcwQBJHD14dQDAIFFyP6A9Zj8ALxi+mE9OwYCsfL5E
        /RLAeBkbwaC3y74A1OW+SMa9wQAWDb8MiSbAcEDFwPAKNL84NXDAQM5wwQhULcEgqc3ASJQ8wAD46jsIH8fBUEdFwFwMCMAIH8fBABBWvggfx8FkbFLASNYUwNmWi8Ag
        UNfBQC3dvtRLysEW64/AP+qQwBCEx79Yt7rBmGxnwAhV0r+E2SrAgMCuwawMLsCYI9+/sCdEv4x1csBs7KjBDCl1wGDHWb+Qv16/oON4wHQNesDALXvA5EQ8wDxTfcAk
        WX7AA4AAAGACAAAAAACoQQAArkICAAAAAACAP4ECAAAAAQAAAFUAAABFcXVhbCB0ZW1wZXJhbWVudApUaGUgc3RhbmRhcmQgdHVuaW5nLCB3aGVyZSB0aGUgb2N0YXZl
        IGlzIGRpdmlkZWQgaW4gMTIgZXF1YWwgc3RlcHMuDAAAAAAAyEIAAEhDAACWQwAAyEMAAPpDAAAWRAAAL0QAAEhEAABhRAAAekQAgIlEAACWRAEAAAAAAAAABAAAAAAA
        3EM8AAAARQAAAEYAAAAAfwAAAAAAAAAHAAAARGVmYXVsdAAAAAAAAAAAAgAAAAOAAABgaQAAAAAAEEEAAIA/aQAAAOIUN8IJ134cwqwm+sHmJd3BtOXVwUfPrMGeuaDB
        To6IwShwTcE4xUPBOMVDwYGEGR3BV8iF2cDIMQ3B4NrPwFDZlcDANKHAgI65wGChHsBwBUvAAFz7vxj4jcBwBUvASPmYwICDAsCATsPAIMvJv0B0o78AJMm/QHEwwAAR
        TD8gnqK/IEq5P6DJcMBgHYw/sG9PwMAcoj9AB1vAwLMJQIDlE8AA2pY9wEmAP4AAjr4AFGS+wKZWP0BDq79AXIS/ALQMQMDfFsCgMNe/EMgdQAAeSz+Ar+a/gBALPwA+
        Nr+Q9y/AAJBtPoA9kz8AINu/QA2jQFCeL8AAnKs9gNvzv4AZOEAAgH1AUB4AwEB8OUCgOeC/YGLJvwCAkzpA7Jc/wBAjwEDMxr+A9eG/ANN5P6Acwr+ALpg+wD+sP1Dm
        PkCAgke/MBkVwOAw2L9AvI8/oF5PQABZyb+AafY/AJhav8DNc7+wXBXA4LT0v7AJKEAAyhs/oOhVQCC1F0BAhq0/4ODGv/C7F8BABDq/4MGyv+DBsr+EAAAAAAAAAAAA
        AIA/AQAAAAEAAAABAAAAHwAAAAOAAABIAQAAAAAAgD8AAAAADPTcPwOAAABgWAAAAAAAqEEAAIA/WAAAAAAAAACPCvqXPwEAAAAAAAAAAAJlSJI/AAAAAAAAAABCjWmQ
        PwAAAAB2KkQ6Fv0MPMEqlD/d0kk9XnWXPUxynD3+5pk/l80rPvmpfj7BKpQ/NOHRPs7ZAj8ZgB0/ey1EPwQScz80mG0/Z2JxP4dUGj9fFBU/OGdiP0/MNT+KUl4/Byzx
        Pm3/1j7WQs0+azxbP3PTFD4pNCM/Co+aPky/pT8NSAo/wSqUP+7Zsj7WPLk+cDJWPq+3Jz36uPc+9MZFPnm9jj9PTDs+akq/Pr+Pjj9a6I0/EGJiPtVhyj0AhI8/CzWK
        P10PCT+0xIE+33wkPo1LyTt5Dbs8a09ZPzeqPT7b5Ec+TfE7PyeYJj5gU28/kyM5P4JrNT7iSB8+CAU6PuplRz+2f288A4AAAGACAAAAAACoQQAArkICAAAAAACAP4ED
        gAAAAAYAAAAAAPVCAAB6QwAA60MAwI9EAAAbRQDwh0UDAAAABAAAAAEAAAACAAAABgAAAAUAAAAGAAAAMzNDwQUAAMDAAABgwAAAMEGamSlBAABAwAOAAABgAgAAAACA
        bUQAACBEAgAAAIXrkT4B16NwPgAAAAADgAAAUAAAcEIBAAAAAAAAAAAAgD8DgAAAUAAAcEIBAAAAAAAAAAEAAAAAAAAAAAAAAM3MzL3NzMw9AQAAAAAAAAAAAAAAAAAA
        vwAAAD8AAIA/A4AAAEADAAAAAACoQQAAcEIAANhCAwAAAAAAgD+CAAAAAAOAAABgAgAAAAAAqEEAAK5CAgAAAAAAAACBAACAPwOAAABgAgAAAAAAqEEAAK5CAgAAAAAA
        gD+BAAA0QgOAAABADwAAAAAAqEEAANBBAAD4QQAAEEIAAEBCAABwQgAAkEIAAKhCAAC0QgAAwEIAAMhCAADQQgAA1EIAANZCAADYQg8AAAAAAIDABAAAQMAAAADAAACA
        vwAAAAAAAAAAgQAAAEAHAACAQAAAwEAAACBBAACAQQAAoEEAAMhBAAAAQgAAgD8DgAAAQAMAAAAAAKhBAABwQgAA2EIDAAAAAACAP4IDgAAAQAUAAAAAAPBCAAB6QwAA
        ekQAAMhEAMAoRQUAAAAAAADAAQAAAAAAAAAAAgAAwL8AAMDAAQAAAAOAAAAgAgAAAAAAAAB3u10/AQAAAAMAAAACAAAAAAAAAAH+fj8/A4AAAGACAAAAAAAAAAAAgD8C
        AAAAAACAP4EDgAAAQAQAAAAAAAAAJpNJPv5+Pz8AAIA/BAAAAAAAAACBAACAP4EDgAAAYAIAAAAAAAAAAACAPwIAAAAAAAAAgQAAAADNzEw+AAAAAAAAAAAAAIA/mpkZ
        PwAAAADNzCxAA4AAAGACAAAAAACoQQAArkICAAAAAACAP4EAAIC/AAAAPwOAAABgAgAAAAAAwEEAAJBCAgAAAAAAgD+BAQAAAAEAAAABAAAACgAAAFNtYWxsIEhhbGwL
        AAAAbWVkaXVtaGFsbDEAAEDAAACQQQAAgD8AAIA/AAAAAI/CdT0AAMDAzcxMPgAAAACamYlAXjHbQwAAgD8AAIA/AQAAAAYAAACZmZk/AABAQAOAAABgWAAAAAAAqEEA
        AIA/WAAAAOdygT9XiQ98P5DWdT+adGo/FEx9P/dqfT+vrYU/CASCPwo3Zz+lj4Y/+vRyP/eGij/yrX0/Z8x2P8N2bj++4Yo/NnqFP9UQaD+QroQ/gk+HP+QOdj8iUIo/
        buOGP4eDiD/2QYc/9NdtP+GFiz+AlHI/OVt7PyyKiz8mrIg/7iVlP8NLiz+jaG8/OCpwP54wTz/uJWU/22WEPz8xZz8aboU/bdRpP8cmgT8YdHQ/1HRxPzgvWj9Yhmw/
        qExyP2rHZD/EP3U/sJ16PyOadz/+kIA/W/p3P9/hhT+qb20/YtlgP7a2bT/U6mE/h7N5P/dWgT+BFHA/+nNiPxwShz+SwGs/nOeHP2D5hT9pwXE/VNRwP7TKgj/rzYc/
        bt2HPz2iiD/Kums/H1aBPxQVfT9LcGo/NhdtP5lFdD+jvn8/tDuKP3otez/ujYw/yDZ1P6Y0Zz8Vwn4/1WqJP5Txaz9RAG4/A4AAAGBpAAAAAAAQQQAAgD9pAAAAYU1q
        PwMlHWg/kDt8P6e9gj+nvYI/ZGeTgT8583k/6+9lP2yeYT+da3U/OfN5PxfwcD9PUHM/I4JaPwbChz/bRoU/yRWMP+tqYj+yc4A/g4WLPw1XkT+cC2E/HyJ8Pw2Gej9A
        JnA/L/WFP8nSgT8QbH0/wcmKP3xEgz/obmk/+O95P7ercz+9CpM/TwKPP0OefD8EWGk/JviIP2LEgz8fbHU/umyEP49hXz/BxH4/A0OEP3BcaT8JTZU/I8mAP0wzgz+T
        vII/1S6EP+FUfj8bYIc/zCp3PwU3hT/X5IE/q81ePy9ukj/AjWM/MQhrP9jWZT/Jr5A/mC2EP9dUfz9JQIU/hUmIP1LHhz+73H0/TPpsP6l+jT+T140/zChoPzuQVz+r
        MVc/MduJP+cjlT8Td4Y/eWt4P077hD+Xj3Y/kQZ9P0laeT+r2Yo/x3B3P1N+hD+BTGs/tDxyP7JIjT8r2HU/yLpxP83YiT+7GXg/N/CNP4jBcT+Q+Ig/HZJ0P+tbfj+t
        84g/m4OEP/tviT/Hp4g/oUaMP8eniD9s6YM/i0WGP8eniD8AAAAAA4AAAGBYAAAAAACoQQAAgD9YAAAAlemKvjflLuo9nOKAvl0QHL4nWFU+5qNVvmzrhz5iHZK+S7qU
        Pp8smb4itEE+llw+vqKh570iwXY9BcFxPsP9pD3M/2a+jDtWvqmHc74+Kw6+VUGuva5+eD3cvwc+bTd2PriMQr4rFKs9BYWEve75Jr6kbEQ9DnV8vhJd471G7pW+1E8r
        vkZQwL1yQ4++fteou12g6D0IpI09ZkLou1znX71wDiC9vudzPjfstr1+irO9OVcSPof8FD6+umq+yV02vpFQlD4sRbm88RbjPEI3XD7JR2i+MFt2vXzYlj6wqiq9sKoq
        vR+oUt47UZyVPrJrVz0HR9M+Hw64PkXsyD6w/44+S9YwvXeDzT6G6ZQ+q3SfPqmrrz1FlPQ+oFV7PfNppT52PuA+iQLGPghAoz04x+s+YgFXPRNk4z6nIMQ+0dNsvYyl
        xz71FkQ+UsUcPvu9Tj7pR+C8wW9/Pk29Jb1wsdk+AQAAAAEAAAABAAAAAwAAPy2WiEADAAAAnwZxP61CcT+gp6g/A4AAAGBpAAAAAAAQQQAAgD9pAAAAx11SP2h7hUE/
        lZRIP9dCTD91GEc/I6tGP+LyTD9cqk4/r5RBP8fCRz+0nFI/2Ik9P40wTj9XJz0/kFpWP4f2Sz85BE4/1YhPP77FSz9lBEw/cLhFP/OkQz8jwz8/oLZKP6BPSz8pb0o/
        hM1EP8kWQj9xdk0/5BxcP/2TTT8pqFU//wJXPw6sXT+c1WI/zF1jP8a+Tz/Ja2E/NphqP3BJaT/F9FY/6qJwP9x4YT8ly20/fxVwP1RPcD/n134/VZl7PxqafT+Z5Hw/
        r+uDPxFagz9bNIU/IumDP+djdj86QIc/8yVtP8OTiD+wVHg/sHSAPxLSgT/A2ns/QnGAPxHFdj9faHI/vWZ4P+yxcz+Xg4c/5BZsP5rUhT976nQ/fWKDP3EBgz/6Dog/
        XkeHPyeygj/VkX8/R4p9P6NngT/AZoI/Wfd6P7KYgj/r13w/FQGBP3qYdz/NpHc/Io6BP3n+gT9sxXc/vGCCP2hIgj8MOIA/h6GEP7cggj8wgXo/EPaCPxrxhD+1qnk/
        97SFP140fT858XY/2wx4P1mGfj9Oj4A/G0OAPwOAAABAAwAAAAAAqEEAAHBCAADYQgMAAAAAAIA/ggOAAABAAwAAAAAAqEEAAHBCAADYQgMAAAAAAIA/ggAAgD8AAIA/
        BwAAAAAAgD+amZk+FK5HPzMzsz+amZk+CAAAAAAAAAAAAAAAAAAAAAAAAAAAAAAAAAAAAAAAAAAAAAAAA4AAAGBpAAAAAAAQQQAAgD9pAAAAgtuxP2j/V8o/gTufP7HF
        sz9r2JQ/XoKgP178gT/r0m0/Kc1mPyrukz/d4mU/ikxLP4J5TT+GWHA/gd6XP+3mqz8b5L4/TjidP8IbXz9wCXk/FYxuP85zeT+yMnU/y4JnPwsZvD8hBYc/0vWCP+Mz
        Pj/1x40/ZeaWP8ZncT8HxFQ/FbxCP6GzPD+CKXM/DCWjP7PVUT8+VDQ/aZ2DP13iaj8ERpA/iQ1MP6GTij91Yn0/0VtzPy03LD8gLIQ/nRBzP4deLD9bmD4/nQFVP8gd
        mz9KQnE/TR+lP/QHpj9nx6I/Q691PzLfdT+GvXA/nv2LP+ZDRD9W8VI/5sCfP7JlgT80OjU/O2uHP+nddj+pG4Q/1MSOP6RXWj/qFmc/GpOBP34foz82zX8/dROhP4Fm
        uz8V3WI/+rlVP0yjcD+oQak/+JOxP8ND5j8jqag/NtiEP7LQkz89p60/kAynP9yo4T/Ur8I/g0J5P5wJjT/ZEXA/NMNoP67leD/RNW4/u06CP4bwhD/NEYg/Ul5nP2/5
        Wj+eRl4/xEqLP0o0iz/br60/c9GjPwOAAABgaQAAAAAAEEEAAIA/aQAAAEaUdj8C/ABwPypwcj8qcHI/mI50cj9M8nhyP1Z9cj+qgXI/DoZyP3KKcj/WjnI/OpNyP56X
        cj8CnHI/ZqByP8qkcj8uqXI/gq1yP+axcj9KtnI/rrpyPxK/cj92w3I/2sdyPz7Mcj+i0HI/BtVyP1rZcj+CyHI/mbdyP8Kmcj/ZlXI/AYVyPyp0cj9BY3I/aVJyP4FB
        cj+pMHI/wR9yP+kOcj8A/nE/Ke1xP0DccT9oy3E/gLpxP6ipcT/QmHE/6IdxPxB3cT8nZnE/UFVxP2dEcT+PM3E/pyJxP88RcT/nAHE/D/BwPzffcD9PznA/d71wP46s
        cD+3m3A/zopwP/Z5cD8OaXA/NlhwP15HcD92NnA/niVwP7YUcD/eA3A/9fJvPx7ibz810W8/XcBvP3Wvbz+dnm8/tY1vP918bz8FbG8/HVtvPwOAAABAAwAAAAAAqEEA
        AHBCAADYQgMAAAAAAIA/ggOAAABgaQAAAAAAEEEAAIA/aQAAAEhsgD9BPqiAP33Xfz/s1n8/BCeAP93lfz++/H8/ByeAP2LPgD8XqYA/bY+APw+UgD/t9IA/1wmBP00v
        gD+Ndn8/F2aAP2BBgD+kDYA/ux5/P6POfj+Vln8/DISAPxrMgD/xhYA/QzSAP+tfgD/1jH8/OwuAP5SQfj/8LX8/LxmAP6Rifz9dFn8/QHZ/P20VgD8A/38/ygWAPxYu
        gD+NTIA/FmR/P1uJfz/IEYA/O2KAP8aegD+N8n8/8VF/P4oTgD9/ZX8/tLd+P3RMfz8NTH8/1mJ/PwlRgD+PV4A/rYiAPxnSfz93EH8/XVd/P5IbgD9jlH8/fx2AP70M
        gD/b138/31l/P4uveD+Lr3g/Jrdtez9083w/JP58P/yYfT/tjH0/ioV5P/USfD+LGnk/jER4P41udz+PLXY/kex0P5IWdD+z7XM/pYpyP3NIcD/Nm24/xydtP2ydbD/v
        dGs/A9RqP+guaj+nZWs/TVJsP7EobD9nKGw/PwVrPx8aaz8gHms/07FqP27Gaj/F52o/p6NqP8uIaT9My2k/uaFqP38Zaz+oYWs/AQAAAGkAAAAAABBBA4AAAGAMAQAA
        AAAAAAAAgD8MAQAAAAAAAP8AAAAA/wAAAACLAAAgQQOAAABgAgEAAAAAAAAAAIA/AgEAAAAAAAD/AAAAAP8AAAAAgQAAMEEDgAAAYPgAAAAAAAAAAACAP/gAAAAAAAAA
        /wAAAAD3AABAQQOAAABg7wAAAAAAAAAAAIA/7wAAAAAAAAD/AAAAAO4AAFBBA4AAAGDrAAAAAAAAAAAAgD/rAAAAAAAAAP8AAAAA6gAAYEEDgAAAYOMAAAAAAAAAAACA
        P+MAAAAAAAAA/wAAAADiAABwQQOAAABg2QAAAAAAAAAAAIA/2QAAAAAAAAD/AAAAANgAAIBBA4AAAGDTAAAAAAAAAAAAgD/TAAAAAAAAAP8AAAAA0gAAiEEDgAAAYNAA
        AAAAAAAAAACAP9AAAAAAAAAA/wAAAADPAACQQQOAAABgzgAAAAAAAAAAAIA/zgAAAAAAAAD/AAAAAM0AAJhBA4AAAGDLAAAAAAAAAAAAgD/LAAAAAAAAAP8AAAAAygAA
        oEEDgAAAYMkAAAAAAAAAAACAP8kAAAAAAAAA/wAAAADIAACoQQOAAABg4gAAAAAAAAAAAIA/4gAAAAAAAAD/AAAAAOEAALBBA4AAAGDaAAAAAAAAAAAAgD/aAAAAAAAA
        AIgAAKDAAQAAAAAAAAAA/wAAAADOAAC4QQOAAABg0QAAAAAAAAAAAIA/0QAAAAAAAAD/AAAAANAAAMBBA4AAAGD8AAAAAAAAAAAAgD/8AAAAAAAAAP8AAAAA+wAAyEED
        gAAAYOgAAAAAAAAAAACAP+gAAAAAAAAA/wAAAADnAADQQQOAAABg2QAAAAAAAAAAAIA/2QAAAAAAAACJAACgwAEAAAAAAAAAAP8AAAAAzAAA2EEDgAAAYMkAAAAAAAAA
        AACAP8kAAAAAAAAA/wAAAADIAADgQQOAAABg2wAAAAAAAAAAAIA/2wAAAAAAAACFAABAwAEAAAAAAAAAAP8AAAAA0gAA6EEDgAAAYOYAAAAAAAAAAACAP+YAAAAAAAAA
        /wAAAADlAADwQQOAAABg1gAAAAAAAAAAAIA/1gAAAAAAAAD/AAAAANUAAPhBA4AAAGDKAAAAAAAAAAAAgD/KAAAAAAAAAIQAACDAAQAAAAAAAAAA/wAAAADCAAAAQgOA
        AABgwwAAAAAAAAAAAIA/wwAAAAAAAAACAACAwAAAAAAAAAAA/wAAAAC/AAAEQgOAAABgzAAAAAAAAAAAAIA/zAAAAAAAAAACAAAAwAAAAAAAAAAAggAAQMABAAAAAAAA
        AACDAACAwAEAAAAAAAAAAP8AAAAAvQAACEIDgAAAYNIAAAAAAAAAAACAP9IAAAAAAAAABQAAAMAAAIA/AABAQAAAIMEAAAAAAAAAAP8AAAAAywAADEIDgAAAYMYAAAAA
        AAAAAACAP8YAAAAAAAAAAgAAgMAAAAAAAAAAAAIAAIDAAAAAAAAAAAC4AABAwAEAAAAAAAAAAP8AAAAAhAAAEEIDgAAAYMQAAAAAAAAAAACAP8QAAAAAAEDABAAAoMAA
        AADAAAAAAAAAQMAAAEDAAgAAgD8AAAAAAAAAAIMAAEDAAQAAAAAAAAAA/wAAAAC1AAAUQgOAAABgxAAAAAAAAAAAAIA/xAAAAAAAAAD/AAAAAMMAABhCA4AAAGDEAAAA
        AAAAAAAAgD/EAAAAAACAPwQAAABAAAAAwAAAQMAAAAAAAAAAAP8AAAAAvgAAHEIDgAAAYKsAAAAAAAAAAACAP6sAAAAAAAAAAgAAAMAAAABAAAAAQAIAAEDAAAAAAAAA
        AAD/AAAAAKQAACBCA4AAAGCrAAAAAAAAAAAAgD+rAAAAAABAQAIAAMA/AABAQAAAQEADAADAPwAAQMAAAAAAAAAAAP8AAAAAowAAJEIDgAAAYKsAAAAAAAAAAACAP6sA
        AAAAAAAA/wAAAACqAAAoQgOAAABgkwAAAAAAAAAAAIA/kwAAAAAAAMAEAAAAQAAAAAAAAABAAAAAAAAAAAD/AAAAAI0AACxCA4AAAGCTAAAAAAAAAAAAgD+TAAAAAAAA
        wAMAAAAAAACgwAAAAAAAAAAAgQAAQMABAAAAAAAAAAD/AAAAAIoAADBCA4AAAGCTAAAAAAAAAAAAgD+TAAAAAACAwAMAAADAAACAwAAAAAAAAAAA/wAAAACOAAA0QgOA
        AABggAAAAAAAAAAAAIA/gAAAAAAAQMADAACAvwAAgD8AAABAAAAAQIEAAMA/AgAAAAAAAEDAAABAwAEAAAAAAAAAAIUAAKDAAQAAAAAAAAAAgQAAQMABAAAAAAAAAADo
        AAA4QgOAAABggAAAAAAAAAAAAIA/gAAAAAAAAMACAAAAQAAAAAAAAAAA/AAAPEIDgAAAYIAAAAAAAAAAAACAP4AAAAAAAMDABQAAAEAAAIC/AACAPwAAAMAAAAAAAAAA
        AIcAAMC/AQAAAAAAAAAAlwAAQMCBAAAAANUAAEBCA4AAAGBsAAAAAAAAAAAAgD9sAAAAAABAwAMAAABAAABAwAAAAAAAAAAAowAAQMCBAAAAAMEAAERCA4AAAGBsAAAA
        AAAAAAAAgD9sAAAAAAAAwAEAAAAAAAAAAIEAAEDAAgAAAMAAAAAAAAAAAOQAAEhCA4AAAGBsAAAAAAAAAAAAgD9sAAAAAAAAAAIAAADAAAAAQAAAAEACAAAAAAAAAEAA
        AABAgQAAAACSAAAQwQEAAAAAAAAAAM4AAExCA4AAAGBnAAAAAAAAAAAAgD9nAAAAAAAAAIQAAMC/AQAAQMAAAEDABgAAIMCamdm/mpmZvwAAgL8zMzO/AAAAAAAAAADY
        AABQQgOAAABgVwAAAAAAAAAAAIA/VwAAAAAAAAABAAAAwAAAAMABAAAAAAAAAACGAACAwAIAAEBAAAAAAAAAAADIAABUQgOAAABgVwAAAAAAAAAAAIA/VwAAAAAAAACB
        AAAgQAUAAKDAAAAgwAAAAAAAAADAAAAAAAAAAADOAABYQgOAAABgVgAAAAAAAAAAAIA/VgAAAAAAAMACAACAvwAAAAAAAAAAhgAAQMADAAAAAAAAgMAAAAAAAAAAAMcA
        AFxCA4AAAGBJAAAAAAAAAAAAgD9JAAAAAAAAAAQAAADAAABAQAAAQMAAAAAAAAAAAAIAAIC/AAAAAAAAAACDAAAAwIIAAAAAiQAAgMCBAAAAAIkzMzPAgQAAAAChAABg
        QgOAAABgSQAAAAAAAAAAAIA/SQAAAAAAAAADAAAAwAAAgL8AAAAAAAAAAIEAAADAAQAAAAAAAAAAAgAAgL8AAAAAAAAAAAIAAADAAAAAAAAAAAC6AABkQgOAAABgSAAA
        AAAAAAAAAIA/SAAAAAAAAAAGAACAQAAAAEAAAIA/AAAAAAAAAEAAAIC/AACAvwYAAABAAAAAAAAAAMAAAAAAAAAAwAAAAAAAAAAAuQAAaEIDgAAAYEUAAAAAAAAAAACA
        P0UAAAAAAEBABgAAgD8AAADAAACAvwAAAAAAAADAAAAAAAAAAAAFAACAPwAAAMAAAAAAAAAAQAAAAAAAAAAAtwAAbEIDgAAAYD8AAAAAAAAAAACAPz8AAAAAAABAAwAA
        gL8AAIA/AAAAAAAAAAACAABAwAAAAAAAAAAAgQAAgD8DAADAwAAAgD8AAAAAAAAAALEAAHBCA4AAAGA5AAAAAAAAAAAAgD85AAAAAAAAPwMAAIA/AADAPwAAgL8AAIC/
        gQAAAAADAACAvwAAAMAAAEDAAABAwAYAAEBAAAAAAAAAQMAAAAAAMzMDwAAAAAAAAAAApwAAdEIDgAAAYDkAAAAAAAAAAACAPzkAAAAAAAAAAgAAAEAAAADAAAAAwAQA
        AABAAAAAAAAAAEAAAAAAAAAAAAIAAEDAAAAAAAAAAAACAABAwAAAAAAAAAAAqgAAeEIDgAAAYDYAAAAAAAAAAACAPzYAAAAAAADAAQAAAAAAAAAAswAAfEIDgAAAYDEA
        AAAAAAAAAACAPzEAAACAD8o9A8iS/D4Lknw/ydqdP8nanT8CMzMzP83MTL7NzEy+gsiSfL4DHpJ8vx9rvb8AAAAAAAAAAKIAAIBCA4AAAGAwAAAAAAAAAAAAgD8wAAAA
        AAAAAAUAAEBAAAAAAAAAgL8AAIA/AACAwAAAgMABAAAAAAAAAAADAADAwAAAAAAAAADAAAAAwAEAAAAAAAAAAKEAAIJCA4AAAGAuAAAAAAAAAAAAgD8uAAAAAAAAAIQA
        AABAAQAAAAAAAAAAAgAAgL8AAAAAAAAAAAIAAADAAAAAAAAAAACgAACEQgOAAABgKwAAAAAAAAAAAIA/KwAAAAAAAMAFAACAQAAAAAAAAIDAAAAAwAAAAAAAAAAAgc3M
        bMABAAAAAAAAAACBAADAwAEAAAAAAAAAAJwAAIZCA4AAAGAnAAAAAAAAAAAAgD8nAAAAAACAvwIAAABAAAAAAAAAAAACAABAwAAAAMAAAADABAAAAAAAAADAAAAAQAAA
        AAAAAAAAmwAAiEIDgAAAYCYAAAAAAAAAAACAPyYAAAAAAAC/CgAAgD8AAAC/AAAAAAAAwL8AACDAAACAvwAAAABmZmbAAACAPwAAAAAAAAAAmgAAikIDgAAAYCQAAAAA
        AAAAAACAPyQAAAAAAAAAgQAAgL8BAAAAAAAAAAACAABAwAAAAAAAAAAAnAAAjEIDgAAAYCIAAAAAAAAAAACAPyIAAAAAAIA/ggAAAACBAACAvwEAAAAAAAAAAJoAAI5C
        A4AAAGAgAAAAAAAAAAAAgD8gAAAAAAAAAIMAAABABAAAAAAAAABAAACAvwAAAAAAAAAAlgAAkEIDgAAAYB0AAAAAAAAAAACAPx0AAAAAAABAgQAAgECBAABAwAMAAABA
        AACAvwAAAAAAAAAAlAAAkkIDgAAAYBwAAAAAAAAAAACAPxwAAAAAAAAAgwAAoMACAAAAwAAAAAAAAAAAlAAAlEIDgAAAYBsAAAAAAAAAAACAPxsAAACSJD8/gpIkP78B
        AAAAAAAAAAACvFkPwKzrw7+s68O/AQAAAAAAAAAAkAAAlkIDgAAAYBkAAAAAAAAAAACAPxkAAAAAAAAAhfEyw7+CAAAAAI8AAJhCA4AAAGAYAAAAAAAAAAAAgD8YAAAA
        AACAPwMAAIC/AAAAAAAAAMAAAADABAAAgL8AAAAAAAAAwAAAAAAAAAAAjgAAmkIDgAAAYBYAAAAAAAAAAACAPxYAAAAAAMC/AQAAAAAAAAAAhAAAQMABAAAAAAAAAACM
        AACcQgOAAABgFQAAAAAAAAAAAIA/FQAAAAAAgD8BAAAAAAAAAAADAAAAwAAAQMAAAAAAAAAAAI4AAJ5CA4AAAGAUAAAAAAAAAAAAgD8UAAAAAAAAQAYAAIA/AABAwAAA
        gL8AAAAAAAAAwAAAAAAAAAAAjAAAoEIDgAAAYBMAAAAAAAAAAACAPxMAAAAAAAAAAwAAAEAAAIA/AAAAwAAAAMABAAAAAAAAAACMAACiQgOAAABgEgAAAAAAAAAAAIA/
        EgAAAAAAAD8DAACAPwAAgL8AAAAAAAAAAAEAAIC/AACAvwEAAAAAAAAAAIkAAKRCA4AAAGARAAAAAAAAAAAAgD8RAAAAAADAPwEAAMC/AADAvwEAAAAAAAAAAIwAAKZC
        A4AAAGAQAAAAAAAAAAAAgD8QAAAAMZJ8P4EAAAAAgR9rvb8DAAAAAB9rvb8AAAAAAAAAAIcAAKhCA4AAAGAPAAAAAAAAAAAAgD8PAAAA0lYCPwGJf8M/iX/DPwUAAAAA
        nH/DvwAAAACcf8O/AAAAAAAAAACGAACqQgOAAABgDgAAAAAAAAAAAIA/DgAAADGSfD8CMXGBPwAAAAAAAAAAAh9rvb8AAAAAAAAAAIcAAKxCA4AAAGANAAAAAAAAAAAA
        gD8NAAAACWaGP4EAAAAAARNmhr8TZoa/AQAAAAAAAAAAhgAArkIDgAAAYAwAAAAAAAAAAACAPwwAAAAAAIA/A1V6ej8AAIC/AAAAwAAAAMABAAAAAAAAAACFAACwQgOA
        AABgDAAAAAAAAAAAAIA/DAAAAAAAAACDZmaGvwEAAAAAAAAAAIUAALJCA4AAAGALAAAAAAAAAAAAgD8LAAAAAAAAAAQAAIC/AAAAwAAAgL8AAAAAAAAAAIUAALRCA4AA
        AGAKAAAAAAAAAAAAgD8KAAAAAAAAwAEAAAAAAAAAAIcAALZCA4AAAGAKAAAAAAAAAAAAgD8KAAAAAABAQAQAAABAAAAAwAAAQMAAAAAAAAAAAIQAALhCA4AAAGAJAAAA
        AAAAAAAAgD8JAAAA0UU3QAQXXfQ/F110Pxdd9D4AAAAAAAAAAIMAALpCA4AAAGAJAAAAAAAAAAAAgD8JAAAAo4suQAQuuug/LrpoPy666D4AAAAAAAAAAIMAALxCA4AA
        AGAIAAAAAAAAAAAAgD8IAAAAdNElQARGF90/RhddP0YX3T4AAAAAAAAAAIIAAL5CA4AAAGAIAAAAAAAAAAAAgD8IAAAARhcdQARddNE/XXRRP1100T4AAAAAAAAAAIIA
        AMBCA4AAAGAIAAAAAAAAAAAAgD8IAAAAF10UQAR00cU/AADAv3TRxT4AAAAAAAAAAIIAAMJCA4AAAGAIAAAAAAAAAAAAgD8IAAAA6aILQASMLro/jC46P4wuuj4AAAAA
        AAAAAIIAAMRCA4AAAGAIAAAAAAAAAAAAgD8IAAAAuugCQASji64/o4suP6OLrj4AAAAAAAAAAIIAAMZCA4AAAGAIAAAAAAAAAAAAgD8IAAAAFl30PwS56KI/uegiP7no
        oj4AAAAAAAAAAIIAAMhCA4AAAGAIAAAAAAAAAAAAgD8IAAAAuujiPwTSRZc/0kUXP9JFlz4AAAAAAAAAAIIAAMpCA4AAAGAIAAAAAAAAAAAAgD8IAAAAXHTRPwTooos/
        6KILP+iiiz4AAAAAAAAAAIIAAMxCA4AAAGAIAAAAAAAAAAAAgD8IAAAAAADAPwQAAIA/AAAAPwAAgD4AAAAAAAAAAIIAAM5CA4AAAGAIAAAAAAAAAAAAgD8IAAAAoouu
        PwQAAMC/LbroPi26aD4AAAAAAAAAAIIAANBCA4AAAGAIAAAAAAAAAAAAgD8IAAAARRedPwRcdFE/XHTRPlx0UT4AAAAAAAAAAIIAANJCA4AAAGAIAAAAAAAAAAAAgD8I
        AAAA6KKLPwSLLjo/iy66PosuOj4AAAAAAAAAAIIAANRCA4AAAGAIAAAAAAAAAAAAgD8IAAAAFl10PwS56CI/ueiiPrnoIj4AAAAAAAAAAIIAANZCA4AAAGAIAAAAAAAA
        AAAAgD8IAAAAXHRRPwToogs/6KKLPuiiCz4AAAAAAAAAAIIAANhCA4AAAGAEAAAAAAAAAAAAgD8EAAAAoosuPwMtuug+LbpoPi266D0AANpCA4AAAGAEAAAAAAAAAAAA
        gD8EAAAA6KILPwOLLro+iy46Posuuj0AANxCA4AAAGAEAAAAAAAAAAAAgD8EAAAAXHTRPgPooos+6KILPuiiiz0AAN5CA4AAAGAEAAAAAAAAAAAAgD8EAAAA6KKLPgOL
        Ljo+iy66PYsuOj0AAOBCA4AAAGAEAAAAAAAAAAAAgD8EAAAA6KILPgOLLro9iy46PYsuujwAAOJCA4AAAGAEAAAAAAAAAAAAgD8EAAAAAAAAAIM5lNc9A4AAAEALAAAA
        AADAQQAA4EEAAOhBAAAcQgAAIEIAAFxCAABwQgAAkEIAAKhCAADAQgAA2EILAAAAutqaP4P6pYk/Bm4plj/NvpE/+qWJP1zEdz+TLSU/XMT3PgEAAAABAAAAAQAAAIsH
        Nj9XVLM/AQAAAAEAAAABAAAAQZU1P3iV4T8BAAAAAAAAAAEAAAAzMzM/ZmamPwEAAAAAAAAAAQAAADMzMz9mZqY/AQAAAAAAAAABAAAAMzMzP2Zmpj8BAAAAAAAAAAAA
        8EIAAAAADgAAAAAAAD/NzMw9zcxMPgAAAD8DAAAAAAAAAAOAAABIAQAAAAAAAAAAAAAAA4AAAEgBAAAAAAAAAAQAAAACAAAACAAAAAQAAAABAAAAAQAAAAAAgD8AAIA/
        AQAAAAEAAAABAAAAAQAAAAEAAAAAAIA/AAAAAAAAgEAAALRCRgAAAAADgAAASAEAAAAAAAAAAAAAAAOAAABIAQAAAAAAAAAAAAAAAAAAAAOAAABIAQAAAAAAAAAAAAAA
        AwAAAAcAAAABAAAAAAAAAA4AAAAQAAAAAAAAAJqZGT4AAIA/AAAAAAAAAL8AAMBBAAAAAAAAAAAAAAAAAAAAAAAAAAAAAAAAAAAAAAAAAAAAAAAAAAAAAAMAAAAKAAAA
        AQAAAAAAAAAOAAAAEAAAAAAAAAAAAFxDAACAvwAAAD8AAABAAAB6RAAAAAAAAAA/AACAPwBAnEUAAABAmpkZPwAAQEAAAAAAAAAAAAAAAAADAAAACgAAAAEAAAAAAAAA
        DgAAABAAAAAAAAAAAADIQgAAAAAAAIA/AAAAQABAnEUAAIA/mpmZPgAAgD8AgDtGAAAAQAAAAD8AAEBAAAAAAAAAAAAAAAAAAQAAAAEAAAAAAIA/AABAwQAAAAADAAAA
        AwAAAAAAAAABAAAABQAAAAQAAAABAAAAAwAAAGY9ij7oUTg+XI+CP7GwaMIQboHABAAAAAUAAAAAAADAAABAwQAAwMIAAMDCAADAwgUAAAAAAAAAj8L1PAAAAAAAAAAA
        AAAAAAUAAAAAAAAAAAAAAAAAAAAAAAAAAAAAAAEAAAAAAAAABAAAAAEAAAADAAAARuF6P+hROD4K16M/sodOQhBugcAEAAAABQAAAAAAQMEAAADAAADAwgAAwMIAAMDC
        BQAAAI/CdTxSSR06AAAAAAAAAAAAAAAABQAAAAAAAAAAAAAAAAAAAAAAAAAAAAAAAQAAAAAAAAAEAAAAAQAAAAMAAACcxEA/N4kJQGq8xD/NzCNDzcwgwgMAAAAFAAAA
        AABwwQAAcMEAAHDCAABwwgAAcMIFAAAAAAAAAAAAAAAAAAAAAAAAAAAAAAAFAAAAAAAAAAAAAAAAAAAAAAAAAAAAAAABAAAAAAAAAAQAAAAAAAAAAwAAANejCECF6+E/
        rkfhP83M2EIAAAAABwAAAAUAAAAAAHDCAABwwgAAcMIAAHDCAABwwgUAAAAAAAAAAAAAAAAAAAAAAAAAAAAAAAUAAAAAAAAAAAAAAAAAAAAAAAAAAAAAAAEAAAAAAAAA
        BAAAAAAAAAADAAAAuB7FPz0KVz+uR+E/AAAAAAAAAAAAAAAABQAAAAAAcMIAAHDCAABwwgAAcMIAAHDCBQAAAAAAAAAAAAAAAAAAAAAAAAAAAAAABQAAAAAAAAAAAAAA
        AAAAAAAAAAAAAAAAAQAAAAAAAAABAAAAAAAAAAEAAAADAAAAUrgeP+xRuL5mZqY/AACQQQAAAAAAAAAAAAAAAAEAAAAAAAAAAAAAAAAAAABKVUNFUHJpdmF0ZURhdGEA
        AQFCeXBhc3MAAQEDAB0AAAAAAAAASlVDRVByaXZhdGVEYXRhAAAAAAAAAAA=
        AAAQAAAA
      >
      PRESETNAME "HB Steinway D Felt II"
      FLOATPOS 32 149 592 662
      FXID {B76D5FDE-A8CA-584F-8F0F-DB5EF086AAD7}
      WAK 0 0
      BYPASS 0 0 0
      <AU "AU: VCV Rack 2 FX (VCV)" "VCV: VCV Rack 2 FX" "" 1635085670 1447253574 1447253599
        6QMAAAAAAAAQAAAAAQAAAAAAAAACAAAAAAAAAAAAAAAAAAAAAAAAAAAAAAAAAAAAAAAAAAAAAAAAAAAAAAAAAAAAAAAAAAAAAAAAAAAAAAAAAAAAAAAAAAAAAAAAAAAA
        AAAAAAAAAAAAAAAAAAAAAAAAAAAAAAAAAAAAAAAAAAAAAAAAAAAAAAAAAAAQAAAAAQAAAAAAAAACAAAAAAAAAAAAAAAAAAAAAAAAAAAAAAAAAAAAAAAAAAAAAAAAAAAA
        AAAAAAAAAAAAAAAAAAAAAAAAAAAAAAAAAAAAAAAAAAAAAAAAAAAAAAAAAAAAAAAAAAAAAAAAAAAAAAAAAAAAAAAAAAAAAAAAAAAAAAAAAADoBwAAPD94bWwgdmVyc2lv
        bj0iMS4wIiBlbmNvZGluZz0iVVRGLTgiPz4KPCFET0NUWVBFIHBsaXN0IFBVQkxJQyAiLS8vQXBwbGUvL0RURCBQTElTVCAxLjAvL0VOIiAiaHR0cDovL3d3dy5hcHBs
        ZS5jb20vRFREcy9Qcm9wZXJ0eUxpc3QtMS4wLmR0ZCI+CjxwbGlzdCB2ZXJzaW9uPSIxLjAiPgo8ZGljdD4KCTxrZXk+ZGF0YTwva2V5PgoJPGRhdGE+CglLTFV2L1FC
        SVJTTUFwankwT1VCcjJBQTh4SGhnSHBnSG1WVGdGQzhBakUvTG5VMzdxYzdxeTY0MU9oK3ptY0VhZVF3MwoJT0taTlNVbEo4cmlmMzM3bW54TWdzUFJJQWFvQW5BQ3FB
        QlQ0Vng2OXREY3N1VmNELzhyRFhwVDFoaDg3cVpWMDhhODgKCTJDMXhjZnlHcFF0VmxKM3dyMnhvRFU0WW8ydXlOUWhsZDB1M3FyQndPRmFkSkN3SWxuZ0dHM1kzWXdn
        V0Q4b0VCeEdJCglEeEVNQWdDempsUWxPN25VdE5ob211b2l1VTRCQUl3QVk0d0RZNndEdThEQWlHQWRHR01RakxFTGpESEhHQnZBR0lOZwoJaC9BR0RPN1VDc1lnbUFB
        REFkNk1xbFoxOVptRWNYWi96Z2NkbEhIQzlnZGRkN1BIT0x1YkxSS1dELy8vbFllRHZHSEsKCVRpRHE0ZjlDejFXNTRXclZoNVZIditHSFFuS3RxN0pHUjgvSXhFaVox
        elMrQjJrdjdRM2JLNm9UL245SnBlckUvKytzCglVeU9VdFNTS0N6MVhCTC9oeUQ1WHdwYTZFdnlHSllqQ0ZVMFAyWTlwTWI1dWo0R1NtVy80Z2ZqL2YyVkRaYVBydVJM
        KwoJbFlmR3IwenA1SFB0d1FZbm5mM2cwcEQvVng0TW5ZL1NwaE5TR2x1VEM0WDh2eExoRFZ1MmlrUVlQQkFWcnhlbUYwZloKCXFuSllYTW9Da2lHUlFTWFRjTTVKbjV2
        d3lkYlJJRzhZZWlBSi83ZkNxbXJFVEtOdm1NT3hJQXVycWhGMDBBU2FzT0RjCgl5T0hmUHJjaVEzUW4vdDl3RlZsSnFod08vMWNlSE5hOWtvcmZzS1VnMVFzTVU0YkV4
        YUNZb0tobzlNWFdYTXR1NWowbQoJdnVFSFlrWGpUa3haSzRJU09BOTNXTmUxcmttQ3FHdHYyR3FBR2xod2JyVEIvNzkwTjRWdjJGcjF3a2FUcEZiOC93OGkKCUp2Z05X
        MGxkWUIxb1lnTWRDbVd0cWtxZUNqZG9helMrNlpnSTQ1dVNpZEpaR1RlNnUyZDBrSUZ4enRkUXhpYm5neHNSCgkyaWlVVGRKdWozSHRudU1OT04rTEhPQTNUTjNvT2xP
        Q0pNaTZKdXU2RkRhNm5sdGhYWk4xM1VaYnBGQkcybHErMXVKRwoJZGU1c0ZkWElHN1lpVm9GbEgxaVVuVWlRdTBLblpKZ0kyM3h0U2lrN3lxV2xwSytuNitjZ3d6RE1o
        SExwMkdCa25Pc20KCXFldnViamZoZ3pqbEllbVRNTG9wbWZoYWdLZW9jUzB5WkdnQUJBQXdCRWlRQUlBQ2dLRWhxZ0lTWUdBWUZndlVHTU5oCglqQUlHR1FNRUFCa0ZB
        QUlJSUlDQUpnQ0QxUUJDOUNlRVZwRHlOMC9GN2o1NW1ORzB4Unc3bVduTDlBTXpnQ0trSlU0dQoJRkJoWDFqQXpEeVVXSWtNTlpBZkFmZ2xpY2NmalFkaHZOeGpUZGVM
        ckpBd2pLWmVXcFpKNDhRZUJzUktQYng3MWExaHgKCVorZUdnKzhNc0FGQzZqZVNpNi9mNVBUb2ErZThaSWJnVVk4OEZCUkVrQWVGUldOVEVnME1LWFFtYUVRbUREdGVE
        S2RQCglJTzRuL0RQU2hlNGNqSjhjNUsxYTFnQnR6OHpaaHhaTStrRU9RVnhVU2lrUGE3UUcxZkFwTVNzNjZMSVgzNEY1RjhGTwoJL0ZCbE1mQ2lOc1VHM3FabUVvcnlh
        S3lESXdNcERObEU0QVhJRUdWTGRrMUpPa0FkOEJwUHZaamhVeUdsc0lJZkNNRGsKCW50bTdPdWxST0g2Mk9wOG9aV01meTJ4dUJrTExYMGVGblhkakRFby9BandhZjY5
        REJvcTk3bGM2ME81R2tyS08wY1E4CglIZ0N1cFE0QUJ5aGIyb0NVNXFqMlM0V0dUb2NHbzcwOERrQm11OUF6OVUxSU4zdTNudFlSUStaTzRYY1lMNnBLZW1KaAoJR0wv
        aGtPNjhnZlQ4TU14dlJ4Z0QKCTwvZGF0YT4KCTxrZXk+bWFudWZhY3R1cmVyPC9rZXk+Cgk8aW50ZWdlcj4xNDQ3MjUzNTk5PC9pbnRlZ2VyPgoJPGtleT5uYW1lPC9r
        ZXk+Cgk8c3RyaW5nPlZDVlJhY2s8L3N0cmluZz4KCTxrZXk+c3VidHlwZTwva2V5PgoJPGludGVnZXI+MTQ0NzI1MzU3NDwvaW50ZWdlcj4KCTxrZXk+dHlwZTwva2V5
        PgoJPGludGVnZXI+MTYzNTA4NTY3MDwvaW50ZWdlcj4KCTxrZXk+dmVyc2lvbjwva2V5PgoJPGludGVnZXI+MTwvaW50ZWdlcj4KPC9kaWN0Pgo8L3BsaXN0PgoBAAAA
        AAAAAAAA
      >
      FLOATPOS 0 0 0 0
      FXID {5CF094C6-B0B3-8540-ADA2-6988E546D20D}
      WAK 0 0
    >
  >
  <TRACK {AA654F10-A467-8D45-86CE-3EA1A1F64A2B}
    NAME "Pianoteq 8"
    PEAKCOL 16576
    BEAT -1
    AUTOMODE 0
    PANLAWFLAGS 3
    VOLPAN 1.26386553538292 0 -1 -1 1
    MUTESOLO 0 0 0
    IPHASE 0
    PLAYOFFS 0 1
    ISBUS 0 0
    BUSCOMP 0 0 0 0 0
    SHOWINMIX 1 0.6667 0.5 1 0.5 0 0 0
    FIXEDLANES 9 0 0 0 0
    SEL 0
    REC 1 5088 1 0 0 0 0 0
    VU 2
    TRACKHEIGHT 0 0 0 0 0 0 0
    INQ 0 0 0 0.5 100 0 0 100
    NCHAN 2
    FX 1
    TRACKID {AA654F10-A467-8D45-86CE-3EA1A1F64A2B}
    PERF 0
    AUXRECV 0 0 1 0 0 0 0 0 0 -1:U 0 -1 ''
    MIDIOUT -1
    MAINSEND 1 0
    <FXCHAIN
      WNDRECT 32 136 807 690
      SHOW 0
      LASTSEL 1
      DOCKED 0
      BYPASS 0 0 0
      <VST "VST3i: Pianoteq 8 (Modartt) (1->5ch)" "Pianoteq 8.vst3" 0 "" 1031062328{565354507438717069616E6F74657120} ""
        OMN0Pe5e7f4CAAAAAQAAAAAAAAACAAAAAAAAAAUAAAABAAAAAAAAAAIAAAAAAAAABAAAAAAAAAAIAAAAAAAAABAAAAAAAAAAYoMAAAEAAAD//xAA
        UoMAAAEAAABWc3RXAAAACAAAAAEAAAAAQ2NuSwAAgzpGQkNoAAAAAlB0OHEACAQBAAAAAAAAAAAAAAAAAAAAAAAAAAAAAAAAAAAAAAAAAAAAAAAAAAAAAAAAAAAAAAAA
        AAAAAAAAAAAAAAAAAAAAAAAAAAAAAAAAAAAAAAAAAAAAAAAAAAAAAAAAAAAAAAAAAAAAAAAAAAAAAAAAAAAAAAAAAAAAAAAAAAAAAAAAAAAAAAAAAACCoqCYE/4CAAAA
        SDgSAFaCAAABAAAAEThWOEqCAABQclZLKQAAAlhGVFA6ggAACgAAADIwMjUvMDIvMjIXAAAAUGlhbm90ZXEgOC40LjEvMjAyNTAyMDTUnyz+Qme9z/grm4bJKpq+ZGxs
        YfmBAAB0ZHRNqQQAABUAAABIQiBTdGVpbndheSBEIE5ldyBBZ2UAAAAABwAAAE1vZGFydHRXAAAAVGhlIGRhcmsgc291bmQgaW4gdGhlIGJhc3MgcmFuZ2Ugb2YgdGhp
        cyBwcmVzZXQgbWFrZXMgaXQgd2VsbCBhZGFwdGVkIHRvIE5ldyBBZ2UgbXVzaWMuAAAAAEQBAAAVAAAASEIgU3RlaW53YXkgRCBOZXcgQWdlAAAAAP0DAABHUlVVAAAA
        BgAAAAEDwE1UcmsAAAPnAP8CMU1vbm5lcmV0IC0gTm9jdHVybmlhIE5vLiA0IC0gSmFzb24gVHVuZyAtIGV4Y2VycHSEaZAjSAI+XAA2Sx45SA2wQGQPQEMUQA4SQACE
        WkADEUAnEkA+EUBdEUBvEkB/hhqQKicELySFCi8AVSoAhjYqJAcvJYU2LwBMKgCGWiogFi8dgxw5ABI2ABYjACo+AAcvAFMqAIh3sEB3B5BARwuwQGIAkCMrD7BAPhRA
        IwCQOywGOCsLsEAAgz1AARFAJxFAQBJAYBJAdBFAf4dekC8aAioZhUwvADAqAIcsLx0SKhyEKi8ARioAh08qKA8vJIFnOwASQABtOAAeIwA5LwBGKgCIUj5GAiMrFLBA
        dg2QNjEAOSwGsEBSD0A3EkAOEUAAgndAFRFAMBJAVRFAaxJAf4hqkC8aBCojg0gqAAYvAIkyLyQNKiSDOy8AJSoAiDgvJAQqI4JsOQAJNgA/LwANIwAJPgAYKgCKDrBA
        cA+QQEUCIy8CsEBPD0A3FEAUBJA4LQQ7LAmwQACDKkASEkA3EUBOEkBsEUB/iHyQLygPKiaEKC8AMCoAh3sqNwAvPYU+LwBtKgCHASpBAi9Pg1U7AA9AAB84ADYvAAIj
        AHoqAId2IzsEQVkCsEB3B5A8TAk5TQCwQFIRQDYUQAcPQACDXkADFEAdEUBDEkBaEUB3EkB/iA+QLy8HKjCEdC8AfyoAiAIqHRovI4Z4LwBRKgCGei8aDyoggnU5ADZB
        ADY8AFMjAAsvAGAqAIhsQDgJIyYjsEBtApA4HwA7Jg2wQFcRQDISQBoRQACDYEAEEUAmEkA9EkBaEUBsEkB/iCuQLxsUKhSFZi8AbSoAiAIvHwcqG4RnLwAjKgCIai8e
        Cyoggxw7ABo4ADAjAAIvAEwqAEZAAId5sEB2EkBjC5A8MgawQEMCkCMhEbBALQKQOSMRsEALD0AAgztAEhFAKhRATBFAYBJAehFAf4g2kC8eCSoahWYvAAsqAIgVLyMG
        Kh6ERy8AJyoAiEoqIQAvIII/OQBxIwAAPAAfLwBMKgCJIzsvFrBAbAKQIx4HNi8JsEBUEUAtEUATFEAAg15ABRJAJxFAPhFAXBFAbhRAf4h6kC8WByodjgwqAB4vAIto
        LxolKhyDMCMASC8AYioAgQM2ADQ7AIZeIyNGsEByEkBPEUA1EkAPEUAAgxZAERJAKxJATxFAZBJAf4gBkC8YFiodjGYqAE4vAIx8LxgHKhyDBCMADy8ASioAiUqwQGIS
        QFIRQDwRQC8SQCEUQBsPQBcUQBURQBQ2QBgRQB0RQCISQC8SQDsPQFEUQGASQHgSQH8A/y8AUHJzVUB9AABJAAAAAgAAAGQ0AAAAABoAAABHcmFuZCBTdGVpbndheSBE
        IChIYW1idXJnKQAAAAAAAAAAcHJvbWYAAAABAAAAAQAAAAEAAAACAAAAZDQAAAAAGgAAAEdyYW5kIFN0ZWlud2F5IEQgKEhhbWJ1cmcpAACAPwYAAAAAAAAAAAAAAAAA
        AAAAAAAAAAAAAFRG/////wAAAAAAAAAAAAAAAAAAAAByeWFsEAAAAAIAAAAAAAAAAAAAAP////9vbG9zEQAAAAEAAAABAAAARgAAAAAAAAAAAQAAAAEAAAAAAAAAAAAA
        AAEAAAAAAAAAAAAAAAEAAAAAAAAAAAAAAAEAAAAAAAAAAAAAAAEAAAALAAAAQnJvY2VsaWFuZGUAAAAAAQAAAAAAAAAAAAAAAQAAAAAAAAAAAAAAAQAAAAAAAAAAAAAA
        AQAAAAAAAAAAAAAAgByYvQOAAABgaQAAAAAAEEEAAIA/aQAAABBfd8BoIG+VwO60g8Bk8HzAKYafwJPcjsC4QnnAENIywFzaRMDQe2bA8AUqwGoXQ8CMtm7ArhoxwCB1
        +b/wG+6/ZPc8wIIybcCcPkDAGI4BwIAB0b4MGT7AQI2Yv3Dru7+gMQU/YLpQvyDcGr/o3C7A4E2TwPyxPcDQT5HA2E9OwOpUE8BcwEvAPElOwOh+zL8Efpa/YBOsvuA3
        +L4ADD09QDziv9x7JsDg4AvAaDS1vwCHm75U5c+/FOY5wCSRKMBAjbK/En4nwOid578A/oW+gAyCvQDZmz6oILc/UJ19v9iswb9wb2+/tByov1BJf8BkohTAfF4GwCQj
        hsBgEdg/QN+SQHhm/b+ANmFAbD0fwDj7Xj80Rqy/AKoDvnDZRj8A7rk8ZDtLQID+Cb6I1sy/wD2Fv0ZHKUD4p4W/QNoOP9CbOEBUOw/AUnwNwCDip75wugq/9EiVvwAp
        aL1g+qA/MnEPwLCuBD/gaPe+UrCqQLhMoT+IzYu/rBRFQGdl6kBYRiE/smyzQFDuNkA+2axAIYHbQMC4l0A+GRRA/G/QP96MdkADAAAAAQAAAAAAAAAAAAAAAwAAAAAA
        AAAAAAAAAAAAAAMAAAAAAAAAAAAAAAAAAAADAAAAAQAAAAEAAAABAAAAAACAPwAAAAABAAAAAAAAANx/Ij4DgAAAYGkAAAAAABBBAACAP2kAAABhpkk/jdMzTD+DCNJO
        P4KkgVE/D1lDVD/fF1c/+f9ZP3j8XD8zDmA/EDZjPwF1Zj8IzGk/EDZjP3j8XD9ZQ1Q/+f9ZPzMOYD8QNmM/AXVmPwF1Zj8CCMxpPzY8bT82PG0/AqjGcD+VbHQ/lWx0
        PwI8L3g/+Q98P/kPfD8NHQiAP706hD/rboY/ObaIPzuCjT8hCZA/jKeSP8xelT+GHZs/JCieP+dRoT+4nKQ/pgqoP6YKqD8N8J2rPwZZrz+PPrM/cFG3PysMwD9Mu8Q/
        YabJPwjSzj9ZQ9Q/+f/ZPzMO4D8BdeY/NjztPzY87T8BlWz0P5Vs9D8B+Q/8P/kP/D+CwhgCQIPrbgZAkwEAAAAAAAAAAAAAAAAAoMAAAKBAAAC2QgAAAAADgAAAUAAA
        cEIBAAAAAAAAAAAAAAAAAMDAAAAAAAEAAAAAAAAAAAAAAAAAoMAAAKBAAAAAAAOAAABgAgAAAAAAqEEAAK5CAgAAAAAAAACBA4AAAGACAAAAAACoQQAArkICAAAAAACA
        P4GAAAAAAAAAANIEAAAAAAAAAAAAAAAAAIAAAAA/AACAPwOAAABgaQAAAAAAEEEAAIA/aQAAAIAie0Bo4HRmQGDhV0AgnF1AICZoQODGb0CAYWJAoJlkQCBTZkBAQllA
        gF14QIAKcEBAaXdAADVkQACvV0AAuElAIARkQADwbEAgD2VAADFdQOCsT0AgAVJA4MheQEBGVUCANFVAoOtTQICsREAg8jpAIFgzQAB8RkBgICxAwEU0QCCTEUAgYxZA
        APUaQICCB0Bg5B1AoGUcQADQ/j8glB5AwHGvP+CgC0DAXgdAAJebP8D4xT/AB9g/ADBePwAixj8Aa7M/wPTKPwCuJT+Awk0/AGD0PQBuYD4AJEw/ADxEPwD2LT4Afao+
        AMioPQC19j4AJwk/AM2ZPgBGJb4AhYk+gHcYPwBEhr4AZrS+ACfhPgDtvb4A5K2+APZfPgCCvL4AueY+AHaLPoBNRL8AFFW+ACAsvAAij76AI2G/AEi0vQD4MT0AvI6+
        AN6yPgDgh7wAYC+8AMxLvwAwfT0AeD0+AA5dvgCIQz0AICM+AGgXvQDYNL4AQEu+AMDVuwDh+z6Af0a/ALA6PQBmOr+A9RK/APehPgASgL4AnKm+AGB9vQC8cT4DgAAA
        YGkAAAAAABBBAACAP2kAAACofWfBgRhmfcGB6HQ8wYHoWRLBAYDZUcGA2VHBAuhZEsGoSyfBqEsnwQyofWfBWJ9ywXBHR8GQg2fBcEdHwbigMsH4ERnBGLw9wajMOMGw
        kUjBiLQawbigMsG4oDLBAZjJFMGYyRTBCBCXAcGYyRTByCA1wRCXAcHAwATBEGLawPDXIcGQfsvAkH7LwB9Qj7fA4EiKwCB2psAABufAgMi5wECkUsBgeoTAoIJmwICx
        aMBQEdbAwAGHwDDolcAQ87vAIIpcwGA7TMDwHYDAsNmZwADxqb4gGYnAIMI+wAB42L9AELm/AKDvPwAVQMCAz92/QGC+vyDkD8AAAADAAAAAQAAAgL8AAADAAAAAwA8A
        AABAAACAPwAAgL8AAABAAAAAAAAAAEAAAAAAAACAPwAAAEAAAADAAAAAAAAAgL8AAEBAAAAAQAAAAMAAAADABQAAgL8AAAAAAACAvwAAAMAAAAAAAAAAAAQAAEBAAAAA
        QAAAgL8AAAAAAAAAAAcAAIA/AAAAwAAAgL8AAEBAAAAAwAAAQEAAAADAAAAAwIEAAIA/A4AAAGBpAAAAAAAQQQAAgD9pAAAAAACAP7cAAEA/AQAAgD8AAIA/rgIAAAAB
        AAAAVQAAAEVxdWFsIHRlbXBlcmFtZW50ClRoZSBzdGFuZGFyZCB0dW5pbmcsIHdoZXJlIHRoZSBvY3RhdmUgaXMgZGl2aWRlZCBpbiAxMiBlcXVhbCBzdGVwcy4MAAAA
        AADIQgAASEMAAJZDAADIQwAA+kMAABZEAAAvRAAASEQAAGFEAAB6RACAiUQAAJZEAQAAAAAAAAAEAAAAAADcQzwAAABFAAAARgAAAAB/AAAAAAAAAAcAAABEZWZhdWx0
        AAAAAAAAAAACAAAAA4AAAGBpAAAAAAAQQQAAgD9pAAAAAAAAAOgAAAAAAAAAAAAAgD8BAAAAAQAAAAEAAAAMAAAAA4AAAEALAAAAAACAPwAAAEIAAARCAAAgQgAAJEIA
        AEBCAABEQgAAcEIAAHRCAADEQgAAxkILAAAAAACgQIEAAIBAgQAAQECBAAAAQIEAAIA/gQAAAEAAAAAAmpmZPwOAAABgaQAAAAAAEEEAAIA/aQAAAAAAgD+3AAAgPwEA
        AIA/AACAP64DgAAAYAIAAAAAAKhBAACuQgIAAAAAAIA/gQOAAABQAAB6RAEAAAAAAAAAA4AAAFAAAHpEAQAAAAAAgD8AAAAAA4AAAFAAAHBCAQAAAAAAAAAAAIA/A4AA
        AFAAAHBCAQAAAAAAAAABAAAAAAAAAAAAAADNzMy9zczMPQEAAAAAAAAAAAAAAAAAAL8AAAA/AACAPwOAAABAAwAAAAAAqEEAAHBCAADYQgMAAAAAAIA/ggAAAAADgAAA
        YAIAAAAAAKhBAACuQgIAAAAAAAAAgQAAgD8DgAAAYAIAAAAAAKhBAACuQgIAAAAAAIA/gQAAEEIDgAAAQAgAAAAAAKhBAACQQgAAqEIAALRCAADAQgAAzEIAANhCAADi
        QggAAAAAAAAAggAAgD8EAABAQAAAwEAAACBBAABAQQAAgD8DgAAAYGkAAAAAABBBAACAP2kAAAA4wTg/jxfYNj9TKPM0P1QSMz+QNTE/01wvPyqILT98tys/weopPwci
        KD86XSY/RZwkPzbfIj/8PB8/1asbP2grGD+NuxQ/81sRP3QMDj/LzAo/vpwHPxl8BD+NagE/8s/8Pkzo9j6LHfE+MUbpPkKj4T7wM9o+I/fSPvDryz5hEcU+gma+PmDq
        tz4VnLE+tHqrPkqFpT5vJps+mFGRPikBiD5jX34+ta9tPj7pXT7pAU8+6d9NPkS/TD7qn0s+14FKPhNlST6NaVY+Uh1kPmWHcj6E14A+z82IPmoqkT488Zk+TCajPsXN
        rD7Q67Y+zYTBPjOdzD50eNE+xmvWPoh32z4FnOA+n9nlPsQw6z7VofA+FS32PvTS+z7vyQA/G7gDPyK0Bj/ZIwg/vZYJP9kMCz85hgw/0QIOP72CDz/zBRE/fIwSP2QW
        FD+goxU/TjQXP2DIGD9gyBg/hAOAAAAABQAAAAAASEMAAMhDAAAWRAAAYUUAAPpFBAAAAAUAAAAGAAAACAAAAAEAAAAFAAAAAACAvwQAAEDAAACAvwAAgD8AAAAAAQAA
        AAOAAABgAgAAAAAAAAAAAIA/AgAAAAAAAAABAACAPwOAAABgAgAAAAAAAAAAAIA/AgAAAAAAgD+BA4AAAEAEAAAAAAAAACaTST7+fj8/AACAPwQAAAAAAAAAgQAAgD+B
        A4AAAGACAAAAAAAAAAAAgD8CAAAAAAAAAIEAAAAAzcxMPgAAAAAAAAAAAAAAAAAAAD8BAAAA7b4qQAOAAABgAgAAAAAAqEEAAK5CAgAAAAAAgD+BAACAvwAAAD8DgAAA
        YAIAAAAAAMBBAACQQgIAAAAAAIA/gQEAAAABAAAAAQAAAAsAAABCcm9jZWxpYW5kZQYAAABmb3Jlc3Q8rwlB1C3FQQAAgD8AAKBAAAAAAP726DsAAKDBAAAAAAAAAAAz
        MzNAAACvQwAAgD8AAIA/AQAAAAYAAAAGQJk/AACAPwOAAABgaQAAAAAAEEEAAIA/aQAAAJaNej+Iio16PwOWjXo/io16P5aNej+WjXo/gqjpez9YM0l9P2Gsfj+nCYA/
        UTeMP4c8lz/ikag/IIKjPwqmoD8UzpA/LSeqP1S9pD/C3Zc/AbCjP2n1qT/Ob8A//GqUP+AavD+1GrE/MR6nP4ZMmD+34Zc/N+e6P0tBlT/qRpw/LsSfP81dkj942Zw/
        FWmkP15sxz9oIq4/HWSAPw7UkT+A/ac/fjJ/P/iFlz/bFJc/3M+bP4rmkj+vdYw/5lOJP2G6gz/TGYo/lnGIP7GbgD85UXc/LfeEP0Tabz//P4U/s7F0P+PPaj+Fh3A/
        2vyCP1AZiD8nFHI/VyGJPz1Xcj/rXIE/N2KIP1fYiD+x+4o/43+DP7rkdT/9z5c/mpGEP9FKgD8OBZs/BuqJP0mjhT8sVJA/DgWbP+N/gz/RSoA/GB+NP7rkdT8R7WY/
        SaOFP5Z6bz+65HU/N1dtP4ZcgT/VM2s/lnpvPzdXbT8R7WY/0UqAP4xfXj90EGk/1TNrPwOAAABAAwAAAAAAqEEAAHBCAADYQgMAAAAAAIA/ggAAAAADgAAAYF0AAAAA
        AKhBAACAP10AAAAAAAAAhzGa5bxUSOFIvRdVB71AGWE80EJ4vV/YST2wNkm93jniudhVqr0uuGu9OCETOtdjgLwW24S9RFIFPaiJjzyCl7C67ryqPZLitb218bo92mxJ
        PUMvoT3kFqu7vQhvvQR/oL3X3K292xWdPYeDQz28BZW9MjXGPNl7sb1R4a68jIzyPHT/wT1b5ja7ZmKPuhApuj3cZ7M9IC6aPaW0Er3O34W8jcm2PFJHqDxKNLo9cuRn
        vbkagD3/Na291GWdPYkdXTw2jls9rlyQvTrpXb1gYKE8fIdGPRFnCj2OWQM9G/zWO8bUsbxXGHs9ARhlvR18wjwzmiS9TzBSvUlvOr33Tk49bNO2Pcm2J70VS6U9PV6d
        PUUter0+pHg9leXfvB3hl7wlwYw9fkrZOWb3xz1aWSE9lUvOPAMPnL3ammu9bMGSPSgz8Dwlv7O97aNfPUb8jj2w+UC9AQAAAAAAAAABAAAAAAAAPwAAAEADAAAAAACA
        PwAAgD8AAIA/A4AAAGBpAAAAAAAQQQAAgD9pAAAAV7P+P4nGqwBAgZJVAUBV9pcBQO9kAkDmMQNAfMkDQEsqBEDiVQRAEk8EQMoZBEDDugNATjcDQO6UAkAH2QFAqQgB
        QFooAEAMeP4/0I38P8CS+j+7Tvg/mN70P0h07z8P+ug/v1ziP0Ha2z9JttU/TrbPP+7eyT/CNcQ/SsG+P5iIuT/1krQ/F+evP1aKqz+3f6c/iEujP/Fonz+1z5s/6nOY
        P/hGlT/qOJI/wx+PP2MJjD/z6Yg/oLWFP32Kgj+mCIA/Vdp6P6cZdz9jsHM/SFVwPxPSbT+TRGw/4ilrPwkBaz/V2Go/z7BqP9CIaj/gYGo/bu9pP+V/aT96E2k/Aalo
        PwU/aD8z1Wc/3cJnPyCxZz84omc/OZhnPwuRZz92imc/8YNnP3t9Zz/ad2c/BnZnP896Zz9kg2c/04xnP0eWZz/Tn2c/YqpnP4y5Zz+10Gc/c+xnP2gIaD/cB2g/Sqdn
        P0qnZz8BoGpnP6BqZz+DSqdnPwOAAABAAwAAAAAAqEEAAHBCAADYQgMAAAAAAIA/ggOAAABAAwAAAAAAqEEAAHBCAADYQgMAAAAAAIA/ggAAgD8AAIA/BwAAAAAAgD9j
        /oc+mplZPwAAwD+amZk+CAAAAAAAAAAAAAAAAAAAAAAAAAAAAAAAAAAAAAAAAAAAAAAAA4AAAGBpAAAAAAAQQQAAgD9pAAAAkd6cPyzvbJY/eLWRP2fyhj84L48/5dSB
        P36zUz/LeEg/dtFXP93WUT+88zE/1z49P5a4Oj8lGyw//r00P4hJRD9oSVc/v71aPzYySz+cQFM/HTcuP6p0Tj9KDzE/snVAP9bQGz+jrTY/6aEePy+Pbj/NvIE/Rk1Z
        PykQhz+If3M/jyRXPywPXz8a+D8/NjJLP8sPAD9Duh8/Lj4YPwp4ST91B18/DrCXPyrqoj/40pY/wF6AP8BegD87fTWaP+O1qj9ZaoY/Q4KSP9DzdT+mO28/SCBwP3ba
        Uz8sKz8/XHN3PzyXhD/5Q4k/7YuUPzBHrT8iYqc/JvKxP24+sj/FUj8/xWYtP0KTyz925lw/xPTjPwobkT9aHr4/z3i2Py0trD94ubQ/b/x2P6UYtj86Rbk/KlTCP8mS
        fD9IZ8M/IOKsPzTxij9/Lfo/u2nlP+Gyoz9NfbU/IgWwP2VXiT9UA38/02S2PwhTjT+bNJ0/17ctP3sBnD+UdcU/E3hzP1hxAj9zMHA/wAX/PjNKQT8RZgo/Kjf9Pphw
        AD9LqDQ/GA0+P6iJIT8DgAAAYGkAAAAAABBBAACAP2kAAABFvZU/JUS5lT/Gp5U/MoSWP6kplz8SmJc/M+SXP3EgmD/BSpg/ODyYPzuqlz85R5g/JjSYP3uNlz9Eg5Y/
        b16PP7zmhz96yn8/JCJvPyjgXT9vwEs/f905P0JWKT/dRRo/cXIMP0ts/z6Ur+c+2SzhPuE13D668tg+iAvXPggH1j7FyNU+csfWPv592T6eTNw+9ETGPp5M3D6eTNw+
        QvRExj7NMQ8/9ETGPkdU8j74LQQ/zTEPPyBBOz8PszY/X+BFPy9LVj+HUmg/3mZ8PwpUiT876ZQ/aUqfPz8IpD+pEao/tmavPx07tD+I0bg/MVW9PybOwT8x6cY/+8XM
        P5L10z/dG9Y/KELYP1NV2z/XkN0/I7ffP3qb4j8JPOY//eXoP3fW6z8+Ke4/lCXwP8T68T+XhfQ/5wP3P9J1+T8O2Ps/ySL+PxMnAEDlLQFAIiwCQEUpA0A1KARAnCUF
        QAUbBkBdBAdAQ+IHQHO4CEDGiglAj1sKQP4rC0Co/AtAbc4MQGmjDUCmfw5A0GgPQEZkEEADORBAEyAQQA8UEEBWDxBA8g0QQAOAAABgaQAAAAAAEEEAAIA/aQAAADQa
        ID9bugsgPxPvHz/EyB8/1Z0fP9JxHz86SB8/jygfPxshHz+ZQx8/IJsfPxQiID8DwiA/BWAhPzftIT/8biI/S/oiPwGnIz/xgyQ/05ElP6rGJj/3Fig/ZH4pP8EAKz8l
        oiw/El0uPxogMD9X1jE/Vc40P7OyNz8pkzo/QoA9P5mGQD/wskM/xxZHP6bDSj9Ovk4/NfZSP6tLVz/IoFs/reZfP+0cZD+dRWg/jVpsPy9OcD93GHQ/WMh3P9uPez9+
        xX8/PmyCP9ebhT+Hl4k/uReMP2JEjz8XyJE/+MyUPyKYlz8f/Jk/ku6bP/fKnT+sGqA/1hiiP6Oeoz9kV6Y/V8+oPyYfqz8NQq0/AuyuP05YsD8A8LA/o76xP548sj+a
        urI/ljizP6zksz9QM7Q/4TW0P/xItD9AcrQ/JKW0P9HjtD9U9bQ/sfW0PyPetD/usLQ/3bW0P+RVtD/wPLQ/OTO0P587tD8MUrQ/N2W0PzdltD+B3bW0P4SEBrU/hQOA
        AABgaQAAAAAAEEEAAIA/aQAAAAAAgD+bDbF/PzscYn8/KRN/PzjEfj9FdX4/bHF8P3kifD+I03s/lYR7P7yAeT/JMXk/2OJ4P81Iej/c+Xk/AfZ3PxCndz8dWHc/RFR1
        Pzm6dj9Ha3Y/VRx2P2PNdT9ZM3c/T5l4P11KeD85ZG8/G/l2P8f2dT/P+nM/vXFtPyM5bj9cfW8/M+twP+Dobz+M5m4/PORtP+zhbD+b32s/SN1qP/jaaT+l2Gg/kDxl
        P5EtZj+x0WU/YM9kPw/NYz+8ymI/9FliPy3pYT9leGE/nwdhP9eWYD8QJmA/R7VfP4BEXz+4014/8WJePynyXT9jgV0/mxBdP5sQXT+QAQAAAGkAAAAAABBBA4AAAGAM
        AQAAAAAAAAAAgD8MAQAAQGk0QVfsKjFBpw0pQXwwmMAf5vRALuO0QFxZdUB8SkJAAforQGsHGEB8Gg1AaC0CQDTt7z9a5uY/vAvRP+Y3xD8zirQ/ZMWiP1xelz+0FI0/
        DYR+P7PeYj86MlI/juRAPz6KND/+kys/GMEdP6TuDz8m7gY/SJLoPugQzj4ca7I+qJikPowrhj7QQHY+oOt4PijHWz6o1zA+6P8FPtCV4j0QL6M9kLKgPSAAQz3gaj49
        4Ak6PWDYNT3A2DE9oAguPQAfQzwAUTU8gEooPIDlGzyAKxA8gBwFPABx9TsA7OE7AJfPOwBfvjsAV6474GfLvABlkTsAe4Q7AOpwOwCmWjvgAgY94NIEPQC9Az3gvgI9
        wNMBPQC46zoAFNM6ABy9OgDsqDoAhJY6ADCGOgAYbjoAyFI6AHA6OgAQJToA4BA6ACD+OQAQ3jkAkME5AKCoOQAQkjkAIH45AIBaOQAAAAAAAAAA/wAAAACzAAAgQQOA
        AABgAgEAAAAAAAAAAIA/AgEAANP8MUFXPI8tQWKaIEHwZEvAaHvyQNQ0s0C/GHNAVoJAQFJmKkCTohZATc8LQOD7AEAXuu0/eMjkPyUhzz9ea8I/e+KyP2JHoT8m+5U/
        ismLP70ufD9BymA/+ERQP9IfPz+a4jI/SAEqP+ROHD/MnA4/YrEFP1Rw5j5MLcw+hMiwPmwWoz6Q8IQ+GP9zPmCjdj4ww1k+oDgvPtDFBD7QgeA9sLChPfA4nz3ANUE9
        YKw8PeBUOD1ALzQ9wDYwPYByLD0AV0E8AK8zPIC7JjwAcxo8AN8OPADjAzwAN/M7ANjfOwCpzTsAl7w7AMisO4CKybwAD5A7AEuDOwCwbjsAuFg7AMcEPcCbAz1AiAI9
        IIoBPcCjAD0AWOk6AEzROgBUuzoAcKc6AAiVOgC0hDoAuGs6AABROgBAOToA4CM6ALAPOgDA+zkAsNs5AGDAOQBwpzkA4JA5AMB7OQAgWDkAAAAAAAAAAP8AAAAAqQAA
        MEEDgAAAYPgAAAAAAAAAAACAP/gAAAB2MTNBV5NkLUEfgFVBnMvsQEooNUH1C7RABzl0QG5mQUApMCtA+1QXQON0DECglAFAr9PuP3PX5T9wFtA/q1HDP2C2sz9tBqI/
        wayWPx9vjD9lWX0/jdRhP6w7UT8wAkA/bLYzP5DKKj/+Bx0/uEUPP8RPBj90gec+9B7NPtCZsT6w16M+6I2FPkAgdT6Ax3c+4MRaPnAIMD6QYgU+0IvhPeBvoj3A9Z89
        IBxCPaCLPT1gLzk9AAU1PcAHMT1gPC09ADtCPACANDwAgyc8gCcbPACKDzyAhAQ8AFT0OwDi4DsAoM47AHu9OwCZrTtgesq8ALqQOwDjgzsAum87AJxZO8BjBT2AOAQ9
        oCIDPYAkAj3AOwE9AIjqOgAw0joAOLw6AFSoOgDslToAmIU6AOhsOgAwUjoA2Dk6AHgkOgBIEDoA8Pw5AODcOQCQwTkAcKc5ABCSOQDAezkAgFo5AAAAAAAAAAD/AAAA
        AJ8AAEBBA4AAAGDvAAAAAAAAAAAAgD/vAAAA0/wxQVen9ypBKswSQRXvTUBoe/JA1DSzQL8Yc0BWgkBAUmYqQJOiFkBNzwtA4PsAQBe67T94yOQ/JSHPP15rwj974rI/
        YkehPyb7lT+KyYs/vS58P0HKYD/4RFA/0h8/P5riMj9IASo/5E4cP8ycDj9isQU/VHDmPkwtzD6EyLA+bBajPpDwhD4Y/3M+YKN2PjDDWT6gOC8+0MUEPtCB4D2wsKE9
        8DifPcA1QT1grDw94FQ4PUAvND3ANjA9gHIsPQBXQTwArzM8gLsmPABzGjwA3w48AOMDPAA38zsA2N87AKnNOwCXvDsAyKw7gIrJvAAPkDsAS4M7ALBuOwC4WDsAxwQ9
        wJsDPUCIAj0gigE9wKMAPQBY6ToATNE6AFS7OgBwpzoACJU6ALSEOgC4azoAAFE6AEA5OgDgIzoAsA86AMD7OQCw2zkAYMA5AHCnOQDgkDkAwHs5ACBYOQAAAAAAAAAA
        /wAAAACWAABQQQOAAABg6wAAAAAAAAAAAIA/6wAAAMicL0FXoIEnQXloAUG54Z1AdxPwQOGGsUAt2HBAMro+QKXSKEC8PRVAHoQKQLCU/z8Oh+s/l6riP3o2zT/WnsA/
        xDqxP2HJnz/dl5Q/c36KP23ZeT/PtV4/tldOPxZbPT/QOjE/km4oP7DcGj/0Sg0/xHQEP6xO5D6wSco+oCWvPjCUoT6UtYM+YL1xPiBbdD44v1c+mJktPiCLAz7Qbd49
        IDGgPYDAnT3AbT894O06PeCfNj3AgzI9IJcuPQDaKj0Ajz88gAMyPIAsJTwAChk8AIkNPICpAjwA/fA7AMTdOwDOyzsA4ro7ACarOyCtx7wAuY47AAiCOwB2bDsApFY7
        gI0DPaBkAj2AUwE9wFcAPcDi/jwAROc6ADjPOgCMuToA9KU6ANiTOgCEgzoA8Gk6ADhPOgB4NzoAGCI6AIAOOgBg+TkAgNo5AAC+OQAQpTkAsI85AGB5OQAgWDkAAAAA
        AAAAAP8AAAAAkgAAYEEDgAAAYOMAAAAAAAAAAACAP+MAAABHJDhBV+TDLUFk7G5AhESeQJ2L+EBnabdAXLp4QLb2RECIVy5AqR4aQEILD0Cx9wNA6DnzP0kT6j+y69M/
        qOrGP88Ftz9vAqU/QHOZP04Fjz8WAoE/cf1lPzAWVT+oi0M/2gU3P/zvLT+M7B8/QukRPybJCD8Qxes+LObQPkzftD4o3KY+4AOIPrCjeT4AWHw+0MxePoBGMz7w1wc+
        oLLlPdBtpT3Q56I9gK5FPaAIQT1gmTw9oFk4PcBLND1gbTA9AMtFPADXNzyAlyo8AAMePIAsEjyA9wY8ANv4OwAK5TsAadI7APjAOwDKsDsgNc68AGaTOwBWhjsALnQ7
        AJ5dOyDZBz3ApgY9gI4FPUCJBD3AmwM9APzuOgAM1joAyL86AEyrOgCYmDoA+Ic6ABBxOgDAVToAaD06AHAnOgBAEzoA2AA6AKDhOQAgxTkAAKs5AHCUOQBAgDkAQF85
        AAAAAAAAAAD/AAAAAIoAAHBBA4AAAGDZAAAAAAAAAAAAgD/ZAAAAbGk5QVeYbS1BsHN5QARWp0BMxPlABUG4QLbaeUDR2kVAYSEvQBHRGkDRsA9AcZAEQG1T9D8xIus/
        /uDUP+LQxz+i2bc/ecGlP9wkmj/jqo8/apeBP5cHZz/kDFY/Bm5EP6zZNz9EuS4/pqUgPy6SEj9iZwk/5NXsPiDY0T6YsLU+bJ2nPjihiD7YxHo+IHx9PoDOXz64FTQ+
        SHUIPqC85j0ALaY9oKSjPYCSRj3g50E94HM9PWAvOT3AHDU9oDkxPQCvRjwAqDg8AF8rPADBHjyA1xI8gI8HPAD4+TsAFOY7AGDTOwDcwTsAiLE7oCLPvAARlDsA7oY7
        ADh1OwCoXjvgdQg9gEMHPeAoBj2gIwU9wDMEPQDg7zoA8NY6AKzAOgAwrDoAMJk6AJCIOgBAcjoA8FY6AAA+OgCgKDoA2BM6AHABOgCg4TkAIMU5ADCsOQCglTkAcIE5
        AEBfOQAAAAAAAAAA/wAAAAAAAIBBA4AAAGDTAAAAAAAAAAAAgD/TAAAAS8swQVc1mSRBTgm5QHymykAZR/FAz12yQG/4cUA/nj9Ae5wpQCzwFUC0KQtAGGMAQJOg7D9+
        ueM/2SvOPyOFwT+pDrI/a4igP3hJlT8IJIs/FQR7PxvAXz9ETk8/dD0+P6IOMj8AOCk/ypUbP+DzDT8mEwU/gF/lPlg7yz44968+dFWiPjhThD7w3XI+QH91PujAWD5o
        aS4+eCgEPtB33z2A8aA9UH2ePcBRQD0gzTs9YHo3PYBZMz0gaC89QKYrPQBzQDyA1DI8APQlPIC+GTwANA48AEsDPAAa8jsAzt47ALLMOwDGuzsA96s7AJ3IvABkjzsA
        s4I7AIBtOwCuVztAKgQ9AP8CPeDtAT0g8gA9YAkAPQB06DoAHNA6AHC6OgCMpjoAcJQ6AByEOgCIajoA0E86ABA4OgBIIzoAGA86AJD6OQCA2jkAML85AECmOQDgkDkA
        wHs5ACBYOQAAAAAAAAAA+gAAiEEDgAAAYNAAAAAAAAAAAACAP9AAAAB2MTNBV4tEJUGb2ppAOfr7QGew80D1C7RABzl0QGRmQUApMCtA+1QXQON0DECglAFAr9PuP3PX
        5T9wFtA/q1HDP2C2sz9tBqI/wayWPx9vjD9lWX0/jdRhP6w7UT8wAkA/bLYzP5DKKj/+Bx0/uEUPP8RPBj90gec+9B7NPtCZsT6w16M+6I2FPkAgdT6Ax3c+4MRaPnAI
        MD6QYgU+0IvhPeBvoj3A9Z89IBxCPaCLPT1gLzk9AAU1PcAHMT1gPC09ADtCPACANDwAgyc8gCcbPACKDzyAhAQ8AFT0OwDi4DsAoM47AHu9OwCZrTtgesq8ALqQOwDj
        gzsAum87AJxZO8BjBT2AOAQ9oCIDPYAkAj3AOwE9AIjqOgAw0joAOLw6AFSoOgDslToAmIU6AOhsOgAwUjoA2Dk6AHgkOgBIEDoA8Pw5AODcOQCQwTkAcKc5ABCSOQDA
        ezkAgFo5AAAAAAAAAAD3AACQQQOAAABgzgAAAAAAAAAAAIA/zgAAAJbiNkFXBugmQV9jpEAAcwZBtFP3QOSRtkD9mXdAmxJEQLCNLUA4bBlArGUOQOdeA0BQIPI/TwTp
        P2b20j9tBMY/6jG2P2VDpD+lwZg/y1+OP8JsgD8l82Q/oh9UP0qpQj8IMjY/tCYtP3IzHz9WQBE/xCoIPzy06j6E9M8+AA60PjAbpj48Zoc+IIN4PuAzez6Iyl0+sHYy
        Ppg6Bz6gqOQ9oK6kPTAsoj2AykQ9YClAPeC+Oz3ggzc9wHozPSChLz0A50Q8gPw2PADQKTyATh08gIERPABWBjwAvvc7AADkOwBy0TsAFMA7APmvO0BFzbwAu5I7AKuF
        OwD+cjsAulw7YDwHPQAKBj0g9AQ9QPEDPcADAz0AzO06ACjVOgDkvjoAaKo6AACYOgBghzoAeHA6AJBUOgA4PDoA2CY6ABASOgBAADoAcOA5APDDOQDQqTkAQJM5AECA
        OQDgXDkAAAAAAAAAAPUAAJhBA4AAAGDLAAAAAAAAAAAAgD/LAAAARyQ4QVeHcSZB31KFQPpvDUGdi/hAZ2m3QFy6eEC29kRAiFcuQKkeGkBCCw9AsfcDQOg58z9JE+o/
        suvTP6jqxj/PBbc/bwKlP0BzmT9OBY8/FgKBP3H9ZT8wFlU/qItDP9oFNz/87y0/jOwfP0LpET8myQg/EMXrPizm0D5M37Q+KNymPuADiD6wo3k+AFh8PtDMXj6ARjM+
        8NcHPqCy5T3QbaU90OeiPYCuRT2gCEE9YJk8PaBZOD3ASzQ9YG0wPQDLRTwA1zc8gJcqPAADHjyALBI8gPcGPADb+DsACuU7AGnSOwD4wDsAyrA7IDXOvABmkzsAVoY7
        AC50OwCeXTsg2Qc9wKYGPYCOBT1AiQQ9wJsDPQD87joADNY6AMi/OgBMqzoAmJg6APiHOgAQcToAwFU6AGg9OgBwJzoAQBM6ANgAOgCg4TkAIMU5AACrOQBwlDkAQIA5
        AEBfOQAAAAAAAAAA8gAAoEEDgAAAYMkAAAAAAAAAAACAP8kAAABLyzBBV48VH0Hmq45ATLMOQRlH8UDPXbJAb/hxQD+eP0B7nClALPAVQLQpC0AYYwBAk6DsP3654z/Z
        K84/I4XBP6kOsj9riKA/eEmVPwgkiz8VBHs/G8BfP0ROTz90PT4/og4yPwA4KT/KlRs/4PMNPyYTBT+AX+U+WDvLPjj3rz50VaI+OFOEPvDdcj5Af3U+6MBYPmhpLj54
        KAQ+0HffPYDxoD1QfZ49wFFAPSDNOz1gejc9gFkzPSBoLz1Apis9AHNAPIDUMjwA9CU8gL4ZPAA0DjwASwM8ABryOwDO3jsAssw7AMa7OwD3qzsAnci8AGSPOwCzgjsA
        gG07AK5XO0AqBD0A/wI94O0BPSDyAD1gCQA9AHToOgAc0DoAcLo6AIymOgBwlDoAHIQ6AIhqOgDQTzoAEDg6AEgjOgAYDzoAkPo5AIDaOQAwvzkAQKY5AOCQOQDAezkA
        IFg5AAAAAAAAAADwAACoQQOAAABg4gAAAAAAAAAAAIA/4gAAAOydX0FXM0eUQaVNwkDA7U9BThElQbFh/kCkXqlAAACAQMlUQ0AAAAAAEEMgQAPaE0AkQAhA0R8DQFlt
        7T+Q294//QzNP6neuD9L66s/DDygPwaJkD/t1YA/u7tuP7wUWz/+DE0/LN9CPxQsMz/8eCM/lj8ZP6YSBD+4Cuo+iKTKPnDxuj6QYpg+KNiLPuBbjT4onXk+wNpIPrAw
        GD4QrAA+wFe5PWCDtj1gel09oENYPQBNUz1AiE494P5JPSCsRT2AlF08APVNPIAmPzyADDE8gMMjPAAvFzwAYgs8gFwAPAC46zsAM9g7AATGO6AI57wAI6U7AISWOwC2
        iDsAVng74DEYPeDbFj1gohU9QH4UPUB0Ez0AvgU7AJTvOgDw1joAFMA6AEyrOgBMmDoAFIc6AOBvOgD4UzoAODw6AHgkOgBIEDoAwPs5ALDbOQBgwDkAEKU5AOCQOQBg
        eTkAAAAAAAAAAP8AAAAAiQAAsEEDgAAAYNoAAAAAAAAAAACAP9oAAADXiCpBV2tPJ0H2GZJAm6AOQaQK6EBzfatAcvtoQOhaOEAPOSNASCgQQOy6BUC6mvY/9T7jP4ma
        2j8Iv8U/B4i5Pw1Sqj+jVZk/EJ6OP47qhD952W8/ZN1VP4bgRT8mnTU/CFIqP67lIT+k5xQ/5ukHP4Dn/j6k29s+iBLDPnQWqT6QGJw+QP9+PjA9aj5wCm0+gHtRPnj4
        KD4AjAA+gN7ZPXD/nT2wYZs9wG0/PSCdOj0gAzY9YJ0xPYBpLT2AZyk9gBpNPACYPjwA3TA8gNYjPICEFzyA8As8AP4APABt7TsAIdo7ABjIOwA/tzvAwLq8ANGYOwA8
        izsAPH07AMhlO8Cp/jxALfw8AOX5PEDM9zxA3vU8AJj3OgAQ3joAnMY6AIixOgA8njoABI06APh5OgAQXjoAiEQ6AGAtOgCYGDoAmAU6AMDoOQAQyzkA8LA5AGCaOQAw
        hjkAYGY5AAAAAAAAAAD/AAAAAIEAALhBA4AAAGDRAAAAAAAAAAAAgD/RAAAAG/kpQVdbZSZBosW8QGogDUEcnORACL2oQEOPZUCsfjVAbbsgQNrRDUD4fQNAAAAAAI9L
        3z8FtdY/qgzCP7L6tT/jqKY/6s6VP+Jciz8A4IE/12xqP64ZUT8cMEE/RlYxP/KoJj84cx4/fskRPxAgBT9Ewvk+hJnXPiiTvz60P6Y+bJaZPnhtez7IMmc+mDxqPnA0
        Tz4YjSc+MPz/PXBy2T2Ayp498PSbPWAOQz1A1T09gNc4PcASND1Agi89wCorPYB4XjyAvE48gNE/PIC3MTyAWyQ8AMcXPADnCzwAxQA8AJzsOwAE2TsAwsY7IGmxvAC7
        pTsACZc7AE6JOwBgeTtAEPs8gF/4PADj9TzAmvM8wIbxPABWBjsAxPA6AIjXOgCswDoAmKs6AOSYOgCshzoAeHA6AChVOgA4PDoAECU6AOAQOgDw/DkA4Nw5AGDAOQBA
        pjkA4JA5AGB5OQAAAAAAAAAA+AAAwEEDgAAAYPwAAAAAAAAAAACAP/wAAAD+yzNBV/P2DUF0iBFBVpkSQXVD60AE8CBAitVrQLFJOkBbBSVAsnQRQNXJBkC0Pfg/2rvk
        P2DV2z8df8Y/Zw+6P0j3qT/Bh5g/POyNP19AhD/xyG4//hBVP5qMRD+uczQ/VvcpP/SgIT/oxBQ/AukHP0AS/z7UYdw+ZCDEPkxoqj5AjJ0+1D2BPjjwbT4AXHE+4LhV
        PrBELT446wQ+0FziPQB5pj0wSaM9AEtPPaBrST1gzEM94Go+PYBJOT3gZTQ9gGB6PIC2aDwA51c8AAVIPID9ODwA2io8AH4dPADzEDyALwU8AFT0OwCy3zvALK+8AJa6
        OwD2qTsAhpo7AEaMO+AJAT2ADf88QED8PMCw+TxAWvc8ABwXOwCGBzsAjPI6ALjYOgD4wDoA5Ks6AOSYOgBghzoA4G86APhTOgBwOjoAsCI6AIAOOgBg+TkAINg5AKC7
        OQCwojkAUI05AAAAAAAAAAD/AAAAAKMAAMhBA4AAAGDoAAAAAAAAAAAAgD/oAAAAdbw7QVc17f5AOLsrQbJWFkHIPO9AQctvQCSpb0CzIj1AO5cnQEWQE0BjqQhA/4T7
        P0K+5z+Xnd4/iM/IPyUivD84Zqs/ooyZP4Hmjj8eJ4U/wXxwP/qqVj+Ms0U/mIo1P0ZmKz9uByM/nh4WP841CT+czQA/EMjePsSVxj7Yw6w+VNufPmhwgz4wQXI+kAx2
        PkgZWj5wSzE+gJkIPmA06T3wuqw9EDKpPSACWj2AfFM9gEBNPcBLRz2AmUE9ICw8PUDYijyAB4E8gHdvPADXXTyALU08AHs9PICsLjwAwiA8ALITPIB8BzwACvg7AHuq
        vADszjsAhLw7AHKrOwCQmzugNQM9wIcBPUD2/zyAH/08gIb6PAC8JzsAXhY7AHwGOwB48DoAWNY6AJi+OgCEqToAOJY6AACFOgAgazoAoE46AIA0OgDwHToAwAk6AODv
        OQAA0TkAsLU5AMCcOQAAAAAAAAAA/wAAAACPAADQQQOAAABg2QAAAAAAAAAAAIA/2QAAAGHLMEFXNUIYQZHBMEHm7vpAAg3iQLJPpkCYXmNA7UUzQJDmHkCRwQtAGloB
        QDfl7T/vLds/12/SP5mgvT9zj7E/gk6hP3g9kD8xRIY/CzJ6P5sDYj8E1Uk/7o05P0RrKj+STiE/sncZP1RgDT/2SAE/qNLyPsA00j60srs++IOjPsBslz7wnnk+AE1m
        PkA3aj7w1U8+qGspPngeAz4QauA9cGynPbDEoz3AI1Y94GlPPQD8SD1g1UI9APY8PYBbNz2AR488wCqFPAAmdzwA92Q8AL9TPICHQzwARzQ8gOolPIBoGDyAygs8AAcA
        PIBDmrwAh9U7AIfCOwDwsDsAnKA7ACf5PMCu9TwAefI8QI/vPIDe7DwAFC07AB4bOwDKCjsAMPg6ACzdOgDUxDoA3K46APiaOgAoiToA2HI6AChVOgBwOjoAsCI6AIAO
        OgAA9zkA8NY5AHC6OQCAoTkAAAAAAAAAAP8AAAAAAADYQQOAAABgyQAAAAAAAAAAAIA/yQAAAGaDNEFXVyIPQWSYI0EEvg5B7xziQAFGpkDAw2NATGgzQPMRH0CsvQtA
        KkEBQEGJ7T811to/EP7RP7wEvT+P47A/CTagPxn6jj8tH4U/Cwt4PxUmYD8eQUg/OMI3P5LNKD8GNiA/DHcYP36EDD8WkgA/aJTxPvRZ0T6kRrs+iGGjPmxvlz7IRXo+
        OC9nPihwaz7IJ1E+oP0qPpDwBD7gHuQ9oG+rPSB3pz1AMV49IORWPWDlTz1gN0k9YNVCPcDBPD2ArJs8gLCQPEA+hjyAvng8ABRmPABqVDyA00M8gD00PACVJTyA4xc8
        ABYLPGCqkrwAAug7AGDTOwAnwDsAfa47wMP5PMD69TxAh/I8QFbvPMBn7DwA7Ds7AHooOwDQFjsAyAY7ACzwOgDA1ToAtL06AFSoOgAIlToA0IM6AJBnOgB4SjoAiDE6
        APgaOgDIBjoA8Ok5ABDLOQDArzkAAAAAAAAAAPAAAOBBA4AAAGDbAAAAAAAAAAAAgD/bAAAAMzNLQVfNzDRBMzNLQaEjeEEzM7NAgMWhQE0eXkBMyC5AiwUbQDQECEC9
        cvs/AN3mP2mt1D+Y9ss/p2C3P5uBqz/f1Zo/CeOJPzxqgD9vQG8/aklYP0BSQT8gCjE/XKoiP9zVGj/sYxM/augHP9DZ+D4E5ek+fOvKPszftT586J4+IG2TPnhNdD5Q
        9GE+OHFmPhj1TD64Dyg+CEgDPsDd4T0AAKs9sM+mPeCOYD2g21g9IHlRPSBsSj3gr0M9wEY9PcBDpDxAppg8gKWNPAA4gzyAu3I8ACRgPACgTjyALz48gL8uPIBGIDyA
        xBI8oP6GvADZ9DsAB987AMTKOwAQuDuAxfM8QMjvPIAg7DzAxOg8QLDlPABQRjsA1DE7ACAfOwA0DjsAiP06AKDhOgBkyDoAiLE6AFidOgDwijoACHQ6AMBVOgAIOzoA
        sCI6AOgNOgAA9zkA8NY5AEC5OQAAAAAAAAAA/wAAAACCAADoQQOAAABg5gAAAAAAAAAAAIA/5gAAAAAAGEFXZmbWQAAAKEGhmCBBxgCFQGj9+0AAeHlAnRJEQLH2LUC2
        bxhAzMwMQOQpAUCw9u0/nRLkP8zMzD8Na78/2jesP6YEmT+ii44/wsaEP2YpcD8pxVY/j0FEPxZdND/aNyw/mPwjP2FKFz9omAo/yFMCPxxo4j6hV8s+M/OxPjtBpT4g
        T4k+VVV+PjPjgT4QVGc+20U+PndbFT6X1AA+TYfEPWR0vz2euoI95h18Pagscz2kn2o9RHZiPViuWj2JIsc8kRC5PCe4qzzTFJ88RSOTPMDdhzyegXo8BI1mPOfTUzwu
        TEI8m+kxPBgajrxJZhQ8hC4HPBPY9TvJJ987CfwIPSaSBj3aWQQ9LFACPUhyAD1zfXA7OJZXO2/pQDtMUSw79aAZOxe8CDt98PI6PXLXOru2vjpihag6pPKTOqaegTq+
        oWI6y71FOtApLDpomhU6yLoBOkhs4DkAAAAAAAAAAP8AAAAAjQAA8EEDgAAAYNYAAAAAAAAAAACAP9YAAADRRSNBVwAAAEEXchFBRZIbQWg68EDsS7BAABNzQBvWPkC/
        YSlA2zcUQMzMCEB+w/o/WPvmP4I83T9mZsY/IE+5P+0bpj+kOpM/VjGJPwWOfz+9OGc/WeNOP7KcPD+9YS0/7RsmP3g4Hj+uDRI/IOMFP2Lt+z49G9s+ZDfFPtDhrD5C
        t6A+Pu+FPvBteD6oJH4+EJpiPoz8Oj7OgxM+FC//PW4dxD2Syb49OiWEPY57fj3aF3U9Yh1sPYqLYz0GYFs9dhfRPGZRwjwoTrQ8EAmnPKJ+mjzWqI48DISDPBEUcjxM
        a148MANMPOLOOjweuoC8zdEbPNjwDTxwEQE8LVDqOwCYBT04DwM9gboAPXst/TzpQfk8uIN8O7tdYju0jko79u40O2hPITtLkg87HRb/OvQ34jreP8g6dPKwOl9YmzrI
        GYg6oPZtOuKgTzqBxTQ6VBUdOlI3CDrlpOs5AAAAAAAAAAD9AAD4QQOAAABgygAAAAAAAAAAAIA/ygAAAKKLLkFX+LsrQUosJ0HpixZB6JDoQMciq0AArmxAmJk5QMzM
        JEAAABBAzMwEQDMz8z8AAOA/ZWbWP///vz8yM7M///+fP6JwjT8K14M/ho51PxRIXj+IAUc/1Pc0P2RmJj///x8/WHQYP/rQDD/XLQE/MzPzPl7O0z4nF78+bdCnPkkt
        nD5cj4I+ioZyPuqCeD4O4F0+PbM3PiasET76tPw9jrPDPcAevj3Wj4U9mmyAPQoDdz0fm209z6BkPbIRXD1jDNs8OpLLPCrkvDxO/a48/9mhPOxzlTxKx4k8HZt9PLAC
        aTwyulU8KrRDPEi0ZrxQPSM8K7MUPNY2BzyQePU79jMCPZIY/zxQNvo8nrr1PEKf8Tz+RIQ7PiVtO/ozVDugjD072v0oO39oFjvenQU7qf3sOgDJ0TqGX7k6Gr6iOuqU
        jjqDS3k6+YNZOjJhPTpAkCQ63LMOOoLd9jkAAAAAAAAAAPEAAABCA4AAAGDDAAAAAAAAAAAAgD/DAAAAAAAgQVczM0NBMzODQEDws0Bq5+BAovmlQABJZkAWXTRA2jcg
        QCXIC0DMzABA6KLrP6gE2T9KkM8/mZm5P0UXrT8S5Jk/oaaHP3z5fD8Ij2s/bFdVP7gfPz/3Ui0/DGsfPxLkGT84sBI/SJQHPx3x+D4Eeeo+gIHMPur2uD4Kv6I+UKOX
        PvRefj4mn2w+LOFyPg4mWT7uaTQ+ftQPPuE6+j2uScM97nO9PXP6hj1um4E9PO54Pd4Ybz0WtmU9YMNcPVAB5TwO09Q8LHrFPIzxtjxcNak8Az+cPIgKkDwVkYQ8Fppz
        PDRxXzxymUw8VfRLvNSoKjx+dRs8PlwNPHpQADzYn/08tRL4PJ/38jzBR+48m/zpPCJIijvB7Hc7QNldO0oqRjtNrDA7tD4dO66wCztgw/c6I1LbOpjMwTrWI6o6DBCV
        OjNQgjoQZ2M64vxFOiwLLDpmMBU6EAsBOgAAAAAAAAAA6gAABEIDgAAAYMwAAAAAAAAAAACAP8wAAAB8lLRAV/F3N0GUWCZBMX8MQes92UB+0KBAAORfQJQgL0DpohtA
        SpAHQJmZ+T+eEuQ/UAnSPy66yD8zM7M/WPumPyXIkz+g3IE/40RyP4mPYT/EZkw/5z03PxquJT+1bxg/JcgTPxjsDD+VVwI/jIbvPta+4T6hNMU+rtayPqitnT5YGZM+
        L593PsG3Zj5uP20+DmxUPqAgMT7W/A0+yMD3Pc7fwj0cybw9EGWIPUPKgj1u2Xo9nJZwPVzLZj0OdV09PvbuPOIT3jwuEM48yuW+PLmQsDwaCqM8xU2WPJxUijx8MX48
        NyhpPLp+VTxiNDG8WBQyPNI3IjylgRM8rOQFPMXX9jzYDPE87rjrPOTU5jz0WeI8RUuQOyJagTuGfmc79cdOO8BaODvoFCQ7fsMRO4tEATtG2+Q6qTnKOpGJsToui5s6
        pfqHOidKbTqTmE46F4YzOvCsGzpepwY6AAAAAAAAAADzAAAIQgOAAABg0gAAAAAAAAAAAIA/0gAAAJqZKUFXvn4xQcBtIEHVeAdBbZTRQFmnm0ABf1lAEuQpQPcNF0Bw
        WANAmpnxP1SC3D/3Dcs/EuTBP83MrD9r36A/OKyNPzwleD9LkGc/CpBXPxx2Qz8XXC8/PQkeP110ET84rA0/+ScHP8Y1+j77G+Y+qATZPsPnvT5xtqw+RZyYPmCPjj5r
        33A+XNBgPrCdZz4Osk8+UtctPi4lDD6uRvU97nXCPUoevD2sz4k9F/mDPaDEfD1aFHI9ouBnPbomXj0r6/g8tVTnPDCm1jwH2sY8Fuy3PDDVqTwDkZw8IhiQPHBkhDw5
        33I8AWRePHF0Frzbfzk8JfooPAunGTzdeAs8sg/wPPoG6jw8euQ8B2LfPE232jxnTpY7472GO8ojcTueZVc7MglAOxzrKjtO1hc7ZqcGO2lk7jq6ptI6TO+4OlAGojoX
        pY06Pi13OkM0VzoCATs6eikiOq1DDDoAAAAAAAAAAPkAAAxCA4AAAGDGAAAAAAAAAAAAgD/GAAAA93QkQVeMhStB7IIaQXlyAkHu6slANH6WQAIaU0CQpyRABXkSQCtB
        /j+amek/CvLUP54SxD/3Dbs/Z2amP37Dmj9LkIc/OZFsP7PbXD+MkE0/dIU6P0d6Jz9gZBY/BXkKP0uQBz/ZYwE/YbzvPmux3D56StA+5Jq2PjWWpj7iipM+aAWKPqcf
        aj736Fo+8vthPg74Sj4Ejio+hU0KPpTM8j0ODMI9eHO7PUk6iz3qJ4U90K9+PRaScz3o9Wg9aNhePQxwAT2IlfA8MTzfPETOzjxzR788RqCwPEDUojyp25U8IrCJPDqW
        fDxISWc8/mj3u17rQDx4vC88cswfPA8NETyfR+k8HgHjPIs73Twr79c8pxTTPIpRnDukIYw7D8l6O0gDYDukt0c7UMExOx3pHTtBCgw7i+33OssT2zoHVcA6cYGoOohP
        kzoqiIA6889fOu17QjoDpig6+98ROgAAAAAAAAAA7QAAEEIDgAAAYMQAAAAAAAAAAACAP8QAAAAuujRBV7x7t0CcR3RAOdj6QG5BwkAPVZFAALVMQA1rH0AS5A1AdNH1
        P5qZ4T+/Yc0/Rhe9P9o3tD///58/kKeUP1x0gT80/WA/GSdSPwyRQz/LlDE/dZgfP4K/Dj+sfQM/XHQBP3I/9z75QuU+2EbTPkuQxz4ETq8+93WgPn95jj5ue4U+4l9j
        PpABVT4zWlw+Dj5GPrREJz7cdQg+elLwPS6iwT2myLo95qSMPb5Whj2CTYA91Q91PS4Laj0Wil89g2oGPV7W+Tw00uc8g8LWPNCixjxda7c8fhepPDCfmzzW+448nyaD
        PJEucDwU6cG74lZIPMx+Njza8SU8QaEWPIt/4jxA+9s82fzVPE580DwAcss8rlSiO2aFkTsrN4I786BoOxdmTzuFlzg77vsjOxxtETtXuwA73oDjOsO6xzqU/K46+vmY
        OrZ5hTqla2g62fZJOo4iLzpKfBc6AAAAAAAAAADrAAAUQgOAAABgxAAAAAAAAAAAAIA/xAAAANJFL0FXAADAQAAAgECCy/BA8Je6QOorjEABUEZAjC4aQCFPCUC/Ye0/
        mpnZP3XRxT/uG7Y/vmGtP5qZmT+ji44/4LB2PzFpVT+Bckc/jZE5PyOkKD+lthc/pBoHP6gE+T7gsPY+MrfrPpTJ2j5H3Mk+HNa+PiUBqD66VZo+HGiJPnbxgD4eoFw+
        LBpPPna4Vj4OhEE+ZvsjPjSeBj5g2O09TjjBPdQduj2CD449koWHPRpDgT2TjXY9dCBrPcM7YD35ZAs9mIsBPTVo8DzAtt48Lf7NPHM2vjy7Wq88tmKhPIhHlDwgAog8
        2BN5PDBpjLtmwk88H0E9PEAXLDxzNRw8eLfbPGP11Dwovs48cQnJPFnPwzzQV6g7J+mWO80JhzudPnE7ihRXO7ltPzu9Dio7988WO+l/BTvv7es6fiDPOrV3tTprpJ46
        QWuKOlUHcTrEcVE6GJ81OpgYHToAAAAAAAAAAOsAABhCA4AAAGDEAAAAAAAAAAAAgD/EAAAAdNEpQVf0mRlBbsIIQcm+5kBx7rJAxAKHQADrP0AI8hRALroEQAjy5D+Z
        mdE/KkG+P5Qgrz+ii6Y/MjOTP7VviD8DeWo/LNVJP+e9PD8Nki8/ebMfP9PUDz+N6/4+9Q3rPgN56j7xLuA+LFDQPrVxwD7tG7Y+RbSgPn01lD64VoQ++s54PlngVT7G
        Mkk+txZRPgzKPD4YsiA+jMYEPkZe6z1uzsA9AnO5PR56jz1mtIg9sjiCPVELeD26NWw9ce1gPXBfED0DLAY9OP74PP+q5jyLWdU8igHFPPmdtTw9Jqc8O5OZPKHdjDyQ
        /IA8hNItu+otVzxzA0Q8qDwyPKXJITxk79Q8hO/NPHR/xzyTlsE8sSy8PPRarjvpTJw7cdyLO0jceTv9wl477kNGO44hMDvTMhw7e0QKOwFb9Do6htY62PK7Ot1OpDrN
        XI86B6N5OrHsWDqjGzw66LQiOgAAAAAAAAAA6wAAHEIDgAAAYKsAAAAAAAAAAACAP6sAAAAXXSRBVwAA4ECa1wJBEbLcQPJEq0Cg2YFAAIY5QIa1D0A9JQBAVILcP5qZ
        yT/gsLY/PCWoP4e1nz/MzIw/yFOCPylBXj8pQT4/TwkyP46SJT/RwhY/A/MHP9Oh7z5FF90+KUHePrKm1D7H1sU+JAe3Pr9hrT5nZ5k+QBWOPquKfj4Ju28+lSBPPmFL
        Qz75dEs+DBA4PsloHT7j7gI+LOToPY5kwD0wyLg9uuSQPTrjiT1MLoM9D4l5PQBLbT0en2E95lkVPW3MCj0dygA9PJ/uPOe03DygzMs8NuG7PMPprDzt3p48IrmRPDRv
        hTyApYW6bZlePMbFSjwOYjg8110nPFAnzjyo6cY8w0DAPLcjujwLirQ8Fl60O6qwoTsTr5A7+TyBO29xZjsiGk07XTQ2O62VITsMCQ87E8j8OvXr3Tr5bcI6TvmpOlhO
        lDpcH4E6nGdgOiyYQjo2USg6AAAAAAAAAADSAAAgQgOAAABgqwAAAAAAAAAAAIA/qwAAALroHkFXkKcNQY7Z+UBZpdJAc5ujQPZgeUABITNABHkKQJYg9z+eEtQ/mpnB
        P5Ygrz/kKaE/a9+YP2dmhj+2b3g/TwlSPyatMj+3VCc/D5MbPynSDT8zEQA/GVjgPpUgzz5PCdI+cx7JPmJduz6UnK0+kaekPogakj4E9Yc+5md0PhinZj7RYEg+/GM9
        PjzTRT4MVjM+eh8aPjsXAT4AAEDArvq/PV4duD1WT5I9DhKLPeQjhD3NBns9RWBuPctQYj1dVBo91mwPPR0VBT15k/Y8RBDkPLaX0jx0JMI8Sa2yPJ8qpDyjlJY82OGJ
        PCC0IDrwBGY8GYhRPHSHPjwI8iw8Pl/HPMrjvzwSArk82rCyPGTnrDw4Ybo7axSnO7aBlTvOi4U74R9uO1bwUzstRzw7iPgmO53NEzuSmgI7sFHlOhvpyDrAo6865D+Z
        OjRthTqH4mc6thRJOoTtLToAAAAAAAAAANIAACRCA4AAAGCrAAAAAAAAAAAAgD+rAAAAZmYGQVceRNpAmpm5QKGYyED08ZtAqg5vQAC8LECCPAVAsfbtP+miyz+Zmbk/
        SpCnP4sumj9OCZI///9/P9o3bD900UU/IRknPx2gHD+PkxE/gOEEP8Je8D5cDtE+4ynBPnTRxT4ylr0++uOwPgIypD5i7Zs+qM2KPsbUgT4eRWo+JpNdPgyhQT6WfDc+
        fTFAPgycLj4s1hY+JX/+Pfjv4z3NkL89jHK3PfO5kz3iQIw9fRmFPYuEfD2LdW89eAJjPdROHz1BDRQ9H2AJPbiH/jyia+s8zmLZPLJnyDzQcLg8U3apPCVwmzx8VI48
        3CwTO3VwbTxuSlg83KxEPDuGMjwpl8A87N24PGDDsTz9Pas8vUSlPFxkwDsteKw7WVSaO6PaiTtVznU7i8ZaO/1ZQjtkWyw7L5IYOxvRBjtst+w6PWTPOjJOtTpwMZ46
        DbuJOnNdbzpAkU8604kzOgAAAAAAAAAA0gAAKEIDgAAAYJMAAAAAAAAAAACAP5MAAAAAABRBVyu1AUE8LuJA6Yu+QHVIlEBhvGRAAFcmQAAAAEDNzOQ/NDPDP5qZsT8A
        AKA/NDOTPzMziz8zM3M/AABgP5qZOT8ehRs/hesRPxGUBz+w4fc+IpvgPqLEwT4zM7M+mpm5PvINsj6WaqY+cceaPjQzkz7KgIM+E2l3PlkiYD41f1Q+SOE6PjGVMT6/
        jzo+DOIpPt2MEz7Uz/o933XhPe0mvz26x7Y9kCSVPbZvjT0WD4Y9SQJ+PdGKcD0mtGM9SkkkPautGD0gqw09+j0DPf7G8jzkLeA876rOPFY0vjwFwq48pkugPCDHkjyk
        LH47+Nt0PMAMXzxC0ko8bBo4PBbPuTwQ2LE8roSqPCDLozwWop08fmfGO+7bsTv8Jp87eCmOO8d8fTu+nGE7zWxIOz++MTvAVh07pAcLOycd9Dpf39U6o/i6Ovsiozrl
        CI46Xth2OsoNVjoiJjk6AAAAAAAAAAC6AAAsQgOAAABgkwAAAAAAAAAAAIA/kwAAAKAsyEBXmpl5QJqZOUC/Nfw/9p6MQGZmJkAB8h9A/Ib1P+qi2z9+w7o/mpmpP7Zv
        mD/cN4w/GF2EP2dmZj8myFM/wGEtPxvxDz/tNgc/JCn7PmAA5j6C19A+6HqyPoM8pT7AYa0+tIWmPjDxmz7gXJE+BnmKPtZneD6aKGs+lP9VPkRrSz6EITQ+zK0rPgHu
        ND4MKCU+jkMQPoQg9z3F+949Dr2+Pegctj0sj5Y9ip6OPa4Ehz0GgH89F6BxPdNlZD3BQyk9FE4dPSD2ET0ZOAc9WyL6PPn45jws7tQ83ffDPLcNtDwmJ6U8wzmXPDaW
        tDt7R3w8E89lPKn3UDydrj08AwezPDLSqjz8RaM8RFicPHD/lTyhasw7rz+3O575oztNeJI7nZWCO/JyaDudf047GiE3O1EbIjssPg874oL7OoFa3DoUo8A6hhSoOr1W
        kjpKU346VIpcOnDCPjoAAAAAAAAAALoAADBCA4AAAGCTAAAAAAAAAAAAgD+TAAAARhcJQVczMzNA64LKQHhyqkB39YRAzBdQQACNGUD2Des/BHnSP8hTsj+amaE/a9+Q
        P4I8hT/2DXs/mJlZP0qQRz/jKSE/Fl0EP6cE+T4kKuc+DR/UPt8TwT4rMaM+0UWXPuMpoT5y/Zo+yXeRPk7yhz7WvoE+Fs5pPh7oXj7M3Es+UldCPr5hLT5mxiU+Qkwv
        PgpuID5A+gw+MnHzPauB3D0uU749FnK1Pcj5lz1dzY89R/qHPeJ+gD1etXI9gBdlPTg+Lj1/7iE9IkEWPTgyCz3cvgA9EcTtPGox2zxku8k8alm5PKgCqjxnrJs8JBbq
        O4DZgTxokWw8ER1XPNBCQzzvPqw8VMyjPEoHnDxm5ZQ8yFyOPMVt0jtxo7w7QcyoOyLHljvWbIY7J0lvO22SVDv1gzw7498mO7Z0EztPdAE7o9XiOoZNxjoSBq06lqSW
        OhvngjreBmM6v15EOgAAAAAAAAAAugAANEIDgAAAYIAAAAAAAAAAAACAP4AAAADpogNBVzMzc0BmZpZAwWWgQPCXekCDxUVAACgTQPKU4D8hT8k/E+SpP5qZmT8hT4k/
        VIJ8P75hbT/NzEw/cFg7PwryFD8nkvE+d5vjPicr0z69PcI+P1CxPnHnkz4hT4k+CvKUPjN1jz5k/oY+eg99PlAJcj5YNFs+pqdSPge6QT5iQzk++qEmPgLfHz6Fqik+
        C7QbPvGwCT7iwe89kQfaPU7pvT1Ex7Q9ZWSZPTH8kD3f74g9wT2BPaTKcz0uyWU9rjgzPemOJj0ijBo9VywPPYtsBD0nj/Q8qHThPOp+zzwcpb48Kd6uPAsfoDwCyw88
        QY+FPLtTczx3Ql08AddIPNx2pTx4xpw8mciUPIpyjTwiuoY853DYOzIHwjvknq079xWbOw9EijtbH3Y7PaVaO9DmQTt0pCs7PqsXOywnBTvFUOk6+PfLOp33sTpu8po6
        kaSGOmiDaToN+0k6AAAAAAAAAACnAAA4QgOAAABggAAAAAAAAAAAAIA/gAAAABhd/EBXMzMTQM3MjEAKWZZAAADAPzpzO0ABwwxA7hvWPz4lwD9edKE/mpmRP9e+gT+k
        i24/iLVfPwEAQD+WIC8/MLoIPyFq2j5HMs4+Kiy/Pm1csD6ejKE+t52EPuKwdj4wuog+9OyDPvwJeT5aOmo+9JRgPpyaTD4sZ0Y+Qpc3PnAvMD424h8+nPcZPscIJD4K
        +hY+omcGPpES7D14jdc9bn+9PXIctD0Bz5o9BSuSPXjliT2g/IE96t90Pdx6Zj0kMzg9Ui8rPSPXHj12JhM9ORoIPT1a+zzlt+c8cELVPM/wwzyqubM8r5GkPPSKKjwD
        RYk8DhZ6PN1nYzwza048yK6ePJrAlTzoiY08rv+FPPcufjwJdN4782rHO4ZxsjvMZJ87SBuOO4/1fDsMuGA7q0lHOwVpMDvH4Rs7CtoIO+bL7zppotE6KOm2OkZAnzoG
        Yoo68f9vOluXTzoAAAAAAAAAAKcAADxCA4AAAGCAAAAAAAAAAAAAgD+AAAAAXHTxQFddrsdAAAAgQFBMjEDNzMw/AAAAQABeBkDooss/WPu2P6gEmT+amYk/GF10P/KU
        YD9OCVI/MjMzP7roIj+mBPk+F0LDPhPJuD4pLas+GXuePvvIkT72p2o+fcNaPqYEeT5kyXA+LhdkPjRlVz6UIE8+2wA+PrImOj56dC0+fhsnPnEiGT42EBQ+CGcePgpA
        Ej5UHgM+QGPoPV4T1T2OFb09oHGzPZ45nD3ZWZM9EduKPX+7gj0w9XU9iSxnPZstPT29zy89JCIjPZUgFz3oxws9qhIBPSP77Tz3Bds8gjzJPCuVuDxTBKk87EpFPMX6
        jDwxbIA8RY1pPGX/Uzy05pc8vLqOPDVLhjygGX08qOluPC135Du1zsw7KkS3O6KzozuC8pE74uWBO93KZjuGrEw7ly01O1AYIDvojAw7CUf2OttM1zq02rs6H46jOnwf
        jjp8fHY6qzNVOgAAAAAAAAAApwAAQEIDgAAAYGwAAAAAAAAAAACAP2wAAACki+ZAV/m7u0BmZiZAmT+CQDMzs7+mziZAAvL/P+QpwT910a0/8pSQP5qZgT+EPGU/Qp5S
        PxhdRD9mZiY/4LAWP/KU4D4RGqw+41+jPiwulz7JmYw+WwWCPoIUTD4d1j4+8pRgPua4WT5jJE8+FJBEPjisPT4eZy8+OOYtPrVRIz6OBx4+rWISPtIoDj5KxRg+CoYN
        Pguq/z3ws+Q9RJnSPa6rvD3PxrI9OqSdPa2IlD2q0Is9XnqDPXYKdz033mc9EihCPSdwND0lbSc9tBobPZZ1Dz01eAQ9YD70PH3J4Dw0iM48rHC9PPd2rTzeCmA8h7CQ
        PFrNgzyrsm88l5NZPKEekTzftIc8Bhl+POYzbjxapF88T3rqO3Yy0jvMFrw7dgKoO7vJlTv8UIU7rN1sO2EPUjsp8jk72U4kO8U/EDsqwvw6TPfcOj/MwDr326c68tyR
        Ogb5fDr5z1o6AAAAAAAAAACTAABEQgOAAABgbAAAAAAAAAAAAIA/bAAAAOii20BXk8mvQKBWj0C/ZXBA90s9QFp8HED/J/M/3rC2P5CnpD88JYg/MjNzP+wbVj+Pp0Q/
        3rA2P5iZGT8EeQo/OiXIPgfylD6v9o0+Ky+DPuxwdT5vg2Q+CIEtPrjoIj46JUg+ZKhCPpUxOj7vujE+2jcsPl7NID69pSE+7i4ZPpzzFD7oogs+bEEIPowjEz4IzAg+
        bRf5PZ4E4T0pH9A9zkG8Pfwbsj3WDp89gLeVPULGjD09OYQ9ux94PeSPaD2JIkc9kRA5PSe4Kz3TFB89RSMTPcDdBz2egfo8BI3mPOfT0zwuTMI8m+mxPNLKejxJZpQ8
        hC6HPBPYdTzJJ188jVaKPAGvgDyim288LE5fPAxfUDxzffA7OJbXO2/pwDtMUaw79aCZOxe8iDt98HI7PXJXO7u2PjtihSg7pPITO6aeATu+oeI6y73FOtAprDpompU6
        yLqBOkhsYDoAAAAAAAAAAJMAAEhCA4AAAGBsAAAAAAAAAAAAgD9sAAAALrrQQFcu16NA+YCDQFBMXED6+C1AESoSQABe5j/aN6w/rH2bPw5rfz8yM2M/WPtGP9+wNj+n
        BCk/zMwMP1OC/D6Gta8+ApR7Pv4acT5cYF4+TK5RPi78RD6U7Q4+WPsGPoa1Lz7mlys+yj4lPs7lHj5+wxo+oTMSPkRlFT4pDA8+q98LPiTjBD4HWgI+zoENPgkSBD7Q
        hPI9TVXdPQ+lzT3u17s9KnGxPXJ5oD1U5pY927uNPRz4hD0BNXk9kUFpPf8cTD37sD09JwMwPfEOIz3z0BY9S0MLPW5iAD2LUOw8mR/ZPK8nxzw+XLY8YsWKPAscmDyu
        j4o8ev17PPu7ZDx6joM8SFJzPD4eYTxyaFA8vhlBPJaA9jv5+dw7ErzFOyGgsDsueJ07MSeMO0wDeTsY1Vw7THtDO+u7LDuBpRc7N9wEOy9M6DpXr8o6qHewOt5XmToN
        +YQ6lghmOgAAAAAAAAAAkwAATEIDgAAAYGcAAAAAAAAAAACAP2cAAAAAAJBAV8rkl0CiVm9A4TJIQM3MzD7I1wdAAJTZP9a+oT/JU5I/pItuPzQzUz/E2jc/L7ooP3BY
        Gz8AAAA/nxLkPtJFlz72Q00+nkhGPmJiNj6s6y0+7nQlPkG04D3wG9Y90kUXPmeHFD4ATBA+rBAMPiJPCT7kmQM+yyQJPmTpBD66ywI+wEb8PUTl+D0Q4Ac+EbD+PTPy
        6z39pdk99irLPQ5uuz1YxrA9D+ShPSgVmD1zsY49+7aFPUdKej0+82k9dhdRPWVRQj0oTjQ9EAknPaJ+Gj3WqA49DIQDPREU8jxMa948LwPMPOLOujxbJZg8zNGbPNfw
        jTxwEYE8LFBqPM2MeTyORmU83KBSPLmCQTxx1DE8uIP8O7pd4ju0jso79u60O2dPoTtLko87HBZ/O/M3YjvdP0g7c/IwO15YGzvIGQg7ofbtOuKgzzqAxbQ6UxWdOlI3
        iDrlpGs6AAAAAAAAAACOAABQQgOAAABgVwAAAAAAAAAAAIA/VwAAALnoukBWZPKLQE+rV0BvGTRA/VIPQPkK+z//ycw/0UWXP+QpiT83rF0/MjNDPy66KD99wxo/N6wN
        P2Vm5j7noss+Nax9PuPzHj43dhs+YWQOPgYpCj6n7QU+To2jPSZBnj01rP09yu36PWKy9j0Qd/I9hbXvPUgA6j2gyPk9OY31PZBv8z02x+49eBbtPVI+Aj4QPPU9lV/l
        Paz21T3csMg9LgS7PYYbsD2sTqM9/EOZPQynjz3adYY9jV97Peykaj3tEVY9z/FGPSmZOD0vAys9USwePWIOEj2rpQY9mNf3PP+24zyx3tA8hkG/PFaFpTyOh588AlKR
        PCQkhDxf5G88pfxrPNI6Vzx3I0Q8/pwyPCKPIjxuQwE8fMHnO1hhzzvLPbk7oSalO2X9kjt2lII7zppnO28ETTv8KDU7PQsfO1lXCzsTofM6bpLUOlkTuTrJ0qA6l3WL
        OjRBcToAAFRCA4AAAGBXAAAAAAAAAAAAgD9XAAAAzcyMQBEAAIBAAABAQM3MjL8AAABAZmbmPwAAwD/NzIw/AACAP83MTD8zMzM/mpkZP83MDD8AAAA/zczMPjMzsz7N
        zEw+rkfhPa5H4T0BzczMPc3MzD2BzcxMPYHNzMw9ha5H4T2EKDn5PTMPyOs9+MzePVtH0j3CNsY9Tpq6PbRwrz1IuaQ90HKaPaWckD25NIc903R8PZlWaz1jDFs9OZJL
        PSrkPD1O/S49/9khPe1zFT1Kxwk9Hpv9PLEC6TwyutU8KrTDPE/lsjxQPaM8K7OUPNc2hzyQeHU8f2xePBgvSTwUpjU8RbcjPNVJEzz/RAQ8PSXtO/oz1DugjL072v2o
        O39oljvenYU7qf1sOwDJUTuFXzk7Gr4iO+qUDjuES/k6+YPZOjFhvTo/kKQ63LOOOoLddjoAAFhCA4AAAGBWAAAAAAAAAAAAgD9WAAAAApatQBF0S3xAZmaGQAAAwD8A
        AEBAn1viP6+hvD/NzMw9P4J7P/80ST9fDjA/wOcWP3BUCj8/gvs+/zTJPl8OsD7/NEk+5VPdPeVT3T0B/zTJPf80yT2B/zRJPYH/NMk9heVT3T2E19n0PTIcpec9UuTa
        PfKWzj2JvMI9O1S3PcNcrD141aE9Jr2XPSkTjj171YQ9/AZ4PaQ1Zz2XNFc98P9HPdCTOT1j6ys9FgMfPbPUEj1/XAc9Hij5PDDs5DxM+tE8N0XAPNnBrzwrYKA8UxeS
        PJDXhDwZKnE8ioVaPIinRTxBdjI8/NcgPFS0EDzy8gE8KvzoO+160DtRObo73wamO/vEkzvERYM7SNVoO88aTjv4HjY7MOMfO4wUDDvg6/Q6ELPVOqUOujooraE68zKM
        OgAAXEIDgAAAYEkAAAAAAAAAAACAP0kAAAAELKtAEeiWeECNfzpARg8bQH4E9z/XUN4/XkO5PxLchz9+BHc/Mp1FP4vpLD/mNRQ/EtwHP34E9z4yncU+i+msPjKdRT4d
        YNk9HWDZPQEyncU9Mp3FPYEynUU9gTKdxT2FHWDZPYSFevA9JSqC4z2s+9Y9iebKPVBCvz0oDrQ90kipPajxnj18B5U9rYmLPT52gj0mmXM9rxRjPcxcUz2nbUQ9dUM2
        PXjZKD0sLBw9eTUQPbPxBD0dtfQ8sNXgPGY6zjxE1rw8Y56sPAWDnTx6e488SXiCPKLbbDyWnlY8+B9CPG1GLzyz+B080h4OPMhB/zsX0+Q738HMOwLmtjsAAGBCA4AA
        AGBJAAAAAAAAAAAAgD9JAAAAwKMQvREAAAAASO4aPuiWGEC9hvI/EEbaPyDabL+1Y4U/vYZyP2QFQj+3xCk/C4QRP7VjBT+9hvI+ZAXCPrfEqT5kBUI+VGzVPVRs1T0B
        ZAXCPWQFwj2BZAVCPYFkBcI9hVRs1T2ENBvsPSU3X989BhPTPSE2xz0WyLs9FMiwPeE0pj3ZDZw901GSPTEAiT0AF4A9TytvPbrzXj0AhU89X9tAPRvzMj2OxyU9Q1UZ
        PT+WDT3ohgI9HULwPC+/3DyBeso8UGe5PO16qTzgpZo8ot+MPAIZgDwqjWg8obdSPGiYPjyaFiw8ahkbPFGJCzyunfo7BKrgO9IIyTuzkrM7AABkQgOAAABgSAAAAAAA
        AAAAAIA/SAAAAAdYpkAR0C1xQBr/NECLHhZA/AjuP0k71j+9hrI/WOuCP/wIbj+XbT4/458mPzHSDj9Y6wI//AjuPpdtvj7jn6Y+l20+Pox40T2MeNE9AZdtvj2Xbb49
        gZdtPj2Bl22+PYWMeNE9hOK75z0eRDzbPWAqzz24hcM93U24PQGCrT3wIKM9CSqZPSmcjz21doY9hW97PXi9aj3F0lo9NK1LPRZJPT3Aoi89o7UiPVl+Fj0F9wo9HRwA
        PRzP6zyuqNg8m7rGPF34tTx3V6Y8u8iXPMpDijx1c3s8sz5kPKzQTjwAAAAAAAAAAIUAAGhCA4AAAGBEAAAAAAAAAAAAgD9EAAAACe6jQBFDeW1A4T4yQCymE0A6i+k/
        gTDSP2worz/6coA/OotpP8jVOj8PeyM/ViAMP/pyAD86i+k+yNW6Pg97oz7I1To+woTNPcKEzT0ByNW6PcjVuj2ByNU6PYHI1bo9hcKEzT2EkFzjPR5RGdc9uUHLPU7V
        vz2j07Q97TuqPf4MoD04RpY9f+aMPTjtgz0JsXY9oU9mPc+xVj1n1Uc9zLY5PWVSLD23ox89b6cTPctXCD2iYvs8G1znPCyS1Dy0+sI8aYmyPAA0ozyV65Q88aeHPOa0
        djw78F88t+lKPAAAAAAAAAAAgQAAbEIDgAAAYD8AAAAAAAAAAACAPz8AAAAKhKFAEbfEaUCnfi9A0C0RQHkN5T+5Jc4/G8qrPzn1ez95DWU/+z03PztWID98bgk/OfX7
        PnkN5T77Pbc+O1agPvs9Nz76kMk9+pDJPQH7Pbc9+z23PYH7PTc9gfs9tz2F+pDJPYQ+/d49G1720j0UWcc95SS8PWpZsT3a9aY9DfmcPWlikz3VMIo9vGOBPY7ycT3K
        4WE92ZBSPZz9Qz2EJDY9CgIpPcyRHD2G0BA9kbgFPQuN9jwb6eI8rHvQPM46vzx2Gq88ihCgPHAOkjwZDIU8WPZxPAAAcEIDgAAAYDkAAAAAAAAAAACAPzkAAAAMGp9A
        ESsQZkBuvixAcrUOQLiP4D/yGso/ymuoP34Edz+4j2A/LaYzP2cxHT+ivAY/fgT3PriP4D4tprM+ZzGdPi2mMz4xncU9MZ3FPQEtprM9LaazPYEtpjM9gS2msz2FMZ3F
        PYTtndo9FWvTzj1ucMM9fXS4PTHfrT3Hr6M9HOWZPZl+kD0re4c9gLR9PRM0bT3zc1095G9OPdAlQD07kjI9sLElPeJ/GT2c+Q09VxkDPXS38Twadt48K2XMPAAAdEID
        gAAAYDkAAAAAAAAAAACAPzkAAAAPsJxAEZ9bYkA0/ilAFD0MQPcR3D8rEMY/eQ2lP8MTcj/3EVw/Xw4wP5MMGj/ICgQ/wxPyPvcR3D5fDrA+kwyaPl8OMD5pqcE9aanB
        PQFfDrA9Xw6wPYFfDjA9gV8OsD2FaanBPYScPtY9FXmwyj3Ih789FMS0Pfhkqj2zaaA9KtGWPcmajT2BxYQ9h6F4PZh1aD0dBlk9705KPQROPD3y/y49VWEiPfdtFj2z
        Igs9HXoAPd7h7DwaA9o8qk7IPAAAeEIDgAAAYDYAAAAAAAAAAACAPzYAAAAQRppAEROnXkD6PSdAuMQJQDaU1z9jBcI/KK+hPwkjbT82lFc/knYsP7/nFj/uWAE/CSPt
        PjaU1z6Sdqw+v+eWPpJ2LD6gtb09oLW9PQGSdqw9knasPYGSdiw9gZJ2rD2FoLW9PYRK39E9EoaNxj0in7s9qxOxPb7qpj2gI509Ob2TPfm2ij3YD4I9j45zPR23Yz1G
        mFQ9+i1GPTl2OD2pbSs9+xAfPQxcEz3JSwg9xbX7PAAAfEIDgAAAYDEAAAAAAAAAAACAPzEAAAAS3JdAEYfyWkDCfSRAWkwHQHUW0z+c+r0/2FCeP04yaD91FlM/xN4o
        P+vCEz8nTv0+TjLoPnUW0z7E3qg+68KTPsTeKD7Ywbk92MG5PQHE3qg9xN6oPYHE3ig9gcTeqD2F2MG5PYT5f809DZNqwj18trc9QmOtPYVwoz2N3Zk9SKmQPSrThz1c
        tH49l3tuPaL4Xj1vKlA9BQ1CPW2eND0AAIBCA4AAAGAwAAAAAAAAAAAAgD8wAAAAFHKVQBH7PVdAiL0hQPzTBEC0mM4/1e+5P4fymj+TQWM/tJhOP/dGJT8XnhA/cur3
        PpNB4z60mM4+90alPheekD73RiU+D861PQ/OtT0B90alPfdGpT2B90YlPYH3RqU9hQ/OtT2EpyDJPQyhR7491s2zPdmyqT1M9p89epeWPVeVjT1a74Q9CEl5PZ9oaT0m
        Olo9mbxLPRDsPT0AAIJCA4AAAGAtAAAAAAAAAAAAgD8tAAAAFQiTQBFuiVNATv0eQJ5bAkDyGso/GNZFQDaUlz/XUF4/8hpKPyivIT9DeQ0/vYbyPtdQ3j7yGso+KK+h
        PkN5jT4oryE+RtqxPUbasT0BKK+hPSivoT2BKK8hPYEor6E9hUbasT2EVcHEPQitJLo9L+WvPXACpj0SfJw9ZlGTPWWBij2JC4I9AAAAAAAAAAAAAIRCA4AAAGArAAAA
        AAAAAAAAgD8rAAAAF56QQBHj1E9AFj0cQIPG/z8yncU/8GyUQOz1qkAeYFk/Mp1FP1sXHj9wVAo/CSPtPh5g2T4yncU+WxeePnBUij5bFx4+fuatPX7mrT0BWxeePVsX
        nj2BWxcePYFbF549hX7mrT2EBWLAPQe7AbY9ivyrPQhSoj3aAZk9UwuQPXVthz10T349AACGQgOAAABgJwAAAAAAAAAAAIA/JwAAAM3MTD8RZmYGQNt8GUDI1fo/Zmam
        v83MzD2U15A/Ym9UPwAAoMCNfxo/my8HP1S/5z5ib9Q+cB/BPo1/mj6bL4c+jX8aPrTyqT208qk9AY1/mj2Nf5o9gY1/Gj2BjX+aPYW08qk9hLICvD0DyN6xPeMTqD2e
        oZ49AACIQgOAAABgJgAAAAAAAAAAAIA/JgAAAAAAAAARAACAP2ZmBkAAAEBAMzMzQAAAAEAAAIA/mpmZPwAAQMAAAMC/xwoEP59b4j5mZgbAMzOzvwAAgL+amZm+v+cW
        Puz+pT3s/qU9Ab/nlj2/55Y9gb/nFj2Bv+eWPYXs/qU9hGGjtz0C1butPT0rpD0AAIpCA4AAAGAkAAAAAAAAAAAAgD8kAAAAAADAPww+t0RAaPwTQFP08D/uI7g/8Lml
        P/Iaij/sjUo/7iM4P/JPEz/z5QA/6/fcPjMzs78zM7O/BPJPkz7z5YA+8k8TPiMLoj0jC6I9AfJPkz3yT5M9gfJPEz2B8k+TPYUjC6I9hAAAAAAAAIxCA4AAAGAiAAAA
        AAAAAAAAgD8iAAAAH/aGQBGyAkFALzwRQJgD7D8tprM/KK+hP6K8hj8ynUU/LaYzPyS4Dz8/gvs+N5TXPjKdxT4tprM+JLiPPj+Cez4kuA8+WxeePVsXnj0BJLiPPSS4
        jz2BJLgPPYEkuI89hVsXnj2DAACOQgOAAABgIAAAAAAAAAAAAIA/IAAAAGZmBsABmplZQJqZWUAPMzMzQDMzE0AAAMA/UV6DPwAAAABsKC8/VyAMP5c49T4zMzPAd6zA
        Pmworz5XIIw+lzh1PlcgDD6SI5o9kiOaPQFXIIw9VyCMPYFXIAw9gVcgjD2FkiOaPYEAAJBCA4AAAGAdAAAAAAAAAAAAgD8dAAAAMzOTQBFmZmZAmpmZPyEi4j+amRlA
        zcwsQP//fz8AACBAqqoqP4iICD/u7u4+zczMPru7uz6qqqo+iIiIPu7ubj6IiAg+yS+WPckvlj0BiIiIPYiIiD2BiIgIPYGIiIg9hAAAkkIDgAAAYBwAAAAAAAAAAACA
        PxwAAABJcH9AEQ7lNUCD+whAZzHdP83MzD3SjpU/X0N5PwLLNj/qLCY/u/AEP0el6D4Zacc+Asu2Puospj678IQ+R6VoPrvwBD4BPJI9ATySPQG78IQ9u/CEPYG78AQ9
        gbvwhD2DAACUQgOAAABgGwAAAAAAAAAAAIA/GwAAAAAAAEARgTAyQEg7BkCsQNg/KK+hPwqEkT+8hnI/RtoxPyivIT/tWAE/nlviPmQFwj5G2rE+KK+hPu1YgT6eW2I+
        7VgBPjhIjj04SI49Ae1YgT3tWIE9ge1YAT2B7ViBPYIAAJZCA4AAAGAZAAAAAAAAAAAAgD8ZAAAAzcwMQBGamZk/mpnZP/JP0z9oMZ0/RHmNPxzKaz+M6Sw/aDEdP0CC
        +z74Edw+sKG8PozprD5oMZ0+QIJ7PvgRXD5Agvs9cFSKPXBUij0BQIJ7PUCCez2BQIL7PIFAgns9AACYQgOAAABgGAAAAAAAAAAAAIA/GAAAAFL0cEARaccqQNa6AEA3
        X84/prOYP3xuiT95DWU/0PgnP6azGD+jUvQ+T8jVPvs9tz7Q+Kc+prOYPqNSdD5PyFU+o1L0Padghj2nYIY9AaNSdD2jUnQ9gaNS9DyBAACaQgOAAABgFgAAAAAAAAAA
        AIA/FgAAAFYgbEAR3RInQDn1+z98bsk/5TWUP7RjhT/YUF4/FggjP+U1FD8II+0+p37PPkbasT4WCKM+5TWUPggjbT6nfk8+CCPtPd5sgj3ebII9AQgjbT0II209gQAA
        nEIDgAAAYBUAAAAAAAAAAACAPxUAAABaTGdAEVFeI0DGdPY/wX3EPyS4jz/tWIE/NpRXP1sXHj8kuA8/bfPlPv80yT6Sdqw+WxeePiS4jz5t82U+/zRJPm3z5T0r8nw9
        K/J8PQFt82U9bfNlPQAAnkIDgAAAYBQAAAAAAAAAAACAPxQAAABeeGJAEcWpH0BS9PA/B42/P2M6iz9LnHo/lNdQP6AmGT9jOgs/0sPePlfrwj7eEqc+oCaZPmM6iz7S
        w14+V+tCPtLD3j2aCnU9mgp1PQHSw149AACgQgOAAABgEwAAAAAAAAAAAIA/EwAAAGKkXUAROfUbQOBz6z9LnLo/oryGP72Gcj/zGko/5jUUP6K8Bj83lNc+r6G8Pimv
        oT7mNZQ+oryGPjeUVz6voTw+N5TXPQkjbT0JI209AACiQgOAAABgEgAAAAAAAAAAAIA/EgAAAGTQWEARrEAYQGzz5T+Qq7U/4D6CPyxxaj9QXkM/KkUPP+A+Aj+aZNA+
        Bli2PnRLnD4qRY8+4D6CPppkUD4GWDY+mmTQPXY7ZT0AAKRCA4AAAGARAAAAAAAAAAAAgD8RAAAAaPxTQBAgjBRA+XLgP9a6sD8+gns/nltiP66hPD9vVAo/PoL7Pv80
        yT5eDrA+v+eWPm9Uij4+gns+/zRJPl4OMD7/NMk9AACmQgOAAABgEAAAAAAAAAAAAIA/EAAAAGsoT0APlNcQQIby2j8byqs/vIZyPw9GWj8N5TU/tGMFP7yG8j5jBcI+
        t8SpPguEkT60Y4U+vIZyPmMFQj63xCk+AACoQgOAAABgDwAAAAAAAAAAAIA/DwAAAHBUSkAOCCMNQBRy1T9g2aY/OotpP4EwUj9sKC8/+nIAPzqL6T7I1bo+D3ujPlYg
        jD76coA+OotpPsjVOj4AAKpCA4AAAGAOAAAAAAAAAAAAgD8OAAAAcoBFQA18bglAofHPP6XooT+4j2A/8hpKP8prKD9+BPc+uI/gPi2msz5nMZ0+oryGPn4Edz64j2A+
        AACsQgOAAABgDQAAAAAAAAAAAIA/DQAAAHasQEAM8LkFQC5xyj/r95w/NpRXP2MFQj8oryE/CSPtPjaU1z6Sdqw+v+eWPu5YgT4JI20+AACuQgOAAABgDAAAAAAAAAAA
        AIA/DAAAAHvYO0ALZAUCQLvwxD8vB5g/tJhOP9XvOT+H8ho/k0HjPrSYzj73RqU+F56QPnLqdz4AALBCA4AAAGAMAAAAAAAAAAAAgD8MAAAAfgQ3QAuwofw/SXC/P3UW
        kz8ynUU/RtoxP+Y1FD8eYNk+Mp3FPlsXnj5wVIo+CSNtPgAAskIDgAAAYAsAAAAAAAAAAACAPwsAAACCMDJACpg49T/W77k/uiWOP7ChPD+4xCk/RHkNP6h+zz6wobw+
        wOeWPsgKhD4AALRCA4AAAGAKAAAAAAAAAAAAgD8KAAAAhFwtQAl+z+0/Ym+0P/80iT8spjM/J68hP6G8Bj8xncU+LKazPiO4jz4AALZCA4AAAGAKAAAAAAAAAAAAgD8K
        AAAAiIgoQAlmZuY/7u6uP0REhD+qqio/mZkZP////z67u7s+qqqqPoiIiD4AALhCA4AAAGAJAAAAAAAAAAAAgD8JAAAAjLQjQAhO/d4/fG6pPxKnfj8oryE/CoQRP7yG
        8j5G2rE+KK+hPgAAukIDgAAAYAkAAAAAAAAAAACAPwkAAACQ4B5ACDaU1z8J7qM/nsV0P6azGD98bgk/eQ3lPtD4pz6ms5g+AAC8QgOAAABgCAAAAAAAAAAAAIA/CAAA
        AJQMGkAHHivQP5Ztnj8o5Go/JLgPP+1YAT82lNc+WxeePgAAvkIDgAAAYAgAAAAAAAAAAACAPwgAAACXOBVABwbCyD8j7Zg/sgJhP6K8Bj+9hvI+8xrKPuY1lD4AAMBC
        A4AAAGAIAAAAAAAAAAAAgD8IAAAAm2QQQAfuWME/sGyTPz0hVz9Agvs+oFviPrChvD4AAAAAAADCQgOAAABgCAAAAAAAAAAAAIA/CAAAAJ6QC0AH1u+5Pz7sjT/IP00/
        PIvpPoIw0j5tKK8+AAAAAAAAxEIDgAAAYAgAAAAAAAAAAACAPwgAAACivAZAB7yGsj/Ka4g/UF5DPzSU1z5iBcI+J6+hPgAAAAAAAMZCA4AAAGAIAAAAAAAAAAAAgD8I
        AAAApegBQAekHas/V+uCP9p8OT8wncU+RNqxPuQ1lD4AAAAAAADIQgOAAABgCAAAAAAAAAAAAIA/CAAAAFIp+j8HjLSjP8jVej9lmy8/LKazPievoT6hvIY+AAAAAAAA
        ykIDgAAAYAgAAAAAAAAAAACAPwgAAABagfA/B3RLnD/i1G8/8LklPyivoT4KhJE+vIZyPgAAAAAAAMxCA4AAAGAIAAAAAAAAAAAAgD8IAAAAYdnmPwdc4pQ//NNkP3rY
        Gz8kuI8+7ViBPjaUVz4AAAAAAADOQgOAAABgCAAAAAAAAAAAAIA/CAAAAGgx3T8HRHmNPxfTWT8F9xE/QIJ7PqBbYj6woTw+AAAAAAAA0EIDgAAAYAgAAAAAAAAAAACA
        PwgAAABvidM/BywQhj8y0k4/kBUIPziUVz5lBUI+Kq8hPgAAAAAAANJCA4AAAGAIAAAAAAAAAAAAgD8IAAAAduHJPwcnTn0/TNFDPzRo/D4wpjM+K68hPqS8Bj4AAAAA
        AADUQgOAAABgCAAAAAAAAAAAAIA/CAAAAHw5wD8H83tuP2TQOD9Fpeg+ILgPPulYAT4wlNc9AAAAAAAA1kIDgAAAYAgAAAAAAAAAAACAPwgAAACDkbY/B8OpXz9+zy0/
        WuLUPjCU1z1eBcI9JK+hPQAAAAAAANhCA4AAAGAEAAAAAAAAAAAAgD8EAAAAjOmsPwOT11A/mM4iP3AfwT4AANpCA4AAAGAEAAAAAAAAAAAAgD8EAAAAk0GjPwNjBUI/
        s80XP4VcrT4AANxCA4AAAGAEAAAAAAAAAAAAgD8EAAAAmpmZPwMzMzM/zcwMP5qZmT4AAN5CA4AAAGAEAAAAAAAAAAAAgD8EAAAAmpmZPwMzMzM/zcwMP5qZmT4AAOBC
        A4AAAGAEAAAAAAAAAAAAgD8EAAAAmpmZPwMzMzM/zcwMP5qZmT4AAOJCA4AAAGAEAAAAAAAAAAAAgD8EAAAAmpmZPwMzMzM/zcwMP5qZmT5OI9g9A4AAAEAWAAAAAAAQ
        QQAAqEEAAMBBAADgQQAA6EEAAABCAAAIQgAAGEIAACRCAAAwQgAAQEIAAExCAABgQgAAcEIAAIBCAACIQgAAkEIAAJhCAACgQgAAqEIAAMBCAADYQhYAAAB4dCQ/BOnl
        jz8MYZI/ePKUP02DlD9Ng5Q/guqKkT8BTYOUP02DlD8E6oqRP1mwjj/qipE/WbCOP1mwjj+B54RcP4F+JEo/AtpDLT8xkvI+AQAAAAAAAAABAAAAMzMzP2Zmpj8BAAAA
        AQAAAAEAAABmZmY/zcyMPwEAAAAAAAAAAQAAADMzMz9mZqY/AQAAAAAAAAABAAAAMzMzP2Zmpj8BAAAAAAAAAAEAAAAzMzM/ZmamPwEAAAAAAAAAAADwQgAAAAAOAAAA
        AAAAP83MzD3NzEw+AAAAPwMAAAAAAAAAA4AAAEgBAAAAAAAAAAAAAAADgAAASAEAAAAAAAAABAAAAAIAAAADAAAABAAAAAEAAAABAAAAAACAPwAAgD8BAAAAAQAAAAEA
        AAABAAAAAQAAAAAAgD8AAAAAAACAQAAAtEJGAAAAAAOAAABIAQAAAAAAAAAAAAAAA4AAAEgBAAAAAAAAAAAAAAAAAAAAA4AAAEgBAAAAAAAAAAAAAAADAAAABwAAAAEA
        AAAAAAAADgAAABAAAAAAAAAAzczMPQAAgD8AAAAAUGZmPvzvoUEAAAAAAAAAAAAAAAAAAAAAAAAAAAAAAAAAAAAAAAAAAAAAAAAAAAAAAwAAAAoAAAABAAAAAAAAAA4A
        AAAQAAAAAAAAAAAAcEIAAAAACtcjPAAAAEAAgDtFAACAP83MTD4AAIA/AIC7RQAAgL/D9ag+AABAQAAAAAAAAAAAAAAAAAMAAAAJAAAAAQAAAAAAAAAOAAAAEAAAAAAA
        AADrtcY9AAAIQAQAoEAgAIDAqQVdQLtLyUIAAKBAAAAAAAAAAAAAAAAAAAAAAAAAAAAAAAAAAAAAAAAAAAABAAAAAQAAAAAAgD8AAMDAAAAAAAMAAAADAAAAAAAAAAEA
        AAAFAAAABAAAAAEAAAADAAAAj8L1P7geBUAAAMA/AABhwwAAAAADAAAABQAAAAAAQEAAAHDCAADAwgAAwMIAAMDCBQAAAAAAAAAAAAAAAAAAAAAAAAAAAAAABQAAAAAA
        AAAAAAAAAAAAAAAAAAAAAAAAAQAAAAAAAAAEAAAAAQAAAAMAAACOwhVAHIXrPgAAwD8AADRCAAAAAAMAAAAFAAAAAABwwgAAQEAAAMDCAADAwgAAwMIFAAAAAAAAABe3
        0TgAAAAAAAAAAAAAAAAFAAAAAAAAAAAAAAAAAAAAAAAAAAAAAAABAAAAAAAAAAQAAAABAAAAAwAAANBRuD4dhas/KVyPPzhd40Jf9IdDBQAAAAUAAAAAADDBAADAwQAA
        cMIAAHDCAABwwgUAAAAXt1E5AAAAAAAAAAAAAAAAAAAAAAUAAAAAAAAAAAAAAAAAAAAAAAAAAAAAAAEAAAAAAAAABAAAAAEAAAADAAAAH4XrPlK4nj8pXI8/AADiQgAA
        ssIFAAAABQAAAAAAwMEAADDBAABwwgAAcMIAAHDCBQAAAAAAAABSSZ05AAAAAAAAAAAAAAAABQAAAAAAAAAAAAAAAAAAAAAAAAAAAAAAAQAAAAAAAAAEAAAAAAAAAAMA
        AAC4HsU/PQpXP65H4T8AAAAAAAAAAAAAAAAFAAAAAABAwQAAQMEAAHDCAABwwgAAcMIFAAAAAAAAAAAAAAAAAAAAAAAAAAAAAAAFAAAAAAAAAAAAAAAAAAAAAAAAAAAA
        AAABAAAAAAAAAAAAAAAAAAAAAQAAAAMAAABSuB4/7FG4vmZmpj8AAJBBAAAAAAAAAAAAAAAAAQAAAAAAAAAAAAAAAAAAAEpVQ0VQcml2YXRlRGF0YQABAUJ5cGFzcwAB
        AQMAHQAAAAAAAABKVUNFUHJpdmF0ZURhdGEAAAAAAAAAAA==
        AAAQAAAA
      >
      PRESETNAME "HB Steinway D New Age"
      FLOATPOS 32 149 592 662
      FXID {1BDB9480-17FE-3248-A735-99C492CB791B}
      WAK 0 0
      BYPASS 0 0 0
      <AU "AU: Surge XT Effects (Surge Synth Team)" "Surge Synth Team: Surge XT Effects" "" 1635083896 1397119060 1450009153
        6QMAAAAAAAAEAAAAAQAAAAAAAAACAAAAAAAAAAAAAAAAAAAAAAAAAAAAAAACAAAAAQAAAAAAAAACAAAAAAAAAO4IAAA8P3htbCB2ZXJzaW9uPSIxLjAiIGVuY29kaW5n
        PSJVVEYtOCI/Pgo8IURPQ1RZUEUgcGxpc3QgUFVCTElDICItLy9BcHBsZS8vRFREIFBMSVNUIDEuMC8vRU4iICJodHRwOi8vd3d3LmFwcGxlLmNvbS9EVERzL1Byb3Bl
        cnR5TGlzdC0xLjAuZHRkIj4KPHBsaXN0IHZlcnNpb249IjEuMCI+CjxkaWN0PgoJPGtleT5kYXRhPC9rZXk+Cgk8ZGF0YT4KCUFBQUFBQUFBQUFBQUFBQU5LdXhrcWdB
        QUFBQXE3R1NyQUFBQUFDcnNaS3dBQUFBQUt1eGtyUUFBQUFBcTdHU3VBQUFBCglBQ3JzWks4QUFBQUFLdXhrc0FBQUFBQXE3R1N4QUFBQUFDcnNaTElBQUFBQUt1eGtz
        d0FBQUFBeW9ERGxBQUFBQURLZwoJTU9ZQUFBQUFOTi9qREFBQUFBQT0KCTwvZGF0YT4KCTxrZXk+ZWxlbWVudC1uYW1lPC9rZXk+Cgk8ZGljdD4KCQk8a2V5PjE8L2tl
        eT4KCQk8ZGljdD4KCQkJPGtleT4wPC9rZXk+CgkJCTxzdHJpbmc+SW5wdXQ8L3N0cmluZz4KCQkJPGtleT4xPC9rZXk+CgkJCTxzdHJpbmc+U2lkZWNoYWluPC9zdHJp
        bmc+CgkJPC9kaWN0PgoJCTxrZXk+Mjwva2V5PgoJCTxkaWN0PgoJCQk8a2V5PjA8L2tleT4KCQkJPHN0cmluZz5PdXRwdXQ8L3N0cmluZz4KCQk8L2RpY3Q+Cgk8L2Rp
        Y3Q+Cgk8a2V5Pmp1Y2VQbHVnaW5TdGF0ZTwva2V5PgoJPGRhdGE+CglWa015SWVFREFBQThQM2h0YkNCMlpYSnphVzl1UFNJeExqQWlJR1Z1WTI5a2FXNW5QU0pWVkVZ
        dE9DSS9QaUE4YzNWeQoJWjJWbWVDQnpkSEpsWVcxcGJtZFdaWEp6YVc5dVBTSXlJaUJtZUhCZk1EMGlNQzR3TURRNU9UazVPVGs0T0RneU5ERXkKCU9URWlJSE4xY21k
        bGRtRnNkSGx3WlY4d1BTSXdJaUJ6ZFhKblpYWmhiRjh3UFNJd0lpQm1lSEJmY0dGeVlXMWZabVZoCglkSFZ5WlhOZk1EMGlNQ0lnWm5od1h6RTlJakF1TkRNM05TSWdj
        M1Z5WjJWMllXeDBlWEJsWHpFOUlqSWlJSE4xY21kbAoJZG1Gc1h6RTlJakF1TUNJZ1puaHdYM0JoY21GdFgyWmxZWFIxY21Welh6RTlJakFpSUdaNGNGOHlQU0l3TGpB
        aUlITjEKCWNtZGxkbUZzZEhsd1pWOHlQU0l5SWlCemRYSm5aWFpoYkY4eVBTSXdMakFpSUdaNGNGOXdZWEpoYlY5bVpXRjBkWEpsCgljMTh5UFNJd0lpQm1lSEJmTXow
        aU1DNHdJaUJ6ZFhKblpYWmhiSFI1Y0dWZk16MGlNaUlnYzNWeVoyVjJZV3hmTXowaQoJTUM0d0lpQm1lSEJmY0dGeVlXMWZabVZoZEhWeVpYTmZNejBpTUNJZ1puaHdY
        elE5SWpBdU1qQXlPVGs1T1RrME1UVTQKCU56UTBPQ0lnYzNWeVoyVjJZV3gwZVhCbFh6UTlJakFpSUhOMWNtZGxkbUZzWHpROUlqUWlJR1o0Y0Y5d1lYSmhiVjltCgla
        V0YwZFhKbGMxODBQU0l3SWlCbWVIQmZOVDBpTUM0d0lpQnpkWEpuWlhaaGJIUjVjR1ZmTlQwaU1pSWdjM1Z5WjJWMgoJWVd4Zk5UMGlNQzR3SWlCbWVIQmZjR0Z5WVcx
        ZlptVmhkSFZ5WlhOZk5UMGlNQ0lnWm5od1h6WTlJakF1TlNJZ2MzVnkKCVoyVjJZV3gwZVhCbFh6WTlJaklpSUhOMWNtZGxkbUZzWHpZOUlqQXVNQ0lnWm5od1gzQmhj
        bUZ0WDJabFlYUjFjbVZ6CglYelk5SWpBaUlHWjRjRjgzUFNJd0xqVWlJSE4xY21kbGRtRnNkSGx3WlY4M1BTSXlJaUJ6ZFhKblpYWmhiRjgzUFNJdwoJTGpBaUlHWjRj
        Rjl3WVhKaGJWOW1aV0YwZFhKbGMxODNQU0l3SWlCbWVIQmZPRDBpTUM0MUlpQnpkWEpuWlhaaGJIUjUKCWNHVmZPRDBpTWlJZ2MzVnlaMlYyWVd4Zk9EMGlNQzR3SWlC
        bWVIQmZjR0Z5WVcxZlptVmhkSFZ5WlhOZk9EMGlNQ0lnCglabmh3WHprOUlqQXVOU0lnYzNWeVoyVjJZV3gwZVhCbFh6azlJaklpSUhOMWNtZGxkbUZzWHprOUlqQXVN
        Q0lnWm5odwoJWDNCaGNtRnRYMlpsWVhSMWNtVnpYems5SWpBaUlHWjRjRjh4TUQwaU1DNDFJaUJ6ZFhKblpYWmhiSFI1Y0dWZk1UQTkKCUlqSWlJSE4xY21kbGRtRnNY
        ekV3UFNJd0xqQWlJR1o0Y0Y5d1lYSmhiVjltWldGMGRYSmxjMTh4TUQwaU1DSWdabmh3CglYekV4UFNJd0xqVWlJSE4xY21kbGRtRnNkSGx3WlY4eE1UMGlNaUlnYzNW
        eVoyVjJZV3hmTVRFOUlqQXVOU0lnWm5odwoJWDNCaGNtRnRYMlpsWVhSMWNtVnpYekV4UFNJd0lpQm1lSFE5SWpNaUx6NEEKCTwvZGF0YT4KCTxrZXk+bWFudWZhY3R1
        cmVyPC9rZXk+Cgk8aW50ZWdlcj4xNDUwMDA5MTUzPC9pbnRlZ2VyPgoJPGtleT5uYW1lPC9rZXk+Cgk8c3RyaW5nPkRlZmF1bHQ8L3N0cmluZz4KCTxrZXk+c3VidHlw
        ZTwva2V5PgoJPGludGVnZXI+MTM5NzExOTA2MDwvaW50ZWdlcj4KCTxrZXk+dHlwZTwva2V5PgoJPGludGVnZXI+MTYzNTA4Mzg5NjwvaW50ZWdlcj4KCTxrZXk+dmVy
        c2lvbjwva2V5PgoJPGludGVnZXI+MDwvaW50ZWdlcj4KPC9kaWN0Pgo8L3BsaXN0PgoBAAAAAAAAAAAA
      >
      FLOATPOS 64 251 600 543
      FXID {D34B71ED-ADF0-484B-805D-E44A514086FA}
      WAK 0 0
    >
  >
  <TRACK {14243C7B-D387-124E-9C74-CC85789D3829}
    NAME "Pianoteq 8"
    PEAKCOL 16576
    BEAT -1
    AUTOMODE 0
    PANLAWFLAGS 3
    VOLPAN 2.09155397434102 0.68 -1 -1 1
    MUTESOLO 0 0 0
    IPHASE 0
    PLAYOFFS 0 1
    ISBUS 0 0
    BUSCOMP 0 0 0 0 0
    SHOWINMIX 1 0.6667 0.5 1 0.5 0 0 0
    FIXEDLANES 9 0 0 0 0
    SEL 0
    REC 1 5088 1 0 0 0 0 0
    VU 2
    TRACKHEIGHT 0 0 0 0 0 0 0
    INQ 0 0 0 0.5 100 0 0 100
    NCHAN 2
    FX 1
    TRACKID {14243C7B-D387-124E-9C74-CC85789D3829}
    PERF 0
    AUXRECV 0 0 1 0 0 0 0 0 0 -1:U 0 -1 ''
    MIDIOUT -1
    MAINSEND 1 0
    <FXCHAIN
      WNDRECT 32 136 807 690
      SHOW 0
      LASTSEL 0
      DOCKED 0
      BYPASS 0 0 0
      <VST "VST3i: Pianoteq 8 (Modartt) (1->5ch)" "Pianoteq 8.vst3" 0 "" 1031062328{565354507438717069616E6F74657120} ""
        OMN0Pe5e7f4CAAAAAQAAAAAAAAACAAAAAAAAAAUAAAABAAAAAAAAAAIAAAAAAAAABAAAAAAAAAAIAAAAAAAAABAAAAAAAAAAXy4AAAEAAAD//xAA
        Ty4AAAEAAABWc3RXAAAACAAAAAEAAAAAQ2NuSwAALjdGQkNoAAAAAlB0OHEACAQBAAAAAAAAAAAAAAAAAAAAAAAAAAAAAAAAAAAAAAAAAAAAAAAAAAAAAAAAAAAAAAAA
        AAAAAAAAAAAAAAAAAAAAAAAAAAAAAAAAAAAAAAAAAAAAAAAAAAAAAAAAAAAAAAAAAAAAAAAAAAAAAAAAAAAAAAAAAAAAAAAAAAAAAAAAAAAAAAAAAAAtn6CYE/4CAAAA
        SDgSAFMtAAABAAAAEThWOEctAABQclZLKQAAAlhGVFA3LQAACgAAADIwMjUvMDIvMjIXAAAAUGlhbm90ZXEgOC40LjEvMjAyNTAyMDSxhlAQgLFdBsUYrtQ9lXn4ZGxs
        YfYsAAB0ZHRNnQMAAAkAAABLMiBEcmVhbXkAAAAABwAAAE1vZGFydHRRAAAASW5jcmVhc2luZyB0aGUgc3RlcmVvIHdpZHRoIGFuZCB0aGUgcmV2ZXJiIGR1cmF0aW9u
        IHR1cm5zIEsyIGludG8gYSBkcmVhbXkgcGlhbm8uAAAAAEQBAAAJAAAASzIgRHJlYW15AAAAAA8DAABHUlVVAAAABgAAAAEDwE1UcmsAAAL5AP8CDyBCbGF6IEp1cmpl
        dmNpYwCANQAwLgCEAkEAFZBCOD00IYYdsEB/gSCQPh8lOh+JboA6AIFPNACGF7BAACaAQgAAkENSBoA+ABOQKTKDDrBAf4F6gCkAOZA/TAWAQwASkDpCGTUugVeANQBs
        OgCDNLBAAB2APwAmkEVEHS40gnKwQH+BaoBFACeQQUoZPjYdgC4AE5A5IoMhgDkALLBAMApAAC+AQQA0kEZGDy0uB4A+AII/sEB/gl6ALQATkEJADj06BoBGAAuQNyqD
        QYA9AIIksEAAFYA3AAlCABSQR0YxLD6CbLBAQQhAf4MykDs6A0Q8CkA8Dzg6QYAsAGc4AFJHAExAADU7ABlEAIUfsEAAF5BITCQrNoNasEB/g3OQQTIERSwMPCEDPh8Y
        NSGFX4ArAINvPAAISAAYPgBcQQCDZ0UAApBJNoFJgDUACUkAArBAAByQSkY0KiyDK7BAf4NggCoAHpA5GYNRQCGDK4BKADuQRTaEekw6hTeAOQCEZkUAgShMAFZAAIIX
        kEw2ggSATAAmkE1AYbBAAIMSkClAarBAf4FUgCkAggOQNSyDCYA1AIErkDoyhSc/NC+AOgCDUZBCNIReRjgmgE0AhXiQTTSHeYA/AINETQCBIkYAbkIAhQiQS0wKsEAA
        A5ApOoNJsEB/hwWAKQCBHZA5MIVhPzaGa0IqhzZHOhOASwCNRJBLIosugEcAgWJCAAA/AGVLAIUlOQBWkEkugXmwQAALgEkAE5BKQIkgsEB/gXKQLh6FFzUghAOANQA6
        kDkdhDo+KoU3gEoAQpBFNo0qgD4AhRmQSDIUgEUAgQaQQB+aLIBIAANAAIVPkEYegWc+FY8LgEYAJi4AKj4ANjkAlnmwQACEVoApQAAqQAArQAAsQAAtQAAuQAA0QAA1
        QAA3QAA4QAA5QAA6QAA7QAA8QAA9QAA+QAA/QABAQABBQABCQABDQABEQABFQABGQABHQABIQABJQABKQABLQABMQABNQAD/LwBQcnNVSSkAAEkAAAACAAAAazIAAAAA
        CAAAAEdyYW5kIEsyAAAAAAAAAABwcm9tVAAAAAEAAAABAAAAAQAAAAIAAABrMgAAAAAIAAAAR3JhbmQgSzIAAIA/BgAAAAAAAAAAAAAAAAAAAAAAAAAAAAAAVEb/////
        AAAAAAAAAAAAAAAAAAAAAHJ5YWwQAAAAAgAAAAAAAAAAAAAA/////29sb3MRAAAAAQAAAAEAAABGAAAAAAAAAAABAAAAAQAAAAAAAAAAAAAAAQAAAAAAAAAAAAAAAQAA
        AAAAAAAAAAAAAQAAAAAAAAAAAAAAAQAAAAsAAABCcm9jZWxpYW5kZQAAAAABAAAAAAAAAAAAAAABAAAAAAAAAAAAAAABAAAAAAAAAAAAAAABAAAAAAAAAAAAAADs//+/
        A4AAAGBpAAAAAAAQQQAAgD9pAAAA7KPgP2gUXc0/DDXGP6hDNUC8HeE/jCOlP7JMA0DYum8/AL5ZPngjYj8w/r4+4AYKPuwM+j98Z+U/MC/av7KCGEA0O/E/vJfOPx6K
        IED4GmVAbNkuQMxViD/i3QlAoOrpvuhmET/kqPU/cMKVvtya5D8OQRJATPHrP9reFEAkp1VA9GlEQPSknD8QC+g+8K2MPkiTHT/0/oy//Bymv1gKcj8UE4g/vCOgP8il
        N0AkLrk/WCkmP9wMwD9AY9W9yMclv+xjxT8AJPw8qPxJv3DjpL+wtLk+SKs4v/qoCUDE3K0/8HH4vjy1i78IoBo/fMObP+Q4/j8g7Gc+6MFOv7DXxr7QRNS+KMtyv2xe
        iL84MUk/7Mj4P8D60b2uphZAVGHKv3iDCL94tC0/sv4GQOCHC76Ewu0/2Ag6P8gZFD/Q3EZA0LIoQIDkX70AQTq+gJd/PiCSF8AQM+y+SKciQEDkpD3wh44+vEzTPwDX
        iDx8Fuw/aDtlQKT8jb9eFUpA7Ke2PxgKIz+aFQBAZAvXP2JGKUBgtC4+APHTPAC5JL5EhMk/KPNEPwMAAAABAAAAAAAAAAAAAAADAAAAAAAAAAAAAAAAAAAAAwAAAAAA
        AAAAAAAAAAAAAAMAAAABAAAAAQAAAAEAAAAAAIBAAAAAAAEAAAAAAAAA5X8iPgOAAABACgAAAAAAqEEAAOhBAAAYQgAAIEIAACRCAAAsQgAAYEIAAJJCAACUQgAAtkIK
        AAAAYaZJPwcD0k4/EMxpP3L8XD9fQ1Q/OQ5gPzEIgD+rPrM/qz6zP4EBAAAAAAAAAAAAAAAAAKDAAACgQAAAtkIAAAAAA4AAAFAAAHBCAQAAAAAAAAAAAAAAAACAwAAA
        wMABAAAAAAAAAAAAAAAAAKDAAACgQAAAAAADgAAAYAIAAAAAAKhBAACuQgIAAAAAAAAAgQOAAABgAgAAAAAAqEEAAK5CAgAAAAAAgD+BgAAAAAAAAADSBAAAAAAAAAAA
        AAAAAACAAAAAPwAAgD8DgAAAUAAAcEIBAAAAAAAAAAOAAABgaQAAAAAAEEEAAIA/aQAAAAAAAMACAACAvwAAQMAAAEDABAAAQEAAAABAAADAQAAAgD8AAIA/BgAAwEAA
        AEBAAACAQAAAAMAAAEDAAACAQAAAgEAIAACgQAAAwEAAAIBAAAAAgAAAgD8AAADAAACAPwAAQMAAAEDAAwAAQEAAAIBAAACgQAAAoEAGAABAwAAAoEAAAACAAAAAQAAA
        QMAAAKBAAACgQBUAAEBAAACAQAAAAEAAAADAAACAPwAAgEAAAABAAACgQAAAQEAAAEDAAAAAgAAAgEAAAEDAAAAAgAAAgD8AAIC/AABAwAAAoEAAAEDAAAAAwAAAAIAA
        AACABQAAoEAAAEDAAAAAwAAAgL8AAEDAAABAwAMAAKBAAAAAwAAAQMAAAEDADwAAgEAAAIA/AABAwAAAgEAAAAAAAACAQAAAgL8AAABAAACgQAAAQMAAAIC/AAAAwAAA
        wEAAAKBAAABAwAAAQMADAAAAwAAAgD8AAEDAAABAwAEAAIC/AACAvwQAAMBAAACAQAAAQMAAAAAAAAAAAAcAAIA/AABAwAAAAMAAAMBAAABAwAAAwEAAAEDAAABAwIEA
        AABAA4AAAGACAAAAAACoQQAArkICAAAAAACAP4ECAAAAAQAAAFUAAABFcXVhbCB0ZW1wZXJhbWVudApUaGUgc3RhbmRhcmQgdHVuaW5nLCB3aGVyZSB0aGUgb2N0YXZl
        IGlzIGRpdmlkZWQgaW4gMTIgZXF1YWwgc3RlcHMuDAAAAAAAyEIAAEhDAACWQwAAyEMAAPpDAAAWRAAAL0QAAEhEAABhRAAAekQAgIlEAACWRAEAAAAAAAAABAAAAAAA
        3EM8AAAARQAAAEYAAAAAfwAAAAAAAAAHAAAARGVmYXVsdAAAAAAAAAAAAgAAAAOAAABgaQAAAAAAEEEAAIA/aQAAAAAASMIOAAAswgAAEMIAAODBAADIwQAAqMEAAJDB
        AABgwQAAQMEAACDBAAAQwQAAAMEAAODAAADAwAAAoMAAAKDAAQAAgMAAAIDAgQAAQMCCAAAAwIMAAIC/hwAAAADGAAAAAAAAAAAAAIA/AQAAAAEAAAABAAAAGAAAAAOA
        AABIAQAAAAAAgD8AAAAAmpmZPwOAAABgAgAAAAAAqEEAAK5CAgAAAAAAgD+BA4AAAGACAAAAAACoQQAArkICAAAAAACAP4EDgAAAUAAAekQBAAAAAAAAAAOAAABQAAB6
        RAEAAAAAAIA/AAAAAAOAAABQAABwQgEAAAAAAAAAAACAPwOAAABQAABwQgEAAAAAAAAAAQAAAAAAAAAAAAAAzczMvc3MzD0BAAAAAAAAAAAAAAAAAAC/AAAAPwAAgD8D
        gAAAQAMAAAAAAKhBAABwQgAA2EIDAAAAAACAP4IAAAAAA4AAAGACAAAAAACoQQAArkICAAAAAAAAAIEAAIA/A4AAAGACAAAAAACoQQAArkICAAAAAACAP4EAAPBBA4AA
        AEAHAAAAAACoQQAAkEIAAKhCAAC0QgAAwEIAAMhCAADYQgcAAAAAAAAAgQAAQEAEAACgQAAA4EAAAABBAAAQQQAAgD8DgAAAQAMAAAAAAKhBAABwQgAA2EIDAAAAAACA
        P4IDgAAASAEAAAAAAAAAAQAAAAOAAABgAgAAAAAAAAAAAIA/AgAAAAAAAAABAACAPwOAAABgAgAAAAAAAAAAAIA/AgAAAAAAgD+BA4AAAEAEAAAAAAAAAAyTST72fj8/
        AACAPwQAAAAAAAAAgQAAgD+BA4AAAGACAAAAAAAAAAAAgD8CAAAAAAAAAIEAAAAAzcxMPgAAAAAAAAAAAAAAAAAAAD8BAAAAPQoHQAOAAABgAgAAAAAAqEEAAK5CAgAA
        AAAAgD+BAACAvwAAAD8DgAAASAEAAAAAAIA/AQAAAAEAAAABAAAACwAAAEJyb2NlbGlhbmRlBgAAAGZvcmVzdAAAgEDULcVBAACAPwAAgEAAAAAA/vboOwAAcMHNzEy+
        AAAAADMzU0AAAKpDAACAPwAAgD8BAAAABgAAAJqZmT8AAIA/A4AAAGBpAAAAAAAQQQAAgD9pAAAAAACAP5P1uYI/VN6OlD/1uaI//YecP1sllD9ZhpQ/DcOXP0GajT9R
        TpA/LueaPwhVkj9fmKQ/6xyXPwNbnT8tQ6A/c2ilP64hlD92M5I/ofahPzpYkz/6uJI/ZTaYP85wlz8DeJs/h6KgP4/Zpj9WZas/nzKaP64hlD8gKaI/DkCRP+FAoD8y
        A6E/ZY2iPzMzoz8Gu60/bD6mP3gorD9pb6Q/L6ibP+FFoz9LKZM/U8ygP64hlD/qH5g/ofahP7VPqz/uTpA//vGaPzXSlj/5X48/J72fP/g2mT+Vn6A/Rl+hP9P2pz9o
        P54/bqOVP4hGlz94KKw/Mo+UP3HJpT+4QL4/CoCxP0G8pj9hMrU/oMO0Pzdxpj8DW6E/XsmqP1K4nj8Nc44/t9GcP7yukz+u06g/K/uWP0Q0rj9uaZ0/9bmeP6bQoT9a
        2I8/LQmkP8B4nj8sSKc/TiikPwOAAABgaQAAAAAAEEEAAIA/aQAAAAAAgD/oAAAAAAOAAABgXQAAAAAAqEEAAIA/XQAAAAAAAACHAe3YPFS/0b69+lP0vDy7wT0MC0m8
        Q3TIPPM5F70Cxsm9hLSLvTQNj7245aM8ELo6PTGQrD1W8Bu8fD5vvfpQ2Lwz0Ku8Tn7LPEHfLL0e/S88xHGFPRGgsL1lles7qW/EPVaDsL0ue5g9QORoPbGOnr1E1r+8
        xC6QPWrci728QMm9/sALvQkVnLyNLso98R1LvdvY8DvH5bm9DeCdvU5TlbyCot48c06HvbiJBD1xbY08aQIbujTIk72+toM9TZYkPHfHyL1rpWa97z0WvCd+kb34gVW9
        qrWVvPo2w70wwQQ9qbgWPQlkoL1BXbk9FNszPew/kT1A2G499derPc+1tD0Brqq9C4RYPbPsmb2rVLW844GyPbMOory646O91C2GvRIlK73lfke9KO6IPcwknz3RLQs8
        8Yf6O6apxD3xPtg8EmyMPcGtq72Y3Eg9B+0VvQA9qDwBAAAAAAAAAAEAAAAAAAA/AAAAQAMAAAAAAIA/AACAPwAAgD8DgAAAYGkAAAAAABBBAACAP2kAAAAAAIA/6AOA
        AABAAwAAAAAAqEEAAHBCAADYQgMAAAAAAIA/ggOAAABAAwAAAAAAqEEAAHBCAADYQgMAAAAAAIA/ggAAgD8AAIA/BwAAAAAAgD+amZk+zcxMPwAAwD+amZk+CAAAAAAA
        AAAAAAAAAAAAAAAAAAAAAAAAAAAAAAAAAAAAAAAAA4AAAGBpAAAAAAAQQQAAgD9pAAAA30t2P2ibmno/3zh8P3SRWT/gMHY/FuuBP3sHbj9zUYc/zROTP9UliD/wYpA/
        1GaUPxu7cD9KPnU/HWe3PzIeZT8K53I/JNp6PymLYj8ad0g/1z9dPzkrhj/+9mw/CTOgP+2Ejj+DOnQ/5rCdPzOGeD+4DGk/04xzP4bRZD8jREo/oDhPPzaHfj9wIIo/
        gwmMP2a8hT+E3KE/wW+kP7NLfD/SV3c/xodwP+ZjRj9jPGg/R/p8PxTsYz+QOYg/UxyQP9yXXj9+noM/dr2PPxhKlz/dmHo/eS2OP2ScTD+Vg2A/wgSLP2JNlT8hCnY/
        KaNlP4mBUj92F4E/ZqSRP5sTjD+HJY0/2ciWP0uImT+oQ3k/lS5aP14Vij+sKFA/9r2jP2yahT+KhXw/dDFWP/q0ij+5ikI/tUZyP7Vxgz9l8D0/UAFOP4c8kD9S/Zc/
        aC6WPyjUwz9Bwq8/4QF1PykqoD+ZL5o/OKiBP94fmj/I+HU/rBZFP5SCpT8qOUY/v8RsP9LJfT9xRVQ/ApNXP+vLPD9JBXs/Gz1/P4tkgj+yj1U/70xqPwOAAABgaQAA
        AAAAEEEAAIA/aQAAAIlAST+YoEBJPzX4UEk/uM5KP7BJTj9nHlM/aVpWP/1rVj/1p1k/PXlePze1YT/JxmE/yAJlPwvUaT8GEG0/fiFtP85JcD8fcnM/lYNzP47JeD/S
        pH8/ZnWCPy6Dgz8wJoY/dJiJP8GnjD9kRo8/INiTP3SQlz9lvZk/pX+dP/0eoj/coqc/PY+vP8V4tz/Kubw/oGHAP9i9xT8feMk/HPPNP2yj0T//INQ/UgnVP5Px1T9S
        Zdg/lU3ZP9k12j+Hqdw/9YfdP7yb3T8qet4/ze3gPyzM4T8P1uE/HdbhPx3W4T+ZA4AAAGBpAAAAAAAQQQAAgD9pAAAAAACAP5tKR4E/Kfz0gD9GPII/9+mBP0Exgz/x
        3oI/PSaEP+3Tgz85G4U/6siEPzYQhj+AV4c/MAWHP3xMiD8t+oc/yciIPyfviD+5uYk/I+SJP24riz+bm4s/PDyMP319jT9waI4/X1+PP3ewkD9IoZI/tbSUP//5lz+P
        HJo/utidPwAAoD9aQKI/bYWkP/b1pT8kA6c/NzenPycnpz9IRKc/JyenPzc3pz8nJ6c/JyenP4K9U6c/Aevgpj/r4KY/nQOAAABgaQAAAAAAEEEAAIA/aQAAALhLgj9o
        wbGBPz6SgD8JLX4/Bxp8P6s0fD+DbH0/1Vp+P3hRfz++PYA/5ayAP1bcgD8s7IA/7eOAP1+GgD/RB4A/ddB/PzkCgD+4FoA/nWCAP83kgD/pWoE/1EGBP1aMgD9MOYA/
        I8yAP9dsgT/5voE/6eGBPzGygT/KfoE/8UaBPynVgD+uqYA/9Q2BP7p6gT+AgoE/BUaBP+7bgD/yRYA/sYp/P58Nfz/z6H4/0VZ+P6mafT8AsH0/EFZ+P90Yfz95E4A/
        oaGAP/HjgD/oCYE/piWBP2PXgD/7YYA/6Z6AP6VMgT+tHoE/IPh/PwgOfj+9g30/ByN9PzghfD/FhXs/CE98P2v7fT+cun8/WYiAP2uGgD95B4A/EI1/P2TDfz/JEIA/
        +PZ/P5vifj/x330/SQZ+P0IegD8dP48/LdeAP1PygD9q3YA/scOAP3pLgD9/X4Q/lMqFP4Dufj/dvn4/71p+P+3Gfj8cvn8/XhaAP2Xwfz8iUYA/BiGBPxtpgT9nA4E/
        SrmAP7DYgD9f04A/tHuAPywIgD/RCn8/S5J+P/9Cfz8BAAAAWwAAAAAAEEEDgAAAYAwBAAAAAAAAAACAPwwBAAAAACBBBgAAoEAAACBAmpmZP5qZGT+amZk+AAAAAAAA
        AAD/AAAAAP8AAAAAhAAAIEEDgAAAYAIBAAAAAAAAAACAPwIBAAAAACBBBgAAoEAAACBAmpmZP5qZGT+amZk+AAAAAAAAAAD/AAAAAPoAADBBA4AAAGD0AAAAAAAAAAAA
        gD/0AAAAAAAgQQYAAKBAAAAgQJqZmT+amRk/mpmZPgAAAAAAAAAA/wAAAADsAABAQQOAAABg7gAAAAAAAAAAAIA/7gAAAAAAIEEGAACgQAAAIECamZk/mpkZP5qZmT4A
        AAAAAAAAAP8AAAAA5gAAUEEDgAAAYOkAAAAAAAAAAACAP+kAAAAAACBBBgAAoEAAACBAmpmZP5qZGT+amZk+AAAAAAAAAAD/AAAAAOEAAGBBA4AAAGDWAAAAAAAAAAAA
        gD/WAAAAAAAgQQYAAKBAAAAgQJqZmT+amRk/mpmZPgAAAAAAAAAA/wAAAADOAABwQQOAAABg0QAAAAAAAAAAAIA/0QAAAAAAIEEGAACgQAAAIECamZk/mpkZP5qZmT4A
        AAAAAAAAAP8AAAAAyQAAgEEDgAAAYM4AAAAAAAAAAACAP84AAAAAACBBBgAAoEAAACBAmpmZP5qZGT+amZk+AAAAAAAAAAD/AAAAAMYAAIhBA4AAAGDKAAAAAAAAAAAA
        gD/KAAAAAAAgQQYAAKBAAAAgQJqZmT+amRk/mpmZPgAAAAAAAAAA/wAAAADCAACQQQOAAABgyAAAAAAAAAAAAIA/yAAAAAAAIEEGAACgQAAAIECamZk/mpkZP5qZmT4A
        AAAAAAAAAP8AAAAAwAAAmEEDgAAAYMYAAAAAAAAAAACAP8YAAAAAACBBBgAAoEAAACBAmpmZP5qZGT+amZk+AAAAAAAAAAD/AAAAAL4AAKBBA4AAAGDCAAAAAAAAAAAA
        gD/CAAAAAAAgQQYAAKBAAAAgQJqZmT+amRk/mpmZPgAAAAAAAAAA/wAAAAC6AACoQQOAAABg4AAAAAAAAAAAAIA/4AAAAAAAIEEGAACgQAAAIECamZk/mpkZP5qZmT4A
        AAAAAAAAAP8AAAAA2AAAsEEDgAAAYNIAAAAAAAAAAACAP9IAAAAAACBBBgAAoEAAACBAmpmZP5qZGT+amZk+AAAAAAAAAAD/AAAAAMoAALhBA4AAAGDKAAAAAAAAAAAA
        gD/KAAAAAAAgQQYAAKBAAAAgQGZmBsCamRk/mpmZPgAAAAAAAAAA/wAAAADCAADAQQOAAABg7gAAAAAAAAAAAIA/7gAAAAAAIEEGAACgQAAAIECamZk/mpkZP5qZmT4A
        AAAAAAAAAP8AAAAA5gAAyEEDgAAAYNkAAAAAAAAAAACAP9kAAADMzBpBBhERnUAAAAAAmpmZP97dHT8iIqI+AAAAAAAAAAD/AAAAANEAANBBA4AAAGDIAAAAAAAAAAAA
        gD/IAAAAmZkVQQYiIppAmpkZQJqZmT8iIiI/q6qqPgAAAAAAAAAA/wAAAADAAADYQQOAAABgvAAAAAAAAAAAAIA/vAAAAGZmEEEGMzOXQMzMvL+amZk/ZmYmPzQzsz4A
        AAAAAAAAAP8AAAAAtAAA4EEDgAAAYNMAAAAAAAAAAACAP9MAAAAyMwtBBkRElEAzMzPAmpmZP6uqKj+8u7s+AAAAAAAAAAD/AAAAAMsAAOhBA4AAAGDdAAAAAAAAAAAA
        gD/dAAAA//8FQQYAAIBAMzMTQJqZmT/w7i4/RETEPgAAAAAAAAAA/wAAAADVAADwQQOAAABg0QAAAAAAAAAAAIA/0QAAAMzMAEEGZmaGQDMzU0CamZk/NDMzP83MzD4A
        AAAAAAAAAP8AAAAAyQAA+EEDgAAAYMcAAAAAAAAAAACAP8cAAAAyM/dABnh3i0D5ig9AmpmZP3h3Nz9WVdU+AAAAAAAAAAD/AAAAAL8AAABCA4AAAGC/AAAAAAAAAAAA
        gD+/AAAAzMzsQAaJiIhA27YNQJqZmT+8uzs/3t3dPgAAAAAAAAAA/wAAAAC3AAAEQgOAAABgygAAAAAAAAAAAIA/ygAAAGZm4kAGmpmFQL7iC0CamZk/AABAP2Zm5j4A
        AAAAAAAAAP8AAAAAwgAACEIDgAAAYNIAAAAAAAAAAACAP9IAAAAAANhABquqgkChDgpAmpmZP0VERD/v7u4+AAAAAAAAAAD/AAAAAMoAAAxCA4AAAGDDAAAAAAAAAAAA
        gD/DAAAAmZnNQAZ4d39AgzoIQJqZmT+JiEg/eHf3PgAAAAAAAAAA/wAAAAC7AAAQQgOAAABgxAAAAAAAAAAAAIA/xAAAADMzw0AGmpl5QGZmBkCamZk/zcxMPwAAAD8A
        AAAAAAAAAP8AAAAAvAAAFEIDgAAAYMQAAAAAAAAAAACAP8QAAAAAANBABmZmpkBmZvY/zcyMP7y7Oz+rquo+AAAAAAAAAAD/AAAAALwAABhCA4AAAGDDAAAAAAAAAAAA
        gD/DAAAAqqqiQAYAAFBA///fPwAAgD+rqio/VVXVPgAAAAAAAAAA/wAAAAC7AAAcQgOAAABgqwAAAAAAAAAAAIA/qwAAAGZmkkAGNDM7QJmZyT9nZmY/mpkZPwAAwD4A
        AAAAAAAAAP8AAAAAowAAIEIDgAAAYKsAAAAAAAAAAACAP6sAAABmZsZABgAAEEEyM7M/zcxMP4iICD+qqqo+AAAAAAAAAAD/AAAAAKMAACRCA4AAAGCoAAAAAAAAAAAA
        gD+oAAAAvbtjQAaamRFAzcycPzQzMz/w7u4+VlWVPgAAAAAAAAAA/wAAAACgAAAoQgOAAABgkwAAAAAAAAAAAIA/kwAAADMzQ0AGmpn5P2Zmhj+amRk/zczMPgAAgD4A
        AAAAAAAAAP8AAAAAiwAALEIDgAAAYJMAAAAAAAAAAACAP5MAAACrqiJABgEA0D8AAGA/AQAAP6uqqj5WVVU+AAAAAAAAAAD/AAAAAIsAADBCA4AAAGCTAAAAAAAAAAAA
        gD+TAAAAAABgQAYzMxNAMjMzP83MzD6IiIg+qqoqPgAAAAAAAAAA/wAAAACLAAA0QgOAAABggAAAAAAAAAAAAIA/gAAAADMzwz8Gmpl5P2ZmBj+amZk+zcxMPgAAAD4A
        AAAAAAAAAPgAADhCA4AAAGCAAAAAAAAAAAAAgD+AAAAAIyKCPwZoZiY/NDOzPs/MTD6KiAg+rKqqPQAAAAAAAAAA+AAAPEIDgAAAYIAAAAAAAAAAAACAP4AAAAAgIgI/
        BmRmpj4wMzM+yszMPYeIiD2oqio9AAAAAAAAAAD4AABAQgOAAABgbAAAAAAAAAAAAIA/bAAAAAAAAADrAABEQgOAAABgbAAAAAAAAAAAAIA/bAAAAAAAAADrAABIQgOA
        AABgbAAAAAAAAAAAAIA/bAAAAAAAAADrAABMQgOAAABgZgAAAAAAAAAAAIA/ZgAAAAAAAADlAABQQgOAAABgVwAAAAAAAAAAAIA/VwAAAAAAAADWAABUQgOAAABgVwAA
        AAAAAAAAAIA/VwAAAAAAAADWAABYQgOAAABgVgAAAAAAAAAAAIA/VgAAAAAAAADVAABcQgOAAABgSQAAAAAAAAAAAIA/SQAAAAAAAADIAABgQgOAAABgSQAAAAAAAAAA
        AIA/SQAAAAAAAADIAABkQgOAAABgSAAAAAAAAAAAAIA/SAAAAAAAAADHAABoQgOAAABgRAAAAAAAAAAAAIA/RAAAAAAAAADDAABsQgOAAABgQAAAAAAAAAAAAIA/QAAA
        AAAAAAC/AABwQgOAAABgOQAAAAAAAAAAAIA/OQAAAAAAAAC4AAB0QgOAAABgOQAAAAAAAAAAAIA/OQAAAAAAAAC4AAB4QgOAAABgNgAAAAAAAAAAAIA/NgAAAAAAAAC1
        AAB8QgOAAABgMQAAAAAAAAAAAIA/MQAAAAAAAACwAACAQgOAAABgMAAAAAAAAAAAAIA/MAAAAAAAAACvAACCQgOAAABgLQAAAAAAAAAAAIA/LQAAAAAAAACsAACEQgOA
        AABgKwAAAAAAAAAAAIA/KwAAAAAAAACqAACGQgOAAABgJwAAAAAAAAAAAIA/JwAAAAAAAACmAACIQgOAAABgJgAAAAAAAAAAAIA/JgAAAAAAAAClAACKQgOAAABgJAAA
        AAAAAAAAAIA/JAAAAAAAAACjAACMQgOAAABgIgAAAAAAAAAAAIA/IgAAAAAAAAChAACOQgOAAABgIAAAAAAAAAAAAIA/IAAAAAAAAACfAACQQgOAAABgHQAAAAAAAAAA
        AIA/HQAAAAAAAACcAACSQgOAAABgHAAAAAAAAAAAAIA/HAAAAAAAAACbAACUQgOAAABgGwAAAAAAAAAAAIA/GwAAAAAAAACaAACWQgOAAABgGQAAAAAAAAAAAIA/GQAA
        AAAAAACYAACYQgOAAABgGAAAAAAAAAAAAIA/GAAAAAAAAACXAACaQgOAAABgFgAAAAAAAAAAAIA/FgAAAAAAAACVAACcQgOAAABgFQAAAAAAAAAAAIA/FQAAAAAAAACU
        AACeQgOAAABgFAAAAAAAAAAAAIA/FAAAAAAAAACTAACgQgOAAABgEwAAAAAAAAAAAIA/EwAAAAAAAACSAACiQgOAAABgEgAAAAAAAAAAAIA/EgAAAAAAAACBAAAAQAIA
        AMBAAAAAAAAAAACMAACkQgOAAABgEQAAAAAAAAAAAIA/EQAAAGZmZsACMzOzvwAAAAAAAAAAjQAApkIDgAAAYBAAAAAAAAAAAACAPxAAAAAAAAAAjwAAqEIDgAAAYA8A
        AAAAAAAAAACAPw8AAAAAAAAAjgAAqkIDgAAAYA4AAAAAAAAAAACAPw4AAAAAAAAAjQAArEIDgAAAYA0AAAAAAAAAAACAPw0AAAAAAAAAjAAArkIDgAAAYAwAAAAAAAAA
        AACAPwwAAAAAAJDAAgAAAMAAAAAAAAAAAIgAALBCA4AAAGAMAAAAAAAAAAAAgD8MAAAAAAAAAIsAALJCA4AAAGALAAAAAAAAAAAAgD8LAAAAAAAAAIoAALRCA4AAAGAK
        AAAAAAAAAAAAgD8KAAAAzczMvQEAAAAAAAAAAIcAALZCA4AAAGAKAAAAAAAAAAAAgD8KAAAAAADwwAEAAAAAAAAAAAJmZua/AAAAAAAAAACEAAC4QgOAAABgCQAAAAAA
        AAAAAIA/CQAAAAAA4MABAAAAAAAAAACGAAC6QgOAAABgCQAAAAAAAAAAAIA/CQAAADMzK8ECMzMzwAAAAAAAAAAAhQAAvEIDgAAAYAgAAAAAAAAAAACAPwgAAADNzNzA
        AQAAAAAAAAAAhQAAvkIDgAAAYAgAAAAAAAAAAACAPwgAAAAAAKDAAQAAAAAAAAAAhQAAwEIDgAAAYAgAAAAAAAAAAACAPwgAAAAzM/PAAQAAAAAAAAAAhQAAyEIDgAAA
        YAgAAAAAAAAAAACAPwgAAAAAABDBAQAAAAAAAAAAhQAAzkIDgAAAYAgAAAAAAAAAAACAPwgAAAAAAEDAAQAAAAAAAAAAhQAA2EIDgAAAYAQAAAAAAAAAAACAPwQAAAAA
        AEDAAQAAAAAAAAAAgdy93D0DgAAAQBYAAAAAABBBAACoQQAAwEEAAOBBAADoQQAAAEIAAAhCAAAYQgAAJEIAADBCAABAQgAATEIAAGBCAABwQgAAgEIAAIhCAACQQgAA
        mEIAAKBCAACoQgAAwEIAANhCFgAAAKYgMT8EtOWMP6RTjz8015E/amqRP2pqkT+C7YGOPwFqapE/amqRPwTtgY4/mraLP+2Bjj+atos/mraLP4Gv61c/gVvtRT8C56Yp
        P0GD7T4BAAAAAAAAAAEAAAAzMzM/ZmamPwEAAAABAAAAAQAAAGZmZj/NzIw/AQAAAAAAAAABAAAAMzMzP2Zmpj8BAAAAAAAAAAEAAAAzMzM/ZmamPwEAAAAAAAAAAQAA
        ADMzMz9mZqY/AQAAAAAAAAAAAPBCAAAAAA4AAAAAAAA/zczMPc3MTD4AAAA/AwAAAAAAAAADgAAASAEAAAAAAAAAAAAAAAOAAABIAQAAAAAAAAAEAAAAAgAAAAMAAAAE
        AAAAAQAAAAEAAAAAAIA/AACAPwEAAAABAAAAAQAAAAEAAAABAAAAAACAPwAAAAAAAIBAAAC0QkYAAAAAA4AAAEgBAAAAAAAAAAAAAAADgAAASAEAAAAAAAAAAAAAAAAA
        AAADgAAASAEAAAAAAAAAAAAAAAMAAAAHAAAAAQAAAAAAAAAOAAAAEAAAAAAAAACPwnU9AACAPwAAAAAAAAC/AABwQgAAAAAAAAAAAAAAAAAAAAAAAAAAAAAAAAAAAAAA
        AAAAAAAAAAAAAAADAAAACgAAAAEAAAAAAAAADgAAABAAAAAAAAAAAADIQgAAAAAAAAA/AAAAQAAAlkMAAAAAAAAAPwAAgD8AQJxFAAAAQAAAgD8AAEBAAAAAAAAAAAAA
        AAAAAwAAAAoAAAABAAAAAAAAAA4AAAAQAAAAAAAAAAAAyEIAAAAAAACAPwAAAEAAQJxFAAAAQJqZmT4AAIA/AEAcRgAAAAAAAIA/AABAQAAAAAAAAAAAAAAAAAEAAAAB
        AAAAAACAPwAAQMEAAAAAAwAAAAMAAAAAAAAAAQAAAAUAAAAEAAAAAQAAAAMAAAAAAIA/mpnZPwAAwD8AAK5Cvw4NwgAAAAAFAAAAAAAAAAAAMMEAAMDCAADAwgAAwMIF
        AAAAAAAAAClcDz0AAAAAAAAAAAAAAAAFAAAAAAAAAAAAAAAAAAAAAAAAAAAAAAABAAAAAAAAAAQAAAABAAAAAwAAADMzsz+amZk/AADAPwAAbMO/Dg3CAAAAAAUAAAAA
        AHDBAAAAAAAAwMIAAMDCAADAwgUAAAAK1yM9+u1rOgAAAAAAAAAAAAAAAAUAAAAAAAAAAAAAAAAAAAAAAAAAAAAAAAEAAAAAAAAABAAAAAAAAAADAAAAj8L1Pz0KV78f
        hWs/AAC0QgAAAAAAAAAABQAAAAAAQMEAAEDBAABwwgAAcMIAAHDCBQAAAAAAAAAAAAAAAAAAAAAAAAAAAAAABQAAAAAAAAAAAAAAAAAAAAAAAAAAAAAAAQAAAAAAAAAE
        AAAAAAAAAAMAAAAzMzO/XI/CPq5HYT8AAAAAAAAAAAAAAAAFAAAAAABAwQAAQMEAAHDCAABwwgAAcMIFAAAAAAAAAAAAAAAAAAAAAAAAAAAAAAAFAAAAAAAAAAAAAAAA
        AAAAAAAAAAAAAAABAAAAAAAAAAQAAAAAAAAAAwAAALgexT89Clc/rkfhPwAAAAAAAAAAAAAAAAUAAAAAAEDBAABAwQAAcMIAAHDCAABwwgUAAAAAAAAAAAAAAAAAAAAA
        AAAAAAAAAAUAAAAAAAAAAAAAAAAAAAAAAAAAAAAAAAEAAAAAAAAAAQAAAAEAAAABAAAAAwAAADMzMz/NzEy+MzOzPwAAkEEAAAAAAAAAAAAAAAABAAAAAAAAAAAAAAAA
        AAAASlVDRVByaXZhdGVEYXRhAAEBQnlwYXNzAAEBAwAdAAAAAAAAAEpVQ0VQcml2YXRlRGF0YQAAAAAAAAAA
        AAAQAAAA
      >
      PRESETNAME "K2 Dreamy"
      FLOATPOS 32 149 592 662
      FXID {6C67196E-99C4-ED4E-8335-569CBD97CA14}
      WAK 0 0
      BYPASS 0 0 0
      <AU "AU: VCV Rack 2 FX (VCV)" "VCV: VCV Rack 2 FX" "" 1635085670 1447253574 1447253599
        6QMAAAAAAAAQAAAAAQAAAAAAAAACAAAAAAAAAAAAAAAAAAAAAAAAAAAAAAAAAAAAAAAAAAAAAAAAAAAAAAAAAAAAAAAAAAAAAAAAAAAAAAAAAAAAAAAAAAAAAAAAAAAA
        AAAAAAAAAAAAAAAAAAAAAAAAAAAAAAAAAAAAAAAAAAAAAAAAAAAAAAAAAAAQAAAAAQAAAAAAAAACAAAAAAAAAAAAAAAAAAAAAAAAAAAAAAAAAAAAAAAAAAAAAAAAAAAA
        AAAAAAAAAAAAAAAAAAAAAAAAAAAAAAAAAAAAAAAAAAAAAAAAAAAAAAAAAAAAAAAAAAAAAAAAAAAAAAAAAAAAAAAAAAAAAAAAAAAAAAAAAACYCAAAPD94bWwgdmVyc2lv
        bj0iMS4wIiBlbmNvZGluZz0iVVRGLTgiPz4KPCFET0NUWVBFIHBsaXN0IFBVQkxJQyAiLS8vQXBwbGUvL0RURCBQTElTVCAxLjAvL0VOIiAiaHR0cDovL3d3dy5hcHBs
        ZS5jb20vRFREcy9Qcm9wZXJ0eUxpc3QtMS4wLmR0ZCI+CjxwbGlzdCB2ZXJzaW9uPSIxLjAiPgo8ZGljdD4KCTxrZXk+ZGF0YTwva2V5PgoJPGRhdGE+CglLTFV2L1FC
        SVRTY0Fla0VVRERkZ2EyZ0FmL0tmZi83NUZmNzFkR0pEdkpUYnV1VmVhdEw2cDkycWpROUVkQWE0YWlnMAoJaFhkRlJFU2t2TzNKd3NzVndIQzNQNkVVdVFDckFMRUFF
        TjNkU29SdUhOTXBFbG53VkNuRHU1WEhMNnNibDl6TDRkM0sKCWcyWUpkK01QbmN3Snl0NnRQSnd0YjJIZWpVTzNUaEtkZUxlU0FjYjI4QmRiY0MzbjRQOURkNnF3YURo
        NFJoTVdCTXRyCgk1ZDc5djFJSUZnNEtoUWFSaHc0UjZnR0FvZzQwSVRxNVVyUlFHMFZ6a1Z5bkFBQkZRQ21sUVNtMVFWVmNYRVNvRFVxcAoJQjZYVUJhVVVVMG9OVUVv
        OXFJYlFGZ3ZhbVJSS1BTZ0JCZ0wwSzJuaUtYOHI2Rjc4N3hpYll3Nis2RlkzeC81ZjlYdngKCS85VXlZUW4vMG5YakZNOEthaVBKbkx5NyswSEVoSGZqVkRJVlVLZE82
        T1BkM2EwOEdFUTNMdEZKbFI3dnZ2WEoweHVmCgllRDZ1UEw0YmZ5Q1NpL04wQ1IyL1htUmdhL0E1Nko2dFgxWTNUck9kRSsvdWxreHBSdDdkemFnekl4TEZFT1RXSjBk
        NAoJTjI3cGN5Vk9wU3ZoM1RoVU03S05IdkFiczk1cnZ4cmpJQk83OGFkNmQzZTNrbUdpTmo5WDR0M0tRMEszRWlHRGphM20KCWxvc3lmblBMUTNSM0t3OUd4aWJseStp
        a2ZHdkJSUWJyMTFwdnZmV01qSkJwRExiL2Z3emozdkx3dmVWZFc2d2JmNnE3CglGNTlwRGpLeS9XTExLNCszdUR3cG5wYkJCclYyT29qeTVVc28yM3VMTmJrNkZrUTNY
        cDhxOGU1TGdhZHBuVm15RzlkdwoJY0dXQXAya2RxNU02WWNHNTF2RnUrbHlLRFhzajcrN0dKMHNoYUdvNDN0M0tRd1BmSzVtOEc2Y1owS3pBRURtUXVCZVEKCUNRaUZi
        Rzh0OXZDZmFZMTUzZmhUWFpGd0k1Y290aldCODNnSHpoZm5DS3FTclc2Y2NsUUxDODYxR043ZHZYd2Rpa1R4CglOQ1gwbVE1REx0ZFllK2hZbEpCQng3UUlmUXhzL3c4
        K1d3KzJsNDVCeUZENE1QN1hXcXV4Rjk5N2J6MkUwSGxzRGlNUwoJT2VEZHVIVHRkYUFLVlp3am5DK0UydnhjQ3B3am5HK0VycldYVFQ0WUg1UU5ZenFyRmVoV1BLV01w
        d1hPRWM1M0E5ZEoKCXhYV0NxQVhPRVZRbmlGbzRrTmlZbGs1UUNlY0lndEFwUnlMMW9WREdkZ05iV0FyTmlOcU1qSHRCT1NpVklxNDg2R1JuCglwQnVIS01lVklxdVZi
        NHVSRVQ3WDJHTFBHQmxYZ002b1FiMHlSR2dBQUFCUUJRQWt3QUlBbVJtcURSS2dZQkFRQ1pNVQoJUkZFUWhsQ1VVVVFBa0VFQUNJRUFBQ0JnS0pDRzFnQW05QzJFM1RY
        c2I0WVZBM2FvcFlpNmpVck9BQjZUL1JCT1E0cHcKCUI2ZlJENHFQMEhDVU15aWQ1QlNRU3c0SmhTRGJ6cWxNVFByYUttYWwzRHpMVFVBMEdZVjBid2xKUkRsQkVrNU5p
        cHVTCgkySmx1QVhxR2t2Zk1aQzZuazhVWHJBTUY1RmJua2pBbmFWNTR6bEZ3Z1FrVmROQkNBaVdRWko1VHFFQWdHSnhYSkI0cQoJUmxKZVlwRDRxQWhKdVdoSWloRGRJ
        NWNsL1FRVlZxa2Z5VTAzOGFIb0FxNkpvSnp3eG1VZmtHeEJFQXhVaFBDNElBZngKCUo0NlBMSkJvZHlIYTJFaXZnUlMrVEltQUxYZlJFNUQxZ3ljaFl1RzRNelJOZFlP
        Rm9LN000ZXdWOG9HZ1ZhQTN0MFVRCglSMVF1VVo0Y2FBMnc1Tk1xcldnN1YrRDRSdHhkOUhuaU0xZU9ZVjFxb3d0WWRlb1JVV0NDeHU0NG9wREMwazNFYmg4MwoJb0RC
        U0sxTUpCTHdPZEl1bmZWbU1DYXVVT0t1TnpRTWIyRHJqblRYSVUzRDhCUHM4ZGdwV1JpSE9RU1R6SUlIVTkwV1UKCVZ3NFBwaWhTbkRWcVZhL2FLS3Z0SlpzT3U3cVJr
        TTJ4V3RLeEJnQU10Z1A0Y0pXMXk0QUVEdFcxMzhwbzZEb1o3QmFoCgk4QUE0MERPTXFkZEcrbW91NmtqdjkwR0ZmSGdJT0g0ckpZOHRQYjhsN0Z2ejVwd3paN0RmQjE0
        RwoJPC9kYXRhPgoJPGtleT5tYW51ZmFjdHVyZXI8L2tleT4KCTxpbnRlZ2VyPjE0NDcyNTM1OTk8L2ludGVnZXI+Cgk8a2V5Pm5hbWU8L2tleT4KCTxzdHJpbmc+VkNW
        UmFjazwvc3RyaW5nPgoJPGtleT5zdWJ0eXBlPC9rZXk+Cgk8aW50ZWdlcj4xNDQ3MjUzNTc0PC9pbnRlZ2VyPgoJPGtleT50eXBlPC9rZXk+Cgk8aW50ZWdlcj4xNjM1
        MDg1NjcwPC9pbnRlZ2VyPgoJPGtleT52ZXJzaW9uPC9rZXk+Cgk8aW50ZWdlcj4xPC9pbnRlZ2VyPgo8L2RpY3Q+CjwvcGxpc3Q+CgEAAAAAAAAAAAA=
      >
      FLOATPOS 0 0 0 0
      FXID {B16322B3-AEEB-5747-AC63-1C6F8AC75F9E}
      WAK 0 0
    >
  >
>
