<REAPER_PROJECT 0.1 "7.34/macOS-arm64" 1741861488
  <NOTES 0 2
  >
  RIPPLE 0
  GROUPOVERRIDE 0 0 0
  AUTOXFADE 129
  ENVATTACH 3
  POOLEDENVATTACH 0
  MIXERUIFLAGS 11 48
  ENVFADESZ10 40
  PEAKGAIN 1
  FEEDBACK 0
  PANLAW 1
  PROJOFFS 0 0 0
  MAXPROJLEN 0 0
  GRID 3199 8 1 8 1 0 0 0
  TIMEMODE 1 5 -1 30 0 0 -1
  VIDEO_CONFIG 0 0 65792
  PANMODE 3
  PANLAWFLAGS 3
  CURSOR 112
  ZOOM 0.72795805627751 0 0
  VZOOMEX 6 0
  USE_REC_CFG 0
  RECMODE 1
  SMPTESYNC 0 30 100 40 1000 300 0 0 1 0 0
  LOOP 0
  LOOPGRAN 0 4
  RECORD_PATH "Media" ""
  <RECORD_CFG
    ZXZhdxgAAQ==
  >
  <APPLYFX_CFG
  >
  RENDER_FILE ""
  RENDER_PATTERN ""
  RENDER_FMT 0 2 0
  RENDER_1X 0
  RENDER_RANGE 1 0 0 18 1000
  RENDER_RESAMPLE 3 0 1
  RENDER_ADDTOPROJ 0
  RENDER_STEMS 0
  RENDER_DITHER 0
  TIMELOCKMODE 1
  TEMPOENVLOCKMODE 1
  ITEMMIX 1
  DEFPITCHMODE 589824 0
  TAKELANE 1
  SAMPLERATE 48000 0 0
  <RENDER_CFG
    ZXZhdxgAAQ==
  >
  LOCK 1
  <METRONOME 6 2
    VOL 0.25 0.125
    BEATLEN 4
    FREQ 1760 880 1
    SAMPLES "" "" "" ""
    SPLIGNORE 0 0
    SPLDEF 2 660 "" 0 ""
    SPLDEF 3 440 "" 0 ""
    PATTERN 0 169
    PATTERNSTR ABBB
    MULT 1
  >
  GLOBAL_AUTO -1
  TEMPO 120 4 4 0
  PLAYRATE 1 0 0.25 4
  SELECTION 224 352
  SELECTION2 224 352
  MASTERAUTOMODE 0
  MASTERTRACKHEIGHT 0 0
  MASTERPEAKCOL 16576
  MASTERMUTESOLO 0
  MASTERTRACKVIEW 0 0.6667 0.5 0.5 0 0 0 0 0 0 0 0 0 0
  MASTERHWOUT 0 0 1 0 0 0 0 -1
  MASTER_NCH 2 2
  MASTER_VOLUME 1.24447656050475 0 -1 -1 1
  MASTER_PANMODE 3
  MASTER_PANLAWFLAGS 3
  MASTER_FX 1
  MASTER_SEL 0
  <MASTERFXLIST
    WNDRECT 32 548 815 263
    SHOW 0
    LASTSEL 0
    DOCKED 0
    BYPASS 1 0 0
    <AU "AU: AUReverb2 (Apple)" "Apple: AUReverb2" "" 1635083896 1920361010 1634758764
      6QMAAAAAAAACAAAAAQAAAAAAAAACAAAAAAAAAAIAAAABAAAAAAAAAAIAAAAAAAAALwIAADw/eG1sIHZlcnNpb249IjEuMCIgZW5jb2Rpbmc9IlVURi04Ij8+CjwhRE9D
      VFlQRSBwbGlzdCBQVUJMSUMgIi0vL0FwcGxlLy9EVEQgUExJU1QgMS4wLy9FTiIgImh0dHA6Ly93d3cuYXBwbGUuY29tL0RURHMvUHJvcGVydHlMaXN0LTEuMC5kdGQi
      Pgo8cGxpc3QgdmVyc2lvbj0iMS4wIj4KPGRpY3Q+Cgk8a2V5PmRhdGE8L2tleT4KCTxkYXRhPgoJQUFBQUFBQUFBQUFBQUFBSEFBQUFBRUdZek0wQUFBQUJQNEFBQUFB
      QUFBSThBeEp2QUFBQUF6MU16TTBBQUFBRVB3cDkKCU5RQUFBQVUvQUFBQUFBQUFCa0lUMnlJPQoJPC9kYXRhPgoJPGtleT5tYW51ZmFjdHVyZXI8L2tleT4KCTxpbnRl
      Z2VyPjE2MzQ3NTg3NjQ8L2ludGVnZXI+Cgk8a2V5Pm5hbWU8L2tleT4KCTxzdHJpbmc+VW50aXRsZWQ8L3N0cmluZz4KCTxrZXk+c3VidHlwZTwva2V5PgoJPGludGVn
      ZXI+MTkyMDM2MTAxMDwvaW50ZWdlcj4KCTxrZXk+dHlwZTwva2V5PgoJPGludGVnZXI+MTYzNTA4Mzg5NjwvaW50ZWdlcj4KCTxrZXk+dmVyc2lvbjwva2V5PgoJPGlu
      dGVnZXI+MDwvaW50ZWdlcj4KPC9kaWN0Pgo8L3BsaXN0PgoBAAAAAAAAAAAA
    >
    FLOATPOS 64 544 600 235
    FXID {9A605900-225D-E941-9AB3-F46337113F6D}
    WAK 0 0
    BYPASS 0 0 0
    <VST "VST: ReaComp (Cockos)" reacomp.vst.dylib 0 "" 1919247213<5653547265636D726561636F6D700000> ""
      bWNlcu9e7f4EAAAAAQAAAAAAAAACAAAAAAAAAAQAAAAAAAAACAAAAAAAAAACAAAAAQAAAAAAAAACAAAAAAAAAFwAAAAAAAAAAAAAAA==
      776t3g3wrd6bJAA+UMivOzSFAD0K16M8AAAAAAAAAACefBc/u2xPO5EpbD8AAAAAvTeGNQAAgD8AAAAAHm1EQAAAAAAAAAAAAAAAAAAAAAAAAAAAAAAAAAAAAAA=
      AHN0b2NrIC0gTWFzdGVyIEJ1cyBHbHVlAAAAAAA=
    >
    PRESETNAME "stock - Master Bus Glue"
    FLOATPOS 32 417 567 394
    FXID {DB68F64F-E035-0346-AB74-E02C7679A681}
    WAK 0 0
  >
  <MASTERPLAYSPEEDENV
    EGUID {62061924-2D06-CA41-B745-01B95C42C262}
    ACT 0 -1
    VIS 0 1 1
    LANEHEIGHT 0 0
    ARM 0
    DEFSHAPE 0 -1 -1
  >
  <TEMPOENVEX
    EGUID {A8FBE181-5174-A549-BE0D-A3409F4C84EC}
    ACT 0 -1
    VIS 1 0 1
    LANEHEIGHT 0 0
    ARM 0
    DEFSHAPE 1 -1 -1
  >
  <PROJBAY
  >
  <TRACK {58856C49-DCFE-B24A-85A4-61A95C2CD20B}
    NAME "Generated score"
    PEAKCOL 16576
    BEAT -1
    AUTOMODE 0
    PANLAWFLAGS 3
    VOLPAN 1.82452995868445 0 -1 -1 1
    MUTESOLO 0 0 0
    IPHASE 0
    PLAYOFFS 0 1
    ISBUS 0 0
    BUSCOMP 0 0 0 0 0
    SHOWINMIX 1 0.6667 0.5 1 0.5 0 0 0
    FIXEDLANES 9 0 0 0 0
    SEL 1
    REC 1 5088 1 0 0 0 0 0
    VU 2
    TRACKHEIGHT 0 0 0 0 0 0 0
    INQ 0 0 0 0.5 100 0 0 100
    NCHAN 2
    FX 1
    TRACKID {58856C49-DCFE-B24A-85A4-61A95C2CD20B}
    PERF 0
    MIDIOUT -1
    MAINSEND 1 0
    <FXCHAIN
      WNDRECT 0 121 807 690
      SHOW 0
      LASTSEL 0
      DOCKED 0
    >
    <ITEM
      POSITION 0
      SNAPOFFS 0
      LENGTH 360.02403252195376
      LOOP 1
      ALLTAKES 0
      FADEIN 1 0 0 1 0 0 0
      FADEOUT 1 0 0 1 0 0 0
      MUTE 0 0
      SEL 1
      IGUID {48F62CC2-0951-C544-AB8E-BDD5BEA834C4}
      IID 27
      NAME ""
      VOLPAN 1 0 1 -1
      SOFFS 0 0
      PLAYRATE 1 1 0 -1 0 0.0025
      CHANMODE 0
      GUID {62FAFDC3-45CC-F644-8CA1-3600DA2A7532}
      <SOURCE MIDI
        HASDATA 1 960 QN
        CCINTERP 32
        POOLEDEVTS {0D16791C-8AA8-9145-A6CD-B049D9CCBA4A}
        E 46 90 21 36
        E 0 91 25 36
        E 0 92 28 36
        E 3691 80 21 00
        E 0 81 25 00
        E 0 82 28 00
        E 0 90 2b 36
        E 0 91 54 36
        E 0 92 57 36
        E 1846 80 2b 00
        E 0 81 54 00
        E 0 82 57 00
        E 0 90 27 36
        E 0 91 37 36
        E 0 92 48 36
        E 1845 80 27 00
        E 0 81 37 00
        E 0 82 48 00
        E 0 90 2b 36
        E 0 91 3f 36
        E 0 92 60 36
        E 1846 80 2b 00
        E 0 81 3f 00
        E 0 90 2c 36
        E 0 91 41 36
        E 1846 82 60 00
        E 0 81 41 00
        E 0 91 35 36
        E 0 92 48 36
        E 1846 80 2c 00
        E 0 82 48 00
        E 0 90 2e 36
        E 0 92 49 36
        E 1845 80 2e 00
        E 0 90 2c 36
        E 1483 81 35 00
        E 0 80 2c 00
        E 0 90 2e 34
        E 0 91 36 34
        E 697 82 49 00
        E 0 80 2e 00
        E 0 90 2f 34
        E 0 92 4b 34
        E 698 81 36 00
        E 0 82 4b 00
        E 0 91 38 34
        E 0 92 4c 34
        E 698 80 2f 00
        E 0 81 38 00
        E 0 90 31 34
        E 0 91 39 34
        E 697 82 4c 00
        E 0 80 31 00
        E 0 81 39 00
        E 0 90 28 36
        E 0 91 31 36
        E 0 92 39 36
        E 1186 91 30 36
        E 0 92 37 36
        E 2372 91 39 36
        E 0 92 3c 36
        E 1320 81 31 00
        E 1186 82 37 00
        E 1186 82 39 00
        E 0 81 30 00
        E 14 90 2e 36
        E 0 91 36 36
        E 0 92 3d 36
        E 1854 90 22 36
        E 0 92 49 36
        E 1838 80 28 00
        E 0 81 39 00
        E 0 82 3c 00
        E 15 90 25 36
        E 0 92 3a 36
        E 1838 80 2e 00
        E 0 82 3d 00
        E 15 90 27 36
        E 0 92 3b 36
        E 1838 80 22 00
        E 0 82 49 00
        E 15 90 2a 36
        E 0 91 4b 36
        E 0 92 53 36
        E 1838 80 25 00
        E 0 82 3a 00
        E 15 91 49 36
        E 0 92 52 36
        E 1838 81 36 00
        E 0 80 27 00
        E 0 82 3b 00
        E 1504 90 29 34
        E 349 82 53 00
        E 351 91 48 34
        E 0 92 50 34
        E 700 90 27 34
        E 0 92 4f 34
        E 701 90 26 34
        E 0 91 46 34
        E 700 90 2b 36
        E 0 91 56 36
        E 0 92 5e 36
        E 890 80 2a 00
        E 0 81 4b 00
        E 301 91 58 36
        E 0 92 5f 36
        E 399 81 49 00
        E 0 82 52 00
        E 701 80 29 00
        E 0 82 50 00
        E 700 81 48 00
        E 0 80 27 00
        E 582 91 5f 36
        E 0 92 62 36
        E 119 82 4f 00
        E 0 80 26 00
        E 0 81 46 00
        E 1190 82 5e 00
        E 1191 81 58 00
        E 1191 81 56 00
        E 0 82 5f 00
        E 30 91 58 36
        E 0 92 5f 36
        E 1860 90 34 36
        E 0 91 37 36
        E 0 92 53 36
        E 1831 81 5f 00
        E 0 82 62 00
        E 30 91 39 36
        E 0 92 54 36
        E 1831 80 2b 00
        E 0 81 58 00
        E 0 82 5f 00
        E 1524 92 48 36
        E 336 82 53 00
        E 859 90 37 36
        E 0 91 40 36
        E 1002 81 39 00
        E 1494 82 54 00
        E 1196 80 34 00
        E 0 81 37 00
        E 44 90 39 36
        E 1868 90 21 36
        E 0 91 28 36
        E 0 92 3c 36
        E 1824 80 37 00
        E 44 91 29 36
        E 0 92 3e 36
        E 1824 82 48 00
        E 0 81 40 00
        E 0 80 39 00
        E 1545 90 29 36
        E 0 91 2d 36
        E 0 92 48 36
        E 323 81 28 00
        E 877 92 54 36
        E 991 82 3e 00
        E 1500 80 21 00
        E 0 82 3c 00
        E 0 81 29 00
        E 1201 82 48 00
        E 59 90 2c 36
        E 0 91 33 36
        E 0 92 47 36
        E 1876 91 3b 36
        E 0 92 3f 36
        E 1816 80 29 00
        E 0 81 2d 00
        E 0 82 54 00
        E 59 90 27 36
        E 0 91 44 36
        E 0 92 53 36
        E 1816 81 33 00
        E 0 82 47 00
        E 60 90 28 36
        E 0 92 55 36
        E 1816 80 2c 00
        E 0 81 3b 00
        E 0 82 3f 00
        E 59 90 25 36
        E 0 91 38 36
        E 0 92 4c 36
        E 1816 80 27 00
        E 0 82 53 00
        E 60 91 39 36
        E 0 92 4e 36
        E 1816 81 44 00
        E 0 80 28 00
        E 0 82 55 00
        E 1566 90 26 34
        E 309 81 38 00
        E 400 91 3b 34
        E 0 92 4f 34
        E 709 90 28 34
        E 0 91 3c 34
        E 709 90 29 34
        E 0 92 51 34
        E 709 90 2d 36
        E 0 91 35 36
        E 0 92 48 36
        E 855 80 25 00
        E 0 82 4c 00
        E 350 90 2c 36
        E 0 91 33 36
        E 359 81 39 00
        E 0 82 4e 00
        E 709 80 26 00
        E 0 81 3b 00
        E 137 90 30 36
        E 0 91 38 36
        E 0 92 4d 36
        E 572 82 4f 00
        E 0 80 28 00
        E 633 92 59 36
        E 76 81 3c 00
        E 0 80 29 00
        E 0 82 51 00
        E 1205 80 2d 00
        E 0 81 35 00
        E 1205 82 48 00
        E 0 80 2c 00
        E 0 81 33 00
        E 1205 82 4d 00
        E 75 92 57 36
        E 1883 90 24 36
        E 0 91 3f 36
        E 0 92 44 36
        E 1809 82 59 00
        E 74 90 22 36
        E 0 92 43 36
        E 1809 80 30 00
        E 0 81 38 00
        E 0 82 57 00
        E 1587 90 27 36
        E 0 91 43 36
        E 0 92 60 36
        E 296 82 44 00
        E 914 91 2b 36
        E 969 80 22 00
        E 1512 80 24 00
        E 0 81 3f 00
        E 0 82 43 00
        E 1210 81 43 00
        E 90 92 5e 36
        E 1891 90 33 36
        E 0 91 37 36
        E 0 92 46 36
        E 1800 82 60 00
        E 90 90 32 36
        E 0 91 35 36
        E 1801 80 27 00
        E 0 81 2b 00
        E 0 82 5e 00
        E 1891 80 33 00
        E 932 90 37 36
        E 0 91 3e 36
        E 958 81 35 00
        E 2734 81 37 00
        E 0 80 32 00
        E 3901 90 35 3b
        E 1898 91 3d 3b
        E 0 92 44 3b
        E 1794 80 37 00
        E 105 90 22 3b
        E 0 91 25 3b
        E 0 92 29 3b
        E 1793 82 46 00
        E 0 81 3e 00
        E 105 90 29 45
        E 0 91 2c 45
        E 0 92 31 45
        E 1483 90 28 45
        E 0 92 2f 45
        E 310 80 35 00
        E 0 81 3d 00
        E 0 82 44 00
        E 1173 90 25 45
        E 0 91 28 45
        E 0 92 2c 45
        E 725 80 22 00
        E 0 81 25 00
        E 0 82 29 00
        E 758 90 23 5a
        E 725 80 29 00
        E 0 82 31 00
        E 433 91 26 5a
        E 0 92 2b 5a
        E 1050 81 2c 00
        E 0 80 28 00
        E 0 82 2f 00
        E 109 90 28 5a
        E 0 91 2b 5a
        E 0 92 2f 5a
        E 1374 80 25 00
        E 668 90 29 5a
        E 0 91 3d 5a
        E 0 92 5e 5a
        E 491 81 28 00
        E 0 82 2c 00
        E 393 91 49 5a
        E 0 92 52 5a
        E 765 80 23 00
        E 0 81 26 00
        E 0 82 2b 00
        E 119 90 22 5a
        E 0 91 29 5a
        E 0 92 31 5a
        E 884 91 2a 5a
        E 707 90 2a 5a
        E 0 92 46 5a
        E 333 80 28 00
        E 0 81 2b 00
        E 0 82 2f 00
        E 884 82 5e 00
        E 884 80 29 00
        E 0 81 49 00
        E 0 82 52 00
        E 376 90 2b 45
        E 0 91 30 45
        E 0 92 58 45
        E 508 81 29 00
        E 571 90 24 45
        E 0 91 28 45
        E 0 92 37 45
        E 136 80 22 00
        E 0 82 31 00
        E 0 81 2a 00
        E 943 91 3c 45
        E 0 92 40 45
        E 1079 90 2d 45
        E 0 91 3e 45
        E 0 92 41 45
        E 454 81 3d 00
        E 0 80 2a 00
        E 0 82 46 00
        E 625 90 29 45
        E 0 92 5d 45
        E 454 81 30 00
        E 0 82 58 00
        E 625 92 5e 45
        E 454 80 24 00
        E 0 81 28 00
        E 0 82 37 00
        E 1079 81 3c 00
        E 0 82 40 00
        E 413 92 52 45
        E 666 80 2d 00
        E 0 82 41 00
        E 27 91 4a 45
        E 1052 82 5d 00
        E 1080 80 2b 00
        E 35 90 28 45
        E 0 91 31 45
        E 0 92 44 45
        E 831 82 5e 00
        E 35 90 25 45
        E 0 91 28 45
        E 0 92 2c 45
        E 659 81 3e 00
        E 208 90 38 45
        E 0 91 3d 45
        E 0 92 4c 45
        E 867 90 39 45
        E 0 92 4e 45
        E 867 90 21 45
        E 0 91 36 45
        E 0 92 3d 45
        E 224 80 29 00
        E 0 82 52 00
        E 0 81 4a 00
        E 642 91 34 5a
        E 225 80 28 00
        E 0 81 31 00
        E 0 82 44 00
        E 642 90 24 5a
        E 0 92 37 5a
        E 225 80 25 00
        E 0 81 28 00
        E 0 82 2c 00
        E 642 92 5d 5a
        E 224 80 38 00
        E 0 82 4c 00
        E 867 81 3d 00
        E 0 80 39 00
        E 0 82 4e 00
        E 436 90 36 5a
        E 0 91 57 5a
        E 0 92 5e 5a
        E 431 81 36 00
        E 231 90 27 5a
        E 0 91 42 5a
        E 0 92 52 5a
        E 635 80 21 00
        E 0 82 3d 00
        E 26 90 22 5a
        E 0 91 36 5a
        E 0 92 4b 5a
        E 661 90 23 5a
        E 180 82 37 00
        E 349 90 2f 5a
        E 1179 81 34 00
        E 0 80 24 00
        E 0 82 5d 00
        E 661 80 36 00
        E 0 81 57 00
        E 0 82 5e 00
        E 661 80 27 00
        E 0 81 42 00
        E 0 82 52 00
        E 613 90 29 3b
        E 0 91 2d 3b
        E 0 92 30 3b
        E 48 80 22 00
        E 529 80 23 00
        E 684 90 21 3b
        E 0 91 29 3b
        E 0 92 3c 3b
        E 1261 90 35 3b
        E 0 91 39 3b
        E 0 92 54 3b
        E 1169 81 36 00
        E 0 82 4b 00
        E 0 80 2f 00
        E 92 90 2c 3b
        E 0 91 34 3b
        E 0 92 3d 3b
        E 1170 80 29 00
        E 0 81 2d 00
        E 0 82 30 00
        E 92 91 31 3b
        E 0 92 40 3b
        E 1169 80 21 00
        E 0 81 29 00
        E 0 82 3c 00
        E 92 90 28 3b
        E 0 91 44 3b
        E 0 92 49 3b
        E 1169 80 35 00
        E 0 81 39 00
        E 0 82 54 00
        E 92 90 2a 3b
        E 0 91 45 3b
        E 1169 81 34 00
        E 0 82 3d 00
        E 92 90 2d 3b
        E 0 91 36 3b
        E 0 92 55 3b
        E 1169 80 2c 00
        E 0 81 31 00
        E 0 82 40 00
        E 92 90 2f 3b
        E 0 92 56 3b
        E 1169 80 28 00
        E 0 81 44 00
        E 1106 91 37 36
        E 156 82 49 00
        E 0 80 2a 00
        E 0 81 45 00
        E 320 90 30 36
        E 0 92 58 36
        E 477 91 39 36
        E 0 92 59 36
        E 464 82 55 00
        E 13 90 32 36
        E 0 91 3a 36
        E 476 90 22 3b
        E 0 91 35 3b
        E 0 92 4a 3b
        E 811 90 25 3b
        E 0 91 38 3b
        E 0 92 4d 3b
        E 810 92 49 3b
        E 164 80 2d 00
        E 0 81 36 00
        E 477 80 2f 00
        E 0 82 56 00
        E 170 92 55 3b
        E 306 81 37 00
        E 0 82 58 00
        E 477 80 30 00
        E 0 81 39 00
        E 477 82 59 00
        E 0 80 32 00
        E 0 81 3a 00
        E 810 82 4a 00
        E 462 92 50 3b
        E 349 81 38 00
        E 0 82 4d 00
        E 810 82 49 00
        E 107 90 29 3b
        E 0 91 2c 3b
        E 0 92 61 3b
        E 1267 90 27 3b
        E 0 92 60 3b
        E 1158 80 22 00
        E 0 82 55 00
        E 1125 90 24 3b
        E 0 92 35 3b
        E 142 81 35 00
        E 0 80 25 00
        E 0 82 50 00
        E 671 92 41 3b
        E 595 82 61 00
        E 1266 80 27 00
        E 682 92 3f 3b
        E 335 80 29 00
        E 0 82 60 00
        E 814 82 35 00
        E 122 90 38 3b
        E 0 91 48 3b
        E 0 92 4b 3b
        E 1272 90 37 3b
        E 0 91 46 3b
        E 1149 82 41 00
        E 1143 91 3c 3b
        E 128 81 2c 00
        E 0 80 24 00
        E 1271 80 38 00
        E 1271 81 46 00
        E 700 90 28 3b
        E 0 91 49 3b
        E 0 92 5d 3b
        E 322 81 48 00
        E 699 91 51 3b
        E 0 92 55 3b
        E 118 82 3f 00
        E 903 90 21 3b
        E 0 91 28 3b
        E 0 92 3d 3b
        E 1021 91 2a 3b
        E 0 92 3e 3b
        E 628 82 4b 00
        E 0 80 37 00
        E 0 81 3c 00
        E 394 90 26 3b
        E 0 92 51 3b
        E 628 81 49 00
        E 0 82 5d 00
        E 393 92 53 45
        E 628 80 28 00
        E 0 81 51 00
        E 0 82 55 00
        E 393 90 27 45
        E 0 91 2c 45
        E 628 81 28 00
        E 0 82 3d 00
        E 393 92 47 45
        E 628 80 21 00
        E 0 82 3e 00
        E 1021 82 51 00
        E 170 90 29 5a
        E 0 92 48 5a
        E 798 90 2c 5a
        E 0 91 33 5a
        E 0 92 54 5a
        E 53 80 26 00
        E 1021 82 53 00
        E 332 90 2a 5a
        E 0 91 45 5a
        E 0 92 4a 5a
        E 609 91 39 5a
        E 0 92 56 5a
        E 81 81 2a 00
        E 527 91 32 5a
        E 0 92 51 5a
        E 270 80 27 00
        E 0 82 47 00
        E 339 90 2b 5a
        E 0 91 34 5a
        E 0 92 53 5a
        E 459 81 2c 00
        E 0 80 29 00
        E 0 82 48 00
        E 28 90 23 5a
        E 0 91 2b 5a
        E 0 92 40 5a
        E 1379 80 2c 00
        E 0 81 33 00
        E 0 82 54 00
        E 326 90 29 45
        E 0 91 52 45
        E 0 92 55 45
        E 282 81 45 00
        E 0 82 4a 00
        E 461 91 46 45
        E 0 92 61 45
        E 148 81 39 00
        E 0 82 56 00
        E 595 91 3d 45
        E 0 92 5e 45
        E 14 80 2a 00
        E 0 81 32 00
        E 0 82 51 00
        E 486 80 2b 00
        E 0 81 34 00
        E 0 82 53 00
        E 243 90 2a 45
        E 743 91 3a 45
        E 720 80 23 00
        E 0 81 2b 00
        E 0 82 40 00
        E 23 91 38 45
        E 720 81 52 00
        E 620 91 2e 45
        E 0 92 49 45
        E 123 81 46 00
        E 0 82 61 00
        E 1486 81 3d 00
        E 0 82 5e 00
        E 360 90 37 45
        E 0 91 5f 45
        E 0 92 62 45
        E 383 80 2a 00
        E 214 90 2b 45
        E 0 91 32 45
        E 0 92 53 45
        E 529 81 38 00
        E 68 90 23 45
        E 0 91 37 45
        E 0 92 56 45
        E 529 81 3a 00
        E 68 90 24 45
        E 0 92 58 45
        E 409 82 49 00
        E 188 91 3c 45
        E 0 92 40 45
        E 596 90 39 5a
        E 597 91 3d 5a
        E 0 92 42 5a
        E 111 80 29 00
        E 0 82 55 00
        E 0 81 2e 00
        E 486 90 31 5a
        E 0 91 34 5a
        E 0 92 39 5a
        E 111 81 5f 00
        E 0 82 62 00
        E 596 80 2b 00
        E 0 81 32 00
        E 0 82 53 00
        E 345 90 27 5a
        E 0 91 3a 5a
        E 0 92 43 5a
        E 252 80 23 00
        E 0 82 56 00
        E 203 91 2b 5a
        E 0 92 2e 5a
        E 394 81 37 00
        E 0 80 24 00
        E 0 82 58 00
        E 62 91 46 5a
        E 0 92 4b 5a
        E 455 90 38 5a
        E 0 91 48 5a
        E 0 92 4d 5a
        E 364 91 4d 5a
        E 0 92 60 5a
        E 313 81 3c 00
        E 0 82 40 00
        E 596 80 39 00
        E 0 81 3d 00
        E 0 82 42 00
        E 1052 80 31 00
        E 0 81 34 00
        E 0 82 39 00
        E 456 81 3a 00
        E 0 82 43 00
        E 455 80 27 00
        E 0 81 2b 00
        E 0 82 2e 00
        E 455 80 37 00
        E 0 81 46 00
        E 0 82 4b 00
        E 364 81 48 00
        E 0 82 4d 00
        E 2524 90 2a 3b
        E 0 90 2c 3b
        E 0 90 35 3b
        E 0 90 46 3b
        E 0 90 49 3b
        E 3691 80 38 00
        E 0 81 4d 00
        E 0 82 60 00
        E 651 90 55 3b
        E 3691 80 49 00
        E 651 90 31 3b
        E 0 90 3a 3b
        E 3692 80 46 00
        E 0 80 55 00
        E 650 90 27 3b
        E 0 90 2f 3b
        E 0 90 36 3b
        E 3692 80 2a 00
        E 0 80 2c 00
        E 0 80 35 00
        E 650 90 25 3b
        E 0 90 2a 3b
        E 0 90 47 3b
        E 3692 80 31 00
        E 0 80 2f 00
        E 0 80 36 00
        E 650 90 28 3b
        E 0 90 38 3b
        E 3692 80 3a 00
        E 0 80 25 00
        E 651 90 29 3b
        E 0 90 2b 3b
        E 0 90 48 3b
        E 3487 90 25 36
        E 0 90 2c 36
        E 0 90 3a 36
        E 204 80 2a 00
        E 0 80 47 00
        E 0 80 28 00
        E 1437 90 2a 36
        E 0 90 49 36
        E 1642 90 47 36
        E 409 80 38 00
        E 0 80 2b 00
        E 1232 90 28 36
        E 0 90 3d 36
        E 409 80 48 00
        E 0 80 25 00
        E 1232 90 3b 3b
        E 409 80 29 00
        E 1641 80 3a 00
        E 0 80 2a 00
        E 740 90 2a 3b
        E 0 90 2b 3b
        E 0 90 4a 3b
        E 901 80 47 00
        E 0 80 3d 00
        E 1889 90 29 3b
        E 0 90 46 3b
        E 902 80 2c 00
        E 0 80 49 00
        E 1888 90 52 3b
        E 0 90 56 3b
        E 902 80 28 00
        E 0 80 3b 00
        E 0 80 2a 00
        E 2790 80 4a 00
        E 0 80 46 00
        E 5027 90 2c 3b
        E 0 90 30 3b
        E 0 90 35 3b
        E 0 90 3a 3b
        E 0 90 49 3b
        E 3692 80 27 00
        E 0 80 2b 00
        E 0 80 29 00
        E 0 80 52 00
        E 0 80 56 00
        E 668 90 31 3b
        E 0 90 46 3b
        E 3691 80 3a 00
        E 0 80 49 00
        E 669 90 2e 3b
        E 0 90 3d 3b
        E 0 90 54 3b
        E 3691 80 30 00
        E 0 80 31 00
        E 0 80 46 00
        E 668 90 29 3b
        E 0 90 36 3b
        E 0 90 3f 3b
        E 0 90 55 3b
        E 3691 80 2c 00
        E 0 80 35 00
        E 0 80 3d 00
        E 0 80 54 00
        E 669 90 2a 3b
        E 0 90 31 3b
        E 0 90 33 3b
        E 0 90 3a 3b
        E 3691 80 2e 00
        E 0 80 36 00
        E 0 80 3f 00
        E 0 80 55 00
        E 668 90 2c 3b
        E 0 90 30 3b
        E 3692 80 2a 00
        E 0 80 33 00
        E 668 90 28 3b
        E 0 90 2d 3b
        E 0 90 3b 3b
        E 3501 90 2a 36
        E 0 90 33 36
        E 190 80 29 00
        E 0 80 3a 00
        E 0 80 30 00
        E 1458 90 27 36
        E 0 90 2e 36
        E 1648 90 29 36
        E 0 90 3d 36
        E 396 80 2d 00
        E 1252 90 30 36
        E 395 80 28 00
        E 0 80 33 00
        E 1253 90 33 3b
        E 395 80 3b 00
        E 1648 80 2a 00
        E 0 80 2e 00
        E 758 90 2d 3b
        E 0 90 2e 3b
        E 0 90 32 3b
        E 890 80 27 00
        E 0 80 3d 00
        E 1911 90 26 3b
        E 0 90 2a 3b
        E 0 90 2f 3b
        E 890 80 2c 00
        E 0 80 33 00
        E 1911 90 39 3b
        E 0 90 3b 3b
        E 891 80 29 00
        E 0 80 30 00
        E 0 80 2e 00
        E 0 80 32 00
        E 2801 80 2d 00
        E 0 80 2f 00
        E 5063 90 29 3b
        E 0 90 2e 3b
        E 0 90 3c 3b
        E 3691 80 31 00
        E 0 80 2a 00
        E 0 80 3b 00
        E 686 90 30 3b
        E 0 90 45 3b
        E 0 90 52 3b
        E 3691 80 39 00
        E 0 80 2e 00
        E 0 80 3c 00
        E 686 90 27 3b
        E 0 90 32 3b
        E 0 90 43 3b
        E 3691 80 26 00
        E 0 80 30 00
        E 0 80 45 00
        E 686 90 28 3b
        E 0 90 2a 3b
        E 0 90 53 3b
        E 3515 90 2b 3b
        E 0 90 34 3b
        E 0 90 56 3b
        E 176 80 29 00
        E 0 80 52 00
        E 0 80 27 00
        E 2637 90 26 3b
        E 0 90 2f 3b
        E 879 80 32 00
        E 0 80 43 00
        E 2812 80 53 00
        E 0 80 34 00
        E 0 80 56 00
        E 5098 90 22 3b
        E 0 90 27 3b
        E 0 90 29 3b
        E 0 90 32 3b
        E 3692 80 28 00
        E 0 80 2a 00
        E 0 80 26 00
        E 0 80 2f 00
        E 703 90 33 3b
        E 0 90 52 3b
        E 3691 80 22 00
        E 0 80 27 00
        E 703 90 2c 3b
        E 0 90 30 3b
        E 3692 80 29 00
        E 0 80 32 00
        E 703 90 2f 3b
        E 0 90 34 3b
        E 0 90 51 3b
        E 3530 90 3b 3b
        E 0 90 3c 3b
        E 161 80 33 00
        E 0 80 52 00
        E 0 80 2c 00
        E 2663 90 21 3b
        E 0 90 53 3b
        E 867 80 30 00
        E 0 80 2f 00
        E 2824 80 51 00
        E 0 80 3b 00
        E 5133 90 28 3b
        E 0 90 2a 3b
        E 0 90 2d 3b
        E 0 90 32 3b
        E 0 90 3d 3b
        E 3692 80 2b 00
        E 0 80 34 00
        E 0 80 3c 00
        E 0 80 21 00
        E 0 80 53 00
        E 720 90 49 3b
        E 3692 80 3d 00
        E 721 90 21 3b
        E 0 90 25 3b
        E 3691 80 2d 00
        E 0 80 49 00
        E 721 90 23 3b
        E 0 90 2b 3b
        E 3691 80 28 00
        E 0 80 25 00
        E 721 90 2d 3b
        E 0 90 53 3b
        E 3692 80 21 00
        E 0 80 23 00
        E 721 90 28 3b
        E 0 90 2f 3b
        E 0 90 30 3b
        E 0 90 56 3b
        E 3691 80 2a 00
        E 0 80 32 00
        E 0 80 2d 00
        E 0 80 53 00
        E 721 90 27 3b
        E 0 90 2c 3b
        E 0 90 34 3b
        E 0 90 55 3b
        E 3544 90 2a 36
        E 0 90 2d 36
        E 147 80 2b 00
        E 0 80 28 00
        E 0 80 30 00
        E 0 80 56 00
        E 1521 90 32 36
        E 1667 90 2b 36
        E 0 90 56 36
        E 356 80 27 00
        E 1312 90 54 36
        E 356 80 2c 00
        E 1312 90 30 3b
        E 0 90 53 3b
        E 356 80 55 00
        E 0 80 32 00
        E 1667 80 2a 00
        E 0 80 56 00
        E 812 90 2e 3b
        E 0 90 32 3b
        E 0 90 33 3b
        E 856 80 2f 00
        E 1979 90 22 3b
        E 0 90 25 3b
        E 0 90 27 3b
        E 0 90 2a 3b
        E 0 90 47 3b
        E 856 80 34 00
        E 0 80 2d 00
        E 0 80 30 00
        E 0 80 53 00
        E 1979 90 53 3b
        E 857 80 2b 00
        E 0 80 54 00
        E 0 80 32 00
        E 0 80 33 00
        E 2835 80 22 00
        E 0 80 47 00
        E 5168 90 26 3b
        E 0 90 2b 3b
        E 0 90 30 3b
        E 0 90 52 3b
        E 3692 80 2e 00
        E 0 80 25 00
        E 0 80 2a 00
        E 0 80 53 00
        E 738 90 32 3b
        E 0 90 3a 3b
        E 3692 80 26 00
        E 0 80 52 00
        E 738 90 26 3b
        E 0 90 2e 3b
        E 0 90 35 3b
        E 0 90 39 3b
        E 3692 80 27 00
        E 0 80 30 00
        E 0 80 32 00
        E 0 80 3a 00
        E 738 90 25 3b
        E 0 90 2a 3b
        E 0 90 2c 3b
        E 0 90 3a 3b
        E 3559 90 3d 3b
        E 0 90 46 3b
        E 133 80 2b 00
        E 0 80 26 00
        E 0 80 2e 00
        E 0 80 39 00
        E 2713 90 49 3b
        E 0 90 52 3b
        E 845 80 25 00
        E 0 80 3a 00
        E 2847 80 3d 00
        E 0 80 46 00
        E 5204 90 2b 3b
        E 0 90 2d 3b
        E 0 90 4a 3b
        E 3691 80 2a 00
        E 0 80 2c 00
        E 0 80 49 00
        E 757 90 29 3b
        E 0 90 32 3b
        E 0 90 45 3b
        E 3691 80 35 00
        E 0 80 2d 00
        E 0 80 4a 00
        E 756 90 28 3b
        E 0 90 54 3b
        E 3692 80 52 00
        E 0 80 2b 00
        E 756 90 27 3b
        E 0 90 31 3b
        E 0 90 44 3b
        E 3573 90 2c 3b
        E 0 90 3c 3b
        E 0 90 49 3b
        E 118 80 32 00
        E 0 80 45 00
        E 0 80 28 00
        E 2740 90 48 3b
        E 0 90 55 3b
        E 833 80 54 00
        E 0 80 31 00
        E 0 80 44 00
        E 2858 80 3c 00
        E 0 80 49 00
        E 5240 90 62 34
        E 0 91 5f 34
        E 0 92 5b 34
        E 662 90 60 34
        E 0 91 5b 34
        E 0 92 58 34
        E 277 80 62 00
        E 0 81 5f 00
        E 0 82 5b 00
        E 385 91 5d 34
        E 0 92 59 34
        E 276 81 5b 00
        E 0 82 58 00
        E 386 90 62 34
        E 0 91 5e 34
        E 276 80 60 00
        E 0 81 5d 00
        E 1429 80 29 00
        E 0 80 27 00
        E 0 80 2c 00
        E 0 80 48 00
        E 0 80 55 00
        E 4407 90 61 34
        E 0 91 5c 34
        E 2637 90 46 34
        E 0 91 35 34
        E 0 92 31 34
        E 1054 80 62 00
        E 0 81 5e 00
        E 1583 90 44 36
        E 1054 82 59 00
        E 0 80 61 00
        E 0 81 5c 00
        E 1006 91 34 36
        E 0 92 2f 36
        E 1631 80 46 00
        E 430 90 49 36
        E 0 91 40 36
        E 0 92 38 36
        E 1631 81 35 00
        E 0 82 31 00
        E 429 90 47 3b
        E 1609 91 3e 3b
        E 0 92 37 3b
        E 22 80 44 00
        E 0 81 34 00
        E 0 82 2f 00
        E 1588 90 53 3b
        E 472 80 49 00
        E 1610 82 38 00
        E 756 90 55 3b
        E 0 91 3a 3b
        E 0 92 35 3b
        E 853 80 47 00
        E 0 81 3e 00
        E 375 90 2e 3b
        E 0 91 29 3b
        E 0 92 25 3b
        E 1228 90 46 3b
        E 0 91 3d 3b
        E 1228 92 36 3b
        E 7 81 40 00
        E 0 82 37 00
        E 0 80 53 00
        E 975 91 36 3b
        E 0 92 22 3b
        E 253 81 3a 00
        E 1228 80 2e 00
        E 0 81 29 00
        E 0 82 25 00
        E 1228 82 35 00
        E 732 90 54 36
        E 0 91 2b 36
        E 0 92 28 36
        E 251 80 46 00
        E 0 81 3d 00
        E 0 82 36 00
        E 1248 90 48 36
        E 0 91 34 36
        E 0 92 2b 36
        E 1499 90 60 36
        E 0 91 58 36
        E 0 92 37 36
        E 694 80 55 00
        E 0 81 36 00
        E 0 82 22 00
        E 805 90 62 36
        E 0 91 59 36
        E 0 92 39 36
        E 694 80 54 00
        E 0 81 2b 00
        E 0 82 28 00
        E 805 90 56 36
        E 0 91 39 36
        E 0 92 35 36
        E 694 80 48 00
        E 0 81 34 00
        E 0 82 2b 00
        E 806 91 3a 36
        E 693 80 60 00
        E 0 81 58 00
        E 1499 80 62 00
        E 0 81 59 00
        E 0 82 39 00
        E 511 91 35 36
        E 0 92 2e 36
        E 963 90 2e 36
        E 0 91 29 36
        E 0 92 26 36
        E 25 81 39 00
        E 1499 82 37 00
        E 1204 82 35 00
        E 0 81 3a 00
        E 282 90 55 36
        E 0 91 38 36
        E 0 92 34 36
        E 681 80 56 00
        E 0 81 35 00
        E 0 82 2e 00
        E 523 90 49 36
        E 0 91 40 36
        E 0 92 38 36
        E 1204 90 61 36
        E 0 91 58 36
        E 0 92 2c 36
        E 1204 91 5a 36
        E 0 92 2d 36
        E 80 80 2e 00
        E 0 81 29 00
        E 0 82 26 00
        E 1124 91 45 36
        E 0 92 2a 36
        E 80 81 38 00
        E 0 82 34 00
        E 1124 92 28 3b
        E 80 80 49 00
        E 0 81 40 00
        E 0 82 38 00
        E 1125 90 54 3b
        E 0 91 43 3b
        E 79 81 58 00
        E 0 82 2c 00
        E 1125 90 48 3b
        E 0 91 39 3b
        E 79 80 61 00
        E 0 81 5a 00
        E 0 82 2d 00
        E 1204 82 2a 00
        E 839 90 3a 3b
        E 0 91 36 3b
        E 0 92 33 3b
        E 365 80 55 00
        E 0 81 45 00
        E 554 90 3f 3b
        E 0 92 2e 3b
        E 650 80 54 00
        E 0 81 43 00
        E 269 90 57 3b
        E 0 91 46 3b
        E 0 92 2a 3b
        E 918 91 47 3b
        E 735 91 53 3b
        E 201 82 28 00
        E 0 80 48 00
        E 0 81 39 00
        E 918 80 3a 00
        E 0 82 33 00
        E 919 81 36 00
        E 0 80 3f 00
        E 0 82 2e 00
        E 919 81 46 00
        E 735 81 47 00
        E 634 90 51 34
        E 0 91 3c 34
        E 0 92 35 34
        E 1752 90 48 34
        E 0 91 45 34
        E 1753 90 5d 34
        E 0 91 35 34
        E 0 92 24 34
        E 187 80 57 00
        E 0 82 2a 00
        E 0 81 53 00
        E 1565 90 61 34
        E 0 91 4c 34
        E 0 92 38 34
        E 187 80 51 00
        E 0 81 3c 00
        E 1565 90 58 34
        E 0 91 55 34
        E 187 82 35 00
        E 0 80 48 00
        E 0 81 45 00
        E 1565 90 40 34
        E 0 91 38 34
        E 0 92 25 34
        E 187 80 5d 00
        E 0 81 35 00
        E 0 82 24 00
        E 1565 90 42 34
        E 0 91 39 34
        E 187 80 61 00
        E 0 81 4c 00
        E 1565 90 51 34
        E 0 91 36 34
        E 187 82 38 00
        E 0 80 58 00
        E 0 81 55 00
        E 1565 90 53 34
        E 0 92 26 34
        E 188 80 40 00
        E 0 81 38 00
        E 1752 80 42 00
        E 0 81 39 00
        E 1220 91 37 32
        E 532 82 25 00
        E 130 90 54 32
        E 0 92 28 32
        E 663 91 39 32
        E 0 92 29 32
        E 662 90 56 32
        E 0 91 3a 32
        E 662 90 62 34
        E 0 91 46 34
        E 1042 80 51 00
        E 0 81 36 00
        E 84 90 61 34
        E 0 91 44 34
        E 579 80 53 00
        E 0 82 26 00
        E 662 81 37 00
        E 0 82 28 00
        E 662 80 54 00
        E 0 81 39 00
        E 349 90 46 34
        E 0 91 35 34
        E 0 92 25 34
        E 314 80 56 00
        E 0 81 3a 00
        E 1125 80 62 00
        E 1126 81 44 00
        E 953 90 44 34
        E 173 82 29 00
        E 0 81 46 00
        E 0 80 61 00
        E 1586 90 4d 34
        E 0 91 3d 34
        E 0 92 38 34
        E 1760 90 4b 34
        E 0 91 3c 34
        E 173 80 46 00
        E 1759 81 35 00
        E 0 82 25 00
        E 0 80 44 00
        E 1240 91 48 34
        E 519 81 3d 00
        E 611 90 59 34
        E 1148 80 4b 00
        E 1413 81 3c 00
        E 972 90 57 34
        E 159 80 4d 00
        E 1607 90 38 34
        E 0 91 27 34
        E 0 92 24 34
        E 1766 90 37 34
        E 0 92 22 34
        E 159 80 59 00
        E 1766 82 38 00
        E 0 81 48 00
        E 0 80 57 00
        E 1260 90 60 34
        E 0 91 4b 34
        E 0 92 2b 34
        E 507 80 38 00
        E 628 91 57 34
        E 1138 82 22 00
        E 1418 81 27 00
        E 0 82 24 00
        E 0 80 37 00
        E 991 90 39 34
        E 0 91 28 34
        E 0 92 25 34
        E 144 81 4b 00
        E 1274 90 31 34
        E 0 91 2d 34
        E 0 92 28 34
        E 1419 90 49 34
        E 0 91 45 34
        E 0 92 34 34
        E 854 80 60 00
        E 0 82 2b 00
        E 0 81 57 00
        E 565 90 4a 34
        E 0 92 36 34
        E 854 80 39 00
        E 0 81 28 00
        E 0 82 25 00
        E 564 90 3e 34
        E 0 91 36 34
        E 0 92 2d 34
        E 854 80 31 00
        E 0 81 2d 00
        E 0 82 28 00
        E 565 92 2f 36
        E 854 80 49 00
        E 0 82 34 00
        E 565 90 3f 36
        E 0 91 38 36
        E 854 81 45 00
        E 0 80 4a 00
        E 0 82 36 00
        E 564 90 4b 36
        E 0 92 23 36
        E 855 82 2d 00
        E 1418 80 3e 00
        E 255 90 4d 3b
        E 0 92 24 3b
        E 1108 90 57 3b
        E 0 92 30 3b
        E 56 82 2f 00
        E 0 80 3f 00
        E 1419 81 36 00
        E 479 90 62 3b
        E 0 91 36 3b
        E 0 92 21 3b
        E 629 80 4b 00
        E 0 82 23 00
        E 216 90 5d 3b
        E 0 91 2a 3b
        E 0 92 26 3b
        E 846 90 4a 3b
        E 0 92 2d 3b
        E 46 80 4d 00
        E 0 82 24 00
        E 800 90 4c 3b
        E 0 91 37 3b
        E 0 92 2f 3b
        E 676 90 58 3b
        E 0 91 47 3b
        E 0 92 37 3b
        E 478 81 38 00
        E 0 80 57 00
        E 0 82 30 00
        E 846 80 62 00
        E 0 82 21 00
        E 845 80 5d 00
        E 0 81 2a 00
        E 0 82 26 00
        E 200 90 31 36
        E 0 91 2e 36
        E 0 92 29 36
        E 646 81 36 00
        E 0 80 4a 00
        E 0 82 2d 00
        E 387 90 3d 36
        E 0 91 29 36
        E 0 92 22 36
        E 289 80 4c 00
        E 0 81 37 00
        E 0 82 2f 00
        E 743 90 55 36
        E 0 91 3a 36
        E 0 92 35 36
        E 1032 92 36 36
        E 595 80 58 00
        E 0 81 47 00
        E 0 82 37 00
        E 437 90 61 36
        E 0 91 5e 36
        E 595 80 31 00
        E 0 81 2e 00
        E 0 82 29 00
        E 438 91 5c 36
        E 594 80 3d 00
        E 0 81 29 00
        E 0 82 22 00
        E 1267 91 52 36
        E 663 90 52 36
        E 0 91 29 36
        E 0 92 25 36
        E 135 81 3a 00
        E 1032 82 36 00
        E 906 90 3e 36
        E 0 91 3b 36
        E 0 92 37 36
        E 126 81 5c 00
        E 703 90 4a 36
        E 0 91 37 36
        E 0 92 2f 36
        E 126 80 61 00
        E 0 81 5e 00
        E 664 80 55 00
        E 0 82 35 00
        E 0 81 52 00
        E 39 90 47 36
        E 0 92 26 36
        E 829 90 48 36
        E 0 92 28 36
        E 829 90 60 36
        E 0 91 4c 36
        E 0 92 2b 36
        E 375 80 52 00
        E 0 81 29 00
        E 0 82 25 00
        E 454 92 2d 3b
        E 375 80 3e 00
        E 0 81 3b 00
        E 0 82 37 00
        E 454 90 61 3b
        E 0 91 4e 3b
        E 375 80 4a 00
        E 0 82 2f 00
        E 455 90 5d 3b
        E 0 91 49 3b
        E 375 80 47 00
        E 0 82 26 00
        E 829 81 37 00
        E 0 80 48 00
        E 257 90 5e 3b
        E 0 91 37 3b
        E 0 92 33 3b
        E 572 82 2b 00
        E 61 90 52 3b
        E 0 91 3f 3b
        E 0 92 37 3b
        E 632 90 37 3b
        E 0 91 27 3b
        E 0 92 22 3b
        E 136 80 60 00
        E 0 81 4c 00
        E 497 90 38 3b
        E 0 91 29 3b
        E 0 92 24 3b
        E 332 82 2d 00
        E 0 80 61 00
        E 0 81 4e 00
        E 174 90 3c 3b
        E 0 91 38 3b
        E 0 92 29 3b
        E 1288 82 28 00
        E 0 80 5d 00
        E 0 81 49 00
        E 632 80 5e 00
        E 0 81 37 00
        E 0 82 33 00
        E 633 80 52 00
        E 0 81 3f 00
        E 0 82 37 00
        E 632 80 37 00
        E 0 81 27 00
        E 0 82 22 00
        E 506 80 38 00
        E 0 81 29 00
        E 0 82 24 00
        E 1173 91 37 32
        E 0 92 27 32
        E 887 90 3a 32
        E 0 92 26 32
        E 887 90 39 32
        E 0 91 35 32
        E 887 91 34 32
        E 0 92 24 32
        E 887 90 37 32
        E 0 92 23 32
        E 143 81 38 00
        E 0 82 29 00
        E 745 90 36 32
        E 0 91 32 32
        E 142 80 3c 00
        E 0 82 27 00
        E 888 81 37 00
        E 0 80 3a 00
        E 887 82 26 00
        E 0 81 35 00
        E 887 80 39 00
        E 0 82 24 00
        E 887 81 34 00
        E 0 80 37 00
        E 8428 82 23 00
        E 0 80 36 00
        E 0 81 32 00
        E 48 b0 7b 00
        CCINTERP 32
        CHASE_CC_TAKEOFFS 1
        GUID {7FD0D61C-E2D0-7C43-A01D-C0BB46F557BB}
        IGNTEMPO 0 120 4 4
        SRCCOLOR 26
        VELLANE -1 100 0 0 1
      >
    >
    <ITEM
      POSITION 0
      SNAPOFFS 0
      LENGTH 4
      LOOP 1
      ALLTAKES 0
      FADEIN 1 0 0 1 0 0 0
      FADEOUT 1 0 0 1 0 0 0
      MUTE 0 0
      SEL 0
      IGUID {223FB6EB-7EBF-EC4A-BAB0-1ABEEAED19E2}
      IID 26
      NAME ""
      VOLPAN 1 0 1 -1
      SOFFS 0 0
      PLAYRATE 1 1 0 -1 0 0.0025
      CHANMODE 0
      GUID {E60D7A26-B5EC-654C-B6D8-1A29F4869B45}
      <SOURCE MIDI
        HASDATA 1 960 QN
        CCINTERP 32
        POOLEDEVTS {F796EF23-4920-6040-9214-D56E6585EDAB}
        E 26 90 21 34
        E 0 91 25 34
        E 0 92 28 34
        E 2125 80 21 00
        E 0 81 25 00
        E 0 82 28 00
        E 0 90 2b 34
        E 0 91 3f 34
        E 0 92 60 34
        E 1063 81 3f 00
        E 0 82 60 00
        E 0 91 4b 34
        E 0 92 54 34
        E 1063 80 2b 00
        E 0 81 4b 00
        E 0 82 54 00
        E 0 90 24 34
        E 0 91 2b 34
        E 0 92 33 34
        E 1062 81 2b 00
        E 0 82 33 00
        E 0 91 2c 34
        E 0 92 35 34
        E 1063 80 24 00
        E 0 81 2c 00
        E 0 82 35 00
        E 0 90 29 34
        E 0 91 44 34
        E 0 92 54 34
        E 1063 81 44 00
        E 0 82 54 00
        E 0 91 46 34
        E 0 92 55 34
        E 1062 81 46 00
        E 0 91 44 34
        E 854 80 29 00
        E 0 81 44 00
        E 0 90 2a 33
        E 0 91 46 33
        E 402 82 55 00
        E 0 81 46 00
        E 0 91 47 33
        E 0 92 57 33
        E 401 80 2a 00
        E 0 82 57 00
        E 0 90 2c 33
        E 0 92 58 33
        E 402 81 47 00
        E 0 80 2c 00
        E 0 90 2d 33
        E 0 91 49 33
        E 402 82 58 00
        E 0 80 2d 00
        E 0 81 49 00
        E 0 90 34 34
        E 0 91 45 34
        E 0 92 55 34
        E 682 91 43 34
        E 0 92 54 34
        E 2126 82 55 00
        E 683 81 43 00
        E 691 90 2a 34
        E 0 91 46 34
        E 0 92 49 34
        E 1067 91 3a 34
        E 0 92 55 34
        E 1058 80 34 00
        E 0 81 45 00
        E 0 82 54 00
        E 9 91 31 34
        E 0 92 52 34
        E 1058 81 46 00
        E 0 82 49 00
        E 9 91 33 34
        E 0 92 53 34
        E 1058 81 3a 00
        E 0 82 55 00
        E 9 90 23 34
        E 0 91 27 34
        E 0 92 42 34
        E 1058 81 31 00
        E 0 82 52 00
        E 9 90 22 34
        E 0 91 25 34
        E 1058 80 2a 00
        E 0 81 33 00
        E 0 82 53 00
        E 865 92 41 33
        E 202 80 23 00
        E 202 90 24 33
        E 0 91 2c 33
        E 403 91 2b 33
        E 0 92 3f 33
        E 403 92 3e 33
        E 404 90 2e 34
        E 0 91 37 34
        E 0 92 62 34
        E 512 81 27 00
        E 0 82 42 00
        E 173 90 2b 34
        E 0 91 34 34
        E 0 92 5f 34
        E 230 81 25 00
        E 403 82 41 00
        E 0 81 2c 00
        E 53 90 2f 34
        E 351 80 24 00
        E 0 82 3f 00
        E 403 80 22 00
        E 0 81 2b 00
        E 0 82 3e 00
        E 686 80 2e 00
        E 685 80 2b 00
        E 0 81 34 00
        E 0 82 5f 00
        E 703 90 29 34
        E 0 91 31 34
        E 0 92 5e 34
        E 1071 91 3d 34
        E 0 92 52 34
        E 1054 81 37 00
        E 0 82 62 00
        E 0 80 2f 00
        E 17 90 22 34
        E 0 91 25 34
        E 0 92 29 34
        E 1054 81 31 00
        E 0 82 5e 00
        E 17 91 27 34
        E 0 92 2a 34
        E 1055 80 29 00
        E 0 81 3d 00
        E 0 82 52 00
        E 17 90 36 34
        E 0 91 52 34
        E 0 92 57 34
        E 1054 81 25 00
        E 0 82 29 00
        E 17 90 38 34
        E 0 91 53 34
        E 1054 80 22 00
        E 0 81 27 00
        E 0 82 2a 00
        E 877 92 58 33
        E 194 81 52 00
        E 211 90 39 33
        E 0 91 55 33
        E 405 91 56 33
        E 0 92 5a 33
        E 405 90 3b 33
        E 0 92 5b 33
        E 405 90 37 34
        E 0 92 56 34
        E 506 80 36 00
        E 0 82 57 00
        E 182 90 35 34
        E 0 91 52 34
        E 223 80 38 00
        E 405 82 58 00
        E 0 81 55 00
        E 405 80 39 00
        E 0 82 5a 00
        E 404 81 56 00
        E 0 80 3b 00
        E 0 82 5b 00
        E 689 81 53 00
        E 688 80 35 00
        E 714 90 35 34
        E 1076 91 46 34
        E 0 92 4a 34
        E 1049 80 37 00
        E 26 91 45 34
        E 0 92 48 34
        E 1050 82 56 00
        E 0 81 52 00
        E 890 91 4a 34
        E 0 92 51 34
        E 185 81 46 00
        E 1076 82 48 00
        E 864 82 4a 00
        E 0 81 45 00
        E 725 91 48 34
        E 1080 91 51 34
        E 0 92 54 34
        E 1046 81 4a 00
        E 34 90 34 34
        E 0 91 4f 34
        E 1045 82 51 00
        E 0 81 48 00
        E 902 91 45 34
        E 0 92 48 34
        E 178 80 35 00
        E 1080 81 4f 00
        E 867 81 51 00
        E 0 82 54 00
        E 737 90 2a 34
        E 0 91 3d 34
        E 0 92 46 34
        E 1085 91 3a 34
        E 0 92 49 34
        E 1041 80 34 00
        E 0 81 45 00
        E 0 82 48 00
        E 43 90 36 34
        E 0 91 52 34
        E 0 92 61 34
        E 1041 81 3d 00
        E 0 82 46 00
        E 43 91 57 34
        E 0 92 5f 34
        E 1041 80 2a 00
        E 0 81 3a 00
        E 0 82 49 00
        E 43 90 23 34
        E 0 91 36 34
        E 0 92 57 34
        E 1041 81 52 00
        E 0 82 61 00
        E 43 90 22 34
        E 0 92 55 34
        E 1041 80 36 00
        E 0 81 57 00
        E 0 82 5f 00
        E 914 91 35 33
        E 171 80 23 00
        E 239 90 24 33
        E 0 92 50 33
        E 410 91 33 33
        E 0 92 4f 33
        E 410 91 32 33
        E 409 90 2e 34
        E 0 91 37 34
        E 0 92 56 34
        E 487 81 36 00
        E 0 82 57 00
        E 210 90 2f 34
        E 0 92 58 34
        E 199 82 55 00
        E 410 81 35 00
        E 0 82 50 00
        E 410 80 24 00
        E 0 81 33 00
        E 410 80 22 00
        E 0 82 4f 00
        E 0 81 32 00
        E 696 80 2e 00
        E 697 82 58 00
        E 748 92 58 34
        E 2126 82 56 00
        E 51 90 30 34
        E 0 91 39 34
        E 1963 90 24 34
        E 163 80 2f 00
        E 1088 81 39 00
        E 875 80 30 00
        E 760 91 39 34
        E 1092 90 21 34
        E 0 91 34 34
        E 0 92 48 34
        E 1033 81 37 00
        E 60 91 35 34
        E 0 92 4a 34
        E 1033 82 58 00
        E 0 80 24 00
        E 0 81 39 00
        E 938 90 2d 34
        E 0 92 54 34
        E 155 81 34 00
        E 1093 82 4a 00
        E 877 80 21 00
        E 0 82 48 00
        E 772 90 23 34
        E 0 91 2c 34
        E 0 92 3f 34
        E 1097 90 2c 34
        E 0 91 3f 34
        E 0 92 5f 34
        E 1028 81 35 00
        E 0 80 2d 00
        E 0 82 54 00
        E 70 90 2f 34
        E 0 91 33 34
        E 0 92 44 34
        E 1028 80 23 00
        E 0 81 2c 00
        E 0 82 3f 00
        E 69 90 31 34
        E 0 91 34 34
        E 1028 80 2c 00
        E 0 81 3f 00
        E 0 82 5f 00
        E 69 90 38 34
        E 0 91 49 34
        E 0 92 4c 34
        E 1028 80 2f 00
        E 0 81 33 00
        E 69 90 39 34
        E 0 92 4e 34
        E 1028 82 44 00
        E 0 80 31 00
        E 0 81 34 00
        E 951 91 4a 33
        E 147 80 38 00
        E 268 90 3b 33
        E 0 92 4f 33
        E 415 90 3c 33
        E 0 91 4c 33
        E 414 91 4d 33
        E 0 92 51 33
        E 415 90 35 34
        E 0 91 48 34
        E 466 81 49 00
        E 0 82 4c 00
        E 239 90 33 34
        E 0 92 50 34
        E 176 80 39 00
        E 0 82 4e 00
        E 415 81 4a 00
        E 0 80 3b 00
        E 114 90 38 34
        E 0 92 54 34
        E 301 82 4f 00
        E 0 81 4c 00
        E 414 80 3c 00
        E 705 82 51 00
        E 0 80 35 00
        E 706 81 48 00
        E 0 80 33 00
        E 0 82 50 00
        E 783 90 26 34
        E 0 91 2a 34
        E 0 92 45 34
        E 1101 90 2a 34
        E 0 91 32 34
        E 0 92 39 34
        E 1024 81 4d 00
        E 0 80 38 00
        E 0 82 54 00
        E 78 90 36 34
        E 0 91 4a 34
        E 0 92 51 34
        E 1024 80 26 00
        E 0 81 2a 00
        E 0 82 45 00
        E 78 90 37 34
        E 0 92 53 34
        E 1023 80 2a 00
        E 0 81 32 00
        E 0 82 39 00
        E 78 90 2f 34
        E 0 91 37 34
        E 0 92 4a 34
        E 1024 80 36 00
        E 0 82 51 00
        E 78 90 2d 34
        E 0 91 36 34
        E 1024 81 4a 00
        E 0 80 37 00
        E 0 82 53 00
        E 963 92 49 33
        E 139 81 37 00
        E 277 90 2c 33
        E 0 91 34 33
        E 417 91 33 33
        E 0 92 47 33
        E 416 90 2a 33
        E 0 92 46 33
        E 416 90 2e 34
        E 0 92 4b 34
        E 460 80 2f 00
        E 0 82 4a 00
        E 248 90 30 34
        E 0 91 37 34
        E 169 80 2d 00
        E 416 82 49 00
        E 0 81 34 00
        E 416 80 2c 00
        E 0 82 47 00
        E 417 81 33 00
        E 0 80 2a 00
        E 0 82 46 00
        E 708 81 36 00
        E 708 80 30 00
        E 794 90 30 34
        E 1107 90 24 34
        E 1019 80 2e 00
        E 87 91 38 34
        E 0 92 4d 34
        E 1019 80 30 00
        E 975 90 30 34
        E 0 92 57 34
        E 131 81 37 00
        E 1106 82 4d 00
        E 889 82 4b 00
        E 0 80 24 00
        E 806 92 59 34
        E 1111 92 4d 34
        E 1014 82 57 00
        E 96 90 31 34
        E 0 91 3a 34
        E 1015 82 59 00
        E 988 90 25 34
        E 123 80 30 00
        E 1110 81 3a 00
        E 892 80 31 00
        E 818 90 23 34
        E 0 91 34 34
        E 0 92 43 34
        E 1116 90 28 34
        E 0 91 2b 34
        E 0 92 5f 34
        E 1010 81 38 00
        E 0 82 4d 00
        E 0 80 25 00
        E 105 90 2f 34
        E 0 91 37 34
        E 0 92 58 34
        E 1010 80 23 00
        E 0 81 34 00
        E 0 82 43 00
        E 105 90 30 34
        E 0 91 39 34
        E 1010 80 28 00
        E 0 81 2b 00
        E 0 82 5f 00
        E 105 91 34 34
        E 0 92 45 34
        E 1010 80 2f 00
        E 0 81 37 00
        E 105 90 32 34
        E 0 91 35 34
        E 1010 82 58 00
        E 0 81 39 00
        E 1000 92 46 33
        E 115 81 34 00
        E 307 90 33 33
        E 0 91 37 33
        E 421 91 38 33
        E 0 92 48 33
        E 422 90 35 33
        E 0 92 49 33
        E 421 90 38 34
        E 0 91 41 34
        E 440 80 30 00
        E 0 82 45 00
        E 277 91 40 34
        E 0 92 47 34
        E 144 80 32 00
        E 0 81 35 00
        E 421 82 46 00
        E 0 81 37 00
        E 422 80 33 00
        E 0 82 48 00
        E 421 81 38 00
        E 0 80 35 00
        E 717 81 41 00
        E 716 82 47 00
        E 830 92 47 34
        E 1120 92 53 34
        E 1006 82 49 00
        E 113 90 36 34
        E 0 91 3f 34
        E 1006 82 47 00
        E 1013 91 4b 34
        E 107 81 40 00
        E 1119 80 36 00
        E 900 81 3f 00
        E 842 90 36 34
        E 1124 91 3f 34
        E 0 92 47 34
        E 1001 80 38 00
        E 123 91 3d 34
        E 0 92 46 34
        E 1001 82 53 00
        E 0 81 4b 00
        E 1025 92 52 34
        E 99 82 47 00
        E 1124 81 3d 00
        E 903 82 46 00
        E 3111 91 3d 36
        E 1128 90 34 36
        E 0 92 51 36
        E 997 81 3f 00
        E 1128 82 52 00
        E 1014 91 3c 3b
        E 0 92 4f 3b
        E 881 90 30 3b
        E 0 91 34 3b
        E 0 92 45 3b
        E 362 80 36 00
        E 520 92 43 45
        E 362 81 3d 00
        E 0 82 51 00
        E 327 90 2e 45
        E 0 91 33 45
        E 555 80 34 00
        E 0 81 3c 00
        E 0 82 4f 00
        E 134 90 37 45
        E 0 91 3f 45
        E 0 92 48 45
        E 688 92 46 5a
        E 59 82 45 00
        E 480 90 36 5a
        E 0 91 3d 5a
        E 209 80 30 00
        E 0 81 34 00
        E 329 92 52 5a
        E 360 82 43 00
        E 0 80 2e 00
        E 0 81 33 00
        E 588 90 34 5a
        E 0 91 39 5a
        E 0 92 54 5a
        E 101 82 48 00
        E 310 90 24 5a
        E 0 91 28 5a
        E 0 92 2d 5a
        E 228 80 37 00
        E 182 91 3c 5a
        E 0 92 45 5a
        E 356 82 46 00
        E 0 81 3d 00
        E 55 90 35 5a
        E 328 90 2d 5a
        E 0 91 35 5a
        E 0 92 3c 5a
        E 566 81 3f 00
        E 0 80 36 00
        E 0 82 52 00
        E 410 81 39 00
        E 0 82 54 00
        E 175 90 36 45
        E 0 91 57 45
        E 0 92 5f 45
        E 236 80 24 00
        E 0 81 28 00
        E 0 82 2d 00
        E 265 90 27 45
        E 0 91 42 45
        E 0 92 53 45
        E 145 80 34 00
        E 329 81 3c 00
        E 0 82 45 00
        E 0 80 35 00
        E 27 90 23 45
        E 0 91 36 45
        E 0 92 4b 45
        E 501 90 25 45
        E 0 91 38 45
        E 0 92 4c 45
        E 501 90 34 45
        E 0 92 49 45
        E 121 80 2d 00
        E 0 81 35 00
        E 0 82 3c 00
        E 381 91 39 45
        E 120 81 57 00
        E 0 82 5f 00
        E 501 80 27 00
        E 0 81 42 00
        E 0 82 53 00
        E 282 91 34 45
        E 0 92 45 45
        E 220 80 23 00
        E 0 81 36 00
        E 0 82 4b 00
        E 501 82 4c 00
        E 501 81 38 00
        E 107 90 37 45
        E 0 91 3c 45
        E 0 92 57 45
        E 394 80 36 00
        E 8 90 27 45
        E 0 91 30 45
        E 0 92 43 45
        E 395 80 34 00
        E 0 82 49 00
        E 0 81 39 00
        E 8 91 3f 45
        E 0 92 48 45
        E 402 90 38 45
        E 0 91 41 45
        E 403 90 30 45
        E 0 91 35 45
        E 0 92 38 45
        E 402 91 33 5a
        E 113 80 25 00
        E 0 81 34 00
        E 0 82 45 00
        E 290 90 2f 5a
        E 0 92 36 5a
        E 112 81 3c 00
        E 0 82 57 00
        E 290 91 38 5a
        E 0 92 3f 5a
        E 113 80 27 00
        E 0 81 30 00
        E 0 82 43 00
        E 403 80 37 00
        E 0 81 3f 00
        E 194 90 21 5a
        E 0 92 4a 5a
        E 208 82 48 00
        E 0 80 38 00
        E 0 81 41 00
        E 99 90 35 5a
        E 0 91 4a 5a
        E 0 92 5d 5a
        E 307 90 2d 5a
        E 0 91 32 5a
        E 0 92 35 5a
        E 307 90 2e 5a
        E 92 80 30 00
        E 0 82 38 00
        E 154 90 29 5a
        E 0 91 46 5a
        E 0 92 62 5a
        E 249 81 33 00
        E 0 82 36 00
        E 709 80 2f 00
        E 0 81 38 00
        E 0 82 3f 00
        E 307 81 35 00
        E 0 80 21 00
        E 0 82 4a 00
        E 181 90 38 3b
        E 0 91 47 3b
        E 0 92 4c 3b
        E 127 80 35 00
        E 0 81 4a 00
        E 0 82 5d 00
        E 307 80 2d 00
        E 152 91 3b 3b
        E 0 92 58 3b
        E 93 81 32 00
        E 0 82 35 00
        E 0 80 2e 00
        E 493 90 34 3b
        E 0 91 38 3b
        E 0 92 53 3b
        E 586 90 37 3b
        E 0 91 3f 3b
        E 0 92 60 3b
        E 368 80 29 00
        E 0 81 46 00
        E 0 82 62 00
        E 217 91 4b 3b
        E 0 92 54 3b
        E 368 81 47 00
        E 0 82 4c 00
        E 218 90 24 3b
        E 0 91 33 3b
        E 0 92 37 3b
        E 368 80 38 00
        E 0 81 3b 00
        E 0 82 58 00
        E 218 91 35 3b
        E 0 92 38 3b
        E 368 80 34 00
        E 0 81 38 00
        E 0 82 53 00
        E 218 90 2c 3b
        E 0 91 54 3b
        E 0 92 59 3b
        E 368 81 3f 00
        E 0 82 60 00
        E 217 90 2e 3b
        E 0 91 55 3b
        E 369 80 37 00
        E 0 81 4b 00
        E 0 82 54 00
        E 585 81 33 00
        E 0 82 37 00
        E 103 92 5a 36
        E 221 90 2f 36
        E 0 91 57 36
        E 222 91 58 36
        E 0 92 5c 36
        E 40 80 24 00
        E 0 81 35 00
        E 0 82 38 00
        E 181 90 31 36
        E 0 92 5d 36
        E 221 90 28 3b
        E 0 91 45 3b
        E 0 92 55 3b
        E 184 81 54 00
        E 193 91 43 3b
        E 0 92 54 3b
        E 863 80 2c 00
        E 0 82 59 00
        E 221 80 2e 00
        E 0 81 55 00
        E 222 82 5a 00
        E 0 81 57 00
        E 221 80 2f 00
        E 0 82 5c 00
        E 222 81 58 00
        E 0 80 31 00
        E 0 82 5d 00
        E 376 82 55 00
        E 392 90 2b 3b
        E 0 91 48 3b
        E 0 92 58 3b
        E 588 91 47 3b
        E 0 92 56 3b
        E 949 81 45 00
        E 112 91 53 3b
        E 476 80 28 00
        E 0 81 43 00
        E 0 82 54 00
        E 588 81 48 00
        E 1061 81 47 00
        E 24 92 62 3b
        E 590 90 2a 3b
        E 0 91 51 3b
        E 945 82 58 00
        E 120 91 47 3b
        E 1061 80 2b 00
        E 504 90 38 3b
        E 0 91 48 3b
        E 0 92 4b 3b
        E 86 81 51 00
        E 389 91 3c 3b
        E 0 92 57 3b
        E 86 81 53 00
        E 0 82 62 00
        E 388 90 33 3b
        E 0 91 38 3b
        E 0 92 54 3b
        E 474 90 35 3b
        E 0 92 55 3b
        E 474 90 25 3b
        E 0 91 2c 3b
        E 0 92 59 3b
        E 229 82 56 00
        E 0 80 2a 00
        E 0 81 47 00
        E 246 91 2e 45
        E 228 81 48 00
        E 0 82 4b 00
        E 246 90 26 45
        E 0 92 5b 45
        E 228 80 38 00
        E 0 81 3c 00
        E 0 82 57 00
        E 246 90 22 45
        E 0 91 29 45
        E 0 92 56 45
        E 228 80 33 00
        E 0 82 54 00
        E 247 91 2b 5a
        E 228 81 38 00
        E 0 80 35 00
        E 0 82 55 00
        E 142 90 23 5a
        E 0 92 58 5a
        E 332 81 2c 00
        E 39 90 2b 5a
        E 0 91 2f 5a
        E 0 92 62 5a
        E 435 80 25 00
        E 0 82 59 00
        E 218 90 35 5a
        E 0 91 38 5a
        E 0 92 61 5a
        E 257 81 2e 00
        E 0 80 26 00
        E 0 82 5b 00
        E 26 90 38 5a
        E 0 91 41 5a
        E 0 92 55 5a
        E 282 90 25 5a
        E 0 92 38 5a
        E 283 90 27 5a
        E 0 91 2a 5a
        E 0 92 3a 5a
        E 226 90 2a 5a
        E 0 91 4b 5a
        E 0 92 52 5a
        E 27 80 22 00
        E 0 82 56 00
        E 371 81 2b 00
        E 0 80 23 00
        E 0 82 58 00
        E 394 90 24 45
        E 0 91 34 45
        E 0 92 39 45
        E 259 80 2b 00
        E 0 81 2f 00
        E 0 82 62 00
        E 86 90 2d 45
        E 0 91 30 45
        E 0 92 34 45
        E 197 80 35 00
        E 0 81 38 00
        E 0 82 61 00
        E 148 90 28 45
        E 0 91 45 45
        E 0 92 54 45
        E 135 80 38 00
        E 0 81 41 00
        E 0 82 55 00
        E 210 90 29 45
        E 72 81 29 00
        E 0 80 25 00
        E 0 82 38 00
        E 226 80 27 00
        E 0 81 2a 00
        E 0 82 3a 00
        E 48 91 2d 45
        E 345 91 2b 45
        E 400 80 2a 00
        E 0 81 4b 00
        E 0 82 52 00
        E 222 90 21 45
        E 0 91 28 45
        E 0 92 48 45
        E 123 80 24 00
        E 0 81 34 00
        E 0 82 39 00
        E 345 80 2d 00
        E 0 81 30 00
        E 0 82 34 00
        E 447 90 22 45
        E 0 91 31 45
        E 0 92 36 45
        E 243 81 45 00
        E 34 90 31 45
        E 0 91 36 45
        E 0 92 5e 45
        E 277 90 2a 45
        E 0 91 2e 45
        E 0 92 61 45
        E 34 80 29 00
        E 243 91 33 45
        E 0 92 5f 45
        E 102 81 2b 00
        E 175 91 3f 45
        E 0 92 47 45
        E 102 80 28 00
        E 0 82 54 00
        E 0 81 2d 00
        E 176 90 2c 5a
        E 277 91 41 5a
        E 277 91 4b 5a
        E 0 92 54 5a
        E 185 80 21 00
        E 0 81 28 00
        E 277 80 22 00
        E 0 81 31 00
        E 0 82 36 00
        E 27 91 45 5a
        E 0 92 62 5a
        E 211 90 26 5a
        E 0 92 39 5a
        E 39 80 31 00
        E 0 82 5e 00
        E 172 91 4a 5a
        E 0 92 51 5a
        E 105 81 2e 00
        E 0 82 61 00
        E 107 90 28 5a
        E 0 91 47 5a
        E 0 92 4f 5a
        E 169 90 2b 5a
        E 0 91 2f 5a
        E 0 92 40 5a
        E 2 81 33 00
        E 0 82 5f 00
        E 554 81 3f 00
        E 0 82 47 00
        E 277 82 48 00
        E 0 81 41 00
        E 489 80 2c 00
        E 0 81 4b 00
        E 0 82 54 00
        E 211 81 45 00
        E 0 82 62 00
        E 93 90 29 36
        E 0 91 55 36
        E 0 92 5e 36
        E 119 81 36 00
        E 0 80 26 00
        E 0 82 39 00
        E 211 80 2a 00
        E 0 81 4a 00
        E 0 82 51 00
        E 169 80 28 00
        E 0 81 47 00
        E 0 82 4f 00
        E 131 91 52 36
        E 0 92 61 36
        E 631 90 22 36
        E 0 91 29 36
        E 0 92 49 36
        E 630 91 3c 36
        E 0 92 58 36
        E 235 81 2f 00
        E 0 82 40 00
        E 395 90 28 36
        E 0 91 30 36
        E 0 92 37 36
        E 235 81 55 00
        E 0 82 5e 00
        E 395 91 40 36
        E 0 92 48 36
        E 235 80 29 00
        E 0 81 52 00
        E 0 82 61 00
        E 396 90 2d 36
        E 0 91 41 36
        E 234 80 22 00
        E 0 81 29 00
        E 0 82 49 00
        E 396 90 29 36
        E 0 91 2d 36
        E 0 92 3c 36
        E 234 81 3c 00
        E 0 82 58 00
        E 396 91 2b 36
        E 235 81 30 00
        E 0 82 37 00
        E 630 80 2b 00
        E 0 81 40 00
        E 271 92 3b 34
        E 239 90 26 34
        E 0 91 2a 34
        E 120 82 48 00
        E 0 80 2d 00
        E 0 81 41 00
        E 118 90 25 34
        E 0 92 39 34
        E 238 91 28 34
        E 0 92 38 34
        E 238 91 2c 36
        E 0 92 34 36
        E 36 80 29 00
        E 369 91 2e 36
        E 0 92 35 36
        E 768 81 2d 00
        E 0 82 3c 00
        E 238 80 28 00
        E 0 81 2b 00
        E 238 82 3b 00
        E 0 80 26 00
        E 238 81 2a 00
        E 0 82 39 00
        E 239 81 28 00
        E 0 82 38 00
        E 355 90 23 36
        E 0 91 2b 36
        E 0 92 58 36
        E 50 82 34 00
        E 405 81 2e 00
        E 178 90 2b 36
        E 0 91 58 36
        E 0 92 5f 36
        E 632 91 2f 36
        E 0 92 40 36
        E 633 90 2d 36
        E 0 91 30 36
        E 227 80 25 00
        E 0 81 2c 00
        E 0 82 35 00
        E 406 90 24 36
        E 0 91 28 36
        E 0 92 45 36
        E 227 80 23 00
        E 0 81 2b 00
        E 0 82 58 00
        E 406 90 26 36
        E 0 91 29 36
        E 227 81 58 00
        E 0 82 5f 00
        E 632 80 2b 00
        E 0 81 2f 00
        E 282 92 46 34
        E 239 90 27 34
        E 0 91 2b 34
        E 112 82 40 00
        E 0 80 2d 00
        E 0 81 30 00
        E 127 91 2c 34
        E 0 92 48 34
        E 239 90 29 34
        E 0 92 49 34
        E 267 81 28 00
        E 379 90 28 36
        E 0 92 47 36
        E 762 80 24 00
        E 0 82 45 00
        E 239 80 26 00
        E 0 81 29 00
        E 239 82 46 00
        E 0 81 2b 00
        E 239 80 27 00
        E 0 82 48 00
        E 646 80 29 00
        E 594 92 53 36
        E 635 90 27 36
        E 0 91 2a 36
        E 855 82 49 00
        E 291 90 2c 36
        E 0 91 33 36
        E 344 82 47 00
        E 636 80 28 00
        E 635 81 2a 00
        E 69 90 2a 36
        E 441 81 2c 00
        E 0 80 27 00
        E 197 90 27 36
        E 0 91 2a 36
        E 0 92 47 36
        E 637 90 25 36
        E 0 92 46 36
        E 850 80 2c 00
        E 301 92 52 36
        E 337 82 53 00
        E 0 81 33 00
        E 0 80 2a 00
        E 638 82 47 00
        E 638 80 25 00
        E 77 90 2b 36
        E 0 91 3c 36
        E 0 92 4c 36
        E 435 82 46 00
        E 206 91 30 36
        E 0 92 58 36
        E 640 91 34 36
        E 0 92 48 36
        E 641 90 2d 36
        E 0 91 35 36
        E 204 80 27 00
        E 0 81 2a 00
        E 0 82 52 00
        E 436 90 29 36
        E 0 91 2d 36
        E 0 92 30 36
        E 204 81 3c 00
        E 0 82 4c 00
        E 436 90 28 36
        E 0 91 2b 36
        E 205 81 30 00
        E 0 82 58 00
        E 640 80 2b 00
        E 0 81 34 00
        E 310 92 2f 34
        E 242 90 26 34
        E 0 91 2a 34
        E 88 82 48 00
        E 0 80 2d 00
        E 0 81 35 00
        E 154 90 25 34
        E 0 92 2d 34
        E 242 91 28 34
        E 0 92 2c 34
        E 245 80 29 00
        E 409 91 29 36
        E 0 92 2e 36
        E 746 81 2d 00
        E 0 82 30 00
        E 242 80 28 00
        E 0 81 2b 00
        E 242 82 2f 00
        E 0 80 26 00
        E 242 81 2a 00
        E 0 82 2d 00
        E 653 81 28 00
        E 627 90 22 36
        E 0 91 25 36
        E 0 92 29 36
        E 643 91 27 36
        E 0 92 2a 36
        E 839 82 2c 00
        E 320 90 2a 36
        E 0 91 2e 36
        E 0 92 31 36
        E 323 80 25 00
        E 0 81 29 00
        E 0 82 2e 00
        E 643 82 29 00
        E 643 81 27 00
        E 96 92 33 36
        E 421 80 22 00
        E 0 81 25 00
        E 0 82 2a 00
        E 224 90 27 36
        E 0 91 2a 36
        E 0 92 2e 36
        E 646 91 2c 36
        E 0 92 2f 36
        E 834 82 31 00
        E 330 90 23 36
        E 0 91 27 36
        E 0 92 2a 36
        E 316 80 2a 00
        E 0 81 2e 00
        E 0 82 33 00
        E 645 82 2e 00
        E 646 81 2c 00
        E 104 90 21 36
        E 0 91 29 36
        E 0 92 4a 36
        E 414 80 27 00
        E 0 81 2a 00
        E 0 82 2f 00
        E 105 90 29 36
        E 0 91 4a 36
        E 0 92 5d 36
        E 518 91 2d 36
        E 0 92 32 36
        E 519 90 2b 36
        E 0 91 2e 36
        E 518 90 37 36
        E 0 91 52 36
        E 0 92 62 36
        E 51 80 23 00
        E 0 81 27 00
        E 0 82 2a 00
        E 468 90 35 3b
        E 51 80 21 00
        E 0 81 29 00
        E 0 82 4a 00
        E 467 91 50 3b
        E 0 92 61 3b
        E 52 81 4a 00
        E 0 82 5d 00
        E 467 91 46 3b
        E 0 92 55 3b
        E 51 80 29 00
        E 0 81 2d 00
        E 467 91 44 45
        E 52 82 32 00
        E 0 80 2b 00
        E 0 81 2e 00
        E 353 90 34 45
        E 0 92 53 45
        E 165 80 37 00
        E 241 90 28 45
        E 0 92 49 45
        E 278 81 52 00
        E 0 82 62 00
        E 127 92 47 5a
        E 316 90 26 5a
        E 0 91 43 5a
        E 75 81 50 00
        E 0 82 61 00
        E 519 81 46 00
        E 281 90 29 5a
        E 0 91 3a 5a
        E 0 92 3d 5a
        E 124 80 35 00
        E 0 82 55 00
        E 117 91 2e 5a
        E 242 90 25 5a
        E 0 91 29 5a
        E 0 92 46 5a
        E 46 80 34 00
        E 195 91 2a 5a
        E 193 90 2e 5a
        E 0 91 36 5a
        E 0 92 61 5a
        E 333 81 44 00
        E 317 82 47 00
        E 0 80 26 00
        E 27 90 2b 45
        E 0 91 34 45
        E 0 92 60 45
        E 294 91 40 45
        E 0 92 54 45
        E 237 82 53 00
        E 0 80 28 00
        E 0 81 43 00
        E 58 90 24 45
        E 0 91 28 45
        E 0 92 2b 45
        E 183 81 3a 00
        E 0 82 3d 00
        E 112 90 21 45
        E 0 91 26 45
        E 0 92 29 45
        E 130 82 49 00
        E 0 80 29 00
        E 0 81 2e 00
        E 165 90 35 45
        E 0 91 4a 45
        E 0 92 51 45
        E 76 81 29 00
        E 193 80 25 00
        E 0 82 46 00
        E 0 81 2a 00
        E 25 90 37 45
        E 0 92 52 45
        E 532 91 46 45
        E 0 92 4a 45
        E 120 80 2e 00
        E 0 81 36 00
        E 0 82 61 00
        E 295 81 34 00
        E 0 82 60 00
        E 295 80 2b 00
        E 0 81 40 00
        E 0 82 54 00
        E 71 90 2c 45
        E 0 91 34 45
        E 0 92 3d 45
        E 223 80 24 00
        E 0 81 28 00
        E 0 82 2b 00
        E 14 91 31 45
        E 0 92 40 45
        E 237 90 28 45
        E 0 91 44 45
        E 0 92 49 45
        E 44 80 21 00
        E 0 81 26 00
        E 0 82 29 00
        E 192 90 2a 45
        E 0 91 45 45
        E 103 82 51 00
        E 134 90 2d 45
        E 0 91 36 45
        E 0 92 55 45
        E 161 80 37 00
        E 236 81 4a 00
        E 0 82 52 00
        E 77 90 2b 5a
        E 0 92 54 5a
        E 236 90 21 5a
        E 0 92 48 5a
        E 418 90 22 5a
        E 0 91 2a 5a
        E 0 92 33 5a
        E 51 80 35 00
        E 0 81 46 00
        E 0 82 4a 00
        E 129 91 33 5a
        E 0 92 5e 5a
        E 107 82 3d 00
        E 74 90 27 5a
        E 0 91 2e 5a
        E 0 92 42 5a
        E 163 80 2c 00
        E 0 81 31 00
        E 0 82 40 00
        E 18 91 2f 5a
        E 144 90 36 5a
        E 0 91 47 5a
        E 0 92 4b 5a
        E 75 80 28 00
        E 0 81 44 00
        E 237 82 49 00
        E 0 81 45 00
        E 236 81 36 00
        E 237 80 2d 00
        E 0 82 55 00
        E 66 90 29 3b
        E 0 91 30 3b
        E 0 92 45 3b
        E 171 80 2b 00
        E 0 82 54 00
        E 173 91 39 3b
        E 0 92 3c 3b
        E 244 81 34 00
        E 0 80 21 00
        E 0 82 48 00
        E 101 90 35 3b
        E 0 91 51 3b
        E 0 92 54 3b
        E 80 80 22 00
        E 0 81 2a 00
        E 0 82 33 00
        E 180 80 2a 00
        E 0 81 33 00
        E 0 82 5e 00
        E 84 90 28 3b
        E 0 91 44 3b
        E 0 92 61 3b
        E 97 81 2e 00
        E 145 80 27 00
        E 0 82 42 00
        E 0 81 2f 00
        E 103 91 2c 3b
        E 0 92 55 3b
        E 344 90 25 3b
        E 0 91 38 3b
        E 0 92 58 3b
        E 345 92 5a 3b
        E 58 80 36 00
        E 0 81 47 00
        E 0 82 4b 00
        E 286 90 36 3b
        E 0 91 3d 3b
        E 0 92 51 3b
        E 59 81 30 00
        E 0 82 45 00
        E 286 91 3e 3b
        E 0 92 53 3b
        E 58 80 29 00
        E 0 82 3c 00
        E 345 80 35 00
        E 0 81 51 00
        E 0 82 54 00
        E 218 90 37 36
        E 126 81 44 00
        E 0 82 61 00
        E 4 91 40 36
        E 0 92 54 36
        E 131 90 39 36
        E 0 91 41 36
        E 130 90 3a 36
        E 0 92 56 36
        E 80 80 28 00
        E 0 81 2c 00
        E 0 82 55 00
        E 50 90 32 3b
        E 0 91 35 3b
        E 0 92 46 3b
        E 221 90 31 3b
        E 0 92 44 3b
        E 73 81 38 00
        E 0 82 58 00
        E 345 81 39 00
        E 0 80 25 00
        E 0 82 5a 00
        E 344 81 3d 00
        E 621 80 36 00
        E 0 82 51 00
        E 98 90 38 3b
        E 0 92 49 3b
        E 33 81 3e 00
        E 0 82 53 00
        E 130 80 37 00
        E 0 81 40 00
        E 130 82 54 00
        E 0 80 39 00
        E 53 91 3f 3b
        E 0 92 48 3b
        E 77 80 3a 00
        E 0 82 56 00
        E 222 80 32 00
        E 324 92 54 3b
        E 810 82 46 00
        E 346 81 35 00
        E 0 80 31 00
        E 0 82 44 00
        E 109 91 4b 3b
        E 237 82 49 00
        E 110 90 37 3b
        E 0 92 52 3b
        E 514 82 48 00
        E 112 92 48 3b
        E 805 81 41 00
        E 116 90 34 3b
        E 0 91 39 3b
        E 0 92 55 3b
        E 279 90 25 3b
        E 0 91 28 3b
        E 0 92 2d 3b
        E 278 91 3d 3b
        E 0 92 45 3b
        E 21 80 38 00
        E 258 90 36 3b
        E 0 91 3e 3b
        E 89 82 52 00
        E 190 90 2d 3b
        E 0 91 32 3b
        E 0 92 36 3b
        E 89 82 54 00
        E 0 81 4b 00
        E 190 90 2f 45
        E 279 91 33 45
        E 0 92 38 45
        E 279 90 23 45
        E 0 91 36 45
        E 0 92 3f 45
        E 173 81 3f 00
        E 0 80 37 00
        E 0 82 48 00
        E 106 91 38 5a
        E 173 81 39 00
        E 0 82 55 00
        E 45 90 24 5a
        E 0 92 41 5a
        E 218 90 30 5a
        E 0 92 4b 5a
        E 16 80 25 00
        E 0 81 28 00
        E 0 82 2d 00
        E 279 80 34 00
        E 0 81 3d 00
        E 89 90 21 5a
        E 0 92 56 5a
        E 166 91 56 5a
        E 0 92 5d 5a
        E 24 82 45 00
        E 0 81 3e 00
        E 143 92 3e 5a
        E 166 91 37 5a
        E 0 92 40 5a
        E 133 90 34 5a
        E 0 92 53 5a
        E 116 81 32 00
        E 0 82 36 00
        E 279 81 33 00
        E 0 82 38 00
        E 71 90 35 45
        E 0 91 3a 45
        E 0 92 49 45
        E 203 90 2e 45
        E 0 91 35 45
        E 0 92 55 45
        E 203 90 31 45
        E 0 92 46 45
        E 19 80 23 00
        E 0 82 3f 00
        E 218 80 24 00
        E 0 82 41 00
        E 169 91 31 45
        E 0 92 36 45
        E 203 90 2c 45
        E 0 92 35 45
        E 12 81 38 00
        E 0 80 30 00
        E 0 82 4b 00
        E 167 80 21 00
        E 0 82 56 00
        E 166 80 36 00
        E 0 81 56 00
        E 0 82 5d 00
        E 21 90 22 45
        E 0 91 25 45
        E 145 80 2d 00
        E 0 82 3e 00
        E 133 80 2f 00
        E 0 82 40 00
        E 260 90 23 45
        E 0 92 56 45
        E 163 90 37 45
        E 0 91 56 45
        E 0 92 5f 45
        E 43 80 34 00
        E 0 82 53 00
        E 120 90 2f 45
        E 0 92 3e 45
        E 83 80 35 00
        E 0 81 3a 00
        E 0 82 49 00
        E 80 90 30 45
        E 0 92 40 45
        E 123 82 55 00
        E 40 90 28 45
        E 0 92 48 45
        E 163 81 35 00
        E 0 91 39 5a
        E 163 90 2a 5a
        E 0 92 49 5a
        E 40 81 36 00
        E 0 80 31 00
        E 0 82 46 00
        E 123 91 45 5a
        E 0 92 61 5a
        E 80 82 36 00
        E 203 80 2c 00
        E 4 91 46 5a
        E 0 92 4b 5a
        E 124 91 3a 5a
        E 0 92 57 5a
        E 35 80 2e 00
        E 0 81 31 00
        E 90 90 33 5a
        E 0 92 52 5a
        E 124 90 35 5a
        E 0 91 38 5a
        E 0 92 54 5a
        E 100 90 29 5a
        E 0 91 30 5a
        E 0 92 38 5a
        E 224 82 35 00
        E 0 80 22 00
        E 0 81 25 00
        E 163 80 23 00
        E 0 82 56 00
        E 163 81 56 00
        E 0 82 5f 00
        E 163 80 2f 00
        E 0 82 3e 00
        E 163 80 30 00
        E 0 82 40 00
        E 326 82 48 00
        E 163 81 39 00
        E 0 80 2a 00
        E 0 82 49 00
        E 287 80 28 00
        E 0 81 45 00
        E 0 82 61 00
        E 125 81 46 00
        E 0 82 4b 00
        E 124 80 37 00
        E 0 81 3a 00
        E 0 82 57 00
        E 125 81 37 00
        E 0 80 33 00
        E 0 82 52 00
        E 99 80 35 00
        E 0 81 38 00
        E 0 82 54 00
        E 569 90 36 36
        E 0 90 45 36
        E 0 90 56 36
        E 1853 90 26 36
        E 0 90 42 36
        E 272 80 29 00
        E 0 81 30 00
        E 0 82 38 00
        E 1581 90 39 36
        E 0 90 3e 36
        E 272 80 56 00
        E 1581 90 37 36
        E 0 90 3b 36
        E 272 80 45 00
        E 0 80 26 00
        E 0 80 42 00
        E 1582 90 32 36
        E 0 90 47 36
        E 272 80 36 00
        E 0 80 39 00
        E 1581 90 36 36
        E 0 90 45 36
        E 272 80 3e 00
        E 0 80 3b 00
        E 1853 80 37 00
        E 1217 90 31 34
        E 701 90 34 34
        E 0 90 44 34
        E 700 90 2f 34
        E 0 90 33 34
        E 701 90 2e 34
        E 0 90 42 34
        E 23 80 32 00
        E 0 80 47 00
        E 677 90 46 36
        E 24 80 45 00
        E 700 80 31 00
        E 0 80 34 00
        E 467 90 37 36
        E 0 90 48 36
        E 234 80 44 00
        E 0 80 2f 00
        E 700 80 2e 00
        E 0 80 42 00
        E 1191 80 36 00
        E 1191 80 48 00
        E 2787 90 21 36
        E 0 90 25 36
        E 0 90 42 36
        E 1861 90 31 36
        E 265 80 33 00
        E 0 80 46 00
        E 0 80 37 00
        E 1596 90 36 36
        E 0 90 3d 36
        E 0 90 51 36
        E 264 80 25 00
        E 1596 90 3e 36
        E 0 90 53 36
        E 265 80 21 00
        E 0 80 42 00
        E 0 80 31 00
        E 1596 90 2a 36
        E 0 90 56 36
        E 265 80 3d 00
        E 0 80 51 00
        E 1596 90 28 36
        E 0 90 4f 36
        E 265 80 36 00
        E 0 80 3e 00
        E 1596 90 26 36
        E 264 80 2a 00
        E 0 80 56 00
        E 1230 90 54 34
        E 704 90 29 34
        E 0 90 51 34
        E 703 90 52 34
        E 0 90 56 34
        E 703 90 27 34
        E 16 80 53 00
        E 0 80 26 00
        E 688 90 22 36
        E 0 90 33 36
        E 0 90 37 36
        E 15 80 28 00
        E 703 80 54 00
        E 0 80 51 00
        E 477 90 31 36
        E 0 90 36 36
        E 227 80 29 00
        E 0 80 56 00
        E 703 80 4f 00
        E 0 80 52 00
        E 0 80 27 00
        E 1196 80 37 00
        E 1195 80 31 00
        E 2807 90 28 36
        E 0 90 30 36
        E 0 90 43 36
        E 1868 90 34 36
        E 257 80 22 00
        E 0 80 33 00
        E 0 80 36 00
        E 1612 90 24 36
        E 0 90 37 36
        E 0 90 40 36
        E 257 80 28 00
        E 1611 90 39 36
        E 0 90 41 36
        E 257 80 30 00
        E 0 80 43 00
        E 0 80 34 00
        E 1611 90 35 36
        E 257 80 37 00
        E 0 80 40 00
        E 1611 90 34 36
        E 0 90 37 36
        E 257 80 41 00
        E 1869 80 35 00
        E 1243 90 23 34
        E 706 90 32 34
        E 0 90 36 34
        E 706 90 21 34
        E 0 90 31 34
        E 706 90 28 34
        E 0 90 38 34
        E 7 80 24 00
        E 0 80 39 00
        E 706 80 34 00
        E 0 80 37 00
        E 707 80 23 00
        E 0 80 32 00
        E 487 90 29 36
        E 0 90 3a 36
        E 219 80 36 00
        E 0 80 21 00
        E 1906 80 28 00
        E 1201 80 3a 00
        E 2826 90 3a 36
        E 1876 90 2e 36
        E 0 90 55 36
        E 250 80 38 00
        E 1626 90 27 36
        E 0 90 2a 36
        E 0 90 52 36
        E 250 80 31 00
        E 0 80 3a 00
        E 1626 90 25 36
        E 249 80 29 00
        E 0 80 2e 00
        E 0 80 55 00
        E 1257 90 36 36
        E 0 90 3a 36
        E 619 80 27 00
        E 1507 80 2a 00
        E 0 80 52 00
        E 2846 90 27 36
        E 2125 80 25 00
        E 1642 90 38 36
        E 0 90 3b 36
        E 2125 80 3a 00
        E 1271 90 2f 36
        E 612 80 38 00
        E 1513 80 3b 00
        E 2866 90 35 36
        E 0 90 3e 36
        E 0 90 51 36
        E 1891 90 4a 36
        E 235 80 36 00
        E 0 80 27 00
        E 0 80 2f 00
        E 1656 90 26 36
        E 0 90 45 36
        E 234 80 3e 00
        E 1657 90 37 36
        E 0 90 46 36
        E 234 80 51 00
        E 0 80 4a 00
        E 1657 90 2b 36
        E 0 90 52 36
        E 0 90 56 36
        E 234 80 35 00
        E 0 80 45 00
        E 1656 90 4b 36
        E 0 90 54 36
        E 235 80 26 00
        E 0 80 37 00
        E 0 80 46 00
        E 1891 80 56 00
        E 1284 90 2c 34
        E 715 90 4d 34
        E 0 90 55 34
        E 714 90 2e 34
        E 0 90 4e 34
        E 696 80 2b 00
        E 0 80 52 00
        E 19 90 33 34
        E 0 90 53 34
        E 696 80 4b 00
        E 0 80 54 00
        E 19 90 2a 36
        E 0 90 47 36
        E 0 90 4b 36
        E 696 80 2c 00
        E 0 80 4d 00
        E 519 90 45 36
        E 0 90 4a 36
        E 195 80 55 00
        E 0 80 2e 00
        E 715 80 4e 00
        E 0 80 33 00
        E 0 80 53 00
        E 1215 80 4b 00
        E 1215 80 45 00
        E 2887 90 45 36
        E 1898 90 51 36
        E 227 80 47 00
        E 1671 90 28 36
        E 0 90 49 36
        E 227 80 45 00
        E 1899 80 4a 00
        E 1298 90 55 36
        E 600 80 28 00
        E 1525 80 49 00
        E 2907 90 28 36
        E 1906 90 45 36
        E 0 90 49 36
        E 219 80 2a 00
        E 1687 90 44 36
        E 0 90 47 36
        E 219 80 51 00
        E 0 80 55 00
        E 1906 80 45 00
        E 1312 90 2c 36
        E 0 90 4c 36
        E 594 80 47 00
        E 1531 80 28 00
        E 0 80 44 00
        E 2927 90 22 36
        E 0 90 35 36
        E 0 90 3e 36
        E 1914 90 4a 36
        E 211 80 49 00
        E 0 80 2c 00
        E 0 80 4c 00
        E 1702 90 29 36
        E 0 90 52 36
        E 0 90 56 36
        E 212 80 3e 00
        E 1702 90 27 36
        E 0 90 4f 36
        E 212 80 22 00
        E 0 80 35 00
        E 0 80 4a 00
        E 1702 90 2b 36
        E 0 90 2e 36
        E 0 90 4b 36
        E 211 80 29 00
        E 0 80 56 00
        E 1702 90 29 36
        E 0 90 4a 36
        E 212 80 52 00
        E 0 80 27 00
        E 0 80 4f 00
        E 1914 80 4b 00
        E 1325 90 2d 34
        E 723 90 28 34
        E 0 90 48 34
        E 724 90 47 34
        E 678 80 2e 00
        E 45 90 26 34
        E 0 90 2a 34
        E 679 80 29 00
        E 0 80 4a 00
        E 44 90 23 36
        E 0 90 4a 36
        E 679 80 2d 00
        E 0 80 48 00
        E 551 90 2c 36
        E 0 90 4b 36
        E 172 80 2b 00
        E 0 80 28 00
        E 724 80 47 00
        E 0 80 26 00
        E 1229 80 4a 00
        E 1230 80 2c 00
        E 2947 90 32 36
        E 0 90 35 36
        E 0 90 45 36
        E 1922 90 3e 36
        E 204 80 2a 00
        E 0 80 23 00
        E 0 80 4b 00
        E 1717 90 29 36
        E 0 90 39 36
        E 0 90 56 36
        E 204 80 32 00
        E 1717 90 2b 36
        E 0 90 3a 36
        E 204 80 35 00
        E 0 80 45 00
        E 0 80 3e 00
        E 1718 90 46 36
        E 0 90 4a 36
        E 204 80 29 00
        E 0 80 39 00
        E 1717 90 48 36
        E 0 90 4b 36
        E 204 80 56 00
        E 0 80 3a 00
        E 1922 80 4a 00
        E 1339 90 2c 34
        E 726 90 49 34
        E 0 90 4d 34
        E 726 90 2e 34
        E 0 90 4e 34
        E 673 80 2b 00
        E 0 80 46 00
        E 54 90 2f 34
        E 672 80 48 00
        E 54 90 2a 36
        E 0 90 3b 36
        E 0 90 3f 36
        E 673 80 2c 00
        E 0 80 4d 00
        E 561 90 39 36
        E 0 90 3e 36
        E 165 80 49 00
        E 0 80 2e 00
        E 726 80 4b 00
        E 0 80 4e 00
        E 0 80 2f 00
        E 1235 80 3f 00
        E 1234 80 39 00
        E 2968 90 39 36
        E 1929 90 45 36
        E 196 80 3b 00
        E 1733 90 28 36
        E 0 90 3d 36
        E 196 80 39 00
        E 1929 80 3e 00
        E 1354 90 49 36
        E 576 80 28 00
        E 1549 80 3d 00
        E 2988 90 28 36
        E 1937 90 39 36
        E 0 90 3d 36
        E 188 80 2a 00
        E 1749 90 38 36
        E 0 90 3b 36
        E 188 80 45 00
        E 0 80 49 00
        E 1937 80 39 00
        E 1367 90 2c 36
        E 0 90 40 36
        E 570 80 3b 00
        E 1556 80 28 00
        E 0 80 38 00
        E 3008 90 26 36
        E 0 90 35 36
        E 0 90 52 36
        E 1945 90 32 36
        E 180 80 3d 00
        E 0 80 2c 00
        E 0 80 40 00
        E 1764 90 29 36
        E 0 90 46 36
        E 0 90 4a 36
        E 181 80 26 00
        E 1764 90 2b 36
        E 0 90 4b 36
        E 181 80 35 00
        E 0 80 52 00
        E 0 80 32 00
        E 1764 90 22 36
        E 0 90 3f 36
        E 180 80 29 00
        E 0 80 4a 00
        E 1764 90 29 36
        E 0 90 3e 36
        E 181 80 46 00
        E 0 80 4b 00
        E 1944 80 3f 00
        E 1382 90 21 34
        E 735 90 28 34
        E 0 90 3c 34
        E 735 90 23 34
        E 0 90 37 34
        E 655 80 2b 00
        E 0 80 22 00
        E 80 90 26 34
        E 0 90 36 34
        E 655 80 29 00
        E 0 80 3e 00
        E 80 90 2a 36
        E 0 90 32 36
        E 0 90 53 36
        E 655 80 21 00
        E 0 80 3c 00
        E 594 90 2c 36
        E 0 90 33 36
        E 141 80 28 00
        E 0 80 37 00
        E 735 80 23 00
        E 0 80 26 00
        E 0 80 36 00
        E 1250 80 32 00
        E 1249 80 2c 00
        E 3029 90 2c 36
        E 1953 90 23 36
        E 0 90 4b 36
        E 173 80 2a 00
        E 1779 90 25 36
        E 0 90 4c 36
        E 173 80 53 00
        E 0 80 33 00
        E 1953 80 4b 00
        E 1395 90 40 36
        E 557 80 25 00
        E 1568 80 4c 00
        E 3050 90 25 36
        E 1960 90 34 36
        E 0 90 55 36
        E 165 80 23 00
        E 1796 90 2d 36
        E 0 90 36 36
        E 165 80 40 00
        E 0 80 25 00
        E 1960 80 2c 00
        E 1409 90 28 36
        E 0 90 31 36
        E 0 90 51 36
        E 551 80 36 00
        E 1575 80 34 00
        E 0 80 55 00
        E 0 80 2d 00
        E 3070 91 32 33
        E 0 92 2a 33
        E 292 90 53 33
        E 0 92 2b 33
        E 159 80 51 00
        E 0 82 2a 00
        E 133 90 54 33
        E 0 91 34 33
        E 159 81 32 00
        E 0 80 53 00
        E 132 91 35 33
        E 0 92 2d 33
        E 160 82 2b 00
        E 0 81 34 00
        E 1091 80 28 00
        E 0 80 31 00
        E 1443 91 33 33
        E 0 92 2c 33
        E 2126 82 2d 00
        E 1107 90 53 34
        E 0 92 2a 34
        E 908 91 3f 34
        E 309 81 35 00
        E 908 80 54 00
        E 400 90 51 36
        E 0 91 3e 36
        E 508 81 33 00
        E 202 90 47 36
        E 0 91 32 36
        E 706 82 2c 00
        E 3 90 45 3b
        E 554 91 30 3b
        E 0 92 29 3b
        E 153 80 53 00
        E 0 81 3f 00
        E 709 81 3e 00
        E 670 91 38 3b
        E 0 92 27 3b
        E 422 90 3b 3b
        E 0 92 33 3b
        E 172 82 2a 00
        E 251 90 53 3b
        E 0 91 4b 3b
        E 0 92 2c 3b
        E 303 80 45 00
        E 0 81 30 00
        E 120 91 4c 3b
        E 338 90 34 3b
        E 0 91 2f 3b
        E 519 80 51 00
        E 0 81 32 00
        E 0 82 29 00
        E 423 80 47 00
        E 0 82 27 00
        E 243 90 5e 36
        E 0 91 4a 36
        E 0 92 29 36
        E 180 81 38 00
        E 0 80 3b 00
        E 0 82 33 00
        E 336 90 56 36
        E 0 91 52 36
        E 86 81 4b 00
        E 339 80 53 00
        E 0 81 4c 00
        E 92 90 3e 36
        E 0 91 29 36
        E 0 92 22 36
        E 516 90 3c 36
        E 0 91 2b 36
        E 0 92 27 36
        E 516 90 48 36
        E 61 82 2c 00
        E 0 80 34 00
        E 0 81 2f 00
        E 455 91 2c 36
        E 61 80 5e 00
        E 0 81 4a 00
        E 516 80 56 00
        E 0 81 52 00
        E 354 90 54 36
        E 0 91 33 36
        E 0 92 2c 36
        E 162 80 3e 00
        E 0 81 29 00
        E 0 82 22 00
        E 516 80 3c 00
        E 516 81 2b 00
        E 174 90 4a 36
        E 0 91 3b 36
        E 0 92 2a 36
        E 343 82 29 00
        E 71 90 56 36
        E 0 91 2f 36
        E 343 82 27 00
        E 0 80 48 00
        E 0 81 2c 00
        E 72 90 47 36
        E 0 91 32 36
        E 415 91 34 36
        E 0 92 2b 36
        E 414 90 2f 36
        E 0 91 2b 36
        E 0 92 28 36
        E 415 92 26 3b
        E 52 80 54 00
        E 0 81 33 00
        E 0 82 2c 00
        E 362 90 2e 3b
        E 0 91 29 3b
        E 53 80 4a 00
        E 0 81 3b 00
        E 362 90 32 3b
        E 0 91 2e 3b
        E 52 80 56 00
        E 0 81 2f 00
        E 415 82 2a 00
        E 0 81 32 00
        E 264 90 61 3b
        E 0 91 40 3b
        E 0 92 2c 3b
        E 151 80 47 00
        E 0 81 34 00
        E 165 90 55 3b
        E 0 91 4c 3b
        E 249 82 28 00
        E 68 90 34 3b
        E 0 91 2c 3b
        E 0 92 25 3b
        E 316 91 2d 3b
        E 31 80 2f 00
        E 0 81 2b 00
        E 222 91 45 3b
        E 0 92 34 3b
        E 192 82 26 00
        E 0 80 2e 00
        E 0 81 29 00
        E 731 82 2b 00
        E 0 80 32 00
        E 0 81 2e 00
        E 317 80 61 00
        E 0 81 40 00
        E 249 90 46 34
        E 0 91 3f 34
        E 0 92 2b 34
        E 67 82 2c 00
        E 0 81 4c 00
        E 316 81 2c 00
        E 221 90 4b 34
        E 0 91 3a 34
        E 32 80 34 00
        E 0 82 25 00
        E 0 81 2d 00
        E 571 90 52 34
        E 0 91 2b 34
        E 0 92 27 34
        E 603 90 5f 34
        E 0 91 32 34
        E 0 92 2a 34
        E 316 80 55 00
        E 0 81 45 00
        E 0 82 34 00
        E 288 90 53 34
        E 0 91 3e 34
        E 315 80 46 00
        E 0 81 3f 00
        E 288 90 2a 34
        E 0 91 26 34
        E 0 92 23 34
        E 315 82 2b 00
        E 0 80 4b 00
        E 0 81 3a 00
        E 288 90 2b 34
        E 0 91 28 34
        E 316 80 52 00
        E 0 81 2b 00
        E 0 82 27 00
        E 288 90 58 34
        E 0 91 53 34
        E 0 92 37 34
        E 315 80 5f 00
        E 0 81 32 00
        E 288 91 54 34
        E 0 92 39 34
        E 315 82 2a 00
        E 0 80 53 00
        E 0 81 3e 00
        E 604 80 2a 00
        E 0 81 26 00
        E 169 90 59 33
        E 228 91 56 33
        E 0 92 3a 33
        E 206 82 23 00
        E 0 80 2b 00
        E 0 81 28 00
        E 22 90 5b 33
        E 0 91 57 33
        E 228 90 5c 33
        E 0 92 3c 33
        E 228 90 54 34
        E 0 91 44 34
        E 0 92 27 34
        E 125 81 53 00
        E 263 90 53 34
        E 0 91 42 34
        E 825 80 58 00
        E 0 82 37 00
        E 228 81 54 00
        E 0 82 39 00
        E 228 80 59 00
        E 0 81 56 00
        E 228 82 3a 00
        E 0 80 5b 00
        E 228 81 57 00
        E 0 80 5c 00
        E 0 82 3c 00
        E 388 80 54 00
        E 467 90 57 34
        E 0 91 47 34
        E 0 92 36 34
        E 606 90 55 34
        E 0 91 46 34
        E 914 81 44 00
        E 178 91 52 34
        E 427 82 27 00
        E 0 80 53 00
        E 0 81 42 00
        E 606 81 47 00
        E 1092 81 46 00
        E 697 91 50 34
        E 0 92 35 34
        E 909 80 57 00
        E 188 90 49 34
        E 0 91 46 34
        E 1028 82 36 00
        E 584 90 47 34
        E 0 91 3e 34
        E 0 92 2b 34
        E 24 81 50 00
        E 464 90 4a 34
        E 0 91 3b 34
        E 25 80 55 00
        E 0 81 52 00
        E 464 90 62 34
        E 0 91 53 34
        E 0 92 37 34
        E 488 90 60 34
        E 0 91 58 34
        E 488 90 58 34
        E 0 91 37 34
        E 0 92 24 34
        E 172 82 35 00
        E 0 80 49 00
        E 0 81 46 00
        E 317 91 39 36
        E 171 80 47 00
        E 0 81 3e 00
        E 317 90 5a 36
        E 0 92 25 36
        E 172 82 2b 00
        E 0 80 4a 00
        E 0 81 3b 00
        E 317 90 49 36
        E 0 91 34 36
        E 0 92 21 36
        E 171 80 62 00
        E 0 81 53 00
        E 317 91 36 3b
        E 172 82 37 00
        E 0 80 60 00
        E 0 81 58 00
        E 210 90 4b 3b
        E 0 92 22 3b
        E 278 81 37 00
        E 104 90 55 3b
        E 0 92 2e 3b
        E 385 80 58 00
        E 0 82 24 00
        E 287 90 60 3b
        E 0 91 2b 3b
        E 0 92 28 3b
        E 201 81 39 00
        E 0 80 5a 00
        E 0 82 25 00
        E 91 90 54 3b
        E 0 92 2b 3b
        E 291 90 43 3b
        E 0 91 28 3b
        E 0 92 24 3b
        E 291 90 45 3b
        E 0 91 29 3b
        E 0 92 26 3b
        E 197 80 49 00
        E 0 82 21 00
        E 36 90 51 3b
        E 0 91 3e 3b
        E 0 92 35 3b
        E 346 80 4b 00
        E 0 82 22 00
        E 470 90 47 36
        E 0 91 33 36
        E 0 92 2c 36
        E 203 81 36 00
        E 0 80 55 00
        E 0 82 2e 00
        E 152 90 3f 36
        E 0 91 3b 36
        E 139 80 60 00
        E 0 81 2b 00
        E 0 82 28 00
        E 216 90 53 36
        E 0 91 44 36
        E 0 92 27 36
        E 75 81 34 00
        E 0 80 54 00
        E 0 82 2b 00
        E 281 92 28 36
        E 10 80 43 00
        E 0 81 28 00
        E 0 82 24 00
        E 233 80 45 00
        E 0 81 29 00
        E 0 82 26 00
        E 112 90 4c 36
        E 0 91 38 36
        E 0 92 2f 36
        E 356 90 4b 36
        E 0 91 36 36
        E 348 80 51 00
        E 0 81 3e 00
        E 0 82 35 00
        E 293 90 57 36
        E 62 80 47 00
        E 0 81 33 00
        E 356 82 2c 00
        E 0 80 3f 00
        E 0 81 3b 00
        E 355 82 27 00
        E 169 90 41 36
        E 0 91 24 36
        E 0 92 21 36
        E 187 80 53 00
        E 0 81 44 00
        E 0 82 28 00
        E 98 90 5d 36
        E 0 91 30 36
        E 0 92 29 36
        E 257 80 4c 00
        E 29 90 54 36
        E 0 91 35 36
        E 0 92 2d 36
        E 285 90 56 36
        E 0 92 2e 36
        E 41 81 36 00
        E 245 90 46 36
        E 0 92 32 36
        E 41 80 4b 00
        E 244 91 37 3b
        E 286 90 47 3b
        E 0 92 34 3b
        E 285 90 53 3b
        E 0 91 3e 3b
        E 0 92 37 3b
        E 127 81 38 00
        E 0 82 2f 00
        E 0 80 57 00
        E 286 80 41 00
        E 0 81 24 00
        E 0 82 21 00
        E 90 90 44 3b
        E 0 91 3d 3b
        E 195 80 5d 00
        E 0 81 30 00
        E 23 90 31 3b
        E 0 91 2c 3b
        E 218 90 4d 3b
        E 0 91 49 3b
        E 0 92 38 3b
        E 44 80 54 00
        E 0 82 2d 00
        E 174 90 4e 3b
        E 0 91 4b 3b
        E 0 92 3a 3b
        E 112 80 56 00
        E 0 82 2e 00
        E 62 90 3f 3b
        E 0 91 36 3b
        E 0 92 2e 3b
        E 223 81 35 00
        E 286 80 46 00
        E 0 82 32 00
        E 285 81 37 00
        E 0 80 47 00
        E 0 82 34 00
        E 504 80 53 00
        E 0 81 3e 00
        E 0 82 37 00
        E 217 80 44 00
        E 0 81 3d 00
        E 160 90 5d 33
        E 0 91 48 33
        E 0 92 34 33
        E 58 82 29 00
        E 0 80 31 00
        E 0 81 2c 00
        E 218 80 4d 00
        E 0 81 49 00
        E 0 82 38 00
        E 174 80 4e 00
        E 0 81 4b 00
        E 0 82 3a 00
        E 199 90 54 33
        E 0 91 51 33
        E 649 90 3c 33
        E 0 91 34 33
        E 0 92 21 33
        E 649 90 57 33
        E 0 91 3b 33
        E 0 92 36 33
        E 178 80 3f 00
        E 0 81 36 00
        E 0 82 2e 00
        E 471 90 42 33
        E 0 91 2f 33
        E 0 92 27 33
        E 178 80 5d 00
        E 0 81 48 00
        E 471 90 47 33
        E 0 91 3f 33
        E 178 82 34 00
        E 0 80 54 00
        E 0 81 51 00
        E 471 91 40 33
        E 0 92 38 33
        E 178 80 3c 00
        E 0 81 34 00
        E 0 82 21 00
        E 471 90 38 33
        E 0 91 34 33
        E 0 92 2f 33
        E 178 80 57 00
        E 0 81 3b 00
        E 472 90 36 33
        E 0 91 33 33
        E 178 80 42 00
        E 0 81 2f 00
        E 0 82 27 00
        E 649 82 36 00
        E 0 81 3f 00
        E 343 92 2e 32
        E 245 90 35 32
        E 0 91 31 32
        E 61 80 47 00
        E 0 81 40 00
        E 0 82 38 00
        E 185 91 30 32
        E 0 92 2c 32
        E 245 90 33 32
        E 0 92 2b 32
        E 219 81 34 00
        E 26 90 37 33
        E 0 92 24 33
        E 417 90 39 33
        E 0 91 34 33
        E 727 80 38 00
        E 0 82 2f 00
        E 246 80 36 00
        E 245 82 2e 00
        E 0 81 31 00
        E 245 80 35 00
        E 0 82 2c 00
        E 246 81 30 00
        E 0 80 33 00
        E 0 82 2b 00
        E 417 81 33 00
        E 12 90 57 33
        E 0 91 36 33
        E 0 92 22 33
        E 405 80 39 00
        E 247 90 5e 33
        E 0 91 57 33
        E 0 92 36 33
        E 651 90 3f 33
        E 0 92 2e 33
        E 652 91 38 33
        E 0 92 2f 33
        E 170 80 37 00
        E 0 82 24 00
        E 0 81 34 00
        E 482 90 53 33
        E 0 92 33 33
        E 170 80 57 00
        E 0 82 22 00
        E 482 90 55 33
        E 0 92 34 33
        E 170 80 5e 00
        E 0 81 57 00
        E 0 82 36 00
        E 651 81 36 00
        E 0 82 2e 00
        E 354 91 39 32
        E 246 90 56 32
        E 0 92 36 32
        E 52 80 3f 00
        E 0 82 2f 00
        E 194 91 3b 32
        E 0 92 37 32
        E 247 90 58 32
        E 0 91 3c 32
        E 211 82 33 00
        E 35 90 48 33
        E 0 91 37 33
        E 0 92 28 33
        E 419 90 46 33
        E 0 92 27 33
        E 721 81 38 00
        E 0 80 53 00
        E 246 80 55 00
        E 0 82 34 00
        E 247 81 39 00
        E 0 82 36 00
        E 246 80 56 00
        E 0 81 3b 00
        E 246 82 37 00
        E 0 80 58 00
        E 0 81 3c 00
        E 419 82 28 00
        E 675 90 52 33
        E 655 91 35 33
        E 0 92 26 33
        E 816 80 48 00
        E 655 80 46 00
        E 654 82 27 00
        E 654 81 35 00
        E 135 91 35 33
        E 657 90 62 33
        E 0 91 46 33
        E 0 92 29 33
        E 657 90 60 33
        E 0 91 45 33
        E 811 81 37 00
        E 373 91 51 33
        E 284 80 52 00
        E 0 82 26 00
        E 0 81 35 00
        E 657 81 46 00
        E 657 80 60 00
        E 144 90 4b 33
        E 0 91 3b 33
        E 0 92 36 33
        E 384 81 45 00
        E 275 90 57 33
        E 0 91 36 33
        E 0 92 2f 33
        E 660 90 47 33
        E 0 92 33 33
        E 659 91 38 33
        E 0 92 34 33
        E 147 80 62 00
        E 0 82 29 00
        E 0 81 51 00
        E 513 90 38 33
        E 0 91 2f 33
        E 0 92 28 33
        E 147 80 4b 00
        E 0 81 3b 00
        E 0 82 36 00
        E 513 90 36 33
        E 0 92 27 33
        E 146 80 57 00
        E 0 82 2f 00
        E 660 81 36 00
        E 0 82 33 00
        E 383 91 2e 32
        E 249 90 35 32
        E 0 92 25 32
        E 27 80 47 00
        E 0 81 38 00
        E 0 82 34 00
        E 223 91 2c 32
        E 0 92 24 32
        E 249 90 33 32
        E 0 91 2b 32
        E 188 82 28 00
        E 61 90 37 33
        E 0 91 27 33
        E 424 90 39 33
        E 0 91 28 33
        E 704 80 38 00
        E 0 81 2f 00
        E 250 80 36 00
        E 0 82 27 00
        E 249 81 2e 00
        E 0 82 25 00
        E 249 80 35 00
        E 0 81 2c 00
        E 250 80 33 00
        E 0 81 2b 00
        E 423 81 27 00
        E 709 90 60 33
        E 0 92 21 33
        E 663 90 62 33
        E 0 91 29 33
        E 801 80 37 00
        E 393 90 35 33
        E 0 91 2d 33
        E 269 80 39 00
        E 662 81 28 00
        E 662 80 62 00
        E 162 92 26 33
        E 370 80 60 00
        E 0 82 21 00
        E 0 81 29 00
        E 295 90 62 33
        E 0 92 29 33
        E 665 91 2e 33
        E 0 92 2b 33
        E 795 82 24 00
        E 404 91 29 33
        E 0 92 22 33
        E 261 80 35 00
        E 0 82 26 00
        E 665 81 2d 00
        E 665 82 2b 00
        E 171 90 61 33
        E 0 91 40 33
        E 0 92 38 33
        E 363 82 29 00
        E 0 81 2e 00
        E 171 90 55 33
        E 0 91 4c 33
        E 534 90 38 33
        E 0 91 34 33
        E 0 92 25 33
        E 534 90 39 33
        E 0 91 36 33
        E 524 80 62 00
        E 0 81 29 00
        E 0 82 22 00
        E 10 91 51 33
        E 0 92 2a 33
        E 524 81 40 00
        E 11 92 28 34
        E 523 82 38 00
        E 0 80 55 00
        E 0 81 4c 00
        E 11 90 60 34
        E 0 91 4f 34
        E 523 80 38 00
        E 0 81 34 00
        E 11 90 54 34
        E 0 91 45 34
        E 523 82 25 00
        E 0 80 39 00
        E 0 81 36 00
        E 11 91 43 36
        E 417 90 52 36
        E 0 92 27 36
        E 106 82 2a 00
        E 311 90 57 36
        E 0 91 48 36
        E 0 92 2b 36
        E 223 80 61 00
        E 0 81 51 00
        E 194 91 46 3b
        E 326 90 55 3b
        E 0 92 2a 3b
        E 14 80 60 00
        E 0 81 4f 00
        E 312 91 52 3b
        E 222 81 45 00
        E 353 90 39 3b
        E 0 91 34 3b
        E 0 92 30 3b
        E 64 82 28 00
        E 0 80 54 00
        E 185 90 3c 3b
        E 0 92 2d 3b
        E 232 81 43 00
        E 0 80 52 00
        E 0 82 27 00
        E 16 90 60 3b
        E 0 91 45 3b
        E 0 92 28 3b
        E 249 92 29 3b
        E 153 81 48 00
        E 46 91 2d 3b
        E 280 82 2b 00
        E 326 81 46 00
        E 0 80 55 00
        E 91 90 5f 36
        E 0 91 36 36
        E 0 92 33 36
        E 303 90 53 36
        E 0 91 3f 36
        E 0 92 36 36
        E 180 80 57 00
        E 0 82 2a 00
        E 0 81 52 00
        E 124 90 36 36
        E 0 91 27 36
        E 0 92 23 36
        E 125 80 39 00
        E 0 82 30 00
        E 178 90 38 36
        E 0 91 28 36
        E 0 92 25 36
        E 71 81 34 00
        E 0 80 3c 00
        E 0 82 2d 00
        E 233 90 4c 36
        E 0 91 49 36
        E 0 92 2c 36
        E 15 82 28 00
        E 199 81 45 00
        E 90 90 4e 36
        E 0 92 2d 36
        E 547 90 49 36
        E 0 91 45 36
        E 0 92 28 36
        E 60 80 60 00
        E 0 82 29 00
        E 0 81 2d 00
        E 304 80 5f 00
        E 0 81 36 00
        E 0 82 33 00
        E 303 80 53 00
        E 0 81 3f 00
        E 0 82 36 00
        E 138 90 3c 36
        E 0 91 37 36
        E 0 92 33 36
        E 166 80 36 00
        E 0 81 27 00
        E 0 82 23 00
        E 78 90 3f 36
        E 0 92 30 36
        E 225 80 38 00
        E 0 81 28 00
        E 0 82 25 00
        E 18 90 57 36
        E 0 91 48 36
        E 0 92 2b 36
        E 244 90 59 36
        E 244 90 4d 36
        E 0 91 30 36
        E 102 80 4e 00
        E 142 90 4b 3b
        E 101 80 4c 00
        E 0 81 49 00
        E 0 82 2d 00
        E 143 91 2f 3b
        E 0 92 2a 3b
        E 662 80 49 00
        E 0 81 45 00
        E 0 82 28 00
        E 11 90 35 3b
        E 0 91 26 3b
        E 0 92 21 3b
        E 186 90 5d 3b
        E 0 91 35 3b
        E 0 92 26 3b
        E 47 80 3c 00
        E 0 82 33 00
        E 139 90 56 3b
        E 0 91 2d 3b
        E 0 92 29 3b
        E 105 81 37 00
        E 0 80 3f 00
        E 0 82 30 00
        E 81 91 2e 3b
        E 149 90 46 3b
        E 0 91 3e 3b
        E 13 82 2b 00
        E 244 81 48 00
        E 0 80 59 00
        E 244 80 4d 00
        E 244 81 30 00
        E 131 90 47 34
        E 0 91 38 34
        E 0 92 28 34
        E 113 80 4b 00
        E 0 82 2a 00
        E 242 90 3b 34
        E 0 92 34 34
        E 188 82 2c 00
        E 0 80 57 00
        E 0 81 2f 00
        E 167 90 53 34
        E 0 91 4c 34
        E 0 92 2c 34
        E 19 80 35 00
        E 0 81 26 00
        E 0 82 21 00
        E 186 80 5d 00
        E 0 81 35 00
        E 0 82 26 00
        E 150 90 60 34
        E 0 91 57 34
        E 0 92 2b 34
        E 36 81 2d 00
        E 149 80 56 00
        E 0 81 2e 00
        E 170 90 54 34
        E 0 91 37 34
        E 0 92 27 34
        E 354 90 4b 34
        E 0 91 2b 34
        E 0 92 24 34
        E 352 82 29 00
        E 0 80 46 00
        E 0 81 3e 00
        E 3 90 4d 34
        E 0 91 2c 34
        E 352 80 47 00
        E 0 82 28 00
        E 3 91 35 34
        E 351 81 38 00
        E 0 80 3b 00
        E 0 82 34 00
        E 4 90 55 34
        E 0 92 2e 34
        E 351 80 53 00
        E 0 81 4c 00
        E 289 91 36 33
        E 66 80 60 00
        E 0 81 57 00
        E 0 82 2b 00
        E 68 90 57 33
        E 0 92 2f 33
        E 134 90 58 33
        E 0 91 38 33
        E 134 91 39 33
        E 0 92 31 33
        E 19 81 37 00
        E 0 82 27 00
        E 115 90 45 34
        E 0 91 31 34
        E 0 92 28 34
        E 228 90 43 34
        E 0 91 30 34
        E 12 80 4b 00
        E 0 81 2b 00
        E 354 82 24 00
        E 0 80 4d 00
        E 0 81 2c 00
        E 355 80 54 00
        E 640 82 2c 00
        E 0 81 35 00
        E 134 80 55 00
        E 0 82 2e 00
        E 30 90 48 34
        E 0 91 34 34
        E 0 92 2b 34
        E 104 81 36 00
        E 0 80 57 00
        E 134 82 2f 00
        E 0 81 38 00
        E 118 90 47 34
        E 0 91 32 34
        E 17 80 58 00
        E 0 81 39 00
        E 0 82 31 00
        E 228 81 31 00
        E 398 90 53 34
        E 770 80 45 00
        E 356 82 28 00
        E 0 80 43 00
        E 0 81 30 00
        E 176 91 3e 34
        E 181 80 48 00
        E 176 90 51 34
        E 0 92 2a 34
        E 466 80 47 00
        E 179 90 47 34
        E 765 81 34 00
        E 183 90 48 34
        E 0 91 38 34
        E 0 92 27 34
        E 288 90 3c 34
        E 0 92 33 34
        E 245 82 2b 00
        E 42 90 54 34
        E 0 91 4b 34
        E 0 92 2c 34
        E 287 90 55 34
        E 0 91 4d 34
        E 28 80 51 00
        E 260 90 35 34
        E 0 91 2c 34
        E 0 92 25 34
        E 28 80 53 00
        E 0 81 3e 00
        E 259 91 2e 36
        E 287 90 37 36
        E 0 92 26 36
        E 287 90 32 36
        E 0 91 29 36
        E 0 92 22 36
        E 115 81 32 00
        E 0 82 2a 00
        E 0 80 47 00
        E 173 91 2b 3b
        E 114 80 48 00
        E 0 82 27 00
        E 110 90 34 3b
        E 0 92 23 3b
        E 177 81 38 00
        E 0 80 3c 00
        E 0 82 33 00
        E 48 90 3e 3b
        E 0 91 2f 3b
        E 0 92 2b 3b
        E 240 80 54 00
        E 0 81 4b 00
        E 155 90 61 3b
        E 132 80 55 00
        E 40 90 59 3b
        E 0 91 55 3b
        E 171 90 41 3b
        E 171 90 3f 3b
        E 0 91 2a 3b
        E 137 90 52 3b
        E 0 92 27 3b
        E 55 80 35 00
        E 288 81 2e 00
        E 0 80 37 00
        E 0 82 26 00
        E 137 90 48 36
        E 0 91 39 36
        E 0 92 28 36
        E 150 81 29 00
        E 59 90 54 36
        E 0 91 2d 36
        E 165 80 32 00
        E 44 90 45 36
        E 0 91 30 36
        E 181 81 2b 00
        E 0 80 34 00
        E 0 82 23 00
        E 28 92 29 36
        E 209 90 30 36
        E 159 80 3e 00
        E 0 81 2f 00
        E 0 82 2b 00
        E 50 91 2b 36
        E 121 81 4d 00
        E 0 80 61 00
        E 171 82 2c 00
        E 0 80 59 00
        E 0 81 55 00
        E 85 90 28 36
        E 0 91 24 36
        E 0 92 21 36
        E 86 81 2c 00
        E 0 82 25 00
        E 0 80 41 00
        E 137 82 22 00
        E 0 80 3f 00
        E 331 90 55 36
        E 0 92 22 36
        E 149 80 52 00
        E 0 82 27 00
        E 19 90 5e 36
        E 0 91 55 36
        E 0 92 2a 36
        E 168 90 3d 36
        E 0 91 2e 36
        E 22 80 48 00
        E 0 81 39 00
        E 146 90 3f 36
        E 0 91 2f 36
        E 63 80 54 00
        E 105 90 47 36
        E 0 91 42 36
        E 0 92 27 36
        E 167 91 44 3b
        E 146 80 45 00
        E 0 81 30 00
        E 22 90 48 3b
        E 168 90 54 3b
        E 0 92 33 3b
        E 228 81 2b 00
        E 68 90 45 3b
        E 0 91 3e 3b
        E 100 82 28 00
        E 0 81 2d 00
        E 0 80 30 00
        E 28 90 4a 3b
        E 0 91 39 3b
        E 128 90 51 3b
        E 0 92 26 3b
        E 129 90 53 3b
        E 0 91 2b 3b
        E 0 92 28 3b
        E 102 90 43 3b
        E 167 80 28 00
        E 0 81 24 00
        E 0 82 21 00
        E 168 80 55 00
        E 0 82 22 00
        E 168 80 5e 00
        E 0 81 55 00
        E 168 80 3d 00
        E 0 81 2e 00
        E 168 80 3f 00
        E 168 81 42 00
        E 168 80 47 00
        E 0 82 27 00
        E 168 82 29 00
        E 0 80 48 00
        E 239 90 42 32
        E 57 81 44 00
        E 0 80 54 00
        E 0 82 33 00
        E 128 80 45 00
        E 0 81 3e 00
        E 95 91 2d 32
        E 0 92 25 32
        E 33 82 2a 00
        E 0 80 4a 00
        E 0 81 39 00
        E 128 81 2a 00
        E 0 80 51 00
        E 102 80 53 00
        E 0 81 2b 00
        E 18 90 40 32
        E 0 91 2c 32
        E 281 90 3f 32
        E 0 92 23 32
        E 280 91 2a 32
        E 0 92 22 32
        E 281 90 3d 32
        E 0 91 29 32
        E 722 82 28 00
        E 0 80 43 00
        E 281 81 2f 00
        E 0 82 26 00
        E 280 80 42 00
        E 0 81 2d 00
        E 281 82 25 00
        E 0 80 40 00
        E 281 81 2c 00
        E 0 82 23 00
        E 280 80 3f 00
        E 0 81 2a 00
        E 2667 82 22 00
        E 0 80 3d 00
        E 0 81 29 00
        E 0 b0 7b 00
        CCINTERP 32
        CHASE_CC_TAKEOFFS 1
        GUID {67FF2DB4-F974-614A-B1FF-C5AEDAE9D341}
        IGNTEMPO 0 120 4 4
        SRCCOLOR 25
        VELLANE -1 100 0 0 1
      >
    >
  >
  <TRACK {AA654F10-A467-8D45-86CE-3EA1A1F64A2B}
    NAME "Pianoteq 8"
    PEAKCOL 16576
    BEAT -1
    AUTOMODE 0
    PANLAWFLAGS 3
    VOLPAN 0.48404242685333 -1 -1 -1 1
    MUTESOLO 0 0 0
    IPHASE 0
    PLAYOFFS 0 1
    ISBUS 0 0
    BUSCOMP 0 0 0 0 0
    SHOWINMIX 1 0.6667 0.5 1 0.5 0 0 0
    FIXEDLANES 9 0 0 0 0
    SEL 0
    REC 1 5088 1 0 0 0 0 0
    MIDI_INPUT_CHANMAP 1
    VU 2
    TRACKHEIGHT 0 0 0 0 0 0 0
    INQ 0 0 0 0.5 100 0 0 100
    NCHAN 2
    FX 1
    TRACKID {AA654F10-A467-8D45-86CE-3EA1A1F64A2B}
    PERF 0
    AUXRECV 0 0 1 0 0 0 0 0 0 -1:U 66 -1 ''
    MIDIOUT -1
    MAINSEND 1 0
    <FXCHAIN
      WNDRECT 32 136 807 690
      SHOW 0
      LASTSEL 0
      DOCKED 0
      BYPASS 0 0 0
      <VST "VST3i: Pianoteq 8 (Modartt) (1->5ch)" "Pianoteq 8.vst3" 0 "" 1031062328{565354507438717069616E6F74657120} ""
        OMN0Pe5e7f4CAAAAAQAAAAAAAAACAAAAAAAAAAUAAAABAAAAAAAAAAIAAAAAAAAABAAAAAAAAAAIAAAAAAAAABAAAAAAAAAA3RYAAAEAAAD//xAA
        zRYAAAEAAABWc3RXAAAACAAAAAEAAAAAQ2NuSwAAFrVGQkNoAAAAAlB0OHEACAQBAAAAAAAAAAAAAAAAAAAAAAAAAAAAAAAAAAAAAAAAAAAAAAAAAAAAAAAAAAAAAAAA
        AAAAAAAAAAAAAAAAAAAAAAAAAAAAAAAAAAAAAAAAAAAAAAAAAAAAAAAAAAAAAAAAAAAAAAAAAAAAAAAAAAAAAAAAAAAAAAAAAAAAAAAAAAAAAAAAAAAWHaCYE/4CAAAA
        SDgSANEVAAABAAAAEThWOMUVAABQclZLKQAAAlhGVFC1FQAACgAAADIwMjUvMDMvMTMXAAAAUGlhbm90ZXEgOC40LjEvMjAyNTAyMDS2i7kf6xvTKbl5wjoHCac8ZGxs
        YXQVAAB0ZHRNhgcAAA8AAABDUC04MCBSZWNvcmRpbmcAAAAABwAAAE1vZGFydHReAAAAVGhlIENQLTgwIHJlYWR5IGZvciByZWNvcmRpbmc6IGEgdG91Y2ggb2YgdHJl
        bW9sbywgYW1wLCBjb21wcmVzc29yIGFuZCBhdWdtZW50ZWQgc3RlcmVvIHdpZHRoLgAAAABEAQAADwAAAENQLTgwIFJlY29yZGluZwAAAADfBgAAR1JVVQAAAAYAAAAB
        A8BNVHJrAAAGyQD/AgsgSy5QLlJhdXNjaACQJkJ7LVOBAbBAABuQMklHgCY0IZBAbAA1aAA8YgCALUwGkDlkOIAyN4F7NR8bOTsYPEoDQDx9kEBlADVrBDxkBTllMoA5
        XAw8UQY1YSdASIQdkDI0DCY/GYAyUhkmTYE8kExwB0FgBkVlAEhhc4BFKxdINQBMSidBIoNZkC1ESoAtWoJpkEh6AEFxBj5nAEVkC0NmMoBDOSBBUhhFQAs+QCtIQoM1
        kDJHECZJNIAyXQUmYYFYkD5cBEFeADlkBjxTggiAORALPBgPPiQeQSRukC1ZZIAtWXGQO2QKQGYAN1+CPoA3JkdAMROQMkIrgDsfDJAmO0KAMlAtJjRDkDxpBUFwCDli
        gjyAQSklOSwZPD6BJ5AmXAAyYoE+QGsLPF0EOWEFNWQ+gDIyLyY5VzkpBUA7IjVBBTxJgRCQQGkANWYAPGEFOWBhgDlNHDxLBDVKBkBHg1qQNXcAPHEAQHYAOXZfgDll
        CzVjBjxcIUBSgzqQMmYrgDJjgVSQTHQLQWIARWcHSFoVR1YtgEdHcEw7IUENBkgqAEUTMpAtdEOALVNJkEp1AEN7AEB7AEdugieARxhHsEB/hC6AQDUzQyMxkEczRIBK
        P4EgR0IGkEBVgU+AQDcwkCZjDTJggm9DdQdKcwBAcgBHbUKAMkcAJkRrQzsKRz0dSlQOQDmGRpAyZQUmbhywQACBK5A1awA5bABAcAA8ZYIdgEAvADUtETk8GDxIgQ8m
        MACQPGQGNWcFQGgAOWZJgDJAETlWFjVRBjxWBUBChAKQPHsAQH4ANX8AOXsxPjwNgD5CJzlgAzVhEzxVK0BOgnaQMmAigDJeBZAmQA+AJlOBX5BIaAZMcQBFaAZBX3uA
        RUELQTgSSEEATESBXpAtZDaALVqBZ5BAdgBKdQVDewBHdjNIQQuASEhdQy0tSjkFRxM9QByBC5AyPxImQQeAMksQJlSBR5BIcAU+awBFbAhBaIF7gD4KR0EqEUg4B5At
        XACART5BLVWBa5BKcwdHcQBDdwBAdoFTgEpFJUdNAENIC0AugReQSHEFPnIGQXALRWeBWrBAfxGARSSBOJBHXSGAQScRPjw+kEU4CYBIPj+QQUJEgEdGIUU+H5A+SySA
        QU5dPkxJsEAAG5AyZQwmb4NgQGoUPFwAOWQANWpcgDlUADxRD0BRADVZBSYyTzI0gzGQNX8APHgAOX4HQH9ngDlhDTxXADVfHkBLgzeQLXQ4gC1UgViQNWwAQHAAPGQH
        OWeBJoA5KhM1MAtAOQA8PYFCkEBwBTxrBjVsBTlriFqAQCgYOT4GPD4LNTYnkCZtBjJngjM5bQY8awU1bARAcGqAJk1ksEB/GYAyURo1TUA5SDs8UABASIRIkC5LgUWw
        QAAVkDVZDzpNHT5cM0VdB0FDdIA6QTKwQH9JgD5UFEFCPkVJgwGQOi2DSkYwakpCPU1CXlFkgQuATUQXLjwwNU+BLTo9SZBNVymASgGCX5BKSBCAURs3RieBCkowBk0v
        gjOQRkQNPUYAMVULUloASVUJTVoTsEAAgiBAfy2APRhhRiw2STwVTS+BDZBGSkiAUg5CRjeCLZA4S4MpPWp7gDEIFDgpTz0/apBGXoJwSUmBQoBJVS1GN4MBkDAugQQ3
        WmewQAAEkE1ZBUNTC0hbDUZagjOwQH+BFYBDLoEiRiJ1kENXN0YgPYBNAgBGHB5IIzdDNIEokDxlUoA8Z4I5kEZQBk1eBUhYgiaAN0IRMBlwRiIHSDcAkENhFoBNMIEQ
        Q0yEPZBMWxgvYQZJWABFYQRCU06wQACCTUB/NIBCMIEcRR8tSSkATClSkEJWgReAQjWDZC9PhXiQLlUAsEAAI5BITQJEQgZLPwVBRYFwsEB/g1WAQQYVLimDW5BBPoVl
        gEQPEUEtFkhIMksvg3uQLBY/MzZwODcOsEAAAJBEPxKAMz4QkEhNC0s0DU9FgWKwQH+EHYA4J4FELBlqRBeBVJBERBeASBUDTzoySy9sRD+DIJArGXEyQIERsEAAIJA3
        Q3BBQGpHJyewQH+BBIBBLgmQSz88gEdMggo3E4FGSwYPkEcfgQeARywAkEFNgVOAQTuBe5A3OoIFPjiFZYA3D4E/Pi4QkDswiFeAMgGBXCsOixo7QoEgkCY5gXCwQAA3
        kC0/gT6wQH+BM5AyUYFIgDJbgQeQNkQigC0+GiZEgXc2JzGQOVGDGD5aMoA5PIE8PjyBIpBCQoMhRUqCM4BFL3CQSlODI4BKK4EnkEkVQoBJEIIkkEpAgXOASk2DC5BR
        P4dhgFEBhABCP6dcsEAAAP8vAFByc1XeDQAASQAAAAUAAABjcC04MAAAAAAFAAAAQ1AtODAAAAAAAAAAAHByb21UAAAAAQAAAAEAAAABAAAABQAAAGNwLTgwAAAAAAUA
        AABDUC04MAAAgD8GAAAAAAAAAAAAAAAAAAAAAAAAAAAAAABURv////8AAAAAAAAAAAAAAAAAAAAAcnlhbBAAAAACAAAAAAAAAAAAAAD/////b2xvcxEAAAABAAAAAQAA
        AEYAAAAAAAAAAAEAAAABAAAAAAAAAAAAAAABAAAAAAAAAAAAAAABAAAAAAAAAAAAAAABAAAAAAAAAAAAAAABAAAAAAAAAAAAAAABAAAAAAAAAAAAAAABAAAAAAAAAAAA
        AAABAAAAAAAAAAAAAAABAAAAAAAAAAAAAAAAAAAAA4AAAEADAAAAAACoQQAAcEIAANhCAwAAAAAAAACCAwAAAAEAAAAAAAAAAAAAAAMAAAAAAAAAAAAAAAAAAAADAAAA
        AAAAAAAAAAAAAAAAAwAAAAEAAAABAAAAAQAAAAAAgEAAAAAAAQAAAAAAAACxORA+A4AAAFAAAHBCAQAAAAAAgD8BAAAAAAAAAAAAAAAAAKDAAACgQAAAukIAAAAAA4AA
        AFAAAHBCAQAAAAAAAAAAAAAAAAAAAAAAAAABAAAAAAAAAAAAAAAAAKDAAACgQAAAAAADgAAAYAIAAAAAAKhBAACuQgIAAAAAAAAAgQOAAABgAgAAAAAAqEEAAK5CAgAA
        AAAAgD+BgAAAAAAAAADSBAAAAAAAAAAAAAAAAACAAAAAPwAAgD8DgAAAUAAAcEIBAAAAAAAAAAOAAABgAgAAAAAAqEEAAK5CAgAAAAAAAACBA4AAAGACAAAAAACoQQAA
        rkICAAAAAACAP4ECAAAAAQAAAFUAAABFcXVhbCB0ZW1wZXJhbWVudApUaGUgc3RhbmRhcmQgdHVuaW5nLCB3aGVyZSB0aGUgb2N0YXZlIGlzIGRpdmlkZWQgaW4gMTIg
        ZXF1YWwgc3RlcHMuDAAAAAAAyEIAAEhDAACWQwAAyEMAAPpDAAAWRAAAL0QAAEhEAABhRAAAekQAgIlEAACWRAEAAAAAAAAABAAAAAAA3EM8AAAARQAAAEYAAAAAfwAA
        AAAAAAAHAAAARGVmYXVsdAAAAAAAAAAAAgAAAAOAAABgAgAAAAAAqEEAAK5CAgAAAAAAAACBAAAAAAAAAAAAAIA/AQAAAAEAAAABAAAADAAAAAOAAABIAQAAAAAAgD8A
        AAAAAACAPwOAAABgAgAAAAAAqEEAAK5CAgAAAAAAgD+BA4AAAGACAAAAAACoQQAArkICAAAAAACAP4EDgAAAUAAAekQBAAAAAAAAAAOAAABQAAB6RAEAAAAAAIA/AAAA
        AAOAAABQAABwQgEAAAAAAAAAAACAPwOAAABQAABwQgEAAAAAAAAAAQAAAAAAAAAAAAAAzczMvc3MzD0BAAAAAAAAAAAAAAAAAAC/AAAAPwAAgD8DgAAAQAMAAAAAAKhB
        AABwQgAA2EIDAAAAAACAP4IAAAAAA4AAAGACAAAAAACoQQAArkICAAAAAACAP4EAAIA/A4AAAGACAAAAAACoQQAArkICAAAAAACAP4EAAPBBA4AAAGACAAAAAACoQQAA
        rkICAAAAAAAAAIEAAIA/A4AAAEADAAAAAACoQQAAcEIAANhCAwAAAAAAgD+CA4AAAEgBAAAAAAAAAAEAAAADgAAAYAIAAAAAAAAAAACAPwIAAAAAAAAAAQAAgD8DgAAA
        YAIAAAAAAAAAAACAPwIAAAAAAIA/gQOAAABABAAAAAAAAAAmk0k+/n4/PwAAgD8EAAAAAAAAAIEAAIA/gQOAAABgAgAAAAAAAAAAAIA/AgAAAAAAAACBAAAAAM3MTD4A
        AAAAAAAAAAAAAAAAAAA/AAAAAGZmpj8DgAAAYAIAAAAAAKhBAACuQgIAAAAAAIA/gQAAgL8AAAA/A4AAAEgBAAAAAACAPwEAAAABAAAAAQAAAAoAAABMb25nIFBsYXRl
        CQAAAGxvbmdwbGF0ZQAAQEAAAMBBAACAPwAAAD8AAAAAAAAAAAAAAAAAAAAAAAAAAAAAAAAAAKpDAACAPwAAgD8BAAAABgAAAAAAgD8AAIA/A4AAAGBYAAAAAACoQQAA
        gD9YAAAAAACAP5WPwnU/LlyPgj8AAIA/j8KVP65HIT9I4Zo/16OQP7gehT+4HkU/ZmaGPwrXgz9SuF4/zcxMP65HgT8AAIA/rkeBP4/ClT/sUXg/uB6FPwAAgD8K14M/
        pHC9P+xRmD8K16M/MzOTP2Zmhj8K14M/4XpUPxSuhz9I4Xo/uB6FPwrXIz8zM3M/FK5HP1yPgj8K14M/j8J1P1yPgj9I4Xo/KVxPPwrXgz/sUXg/SOF6P7gehT+kcH0/
        XI+CP0jhej9I4Xo/gWZmhj8QAACAP6RwfT9cj4I/rkeBP7gehT8AAIA/pHB9P+xReD+uR4E/CteDP6RwfT+uR4E/CteDPylcjz9I4bo/PQoXQAOAAABAAwAAAAAAqEEA
        AHBCAADYQgMAAAAAAIA/ggAAAAADgAAAYAIAAAAAAKhBAACuQgIAAAAAAAAAgQEAAAAAAAAAAQAAAAAAAD8AAABAAwAAAAAAgD8AAIA/AACAPwOAAABAAwAAAAAAqEEA
        AHBCAADYQgMAAAAAAIA/ggOAAABAAwAAAAAAqEEAAHBCAADYQgMAAAAAAIA/ggOAAABAAwAAAAAAqEEAAHBCAADYQgMAAAAAAIA/ggAAgD8AAIA/BwAAAAAAgD/NzEw+
        ZmZmPwAAwD8AAIA+CAAAAAAAAAAAAAAAAAAAAAAAAAAAAAAAAAAAAAAAAAAAAAAAA4AAAEADAAAAAACoQQAAcEIAANhCAwAAAAAAgD+CA4AAAEADAAAAAACoQQAAcEIA
        ANhCAwAAAAAAgD+CA4AAAEADAAAAAACoQQAAcEIAANhCAwAAAAAAgD+CA4AAAEADAAAAAACoQQAAcEIAANhCAwAAAAAAgD+CAQAAAAEAAAAAAHBCA4AAAFAAAAAAAQAA
        AAAAAAAAAAA+A4AAAGACAAAAAACoQQAArkICAAAAAACAP4EBAAAAAAAAAAEAAAAzMzM/ZmamPwEAAAAAAAAAAQAAADMzMz9mZqY/AQAAAAAAAAABAAAAMzMzP2Zmpj8B
        AAAAAAAAAAEAAAAzMzM/ZmamPwEAAAAAAAAAAQAAADMzMz9mZqY/AQAAAAAAAAAAAPBCAAAAAA4AAAAAAAA/zczMPc3MTD4AAAA/AwAAAAAAAAADgAAASAEAAAAAAAAA
        AAAAAAOAAABIAQAAAAAAAAAEAAAAAgAAAAMAAAAEAAAAAQAAAAEAAAAAAIA/AACAPwEAAAABAAAAAQAAAAEAAAABAAAAAACAPwAAAAAAAIBAAAC0QkYAAAAAA4AAAEgB
        AAAAAAAAAAAAAAADgAAASAEAAAAAAAAAAAAAAAAAAAADgAAASAEAAAAAAAAAAAAAAAMAAAABAAAAAQAAAAAAAAAOAAAAEAAAAAAAAAAAACBAAACAPwAAAAAAAAA/AAAA
        AAAAAAAAAAAAAAAAAAAAAAAAAAAAAAAAAAAAAAAAAAAAAAAAAAAAAAADAAAACAAAAAEAAAAAAAAADgAAABAAAAAAAAAAAACAPwAAAAAAAPDBmpmZvpqZmb4AAIA/AAAA
        AAAAAAAAAAAAAAAAAAAAAAAAAAAAAAAAAAAAAAAAAAAAAwAAAAkAAAABAAAAAAAAAA4AAAAQAAAAAAAAAAAAAD8AAMA/AABAQAAAcMEAACBBAADIQwAAoEAAAAAAAAAA
        AAAAAAAAAAAAAAAAAAAAAAAAAAAAAAAAAAEAAAABAAAAs+8yPwAAEMEAAAAAAwAAAAEAAAAAAAAAAQAAAAUAAAAEAAAAAQAAAAMAAABmZqY/AACAP5qZmT8AALRCAAAA
        AAAAAAAFAAAAAAAAAAAA8MEAAMDCAADAwgAAwMIFAAAAAAAAAAAAAAAAAAAAAAAAAAAAAAAFAAAAAAAAAAAAAAAAAAAAAAAAAAAAAAABAAAAAAAAAAQAAAABAAAAAwAA
        AAAAwD8AAAA/mpmZPwAAtEIAAAAAAAAAAAUAAAAAAPDBAAAAAAAAwMIAAMDCAADAwgUAAAAAAAAAAAAAAAAAAAAAAAAAAAAAAAUAAAAAAAAAAAAAAAAAAAAAAAAAAAAA
        AAEAAAAAAAAABAAAAAAAAAADAAAAj8L1Pz0KV78fhWs/AAC0QgAAAAAAAAAABQAAAAAAQMEAAEDBAABwwgAAcMIAAHDCBQAAAAAAAAAAAAAAAAAAAAAAAAAAAAAABQAA
        AAAAAAAAAAAAAAAAAAAAAAAAAAAAAQAAAAAAAAAEAAAAAAAAAAMAAAAzMzO/XI/CPq5HYT8AAAAAAAAAAAAAAAAFAAAAAABAwQAAQMEAAHDCAABwwgAAcMIFAAAAAAAA
        AAAAAAAAAAAAAAAAAAAAAAAFAAAAAAAAAAAAAAAAAAAAAAAAAAAAAAABAAAAAAAAAAQAAAAAAAAAAwAAALgexT89Clc/rkfhPwAAAAAAAAAAAAAAAAUAAAAAAEDBAABA
        wQAAcMIAAHDCAABwwgUAAAAAAAAAAAAAAAAAAAAAAAAAAAAAAAUAAAAAAAAAAAAAAAAAAAAAAAAAAAAAAAEAAAAAAAAAAQAAAAAAAAABAAAAAwAAAKRwPT8AAAAASOG6
        PwAAkEEAAAAAAAAAAAAAAAABAAAAAAAAAAAAAAAAAAAASlVDRVByaXZhdGVEYXRhAAEBQnlwYXNzAAEBAwAdAAAAAAAAAEpVQ0VQcml2YXRlRGF0YQAAAAAAAAAA
        AAAQAAAA
      >
      PRESETNAME "CP-80 Recording"
      FLOATPOS 32 149 592 662
      FXID {1BDB9480-17FE-3248-A735-99C492CB791B}
      WAK 0 0
      BYPASS 0 0 0
      <AU "AU: ValhallaSupermassive (Valhalla DSP, LLC)" "Valhalla DSP, LLC: ValhallaSupermassive" "" 1635083896 1934451059 1866754414
        6QMAAAAAAAACAAAAAQAAAAAAAAACAAAAAAAAAAIAAAABAAAAAAAAAAIAAAAAAAAAYQYAADw/eG1sIHZlcnNpb249IjEuMCIgZW5jb2Rpbmc9IlVURi04Ij8+CjwhRE9D
        VFlQRSBwbGlzdCBQVUJMSUMgIi0vL0FwcGxlLy9EVEQgUExJU1QgMS4wLy9FTiIgImh0dHA6Ly93d3cuYXBwbGUuY29tL0RURHMvUHJvcGVydHlMaXN0LTEuMC5kdGQi
        Pgo8cGxpc3QgdmVyc2lvbj0iMS4wIj4KPGRpY3Q+Cgk8a2V5PmRhdGE8L2tleT4KCTxkYXRhPgoJQUFBQUFBQUFBQUFBQUFBU0FBQUFNRDhBQUFBQUFBQXhQb0FBQUFB
        QUFESStra2tsQUFBQU16OEFBQUFBQUFBMEFBQUEKCUFBQUFBRFUvZ0FBQUFBQUFOajhBQUFBQUFBQTNBQUFBQUFBQUFEZy9nQUFBQUFBQU9RQUFBQUFBQUFZZlA0QUFB
        QUFBCglCaUErakRQOEFBQUdJVDhBQUFBQUFBWWlQU3FxcXdBQUJpTUFBQUFBQUFBR0pBQUFBQUFBQUFZbEFBQUFBQUFBQmlZQQoJQUFBQQoJPC9kYXRhPgoJPGtleT5l
        bGVtZW50LW5hbWU8L2tleT4KCTxkaWN0PgoJCTxrZXk+MTwva2V5PgoJCTxkaWN0PgoJCQk8a2V5PjA8L2tleT4KCQkJPHN0cmluZz5JbnB1dDwvc3RyaW5nPgoJCTwv
        ZGljdD4KCQk8a2V5PjI8L2tleT4KCQk8ZGljdD4KCQkJPGtleT4wPC9rZXk+CgkJCTxzdHJpbmc+T3V0cHV0PC9zdHJpbmc+CgkJPC9kaWN0PgoJPC9kaWN0PgoJPGtl
        eT5qdWNlUGx1Z2luU3RhdGU8L2tleT4KCTxkYXRhPgoJVmtNeUlmMEJBQUE4UDNodGJDQjJaWEp6YVc5dVBTSXhMakFpSUdWdVkyOWthVzVuUFNKVlZFWXRPQ0kvUGlB
        OFZtRnMKCWFHRnNiR0ZUZFhCbGNtMWhjM05wZG1VZ2NHeDFaMmx1Vm1WeWMybHZiajBpTXk0d0xqQWlJSEJ5WlhObGRFNWhiV1U5CglJa1JsWm1GMWJIUWlJRTFwZUQw
        aU1DNHlNRE01T1RrNU9UWXhPRFV6TURJM0lpQkVaV3hoZVZONWJtTTlJakF1TWpVaQoJSUVSbGJHRjVUbTkwWlQwaU1DNHlPRFUzTVRReU9UZzBPRFkzTURrMklpQkVa
        V3hoZVY5TmN6MGlNQzQxSWlCRVpXeGgKCWVWZGhjbkE5SWpBdU56STFNREF3TURJek9EUXhPRFUzT1NJZ1EyeGxZWEk5SWpFdU1DSWdSbVZsWkdKaFkyczlJakF1CglO
        amd4T1RrNU9UZ3hOREF6TXpVd09DSWdSR1Z1YzJsMGVUMGlNQzR6TlRFd01EQXdNVEE1TmpjeU5UUTJJaUJYYVdSMAoJYUQwaU1TNHdJaUJNYjNkRGRYUTlJakF1TUNJ
        Z1NHbG5hRU4xZEQwaU1TNHdJaUJOYjJSU1lYUmxQU0l3TGpJM016Z3oKCU5ERXdPVE13TmpNek5UUWlJRTF2WkVSbGNIUm9QU0l3TGpVaUlFMXZaR1U5SWpBdU1EUXhO
        alkyTmpZM09UQTRORE13CglNU0lnVW1WelpYSjJaV1F4UFNJd0xqQWlJRkpsYzJWeWRtVmtNajBpTUM0d0lpQlNaWE5sY25abFpETTlJakF1TUNJZwoJVW1WelpYSjJa
        V1EwUFNJd0xqQWlJRzFwZUV4dlkyczlJakFpSUhWcFYybGtkR2c5SWpneU1DSWdkV2xJWldsbmFIUTkKCUlqUXpOU0l2UGdBPQoJPC9kYXRhPgoJPGtleT5tYW51ZmFj
        dHVyZXI8L2tleT4KCTxpbnRlZ2VyPjE4NjY3NTQ0MTQ8L2ludGVnZXI+Cgk8a2V5Pm5hbWU8L2tleT4KCTxzdHJpbmc+VW50aXRsZWQ8L3N0cmluZz4KCTxrZXk+c3Vi
        dHlwZTwva2V5PgoJPGludGVnZXI+MTkzNDQ1MTA1OTwvaW50ZWdlcj4KCTxrZXk+dHlwZTwva2V5PgoJPGludGVnZXI+MTYzNTA4Mzg5NjwvaW50ZWdlcj4KCTxrZXk+
        dmVyc2lvbjwva2V5PgoJPGludGVnZXI+MDwvaW50ZWdlcj4KPC9kaWN0Pgo8L3BsaXN0PgoEAAAAZHVvAAAAAAAA
      >
      PRESETNAME duo
      FLOATPOS 64 306 820 488
      FXID {81992BD9-6484-2340-9F4C-C8B888C3C46D}
      WAK 0 0
    >
  >
  <TRACK {9DF55AC6-CDE8-504C-BC83-FF8704EEBEDD}
    NAME "Pianoteq 8"
    PEAKCOL 16576
    BEAT -1
    AUTOMODE 0
    PANLAWFLAGS 3
    VOLPAN 0.80928784384254 0 -1 -1 1
    MUTESOLO 0 0 0
    IPHASE 0
    PLAYOFFS 0 1
    ISBUS 0 0
    BUSCOMP 0 0 0 0 0
    SHOWINMIX 1 0.6667 0.5 1 0.5 0 0 0
    FIXEDLANES 9 0 0 0 0
    SEL 0
    REC 1 5088 1 0 0 0 0 0
    MIDI_INPUT_CHANMAP 0
    VU 2
    TRACKHEIGHT 0 0 0 0 0 0 0
    INQ 0 0 0 0.5 100 0 0 100
    NCHAN 2
    FX 1
    TRACKID {9DF55AC6-CDE8-504C-BC83-FF8704EEBEDD}
    PERF 0
    AUXRECV 0 0 1 0 0 0 0 0 0 -1:U 33 -1 ''
    MIDIOUT -1
    MAINSEND 1 0
    <FXCHAIN
      WNDRECT 32 136 807 690
      SHOW 0
      LASTSEL 0
      DOCKED 0
      BYPASS 0 0 0
      <VST "VST3i: Pianoteq 8 (Modartt) (1->5ch)" "Pianoteq 8.vst3" 0 "" 1031062328{565354507438717069616E6F74657120} ""
        OMN0Pe5e7f4CAAAAAQAAAAAAAAACAAAAAAAAAAUAAAABAAAAAAAAAAIAAAAAAAAABAAAAAAAAAAIAAAAAAAAABAAAAAAAAAA3T4AAAEAAAD//xAA
        zT4AAAEAAABWc3RXAAAACAAAAAEAAAAAQ2NuSwAAPrVGQkNoAAAAAlB0OHEACAQBAAAAAAAAAAAAAAAAAAAAAAAAAAAAAAAAAAAAAAAAAAAAAAAAAAAAAAAAAAAAAAAA
        AAAAAAAAAAAAAAAAAAAAAAAAAAAAAAAAAAAAAAAAAAAAAAAAAAAAAAAAAAAAAAAAAAAAAAAAAAAAAAAAAAAAAAAAAAAAAAAAAAAAAAAAAAAAAAAAAAA+HaCYE/4CAAAA
        SDgSANE9AAABAAAAEThWOMU9AABQclZLKQAAAlhGVFC1PQAACgAAADIwMjUvMDMvMDkXAAAAUGlhbm90ZXEgOC40LjEvMjAyNTAyMDQR/yEqgCaJAmT1azmyjIv9ZGxs
        YXQ9AAB0ZHRNOgYAABwAAABIQiBTdGVpbndheSBEIEZlbHQgSUkgKGNvcHkpCgAAAE15IFByZXNldHMHAAAATW9kYXJ0dDMAAABGZWx0IHBpYW5vIHByZXNldCB2YXJp
        YW50IChyZXZlcnNlZCBDZWxlc3RlIHBlZGFsKS4AAAAARAEAABUAAABIQiBTdGVpbndheSBEIEZlbHQgSUkAAAAAoQUAAEdSVVUAAAAGAAAAAQPATVRyawAABYsA/wIl
        UGlldCBEZSBSaWRkZXIgLSBGZWx0IHBpYW5vIG1pbmkgZGVtb4NgkEMpgQ41JRxFOYEsTEaCF7BAAhNAAHZAf4g5kDwwgRlFACZDAIxDPAAJNQCCP0VIgXRMAIZbSE9s
        RQCGHjg5JEgAgRc/LT5CJWdGJDewQABlkEk/gzywQH+GAZBOM2NJAChGAIQbQgCBOU4Agj9JO4FmSQCEFz8AfjgAg1ZGRoU9RgCDXzI1gV45MD9AMC2wQAAwkEM6gQpH
        OoMHsEAMFEB/hVWQQAATRwAJQwCBF0w/gntMAIVPRzEJNikDQzCFM0MAgltHAIYxRTuBXjIANTkAgSo2AIJ2RQCGd7BAAEiQOisNMzIGQzQJPjKDHLBABhRAAHRAf4Uj
        kDcoYzoACjMAUDcAiHk/LYZ3PwCGZjMgiwczAIEPPgBqQwCULzktgWdAQhxDPCawQABBkEctgQ5KT4F6sEAiEkB/gyGQSgAjQwAKRwCDeU9MiQlORBxPAIsaT0BrOQAm
        QAASTgCFT08AgTw6HoI4QDAtTSsJSi8ARTYAsEAAhDVAf4k2kFE+SE0AgjtKAIMLQAAJRQCEJEo5AD40igA+AC06AINERTWEJlEALUoASEUAhh1DNH5GOho8JgowNTew
        QABAkEtPALBAHBRAAIJCQH+DB5AwAIIYPABYTUpQSwBVRgAsQwBYTQCGZLBAAGqQPzADNS0ASjEJRTkAQTSEI7BAf4MRkD8Agg1FAIIEOTsAQQAsNQAjSgCHIkhGgVQ5
        AB1IAIc9Pi8GLi8AOi0DQDRjsEAAhBxADBNAf4U8kEEld0AAhG1BAD8+AIRhRTCFFUUAhQFKJIQuSgCKCU0lWVYmklwuAIExOgCLElYAgyRVPIRSVkBjVQBATQCCJlYA
        akI1gURJJiSwQACBJZBVQANMQ4IIsEAcE0AAY0B/hUOQUUQ/TAAKVQBIUQCFG0VDJE5ESUIALUkAgiFFAIJqUUxaTgCCJFEAg1awQABikEQiAEgqHVA4AEEvgx2wQH+F
        QJBULj9QAIIDVACGWlAoCksmiT1QAFlIAABLAABBAIEyRAAjVEOEC1QAgyo0HoFdSjEKOyQusEAALZBAJglPO4EYUzxJsEAMCUAAZ0B/gkyQNAAaOwBATwAaQAAsSgAK
        UwCDRE84gV5PAIRPQDQEQzUTTD6EP0wAhSJKRIIYQwCBF0AAgQ9KAIUiOjSBND01fEEtCrBAACOQRDMASTKDX7BAf4VMkE0gQEQAQEkAgwg6AHxBAGI9ADVNAIQwSC8J
        Qy0APCMTOS0JsEAAg2BAf4c/kE0tgRhDABxIACM8AAo5AIJRTQCHP7BAAAGQRzIDTDEEOycDQS0KOCmDZLBAFhNAf41VkEwALkEAKUcAgUVBPoEiR0yBHkpshkU4AIFo
        OwAJTE1lSgCCOEcALUwAgQ43NkhBAGs6O4EsPkKBCrBAAFCQSDgSRUYJsEAGCkAAg3BAf4MBkEo8LUgAd0UAgShKAIVxQTAARjktsEAAZ0ASE0AGE0AAgRtABgpAAHlA
        f4NYkD4AgRc3ABM6AIEOQxxJQQBGRgCEA0MAggoxQoFXsEAAHJA4LTxHLARBLAtEMYJYsEAYEkAAI0AGCkAAfkB/hXGQMQAcRwAcQQAaRAB2OACDPDA2gV6wQAAJkDof
        QEIdC0UnHD4mg2SwQH+HIpAwAGI+ABw6ABxCACNFAIsmNSiBVLBAABqQSiYAPykLQysARyyCZbBAf4E5kEMAJEcAWUoAhmZPKgBWOYRkUzU3VgCBXk8AP1MAgnVbKoFM
        WwCFT18rhgVWMQpfAIZnUysJVgCQHE8bi2hTAC5PABw/AD41AI1ksEAAUEA0FEAAE0ABEkAAgSpAARNAABJABhNAAAD/LwBQcnNVKjcAAEkAAAACAAAAZDQAAAAAGgAA
        AEdyYW5kIFN0ZWlud2F5IEQgKEhhbWJ1cmcpAAAAAAAAAABwcm9tZgAAAAEAAAABAAAAAQAAAAIAAABkNAAAAAAaAAAAR3JhbmQgU3RlaW53YXkgRCAoSGFtYnVyZykA
        AIA/BgAAAAAAAAAAAAAAAAAAAAAAAAAAAAAAVEb/////AAAAAAAAAAAAAAAAAAAAAHJ5YWwQAAAAAgAAAAAAAAAAAAAA/////29sb3MRAAAAAQAAAAEAAABGAAAAAAAA
        AAABAAAAAQAAAAAAAAAAAAAAAQAAAAAAAAAAAAAAAQAAAAAAAAAAAAAAAQAAAAAAAAAAAAAAAQAAAAAAAAAAAAAAAQAAAAAAAAAAAAAAAQAAAAAAAAAAAAAAAQAAAAAA
        AAAAAAAAAQAAAAAAAAAAAAAAAABAQAOAAABgaQAAAAAAEEEAAIA/aQAAANTOc8BoUuSgwPC8RsDjN4rAFMw+wJSBYMBG1QzAnOz+v1A1AsDWiYvAQE4gwGz56L+S/hzA
        1M9owM4ikcCQw5jAkn/JwELPncAE3RPA6LpJwPTwG8B8zyjAhF4dwMjB7r/kDcHA4J0PwET+HcBAody9AG5twNTiS8CAGLi/UMTVvhBYhL6g6Jk+YLqkwNpUnsBMbQvA
        IJhKv3xuXMAsYxDAAMhzwGA4Xr9MlZS/QJLVvzxHm79Mp8k/0FzNvii8a79kRAlAFNmzP/iffD98pe+/wK2oPiiqF8D4pQLAqIkMwOD0mr4guf2+WEkUv7yV879Q/5A/
        kOn8PmTEY8CchcW/AAB5Py5QAcAYBKW/xlwXwDK5i8BIgwk/QPHJPYRyvr80a1nA7Evkv4SUWcDk2KzA2D0hv4BVA72YvTK/XGdNwGi8ScBAaK3AnH/zv8BCHT+A7vQ9
        KNiEv6BEmb4G9hLAvIWHvxzezz8UGbk//LJJQKwyVECu8itAHkQnQKDZoj8gy3Y+gP/vvui5ED/AjEU+AJAgPSyCJsAoMTXAPF6rwL+8nMADAAAAAQAAAAAAAAAAAAAA
        AwAAAAAAAAAAAAAAAAAAAAMAAAAAAAAAAAAAAAAAAAADAAAAAQAAAAEAAAABAAAAhhWAPwAAAAABAAAAAADIwtx/Ij4DgAAAYGkAAAAAABBBAACAP2kAAABhpkk/jdMz
        TD+DCNJOP4KkgVE/D1lDVD/fF1c/+f9ZP3j8XD8zDmA/EDZjPwF1Zj8IzGk/EDZjP3j8XD9ZQ1Q/+f9ZPzMOYD8QNmM/AXVmPwF1Zj8CCMxpPzY8bT82PG0/AqjGcD+V
        bHQ/lWx0PwI8L3g/+Q98P/kPfD8NHQiAP706hD/rboY/ObaIPzuCjT8hCZA/jKeSP8xelT+GHZs/JCieP+dRoT+4nKQ/pgqoP6YKqD8N8J2rPwZZrz+PPrM/cFG3PysM
        wD9Mu8Q/YabJPwjSzj9ZQ9Q/+f/ZPzMO4D8BdeY/NjztPzY87T8BlWz0P5Vs9D8B+Q/8P/kP/D+CwhgCQIPrbgZAkwEAAAAAAAAAAAAAAAAAoMAAAKBAAAAAQwAAAAAD
        gAAAUAAAcEIBAAAAAAAAAAAAAAAAAMjCAADIwgEAAAABAAAAAAAAAHCeGcHQp79AAAAAAAOAAABgAgAAAAAAqEEAAK5CAgAAAAAAAACBA4AAAGACAAAAAACoQQAArkIC
        AAAAAACAP4GAAAAAMzMzP9IEAAAAAAAAAAAAAAAAAIAAAAA/ZmZmPwOAAABgWAAAAAAAqEEAAIA/WAAAALjBAkFXIOAEQRi0FUGgmhNBGHQqQTg2FkHIuhBBGNIPQWD0
        EEEISgdB8E78QIhtD0HgLQlBOL4WQfhcFEFwGwZBCJgGQVAeJ0FYyQNBuLAMQchSAUGYlxFBINXjQFiyD0FQx/5AwAQCQWAf3UCgvAlB0F/jQDAF00Bg5vpA8PXkQIBb
        zUAAE/tAoMfuQIBx6kAAwuZA4N7SQKAO2EDAichAkPHLQOCUx0Cg8NdAYE/jQCCj2EBACsdAsFjGQNCR30CQ8MtAAJvYQMBUxkDA3dxAUD7LQEDx3ECQvtxAICX1QICi
        z0CgeulAoPPPQEBl3EBgg+NAsHnXQMCG2UBQ0OxA0ObIQFAK0UAQ79VAoPfXQBDLwEBAcdNAwFzfQGARuEDwdq9AgHnqQNDQ1kDQHMxA4IfkQDAK5kCARq1AQKvfQMBz
        wEDQTtpAoOzQQOAUxUDgbsZAwPjaQPDo3UDA+e1AA4AAAGBYAAAAAACoQQAAgD9YAAAAiFmFv1cAx269QNIEwBjli7+QjmM/kL9eP7Dj7D9Aby2+gK5Cvhjr5D9YDIDB
        MEc+P6jmo7/whRPAEGYrPxCqJD8w2c4/lI2dwSAIDz8gXPG+UKcAv6ByxL9gaRG/gBrNv6Ck0b9AsqY+IGOTPmDHa8EAwpo/kIDqv7gYkD845lzBAEkcPXh1AMAgUXI/
        oD1mPwAvGL6YT07BgKx8vkT9EsB4GRvBoLfLvgDU5b5Ixr3BABYNvwyJJsBwQMXA8Ao0vzg1cMBAznDBCFQtwSCpzcBIlDzAAPjqOwgfx8FQR0XAXAwIwAgfx8EAEFa+
        CB/HwWRsUsBI1hTA2ZaLwCBQ18FALd2+1EvKwRbrj8A/6pDAEITHv1i3usGYbGfACFXSv4TZKsCAwK7BrAwuwJgj37+wJ0S/jHVywGzsqMEMKXXAYMdZv5C/Xr+g43jA
        dA16wMAte8DkRDzAPFN9wCRZfsADgAAAYAIAAAAAAKhBAACuQgIAAAAAAIA/gQIAAAABAAAAVQAAAEVxdWFsIHRlbXBlcmFtZW50ClRoZSBzdGFuZGFyZCB0dW5pbmcs
        IHdoZXJlIHRoZSBvY3RhdmUgaXMgZGl2aWRlZCBpbiAxMiBlcXVhbCBzdGVwcy4MAAAAAADIQgAASEMAAJZDAADIQwAA+kMAABZEAAAvRAAASEQAAGFEAAB6RACAiUQA
        AJZEAQAAAAAAAAAEAAAAAADcQzwAAABFAAAARgAAAAB/AAAAAAAAAAcAAABEZWZhdWx0AAAAAAAAAAACAAAAA4AAAGBpAAAAAAAQQQAAgD9pAAAA4hQ3wgnXfhzCrCb6
        weYl3cG05dXBR8+swZ65oMFOjojBKHBNwTjFQ8E4xUPBgYQZHcFXyIXZwMgxDcHg2s/AUNmVwMA0ocCAjrnAYKEewHAFS8AAXPu/GPiNwHAFS8BI+ZjAgIMCwIBOw8Ag
        y8m/QHSjvwAkyb9AcTDAABFMPyCeor8gSrk/oMlwwGAdjD+wb0/AwByiP0AHW8DAswlAgOUTwADalj3ASYA/gACOvgAUZL7AplY/QEOrv0BchL8AtAxAwN8WwKAw178Q
        yB1AAB5LP4Cv5r+AEAs/AD42v5D3L8AAkG0+gD2TPwAg279ADaNAUJ4vwACcqz2A2/O/gBk4QACAfUBQHgDAQHw5QKA54L9gYsm/AICTOkDslz/AECPAQMzGv4D14b8A
        03k/oBzCv4AumD7AP6w/UOY+QICCR78wGRXA4DDYv0C8jz+gXk9AAFnJv4Bp9j8AmFq/wM1zv7BcFcDgtPS/sAkoQADKGz+g6FVAILUXQECGrT/g4Ma/8LsXwEAEOr/g
        wbK/4MGyv4QAAAAAAAAAAAAAgD8BAAAAAQAAAAEAAAAfAAAAA4AAAEgBAAAAAACAPwAAAAAM9Nw/A4AAAGBYAAAAAACoQQAAgD9YAAAAAAAAAI8K+pc/AQAAAAAAAAAA
        AmVIkj8AAAAAAAAAAEKNaZA/AAAAAHYqRDoW/Qw8wSqUP93SST1edZc9THKcPf7mmT+XzSs++al+PsEqlD804dE+ztkCPxmAHT97LUQ/BBJzPzSYbT9nYnE/h1QaP18U
        FT84Z2I/T8w1P4pSXj8HLPE+bf/WPtZCzT5rPFs/c9MUPik0Iz8Kj5o+TL+lPw1ICj/BKpQ/7tmyPtY8uT5wMlY+r7cnPfq49z70xkU+eb2OP09MOz5qSr8+v4+OP1ro
        jT8QYmI+1WHKPQCEjz8LNYo/XQ8JP7TEgT7ffCQ+jUvJO3kNuzxrT1k/N6o9PtvkRz5N8Ts/J5gmPmBTbz+TIzk/gms1PuJIHz4IBTo+6mVHP7Z/bzwDgAAAYAIAAAAA
        AKhBAACuQgIAAAAAAIA/gQOAAAAABgAAAAAA9UIAAHpDAADrQwDAj0QAABtFAPCHRQMAAAAEAAAAAQAAAAIAAAAGAAAABQAAAAYAAAAzM0PBBQAAwMAAAGDAAAAwQZqZ
        KUEAAEDAA4AAAGACAAAAAIBtRAAAIEQCAAAAheuRPgHXo3A+AAAAAAOAAABQAABwQgEAAAAAAAAAAACAPwOAAABQAABwQgEAAAAAAAAAAQAAAAAAAAAAAAAAzczMvc3M
        zD0BAAAAAAAAAAAAAAAAAAC/AAAAPwAAgD8DgAAAQAMAAAAAAKhBAABwQgAA2EIDAAAAAACAP4IAAAAAA4AAAGACAAAAAACoQQAArkICAAAAAAAAAIEAAIA/A4AAAGAC
        AAAAAACoQQAArkICAAAAAACAP4EAADRCA4AAAEAPAAAAAACoQQAA0EEAAPhBAAAQQgAAQEIAAHBCAACQQgAAqEIAALRCAADAQgAAyEIAANBCAADUQgAA1kIAANhCDwAA
        AAAAgMAEAABAwAAAAMAAAIC/AAAAAAAAAACBAAAAQAcAAIBAAADAQAAAIEEAAIBBAACgQQAAyEEAAABCAACAPwOAAABAAwAAAAAAqEEAAHBCAADYQgMAAAAAAIA/ggOA
        AABABQAAAAAA8EIAAHpDAAB6RAAAyEQAwChFBQAAAAAAAMABAAAAAAAAAAACAADAvwAAwMABAAAAA4AAACACAAAAAAAAAHe7XT8BAAAAAwAAAAIAAAAAAAAAAf5+Pz8D
        gAAAYAIAAAAAAAAAAACAPwIAAAAAAIA/gQOAAABABAAAAAAAAAAmk0k+/n4/PwAAgD8EAAAAAAAAAIEAAIA/gQOAAABgAgAAAAAAAAAAAIA/AgAAAAAAAACBAAAAAM3M
        TD4AAAAAAAAAAAAAgD+amRk/AAAAAAzMEkEDgAAAYAIAAAAAAKhBAACuQgIAAAAAAIA/gQAAgL8AAAA/A4AAAGACAAAAAADAQQAAkEICAAAAAACAP4EBAAAAAQAAAAEA
        AAAKAAAAU21hbGwgSGFsbAsAAABtZWRpdW1oYWxsMQAAQMAAAJBBAACAPwAAgD8AAAAAj8J1PQAAwMDNzEw+AAAAAJqZiUBeMdtDAACAPwAAgD8BAAAABgAAAJmZmT8A
        AEBAA4AAAGBYAAAAAACoQQAAgD9YAAAA53KBP1eJD3w/kNZ1P5p0aj8UTH0/92p9P6+thT8IBII/CjdnP6WPhj/69HI/94aKP/KtfT9nzHY/w3ZuP77hij82eoU/1RBo
        P5CuhD+CT4c/5A52PyJQij9u44Y/h4OIP/ZBhz/0120/4YWLP4CUcj85W3s/LIqLPyasiD/uJWU/w0uLP6Nobz84KnA/njBPP+4lZT/bZYQ/PzFnPxpuhT9t1Gk/xyaB
        Pxh0dD/UdHE/OC9aP1iGbD+oTHI/asdkP8Q/dT+wnXo/I5p3P/6QgD9b+nc/3+GFP6pvbT9i2WA/trZtP9TqYT+Hs3k/91aBP4EUcD/6c2I/HBKHP5LAaz+c54c/YPmF
        P2nBcT9U1HA/tMqCP+vNhz9u3Yc/PaKIP8q6az8fVoE/FBV9P0twaj82F20/mUV0P6O+fz+0O4o/ei17P+6NjD/INnU/pjRnPxXCfj/Vaok/lPFrP1EAbj8DgAAAYGkA
        AAAAABBBAACAP2kAAABhTWo/AyUdaD+QO3w/p72CP6e9gj9kZ5OBPznzeT/r72U/bJ5hP51rdT8583k/F/BwP09Qcz8jglo/BsKHP9tGhT/JFYw/62piP7JzgD+DhYs/
        DVeRP5wLYT8fInw/DYZ6P0AmcD8v9YU/ydKBPxBsfT/ByYo/fESDP+huaT/473k/t6tzP70Kkz9PAo8/Q558PwRYaT8m+Ig/YsSDPx9sdT+6bIQ/j2FfP8HEfj8DQ4Q/
        cFxpPwlNlT8jyYA/TDODP5O8gj/VLoQ/4VR+Pxtghz/MKnc/BTeFP9fkgT+rzV4/L26SP8CNYz8xCGs/2NZlP8mvkD+YLYQ/11R/P0lAhT+FSYg/UseHP7vcfT9M+mw/
        qX6NP5PXjT/MKGg/O5BXP6sxVz8x24k/5yOVPxN3hj95a3g/TvuEP5ePdj+RBn0/SVp5P6vZij/HcHc/U36EP4FMaz+0PHI/skiNPyvYdT/IunE/zdiJP7sZeD838I0/
        iMFxP5D4iD8dknQ/61t+P63ziD+bg4Q/+2+JP8eniD+hRow/x6eIP2zpgz+LRYY/x6eIPwAAAAADgAAAYFgAAAAAAKhBAACAP1gAAACV6Yq+N+Uu6j2c4oC+XRAcvidY
        VT7mo1W+bOuHPmIdkr5LupQ+nyyZviK0QT6WXD6+oqHnvSLBdj0FwXE+w/2kPcz/Zr6MO1a+qYdzvj4rDr5VQa69rn54Pdy/Bz5tN3Y+uIxCvisUqz0FhYS97vkmvqRs
        RD0OdXy+El3jvUbulb7UTyu+RlDAvXJDj75+16i7XaDoPQikjT1mQui7XOdfvXAOIL2+53M+N+y2vX6Ks705VxI+h/wUPr66ar7JXTa+kVCUPixFubzxFuM8QjdcPslH
        aL4wW3a9fNiWPrCqKr2wqiq9H6hS3jtRnJU+smtXPQdH0z4fDrg+RezIPrD/jj5L1jC9d4PNPobplD6rdJ8+qauvPUWU9D6gVXs982mlPnY+4D6JAsY+CECjPTjH6z5i
        AVc9E2TjPqcgxD7R02y9jKXHPvUWRD5SxRw++71OPulH4LzBb38+Tb0lvXCx2T4BAAAAAQAAAAEAAAADAAA/LZaIQAMAAACfBnE/rUJxP6CnqD8DgAAAYGkAAAAAABBB
        AACAP2kAAADHXVI/aHuFQT+VlEg/10JMP3UYRz8jq0Y/4vJMP1yqTj+vlEE/x8JHP7ScUj/YiT0/jTBOP1cnPT+QWlY/h/ZLPzkETj/ViE8/vsVLP2UETD9wuEU/86RD
        PyPDPz+gtko/oE9LPylvSj+EzUQ/yRZCP3F2TT/kHFw//ZNNPymoVT//Alc/DqxdP5zVYj/MXWM/xr5PP8lrYT82mGo/cElpP8X0Vj/qonA/3HhhPyXLbT9/FXA/VE9w
        P+fXfj9VmXs/Gpp9P5nkfD+v64M/EVqDP1s0hT8i6YM/52N2PzpAhz/zJW0/w5OIP7BUeD+wdIA/EtKBP8Daez9CcYA/EcV2P19ocj+9Zng/7LFzP5eDhz/kFmw/mtSF
        P3vqdD99YoM/cQGDP/oOiD9eR4c/J7KCP9WRfz9Hin0/o2eBP8Bmgj9Z93o/spiCP+vXfD8VAYE/eph3P82kdz8ijoE/ef6BP2zFdz+8YII/aEiCPww4gD+HoYQ/tyCC
        PzCBej8Q9oI/GvGEP7WqeT/3tIU/XjR9Pznxdj/bDHg/WYZ+P06PgD8bQ4A/A4AAAEADAAAAAACoQQAAcEIAANhCAwAAAAAAgD+CA4AAAEADAAAAAACoQQAAcEIAANhC
        AwAAAAAAgD+CAACAPwAAgD8HAAAAPmbuPQAAAACoHDc9AAAAAM3MFD8IAAAAAAAAAAAAAAAAAAAAAAAAAAAAAAAAAAAAAAAAAAAAAAADgAAAYGkAAAAAABBBAACAP2kA
        AACC27E/aP9Xyj+BO58/scWzP2vYlD9egqA/XvyBP+vSbT8pzWY/Ku6TP93iZT+KTEs/gnlNP4ZYcD+B3pc/7earPxvkvj9OOJ0/whtfP3AJeT8VjG4/znN5P7IydT/L
        gmc/Cxm8PyEFhz/S9YI/4zM+P/XHjT9l5pY/xmdxPwfEVD8VvEI/obM8P4Ipcz8MJaM/s9VRPz5UND9pnYM/XeJqPwRGkD+JDUw/oZOKP3VifT/RW3M/LTcsPyAshD+d
        EHM/h14sP1uYPj+dAVU/yB2bP0pCcT9NH6U/9AemP2fHoj9Dr3U/Mt91P4a9cD+e/Ys/5kNEP1bxUj/mwJ8/smWBPzQ6NT87a4c/6d12P6kbhD/UxI4/pFdaP+oWZz8a
        k4E/fh+jPzbNfz91E6E/gWa7PxXdYj/6uVU/TKNwP6hBqT/4k7E/w0PmPyOpqD822IQ/stCTPz2nrT+QDKc/3KjhP9Svwj+DQnk/nAmNP9kRcD80w2g/ruV4P9E1bj+7
        ToI/hvCEP80RiD9SXmc/b/laP55GXj/ESos/SjSLP9uvrT9z0aM/A4AAAGBpAAAAAAAQQQAAgD9pAAAARpR2PwL8AHA/KnByPypwcj+YjnRyP0zyeHI/Vn1yP6qBcj8O
        hnI/copyP9aOcj86k3I/npdyPwKccj9moHI/yqRyPy6pcj+CrXI/5rFyP0q2cj+uunI/Er9yP3bDcj/ax3I/PsxyP6LQcj8G1XI/WtlyP4LIcj+Zt3I/wqZyP9mVcj8B
        hXI/KnRyP0Fjcj9pUnI/gUFyP6kwcj/BH3I/6Q5yPwD+cT8p7XE/QNxxP2jLcT+AunE/qKlxP9CYcT/oh3E/EHdxPydmcT9QVXE/Z0RxP48zcT+nInE/zxFxP+cAcT8P
        8HA/N99wP0/OcD93vXA/jqxwP7ebcD/OinA/9nlwPw5pcD82WHA/XkdwP3Y2cD+eJXA/thRwP94DcD/18m8/HuJvPzXRbz9dwG8/da9vP52ebz+1jW8/3XxvPwVsbz8d
        W28/A4AAAEADAAAAAACoQQAAcEIAANhCAwAAAAAAgD+CA4AAAGBpAAAAAAAQQQAAgD9pAAAASGyAP0E+qIA/fdd/P+zWfz8EJ4A/3eV/P778fz8HJ4A/Ys+APxepgD9t
        j4A/D5SAP+30gD/XCYE/TS+AP412fz8XZoA/YEGAP6QNgD+7Hn8/o85+P5WWfz8MhIA/GsyAP/GFgD9DNIA/61+AP/WMfz87C4A/lJB+P/wtfz8vGYA/pGJ/P10Wfz9A
        dn8/bRWAPwD/fz/KBYA/Fi6AP41MgD8WZH8/W4l/P8gRgD87YoA/xp6AP43yfz/xUX8/ihOAP39lfz+0t34/dEx/Pw1Mfz/WYn8/CVGAP49XgD+tiIA/GdJ/P3cQfz9d
        V38/khuAP2OUfz9/HYA/vQyAP9vXfz/fWX8/i694P4uveD8mt217P3TzfD8k/nw//Jh9P+2MfT+KhXk/9RJ8P4saeT+MRHg/jW53P48tdj+R7HQ/khZ0P7Ptcz+linI/
        c0hwP82bbj/HJ20/bJ1sP+90az8D1Go/6C5qP6dlaz9NUmw/sShsP2cobD8/BWs/HxprPyAeaz/TsWo/bsZqP8Xnaj+no2o/y4hpP0zLaT+5oWo/fxlrP6hhaz8BAAAA
        aQAAAAAAEEEDgAAAYAwBAAAAAAAAAACAPwwBAAAAAAAA/wAAAAD/AAAAAIsAACBBA4AAAGACAQAAAAAAAAAAgD8CAQAAAAAAAP8AAAAA/wAAAACBAAAwQQOAAABg+AAA
        AAAAAAAAAIA/+AAAAAAAAAD/AAAAAPcAAEBBA4AAAGDvAAAAAAAAAAAAgD/vAAAAAAAAAP8AAAAA7gAAUEEDgAAAYOsAAAAAAAAAAACAP+sAAAAAAAAA/wAAAADqAABg
        QQOAAABg4wAAAAAAAAAAAIA/4wAAAAAAAAD/AAAAAOIAAHBBA4AAAGDZAAAAAAAAAAAAgD/ZAAAAAAAAAP8AAAAA2AAAgEEDgAAAYNMAAAAAAAAAAACAP9MAAAAAAAAA
        /wAAAADSAACIQQOAAABg0AAAAAAAAAAAAIA/0AAAAAAAAAD/AAAAAM8AAJBBA4AAAGDOAAAAAAAAAAAAgD/OAAAAAAAAAP8AAAAAzQAAmEEDgAAAYMsAAAAAAAAAAACA
        P8sAAAAAAAAA/wAAAADKAACgQQOAAABgyQAAAAAAAAAAAIA/yQAAAAAAAAD/AAAAAMgAAKhBA4AAAGDiAAAAAAAAAAAAgD/iAAAAAAAAAP8AAAAA4QAAsEEDgAAAYNoA
        AAAAAAAAAACAP9oAAAAAAAAAiAAAoMABAAAAAAAAAAD/AAAAAM4AALhBA4AAAGDRAAAAAAAAAAAAgD/RAAAAAAAAAP8AAAAA0AAAwEEDgAAAYPwAAAAAAAAAAACAP/wA
        AAAAAAAA/wAAAAD7AADIQQOAAABg6AAAAAAAAAAAAIA/6AAAAAAAAAD/AAAAAOcAANBBA4AAAGDZAAAAAAAAAAAAgD/ZAAAAAAAAAIkAAKDAAQAAAAAAAAAA/wAAAADM
        AADYQQOAAABgyQAAAAAAAAAAAIA/yQAAAAAAAAD/AAAAAMgAAOBBA4AAAGDbAAAAAAAAAAAAgD/bAAAAAAAAAIUAAEDAAQAAAAAAAAAA/wAAAADSAADoQQOAAABg5gAA
        AAAAAAAAAIA/5gAAAAAAAAD/AAAAAOUAAPBBA4AAAGDWAAAAAAAAAAAAgD/WAAAAAAAAAP8AAAAA1QAA+EEDgAAAYMoAAAAAAAAAAACAP8oAAAAAAAAAhAAAIMABAAAA
        AAAAAAD/AAAAAMIAAABCA4AAAGDDAAAAAAAAAAAAgD/DAAAAAAAAAAIAAIDAAAAAAAAAAAD/AAAAAL8AAARCA4AAAGDMAAAAAAAAAAAAgD/MAAAAAAAAAAIAAADAAAAA
        AAAAAACCAABAwAEAAAAAAAAAAIMAAIDAAQAAAAAAAAAA/wAAAAC9AAAIQgOAAABg0gAAAAAAAAAAAIA/0gAAAAAAAAAFAAAAwAAAgD8AAEBAAAAgwQAAAAAAAAAA/wAA
        AADLAAAMQgOAAABgxgAAAAAAAAAAAIA/xgAAAAAAAAACAACAwAAAAAAAAAAAAgAAgMAAAAAAAAAAALgAAEDAAQAAAAAAAAAA/wAAAACEAAAQQgOAAABgxAAAAAAAAAAA
        AIA/xAAAAAAAQMAEAACgwAAAAMAAAAAAAABAwAAAQMACAACAPwAAAAAAAAAAgwAAQMABAAAAAAAAAAD/AAAAALUAABRCA4AAAGDEAAAAAAAAAAAAgD/EAAAAAAAAAP8A
        AAAAwwAAGEIDgAAAYMQAAAAAAAAAAACAP8QAAAAAAIA/BAAAAEAAAADAAABAwAAAAAAAAAAA/wAAAAC+AAAcQgOAAABgqwAAAAAAAAAAAIA/qwAAAAAAAAACAAAAwAAA
        AEAAAABAAgAAQMAAAAAAAAAAAP8AAAAApAAAIEIDgAAAYKsAAAAAAAAAAACAP6sAAAAAAEBAAgAAwD8AAEBAAABAQAMAAMA/AABAwAAAAAAAAAAA/wAAAACjAAAkQgOA
        AABgqwAAAAAAAAAAAIA/qwAAAAAAAAD/AAAAAKoAAChCA4AAAGCTAAAAAAAAAAAAgD+TAAAAAAAAwAQAAABAAAAAAAAAAEAAAAAAAAAAAP8AAAAAjQAALEIDgAAAYJMA
        AAAAAAAAAACAP5MAAAAAAADAAwAAAAAAAKDAAAAAAAAAAACBAABAwAEAAAAAAAAAAP8AAAAAigAAMEIDgAAAYJMAAAAAAAAAAACAP5MAAAAAAIDAAwAAAMAAAIDAAAAA
        AAAAAAD/AAAAAI4AADRCA4AAAGCAAAAAAAAAAAAAgD+AAAAAAABAwAMAAIC/AACAPwAAAEAAAABAgQAAwD8CAAAAAAAAQMAAAEDAAQAAAAAAAAAAhQAAoMABAAAAAAAA
        AACBAABAwAEAAAAAAAAAAOgAADhCA4AAAGCAAAAAAAAAAAAAgD+AAAAAAAAAwAIAAABAAAAAAAAAAAD8AAA8QgOAAABggAAAAAAAAAAAAIA/gAAAAAAAwMAFAAAAQAAA
        gL8AAIA/AAAAwAAAAAAAAAAAhwAAwL8BAAAAAAAAAACXAABAwIEAAAAA1QAAQEIDgAAAYGwAAAAAAAAAAACAP2wAAAAAAEDAAwAAAEAAAEDAAAAAAAAAAACjAABAwIEA
        AAAAwQAAREIDgAAAYGwAAAAAAAAAAACAP2wAAAAAAADAAQAAAAAAAAAAgQAAQMACAAAAwAAAAAAAAAAA5AAASEIDgAAAYGwAAAAAAAAAAACAP2wAAAAAAAAAAgAAAMAA
        AABAAAAAQAIAAAAAAAAAQAAAAECBAAAAAJIAABDBAQAAAAAAAAAAzgAATEIDgAAAYGcAAAAAAAAAAACAP2cAAAAAAAAAhAAAwL8BAABAwAAAQMAGAAAgwJqZ2b+amZm/
        AACAvzMzM78AAAAAAAAAANgAAFBCA4AAAGBXAAAAAAAAAAAAgD9XAAAAAAAAAAEAAADAAAAAwAEAAAAAAAAAAIYAAIDAAgAAQEAAAAAAAAAAAMgAAFRCA4AAAGBXAAAA
        AAAAAAAAgD9XAAAAAAAAAIEAACBABQAAoMAAACDAAAAAAAAAAMAAAAAAAAAAAM4AAFhCA4AAAGBWAAAAAAAAAAAAgD9WAAAAAAAAwAIAAIC/AAAAAAAAAACGAABAwAMA
        AAAAAACAwAAAAAAAAAAAxwAAXEIDgAAAYEkAAAAAAAAAAACAP0kAAAAAAAAABAAAAMAAAEBAAABAwAAAAAAAAAAAAgAAgL8AAAAAAAAAAIMAAADAggAAAACJAACAwIEA
        AAAAiTMzM8CBAAAAAKEAAGBCA4AAAGBJAAAAAAAAAAAAgD9JAAAAAAAAAAMAAADAAACAvwAAAAAAAAAAgQAAAMABAAAAAAAAAAACAACAvwAAAAAAAAAAAgAAAMAAAAAA
        AAAAALoAAGRCA4AAAGBIAAAAAAAAAAAAgD9IAAAAAAAAAAYAAIBAAAAAQAAAgD8AAAAAAAAAQAAAgL8AAIC/BgAAAEAAAAAAAAAAwAAAAAAAAADAAAAAAAAAAAC5AABo
        QgOAAABgRQAAAAAAAAAAAIA/RQAAAAAAQEAGAACAPwAAAMAAAIC/AAAAAAAAAMAAAAAAAAAAAAUAAIA/AAAAwAAAAAAAAABAAAAAAAAAAAC3AABsQgOAAABgPwAAAAAA
        AAAAAIA/PwAAAAAAAEADAACAvwAAgD8AAAAAAAAAAAIAAEDAAAAAAAAAAACBAACAPwMAAMDAAACAPwAAAAAAAAAAsQAAcEIDgAAAYDkAAAAAAAAAAACAPzkAAAAAAAA/
        AwAAgD8AAMA/AACAvwAAgL+BAAAAAAMAAIC/AAAAwAAAQMAAAEDABgAAQEAAAAAAAABAwAAAAAAzMwPAAAAAAAAAAACnAAB0QgOAAABgOQAAAAAAAAAAAIA/OQAAAAAA
        AAACAAAAQAAAAMAAAADABAAAAEAAAAAAAAAAQAAAAAAAAAAAAgAAQMAAAAAAAAAAAAIAAEDAAAAAAAAAAACqAAB4QgOAAABgNgAAAAAAAAAAAIA/NgAAAAAAAMABAAAA
        AAAAAACzAAB8QgOAAABgMQAAAAAAAAAAAIA/MQAAAIAPyj0DyJL8PguSfD/J2p0/ydqdPwIzMzM/zcxMvs3MTL6CyJJ8vgMekny/H2u9vwAAAAAAAAAAogAAgEIDgAAA
        YDAAAAAAAAAAAACAPzAAAAAAAAAABQAAQEAAAAAAAACAvwAAgD8AAIDAAACAwAEAAAAAAAAAAAMAAMDAAAAAAAAAAMAAAADAAQAAAAAAAAAAoQAAgkIDgAAAYC4AAAAA
        AAAAAACAPy4AAAAAAAAAhAAAAEABAAAAAAAAAAACAACAvwAAAAAAAAAAAgAAAMAAAAAAAAAAAKAAAIRCA4AAAGArAAAAAAAAAAAAgD8rAAAAAAAAwAUAAIBAAAAAAAAA
        gMAAAADAAAAAAAAAAACBzcxswAEAAAAAAAAAAIEAAMDAAQAAAAAAAAAAnAAAhkIDgAAAYCcAAAAAAAAAAACAPycAAAAAAIC/AgAAAEAAAAAAAAAAAAIAAEDAAAAAwAAA
        AMAEAAAAAAAAAMAAAABAAAAAAAAAAACbAACIQgOAAABgJgAAAAAAAAAAAIA/JgAAAAAAAL8KAACAPwAAAL8AAAAAAADAvwAAIMAAAIC/AAAAAGZmZsAAAIA/AAAAAAAA
        AACaAACKQgOAAABgJAAAAAAAAAAAAIA/JAAAAAAAAACBAACAvwEAAAAAAAAAAAIAAEDAAAAAAAAAAACcAACMQgOAAABgIgAAAAAAAAAAAIA/IgAAAAAAgD+CAAAAAIEA
        AIC/AQAAAAAAAAAAmgAAjkIDgAAAYCAAAAAAAAAAAACAPyAAAAAAAAAAgwAAAEAEAAAAAAAAAEAAAIC/AAAAAAAAAACWAACQQgOAAABgHQAAAAAAAAAAAIA/HQAAAAAA
        AECBAACAQIEAAEDAAwAAAEAAAIC/AAAAAAAAAACUAACSQgOAAABgHAAAAAAAAAAAAIA/HAAAAAAAAACDAACgwAIAAADAAAAAAAAAAACUAACUQgOAAABgGwAAAAAAAAAA
        AIA/GwAAAJIkPz+CkiQ/vwEAAAAAAAAAAAK8WQ/ArOvDv6zrw78BAAAAAAAAAACQAACWQgOAAABgGQAAAAAAAAAAAIA/GQAAAAAAAACF8TLDv4IAAAAAjwAAmEIDgAAA
        YBgAAAAAAAAAAACAPxgAAAAAAIA/AwAAgL8AAAAAAAAAwAAAAMAEAACAvwAAAAAAAADAAAAAAAAAAACOAACaQgOAAABgFgAAAAAAAAAAAIA/FgAAAAAAwL8BAAAAAAAA
        AACEAABAwAEAAAAAAAAAAIwAAJxCA4AAAGAVAAAAAAAAAAAAgD8VAAAAAACAPwEAAAAAAAAAAAMAAADAAABAwAAAAAAAAAAAjgAAnkIDgAAAYBQAAAAAAAAAAACAPxQA
        AAAAAABABgAAgD8AAEDAAACAvwAAAAAAAADAAAAAAAAAAACMAACgQgOAAABgEwAAAAAAAAAAAIA/EwAAAAAAAAADAAAAQAAAgD8AAADAAAAAwAEAAAAAAAAAAIwAAKJC
        A4AAAGASAAAAAAAAAAAAgD8SAAAAAAAAPwMAAIA/AACAvwAAAAAAAAAAAQAAgL8AAIC/AQAAAAAAAAAAiQAApEIDgAAAYBEAAAAAAAAAAACAPxEAAAAAAMA/AQAAwL8A
        AMC/AQAAAAAAAAAAjAAApkIDgAAAYBAAAAAAAAAAAACAPxAAAAAxknw/gQAAAACBH2u9vwMAAAAAH2u9vwAAAAAAAAAAhwAAqEIDgAAAYA8AAAAAAAAAAACAPw8AAADS
        VgI/AYl/wz+Jf8M/BQAAAACcf8O/AAAAAJx/w78AAAAAAAAAAIYAAKpCA4AAAGAOAAAAAAAAAAAAgD8OAAAAMZJ8PwIxcYE/AAAAAAAAAAACH2u9vwAAAAAAAAAAhwAA
        rEIDgAAAYA0AAAAAAAAAAACAPw0AAAAJZoY/gQAAAAABE2aGvxNmhr8BAAAAAAAAAACGAACuQgOAAABgDAAAAAAAAAAAAIA/DAAAAAAAgD8DVXp6PwAAgL8AAADAAAAA
        wAEAAAAAAAAAAIUAALBCA4AAAGAMAAAAAAAAAAAAgD8MAAAAAAAAAINmZoa/AQAAAAAAAAAAhQAAskIDgAAAYAsAAAAAAAAAAACAPwsAAAAAAAAABAAAgL8AAADAAACA
        vwAAAAAAAAAAhQAAtEIDgAAAYAoAAAAAAAAAAACAPwoAAAAAAADAAQAAAAAAAAAAhwAAtkIDgAAAYAoAAAAAAAAAAACAPwoAAAAAAEBABAAAAEAAAADAAABAwAAAAAAA
        AAAAhAAAuEIDgAAAYAkAAAAAAAAAAACAPwkAAADRRTdABBdd9D8XXXQ/F130PgAAAAAAAAAAgwAAukIDgAAAYAkAAAAAAAAAAACAPwkAAACjiy5ABC666D8uumg/Lrro
        PgAAAAAAAAAAgwAAvEIDgAAAYAgAAAAAAAAAAACAPwgAAAB00SVABEYX3T9GF10/RhfdPgAAAAAAAAAAggAAvkIDgAAAYAgAAAAAAAAAAACAPwgAAABGFx1ABF100T9d
        dFE/XXTRPgAAAAAAAAAAggAAwEIDgAAAYAgAAAAAAAAAAACAPwgAAAAXXRRABHTRxT8AAMC/dNHFPgAAAAAAAAAAggAAwkIDgAAAYAgAAAAAAAAAAACAPwgAAADpogtA
        BIwuuj+MLjo/jC66PgAAAAAAAAAAggAAxEIDgAAAYAgAAAAAAAAAAACAPwgAAAC66AJABKOLrj+jiy4/o4uuPgAAAAAAAAAAggAAxkIDgAAAYAgAAAAAAAAAAACAPwgA
        AAAWXfQ/BLnooj+56CI/ueiiPgAAAAAAAAAAggAAyEIDgAAAYAgAAAAAAAAAAACAPwgAAAC66OI/BNJFlz/SRRc/0kWXPgAAAAAAAAAAggAAykIDgAAAYAgAAAAAAAAA
        AACAPwgAAABcdNE/BOiiiz/oogs/6KKLPgAAAAAAAAAAggAAzEIDgAAAYAgAAAAAAAAAAACAPwgAAAAAAMA/BAAAgD8AAAA/AACAPgAAAAAAAAAAggAAzkIDgAAAYAgA
        AAAAAAAAAACAPwgAAACii64/BAAAwL8tuug+LbpoPgAAAAAAAAAAggAA0EIDgAAAYAgAAAAAAAAAAACAPwgAAABFF50/BFx0UT9cdNE+XHRRPgAAAAAAAAAAggAA0kID
        gAAAYAgAAAAAAAAAAACAPwgAAADooos/BIsuOj+LLro+iy46PgAAAAAAAAAAggAA1EIDgAAAYAgAAAAAAAAAAACAPwgAAAAWXXQ/BLnoIj+56KI+uegiPgAAAAAAAAAA
        ggAA1kIDgAAAYAgAAAAAAAAAAACAPwgAAABcdFE/BOiiCz/ooos+6KILPgAAAAAAAAAAggAA2EIDgAAAYAQAAAAAAAAAAACAPwQAAACiiy4/Ay266D4tumg+LbroPQAA
        2kIDgAAAYAQAAAAAAAAAAACAPwQAAADoogs/A4suuj6LLjo+iy66PQAA3EIDgAAAYAQAAAAAAAAAAACAPwQAAABcdNE+A+iiiz7oogs+6KKLPQAA3kIDgAAAYAQAAAAA
        AAAAAACAPwQAAADooos+A4suOj6LLro9iy46PQAA4EIDgAAAYAQAAAAAAAAAAACAPwQAAADoogs+A4suuj2LLjo9iy66PAAA4kIDgAAAYAQAAAAAAAAAAACAPwQAAAAA
        AAAAg4RAOT4DgAAAQAsAAAAAAMBBAADgQQAA6EEAABxCAAAgQgAAXEIAAHBCAACQQgAAqEIAAMBCAADYQgsAAAC62po/g/qliT8GbimWP82+kT/6pYk/XMR3P5MtJT9c
        xPc+AQAAAAEAAAABAAAAiwc2P1dUsz8BAAAAAQAAAAEAAABBlTU/eJXhPwEAAAAAAAAAAQAAADMzMz9mZqY/AQAAAAAAAAABAAAAMzMzP2Zmpj8BAAAAAAAAAAEAAAAz
        MzM/ZmamPwEAAAAAAAAAAADwQgAAAAAOAAAAAAAAP83MzD3NzEw+AAAAPwMAAABDQxo9A4AAAEgBAAAAAAAAAAAAAAADgAAASAEAAAAAAAAABAAAAAIAAAAIAAAABAAA
        AAEAAAABAAAAAACAPwAAgD8BAAAAAQAAAAEAAAABAAAAAQAAAAAAgD8AAAAAAACAQAAAtEJGAAAAAAOAAABIAQAAAAAAAAAAAAAAA4AAAEgBAAAAAAAAAAAAAAAAAAAA
        A4AAAEgBAAAAAAAAAAAAAAADAAAABwAAAAEAAAAAAAAADgAAABAAAAAAAAAAmpkZPgAAgD8AAAAAAAAAvwAAwEEAAAAAAAAAAAAAAAAAAAAAAAAAAAAAAAAAAAAAAAAA
        AAAAAAAAAAAAAwAAAAoAAAABAAAAAAAAAA4AAAAQAAAAAAAAAAAAXEMAAIC/AAAAPwAAAEAAAHpEAAAAAAAAAD8AAIA/AECcRQAAAECamRk/AABAQAAAAAAAAAAAAAAA
        AAMAAAAKAAAAAQAAAAAAAAAOAAAAEAAAAAAAAAAAAMhCAAAAAAAAgD8AAABAAECcRQAAgD+amZk+AACAPwCAO0YAAABAAAAAPwAAQEAAAAAAAAAAAAAAAAABAAAAAQAA
        AAAAgD8AAEDBAAAAAAMAAAADAAAAAAAAAAEAAAAFAAAABAAAAAEAAAADAAAAZj2KPuhROD5cj4I/sbBowhBugcAEAAAABQAAAAAAAMAAAEDBAADAwgAAwMIAAMDCBQAA
        AAAAAACPwvU8AAAAAAAAAAAAAAAABQAAAAAAAAAAAAAAAAAAAAAAAAAAAAAAAQAAAAAAAAAEAAAAAQAAAAMAAABG4Xo/6FE4PgrXoz+yh05CEG6BwAQAAAAFAAAAAABA
        wQAAAMAAAMDCAADAwgAAwMIFAAAAj8J1PFJJHToAAAAAAAAAAAAAAAAFAAAAAAAAAAAAAAAAAAAAAAAAAAAAAAABAAAAAAAAAAQAAAABAAAAAwAAAJzEQD83iQlAarzE
        P83MI0PNzCDCAwAAAAUAAAAAAHDBAABwwQAAcMIAAHDCAABwwgUAAAAAAAAAAAAAAAAAAAAAAAAAAAAAAAUAAAAAAAAAAAAAAAAAAAAAAAAAAAAAAAEAAAAAAAAABAAA
        AAAAAAADAAAA16MIQIXr4T+uR+E/zczYQgAAAAAHAAAABQAAAAAAcMIAAHDCAABwwgAAcMIAAHDCBQAAAAAAAAAAAAAAAAAAAAAAAAAAAAAABQAAAAAAAAAAAAAAAAAA
        AAAAAAAAAAAAAQAAAAAAAAAEAAAAAAAAAAMAAAC4HsU/PQpXP65H4T8AAAAAAAAAAAAAAAAFAAAAAABwwgAAcMIAAHDCAABwwgAAcMIFAAAAAAAAAAAAAAAAAAAAAAAA
        AAAAAAAFAAAAAAAAAAAAAAAAAAAAAAAAAAAAAAABAAAAAAAAAAEAAAAAAAAAAQAAAAMAAABSuB4/7FG4vmZmpj8AAJBBAAAAAAAAAAAAAAAAAQAAAAAAAAAAAAAAAAAA
        AEpVQ0VQcml2YXRlRGF0YQABAUJ5cGFzcwABAQMAHQAAAAAAAABKVUNFUHJpdmF0ZURhdGEAAAAAAAAAAA==
        AHQxABAAAAA=
      >
      PRESETNAME t1
      FLOATPOS 32 149 592 662
      FXID {B76D5FDE-A8CA-584F-8F0F-DB5EF086AAD7}
      WAK 0 0
      BYPASS 0 0 0
      <AU "AU: VCV Rack 2 FX (VCV)" "VCV: VCV Rack 2 FX" "" 1635085670 1447253574 1447253599
        6QMAAAAAAAAQAAAAAQAAAAAAAAACAAAAAAAAAAAAAAAAAAAAAAAAAAAAAAAAAAAAAAAAAAAAAAAAAAAAAAAAAAAAAAAAAAAAAAAAAAAAAAAAAAAAAAAAAAAAAAAAAAAA
        AAAAAAAAAAAAAAAAAAAAAAAAAAAAAAAAAAAAAAAAAAAAAAAAAAAAAAAAAAAQAAAAAQAAAAAAAAACAAAAAAAAAAAAAAAAAAAAAAAAAAAAAAAAAAAAAAAAAAAAAAAAAAAA
        AAAAAAAAAAAAAAAAAAAAAAAAAAAAAAAAAAAAAAAAAAAAAAAAAAAAAAAAAAAAAAAAAAAAAAAAAAAAAAAAAAAAAAAAAAAAAAAAAAAAAAAAAADoBwAAPD94bWwgdmVyc2lv
        bj0iMS4wIiBlbmNvZGluZz0iVVRGLTgiPz4KPCFET0NUWVBFIHBsaXN0IFBVQkxJQyAiLS8vQXBwbGUvL0RURCBQTElTVCAxLjAvL0VOIiAiaHR0cDovL3d3dy5hcHBs
        ZS5jb20vRFREcy9Qcm9wZXJ0eUxpc3QtMS4wLmR0ZCI+CjxwbGlzdCB2ZXJzaW9uPSIxLjAiPgo8ZGljdD4KCTxrZXk+ZGF0YTwva2V5PgoJPGRhdGE+CglLTFV2L1FC
        SVJTTUFodnl6T1VCcjJBQTh4SGhnSHBnSG1WVGdGQzhBakUvTG5VMzdxYzdxeTY0MU9oK3ptY0VhZVF3MwoJT0taTlNVbEo4cmlmMzM3bW54TWdzUFJJQWFrQW5BQ3BB
        UHdyajE3YUc1YmNxNEYvNVdFdnluckRqNTNVU3JyNFZ4N3MKCWxyZzRmc1BTaFNyS1R2aFhOc1Q1Sm94Unp0Z2FoTEs3cFZ0VldEZ2NxMDRTRmdSTFBPdjV1cHN4Qklz
        SFpZS0RDTVNICglDQVlCZ0ZsSHFwS2RYR3BhYkRSTmRaRmNwd0FBUm9BeHhvRXgxb0ZkWUdCRXNBNk1NUWpHMkFYR21HT01EV0NNUWJCRAoJZUFNR2Qyb0ZZeEJNZ0lF
        QWIwWlZxN3I2ekwwNHU5K3l0UmVobkxEOVFkZmQ3REhPN21hTGhDWC9mK1hoSUcrWXNoT0kKCWV2aS8wSE5WYnJoYTlXSGwwVy80b1pCYzY2cXMwZEV6TWpGUzVqV043
        MEhhUzN2RDlvcnFoUDlmVXFrNjhmODc2OVFJCglaUzJKNGtMUEZjRnZPTExQbGJDbHJnUy9ZUW1pY0VYVFEvWmpXb3l2MjJPZ1pPWWJmaUQrLzEvWlVObm9lcTZFZitX
        aAoJOFN0VE92bGNlN0RCU1djL3VEVGsvNVVIUStlanRPbUVsTWJXNUVJaC82OUVlTU9XclNJUkJnOUVVUWdMMDR1amJGVTUKCUxDNWxBY21ReUtDU2FUam5wTTlOK0dU
        cmFKQTNERDJRaFA5YllWVTFZcWJSTjh6aFdKQ0ZWZFVJT21nQ1RWaHdidVR3CgliNTlia1NHNkUvOXZ1SXFzSkZVT2gvOHJEdzdyWGtuRmI5aFNrT29GaGlsRDRtSlFU
        RkJVTlBwaWE2NWxOL01lRTkvdwoJQTdHaWNTZW1yQlZCQ1p5SE82enJXdGNrUVMyK1lhc0JhbURCdWRFRy8vL1MzUlMrWVd2VkN4dE5rbHJ4L3orSW1PQTMKCWJDVjFn
        WFdnaVgwNEhRcGxyYXBLNW9NYkVkb29oYkpKMnUweHJ0MXpHM0MrRjVuZGFJc1V5a2hieTlkYWZDcmNvSzNGCglOeDBUWVh4VE1sRTZ0akp1ZEIvZ04wemQ2RG9TSkVI
        V05WblhwYkRSOWR3SzY1cXM2ODdvSUFQam5LK2hqRTF1Vk9mTwoJVmxHTnZHRXJZaFZZOW9GRjJZa0V1U3QwU29hSnNNM1hwcFN5bzF4YVN2cDZ1bjRPTWd6RFRDaVhq
        ZzFHeHJsdWtycnUKCTduWVRQb2hUSHBJK0NhT2Jrb212dlE2QXA2aUJLVEprYUFBRUFEQWtTSkFBZ0FJQW9hR3FBaEpnWUJnWUN0UWNnMkVNCglBd1laQXdRQUdXTUFC
        QkJBQUFGTkFBYXJBVUwwS1lSV2tQSWxqRzhPRlNPeDRnRnlvZjJpdlg5ekFxYlUvMXBGU1djOAoJVFhacmprUERqemVVV0JDZUFCRmFvRDhIczBMSDRUM0M0ODNHZEQz
        d2VtakQxY3JsYWNrelhueEI0S3ZremplUCtqV3MKCXViUHJob0hmSE5oazBwV014QkZYbWlFcUN0eno3ZEFwb0Mwbnp5ZEdKU3hCcVZRVVRxS0Z3WWl1SW8wV0NxTmVG
        a0h0CglFMlQ2YVhsRStZQjc3V0lnQnh1ckZtZmdiTC9KZjRGV21SN0VOOEVXVlBLVWZ6SmFBMnY0ZE0wenpibmM0anNQN3lMZQoJaVlQVFdneFRxRzFSNERucVZWQWdY
        V005SExwSVVjZ21PaTJBVUpUSjJCdEtCRDExTkNBZXdVS2RjWmNVbTVXNHM0Q1gKCVRhMzNrdU52UytHcjFUbE1tVCtHdU13enBsQ0lkdlYrSWVHZHVFR2RST0NQeHBO
        MVNFc3hyNHNySFV4NEk1RzFZelV4Cgl5QUdneTNZQU9IRFoxZ1lreDRCb3Z3bHk2RVJyTU5vTHdnRG90UXVkcVc5cnV2RVg5c09LWVp3Q0tod093MFZSU1M4cwoJRE9O
        M0p0bk9tMHpQK01MOGRvUW0KCTwvZGF0YT4KCTxrZXk+bWFudWZhY3R1cmVyPC9rZXk+Cgk8aW50ZWdlcj4xNDQ3MjUzNTk5PC9pbnRlZ2VyPgoJPGtleT5uYW1lPC9r
        ZXk+Cgk8c3RyaW5nPlZDVlJhY2s8L3N0cmluZz4KCTxrZXk+c3VidHlwZTwva2V5PgoJPGludGVnZXI+MTQ0NzI1MzU3NDwvaW50ZWdlcj4KCTxrZXk+dHlwZTwva2V5
        PgoJPGludGVnZXI+MTYzNTA4NTY3MDwvaW50ZWdlcj4KCTxrZXk+dmVyc2lvbjwva2V5PgoJPGludGVnZXI+MTwvaW50ZWdlcj4KPC9kaWN0Pgo8L3BsaXN0PgoBAAAA
        AAAAAAAA
      >
      FLOATPOS 0 0 0 0
      FXID {5CF094C6-B0B3-8540-ADA2-6988E546D20D}
      WAK 0 0
    >
  >
  <TRACK {14243C7B-D387-124E-9C74-CC85789D3829}
    NAME "Pianoteq 8"
    PEAKCOL 16576
    BEAT -1
    AUTOMODE 0
    PANLAWFLAGS 3
    VOLPAN 0.41096001966125 1 -1 -1 1
    MUTESOLO 0 0 0
    IPHASE 0
    PLAYOFFS 0 1
    ISBUS 0 0
    BUSCOMP 0 0 0 0 0
    SHOWINMIX 1 0.6667 0.5 1 0.5 0 0 0
    FIXEDLANES 9 0 0 0 0
    SEL 0
    REC 1 5088 1 0 0 0 0 0
    MIDI_INPUT_CHANMAP 2
    VU 2
    TRACKHEIGHT 0 0 0 0 0 0 0
    INQ 0 0 0 0.5 100 0 0 100
    NCHAN 2
    FX 1
    TRACKID {14243C7B-D387-124E-9C74-CC85789D3829}
    PERF 0
    AUXRECV 0 0 1 0 0 0 0 0 0 -1:U 99 -1 ''
    MIDIOUT -1
    MAINSEND 1 0
    <FXCHAIN
      WNDRECT 32 136 807 690
      SHOW 0
      LASTSEL 0
      DOCKED 0
      BYPASS 0 0 0
      <VST "VST3i: Pianoteq 8 (Modartt) (1->5ch)" "Pianoteq 8.vst3" 0 "" 1031062328{565354507438717069616E6F74657120} ""
        OMN0Pe5e7f4CAAAAAQAAAAAAAAACAAAAAAAAAAUAAAABAAAAAAAAAAIAAAAAAAAABAAAAAAAAAAIAAAAAAAAABAAAAAAAAAAcC4AAAEAAAD//xAA
        YC4AAAEAAABWc3RXAAAACAAAAAEAAAAAQ2NuSwAALkhGQkNoAAAAAlB0OHEACAQBAAAAAAAAAAAAAAAAAAAAAAAAAAAAAAAAAAAAAAAAAAAAAAAAAAAAAAAAAAAAAAAA
        AAAAAAAAAAAAAAAAAAAAAAAAAAAAAAAAAAAAAAAAAAAAAAAAAAAAAAAAAAAAAAAAAAAAAAAAAAAAAAAAAAAAAAAAAAAAAAAAAAAAAAAAAAAAAAAAAAAtsKCYE/4CAAAA
        SDgSAGQtAAABAAAAEThWOFgtAABQclZLKQAAAlhGVFBILQAACgAAADIwMjUvMDMvMDQXAAAAUGlhbm90ZXEgOC40LjEvMjAyNTAyMDRP0a9xXXjoQr0+XQmLzHkPZGxs
        YQctAAB0ZHRNrgMAABAAAABLMiBEcmVhbXkgKGNvcHkpCgAAAE15IFByZXNldHMHAAAATW9kYXJ0dFEAAABJbmNyZWFzaW5nIHRoZSBzdGVyZW8gd2lkdGggYW5kIHRo
        ZSByZXZlcmIgZHVyYXRpb24gdHVybnMgSzIgaW50byBhIGRyZWFteSBwaWFuby4AAAAARAEAAAkAAABLMiBEcmVhbXkAAAAADwMAAEdSVVUAAAAGAAAAAQPATVRyawAA
        AvkA/wIPIEJsYXogSnVyamV2Y2ljAIA1ADAuAIQCQQAVkEI4PTQhhh2wQH+BIJA+HyU6H4lugDoAgU80AIYXsEAAJoBCAACQQ1IGgD4AE5ApMoMOsEB/gXqAKQA5kD9M
        BYBDABKQOkIZNS6BV4A1AGw6AIM0sEAAHYA/ACaQRUQdLjSCcrBAf4FqgEUAJ5BBShk+Nh2ALgATkDkigyGAOQAssEAwCkAAL4BBADSQRkYPLS4HgD4Agj+wQH+CXoAt
        ABOQQkAOPToGgEYAC5A3KoNBgD0AgiSwQAAVgDcACUIAFJBHRjEsPoJssEBBCEB/gzKQOzoDRDwKQDwPODpBgCwAZzgAUkcATEAANTsAGUQAhR+wQAAXkEhMJCs2g1qw
        QH+Dc5BBMgRFLAw8IQM+Hxg1IYVfgCsAg288AAhIABg+AFxBAINnRQACkEk2gUmANQAJSQACsEAAHJBKRjQqLIMrsEB/g2CAKgAekDkZg1FAIYMrgEoAO5BFNoR6TDqF
        N4A5AIRmRQCBKEwAVkAAgheQTDaCBIBMACaQTUBhsEAAgxKQKUBqsEB/gVSAKQCCA5A1LIMJgDUAgSuQOjKFJz80L4A6AINRkEI0hF5GOCaATQCFeJBNNId5gD8Ag0RN
        AIEiRgBuQgCFCJBLTAqwQAADkCk6g0mwQH+HBYApAIEdkDkwhWE/NoZrQiqHNkc6E4BLAI1EkEsiiy6ARwCBYkIAAD8AZUsAhSU5AFaQSS6BebBAAAuASQATkEpAiSCw
        QH+BcpAuHoUXNSCEA4A1ADqQOR2EOj4qhTeASgBCkEU2jSqAPgCFGZBIMhSARQCBBpBAH5osgEgAA0AAhU+QRh6BZz4VjwuARgAmLgAqPgA2OQCWebBAAIRWgClAACpA
        ACtAACxAAC1AAC5AADRAADVAADdAADhAADlAADpAADtAADxAAD1AAD5AAD9AAEBAAEFAAEJAAENAAERAAEVAAEZAAEdAAEhAAElAAEpAAEtAAExAAE1AAP8vAFByc1VJ
        KQAASQAAAAIAAABrMgAAAAAIAAAAR3JhbmQgSzIAAAAAAAAAAHByb21UAAAAAQAAAAEAAAABAAAAAgAAAGsyAAAAAAgAAABHcmFuZCBLMgAAgD8GAAAAAAAAAAAAAAAA
        AAAAAAAAAAAAAABURv////8AAAAAAAAAAAAAAAAAAAAAcnlhbBAAAAACAAAAAAAAAAAAAAD/////b2xvcxEAAAABAAAAAQAAAEYAAAAAAAAAAAEAAAABAAAAAAAAAAAA
        AAABAAAAAAAAAAAAAAABAAAAAAAAAAAAAAABAAAAAAAAAAAAAAABAAAACwAAAEJyb2NlbGlhbmRlAAAAAAEAAAAAAAAAAAAAAAEAAAAAAAAAAAAAAAEAAAAAAAAAAAAA
        AAEAAAAAAAAAAAAAAOz//78DgAAAYGkAAAAAABBBAACAP2kAAADso+A/aBRdzT8MNcY/qEM1QLwd4T+MI6U/skwDQNi6bz8Avlk+eCNiPzD+vj7gBgo+7Az6P3xn5T8w
        L9q/soIYQDQ78T+8l84/HoogQPgaZUBs2S5AzFWIP+LdCUCg6um+6GYRP+So9T9wwpW+3JrkPw5BEkBM8es/2t4UQCSnVUD0aURA9KScPxAL6D7wrYw+SJMdP/T+jL/8
        HKa/WApyPxQTiD+8I6A/yKU3QCQuuT9YKSY/3AzAP0Bj1b3IxyW/7GPFPwAk/Dyo/Em/cOOkv7C0uT5Iqzi/+qgJQMTcrT/wcfi+PLWLvwigGj98w5s/5Dj+PyDsZz7o
        wU6/sNfGvtBE1L4oy3K/bF6IvzgxST/syPg/wPrRva6mFkBUYcq/eIMIv3i0LT+y/gZA4IcLvoTC7T/YCDo/yBkUP9DcRkDQsihAgORfvQBBOr6Al38+IJIXwBAz7L5I
        pyJAQOSkPfCHjj68TNM/ANeIPHwW7D9oO2VApPyNv14VSkDsp7Y/GAojP5oVAEBkC9c/YkYpQGC0Lj4A8dM8ALkkvkSEyT8o80Q/AwAAAAEAAAAAAAAAAAAAAAMAAAAA
        AAAAAAAAAAAAAAADAAAAAAAAAAAAAAAAAAAAAwAAAAEAAAABAAAAAQAAAAAAgEAAAAAAAQAAAAAAyMLlfyI+A4AAAEAKAAAAAACoQQAA6EEAABhCAAAgQgAAJEIAACxC
        AABgQgAAkkIAAJRCAAC2QgoAAABhpkk/BwPSTj8QzGk/cvxcP19DVD85DmA/MQiAP6s+sz+rPrM/gQEAAAAAAAAAAAAAAAAAoMAAAKBAAAC2QgAAAAADgAAAUAAAcEIB
        AAAAAAAAAAAAAAAVczjChch9wgEAAAAAAAAAAAAAAAAAoMAAAKBAAAAAAAOAAABgAgAAAAAAqEEAAK5CAgAAAAAAAACBA4AAAGACAAAAAACoQQAArkICAAAAAACAP4GA
        AAAAAAAAANIEAAAAAAAAAAAAAAAAAIAAAAA/AACAPwOAAABQAABwQgEAAAAAAAAAA4AAAGBpAAAAAAAQQQAAgD9pAAAAAAAAwAIAAIC/AABAwAAAQMAEAABAQAAAAEAA
        AMBAAACAPwAAgD8GAADAQAAAQEAAAIBAAAAAwAAAQMAAAIBAAACAQAgAAKBAAADAQAAAgEAAAACAAACAPwAAAMAAAIA/AABAwAAAQMADAABAQAAAgEAAAKBAAACgQAYA
        AEDAAACgQAAAAIAAAABAAABAwAAAoEAAAKBAFQAAQEAAAIBAAAAAQAAAAMAAAIA/AACAQAAAAEAAAKBAAABAQAAAQMAAAACAAACAQAAAQMAAAACAAACAPwAAgL8AAEDA
        AACgQAAAQMAAAADAAAAAgAAAAIAFAACgQAAAQMAAAADAAACAvwAAQMAAAEDAAwAAoEAAAADAAABAwAAAQMAPAACAQAAAgD8AAEDAAACAQAAAAAAAAIBAAACAvwAAAEAA
        AKBAAABAwAAAgL8AAADAAADAQAAAoEAAAEDAAABAwAMAAADAAACAPwAAQMAAAEDAAQAAgL8AAIC/BAAAwEAAAIBAAABAwAAAAAAAAAAABwAAgD8AAEDAAAAAwAAAwEAA
        AEDAAADAQAAAQMAAAEDAgQAAAEADgAAAYAIAAAAAAKhBAACuQgIAAAAAAIA/gQIAAAABAAAAVQAAAEVxdWFsIHRlbXBlcmFtZW50ClRoZSBzdGFuZGFyZCB0dW5pbmcs
        IHdoZXJlIHRoZSBvY3RhdmUgaXMgZGl2aWRlZCBpbiAxMiBlcXVhbCBzdGVwcy4MAAAAAADIQgAASEMAAJZDAADIQwAA+kMAABZEAAAvRAAASEQAAGFEAAB6RACAiUQA
        AJZEAQAAAAAAAAAEAAAAAADcQzwAAABFAAAARgAAAAB/AAAAAAAAAAcAAABEZWZhdWx0AAAAAAAAAAACAAAAA4AAAGBpAAAAAAAQQQAAgD9pAAAAAABIwg4AACzCAAAQ
        wgAA4MEAAMjBAACowQAAkMEAAGDBAABAwQAAIMEAABDBAAAAwQAA4MAAAMDAAACgwAAAoMABAACAwAAAgMCBAABAwIIAAADAgwAAgL+HAAAAAMYAAAAAAAAAAAAAgD8B
        AAAAAQAAAAEAAAAYAAAAA4AAAEgBAAAAAACAPwAAAACamZk/A4AAAGACAAAAAACoQQAArkICAAAAAACAP4EDgAAAYAIAAAAAAKhBAACuQgIAAAAAAIA/gQOAAABQAAB6
        RAEAAAAAAAAAA4AAAFAAAHpEAQAAAAAAgD8AAAAAA4AAAFAAAHBCAQAAAAAAAAAAAIA/A4AAAFAAAHBCAQAAAAAAAAABAAAAAAAAAAAAAADNzMy9zczMPQEAAAAAAAAA
        AAAAAAAAAL8AAAA/AACAPwOAAABAAwAAAAAAqEEAAHBCAADYQgMAAAAAAIA/ggAAAAADgAAAYAIAAAAAAKhBAACuQgIAAAAAAAAAgQAAgD8DgAAAYAIAAAAAAKhBAACu
        QgIAAAAAAIA/gQAA8EEDgAAAQAcAAAAAAKhBAACQQgAAqEIAALRCAADAQgAAyEIAANhCBwAAAAAAAACBAABAQAQAAKBAAADgQAAAAEEAABBBAACAPwOAAABAAwAAAAAA
        qEEAAHBCAADYQgMAAAAAAIA/ggOAAABIAQAAAAAAAAABAAAAA4AAAGACAAAAAAAAAAAAgD8CAAAAAAAAAAEAAIA/A4AAAGACAAAAAAAAAAAAgD8CAAAAAACAP4EDgAAA
        QAQAAAAAAAAADJNJPvZ+Pz8AAIA/BAAAAAAAAACBAACAP4EDgAAAYAIAAAAAAAAAAACAPwIAAAAAAAAAgQAAAADNzEw+AAAAAAAAAAAAAAAAAAAAPwEAAAA9CgdAA4AA
        AGACAAAAAACoQQAArkICAAAAAACAP4EAAIC/AAAAPwOAAABIAQAAAAAAgD8BAAAAAQAAAAEAAAALAAAAQnJvY2VsaWFuZGUGAAAAZm9yZXN0AACAQNQtxUEAAIA/AACA
        QAAAAAD+9ug7AABwwc3MTL4AAAAAMzNTQAAAqkMAAIA/AACAPwEAAAAGAAAAmpmZPwAAgD8DgAAAYGkAAAAAABBBAACAP2kAAAAAAIA/k/W5gj9U3o6UP/W5oj/9h5w/
        WyWUP1mGlD8Nw5c/QZqNP1FOkD8u55o/CFWSP1+YpD/rHJc/A1udPy1DoD9zaKU/riGUP3Yzkj+h9qE/OliTP/q4kj9lNpg/znCXPwN4mz+HoqA/j9mmP1Zlqz+fMpo/
        riGUPyApoj8OQJE/4UCgPzIDoT9ljaI/MzOjPwa7rT9sPqY/eCisP2lvpD8vqJs/4UWjP0spkz9TzKA/riGUP+ofmD+h9qE/tU+rP+5OkD/+8Zo/NdKWP/lfjz8nvZ8/
        +DaZP5WfoD9GX6E/0/anP2g/nj9uo5U/iEaXP3gorD8yj5Q/ccmlP7hAvj8KgLE/QbymP2EytT+gw7Q/N3GmPwNboT9eyao/UriePw1zjj+30Zw/vK6TP67TqD8r+5Y/
        RDSuP25pnT/1uZ4/ptChP1rYjz8tCaQ/wHiePyxIpz9OKKQ/A4AAAGBpAAAAAAAQQQAAgD9pAAAAAACAP+gAAAAAA4AAAGBdAAAAAACoQQAAgD9dAAAAAAAAAIcB7dg8
        VL/Rvr36U/S8PLvBPQwLSbxDdMg88zkXvQLGyb2EtIu9NA2PvbjlozwQujo9MZCsPVbwG7x8Pm+9+lDYvDPQq7xOfss8Qd8svR79LzzEcYU9EaCwvWWV6zupb8Q9VoOw
        vS57mD1A5Gg9sY6evUTWv7zELpA9atyLvbxAyb3+wAu9CRWcvI0uyj3xHUu929jwO8flub0N4J29TlOVvIKi3jxzToe9uIkEPXFtjTxpAhu6NMiTvb62gz1NliQ8d8fI
        vWulZr3vPRa8J36RvfiBVb2qtZW8+jbDvTDBBD2puBY9CWSgvUFduT0U2zM97D+RPUDYbj3116s9z7W0PQGuqr0LhFg9s+yZvatUtbzjgbI9sw6ivLrjo73ULYa9EiUr
        veV+R70o7og9zCSfPdEtCzzxh/o7pqnEPfE+2DwSbIw9wa2rvZjcSD0H7RW9AD2oPAEAAAAAAAAAAQAAAAAAAD8AAABAAwAAAAAAgD8AAIA/AACAPwOAAABgaQAAAAAA
        EEEAAIA/aQAAAAAAgD/oA4AAAEADAAAAAACoQQAAcEIAANhCAwAAAAAAgD+CA4AAAEADAAAAAACoQQAAcEIAANhCAwAAAAAAgD+CAACAPwAAgD8HAAAAAACAP5qZmT7N
        zEw/AADAP5qZmT4IAAAAAAAAAAAAAAAAAAAAAAAAAAAAAAAAAAAAAAAAAAAAAAADgAAAYGkAAAAAABBBAACAP2kAAADfS3Y/aJuaej/fOHw/dJFZP+Awdj8W64E/ewdu
        P3NRhz/NE5M/1SWIP/BikD/UZpQ/G7twP0o+dT8dZ7c/Mh5lPwrncj8k2no/KYtiPxp3SD/XP10/OSuGP/72bD8JM6A/7YSOP4M6dD/msJ0/M4Z4P7gMaT/TjHM/htFk
        PyNESj+gOE8/Nod+P3Agij+DCYw/ZryFP4TcoT/Bb6Q/s0t8P9JXdz/Gh3A/5mNGP2M8aD9H+nw/FOxjP5A5iD9THJA/3JdeP36egz92vY8/GEqXP92Yej95LY4/ZJxM
        P5WDYD/CBIs/Yk2VPyEKdj8po2U/iYFSP3YXgT9mpJE/mxOMP4cljT/ZyJY/S4iZP6hDeT+VLlo/XhWKP6woUD/2vaM/bJqFP4qFfD90MVY/+rSKP7mKQj+1RnI/tXGD
        P2XwPT9QAU4/hzyQP1L9lz9oLpY/KNTDP0HCrz/hAXU/KSqgP5kvmj84qIE/3h+aP8j4dT+sFkU/lIKlPyo5Rj+/xGw/0sl9P3FFVD8Ck1c/68s8P0kFez8bPX8/i2SC
        P7KPVT/vTGo/A4AAAGBpAAAAAAAQQQAAgD9pAAAAiUBJP5igQEk/NfhQST+4zko/sElOP2ceUz9pWlY//WtWP/WnWT89eV4/N7VhP8nGYT/IAmU/C9RpPwYQbT9+IW0/
        zklwPx9ycz+Vg3M/jsl4P9Kkfz9mdYI/LoODPzAmhj90mIk/waeMP2RGjz8g2JM/dJCXP2W9mT+lf50//R6iP9yipz89j68/xXi3P8q5vD+gYcA/2L3FPx94yT8c880/
        bKPRP/8g1D9SCdU/k/HVP1Jl2D+VTdk/2TXaP4ep3D/1h90/vJvdPyp63j/N7eA/LMzhPw/W4T8d1uE/HdbhP5kDgAAAYGkAAAAAABBBAACAP2kAAAAAAIA/m0pHgT8p
        /PSAP0Y8gj/36YE/QTGDP/Hegj89JoQ/7dODPzkbhT/qyIQ/NhCGP4BXhz8wBYc/fEyIPy36hz/JyIg/J++IP7m5iT8j5Ik/biuLP5ubiz88PIw/fX2NP3Bojj9fX48/
        d7CQP0ihkj+1tJQ///mXP48cmj+62J0/AACgP1pAoj9thaQ/9vWlPyQDpz83N6c/JyenP0hEpz8nJ6c/NzenPycnpz8nJ6c/gr1Tpz8B6+CmP+vgpj+dA4AAAGBpAAAA
        AAAQQQAAgD9pAAAAuEuCP2jBsYE/PpKAPwktfj8HGnw/qzR8P4NsfT/VWn4/eFF/P749gD/lrIA/VtyAPyzsgD/t44A/X4aAP9EHgD910H8/OQKAP7gWgD+dYIA/zeSA
        P+lagT/UQYE/VoyAP0w5gD8jzIA/12yBP/m+gT/p4YE/MbKBP8p+gT/xRoE/KdWAP66pgD/1DYE/unqBP4CCgT8FRoE/7tuAP/JFgD+xin8/nw1/P/Pofj/RVn4/qZp9
        PwCwfT8QVn4/3Rh/P3kTgD+hoYA/8eOAP+gJgT+mJYE/Y9eAP/thgD/pnoA/pUyBP60egT8g+H8/CA5+P72DfT8HI30/OCF8P8WFez8IT3w/a/t9P5y6fz9ZiIA/a4aA
        P3kHgD8QjX8/ZMN/P8kQgD/49n8/m+J+P/HffT9JBn4/Qh6APx0/jz8t14A/U/KAP2rdgD+xw4A/ekuAP39fhD+UyoU/gO5+P92+fj/vWn4/7cZ+Pxy+fz9eFoA/ZfB/
        PyJRgD8GIYE/G2mBP2cDgT9KuYA/sNiAP1/TgD+0e4A/LAiAP9EKfz9Lkn4//0J/PwEAAABbAAAAAAAQQQOAAABgDAEAAAAAAAAAAIA/DAEAAAAAIEEGAACgQAAAIECa
        mZk/mpkZP5qZmT4AAAAAAAAAAP8AAAAA/wAAAACEAAAgQQOAAABgAgEAAAAAAAAAAIA/AgEAAAAAIEEGAACgQAAAIECamZk/mpkZP5qZmT4AAAAAAAAAAP8AAAAA+gAA
        MEEDgAAAYPQAAAAAAAAAAACAP/QAAAAAACBBBgAAoEAAACBAmpmZP5qZGT+amZk+AAAAAAAAAAD/AAAAAOwAAEBBA4AAAGDuAAAAAAAAAAAAgD/uAAAAAAAgQQYAAKBA
        AAAgQJqZmT+amRk/mpmZPgAAAAAAAAAA/wAAAADmAABQQQOAAABg6QAAAAAAAAAAAIA/6QAAAAAAIEEGAACgQAAAIECamZk/mpkZP5qZmT4AAAAAAAAAAP8AAAAA4QAA
        YEEDgAAAYNYAAAAAAAAAAACAP9YAAAAAACBBBgAAoEAAACBAmpmZP5qZGT+amZk+AAAAAAAAAAD/AAAAAM4AAHBBA4AAAGDRAAAAAAAAAAAAgD/RAAAAAAAgQQYAAKBA
        AAAgQJqZmT+amRk/mpmZPgAAAAAAAAAA/wAAAADJAACAQQOAAABgzgAAAAAAAAAAAIA/zgAAAAAAIEEGAACgQAAAIECamZk/mpkZP5qZmT4AAAAAAAAAAP8AAAAAxgAA
        iEEDgAAAYMoAAAAAAAAAAACAP8oAAAAAACBBBgAAoEAAACBAmpmZP5qZGT+amZk+AAAAAAAAAAD/AAAAAMIAAJBBA4AAAGDIAAAAAAAAAAAAgD/IAAAAAAAgQQYAAKBA
        AAAgQJqZmT+amRk/mpmZPgAAAAAAAAAA/wAAAADAAACYQQOAAABgxgAAAAAAAAAAAIA/xgAAAAAAIEEGAACgQAAAIECamZk/mpkZP5qZmT4AAAAAAAAAAP8AAAAAvgAA
        oEEDgAAAYMIAAAAAAAAAAACAP8IAAAAAACBBBgAAoEAAACBAmpmZP5qZGT+amZk+AAAAAAAAAAD/AAAAALoAAKhBA4AAAGDgAAAAAAAAAAAAgD/gAAAAAAAgQQYAAKBA
        AAAgQJqZmT+amRk/mpmZPgAAAAAAAAAA/wAAAADYAACwQQOAAABg0gAAAAAAAAAAAIA/0gAAAAAAIEEGAACgQAAAIECamZk/mpkZP5qZmT4AAAAAAAAAAP8AAAAAygAA
        uEEDgAAAYMoAAAAAAAAAAACAP8oAAAAAACBBBgAAoEAAACBAZmYGwJqZGT+amZk+AAAAAAAAAAD/AAAAAMIAAMBBA4AAAGDuAAAAAAAAAAAAgD/uAAAAAAAgQQYAAKBA
        AAAgQJqZmT+amRk/mpmZPgAAAAAAAAAA/wAAAADmAADIQQOAAABg2QAAAAAAAAAAAIA/2QAAAMzMGkEGERGdQAAAAACamZk/3t0dPyIioj4AAAAAAAAAAP8AAAAA0QAA
        0EEDgAAAYMgAAAAAAAAAAACAP8gAAACZmRVBBiIimkCamRlAmpmZPyIiIj+rqqo+AAAAAAAAAAD/AAAAAMAAANhBA4AAAGC8AAAAAAAAAAAAgD+8AAAAZmYQQQYzM5dA
        zMy8v5qZmT9mZiY/NDOzPgAAAAAAAAAA/wAAAAC0AADgQQOAAABg0wAAAAAAAAAAAIA/0wAAADIzC0EGRESUQDMzM8CamZk/q6oqP7y7uz4AAAAAAAAAAP8AAAAAywAA
        6EEDgAAAYN0AAAAAAAAAAACAP90AAAD//wVBBgAAgEAzMxNAmpmZP/DuLj9ERMQ+AAAAAAAAAAD/AAAAANUAAPBBA4AAAGDRAAAAAAAAAAAAgD/RAAAAzMwAQQZmZoZA
        MzNTQJqZmT80MzM/zczMPgAAAAAAAAAA/wAAAADJAAD4QQOAAABgxwAAAAAAAAAAAIA/xwAAADIz90AGeHeLQPmKD0CamZk/eHc3P1ZV1T4AAAAAAAAAAP8AAAAAvwAA
        AEIDgAAAYL8AAAAAAAAAAACAP78AAADMzOxABomIiEDbtg1AmpmZP7y7Oz/e3d0+AAAAAAAAAAD/AAAAALcAAARCA4AAAGDKAAAAAAAAAAAAgD/KAAAAZmbiQAaamYVA
        vuILQJqZmT8AAEA/ZmbmPgAAAAAAAAAA/wAAAADCAAAIQgOAAABg0gAAAAAAAAAAAIA/0gAAAAAA2EAGq6qCQKEOCkCamZk/RUREP+/u7j4AAAAAAAAAAP8AAAAAygAA
        DEIDgAAAYMMAAAAAAAAAAACAP8MAAACZmc1ABnh3f0CDOghAmpmZP4mISD94d/c+AAAAAAAAAAD/AAAAALsAABBCA4AAAGDEAAAAAAAAAAAAgD/EAAAAMzPDQAaamXlA
        ZmYGQJqZmT/NzEw/AAAAPwAAAAAAAAAA/wAAAAC8AAAUQgOAAABgxAAAAAAAAAAAAIA/xAAAAAAA0EAGZmamQGZm9j/NzIw/vLs7P6uq6j4AAAAAAAAAAP8AAAAAvAAA
        GEIDgAAAYMMAAAAAAAAAAACAP8MAAACqqqJABgAAUED//98/AACAP6uqKj9VVdU+AAAAAAAAAAD/AAAAALsAABxCA4AAAGCrAAAAAAAAAAAAgD+rAAAAZmaSQAY0MztA
        mZnJP2dmZj+amRk/AADAPgAAAAAAAAAA/wAAAACjAAAgQgOAAABgqwAAAAAAAAAAAIA/qwAAAGZmxkAGAAAQQTIzsz/NzEw/iIgIP6qqqj4AAAAAAAAAAP8AAAAAowAA
        JEIDgAAAYKgAAAAAAAAAAACAP6gAAAC9u2NABpqZEUDNzJw/NDMzP/Du7j5WVZU+AAAAAAAAAAD/AAAAAKAAAChCA4AAAGCTAAAAAAAAAAAAgD+TAAAAMzNDQAaamfk/
        ZmaGP5qZGT/NzMw+AACAPgAAAAAAAAAA/wAAAACLAAAsQgOAAABgkwAAAAAAAAAAAIA/kwAAAKuqIkAGAQDQPwAAYD8BAAA/q6qqPlZVVT4AAAAAAAAAAP8AAAAAiwAA
        MEIDgAAAYJMAAAAAAAAAAACAP5MAAAAAAGBABjMzE0AyMzM/zczMPoiIiD6qqio+AAAAAAAAAAD/AAAAAIsAADRCA4AAAGCAAAAAAAAAAAAAgD+AAAAAMzPDPwaamXk/
        ZmYGP5qZmT7NzEw+AAAAPgAAAAAAAAAA+AAAOEIDgAAAYIAAAAAAAAAAAACAP4AAAAAjIoI/BmhmJj80M7M+z8xMPoqICD6sqqo9AAAAAAAAAAD4AAA8QgOAAABggAAA
        AAAAAAAAAIA/gAAAACAiAj8GZGamPjAzMz7KzMw9h4iIPaiqKj0AAAAAAAAAAPgAAEBCA4AAAGBsAAAAAAAAAAAAgD9sAAAAAAAAAOsAAERCA4AAAGBsAAAAAAAAAAAA
        gD9sAAAAAAAAAOsAAEhCA4AAAGBsAAAAAAAAAAAAgD9sAAAAAAAAAOsAAExCA4AAAGBmAAAAAAAAAAAAgD9mAAAAAAAAAOUAAFBCA4AAAGBXAAAAAAAAAAAAgD9XAAAA
        AAAAANYAAFRCA4AAAGBXAAAAAAAAAAAAgD9XAAAAAAAAANYAAFhCA4AAAGBWAAAAAAAAAAAAgD9WAAAAAAAAANUAAFxCA4AAAGBJAAAAAAAAAAAAgD9JAAAAAAAAAMgA
        AGBCA4AAAGBJAAAAAAAAAAAAgD9JAAAAAAAAAMgAAGRCA4AAAGBIAAAAAAAAAAAAgD9IAAAAAAAAAMcAAGhCA4AAAGBEAAAAAAAAAAAAgD9EAAAAAAAAAMMAAGxCA4AA
        AGBAAAAAAAAAAAAAgD9AAAAAAAAAAL8AAHBCA4AAAGA5AAAAAAAAAAAAgD85AAAAAAAAALgAAHRCA4AAAGA5AAAAAAAAAAAAgD85AAAAAAAAALgAAHhCA4AAAGA2AAAA
        AAAAAAAAgD82AAAAAAAAALUAAHxCA4AAAGAxAAAAAAAAAAAAgD8xAAAAAAAAALAAAIBCA4AAAGAwAAAAAAAAAAAAgD8wAAAAAAAAAK8AAIJCA4AAAGAtAAAAAAAAAAAA
        gD8tAAAAAAAAAKwAAIRCA4AAAGArAAAAAAAAAAAAgD8rAAAAAAAAAKoAAIZCA4AAAGAnAAAAAAAAAAAAgD8nAAAAAAAAAKYAAIhCA4AAAGAmAAAAAAAAAAAAgD8mAAAA
        AAAAAKUAAIpCA4AAAGAkAAAAAAAAAAAAgD8kAAAAAAAAAKMAAIxCA4AAAGAiAAAAAAAAAAAAgD8iAAAAAAAAAKEAAI5CA4AAAGAgAAAAAAAAAAAAgD8gAAAAAAAAAJ8A
        AJBCA4AAAGAdAAAAAAAAAAAAgD8dAAAAAAAAAJwAAJJCA4AAAGAcAAAAAAAAAAAAgD8cAAAAAAAAAJsAAJRCA4AAAGAbAAAAAAAAAAAAgD8bAAAAAAAAAJoAAJZCA4AA
        AGAZAAAAAAAAAAAAgD8ZAAAAAAAAAJgAAJhCA4AAAGAYAAAAAAAAAAAAgD8YAAAAAAAAAJcAAJpCA4AAAGAWAAAAAAAAAAAAgD8WAAAAAAAAAJUAAJxCA4AAAGAVAAAA
        AAAAAAAAgD8VAAAAAAAAAJQAAJ5CA4AAAGAUAAAAAAAAAAAAgD8UAAAAAAAAAJMAAKBCA4AAAGATAAAAAAAAAAAAgD8TAAAAAAAAAJIAAKJCA4AAAGASAAAAAAAAAAAA
        gD8SAAAAAAAAAIEAAABAAgAAwEAAAAAAAAAAAIwAAKRCA4AAAGARAAAAAAAAAAAAgD8RAAAAZmZmwAIzM7O/AAAAAAAAAACNAACmQgOAAABgEAAAAAAAAAAAAIA/EAAA
        AAAAAACPAACoQgOAAABgDwAAAAAAAAAAAIA/DwAAAAAAAACOAACqQgOAAABgDgAAAAAAAAAAAIA/DgAAAAAAAACNAACsQgOAAABgDQAAAAAAAAAAAIA/DQAAAAAAAACM
        AACuQgOAAABgDAAAAAAAAAAAAIA/DAAAAAAAkMACAAAAwAAAAAAAAAAAiAAAsEIDgAAAYAwAAAAAAAAAAACAPwwAAAAAAAAAiwAAskIDgAAAYAsAAAAAAAAAAACAPwsA
        AAAAAAAAigAAtEIDgAAAYAoAAAAAAAAAAACAPwoAAADNzMy9AQAAAAAAAAAAhwAAtkIDgAAAYAoAAAAAAAAAAACAPwoAAAAAAPDAAQAAAAAAAAAAAmZm5r8AAAAAAAAA
        AIQAALhCA4AAAGAJAAAAAAAAAAAAgD8JAAAAAADgwAEAAAAAAAAAAIYAALpCA4AAAGAJAAAAAAAAAAAAgD8JAAAAMzMrwQIzMzPAAAAAAAAAAACFAAC8QgOAAABgCAAA
        AAAAAAAAAIA/CAAAAM3M3MABAAAAAAAAAACFAAC+QgOAAABgCAAAAAAAAAAAAIA/CAAAAAAAoMABAAAAAAAAAACFAADAQgOAAABgCAAAAAAAAAAAAIA/CAAAADMz88AB
        AAAAAAAAAACFAADIQgOAAABgCAAAAAAAAAAAAIA/CAAAAAAAEMEBAAAAAAAAAACFAADOQgOAAABgCAAAAAAAAAAAAIA/CAAAAAAAQMABAAAAAAAAAACFAADYQgOAAABg
        BAAAAAAAAAAAAIA/BAAAAAAAQMABAAAAAAAAAACB3L3cPQOAAABAFgAAAAAAEEEAAKhBAADAQQAA4EEAAOhBAAAAQgAACEIAABhCAAAkQgAAMEIAAEBCAABMQgAAYEIA
        AHBCAACAQgAAiEIAAJBCAACYQgAAoEIAAKhCAADAQgAA2EIWAAAApiAxPwS05Yw/pFOPPzTXkT9qapE/amqRP4LtgY4/AWpqkT9qapE/BO2Bjj+atos/7YGOP5q2iz+a
        tos/ga/rVz+BW+1FPwLnpik/QYPtPgEAAAAAAAAAAQAAADMzMz9mZqY/AQAAAAEAAAABAAAAZmZmP83MjD8BAAAAAAAAAAEAAAAzMzM/ZmamPwEAAAAAAAAAAQAAADMz
        Mz9mZqY/AQAAAAAAAAABAAAAMzMzP2Zmpj8BAAAAAAAAAAAA8EIAAAAADgAAAAAAAD/NzMw9zcxMPgAAAD8DAAAAAAAAAAOAAABIAQAAAAAAAAAAAAAAA4AAAEgBAAAA
        AAAAAAQAAAACAAAAAwAAAAQAAAABAAAAAQAAAAAAgD8AAIA/AQAAAAEAAAABAAAAAQAAAAEAAAAAAIA/AAAAAAAAgEAAALRCRgAAAAADgAAASAEAAAAAAAAAAAAAAAOA
        AABIAQAAAAAAAAAAAAAAAAAAAAOAAABIAQAAAAAAAAAAAAAAAwAAAAcAAAABAAAAAAAAAA4AAAAQAAAAAAAAAI/CdT0AAIA/AAAAAAAAAL8AAHBCAAAAAAAAAAAAAAAA
        AAAAAAAAAAAAAAAAAAAAAAAAAAAAAAAAAAAAAAMAAAAKAAAAAQAAAAAAAAAOAAAAEAAAAAAAAAAAAMhCAAAAAAAAAD8AAABAAACWQwAAAAAAAAA/AACAPwBAnEUAAABA
        AACAPwAAQEAAAAAAAAAAAAAAAAADAAAACgAAAAEAAAAAAAAADgAAABAAAAAAAAAAAADIQgAAAAAAAIA/AAAAQABAnEUAAABAmpmZPgAAgD8AQBxGAAAAAAAAgD8AAEBA
        AAAAAAAAAAAAAAAAAQAAAAEAAAAAAIA/AABAwQAAAAADAAAAAwAAAAAAAAABAAAABQAAAAQAAAABAAAAAwAAAAAAgD+amdk/AADAPwAArkK/Dg3CAAAAAAUAAAAAAAAA
        AAAwwQAAwMIAAMDCAADAwgUAAAAAAAAAKVwPPQAAAAAAAAAAAAAAAAUAAAAAAAAAAAAAAAAAAAAAAAAAAAAAAAEAAAAAAAAABAAAAAEAAAADAAAAMzOzP5qZmT8AAMA/
        AABsw78ODcIAAAAABQAAAAAAcMEAAAAAAADAwgAAwMIAAMDCBQAAAArXIz367Ws6AAAAAAAAAAAAAAAABQAAAAAAAAAAAAAAAAAAAAAAAAAAAAAAAQAAAAAAAAAEAAAA
        AAAAAAMAAACPwvU/PQpXvx+Faz8AALRCAAAAAAAAAAAFAAAAAABAwQAAQMEAAHDCAABwwgAAcMIFAAAAAAAAAAAAAAAAAAAAAAAAAAAAAAAFAAAAAAAAAAAAAAAAAAAA
        AAAAAAAAAAABAAAAAAAAAAQAAAAAAAAAAwAAADMzM79cj8I+rkdhPwAAAAAAAAAAAAAAAAUAAAAAAEDBAABAwQAAcMIAAHDCAABwwgUAAAAAAAAAAAAAAAAAAAAAAAAA
        AAAAAAUAAAAAAAAAAAAAAAAAAAAAAAAAAAAAAAEAAAAAAAAABAAAAAAAAAADAAAAuB7FPz0KVz+uR+E/AAAAAAAAAAAAAAAABQAAAAAAQMEAAEDBAABwwgAAcMIAAHDC
        BQAAAAAAAAAAAAAAAAAAAAAAAAAAAAAABQAAAAAAAAAAAAAAAAAAAAAAAAAAAAAAAQAAAAAAAAABAAAAAQAAAAEAAAADAAAAMzMzP83MTL4zM7M/AACQQQAAAAAAAAAA
        AAAAAAEAAAAAAAAAAAAAAAAAAABKVUNFUHJpdmF0ZURhdGEAAQFCeXBhc3MAAQEDAB0AAAAAAAAASlVDRVByaXZhdGVEYXRhAAAAAAAAAAA=
        AAAQAAAA
      >
      PRESETNAME "K2 Dreamy (copy)"
      FLOATPOS 32 149 592 662
      FXID {6C67196E-99C4-ED4E-8335-569CBD97CA14}
      WAK 0 0
      BYPASS 0 0 0
      <AU "AU: VCV Rack 2 FX (VCV)" "VCV: VCV Rack 2 FX" "" 1635085670 1447253574 1447253599
        6QMAAAAAAAAQAAAAAQAAAAAAAAACAAAAAAAAAAAAAAAAAAAAAAAAAAAAAAAAAAAAAAAAAAAAAAAAAAAAAAAAAAAAAAAAAAAAAAAAAAAAAAAAAAAAAAAAAAAAAAAAAAAA
        AAAAAAAAAAAAAAAAAAAAAAAAAAAAAAAAAAAAAAAAAAAAAAAAAAAAAAAAAAAQAAAAAQAAAAAAAAACAAAAAAAAAAAAAAAAAAAAAAAAAAAAAAAAAAAAAAAAAAAAAAAAAAAA
        AAAAAAAAAAAAAAAAAAAAAAAAAAAAAAAAAAAAAAAAAAAAAAAAAAAAAAAAAAAAAAAAAAAAAAAAAAAAAAAAAAAAAAAAAAAAAAAAAAAAAAAAAACuCAAAPD94bWwgdmVyc2lv
        bj0iMS4wIiBlbmNvZGluZz0iVVRGLTgiPz4KPCFET0NUWVBFIHBsaXN0IFBVQkxJQyAiLS8vQXBwbGUvL0RURCBQTElTVCAxLjAvL0VOIiAiaHR0cDovL3d3dy5hcHBs
        ZS5jb20vRFREcy9Qcm9wZXJ0eUxpc3QtMS4wLmR0ZCI+CjxwbGlzdCB2ZXJzaW9uPSIxLjAiPgo8ZGljdD4KCTxrZXk+ZGF0YTwva2V5PgoJPGRhdGE+CglLTFV2L1FC
        SXRTY0Fla0pFRERkZ2EyZ0FmL0tmZi83NUZmNzFkR0pEdkpUYnV1VmVhdEw2cDkycWpROUVkQWE0YWlnMAoJaFhkRlJFU2t2TzNKd3NzVndIQzNQNkVVdkFDdEFMVUFj
        SkVRM2QxS2hHNGMweWtTV2ZCVUtjTzdsY2N2cXh1WDNNdmgKCTNjcURaZ2wzNHcrZHpBbkszcTA4bkMxdllkNk5RN2RPRXAxNHQ1S0J3YllZL0FYalc4czUrUC9RblNv
        c0dnNmUwWVFGCgl3ZkphZld6L3J4U0NoWU5Db1VIa29VT0VlZ0NncUFOTmlFNnVGQzNVUnRGY0pOY3BBRUFSVUVwcFVFcHRVQlVYRnhGcQoJZzFMcVFTbDFRU25GbEZJ
        RGxGSVBxaUcweFlKMkpvVlNEMHFBZ1FEOVNwcDR5dCtLdFJmLysrRmE3VGtZM2VybTJQK3IKCWZpLyt2MW9tTEFIZTNiMzh2M1RkT01Xemd0cElNaWZ2N240UU1lSGRP
        SlZNQmRTcEUvcDRkM2NyRHdiUmpVdDBVcVhICgl1Mjk5OHZUR0o1NlBLNC92eGgrSTVPSThYVUxIcnhjWjJCcDhEcnBuNjVmVmpkTnM1OFM3dXlWVG1wRjNkelBxeklo
        RQoJTVFTNTlja1IzbzFiK2x5SlUrbEtlRGNPMVl4c293Zjh4cXozMnEvR09NakVidnlwM3QzZHJXU1lxTTNQbFhpMzhwRFEKCXJVVElZR09ydWVXaWpOL2M4aERkM2Nx
        RGtiRkorVEk2S2Q5YUFldXR0eGpHNG9NdFNvWkZGbGxjb295UWFReTIvMzhNCgk0OTd5OEwzbFhWdXNHMytxdXhlZmFRNHlzdjFpeXl1UHQ3ZzhLWjZXd1FhMWRqcUk4
        dVZMS050N2l6VzVPaFpFTjE2ZgoJS3ZIdVM0R25hWjFac2h2WGNIQmxnS2RwSGF1VE9tSEJ1ZGJ4YnZwY2lnMTdJKy91eGlkTElXaHFPTjdkeWtNRDN5dVoKCXZCdW5H
        ZENzd0JBNWtMZ1hrQWtJaFd4dkxmYnduMm1OZWQzNFUxMlJjQ09YS0xZMWdmTjRCODRYNXdpcTYzWGpsS05hCglXSEN1eFFnZGlrVHhOQ1gwbVE1REx0ZFllK2hZbEpC
        Qng3UUlmUXhzL3c4K1d3KzJsNDVCeUZENE1QN1hXcXV4Rjk5NwoJYnoyRTBIbHNEaU1TT2VEZHVIVHRkYUFLVlp3am5DK0UydnhjQ3B3am5HK0VycldYVFQ0WUg1UU5Z
        enFyRmVoV1BLV00KCXB3WE9FYzUzQTlkSnhYV0NxQVhPRVZRbmlGbzRrTmlZbGs1UUNlY0lndEFwUnlMMW9WREdkZ05iV0FyTmlOcU1qSHRCCglPU2lWSXE0ODZHUm5w
        QnVIS01lVklxdVZiNHVSRVQ3WDJHTFBHQm5YK3JVQ2dNNm9JVDFsd05BQUFBQkFDZ0JJd0FJQQoJbVJtcURSS2dZQkFRQ1pNVVJGRVFCaWpLS0NJQXlDQUFoRUFBQUJB
        d0ZFaERhd0FZOUNzRTRUWHNiNFlWQTNpczVRZzEKCUdVWE93UjRML0FGY3RvdWdYczJ4RDQ2UDBuQ1lNNnFnNUJTUVN4VUpsU0NQUHFwTVRBSExLVmlGM1R6WlRRQnNN
        Z25wCglSdEZOSURyNUVzNGVGZ2VTMkp4dU1mbUpVdXFueWZyRGs3Z1hSck9HeVlIVnBhK2RSMGlMTyszbEwxT2FFcVdTVGxvbAoJNmNsRzA1TlFPVGl2VHp5by9hU2t4
        RHp4b3RhVGttSTlLU0N5VGk1TGNoZk15T0pzWEhmSWtLY1pLQW5EMVpyS0xMeHoKCU9RVWtXeE9FQTFVaFBpN0tRZnlKNDFNV0pQSzc4R1U4cE5kQUNwNm1STUNXdTRF
        SnlQdEJLQ0VxNGJzekZFMTJnODJoCgl2c3lIN0JYeGdVR3JvQmMzUlJCMUt3ZFFmakJvRGE3a1V5bzk2NWk3NGZqdTBGMzBkK0l6VjQ1aFhXcWpBMWhWNmhHaQoJd0NT
        TlhUamltOEpTVFlTNkg4ZWljR0lyVTRrd0dCM29BRS92c2hwVFlTbWhWVEZMQU5hOWRlS2RHL1FEM2ZpWjlIbFUKCWlsUkdOTTZOSlhNZ0VkZDNSU1N2TGhoTWNhUnFi
        ZFNpWHVWU1Z0TkxOaDEyY3lNaGkyTTFjZFlBRFBQckFENkFzbVlaCglrTUFoQi9kYkdRMWRCNFBkSWhRZXdCWjZoalAxMmsxZnA0VVlqM3hmV2NDRmgwRGpyMUx5c0tY
        Z3Q2VDlZZDZjWTJMVwoJNy92QS93PT0KCTwvZGF0YT4KCTxrZXk+bWFudWZhY3R1cmVyPC9rZXk+Cgk8aW50ZWdlcj4xNDQ3MjUzNTk5PC9pbnRlZ2VyPgoJPGtleT5u
        YW1lPC9rZXk+Cgk8c3RyaW5nPlZDVlJhY2s8L3N0cmluZz4KCTxrZXk+c3VidHlwZTwva2V5PgoJPGludGVnZXI+MTQ0NzI1MzU3NDwvaW50ZWdlcj4KCTxrZXk+dHlw
        ZTwva2V5PgoJPGludGVnZXI+MTYzNTA4NTY3MDwvaW50ZWdlcj4KCTxrZXk+dmVyc2lvbjwva2V5PgoJPGludGVnZXI+MTwvaW50ZWdlcj4KPC9kaWN0Pgo8L3BsaXN0
        PgoEAAAAZHVvAAAAAAAA
      >
      PRESETNAME duo
      FLOATPOS 0 0 0 0
      FXID {B16322B3-AEEB-5747-AC63-1C6F8AC75F9E}
      WAK 0 0
    >
  >
>
