<REAPER_PROJECT 0.1 "7.34/macOS-arm64" 1742391385
  <NOTES 0 2
  >
  RIPPLE 0
  GROUPOVERRIDE 0 0 0
  AUTOXFADE 129
  ENVATTACH 3
  POOLEDENVATTACH 0
  MIXERUIFLAGS 11 48
  ENVFADESZ10 40
  PEAKGAIN 1
  FEEDBACK 0
  PANLAW 1
  PROJOFFS 0 0 0
  MAXPROJLEN 0 0
  GRID 3199 8 1 8 1 0 0 0
  TIMEMODE 1 5 -1 30 0 0 -1
  VIDEO_CONFIG 0 0 65792
  PANMODE 3
  PANLAWFLAGS 3
  CURSOR 48
  ZOOM 1.25791152124754 0 0
  VZOOMEX 3 0
  USE_REC_CFG 0
  RECMODE 1
  SMPTESYNC 0 30 100 40 1000 300 0 0 1 0 0
  LOOP 0
  LOOPGRAN 0 4
  RECORD_PATH "Media" ""
  <RECORD_CFG
    ZXZhdxgAAQ==
  >
  <APPLYFX_CFG
  >
  RENDER_FILE ""
  RENDER_PATTERN ""
  RENDER_FMT 0 2 0
  RENDER_1X 0
  RENDER_RANGE 1 0 0 18 1000
  RENDER_RESAMPLE 3 0 1
  RENDER_ADDTOPROJ 0
  RENDER_STEMS 0
  RENDER_DITHER 0
  TIMELOCKMODE 1
  TEMPOENVLOCKMODE 1
  ITEMMIX 1
  DEFPITCHMODE 589824 0
  TAKELANE 1
  SAMPLERATE 48000 0 0
  <RENDER_CFG
    ZXZhdxgAAQ==
  >
  LOCK 1
  <METRONOME 6 2
    VOL 0.25 0.125
    BEATLEN 4
    FREQ 1760 880 1
    SAMPLES "" "" "" ""
    SPLIGNORE 0 0
    SPLDEF 2 660 "" 0 ""
    SPLDEF 3 440 "" 0 ""
    PATTERN 0 169
    PATTERNSTR ABBB
    MULT 1
  >
  GLOBAL_AUTO -1
  TEMPO 120 4 4 0
  PLAYRATE 1 0 0.25 4
  SELECTION 240 280
  SELECTION2 240 280
  MASTERAUTOMODE 0
  MASTERTRACKHEIGHT 0 0
  MASTERPEAKCOL 16576
  MASTERMUTESOLO 0
  MASTERTRACKVIEW 0 0.6667 0.5 0.5 0 0 0 0 0 0 0 0 0 0
  MASTERHWOUT 0 0 1 0 0 0 0 -1
  MASTER_NCH 2 2
  MASTER_VOLUME 1.08695635014794 0 -1 -1 1
  MASTER_PANMODE 3
  MASTER_PANLAWFLAGS 3
  MASTER_FX 1
  MASTER_SEL 0
  <MASTERFXLIST
    WNDRECT 32 612 727 199
    SHOW 0
    LASTSEL 0
    DOCKED 0
    BYPASS 0 0 0
    <VST "VST3: Mverb2020 (SocaLabs)" Mverb2020.vst3 0 "" 1207627476{5653544D7665726D7665726232303230} ""
      1O76R+5e7f4CAAAAAQAAAAAAAAACAAAAAAAAAAIAAAABAAAAAAAAAAIAAAAAAAAAGAMAAAEAAAD//xAA
      CAMAAAEAAABWc3RXAAAACAAAAAEAAAAAQ2NuSwAAAvBGQkNoAAAAAk12ZXIAAQEAAAAAAAAAAAAAAAAAAAAAAAAAAAAAAAAAAAAAAAAAAAAAAAAAAAAAAAAAAAAAAAAA
      AAAAAAAAAAAAAAAAAAAAAAAAAAAAAAAAAAAAAAAAAAAAAAAAAAAAAAAAAAAAAAAAAAAAAAAAAAAAAAAAAAAAAAAAAAAAAAAAAAAAAAAAAAAAAAAAAAACWDw/eG1sIHZl
      cnNpb249IjEuMCIgZW5jb2Rpbmc9IlVURi04Ij8+DQoNCjxzdGF0ZSB2YWx1ZVRyZWU9IiZsdDs/eG1sIHZlcnNpb249JnF1b3Q7MS4wJnF1b3Q7IGVuY29kaW5nPSZx
      dW90O1VURi04JnF1b3Q7PyZndDsmIzEzOyYjMTA7JiMxMzsmIzEwOyZsdDtzdGF0ZS8mZ3Q7JiMxMzsmIzEwOyINCiAgICAgICBwcm9ncmFtPSI1Ij4NCiAgPHBhcmFt
      IHVpZD0iTUlYIiB2YWw9IjUuMzA0Njg3NSIvPg0KICA8cGFyYW0gdWlkPSJQUkVERUxBWSIgdmFsPSIwLjAiLz4NCiAgPHBhcmFtIHVpZD0iRUFSTFlNSVgiIHZhbD0i
      NzUuMCIvPg0KICA8cGFyYW0gdWlkPSJTSVpFIiB2YWw9IjUwLjAiLz4NCiAgPHBhcmFtIHVpZD0iREVOU0lUWSIgdmFsPSI1MC4wIi8+DQogIDxwYXJhbSB1aWQ9IkJB
      TkRXSURUSEZSRVEiIHZhbD0iMTAwLjAiLz4NCiAgPHBhcmFtIHVpZD0iREVDQVkiIHZhbD0iNTAuMCIvPg0KICA8cGFyYW0gdWlkPSJEQU1QSU5HRlJFUSIgdmFsPSIw
      LjAiLz4NCiAgPHBhcmFtIHVpZD0iR0FJTiIgdmFsPSIxMDAuMCIvPg0KPC9zdGF0ZT4NCgAAAAAAAAAASlVDRVByaXZhdGVEYXRhAAEBQnlwYXNzAAEBAwAdAAAAAAAA
      AEpVQ0VQcml2YXRlRGF0YQAAAAAAAAAA
      AFN1YnRsZQAQAAAA
    >
    PRESETNAME Subtle
    FLOATPOS 64 608 512 171
    FXID {C25DC54B-75F6-554C-A065-38E71FEC530E}
    WAK 0 0
    BYPASS 0 0 0
    <VST "VST: ReaComp (Cockos)" reacomp.vst.dylib 0 "" 1919247213<5653547265636D726561636F6D700000> ""
      bWNlcu9e7f4EAAAAAQAAAAAAAAACAAAAAAAAAAQAAAAAAAAACAAAAAAAAAACAAAAAQAAAAAAAAACAAAAAAAAAFwAAAAAAAAAAAAAAA==
      776t3g3wrd6bJAA+UMivOzSFAD0K16M8AAAAAAAAAACefBc/u2xPO5EpbD8AAAAAvTeGNQAAgD8AAAAAHm1EQAAAAAAAAAAAAAAAAAAAAAAAAAAAAAAAAAAAAAA=
      AHN0b2NrIC0gTWFzdGVyIEJ1cyBHbHVlAAAAAAA=
    >
    PRESETNAME "stock - Master Bus Glue"
    FLOATPOS 32 417 567 394
    FXID {DB68F64F-E035-0346-AB74-E02C7679A681}
    WAK 0 0
  >
  <MASTERPLAYSPEEDENV
    EGUID {62061924-2D06-CA41-B745-01B95C42C262}
    ACT 0 -1
    VIS 0 1 1
    LANEHEIGHT 0 0
    ARM 0
    DEFSHAPE 0 -1 -1
  >
  <TEMPOENVEX
    EGUID {A8FBE181-5174-A549-BE0D-A3409F4C84EC}
    ACT 0 -1
    VIS 1 0 1
    LANEHEIGHT 0 0
    ARM 0
    DEFSHAPE 1 -1 -1
  >
  <PROJBAY
  >
  <TRACK {58856C49-DCFE-B24A-85A4-61A95C2CD20B}
    NAME "Generated score"
    PEAKCOL 16576
    BEAT -1
    AUTOMODE 0
    PANLAWFLAGS 3
    VOLPAN 1.82452995868445 0 -1 -1 1
    MUTESOLO 0 0 0
    IPHASE 0
    PLAYOFFS 0 1
    ISBUS 0 0
    BUSCOMP 0 0 0 0 0
    SHOWINMIX 1 0.6667 0.5 1 0.5 0 0 0
    FIXEDLANES 9 0 0 0 0
    SEL 1
    REC 1 5088 1 0 0 0 0 0
    VU 2
    TRACKHEIGHT 0 0 0 0 0 0 0
    INQ 0 0 0 0.5 100 0 0 100
    NCHAN 2
    FX 1
    TRACKID {58856C49-DCFE-B24A-85A4-61A95C2CD20B}
    PERF 0
    MIDIOUT -1
    MAINSEND 1 0
    <FXCHAIN
      WNDRECT 0 121 807 690
      SHOW 0
      LASTSEL 0
      DOCKED 0
    >
    <ITEM
      POSITION 0
      SNAPOFFS 0
      LENGTH 4
      LOOP 1
      ALLTAKES 0
      FADEIN 1 0 0 1 0 0 0
      FADEOUT 1 0 0 1 0 0 0
      MUTE 0 0
      SEL 0
      IGUID {6C5860C5-3E88-844D-B3AC-0FEA9A2B0243}
      IID 36
      NAME ""
      VOLPAN 1 0 1 -1
      SOFFS 0 0
      PLAYRATE 1 1 0 -1 0 0.0025
      CHANMODE 0
      GUID {1987F1FB-E610-9A49-BF34-78D603C2FE9C}
      <SOURCE MIDI
        HASDATA 1 960 QN
        CCINTERP 32
        POOLEDEVTS {46EFE34E-6343-D440-AC70-A3933E2D01C8}
        E 58 90 2a 33
        E 0 91 46 33
        E 0 92 4b 33
        E 1786 80 2a 00
        E 0 81 46 00
        E 0 82 4b 00
        E 0 90 3a 33
        E 0 91 3f 33
        E 0 92 42 33
        E 1786 80 3a 00
        E 0 82 42 00
        E 0 90 3b 33
        E 0 92 44 33
        E 1785 81 3f 00
        E 0 80 3b 00
        E 0 82 44 00
        E 0 90 2c 33
        E 0 91 3b 33
        E 0 92 57 33
        E 1786 81 3b 00
        E 0 82 57 00
        E 0 91 3d 33
        E 0 92 58 33
        E 1786 81 3d 00
        E 0 91 3b 33
        E 1434 80 2c 00
        E 0 81 3b 00
        E 0 90 2d 32
        E 0 91 3d 32
        E 676 82 58 00
        E 0 81 3d 00
        E 0 91 3e 32
        E 0 92 5a 32
        E 677 80 2d 00
        E 0 82 5a 00
        E 0 90 2f 32
        E 0 92 5b 32
        E 676 81 3e 00
        E 0 80 2f 00
        E 0 90 30 32
        E 0 91 40 32
        E 677 82 5b 00
        E 0 80 30 00
        E 0 81 40 00
        E 0 90 2b 33
        E 0 91 54 33
        E 0 92 58 33
        E 1147 91 52 33
        E 0 92 57 33
        E 1148 91 57 33
        E 0 92 60 33
        E 1147 90 27 33
        E 0 91 37 33
        E 2404 81 54 00
        E 0 82 58 00
        E 1110 90 2d 33
        E 0 91 31 33
        E 0 92 34 33
        E 38 81 52 00
        E 0 82 57 00
        E 1147 80 2b 00
        E 0 81 57 00
        E 572 90 25 33
        E 0 91 2d 33
        E 0 92 40 33
        E 1757 90 39 33
        E 0 91 58 33
        E 0 92 61 33
        E 1185 82 60 00
        E 0 80 27 00
        E 0 81 37 00
        E 572 91 5a 33
        E 0 92 62 33
        E 1185 80 2d 00
        E 0 81 31 00
        E 0 82 34 00
        E 572 90 32 33
        E 0 91 39 33
        E 0 92 42 33
        E 1185 80 25 00
        E 0 81 2d 00
        E 0 82 40 00
        E 572 90 31 33
        E 0 92 40 33
        E 1185 81 58 00
        E 0 82 61 00
        E 1757 80 39 00
        E 0 81 5a 00
        E 0 82 62 00
        E 226 91 38 32
        E 666 90 2f 32
        E 0 92 3f 32
        E 666 90 2e 32
        E 0 91 36 32
        E 199 80 32 00
        E 466 91 35 32
        E 0 92 3d 32
        E 666 90 3a 33
        E 0 91 3d 33
        E 0 92 4d 33
        E 1129 91 3e 33
        E 0 92 4f 33
        E 907 81 39 00
        E 0 82 42 00
        E 222 91 4a 33
        E 444 80 31 00
        E 0 82 40 00
        E 666 81 38 00
        E 0 80 2f 00
        E 19 92 59 33
        E 646 82 3f 00
        E 0 81 36 00
        E 666 80 2e 00
        E 0 81 35 00
        E 0 82 3d 00
        E 1129 81 3d 00
        E 1016 90 2c 33
        E 0 91 40 33
        E 0 92 49 33
        E 113 81 3e 00
        E 0 82 4f 00
        E 1129 82 4d 00
        E 487 91 3d 33
        E 0 92 4c 33
        E 1729 90 28 33
        E 0 91 2c 33
        E 0 92 55 33
        E 1241 80 3a 00
        E 0 81 4a 00
        E 0 82 59 00
        E 488 90 2a 33
        E 0 91 2d 33
        E 1241 81 40 00
        E 0 82 49 00
        E 487 90 39 33
        E 0 91 5a 33
        E 0 92 61 33
        E 1242 80 2c 00
        E 0 81 3d 00
        E 0 82 4c 00
        E 487 90 3b 33
        E 0 92 62 33
        E 1242 80 28 00
        E 0 81 2c 00
        E 1728 82 55 00
        E 0 80 2a 00
        E 0 81 2d 00
        E 147 91 5b 32
        E 655 90 40 32
        E 0 92 60 32
        E 655 90 41 32
        E 0 91 5d 32
        E 272 82 61 00
        E 383 91 5e 32
        E 655 90 29 33
        E 0 91 46 33
        E 1111 91 44 33
        E 0 92 61 33
        E 968 80 39 00
        E 0 81 5a 00
        E 143 90 25 33
        E 0 91 35 33
        E 0 92 46 33
        E 512 80 3b 00
        E 599 90 2e 33
        E 0 92 49 33
        E 56 81 5b 00
        E 0 80 40 00
        E 655 82 60 00
        E 0 81 5d 00
        E 655 80 41 00
        E 0 81 5e 00
        E 1111 82 62 00
        E 0 81 46 00
        E 925 90 2c 33
        E 186 80 29 00
        E 0 81 44 00
        E 0 82 61 00
        E 1111 80 25 00
        E 0 82 46 00
        E 404 91 31 33
        E 0 92 41 33
        E 1701 91 30 33
        E 0 92 3f 33
        E 1297 80 2e 00
        E 1701 81 35 00
        E 0 82 49 00
        E 69 91 3c 33
        E 1093 92 4d 33
        E 539 81 31 00
        E 1701 82 3f 00
        E 1366 81 30 00
        E 1093 82 41 00
        E 3669 92 4b 33
        E 1674 90 38 33
        E 0 91 57 33
        E 0 92 60 33
        E 1673 90 37 33
        E 0 92 5e 33
        E 1352 82 4d 00
        E 1666 91 4b 33
        E 0 92 54 33
        E 8 80 2c 00
        E 0 81 3c 00
        E 0 82 4b 00
        E 1068 91 54 33
        E 0 92 57 33
        E 606 80 38 00
        E 1673 82 5e 00
        E 1344 81 57 00
        E 0 82 60 00
        E 1076 81 4b 00
        E 0 82 54 00
        E 5181 90 39 33
        E 0 91 4c 33
        E 0 92 55 33
        E 1647 91 49 33
        E 0 92 58 33
        E 1647 90 34 33
        E 0 91 39 33
        E 0 92 61 33
        E 1406 80 37 00
        E 0 81 54 00
        E 0 82 57 00
        E 241 90 36 33
        E 0 92 62 33
        E 1405 81 4c 00
        E 0 82 55 00
        E 241 90 2d 33
        E 0 91 32 33
        E 0 92 5a 33
        E 1406 80 39 00
        E 0 81 49 00
        E 0 82 58 00
        E 241 91 31 33
        E 0 92 58 33
        E 1406 80 34 00
        E 0 82 61 00
        E 1564 90 2c 32
        E 83 81 39 00
        E 0 80 36 00
        E 0 82 62 00
        E 541 91 2f 32
        E 0 92 57 32
        E 624 90 2a 32
        E 0 91 2e 32
        E 481 81 32 00
        E 142 90 29 32
        E 0 92 55 32
        E 624 91 3a 33
        E 0 92 3d 33
        E 1059 90 2b 33
        E 0 92 3e 33
        E 1058 92 4a 33
        E 87 80 2d 00
        E 0 82 5a 00
        E 624 81 31 00
        E 0 82 58 00
        E 347 90 35 33
        E 277 80 2c 00
        E 0 81 2f 00
        E 624 82 57 00
        E 0 80 2a 00
        E 623 81 2e 00
        E 0 82 55 00
        E 1059 82 3d 00
        E 657 90 37 33
        E 401 80 2b 00
        E 0 82 3e 00
        E 1058 80 29 00
        E 162 90 3a 33
        E 0 91 3e 33
        E 0 92 43 33
        E 1620 90 3c 33
        E 0 91 3f 33
        E 1459 80 35 00
        E 1463 91 4b 33
        E 0 92 4f 33
        E 157 81 3a 00
        E 0 82 4a 00
        E 0 80 37 00
        E 884 91 57 33
        E 0 92 5b 33
        E 736 81 3e 00
        E 1621 80 3c 00
        E 1301 82 43 00
        E 0 81 3f 00
        E 1041 81 4b 00
        E 0 82 4f 00
        E 3272 90 3c 33
        E 1595 90 2b 33
        E 0 91 30 33
        E 0 92 4b 33
        E 1594 90 2c 33
        E 0 92 4d 33
        E 1511 80 3a 00
        E 1364 91 3c 33
        E 0 92 57 33
        E 230 81 57 00
        E 0 82 5b 00
        E 0 80 3c 00
        E 794 90 27 33
        E 0 91 38 33
        E 0 92 3c 33
        E 800 80 2b 00
        E 1594 82 4d 00
        E 1281 81 30 00
        E 0 82 4b 00
        E 1024 80 2c 00
        E 0 81 3c 00
        E 0 82 57 00
        E 6282 90 2f 33
        E 0 91 32 33
        E 0 92 4e 33
        E 1569 90 26 33
        E 0 91 2f 33
        E 0 92 5a 33
        E 1568 91 36 33
        E 0 92 3e 33
        E 1562 80 27 00
        E 0 81 38 00
        E 0 82 3c 00
        E 7 91 37 33
        E 0 92 40 33
        E 1562 81 32 00
        E 0 82 4e 00
        E 7 90 28 33
        E 0 92 47 33
        E 1561 80 26 00
        E 0 81 2f 00
        E 0 82 5a 00
        E 7 91 39 33
        E 0 92 48 33
        E 1562 81 36 00
        E 0 82 3e 00
        E 1267 90 29 32
        E 302 80 2f 00
        E 0 82 40 00
        E 292 91 3a 32
        E 0 92 4a 32
        E 595 90 2b 32
        E 0 92 4b 32
        E 594 90 2c 32
        E 0 91 3c 32
        E 87 82 47 00
        E 507 90 27 33
        E 0 92 44 33
        E 1008 91 3b 33
        E 0 92 42 33
        E 1008 90 38 33
        E 0 91 3f 33
        E 0 92 47 33
        E 306 81 37 00
        E 0 80 28 00
        E 594 81 39 00
        E 0 82 48 00
        E 108 90 44 33
        E 0 91 47 33
        E 487 80 29 00
        E 0 82 4a 00
        E 594 81 3a 00
        E 0 80 2b 00
        E 594 80 2c 00
        E 1008 81 3c 00
        E 0 82 44 00
        E 404 90 2d 33
        E 0 91 54 33
        E 0 92 59 33
        E 604 80 27 00
        E 0 81 3b 00
        E 0 82 42 00
        E 940 90 29 33
        E 0 91 39 33
        E 0 92 48 33
        E 68 80 38 00
        E 0 81 3f 00
        E 0 82 47 00
        E 1475 91 41 33
        E 0 92 60 33
        E 1544 90 2e 33
        E 0 92 62 33
        E 68 82 4b 00
        E 0 80 44 00
        E 0 81 47 00
        E 1475 91 3e 33
        E 0 92 41 33
        E 69 81 54 00
        E 0 82 59 00
        E 1475 91 3c 33
        E 68 80 29 00
        E 0 81 39 00
        E 0 82 48 00
        E 1544 82 60 00
        E 1171 92 40 32
        E 372 81 41 00
        E 0 82 62 00
        E 213 90 2b 32
        E 0 91 3b 32
        E 584 90 2a 32
        E 0 92 3e 32
        E 585 91 39 32
        E 0 92 3d 32
        E 162 80 2e 00
        E 423 91 36 33
        E 992 90 2e 33
        E 0 92 3f 33
        E 991 92 49 33
        E 377 81 3e 00
        E 0 82 41 00
        E 585 81 3c 00
        E 30 91 42 33
        E 554 82 40 00
        E 0 80 2b 00
        E 585 81 3b 00
        E 0 82 3e 00
        E 585 80 2a 00
        E 0 81 39 00
        E 992 80 2d 00
        E 0 82 3d 00
        E 322 92 4b 33
        E 670 82 3f 00
        E 848 90 27 33
        E 0 91 2a 33
        E 0 92 3a 33
        E 143 81 36 00
        E 1376 91 2c 33
        E 0 92 3b 33
        E 1662 82 49 00
        E 1076 90 33 33
        E 0 91 36 33
        E 442 80 2e 00
        E 0 81 42 00
        E 0 82 4b 00
        E 534 90 3b 33
        E 0 91 3f 33
        E 0 92 42 33
        E 985 82 3a 00
        E 1519 81 2c 00
        E 1220 80 27 00
        E 0 81 2a 00
        E 975 82 3b 00
        E 0 80 33 00
        E 0 81 36 00
        E 2773 92 44 33
        E 1494 90 2c 33
        E 0 91 2f 33
        E 0 92 3f 33
        E 1494 91 31 33
        E 0 92 40 33
        E 1711 82 42 00
        E 984 92 34 33
        E 510 80 3b 00
        E 0 81 3f 00
        E 0 82 44 00
        E 450 90 2f 33
        E 0 91 38 33
        E 1044 82 3f 00
        E 1495 81 31 00
        E 2160 80 2c 00
        E 0 81 2f 00
        E 0 82 34 00
        E 4123 90 3a 33
        E 0 91 56 33
        E 0 92 5b 33
        E 1470 90 2b 33
        E 0 91 46 33
        E 0 92 4a 33
        E 1470 91 43 33
        E 0 92 62 33
        E 1470 90 3f 33
        E 0 92 60 33
        E 289 82 40 00
        E 0 80 2f 00
        E 0 81 38 00
        E 1182 90 30 33
        E 0 91 33 33
        E 0 92 37 33
        E 288 81 56 00
        E 0 82 5b 00
        E 1182 91 35 33
        E 0 92 38 33
        E 288 80 2b 00
        E 0 81 46 00
        E 0 82 4a 00
        E 1471 80 3a 00
        E 0 82 62 00
        E 892 90 31 32
        E 557 91 36 32
        E 0 92 3a 32
        E 21 81 43 00
        E 0 80 3f 00
        E 0 82 60 00
        E 536 90 33 32
        E 0 92 3b 32
        E 557 90 34 32
        E 0 91 38 32
        E 377 82 37 00
        E 180 90 3b 33
        E 0 91 40 33
        E 0 92 44 33
        E 945 91 3e 33
        E 0 92 43 33
        E 945 91 43 33
        E 0 92 4c 33
        E 581 80 30 00
        E 0 81 33 00
        E 364 91 4f 33
        E 0 92 58 33
        E 193 81 35 00
        E 0 82 38 00
        E 557 80 31 00
        E 0 82 3a 00
        E 557 81 36 00
        E 0 80 33 00
        E 558 82 3b 00
        E 0 80 34 00
        E 0 81 38 00
        E 944 81 40 00
        E 0 82 44 00
        E 84 92 56 33
        E 861 81 3e 00
        E 0 82 43 00
        E 586 91 3e 33
        E 0 92 5b 33
        E 359 81 43 00
        E 0 82 4c 00
        E 1087 90 39 33
        E 0 92 5a 33
        E 1806 82 58 00
        E 803 90 2a 33
        E 0 92 47 33
        E 644 81 4f 00
        E 0 82 56 00
        E 286 90 36 33
        E 1160 82 5b 00
        E 1447 80 39 00
        E 1162 80 3b 00
        E 0 82 5a 00
        E 930 80 2a 00
        E 2418 92 45 33
        E 1423 90 2a 33
        E 0 91 32 33
        E 0 92 39 33
        E 1423 90 28 33
        E 0 91 31 33
        E 1853 82 47 00
        E 714 91 39 33
        E 0 92 3d 33
        E 709 81 3e 00
        E 0 80 36 00
        E 0 82 45 00
        E 206 90 36 33
        E 1218 81 32 00
        E 1423 80 28 00
        E 1143 82 39 00
        E 0 81 31 00
        E 915 80 2a 00
        E 9306 90 34 34
        E 1401 91 37 34
        E 0 92 3c 34
        E 1400 90 30 34
        E 0 91 34 34
        E 0 92 45 34
        E 1401 92 43 36
        E 497 80 36 00
        E 597 90 2e 36
        E 0 91 33 36
        E 804 81 39 00
        E 0 82 3d 00
        E 290 90 27 36
        E 0 91 30 36
        E 1095 91 2e 3b
        E 16 80 34 00
        E 0 81 37 00
        E 0 82 3c 00
        E 838 90 25 3b
        E 0 92 42 3b
        E 562 82 45 00
        E 293 90 3f 3b
        E 0 91 42 3b
        E 0 92 46 3b
        E 801 80 30 00
        E 0 81 34 00
        E 54 90 3d 46
        E 668 91 40 46
        E 0 92 45 46
        E 372 80 2e 00
        E 0 81 33 00
        E 296 90 2a 46
        E 0 91 2d 46
        E 0 92 31 46
        E 799 81 30 00
        E 378 90 2b 46
        E 0 91 3f 46
        E 0 92 60 46
        E 476 82 43 00
        E 0 80 27 00
        E 34 91 4b 46
        E 0 92 54 46
        E 509 90 24 46
        E 0 91 2b 46
        E 0 92 33 46
        E 312 81 2e 00
        E 0 80 25 00
        E 0 82 42 00
        E 198 91 2c 46
        E 0 92 35 46
        E 657 80 3f 00
        E 260 90 2c 46
        E 0 92 48 46
        E 408 81 42 00
        E 0 82 46 00
        E 668 80 3d 00
        E 0 81 40 00
        E 0 82 45 00
        E 351 90 2d 3b
        E 0 91 32 3b
        E 0 92 5a 3b
        E 622 90 26 3b
        E 0 91 2a 3b
        E 0 92 39 3b
        E 204 80 2a 00
        E 0 81 2d 00
        E 0 82 31 00
        E 418 91 3e 3b
        E 0 92 42 3b
        E 92 82 60 00
        E 509 80 2b 00
        E 0 81 4b 00
        E 0 82 54 00
        E 21 90 2f 3b
        E 0 91 40 3b
        E 0 92 43 3b
        E 489 81 2b 00
        E 133 91 34 3b
        E 0 92 4f 3b
        E 376 82 35 00
        E 246 90 30 3b
        E 0 92 51 3b
        E 162 80 24 00
        E 0 82 33 00
        E 0 81 2c 00
        E 960 90 2b 3b
        E 0 92 54 3b
        E 399 91 4c 3b
        E 68 81 3f 00
        E 0 80 2c 00
        E 0 82 48 00
        E 622 81 32 00
        E 0 82 5a 00
        E 622 80 26 00
        E 0 81 2a 00
        E 0 82 39 00
        E 622 80 2d 00
        E 0 81 3e 00
        E 0 82 42 00
        E 622 82 43 00
        E 504 90 33 3b
        E 0 91 42 3b
        E 0 92 46 3b
        E 118 80 2f 00
        E 372 90 2a 3b
        E 0 91 2e 3b
        E 0 92 4b 3b
        E 250 82 51 00
        E 239 90 27 3b
        E 0 91 2a 3b
        E 261 81 34 00
        E 0 82 4f 00
        E 0 80 30 00
        E 229 91 2c 3b
        E 0 92 47 3b
        E 171 81 40 00
        E 319 90 3b 3b
        E 0 91 3f 3b
        E 0 92 50 3b
        E 489 92 4e 46
        E 490 90 39 46
        E 0 91 3e 46
        E 489 90 32 46
        E 0 91 3b 46
        E 863 90 24 46
        E 0 91 29 46
        E 0 92 44 46
        E 374 90 29 46
        E 0 92 3c 46
        E 35 80 2b 00
        E 0 82 54 00
        E 0 81 4c 00
        E 339 90 30 46
        E 0 91 38 46
        E 0 92 4d 46
        E 151 80 33 00
        E 0 81 42 00
        E 222 90 31 46
        E 0 91 3a 46
        E 268 80 2a 00
        E 0 81 2e 00
        E 0 82 4b 00
        E 404 90 38 46
        E 0 91 3d 46
        E 85 82 46 00
        E 0 81 2a 00
        E 490 80 27 00
        E 0 82 47 00
        E 489 82 50 00
        E 490 80 3b 00
        E 0 81 3f 00
        E 205 90 2b 36
        E 0 91 2f 36
        E 0 92 62 36
        E 284 80 39 00
        E 0 81 3e 00
        E 429 90 2f 36
        E 0 91 37 36
        E 0 92 56 36
        E 435 82 4e 00
        E 0 80 32 00
        E 0 81 3b 00
        E 277 90 3b 36
        E 0 91 4a 36
        E 0 92 5b 36
        E 96 80 24 00
        E 0 81 29 00
        E 0 82 44 00
        E 374 81 2c 00
        E 0 80 29 00
        E 0 82 3c 00
        E 243 90 2e 36
        E 0 91 3f 36
        E 0 92 42 36
        E 130 80 30 00
        E 374 81 3a 00
        E 208 92 4e 36
        E 90 81 38 00
        E 0 80 31 00
        E 623 90 2a 36
        E 0 91 2e 36
        E 0 92 33 36
        E 712 90 2c 36
        E 425 82 4d 00
        E 0 80 38 00
        E 0 81 3d 00
        E 287 90 33 36
        E 0 91 38 36
        E 0 92 47 36
        E 425 80 2b 00
        E 0 82 62 00
        E 288 90 34 36
        E 0 92 49 36
        E 424 80 2f 00
        E 0 81 37 00
        E 0 82 56 00
        E 713 80 3b 00
        E 0 81 4a 00
        E 0 82 5b 00
        E 148 91 39 34
        E 270 90 36 34
        E 0 92 4a 34
        E 269 90 37 34
        E 0 91 3b 34
        E 25 82 42 00
        E 245 91 3c 34
        E 0 92 4c 34
        E 270 90 30 36
        E 0 91 37 36
        E 0 92 58 36
        E 198 80 2e 00
        E 0 81 3f 00
        E 0 82 4e 00
        E 260 90 2e 36
        E 0 92 57 36
        E 452 80 2a 00
        E 0 81 2e 00
        E 464 90 27 36
        E 0 92 43 36
        E 249 81 2f 00
        E 0 82 33 00
        E 0 80 2c 00
        E 712 80 33 00
        E 441 91 3a 36
        E 701 91 2e 36
        E 143 81 38 00
        E 0 82 47 00
        E 270 80 34 00
        E 0 82 49 00
        E 270 81 39 00
        E 0 80 36 00
        E 18 90 26 36
        E 0 92 41 36
        E 251 82 4a 00
        E 0 81 3b 00
        E 270 82 4c 00
        E 458 80 30 00
        E 0 82 58 00
        E 285 92 62 36
        E 450 91 43 36
        E 181 80 37 00
        E 0 82 57 00
        E 1402 81 3c 00
        E 701 81 3a 00
        E 701 80 27 00
        E 464 91 41 36
        E 237 82 41 00
        E 452 90 3a 36
        E 0 91 3e 36
        E 0 92 59 36
        E 111 82 43 00
        E 0 81 2e 00
        E 0 80 26 00
        E 450 81 37 00
        E 129 90 39 36
        E 0 91 3c 36
        E 1244 90 32 36
        E 0 91 39 36
        E 0 92 4d 36
        E 2076 81 43 00
        E 690 80 2e 00
        E 0 82 62 00
        E 0 81 41 00
        E 689 80 3a 00
        E 690 81 3c 00
        E 370 90 3b 36
        E 0 91 3f 36
        E 0 92 42 36
        E 184 81 3e 00
        E 0 80 39 00
        E 359 92 4e 36
        E 84 82 4d 00
        E 459 90 2a 36
        E 0 91 33 36
        E 0 92 3b 36
        E 543 90 2c 36
        E 0 91 34 36
        E 543 90 2f 36
        E 0 92 44 36
        E 543 90 31 3b
        E 543 91 35 3b
        E 0 92 46 3b
        E 542 90 25 3b
        E 0 91 2c 3b
        E 0 92 41 3b
        E 543 91 2e 46
        E 356 82 59 00
        E 0 80 32 00
        E 0 81 39 00
        E 69 90 26 46
        E 0 92 43 46
        E 424 90 2e 46
        E 0 91 3e 46
        E 0 92 4d 46
        E 50 82 42 00
        E 543 80 3b 00
        E 0 81 3f 00
        E 0 82 4e 00
        E 154 90 28 46
        E 0 91 38 46
        E 324 91 3b 46
        E 65 80 2a 00
        E 0 81 33 00
        E 259 91 50 46
        E 0 92 58 46
        E 284 80 2c 00
        E 39 91 51 46
        E 324 92 5a 46
        E 259 90 2d 46
        E 0 91 4e 46
        E 0 92 55 46
        E 464 81 34 00
        E 443 90 33 3b
        E 0 91 37 3b
        E 0 92 3c 3b
        E 100 81 35 00
        E 0 82 46 00
        E 295 90 30 3b
        E 0 92 3f 3b
        E 248 81 2c 00
        E 147 90 2b 3b
        E 0 91 48 3b
        E 0 92 57 3b
        E 277 80 25 00
        E 0 82 41 00
        E 118 90 2c 3b
        E 306 81 2e 00
        E 0 80 26 00
        E 0 82 43 00
        E 89 90 24 3b
        E 0 91 33 3b
        E 0 92 38 3b
        E 395 90 27 3b
        E 0 91 2e 3b
        E 0 92 37 3b
        E 264 80 2e 00
        E 0 81 3e 00
        E 0 82 4d 00
        E 131 91 30 3b
        E 192 82 3b 00
        E 0 81 38 00
        E 125 91 57 3b
        E 0 92 60 3b
        E 199 82 44 00
        E 0 80 28 00
        E 0 81 3b 00
        E 323 80 2f 00
        E 0 81 50 00
        E 324 82 58 00
        E 259 80 31 00
        E 0 81 51 00
        E 0 82 5a 00
        E 907 80 2d 00
        E 0 81 4e 00
        E 0 82 55 00
        E 185 90 25 3b
        E 0 91 2d 3b
        E 0 92 4c 3b
        E 210 80 33 00
        E 0 82 3c 00
        E 101 90 2d 3b
        E 0 91 4c 3b
        E 0 92 61 3b
        E 294 80 30 00
        E 0 82 3f 00
        E 17 91 31 3b
        E 0 92 34 3b
        E 311 91 32 3b
        E 0 92 36 3b
        E 311 90 26 3b
        E 0 91 39 3b
        E 0 92 5a 3b
        E 151 81 48 00
        E 0 82 57 00
        E 0 80 2c 00
        E 160 91 3b 46
        E 235 80 24 00
        E 0 81 33 00
        E 0 82 38 00
        E 76 92 5c 46
        E 311 90 33 46
        E 0 91 42 46
        E 0 92 47 46
        E 8 81 2e 00
        E 317 82 37 00
        E 0 81 30 00
        E 223 91 35 46
        E 0 92 54 46
        E 31 80 2b 00
        E 0 81 57 00
        E 206 91 41 46
        E 0 92 48 46
        E 237 90 29 46
        E 0 91 3c 46
        E 0 92 45 46
        E 238 91 3e 46
        E 0 92 46 46
        E 237 90 2b 46
        E 190 91 2e 46
        E 0 92 32 46
        E 835 81 37 00
        E 0 82 60 00
        E 311 80 25 00
        E 0 81 2d 00
        E 0 82 4c 00
        E 311 81 4c 00
        E 0 82 61 00
        E 311 81 31 00
        E 0 82 34 00
        E 56 90 2c 34
        E 0 91 40 34
        E 0 92 61 34
        E 255 81 32 00
        E 0 82 36 00
        E 311 81 39 00
        E 141 91 4c 34
        E 0 92 55 34
        E 170 80 26 00
        E 0 82 5a 00
        E 311 80 27 00
        E 0 81 3b 00
        E 0 82 5c 00
        E 226 90 25 34
        E 0 91 2c 34
        E 0 92 34 34
        E 322 80 33 00
        E 0 81 42 00
        E 0 82 47 00
        E 237 81 35 00
        E 0 82 54 00
        E 148 90 27 34
        E 0 91 2b 34
        E 0 92 3a 34
        E 90 80 2d 00
        E 0 81 41 00
        E 0 82 48 00
        E 237 81 3c 00
        E 0 82 45 00
        E 237 80 29 00
        E 143 91 37 34
        E 47 81 3e 00
        E 0 82 46 00
        E 660 90 2e 34
        E 0 91 43 34
        E 0 92 57 34
        E 707 90 30 34
        E 0 91 44 34
        E 457 80 2b 00
        E 0 81 2e 00
        E 0 82 32 00
        E 250 90 24 34
        E 0 92 3f 34
        E 457 81 40 00
        E 0 82 61 00
        E 250 90 2b 34
        E 0 91 2e 34
        E 457 80 2c 00
        E 0 81 4c 00
        E 0 82 55 00
        E 250 91 30 34
        E 457 80 25 00
        E 0 82 34 00
        E 111 92 3e 33
        E 268 90 29 33
        E 0 91 2d 33
        E 268 90 28 33
        E 0 92 3c 33
        E 60 81 2b 00
        E 207 91 2b 33
        E 0 92 3b 33
        E 268 91 2f 34
        E 0 92 37 34
        E 232 80 27 00
        E 0 82 3a 00
        E 0 81 37 00
        E 223 91 31 34
        E 0 92 38 34
        E 454 90 2f 34
        E 0 91 34 34
        E 30 80 2e 00
        E 0 81 43 00
        E 424 91 40 34
        E 0 92 44 34
        E 283 82 57 00
        E 0 80 30 00
        E 0 81 44 00
        E 707 81 2c 00
        E 0 80 24 00
        E 402 90 37 34
        E 0 91 3a 34
        E 0 92 62 34
        E 695 90 3a 34
        E 0 91 43 34
        E 0 92 56 34
        E 178 82 3f 00
        E 0 81 30 00
        E 268 80 2b 00
        E 0 81 2e 00
        E 250 90 26 34
        E 0 92 3a 34
        E 18 82 3e 00
        E 0 80 29 00
        E 268 81 2d 00
        E 0 82 3c 00
        E 267 82 3b 00
        E 142 90 27 34
        E 0 92 3c 34
        E 313 81 2f 00
        E 0 82 37 00
        E 383 90 2b 34
        E 0 91 3c 34
        E 0 92 4b 34
        E 71 80 28 00
        E 0 81 31 00
        E 454 82 38 00
        E 0 81 34 00
        E 171 90 2c 34
        E 0 92 4d 34
        E 1221 80 2f 00
        E 0 81 40 00
        E 0 82 44 00
        E 33 91 3d 33
        E 264 90 2e 33
        E 0 92 4e 33
        E 263 90 2f 33
        E 0 91 3f 33
        E 135 80 37 00
        E 0 81 3a 00
        E 0 82 62 00
        E 129 91 40 33
        E 0 92 50 33
        E 263 90 28 34
        E 0 91 2f 34
        E 0 92 5c 34
        E 304 80 3a 00
        E 0 81 43 00
        E 0 82 56 00
        E 143 92 5b 34
        E 447 91 34 34
        E 106 82 3a 00
        E 341 91 3b 34
        E 0 92 40 34
        E 354 81 2b 00
        E 0 80 27 00
        E 0 82 3c 00
        E 1015 92 3e 34
        E 685 90 37 34
        E 0 92 4a 34
        E 250 81 3c 00
        E 0 82 4b 00
        E 264 80 2c 00
        E 0 82 4d 00
        E 170 90 36 34
        E 0 91 39 34
        E 93 81 3d 00
        E 0 80 2e 00
        E 264 82 4e 00
        E 0 81 3f 00
        E 264 81 40 00
        E 0 82 50 00
        E 447 80 28 00
        E 0 82 5c 00
        E 167 90 3b 34
        E 0 91 42 34
        E 280 80 26 00
        E 0 81 2f 00
        E 159 91 4a 34
        E 0 92 4e 34
        E 288 80 2f 00
        E 0 82 5b 00
        E 0 81 34 00
        E 1368 82 40 00
        E 685 80 2b 00
        E 0 82 3e 00
        E 684 80 37 00
        E 343 90 39 34
        E 342 81 39 00
        E 331 90 2d 34
        E 0 91 3e 34
        E 0 92 42 34
        E 219 81 3b 00
        E 0 80 36 00
        E 440 82 4a 00
        E 0 81 42 00
        E 15 91 3d 34
        E 0 92 40 34
        E 1214 91 42 34
        E 0 92 49 34
        E 433 91 49 34
        E 1705 80 3b 00
        E 673 81 4a 00
        E 0 80 39 00
        E 674 81 3e 00
        E 673 82 40 00
        E 251 90 2e 34
        E 0 91 37 34
        E 0 92 3f 34
        E 290 82 42 00
        E 0 81 3d 00
        E 373 91 3f 34
        E 0 92 43 34
        E 60 81 42 00
        E 0 82 49 00
        E 602 90 37 34
        E 0 91 46 34
        E 0 92 57 34
        E 663 90 38 34
        E 0 91 48 34
        E 2520 92 56 33
        E 191 82 4e 00
        E 0 80 2d 00
        E 0 81 49 00
        E 60 90 35 33
        E 0 91 45 33
        E 251 90 34 33
        E 0 92 54 33
        E 251 91 43 33
        E 0 92 53 33
        E 101 81 37 00
        E 0 82 3f 00
        E 150 90 28 34
        E 0 91 2b 34
        E 0 92 47 34
        E 426 91 2c 34
        E 0 92 49 34
        E 86 80 2e 00
        E 0 81 3f 00
        E 0 82 43 00
        E 340 90 2c 34
        E 0 91 34 34
        E 426 91 40 34
        E 1956 92 61 34
        E 461 82 57 00
        E 0 81 48 00
        E 191 90 2a 34
        E 0 91 2d 34
        E 60 80 37 00
        E 0 81 46 00
        E 251 82 56 00
        E 0 80 35 00
        E 251 81 45 00
        E 0 82 54 00
        E 251 80 34 00
        E 0 81 43 00
        E 0 82 53 00
        E 363 90 25 34
        E 0 92 40 34
        E 63 81 2b 00
        E 356 92 4c 34
        E 496 80 2c 00
        E 0 81 34 00
        E 1304 82 47 00
        E 652 80 38 00
        E 0 82 49 00
        E 0 81 40 00
        E 652 81 2c 00
        E 103 92 4e 34
        E 549 80 2a 00
        E 93 90 39 34
        E 0 91 42 34
        E 0 92 49 34
        E 431 80 28 00
        E 0 82 61 00
        E 210 90 3b 34
        E 0 92 4a 34
        E 209 82 40 00
        E 948 91 3e 34
        E 0 92 42 34
        E 2259 82 4c 00
        E 642 81 2d 00
        E 0 80 25 00
        E 641 82 49 00
        E 642 80 3b 00
        E 515 81 42 00
        E 0 82 4a 00
        E 132 90 2c 34
        E 0 91 48 34
        E 0 92 59 34
        E 280 82 42 00
        E 225 90 29 34
        E 0 91 38 34
        E 0 92 3c 34
        E 505 91 41 34
        E 0 92 54 34
        E 505 90 2e 34
        E 0 92 55 34
        E 505 91 31 34
        E 0 92 41 34
        E 1010 91 2f 36
        E 0 92 40 36
        E 505 92 34 36
        E 899 90 2b 3b
        E 0 92 32 3b
        E 265 82 4e 00
        E 0 80 39 00
        E 0 81 3e 00
        E 130 90 2f 3b
        E 0 91 37 3b
        E 0 92 4c 3b
        E 375 81 48 00
        E 0 82 59 00
        E 19 92 4a 46
        E 309 91 35 46
        E 177 80 29 00
        E 0 81 38 00
        E 0 82 3c 00
        E 131 92 56 46
        E 374 82 54 00
        E 169 91 3d 46
        E 0 92 58 46
        E 235 90 28 46
        E 0 92 38 46
        E 101 81 41 00
        E 0 82 55 00
        E 135 91 40 46
        E 0 92 49 46
        E 235 90 2d 46
        E 0 91 42 46
        E 423 90 25 46
        E 0 91 2d 46
        E 217 82 41 00
        E 442 90 37 3b
        E 0 91 3a 3b
        E 0 92 57 3b
        E 63 82 40 00
        E 224 90 3a 3b
        E 0 91 43 3b
        E 287 91 4b 3b
        E 0 92 5b 3b
        E 287 90 30 3b
        E 0 91 4d 3b
        E 0 92 5c 3b
        E 102 82 34 00
        E 185 91 3c 3b
        E 0 92 59 3b
        E 209 81 2f 00
        E 0 80 2b 00
        E 0 82 32 00
        E 395 82 4c 00
        E 308 80 2f 00
        E 77 90 29 3b
        E 231 82 4a 00
        E 0 81 35 00
        E 543 81 37 00
        E 0 82 56 00
        E 471 80 28 00
        E 167 90 2f 3b
        E 0 91 37 3b
        E 0 92 40 3b
        E 226 92 43 3b
        E 77 81 42 00
        E 149 91 47 3b
        E 39 82 49 00
        E 0 80 2d 00
        E 187 90 39 3b
        E 0 91 48 3b
        E 472 80 25 00
        E 0 81 2d 00
        E 206 91 46 46
        E 81 81 3a 00
        E 145 92 4b 46
        E 142 80 3a 00
        E 0 81 43 00
        E 256 90 25 46
        E 0 91 2d 46
        E 0 92 36 46
        E 31 81 4b 00
        E 0 82 5b 00
        E 142 90 2d 46
        E 0 91 36 46
        E 0 92 61 46
        E 145 80 30 00
        E 0 81 4d 00
        E 0 82 5c 00
        E 27 91 55 46
        E 0 92 5a 46
        E 173 90 3b 46
        E 0 91 56 46
        E 87 81 3c 00
        E 223 91 5a 46
        E 0 92 62 46
        E 64 80 2e 00
        E 231 81 3d 00
        E 184 80 2c 00
        E 0 82 59 00
        E 333 90 2c 36
        E 0 91 3c 36
        E 329 91 30 36
        E 328 91 33 36
        E 0 92 48 36
        E 329 91 34 36
        E 0 92 5b 36
        E 94 81 31 00
        E 0 82 38 00
        E 0 80 29 00
        E 225 81 37 00
        E 0 82 40 00
        E 10 90 2b 36
        E 0 92 3b 36
        E 216 81 40 00
        E 0 82 43 00
        E 113 90 28 36
        E 0 91 2f 36
        E 0 92 43 36
        E 113 81 47 00
        E 216 92 45 36
        E 328 92 3c 36
        E 134 82 58 00
        E 195 91 35 36
        E 0 92 3e 36
        E 31 81 46 00
        E 399 80 37 00
        E 0 81 48 00
        E 163 90 2e 34
        E 9 80 25 00
        E 0 81 2d 00
        E 0 82 36 00
        E 116 91 37 34
        E 0 92 3f 34
        E 56 81 36 00
        E 0 82 61 00
        E 68 90 30 34
        E 0 91 38 34
        E 105 81 55 00
        E 20 90 31 34
        E 0 92 41 34
        E 124 90 29 36
        E 0 91 2c 36
        E 0 92 31 36
        E 28 80 3b 00
        E 138 82 5a 00
        E 0 81 56 00
        E 46 92 2f 36
        E 211 92 3d 36
        E 555 80 39 00
        E 0 81 5a 00
        E 0 82 62 00
        E 329 82 4b 00
        E 0 81 3c 00
        E 298 91 50 36
        E 0 92 58 36
        E 30 82 57 00
        E 293 91 4e 36
        E 0 92 57 36
        E 36 81 33 00
        E 0 82 48 00
        E 329 82 5b 00
        E 219 90 27 36
        E 0 92 5c 36
        E 110 80 2b 00
        E 98 91 33 36
        E 231 82 43 00
        E 328 81 30 00
        E 0 82 45 00
        E 922 80 2d 00
        E 0 82 3c 00
        E 110 90 2a 36
        E 15 81 35 00
        E 0 82 3e 00
        E 124 80 2e 00
        E 0 81 37 00
        E 125 82 3f 00
        E 0 80 30 00
        E 55 90 42 36
        E 0 91 47 36
        E 69 81 38 00
        E 0 80 31 00
        E 0 82 41 00
        E 212 80 29 00
        E 0 82 31 00
        E 37 91 46 36
        E 0 92 55 36
        E 174 82 2f 00
        E 211 80 28 00
        E 0 81 2c 00
        E 189 90 36 36
        E 0 92 4b 36
        E 204 91 2e 36
        E 0 92 33 36
        E 254 82 3d 00
        E 324 81 34 00
        E 323 82 58 00
        E 324 81 4e 00
        E 260 80 2f 00
        E 0 81 50 00
        E 208 81 2f 00
        E 0 80 27 00
        E 0 82 5c 00
        E 187 90 34 36
        E 0 91 37 36
        E 0 92 54 36
        E 250 90 37 36
        E 0 91 40 36
        E 0 92 48 36
        E 251 90 2b 36
        E 0 91 58 36
        E 0 92 60 36
        E 250 90 2d 36
        E 0 91 59 36
        E 251 91 48 36
        E 0 92 4d 36
        E 251 91 4a 3b
        E 151 80 2c 00
        E 99 90 2f 3b
        E 0 92 4e 3b
        E 220 82 3b 00
        E 0 81 33 00
        E 318 81 47 00
        E 159 91 4b 46
        E 0 92 50 46
        E 159 82 55 00
        E 37 91 3b 46
        E 219 82 57 00
        E 0 80 42 00
        E 126 90 35 46
        E 0 91 39 46
        E 79 81 46 00
        E 0 80 36 00
        E 70 90 39 46
        E 0 91 41 46
        E 299 90 2e 46
        E 0 92 62 46
        E 149 91 5b 46
        E 120 91 32 46
        E 0 92 3a 46
        E 418 90 38 3b
        E 0 92 61 3b
        E 183 91 4c 3b
        E 0 92 55 3b
        E 182 90 25 3b
        E 0 91 34 3b
        E 0 92 38 3b
        E 182 92 39 3b
        E 182 92 49 3b
        E 94 81 2e 00
        E 0 82 33 00
        E 89 92 47 3b
        E 161 80 34 00
        E 0 81 37 00
        E 168 90 34 3b
        E 0 91 38 3b
        E 0 92 3d 3b
        E 83 80 37 00
        E 34 91 3d 3b
        E 0 92 40 3b
        E 216 81 58 00
        E 502 81 48 00
        E 179 92 59 3b
        E 71 82 4d 00
        E 72 90 29 3b
        E 0 91 3a 3b
        E 0 92 3e 3b
        E 144 92 56 3b
        E 143 91 43 3b
        E 0 92 57 3b
        E 144 90 27 3b
        E 0 91 2b 3b
        E 0 92 2e 3b
        E 143 92 30 46
        E 51 82 4e 00
        E 93 90 28 46
        E 0 91 2d 46
        E 103 80 2f 00
        E 0 81 4b 00
        E 0 82 50 00
        E 293 91 31 46
        E 0 92 4e 46
        E 52 80 2a 00
        E 0 82 4b 00
        E 0 81 3b 00
        E 58 91 2e 46
        E 0 92 5a 46
        E 91 82 54 00
        E 0 80 35 00
        E 0 81 39 00
        E 18 91 36 46
        E 110 90 2f 46
        E 0 92 3f 46
        E 22 82 48 00
        E 149 82 60 00
        E 0 80 2d 00
        E 26 91 2f 46
        E 0 92 44 46
        E 123 81 59 00
        E 120 82 62 00
        E 0 81 5b 00
        E 418 80 2b 00
        E 0 81 32 00
        E 0 82 3a 00
        E 183 82 61 00
        E 182 81 4c 00
        E 0 82 55 00
        E 182 82 38 00
        E 183 81 34 00
        E 0 82 39 00
        E 182 80 39 00
        E 182 82 47 00
        E 147 81 40 00
        E 0 82 49 00
        E 117 80 34 00
        E 352 94 2f 34
        E 0 94 36 34
        E 0 94 4a 34
        E 545 80 38 00
        E 0 81 3d 00
        E 0 82 40 00
        E 143 81 4a 00
        E 0 82 59 00
        E 144 80 29 00
        E 0 81 3a 00
        E 0 82 3e 00
        E 143 81 41 00
        E 0 82 56 00
        E 144 81 43 00
        E 0 82 57 00
        E 143 82 2e 00
        E 287 81 2d 00
        E 253 81 2b 00
        E 0 82 30 00
        E 0 80 28 00
        E 110 81 31 00
        E 0 82 4e 00
        E 109 80 25 00
        E 0 81 2e 00
        E 0 82 5a 00
        E 110 80 2e 00
        E 0 82 3d 00
        E 109 81 36 00
        E 88 81 38 00
        E 0 80 2f 00
        E 0 82 3f 00
        E 2371 80 27 00
        E 0 81 2f 00
        E 0 82 44 00
        E 1339 94 30 34
        E 0 94 44 34
        E 0 94 4b 34
        E 1509 94 3c 34
        E 0 94 50 34
        E 1510 94 3f 34
        E 1509 94 31 34
        E 0 94 41 34
        E 171 84 2f 00
        E 0 84 36 00
        E 0 84 4a 00
        E 1338 94 35 34
        E 0 94 3d 34
        E 171 84 44 00
        E 1339 94 36 34
        E 0 94 52 34
        E 171 84 4b 00
        E 0 84 3c 00
        E 1509 84 30 00
        E 1041 94 38 33
        E 0 94 53 33
        E 468 84 31 00
        E 0 84 41 00
        E 104 94 34 33
        E 572 94 51 33
        E 572 94 3e 33
        E 262 84 35 00
        E 310 94 47 34
        E 970 94 35 34
        E 0 94 45 34
        E 970 94 2d 34
        E 0 94 30 34
        E 0 94 41 34
        E 472 84 52 00
        E 498 94 3c 34
        E 73 84 3f 00
        E 0 84 38 00
        E 572 84 50 00
        E 0 84 34 00
        E 572 84 3d 00
        E 0 84 51 00
        E 572 84 53 00
        E 970 84 36 00
        E 0 84 47 00
        E 211 94 2c 34
        E 0 94 2f 34
        E 0 94 33 34
        E 759 84 3e 00
        E 0 84 35 00
        E 726 94 38 34
        E 0 94 3b 34
        E 244 84 2d 00
        E 0 84 30 00
        E 1241 94 3f 34
        E 0 94 44 34
        E 0 94 53 34
        E 1485 94 3d 34
        E 0 94 40 34
        E 0 94 50 34
        E 244 84 45 00
        E 0 84 41 00
        E 0 84 3c 00
        E 1242 94 49 34
        E 243 84 2c 00
        E 0 84 2f 00
        E 1242 94 47 34
        E 243 84 33 00
        E 0 84 38 00
        E 0 84 3b 00
        E 1242 94 42 34
        E 244 84 53 00
        E 949 94 46 33
        E 536 84 50 00
        E 26 94 41 33
        E 563 94 3c 33
        E 563 94 3a 33
        E 0 94 43 33
        E 333 84 40 00
        E 0 84 49 00
        E 1184 94 40 34
        E 0 94 48 34
        E 954 94 45 34
        E 540 84 47 00
        E 414 94 2d 34
        E 0 94 4c 34
        E 149 84 42 00
        E 562 84 3d 00
        E 0 84 41 00
        E 563 84 44 00
        E 563 84 3a 00
        E 954 84 3f 00
        E 0 84 46 00
        E 132 94 2e 34
        E 0 94 42 34
        E 0 94 49 34
        E 822 84 43 00
        E 639 94 31 34
        E 0 94 3a 34
        E 0 94 4e 34
        E 316 84 40 00
        E 0 84 48 00
        E 0 84 45 00
        E 1146 94 36 34
        E 1461 94 3b 34
        E 0 94 4b 34
        E 315 84 3c 00
        E 0 84 2d 00
        E 0 84 4c 00
        E 1146 94 2f 34
        E 0 94 33 34
        E 315 84 2e 00
        E 0 84 42 00
        E 1146 94 34 34
        E 0 94 38 34
        E 316 84 31 00
        E 0 84 4e 00
        E 1146 94 31 34
        E 315 84 49 00
        E 0 84 3a 00
        E 859 94 39 33
        E 553 94 32 33
        E 49 84 4b 00
        E 505 94 37 33
        E 553 94 3c 33
        E 404 84 33 00
        E 150 94 2d 34
        E 0 94 30 34
        E 939 94 2b 34
        E 0 94 33 34
        E 372 84 2f 00
        E 567 94 43 34
        E 0 94 46 34
        E 0 94 4b 34
        E 607 84 38 00
        E 332 94 3a 34
        E 0 94 4f 34
        E 221 84 31 00
        E 554 84 36 00
        E 0 84 32 00
        E 554 84 3b 00
        E 0 84 37 00
        E 553 84 39 00
        E 0 84 3c 00
        E 939 84 34 00
        E 0 84 2d 00
        E 55 94 3c 34
        E 884 84 30 00
        E 0 84 2b 00
        E 553 94 30 34
        E 0 94 3f 34
        E 386 84 46 00
        E 0 84 4b 00
        E 1052 94 2e 34
        E 0 94 3e 34
        E 1438 94 41 34
        E 386 84 3a 00
        E 769 94 32 34
        E 0 94 3a 34
        E 669 84 33 00
        E 0 84 4f 00
        E 0 84 3c 00
        E 255 94 52 34
        E 1182 84 30 00
        E 0 84 3f 00
        E 1438 84 43 00
        E 1155 84 2e 00
        E 924 84 32 00
        E 0 84 3a 00
        E 2375 94 43 34
        E 1414 94 32 34
        E 0 94 46 34
        E 0 94 4f 34
        E 1415 94 45 34
        E 0 94 4d 34
        E 1415 94 30 34
        E 455 84 41 00
        E 681 94 2d 34
        E 0 94 3c 34
        E 0 94 41 34
        E 733 84 3e 00
        E 0 84 52 00
        E 0 84 43 00
        E 176 94 48 34
        E 1239 84 46 00
        E 0 84 4f 00
        E 1415 84 32 00
        E 1136 84 4d 00
        E 0 84 30 00
        E 909 84 2d 00
        E 0 84 3c 00
        E 3653 94 3f 34
        E 0 94 44 34
        E 0 94 47 34
        E 1392 94 50 34
        E 0 94 53 34
        E 1392 94 33 34
        E 1392 94 31 34
        E 0 94 4c 34
        E 523 84 45 00
        E 0 84 41 00
        E 0 84 48 00
        E 869 94 34 34
        E 0 94 3d 34
        E 523 84 44 00
        E 0 84 47 00
        E 869 94 3b 34
        E 523 84 3f 00
        E 869 94 4e 34
        E 523 84 53 00
        E 595 94 3a 33
        E 527 94 38 33
        E 0 94 4d 33
        E 270 84 4c 00
        E 258 94 30 33
        E 0 94 4b 33
        E 527 94 2e 33
        E 0 94 37 33
        E 528 94 46 34
        E 0 94 4f 34
        E 79 84 34 00
        E 0 84 3d 00
        E 815 94 34 34
        E 0 94 48 34
        E 577 84 50 00
        E 318 94 3c 34
        E 0 94 51 34
        E 800 84 3b 00
        E 94 94 39 34
        E 0 94 40 34
        E 434 84 4e 00
        E 0 84 3a 00
        E 527 84 31 00
        E 0 84 4d 00
        E 527 84 38 00
        E 528 84 4b 00
        E 0 84 2e 00
        E 0 84 37 00
        E 723 94 37 34
        E 171 84 33 00
        E 0 84 46 00
        E 895 84 4f 00
        E 0 84 48 00
        E 304 94 4c 34
        E 590 84 34 00
        E 0 84 3c 00
        E 0 84 51 00
        E 780 94 4d 34
        E 1369 94 32 34
        E 1960 84 40 00
        E 20 94 3e 34
        E 0 94 51 34
        E 1350 84 37 00
        E 0 84 4c 00
        E 1369 84 30 00
        E 1980 84 39 00
        E 0 84 32 00
        E 2040 94 3c 34
        E 1347 94 30 34
        E 1348 94 32 34
        E 0 94 52 34
        E 1347 94 4f 34
        E 657 84 3e 00
        E 426 94 3a 34
        E 0 94 3e 34
        E 0 94 43 34
        E 866 94 2b 34
        E 55 84 3c 00
        E 1348 84 51 00
        E 0 84 30 00
        E 1347 84 4d 00
        E 1083 84 32 00
        E 0 84 4f 00
        E 866 84 3a 00
        E 0 84 43 00
        E 4583 94 44 34
        E 0 94 47 34
        E 0 94 4c 34
        E 1326 94 34 34
        E 0 94 3b 34
        E 1326 94 40 34
        E 0 94 50 34
        E 0 94 53 34
        E 1326 94 49 34
        E 0 94 51 34
        E 721 84 52 00
        E 0 84 3e 00
        E 0 84 2b 00
        E 605 94 39 34
        E 0 94 3d 34
        E 721 84 47 00
        E 0 84 4c 00
        E 605 94 3e 34
        E 0 94 42 34
        E 721 84 44 00
        E 0 84 34 00
        E 0 84 3b 00
        E 605 94 3b 34
        E 721 84 50 00
        E 0 84 53 00
        E 344 94 43 33
        E 502 94 3c 33
        E 0 94 45 33
        E 480 84 49 00
        E 0 84 51 00
        E 22 94 41 33
        E 503 94 46 33
        E 502 94 2e 34
        E 0 94 37 34
        E 299 84 3d 00
        E 553 94 35 34
        E 0 94 3d 34
        E 773 84 39 00
        E 79 94 50 34
        E 852 94 31 34
        E 0 94 38 34
        E 0 94 4d 34
        E 134 84 42 00
        E 502 84 3b 00
        E 502 84 40 00
        E 0 84 3c 00
        E 503 84 45 00
        E 502 84 43 00
        E 0 84 46 00
        E 467 94 2b 34
        E 0 94 2f 34
        E 0 94 40 34
        E 385 84 3e 00
        E 0 84 37 00
        E 852 84 2e 00
        E 0 84 35 00
        E 67 94 37 34
        E 0 94 3b 34
        E 785 84 41 00
        E 0 84 3d 00
        E 0 84 50 00
        E 520 94 34 34
        E 1305 94 39 34
        E 0 94 3c 34
        E 785 84 31 00
        E 0 84 38 00
        E 0 84 4d 00
        E 519 94 2d 34
        E 0 94 48 34
        E 0 94 4c 34
        E 785 84 2b 00
        E 0 84 2f 00
        E 520 94 2b 34
        E 0 94 47 34
        E 785 84 40 00
        E 520 94 4a 34
        E 785 84 37 00
        E 0 84 3b 00
        E 263 94 42 33
        E 494 94 40 33
        E 0 94 49 33
        E 494 94 2c 33
        E 53 84 34 00
        E 0 84 39 00
        E 0 84 3c 00
        E 442 94 33 33
        E 494 94 2f 34
        E 0 94 4b 34
        E 0 94 4e 34
        E 369 84 48 00
        E 469 94 30 34
        E 0 94 50 34
        E 836 84 4c 00
        E 3 94 35 34
        E 0 94 38 34
        E 0 94 3c 34
        E 1045 84 2b 00
        E 494 84 4a 00
        E 494 84 2d 00
        E 0 84 49 00
        E 495 84 40 00
        E 0 84 2c 00
        E 494 84 47 00
        E 0 84 42 00
        E 0 84 33 00
        E 383 94 33 34
        E 455 84 2f 00
        E 0 84 4e 00
        E 829 94 48 34
        E 10 84 4b 00
        E 0 84 30 00
        E 0 84 50 00
        E 1274 94 49 34
        E 1284 94 3a 34
        E 1856 94 31 34
        E 0 94 41 34
        E 0 94 52 34
        E 275 84 3c 00
        E 1284 84 33 00
        E 0 84 48 00
        E 1284 84 38 00
        E 1856 84 35 00
        E 0 84 49 00
        E 0 84 3a 00
        E 1616 94 50 34
        E 1263 94 2c 34
        E 0 94 35 34
        E 0 94 49 34
        E 1263 94 2e 34
        E 0 94 36 34
        E 1263 94 4b 34
        E 910 84 52 00
        E 916 94 33 34
        E 0 94 42 34
        E 0 94 46 34
        E 347 84 31 00
        E 0 84 41 00
        E 0 84 50 00
        E 1263 84 2c 00
        E 0 84 35 00
        E 1263 84 49 00
        E 1827 84 2e 00
        E 0 84 36 00
        E 0 84 4b 00
        E 2757 94 40 34
        E 0 94 48 34
        E 0 94 4f 34
        E 1243 94 2b 34
        E 0 94 3c 34
        E 0 94 4c 34
        E 1243 94 30 34
        E 1243 94 2d 34
        E 0 94 41 34
        E 970 84 33 00
        E 0 84 42 00
        E 0 84 46 00
        E 273 94 35 34
        E 0 94 51 34
        E 970 84 48 00
        E 0 84 4f 00
        E 272 94 3e 34
        E 0 94 52 34
        E 971 84 4c 00
        E 272 94 37 34
        E 971 84 40 00
        E 0 84 2b 00
        E 27 94 33 33
        E 0 94 4f 33
        E 471 94 50 33
        E 471 94 3d 33
        E 274 84 30 00
        E 0 84 2d 00
        E 0 84 41 00
        E 197 94 36 33
        E 0 94 3f 33
        E 1045 84 51 00
        E 225 94 31 34
        E 0 94 51 34
        E 798 94 34 34
        E 799 94 39 34
        E 0 94 49 34
        E 420 84 3e 00
        E 0 84 37 00
        E 470 84 4f 00
        E 471 84 3c 00
        E 0 84 50 00
        E 471 84 35 00
        E 0 84 3d 00
        E 471 84 3f 00
        E 799 84 52 00
        E 0 84 33 00
        E 566 94 4e 34
        E 1031 84 51 00
        E 192 94 38 34
        E 0 94 4c 34
        E 1223 94 2f 34
        E 982 94 40 34
        E 0 94 47 34
        E 48 84 34 00
        E 738 94 50 34
        E 0 94 53 34
        E 485 84 36 00
        E 0 84 49 00
        E 1223 84 39 00
        E 0 84 4e 00
        E 1223 84 31 00
        E 982 84 4c 00
        E 0 84 2f 00
        E 786 84 38 00
        E 0 84 47 00
        E 1317 94 49 34
        E 1203 94 3d 34
        E 1203 94 3b 34
        E 0 94 3f 34
        E 1203 94 4e 34
        E 967 94 42 34
        E 0 94 47 34
        E 123 84 53 00
        E 650 94 2f 34
        E 0 94 33 34
        E 553 84 49 00
        E 1203 84 40 00
        E 0 84 3d 00
        E 1204 84 50 00
        E 966 84 3b 00
        E 773 84 3f 00
        E 0 84 42 00
        E 0 84 47 00
        E 4772 90 45 32
        E 0 91 2a 32
        E 0 92 26 32
        E 502 90 47 32
        E 0 91 2b 32
        E 352 80 45 00
        E 0 81 2a 00
        E 150 90 48 32
        E 0 92 28 32
        E 352 82 26 00
        E 0 80 47 00
        E 150 91 2d 32
        E 0 92 29 32
        E 352 81 2b 00
        E 0 82 28 00
        E 2841 84 4e 00
        E 0 84 2f 00
        E 0 84 33 00
        E 1432 91 2c 32
        E 0 92 27 32
        E 1996 90 54 32
        E 0 91 37 32
        E 0 92 33 32
        E 1995 91 38 33
        E 709 81 2d 00
        E 0 82 29 00
        E 850 90 53 33
        E 0 91 36 33
        E 1145 80 48 00
        E 0 81 2c 00
        E 0 82 27 00
        E 414 90 3f 33
        E 0 92 22 33
        E 1559 92 23 34
        E 22 81 37 00
        E 1195 90 3e 34
        E 0 92 21 34
        E 364 80 54 00
        E 0 81 38 00
        E 854 90 49 34
        E 0 92 2d 34
        E 705 82 33 00
        E 0 80 53 00
        E 513 90 4a 36
        E 951 90 48 36
        E 0 91 35 36
        E 95 82 22 00
        E 857 90 3c 36
        E 0 91 34 36
        E 360 80 3f 00
        E 0 82 23 00
        E 1218 80 3e 00
        E 0 82 21 00
        E 99 90 63 36
        E 0 92 2e 36
        E 726 90 3a 36
        E 0 91 2a 36
        E 0 92 27 36
        E 393 80 49 00
        E 333 90 4b 36
        E 0 91 3a 36
        E 0 92 36 36
        E 619 80 4a 00
        E 107 91 3b 36
        E 0 92 38 36
        E 726 90 4c 36
        E 118 80 48 00
        E 0 81 35 00
        E 462 90 53 36
        E 0 91 4c 36
        E 1215 82 2d 00
        E 0 80 3c 00
        E 0 81 34 00
        E 726 81 36 00
        E 0 80 63 00
        E 0 82 2e 00
        E 93 90 52 34
        E 0 91 29 34
        E 0 92 26 34
        E 633 80 3a 00
        E 0 81 2a 00
        E 0 82 27 00
        E 253 90 46 34
        E 0 91 32 34
        E 0 92 29 34
        E 473 81 3a 00
        E 0 82 36 00
        E 413 90 56 34
        E 0 91 46 34
        E 0 92 35 34
        E 313 80 4b 00
        E 574 92 37 34
        E 7 81 3b 00
        E 0 80 4c 00
        E 879 90 43 34
        E 0 91 26 34
        E 0 92 22 34
        E 886 91 27 34
        E 0 92 24 34
        E 268 82 38 00
        E 0 80 53 00
        E 0 81 4c 00
        E 618 90 44 34
        E 268 80 52 00
        E 0 81 29 00
        E 0 82 26 00
        E 887 80 46 00
        E 0 81 32 00
        E 0 82 29 00
        E 126 90 3c 34
        E 0 91 33 34
        E 0 92 2c 34
        E 760 82 35 00
        E 886 80 56 00
        E 0 81 46 00
        E 0 82 37 00
        E 886 81 26 00
        E 0 82 22 00
        E 886 80 43 00
        E 941 90 5d 34
        E 0 91 36 34
        E 0 92 31 34
        E 340 81 27 00
        E 0 82 24 00
        E 0 80 44 00
        E 358 90 51 34
        E 0 91 3d 34
        E 0 92 36 34
        E 697 90 36 34
        E 0 91 25 34
        E 0 92 21 34
        E 698 91 26 34
        E 0 92 23 34
        E 697 90 4a 34
        E 0 91 3b 34
        E 0 92 2a 34
        E 698 92 2b 36
        E 697 91 3a 36
        E 0 92 29 36
        E 514 80 3c 00
        E 0 81 33 00
        E 0 82 2c 00
        E 184 91 4a 36
        E 514 80 5d 00
        E 0 81 36 00
        E 0 82 31 00
        E 697 81 3d 00
        E 0 82 36 00
        E 18 90 47 36
        E 0 91 38 36
        E 0 92 33 36
        E 532 90 3f 36
        E 0 92 38 36
        E 148 81 25 00
        E 0 82 21 00
        E 384 90 63 36
        E 0 91 53 36
        E 0 92 2c 36
        E 313 80 36 00
        E 0 81 26 00
        E 0 82 23 00
        E 220 90 64 36
        E 0 91 55 36
        E 478 82 2a 00
        E 54 92 2d 36
        E 425 90 5d 36
        E 0 92 28 36
        E 218 82 2b 00
        E 698 80 4a 00
        E 0 81 3a 00
        E 1229 80 51 00
        E 0 82 29 00
        E 0 81 4a 00
        E 361 90 5e 33
        E 0 91 37 33
        E 171 80 47 00
        E 0 81 38 00
        E 533 81 3b 00
        E 0 80 3f 00
        E 0 82 38 00
        E 311 90 52 33
        E 0 91 3f 33
        E 0 92 37 33
        E 221 80 63 00
        E 0 81 53 00
        E 532 82 2c 00
        E 262 90 37 33
        E 0 91 27 33
        E 0 92 22 33
        E 164 80 64 00
        E 0 82 2d 00
        E 851 90 55 33
        E 0 91 36 33
        E 0 92 2d 33
        E 1015 90 61 33
        E 0 92 21 33
        E 640 81 55 00
        E 0 80 5d 00
        E 0 82 28 00
        E 375 90 3d 33
        E 0 91 39 33
        E 0 92 36 33
        E 639 82 33 00
        E 0 80 5e 00
        E 0 81 37 00
        E 376 90 3e 33
        E 0 91 3b 33
        E 639 80 52 00
        E 0 81 3f 00
        E 0 82 37 00
        E 376 90 62 33
        E 0 91 53 33
        E 0 92 2a 33
        E 639 80 37 00
        E 0 81 27 00
        E 0 82 22 00
        E 376 90 64 33
        E 0 92 2b 33
        E 639 80 55 00
        E 0 82 2d 00
        E 376 91 54 33
        E 639 81 36 00
        E 0 80 61 00
        E 0 82 21 00
        E 176 90 65 32
        E 0 92 2d 32
        E 385 91 56 32
        E 0 92 2e 32
        E 384 90 63 32
        E 0 91 5b 32
        E 70 80 3d 00
        E 0 81 39 00
        E 315 91 5c 32
        E 0 92 30 32
        E 385 90 60 33
        E 0 91 38 33
        E 0 92 27 33
        E 315 82 36 00
        E 0 80 3e 00
        E 0 81 3b 00
        E 337 90 5f 33
        E 0 91 36 33
        E 652 90 36 33
        E 0 91 27 33
        E 0 92 22 33
        E 26 80 62 00
        E 0 82 2a 00
        E 626 91 33 33
        E 389 81 53 00
        E 815 80 64 00
        E 0 82 2b 00
        E 385 81 54 00
        E 0 82 2d 00
        E 385 80 65 00
        E 0 81 56 00
        E 23 92 23 33
        E 361 82 2e 00
        E 0 81 5b 00
        E 385 80 63 00
        E 0 81 5c 00
        E 0 82 30 00
        E 253 90 53 33
        E 0 91 3f 33
        E 0 92 36 33
        E 399 80 60 00
        E 0 81 38 00
        E 600 90 52 33
        E 0 91 3d 33
        E 52 82 27 00
        E 0 80 5f 00
        E 0 81 36 00
        E 652 81 27 00
        E 294 92 35 33
        E 1444 91 49 33
        E 260 82 22 00
        E 998 80 36 00
        E 0 81 33 00
        E 0 82 23 00
        E 999 80 53 00
        E 0 81 3f 00
        E 999 82 36 00
        E 1443 81 3d 00
        E 214 92 36 33
        E 983 90 55 33
        E 0 91 52 33
        E 0 92 2a 33
        E 983 91 50 33
        E 0 92 29 33
        E 982 90 54 33
        E 790 91 4d 33
        E 0 92 2c 33
        E 631 90 59 33
        E 0 91 54 33
        E 331 82 35 00
        E 982 80 52 00
        E 0 81 49 00
        E 0 82 36 00
        E 983 81 52 00
        E 0 82 2a 00
        E 982 80 55 00
        E 790 81 50 00
        E 0 82 29 00
        E 631 80 54 00
        E 0 81 4d 00
        E 1102 90 43 33
        E 0 91 2f 33
        E 0 92 26 33
        E 773 90 3b 33
        E 0 91 32 33
        E 0 92 2b 33
        E 774 90 56 33
        E 0 91 3b 33
        E 0 92 37 33
        E 773 90 58 33
        E 0 91 3c 33
        E 774 90 54 33
        E 0 91 37 33
        E 0 92 34 33
        E 773 90 53 34
        E 774 90 55 34
        E 0 91 38 34
        E 58 82 2c 00
        E 0 80 59 00
        E 0 81 54 00
        E 715 90 5d 34
        E 0 91 34 34
        E 0 92 31 34
        E 59 80 43 00
        E 0 81 2f 00
        E 0 82 26 00
        E 715 90 5c 36
        E 58 80 3b 00
        E 0 81 32 00
        E 0 82 2b 00
        E 546 90 5e 36
        E 0 91 35 36
        E 228 80 56 00
        E 0 81 3b 00
        E 376 90 49 36
        E 0 91 36 36
        E 0 92 2e 36
        E 397 82 37 00
        E 0 80 58 00
        E 0 81 3c 00
        E 669 90 60 36
        E 0 91 58 36
        E 0 92 37 36
        E 104 80 54 00
        E 357 90 2b 36
        E 0 91 28 36
        E 0 92 24 36
        E 417 81 37 00
        E 0 80 53 00
        E 44 90 4c 36
        E 0 91 37 36
        E 461 90 4d 36
        E 0 91 39 36
        E 268 82 34 00
        E 0 80 55 00
        E 0 81 38 00
        E 562 90 48 36
        E 0 92 34 36
        E 212 80 5d 00
        E 604 81 34 00
        E 0 80 5c 00
        E 475 90 52 34
        E 0 91 2a 34
        E 0 92 27 34
        E 129 82 31 00
        E 0 80 5e 00
        E 0 81 35 00
        E 434 90 46 34
        E 0 91 33 34
        E 0 92 2a 34
        E 563 90 57 34
        E 0 91 46 34
        E 0 92 36 34
        E 69 80 49 00
        E 0 81 36 00
        E 0 82 2e 00
        E 461 80 60 00
        E 0 81 58 00
        E 0 82 37 00
        E 33 90 58 34
        E 0 91 47 34
        E 0 92 38 34
        E 428 80 2b 00
        E 0 81 28 00
        E 134 90 5f 34
        E 0 91 58 34
        E 327 81 37 00
        E 236 91 57 34
        E 225 80 4d 00
        E 338 90 5e 34
        E 31 82 24 00
        E 0 80 4c 00
        E 783 90 2e 34
        E 508 81 39 00
        E 0 80 48 00
        E 0 82 34 00
        E 563 80 52 00
        E 563 80 46 00
        E 0 81 33 00
        E 0 82 2a 00
        E 563 80 57 00
        E 0 81 46 00
        E 562 80 58 00
        E 0 81 47 00
        E 9 90 51 34
        E 0 91 35 34
        E 0 92 30 34
        E 443 90 45 34
        E 0 91 3c 34
        E 0 92 35 34
        E 111 82 38 00
        E 0 81 58 00
        E 332 90 60 34
        E 0 91 5d 34
        E 0 92 29 34
        E 231 80 5f 00
        E 212 90 62 34
        E 0 91 5e 34
        E 443 90 4a 34
        E 0 91 2e 34
        E 159 82 36 00
        E 0 81 57 00
        E 0 80 5e 00
        E 284 91 2d 36
        E 443 91 2f 36
        E 0 92 2a 36
        E 443 90 56 36
        E 0 91 47 36
        E 0 92 2b 36
        E 781 90 38 36
        E 0 91 31 36
        E 338 92 25 36
        E 338 90 59 36
        E 0 91 3d 36
        E 0 92 2c 36
        E 141 81 2a 00
        E 0 82 27 00
        E 0 80 2e 00
        E 197 90 5a 36
        E 0 92 2e 36
        E 246 80 51 00
        E 0 82 30 00
        E 362 90 55 36
        E 0 91 52 36
        E 81 80 45 00
        E 0 81 3c 00
        E 0 82 35 00
        E 443 80 60 00
        E 0 81 5d 00
        E 443 80 62 00
        E 0 81 5e 00
        E 443 81 2e 00
        E 443 81 2d 00
        E 443 80 4a 00
        E 0 81 2f 00
        E 0 82 2a 00
        E 303 90 53 32
        E 0 91 37 32
        E 0 92 34 32
        E 478 80 56 00
        E 0 81 47 00
        E 0 82 2b 00
        E 338 81 31 00
        E 191 90 47 32
        E 0 91 40 32
        E 0 92 37 32
        E 147 81 35 00
        E 0 80 38 00
        E 0 82 25 00
        E 338 82 2c 00
        E 338 80 5a 00
        E 185 90 64 32
        E 0 91 5f 32
        E 0 92 2b 32
        E 85 80 59 00
        E 0 81 3d 00
        E 0 82 2e 00
        E 922 90 5f 32
        E 0 91 3f 32
        E 0 92 36 32
        E 1007 91 4b 32
        E 670 82 29 00
        E 0 80 55 00
        E 0 81 52 00
        E 337 90 36 32
        E 0 91 33 32
        E 0 92 23 32
        E 671 81 37 00
        E 0 82 34 00
        E 337 90 38 32
        E 0 91 34 32
        E 670 80 47 00
        E 0 81 40 00
        E 0 82 37 00
        E 337 91 53 32
        E 0 92 2c 32
        E 670 81 5f 00
        E 0 82 2b 00
        E 337 90 63 32
        E 0 92 2a 32
        E 670 80 5f 00
        E 0 81 3f 00
        E 337 91 52 32
        E 670 80 53 00
        E 0 82 36 00
        E 0 81 4b 00
        E 139 90 61 32
        E 0 92 29 32
        E 382 90 60 32
        E 0 91 50 32
        E 382 91 4f 32
        E 0 92 27 32
        E 105 80 36 00
        E 0 81 33 00
        E 276 90 5e 32
        E 0 92 26 32
        E 382 90 52 32
        E 0 91 37 32
        E 349 82 23 00
        E 0 80 38 00
        E 0 81 34 00
        E 298 90 53 32
        E 0 92 28 32
        E 647 91 54 32
        E 0 92 2b 32
        E 62 82 2c 00
        E 585 90 54 32
        E 422 81 53 00
        E 809 80 63 00
        E 0 82 2a 00
        E 382 81 52 00
        E 0 80 61 00
        E 370 90 61 32
        E 0 91 3a 32
        E 0 92 35 32
        E 12 82 29 00
        E 0 81 50 00
        E 381 80 60 00
        E 0 82 27 00
        E 382 81 4f 00
        E 0 80 5e 00
        E 216 90 46 32
        E 0 91 29 32
        E 0 92 25 32
        E 431 82 26 00
        E 0 80 52 00
        E 560 90 49 32
        E 0 91 46 32
        E 87 80 53 00
        E 648 80 64 00
        E 0 81 54 00
        E 0 82 2b 00
        E 256 90 4b 32
        E 0 92 36 32
        E 991 90 3f 32
        E 0 91 36 32
        E 0 92 2e 32
        E 735 81 37 00
        E 0 82 28 00
        E 0 80 54 00
        E 256 91 38 32
        E 0 92 2f 32
        E 735 80 61 00
        E 0 81 3a 00
        E 256 90 40 32
        E 735 80 46 00
        E 0 81 29 00
        E 0 82 25 00
        E 61 91 39 32
        E 0 92 31 32
        E 375 90 42 32
        E 0 92 32 32
        E 376 90 43 32
        E 0 91 3b 32
        E 179 82 35 00
        E 0 80 49 00
        E 196 91 3c 32
        E 0 92 34 32
        E 376 91 37 32
        E 0 92 24 32
        E 419 81 46 00
        E 0 80 4b 00
        E 0 82 36 00
        E 218 92 22 32
        E 637 90 4a 32
        E 0 91 3a 32
        E 0 92 37 32
        E 136 81 36 00
        E 0 82 2e 00
        E 500 90 56 32
        E 1287 81 38 00
        E 0 82 2f 00
        E 376 82 31 00
        E 288 90 57 32
        E 87 81 39 00
        E 0 80 42 00
        E 375 82 32 00
        E 0 81 3b 00
        E 376 80 43 00
        E 0 81 3c 00
        E 0 82 34 00
        E 137 90 63 32
        E 0 92 2e 32
        E 500 80 40 00
        E 0 82 24 00
        E 475 90 62 32
        E 0 91 35 32
        E 162 80 3f 00
        E 0 82 22 00
        E 636 80 4a 00
        E 177 92 2d 32
        E 1410 90 45 32
        E 0 91 29 32
        E 0 92 26 32
        E 364 80 56 00
        E 975 81 3a 00
        E 0 82 37 00
        E 0 80 57 00
        E 975 81 37 00
        E 0 80 63 00
        E 975 82 2e 00
        E 1410 80 62 00
        E 0 81 35 00
        E 0 82 2d 00
        E 98 90 46 32
        E 960 90 62 32
        E 0 91 5e 32
        E 0 92 29 32
        E 959 90 60 32
        E 0 91 5d 32
        E 960 92 28 32
        E 1387 90 5d 32
        E 0 91 34 32
        E 0 92 24 32
        E 433 80 45 00
        E 960 81 29 00
        E 0 82 26 00
        E 0 80 46 00
        E 959 80 62 00
        E 0 81 5e 00
        E 960 82 29 00
        E 1387 80 60 00
        E 0 81 5d 00
        E 0 82 28 00
        E 965 90 4b 32
        E 0 91 47 32
        E 0 92 2a 32
        E 944 90 57 32
        E 0 91 3b 32
        E 944 90 53 32
        E 0 91 33 32
        E 944 92 2c 32
        E 944 90 3b 32
        E 0 91 2c 32
        E 0 92 28 32
        E 923 80 5d 00
        E 0 82 24 00
        E 21 91 2a 32
        E 0 92 27 32
        E 923 80 4b 00
        E 0 81 47 00
        E 21 90 3a 32
        E 759 91 29 32
        E 0 92 25 32
        E 164 80 57 00
        E 0 81 3b 00
        E 193 90 38 32
        E 0 92 24 32
        E 358 90 37 32
        E 0 91 27 32
        E 358 91 26 32
        E 0 92 22 32
        E 35 82 2a 00
        E 0 81 33 00
        E 322 91 32 32
        E 0 92 2b 32
        E 622 80 53 00
        E 0 82 2c 00
        E 592 90 3c 32
        E 0 91 2b 32
        E 352 81 2c 00
        E 1703 81 2a 00
        E 0 82 27 00
        E 357 82 25 00
        E 358 81 29 00
        E 0 80 38 00
        E 358 82 24 00
        E 0 81 27 00
        E 265 90 4c 32
        E 0 91 3b 32
        E 93 80 37 00
        E 0 81 26 00
        E 0 82 22 00
        E 606 80 3a 00
        E 0 81 32 00
        E 230 91 3c 32
        E 0 92 2d 32
        E 929 90 4d 32
        E 54 82 28 00
        E 0 81 2b 00
        E 692 90 54 32
        E 0 91 39 32
        E 0 92 29 32
        E 597 90 60 32
        E 569 80 3c 00
        E 929 81 34 00
        E 0 80 3b 00
        E 929 82 2b 00
        E 0 81 3b 00
        E 929 80 4c 00
        E 746 81 3c 00
        E 0 82 2d 00
        E 0 80 4d 00
        E 468 92 28 32
        E 129 80 54 00
        E 785 90 51 32
        E 0 91 48 32
        E 0 92 34 32
        E 913 91 4a 32
        E 0 92 35 32
        E 914 90 52 32
        E 1322 90 56 32
        E 0 91 52 32
        E 636 82 29 00
        E 914 81 39 00
        E 0 80 60 00
        E 0 82 28 00
        E 914 81 48 00
        E 0 82 34 00
        E 914 80 51 00
        E 1321 81 4a 00
        E 0 80 52 00
        E 1596 90 53 32
        E 0 91 38 32
        E 0 92 27 32
        E 719 90 47 32
        E 0 92 33 32
        E 720 90 5f 32
        E 0 91 57 32
        E 0 92 2c 32
        E 719 90 61 32
        E 0 91 58 32
        E 720 90 40 32
        E 0 91 31 32
        E 719 92 2d 33
        E 719 91 30 33
        E 0 92 2b 33
        E 383 82 35 00
        E 0 80 56 00
        E 0 81 52 00
        E 337 91 40 33
        E 382 80 53 00
        E 0 82 27 00
        E 337 90 48 34
        E 383 81 38 00
        E 0 82 33 00
        E 179 90 46 34
        E 0 91 3f 34
        E 540 80 5f 00
        E 0 81 57 00
        E 22 90 52 34
        E 0 91 4a 34
        E 562 91 4b 36
        E 136 80 61 00
        E 0 81 58 00
        E 304 91 49 36
        E 0 92 2a 36
        E 415 82 2c 00
        E 24 91 3d 36
        E 0 92 29 36
        E 696 81 31 00
        E 0 82 2d 00
        E 78 90 64 36
        E 0 91 53 36
        E 335 91 37 36
        E 0 92 28 36
        E 306 80 40 00
        E 0 81 30 00
        E 29 90 5f 36
        E 0 91 4c 36
        E 335 90 60 36
        E 0 92 2d 36
        E 335 91 4d 36
        E 268 91 2d 36
        E 314 81 40 00
        E 0 80 48 00
        E 562 80 46 00
        E 0 81 3f 00
        E 62 91 36 34
        E 0 92 27 34
        E 409 90 53 34
        E 0 92 33 34
        E 92 81 4a 00
        E 317 90 63 34
        E 0 91 2a 34
        E 0 92 23 34
        E 122 81 4b 00
        E 287 91 2c 34
        E 152 81 49 00
        E 0 82 2a 00
        E 257 91 38 34
        E 409 90 49 34
        E 108 80 52 00
        E 0 81 3d 00
        E 301 91 39 34
        E 34 80 64 00
        E 0 81 53 00
        E 295 90 61 34
        E 40 81 37 00
        E 222 90 39 34
        E 0 91 34 34
        E 0 92 25 34
        E 113 82 2b 00
        E 335 81 4c 00
        E 268 82 2d 00
        E 0 81 4d 00
        E 939 82 29 00
        E 0 80 60 00
        E 0 81 2d 00
        E 357 90 3e 34
        E 0 91 3a 34
        E 0 92 2b 34
        E 52 80 5f 00
        E 270 90 4a 34
        E 0 91 2e 34
        E 138 81 36 00
        E 0 80 53 00
        E 0 82 33 00
        E 184 90 43 34
        E 0 92 26 34
        E 225 81 2a 00
        E 97 91 30 34
        E 312 80 63 00
        E 0 82 23 00
        E 0 81 2c 00
        E 10 90 4b 34
        E 0 91 48 34
        E 0 92 37 34
        E 322 92 38 36
        E 77 80 47 00
        E 245 91 47 36
        E 0 92 36 36
        E 164 81 38 00
        E 158 90 5e 36
        E 0 91 4b 36
        E 171 80 49 00
        E 263 82 28 00
        E 0 81 39 00
        E 0 80 61 00
        E 133 90 5d 36
        E 0 91 28 36
        E 0 92 24 36
        E 246 90 51 36
        E 0 92 28 36
        E 245 90 54 36
        E 0 91 51 36
        E 0 92 34 36
        E 246 90 56 36
        E 0 92 35 36
        E 245 91 52 36
        E 197 90 62 36
        E 0 91 35 36
        E 0 92 22 36
        E 699 80 39 00
        E 0 81 34 00
        E 0 82 25 00
        E 322 80 3e 00
        E 0 81 3a 00
        E 136 90 40 33
        E 0 91 3b 33
        E 0 92 2c 33
        E 186 82 2b 00
        E 0 80 4a 00
        E 282 90 4c 33
        E 0 91 2f 33
        E 40 81 2e 00
        E 0 82 26 00
        E 322 82 27 00
        E 0 80 43 00
        E 106 90 47 33
        E 0 91 2c 33
        E 216 82 37 00
        E 253 92 2b 33
        E 69 81 48 00
        E 0 82 38 00
        E 322 80 4b 00
        E 0 81 47 00
        E 77 91 46 33
        E 469 91 3e 33
        E 21 82 36 00
        E 0 81 4b 00
        E 246 80 5d 00
        E 0 81 28 00
        E 0 82 24 00
        E 201 90 60 33
        E 0 91 3f 33
        E 44 81 30 00
        E 0 80 51 00
        E 246 80 54 00
        E 0 82 34 00
        E 179 90 30 33
        E 0 91 2b 33
        E 0 92 27 33
        E 67 81 51 00
        E 196 82 35 00
        E 205 92 29 33
        E 468 90 31 33
        E 377 91 2e 32
        E 0 92 2a 32
        E 107 81 35 00
        E 0 82 22 00
        E 70 90 33 32
        E 178 90 34 32
        E 177 91 31 32
        E 0 92 2d 32
        E 43 80 40 00
        E 0 81 3b 00
        E 135 90 2d 33
        E 0 91 28 33
        E 0 92 25 33
        E 301 90 2b 33
        E 0 92 24 33
        E 32 80 4c 00
        E 570 91 34 33
        E 367 80 56 00
        E 0 81 52 00
        E 469 80 62 00
        E 0 81 46 00
        E 85 90 48 33
        E 383 80 5e 00
        E 0 81 3e 00
        E 78 90 4c 33
        E 0 91 30 33
        E 391 80 60 00
        E 0 81 3f 00
        E 70 90 4a 33
        E 398 82 27 00
        E 469 80 30 00
        E 260 90 56 33
        E 116 81 2c 00
        E 0 82 29 00
        E 177 80 31 00
        E 0 81 2e 00
        E 178 80 33 00
        E 177 82 2c 00
        E 178 80 34 00
        E 0 81 31 00
        E 0 82 2d 00
        E 301 80 2d 00
        E 0 82 25 00
        E 301 81 28 00
        E 0 80 2b 00
        E 0 82 24 00
        E 301 82 28 00
        E 0 81 2b 00
        E 921 80 47 00
        E 71 90 5f 33
        E 0 91 56 33
        E 0 92 37 33
        E 390 81 34 00
        E 0 80 48 00
        E 64 90 5d 33
        E 0 92 36 33
        E 397 80 4c 00
        E 0 81 30 00
        E 56 91 55 33
        E 656 90 61 33
        E 0 91 5d 33
        E 416 80 4a 00
        E 2261 90 54 33
        E 0 91 38 33
        E 0 92 27 33
        E 6 82 2a 00
        E 351 90 48 33
        E 0 92 33 33
        E 103 81 2f 00
        E 0 82 2b 00
        E 0 80 56 00
        E 254 90 60 33
        E 0 91 57 33
        E 0 92 2c 33
        E 199 80 5f 00
        E 0 82 37 00
        E 158 91 59 33
        E 296 81 56 00
        E 61 90 41 33
        E 0 91 31 33
        E 357 91 30 34
        E 237 80 5d 00
        E 0 81 55 00
        E 120 91 32 34
        E 0 92 2d 34
        E 357 90 3e 34
        E 0 91 3a 34
        E 0 92 29 34
        E 357 91 39 36
        E 279 91 3b 36
        E 0 92 2a 36
        E 279 90 53 36
        E 0 91 4a 36
        E 0 92 2b 36
        E 492 90 65 36
        E 0 91 3d 36
        E 212 90 38 36
        E 213 90 4d 36
        E 0 91 49 36
        E 213 90 4e 36
        E 0 92 2e 36
        E 156 82 36 00
        E 0 81 5d 00
        E 227 90 5e 36
        E 129 80 54 00
        E 0 82 27 00
        E 357 81 38 00
        E 0 80 48 00
        E 0 82 33 00
        E 110 90 5f 34
        E 0 91 37 34
        E 0 92 28 34
        E 247 80 60 00
        E 0 81 57 00
        E 13 92 34 34
        E 260 90 64 34
        E 0 91 2b 34
        E 0 92 23 34
        E 84 80 61 00
        E 0 81 59 00
        E 175 91 2d 34
        E 0 92 24 34
        E 260 90 39 34
        E 0 91 35 34
        E 260 90 37 34
        E 0 91 34 34
        E 19 81 30 00
        E 357 80 41 00
        E 0 81 32 00
        E 0 82 2d 00
        E 259 90 3b 34
        E 98 81 3a 00
        E 279 81 39 00
        E 279 80 3e 00
        E 0 82 2a 00
        E 492 81 4a 00
        E 130 90 3d 34
        E 0 91 2e 34
        E 0 92 2a 34
        E 82 81 3d 00
        E 122 90 49 34
        E 0 91 2a 34
        E 0 92 22 34
        E 91 81 31 00
        E 0 80 38 00
        E 114 90 42 34
        E 0 91 25 34
        E 99 82 2c 00
        E 105 91 27 34
        E 108 80 4e 00
        E 97 90 4b 34
        E 0 92 36 34
        E 73 80 4d 00
        E 0 82 2e 00
        E 131 91 3a 36
        E 205 91 3c 36
        E 0 92 37 36
        E 204 90 57 36
        E 0 91 54 36
        E 0 92 38 36
        E 56 82 29 00
        E 0 81 49 00
        E 0 80 5e 00
        E 260 80 5f 00
        E 44 90 5d 36
        E 0 92 26 36
        E 156 90 51 36
        E 0 91 32 36
        E 60 80 53 00
        E 0 82 34 00
        E 96 90 56 36
        E 0 91 51 36
        E 156 91 53 36
        E 7 81 2b 00
        E 260 80 65 00
        E 0 81 2d 00
        E 14 90 5f 36
        E 0 91 56 36
        E 246 80 39 00
        E 0 81 35 00
        E 260 82 24 00
        E 208 80 37 00
        E 0 81 34 00
        E 167 82 2b 00
        E 0 80 64 00
        E 1045 91 55 32
        E 233 81 37 00
        E 0 82 28 00
        E 0 80 3b 00
        E 109 90 5c 32
        E 0 92 34 32
        E 95 80 3d 00
        E 0 81 2e 00
        E 205 80 49 00
        E 41 92 33 32
        E 163 82 22 00
        E 0 81 25 00
        E 179 90 5a 32
        E 0 91 52 32
        E 26 82 23 00
        E 0 80 42 00
        E 0 81 27 00
        E 204 81 3b 00
        E 112 90 59 32
        E 0 92 31 32
        E 93 81 3a 00
        E 204 80 4b 00
        E 0 81 3c 00
        E 45 91 50 32
        E 0 92 30 32
        E 315 80 57 00
        E 0 81 54 00
        E 0 82 38 00
        E 156 81 2a 00
        E 0 82 26 00
        E 156 82 2a 00
        E 0 80 51 00
        E 0 81 32 00
        E 156 81 51 00
        E 156 82 37 00
        E 125 80 56 00
        E 1926 80 5f 00
        E 0 81 56 00
        E 257 90 57 32
        E 0 91 48 32
        E 0 92 37 32
        E 85 82 36 00
        E 0 80 5d 00
        E 342 81 55 00
        E 0 82 34 00
        E 341 81 53 00
        E 0 80 5c 00
        E 342 82 33 00
        E 0 80 5a 00
        E 342 81 52 00
        E 0 82 31 00
        E 3247 80 59 00
        E 0 81 50 00
        E 0 82 30 00
        E 4358 80 57 00
        E 0 81 48 00
        E 0 82 37 00
        E 0 b0 7b 00
        CCINTERP 32
        CHASE_CC_TAKEOFFS 1
        GUID {99DE83BD-B3E1-DD4F-95D3-121FDCE928D4}
        IGNTEMPO 0 120 4 4
        SRCCOLOR 35
        VELLANE -1 100 0 0 1
      >
    >
    <ITEM
      POSITION 0
      SNAPOFFS 0
      LENGTH 4
      LOOP 1
      ALLTAKES 0
      FADEIN 1 0 0 1 0 0 0
      FADEOUT 1 0 0 1 0 0 0
      MUTE 0 0
      SEL 0
      IGUID {C59594E3-FA1A-D04C-A61B-C7A4FCDE9175}
      IID 38
      NAME ""
      VOLPAN 1 0 1 -1
      SOFFS 0 0
      PLAYRATE 1 1 0 -1 0 0.0025
      CHANMODE 0
      GUID {B7AC628F-8FAD-444D-B075-B80E27491CB7}
      <SOURCE MIDI
        HASDATA 1 960 QN
        CCINTERP 32
        POOLEDEVTS {1D4D6E6C-56D8-7E47-A4C6-2D8B20A1CC99}
        E 58 90 2a 33
        E 0 91 46 33
        E 0 92 4b 33
        E 1786 80 2a 00
        E 0 81 46 00
        E 0 82 4b 00
        E 0 90 3a 33
        E 0 91 3f 33
        E 0 92 42 33
        E 1785 80 3a 00
        E 0 82 42 00
        E 0 90 3b 33
        E 0 92 44 33
        E 1786 81 3f 00
        E 0 80 3b 00
        E 0 82 44 00
        E 0 90 2c 33
        E 0 91 3b 33
        E 0 92 57 33
        E 1786 81 3b 00
        E 0 82 57 00
        E 0 91 3d 33
        E 0 92 58 33
        E 1785 81 3d 00
        E 0 91 3b 33
        E 1434 80 2c 00
        E 0 81 3b 00
        E 0 90 2d 32
        E 0 91 3d 32
        E 677 82 58 00
        E 0 81 3d 00
        E 0 91 3e 32
        E 0 92 5a 32
        E 676 80 2d 00
        E 0 82 5a 00
        E 0 90 2f 32
        E 0 92 5b 32
        E 677 81 3e 00
        E 0 80 2f 00
        E 0 90 30 32
        E 0 91 40 32
        E 676 82 5b 00
        E 0 80 30 00
        E 0 81 40 00
        E 0 90 2b 33
        E 0 91 54 33
        E 0 92 58 33
        E 1148 91 52 33
        E 0 92 57 33
        E 1147 91 57 33
        E 0 92 60 33
        E 1147 90 27 33
        E 0 91 37 33
        E 2405 81 54 00
        E 0 82 58 00
        E 1109 90 2d 33
        E 0 91 31 33
        E 0 92 34 33
        E 38 81 52 00
        E 0 82 57 00
        E 1147 80 2b 00
        E 0 81 57 00
        E 572 90 25 33
        E 0 91 2d 33
        E 0 92 40 33
        E 1757 90 39 33
        E 0 91 58 33
        E 0 92 61 33
        E 1185 82 60 00
        E 0 80 27 00
        E 0 81 37 00
        E 572 91 5a 33
        E 0 92 62 33
        E 1185 80 2d 00
        E 0 81 31 00
        E 0 82 34 00
        E 572 90 32 33
        E 0 91 39 33
        E 0 92 42 33
        E 1185 80 25 00
        E 0 81 2d 00
        E 0 82 40 00
        E 572 90 31 33
        E 0 92 40 33
        E 1185 81 58 00
        E 0 82 61 00
        E 1757 80 39 00
        E 0 81 5a 00
        E 0 82 62 00
        E 226 91 38 32
        E 665 90 2f 32
        E 0 92 3f 32
        E 666 90 2e 32
        E 0 91 36 32
        E 200 80 32 00
        E 466 91 35 32
        E 0 92 3d 32
        E 665 90 3a 33
        E 0 91 3d 33
        E 0 92 4d 33
        E 1129 91 3e 33
        E 0 92 4f 33
        E 908 81 39 00
        E 0 82 42 00
        E 221 91 4a 33
        E 444 80 31 00
        E 0 82 40 00
        E 666 81 38 00
        E 0 80 2f 00
        E 19 92 59 33
        E 647 82 3f 00
        E 0 81 36 00
        E 665 80 2e 00
        E 0 81 35 00
        E 0 82 3d 00
        E 1129 81 3d 00
        E 1017 90 2c 33
        E 0 91 40 33
        E 0 92 49 33
        E 112 81 3e 00
        E 0 82 4f 00
        E 1129 82 4d 00
        E 487 91 3d 33
        E 0 92 4c 33
        E 1729 90 28 33
        E 0 91 2c 33
        E 0 92 55 33
        E 1241 80 3a 00
        E 0 81 4a 00
        E 0 82 59 00
        E 488 90 2a 33
        E 0 91 2d 33
        E 1241 81 40 00
        E 0 82 49 00
        E 487 90 39 33
        E 0 91 5a 33
        E 0 92 61 33
        E 1242 80 2c 00
        E 0 81 3d 00
        E 0 82 4c 00
        E 487 90 3b 33
        E 0 92 62 33
        E 1241 80 28 00
        E 0 81 2c 00
        E 1729 82 55 00
        E 0 80 2a 00
        E 0 81 2d 00
        E 147 91 5b 32
        E 655 90 40 32
        E 0 92 60 32
        E 655 90 41 32
        E 0 91 5d 32
        E 272 82 61 00
        E 383 91 5e 32
        E 655 90 29 33
        E 0 91 46 33
        E 1111 91 44 33
        E 0 92 61 33
        E 968 80 39 00
        E 0 81 5a 00
        E 142 90 25 33
        E 0 91 35 33
        E 0 92 46 33
        E 513 80 3b 00
        E 598 90 2e 33
        E 0 92 49 33
        E 57 81 5b 00
        E 0 80 40 00
        E 655 82 60 00
        E 0 81 5d 00
        E 655 80 41 00
        E 0 81 5e 00
        E 1111 82 62 00
        E 0 81 46 00
        E 924 90 2c 33
        E 186 80 29 00
        E 0 81 44 00
        E 0 82 61 00
        E 1111 80 25 00
        E 0 82 46 00
        E 404 91 31 33
        E 0 92 41 33
        E 1701 91 30 33
        E 0 92 3f 33
        E 1297 80 2e 00
        E 1701 81 35 00
        E 0 82 49 00
        E 69 91 3c 33
        E 1093 92 4d 33
        E 539 81 31 00
        E 1701 82 3f 00
        E 1366 81 30 00
        E 1093 82 41 00
        E 3669 92 4b 33
        E 1673 90 38 33
        E 0 91 57 33
        E 0 92 60 33
        E 1674 90 37 33
        E 0 92 5e 33
        E 1352 82 4d 00
        E 1666 91 4b 33
        E 0 92 54 33
        E 7 80 2c 00
        E 0 81 3c 00
        E 0 82 4b 00
        E 1068 91 54 33
        E 0 92 57 33
        E 606 80 38 00
        E 1674 82 5e 00
        E 1344 81 57 00
        E 0 82 60 00
        E 1075 81 4b 00
        E 0 82 54 00
        E 5181 90 39 33
        E 0 91 4c 33
        E 0 92 55 33
        E 1647 91 49 33
        E 0 92 58 33
        E 1647 90 34 33
        E 0 91 39 33
        E 0 92 61 33
        E 1405 80 37 00
        E 0 81 54 00
        E 0 82 57 00
        E 242 90 36 33
        E 0 92 62 33
        E 1405 81 4c 00
        E 0 82 55 00
        E 241 90 2d 33
        E 0 91 32 33
        E 0 92 5a 33
        E 1406 80 39 00
        E 0 81 49 00
        E 0 82 58 00
        E 241 91 31 33
        E 0 92 58 33
        E 1405 80 34 00
        E 0 82 61 00
        E 1564 90 2c 32
        E 83 81 39 00
        E 0 80 36 00
        E 0 82 62 00
        E 541 91 2f 32
        E 0 92 57 32
        E 624 90 2a 32
        E 0 91 2e 32
        E 482 81 32 00
        E 142 90 29 32
        E 0 92 55 32
        E 624 91 3a 33
        E 0 92 3d 33
        E 1058 90 2b 33
        E 0 92 3e 33
        E 1058 92 4a 33
        E 87 80 2d 00
        E 0 82 5a 00
        E 624 81 31 00
        E 0 82 58 00
        E 347 90 35 33
        E 277 80 2c 00
        E 0 81 2f 00
        E 624 82 57 00
        E 0 80 2a 00
        E 624 81 2e 00
        E 0 82 55 00
        E 1058 82 3d 00
        E 658 90 37 33
        E 400 80 2b 00
        E 0 82 3e 00
        E 1058 80 29 00
        E 162 90 3a 33
        E 0 91 3e 33
        E 0 92 43 33
        E 1620 90 3c 33
        E 0 91 3f 33
        E 1459 80 35 00
        E 1463 91 4b 33
        E 0 92 4f 33
        E 157 81 3a 00
        E 0 82 4a 00
        E 0 80 37 00
        E 884 91 57 33
        E 0 92 5b 33
        E 736 81 3e 00
        E 1620 80 3c 00
        E 1302 82 43 00
        E 0 81 3f 00
        E 1041 81 4b 00
        E 0 82 4f 00
        E 3272 90 3c 33
        E 1594 90 2b 33
        E 0 91 30 33
        E 0 92 4b 33
        E 1594 90 2c 33
        E 0 92 4d 33
        E 1511 80 3a 00
        E 1364 91 3c 33
        E 0 92 57 33
        E 230 81 57 00
        E 0 82 5b 00
        E 0 80 3c 00
        E 795 90 27 33
        E 0 91 38 33
        E 0 92 3c 33
        E 799 80 2b 00
        E 1595 82 4d 00
        E 1280 81 30 00
        E 0 82 4b 00
        E 1024 80 2c 00
        E 0 81 3c 00
        E 0 82 57 00
        E 6282 90 2f 33
        E 0 91 32 33
        E 0 92 4e 33
        E 1568 90 26 33
        E 0 91 2f 33
        E 0 92 5a 33
        E 1569 91 36 33
        E 0 92 3e 33
        E 1562 80 27 00
        E 0 81 38 00
        E 0 82 3c 00
        E 7 91 37 33
        E 0 92 40 33
        E 1561 81 32 00
        E 0 82 4e 00
        E 7 90 28 33
        E 0 92 47 33
        E 1562 80 26 00
        E 0 81 2f 00
        E 0 82 5a 00
        E 7 91 39 33
        E 0 92 48 33
        E 1561 81 36 00
        E 0 82 3e 00
        E 1267 90 29 32
        E 302 80 2f 00
        E 0 82 40 00
        E 293 91 3a 32
        E 0 92 4a 32
        E 594 90 2b 32
        E 0 92 4b 32
        E 594 90 2c 32
        E 0 91 3c 32
        E 88 82 47 00
        E 507 90 27 33
        E 0 92 44 33
        E 1007 91 3b 33
        E 0 92 42 33
        E 1008 90 38 33
        E 0 91 3f 33
        E 0 92 47 33
        E 306 81 37 00
        E 0 80 28 00
        E 595 81 39 00
        E 0 82 48 00
        E 107 90 44 33
        E 0 91 47 33
        E 487 80 29 00
        E 0 82 4a 00
        E 594 81 3a 00
        E 0 80 2b 00
        E 594 80 2c 00
        E 1008 81 3c 00
        E 0 82 44 00
        E 404 90 2d 33
        E 0 91 54 33
        E 0 92 59 33
        E 604 80 27 00
        E 0 81 3b 00
        E 0 82 42 00
        E 940 90 29 33
        E 0 91 39 33
        E 0 92 48 33
        E 68 80 38 00
        E 0 81 3f 00
        E 0 82 47 00
        E 1475 91 41 33
        E 0 92 60 33
        E 1543 90 2e 33
        E 0 92 62 33
        E 69 82 4b 00
        E 0 80 44 00
        E 0 81 47 00
        E 1475 91 3e 33
        E 0 92 41 33
        E 68 81 54 00
        E 0 82 59 00
        E 1475 91 3c 33
        E 69 80 29 00
        E 0 81 39 00
        E 0 82 48 00
        E 1543 82 60 00
        E 1171 92 40 32
        E 373 81 41 00
        E 0 82 62 00
        E 212 90 2b 32
        E 0 91 3b 32
        E 585 90 2a 32
        E 0 92 3e 32
        E 585 91 39 32
        E 0 92 3d 32
        E 161 80 2e 00
        E 423 91 36 33
        E 992 90 2e 33
        E 0 92 3f 33
        E 992 92 49 33
        E 376 81 3e 00
        E 0 82 41 00
        E 585 81 3c 00
        E 31 91 42 33
        E 554 82 40 00
        E 0 80 2b 00
        E 584 81 3b 00
        E 0 82 3e 00
        E 585 80 2a 00
        E 0 81 39 00
        E 992 80 2d 00
        E 0 82 3d 00
        E 322 92 4b 33
        E 670 82 3f 00
        E 848 90 27 33
        E 0 91 2a 33
        E 0 92 3a 33
        E 143 81 36 00
        E 1376 91 2c 33
        E 0 92 3b 33
        E 1662 82 49 00
        E 1076 90 33 33
        E 0 91 36 33
        E 442 80 2e 00
        E 0 81 42 00
        E 0 82 4b 00
        E 534 90 3b 33
        E 0 91 3f 33
        E 0 92 42 33
        E 985 82 3a 00
        E 1519 81 2c 00
        E 1219 80 27 00
        E 0 81 2a 00
        E 976 82 3b 00
        E 0 80 33 00
        E 0 81 36 00
        E 2772 92 44 33
        E 1495 90 2c 33
        E 0 91 2f 33
        E 0 92 3f 33
        E 1494 91 31 33
        E 0 92 40 33
        E 1710 82 42 00
        E 984 92 34 33
        E 510 80 3b 00
        E 0 81 3f 00
        E 0 82 44 00
        E 450 90 2f 33
        E 0 91 38 33
        E 1045 82 3f 00
        E 1494 81 31 00
        E 2160 80 2c 00
        E 0 81 2f 00
        E 0 82 34 00
        E 4123 90 3a 33
        E 0 91 56 33
        E 0 92 5b 33
        E 1470 90 2b 33
        E 0 91 46 33
        E 0 92 4a 33
        E 1470 91 43 33
        E 0 92 62 33
        E 1470 90 3f 33
        E 0 92 60 33
        E 288 82 40 00
        E 0 80 2f 00
        E 0 81 38 00
        E 1182 90 30 33
        E 0 91 33 33
        E 0 92 37 33
        E 289 81 56 00
        E 0 82 5b 00
        E 1182 91 35 33
        E 0 92 38 33
        E 288 80 2b 00
        E 0 81 46 00
        E 0 82 4a 00
        E 1470 80 3a 00
        E 0 82 62 00
        E 893 90 31 32
        E 557 91 36 32
        E 0 92 3a 32
        E 20 81 43 00
        E 0 80 3f 00
        E 0 82 60 00
        E 537 90 33 32
        E 0 92 3b 32
        E 557 90 34 32
        E 0 91 38 32
        E 377 82 37 00
        E 180 90 3b 33
        E 0 91 40 33
        E 0 92 44 33
        E 945 91 3e 33
        E 0 92 43 33
        E 944 91 43 33
        E 0 92 4c 33
        E 582 80 30 00
        E 0 81 33 00
        E 363 91 4f 33
        E 0 92 58 33
        E 194 81 35 00
        E 0 82 38 00
        E 557 80 31 00
        E 0 82 3a 00
        E 557 81 36 00
        E 0 80 33 00
        E 557 82 3b 00
        E 0 80 34 00
        E 0 81 38 00
        E 944 81 40 00
        E 0 82 44 00
        E 84 92 56 33
        E 861 81 3e 00
        E 0 82 43 00
        E 586 91 3e 33
        E 0 92 5b 33
        E 359 81 43 00
        E 0 82 4c 00
        E 1087 90 39 33
        E 0 92 5a 33
        E 1806 82 58 00
        E 803 90 2a 33
        E 0 92 47 33
        E 644 81 4f 00
        E 0 82 56 00
        E 285 90 36 33
        E 1161 82 5b 00
        E 1447 80 39 00
        E 1162 80 3b 00
        E 0 82 5a 00
        E 929 80 2a 00
        E 2418 92 45 33
        E 1424 90 2a 33
        E 0 91 32 33
        E 0 92 39 33
        E 1423 90 28 33
        E 0 91 31 33
        E 1852 82 47 00
        E 715 91 39 33
        E 0 92 3d 33
        E 709 81 3e 00
        E 0 80 36 00
        E 0 82 45 00
        E 205 90 36 33
        E 1218 81 32 00
        E 1423 80 28 00
        E 1144 82 39 00
        E 0 81 31 00
        E 914 80 2a 00
        E 9306 90 34 34
        E 1401 91 37 34
        E 0 92 3c 34
        E 1400 90 30 34
        E 0 91 34 34
        E 0 92 45 34
        E 1401 92 43 36
        E 497 80 36 00
        E 597 90 2e 36
        E 0 91 33 36
        E 804 81 39 00
        E 0 82 3d 00
        E 290 90 27 36
        E 0 91 30 36
        E 1094 91 2e 3b
        E 16 80 34 00
        E 0 81 37 00
        E 0 82 3c 00
        E 839 90 25 3b
        E 0 92 42 3b
        E 562 82 45 00
        E 293 90 3f 3b
        E 0 91 42 3b
        E 0 92 46 3b
        E 801 80 30 00
        E 0 81 34 00
        E 53 90 3d 46
        E 668 91 40 46
        E 0 92 45 46
        E 373 80 2e 00
        E 0 81 33 00
        E 295 90 2a 46
        E 0 91 2d 46
        E 0 92 31 46
        E 799 81 30 00
        E 378 90 2b 46
        E 0 91 3f 46
        E 0 92 60 46
        E 477 82 43 00
        E 0 80 27 00
        E 33 91 4b 46
        E 0 92 54 46
        E 509 90 24 46
        E 0 91 2b 46
        E 0 92 33 46
        E 313 81 2e 00
        E 0 80 25 00
        E 0 82 42 00
        E 197 91 2c 46
        E 0 92 35 46
        E 657 80 3f 00
        E 260 90 2c 46
        E 0 92 48 46
        E 408 81 42 00
        E 0 82 46 00
        E 668 80 3d 00
        E 0 81 40 00
        E 0 82 45 00
        E 351 90 2d 3b
        E 0 91 32 3b
        E 0 92 5a 3b
        E 622 90 26 3b
        E 0 91 2a 3b
        E 0 92 39 3b
        E 204 80 2a 00
        E 0 81 2d 00
        E 0 82 31 00
        E 418 91 3e 3b
        E 0 92 42 3b
        E 92 82 60 00
        E 509 80 2b 00
        E 0 81 4b 00
        E 0 82 54 00
        E 21 90 2f 3b
        E 0 91 40 3b
        E 0 92 43 3b
        E 489 81 2b 00
        E 133 91 34 3b
        E 0 92 4f 3b
        E 376 82 35 00
        E 246 90 30 3b
        E 0 92 51 3b
        E 162 80 24 00
        E 0 82 33 00
        E 0 81 2c 00
        E 960 90 2b 3b
        E 0 92 54 3b
        E 399 91 4c 3b
        E 68 81 3f 00
        E 0 80 2c 00
        E 0 82 48 00
        E 622 81 32 00
        E 0 82 5a 00
        E 622 80 26 00
        E 0 81 2a 00
        E 0 82 39 00
        E 622 80 2d 00
        E 0 81 3e 00
        E 0 82 42 00
        E 622 82 43 00
        E 504 90 33 3b
        E 0 91 42 3b
        E 0 92 46 3b
        E 118 80 2f 00
        E 372 90 2a 3b
        E 0 91 2e 3b
        E 0 92 4b 3b
        E 250 82 51 00
        E 239 90 27 3b
        E 0 91 2a 3b
        E 261 81 34 00
        E 0 82 4f 00
        E 0 80 30 00
        E 229 91 2c 3b
        E 0 92 47 3b
        E 170 81 40 00
        E 319 90 3b 3b
        E 0 91 3f 3b
        E 0 92 50 3b
        E 490 92 4e 46
        E 489 90 39 46
        E 0 91 3e 46
        E 490 90 32 46
        E 0 91 3b 46
        E 863 90 24 46
        E 0 91 29 46
        E 0 92 44 46
        E 374 90 29 46
        E 0 92 3c 46
        E 35 80 2b 00
        E 0 82 54 00
        E 0 81 4c 00
        E 338 90 30 46
        E 0 91 38 46
        E 0 92 4d 46
        E 152 80 33 00
        E 0 81 42 00
        E 222 90 31 46
        E 0 91 3a 46
        E 267 80 2a 00
        E 0 81 2e 00
        E 0 82 4b 00
        E 405 90 38 46
        E 0 91 3d 46
        E 85 82 46 00
        E 0 81 2a 00
        E 489 80 27 00
        E 0 82 47 00
        E 490 82 50 00
        E 489 80 3b 00
        E 0 81 3f 00
        E 206 90 2b 36
        E 0 91 2f 36
        E 0 92 62 36
        E 284 80 39 00
        E 0 81 3e 00
        E 428 90 2f 36
        E 0 91 37 36
        E 0 92 56 36
        E 435 82 4e 00
        E 0 80 32 00
        E 0 81 3b 00
        E 278 90 3b 36
        E 0 91 4a 36
        E 0 92 5b 36
        E 96 80 24 00
        E 0 81 29 00
        E 0 82 44 00
        E 373 81 2c 00
        E 0 80 29 00
        E 0 82 3c 00
        E 243 90 2e 36
        E 0 91 3f 36
        E 0 92 42 36
        E 131 80 30 00
        E 373 81 3a 00
        E 209 92 4e 36
        E 90 81 38 00
        E 0 80 31 00
        E 622 90 2a 36
        E 0 91 2e 36
        E 0 92 33 36
        E 712 90 2c 36
        E 425 82 4d 00
        E 0 80 38 00
        E 0 81 3d 00
        E 288 90 33 36
        E 0 91 38 36
        E 0 92 47 36
        E 424 80 2b 00
        E 0 82 62 00
        E 288 90 34 36
        E 0 92 49 36
        E 425 80 2f 00
        E 0 81 37 00
        E 0 82 56 00
        E 712 80 3b 00
        E 0 81 4a 00
        E 0 82 5b 00
        E 148 91 39 34
        E 270 90 36 34
        E 0 92 4a 34
        E 270 90 37 34
        E 0 91 3b 34
        E 24 82 42 00
        E 246 91 3c 34
        E 0 92 4c 34
        E 269 90 30 36
        E 0 91 37 36
        E 0 92 58 36
        E 198 80 2e 00
        E 0 81 3f 00
        E 0 82 4e 00
        E 260 90 2e 36
        E 0 92 57 36
        E 452 80 2a 00
        E 0 81 2e 00
        E 464 90 27 36
        E 0 92 43 36
        E 249 81 2f 00
        E 0 82 33 00
        E 0 80 2c 00
        E 712 80 33 00
        E 441 91 3a 36
        E 701 91 2e 36
        E 143 81 38 00
        E 0 82 47 00
        E 270 80 34 00
        E 0 82 49 00
        E 270 81 39 00
        E 0 80 36 00
        E 18 90 26 36
        E 0 92 41 36
        E 251 82 4a 00
        E 0 81 3b 00
        E 270 82 4c 00
        E 458 80 30 00
        E 0 82 58 00
        E 285 92 62 36
        E 450 91 43 36
        E 181 80 37 00
        E 0 82 57 00
        E 1402 81 3c 00
        E 701 81 3a 00
        E 701 80 27 00
        E 464 91 41 36
        E 236 82 41 00
        E 453 90 3a 36
        E 0 91 3e 36
        E 0 92 59 36
        E 110 82 43 00
        E 0 81 2e 00
        E 0 80 26 00
        E 451 81 37 00
        E 129 90 39 36
        E 0 91 3c 36
        E 1244 90 32 36
        E 0 91 39 36
        E 0 92 4d 36
        E 2075 81 43 00
        E 690 80 2e 00
        E 0 82 62 00
        E 0 81 41 00
        E 690 80 3a 00
        E 690 81 3c 00
        E 370 90 3b 36
        E 0 91 3f 36
        E 0 92 42 36
        E 183 81 3e 00
        E 0 80 39 00
        E 359 92 4e 36
        E 85 82 4d 00
        E 458 90 2a 36
        E 0 91 33 36
        E 0 92 3b 36
        E 543 90 2c 36
        E 0 91 34 36
        E 543 90 2f 36
        E 0 92 44 36
        E 543 90 31 3b
        E 543 91 35 3b
        E 0 92 46 3b
        E 543 90 25 3b
        E 0 91 2c 3b
        E 0 92 41 3b
        E 543 91 2e 46
        E 355 82 59 00
        E 0 80 32 00
        E 0 81 39 00
        E 69 90 26 46
        E 0 92 43 46
        E 424 90 2e 46
        E 0 91 3e 46
        E 0 92 4d 46
        E 50 82 42 00
        E 543 80 3b 00
        E 0 81 3f 00
        E 0 82 4e 00
        E 155 90 28 46
        E 0 91 38 46
        E 323 91 3b 46
        E 65 80 2a 00
        E 0 81 33 00
        E 259 91 50 46
        E 0 92 58 46
        E 284 80 2c 00
        E 39 91 51 46
        E 324 92 5a 46
        E 259 90 2d 46
        E 0 91 4e 46
        E 0 92 55 46
        E 464 81 34 00
        E 443 90 33 3b
        E 0 91 37 3b
        E 0 92 3c 3b
        E 100 81 35 00
        E 0 82 46 00
        E 295 90 30 3b
        E 0 92 3f 3b
        E 248 81 2c 00
        E 147 90 2b 3b
        E 0 91 48 3b
        E 0 92 57 3b
        E 277 80 25 00
        E 0 82 41 00
        E 118 90 2c 3b
        E 306 81 2e 00
        E 0 80 26 00
        E 0 82 43 00
        E 89 90 24 3b
        E 0 91 33 3b
        E 0 92 38 3b
        E 395 90 27 3b
        E 0 91 2e 3b
        E 0 92 37 3b
        E 264 80 2e 00
        E 0 81 3e 00
        E 0 82 4d 00
        E 131 91 30 3b
        E 192 82 3b 00
        E 0 81 38 00
        E 125 91 57 3b
        E 0 92 60 3b
        E 199 82 44 00
        E 0 80 28 00
        E 0 81 3b 00
        E 323 80 2f 00
        E 0 81 50 00
        E 324 82 58 00
        E 259 80 31 00
        E 0 81 51 00
        E 0 82 5a 00
        E 907 80 2d 00
        E 0 81 4e 00
        E 0 82 55 00
        E 185 90 25 3b
        E 0 91 2d 3b
        E 0 92 4c 3b
        E 210 80 33 00
        E 0 82 3c 00
        E 101 90 2d 3b
        E 0 91 4c 3b
        E 0 92 61 3b
        E 294 80 30 00
        E 0 82 3f 00
        E 17 91 31 3b
        E 0 92 34 3b
        E 311 91 32 3b
        E 0 92 36 3b
        E 311 90 26 3b
        E 0 91 39 3b
        E 0 92 5a 3b
        E 151 81 48 00
        E 0 82 57 00
        E 0 80 2c 00
        E 160 91 3b 46
        E 235 80 24 00
        E 0 81 33 00
        E 0 82 38 00
        E 76 92 5c 46
        E 311 90 33 46
        E 0 91 42 46
        E 0 92 47 46
        E 8 81 2e 00
        E 317 82 37 00
        E 0 81 30 00
        E 223 91 35 46
        E 0 92 54 46
        E 31 80 2b 00
        E 0 81 57 00
        E 206 91 41 46
        E 0 92 48 46
        E 237 90 29 46
        E 0 91 3c 46
        E 0 92 45 46
        E 237 91 3e 46
        E 0 92 46 46
        E 238 90 2b 46
        E 189 91 2e 46
        E 0 92 32 46
        E 836 81 37 00
        E 0 82 60 00
        E 311 80 25 00
        E 0 81 2d 00
        E 0 82 4c 00
        E 311 81 4c 00
        E 0 82 61 00
        E 311 81 31 00
        E 0 82 34 00
        E 56 90 2c 34
        E 0 91 40 34
        E 0 92 61 34
        E 255 81 32 00
        E 0 82 36 00
        E 311 81 39 00
        E 141 91 4c 34
        E 0 92 55 34
        E 170 80 26 00
        E 0 82 5a 00
        E 311 80 27 00
        E 0 81 3b 00
        E 0 82 5c 00
        E 226 90 25 34
        E 0 91 2c 34
        E 0 92 34 34
        E 322 80 33 00
        E 0 81 42 00
        E 0 82 47 00
        E 237 81 35 00
        E 0 82 54 00
        E 148 90 27 34
        E 0 91 2b 34
        E 0 92 3a 34
        E 89 80 2d 00
        E 0 81 41 00
        E 0 82 48 00
        E 237 81 3c 00
        E 0 82 45 00
        E 238 80 29 00
        E 143 91 37 34
        E 46 81 3e 00
        E 0 82 46 00
        E 660 90 2e 34
        E 0 91 43 34
        E 0 92 57 34
        E 707 90 30 34
        E 0 91 44 34
        E 458 80 2b 00
        E 0 81 2e 00
        E 0 82 32 00
        E 249 90 24 34
        E 0 92 3f 34
        E 457 81 40 00
        E 0 82 61 00
        E 250 90 2b 34
        E 0 91 2e 34
        E 457 80 2c 00
        E 0 81 4c 00
        E 0 82 55 00
        E 250 91 30 34
        E 457 80 25 00
        E 0 82 34 00
        E 111 92 3e 33
        E 268 90 29 33
        E 0 91 2d 33
        E 268 90 28 33
        E 0 92 3c 33
        E 60 81 2b 00
        E 208 91 2b 33
        E 0 92 3b 33
        E 268 91 2f 34
        E 0 92 37 34
        E 231 80 27 00
        E 0 82 3a 00
        E 0 81 37 00
        E 223 91 31 34
        E 0 92 38 34
        E 454 90 2f 34
        E 0 91 34 34
        E 30 80 2e 00
        E 0 81 43 00
        E 425 91 40 34
        E 0 92 44 34
        E 282 82 57 00
        E 0 80 30 00
        E 0 81 44 00
        E 707 81 2c 00
        E 0 80 24 00
        E 402 90 37 34
        E 0 91 3a 34
        E 0 92 62 34
        E 695 90 3a 34
        E 0 91 43 34
        E 0 92 56 34
        E 178 82 3f 00
        E 0 81 30 00
        E 268 80 2b 00
        E 0 81 2e 00
        E 250 90 26 34
        E 0 92 3a 34
        E 18 82 3e 00
        E 0 80 29 00
        E 268 81 2d 00
        E 0 82 3c 00
        E 268 82 3b 00
        E 142 90 27 34
        E 0 92 3c 34
        E 312 81 2f 00
        E 0 82 37 00
        E 383 90 2b 34
        E 0 91 3c 34
        E 0 92 4b 34
        E 71 80 28 00
        E 0 81 31 00
        E 454 82 38 00
        E 0 81 34 00
        E 171 90 2c 34
        E 0 92 4d 34
        E 1221 80 2f 00
        E 0 81 40 00
        E 0 82 44 00
        E 33 91 3d 33
        E 264 90 2e 33
        E 0 92 4e 33
        E 263 90 2f 33
        E 0 91 3f 33
        E 135 80 37 00
        E 0 81 3a 00
        E 0 82 62 00
        E 129 91 40 33
        E 0 92 50 33
        E 263 90 28 34
        E 0 91 2f 34
        E 0 92 5c 34
        E 304 80 3a 00
        E 0 81 43 00
        E 0 82 56 00
        E 143 92 5b 34
        E 447 91 34 34
        E 106 82 3a 00
        E 341 91 3b 34
        E 0 92 40 34
        E 354 81 2b 00
        E 0 80 27 00
        E 0 82 3c 00
        E 1015 92 3e 34
        E 685 90 37 34
        E 0 92 4a 34
        E 250 81 3c 00
        E 0 82 4b 00
        E 264 80 2c 00
        E 0 82 4d 00
        E 170 90 36 34
        E 0 91 39 34
        E 93 81 3d 00
        E 0 80 2e 00
        E 264 82 4e 00
        E 0 81 3f 00
        E 263 81 40 00
        E 0 82 50 00
        E 447 80 28 00
        E 0 82 5c 00
        E 167 90 3b 34
        E 0 91 42 34
        E 280 80 26 00
        E 0 81 2f 00
        E 160 91 4a 34
        E 0 92 4e 34
        E 287 80 2f 00
        E 0 82 5b 00
        E 0 81 34 00
        E 1369 82 40 00
        E 685 80 2b 00
        E 0 82 3e 00
        E 684 80 37 00
        E 342 90 39 34
        E 343 81 39 00
        E 331 90 2d 34
        E 0 91 3e 34
        E 0 92 42 34
        E 218 81 3b 00
        E 0 80 36 00
        E 440 82 4a 00
        E 0 81 42 00
        E 15 91 3d 34
        E 0 92 40 34
        E 1215 91 42 34
        E 0 92 49 34
        E 432 91 49 34
        E 1705 80 3b 00
        E 674 81 4a 00
        E 0 80 39 00
        E 673 81 3e 00
        E 674 82 40 00
        E 250 90 2e 34
        E 0 91 37 34
        E 0 92 3f 34
        E 291 82 42 00
        E 0 81 3d 00
        E 372 91 3f 34
        E 0 92 43 34
        E 60 81 42 00
        E 0 82 49 00
        E 602 90 37 34
        E 0 91 46 34
        E 0 92 57 34
        E 663 90 38 34
        E 0 91 48 34
        E 2520 92 56 33
        E 191 82 4e 00
        E 0 80 2d 00
        E 0 81 49 00
        E 60 90 35 33
        E 0 91 45 33
        E 251 90 34 33
        E 0 92 54 33
        E 251 91 43 33
        E 0 92 53 33
        E 101 81 37 00
        E 0 82 3f 00
        E 150 90 28 34
        E 0 91 2b 34
        E 0 92 47 34
        E 426 91 2c 34
        E 0 92 49 34
        E 86 80 2e 00
        E 0 81 3f 00
        E 0 82 43 00
        E 340 90 2c 34
        E 0 91 34 34
        E 426 91 40 34
        E 1956 92 61 34
        E 461 82 57 00
        E 0 81 48 00
        E 191 90 2a 34
        E 0 91 2d 34
        E 60 80 37 00
        E 0 81 46 00
        E 251 82 56 00
        E 0 80 35 00
        E 251 81 45 00
        E 0 82 54 00
        E 251 80 34 00
        E 0 81 43 00
        E 0 82 53 00
        E 362 90 25 34
        E 0 92 40 34
        E 64 81 2b 00
        E 355 92 4c 34
        E 497 80 2c 00
        E 0 81 34 00
        E 1304 82 47 00
        E 652 80 38 00
        E 0 82 49 00
        E 0 81 40 00
        E 652 81 2c 00
        E 103 92 4e 34
        E 549 80 2a 00
        E 92 90 39 34
        E 0 91 42 34
        E 0 92 49 34
        E 431 80 28 00
        E 0 82 61 00
        E 211 90 3b 34
        E 0 92 4a 34
        E 208 82 40 00
        E 949 91 3e 34
        E 0 92 42 34
        E 2259 82 4c 00
        E 641 81 2d 00
        E 0 80 25 00
        E 642 82 49 00
        E 641 80 3b 00
        E 516 81 42 00
        E 0 82 4a 00
        E 131 90 2c 34
        E 0 91 48 34
        E 0 92 59 34
        E 281 82 42 00
        E 224 90 29 34
        E 0 91 38 34
        E 0 92 3c 34
        E 505 91 41 34
        E 0 92 54 34
        E 505 90 2e 34
        E 0 92 55 34
        E 505 91 31 34
        E 0 92 41 34
        E 1010 91 2f 36
        E 0 92 40 36
        E 505 92 34 36
        E 900 90 2b 3b
        E 0 92 32 3b
        E 264 82 4e 00
        E 0 80 39 00
        E 0 81 3e 00
        E 130 90 2f 3b
        E 0 91 37 3b
        E 0 92 4c 3b
        E 375 81 48 00
        E 0 82 59 00
        E 20 92 4a 46
        E 308 91 35 46
        E 177 80 29 00
        E 0 81 38 00
        E 0 82 3c 00
        E 131 92 56 46
        E 374 82 54 00
        E 169 91 3d 46
        E 0 92 58 46
        E 236 90 28 46
        E 0 92 38 46
        E 100 81 41 00
        E 0 82 55 00
        E 135 91 40 46
        E 0 92 49 46
        E 235 90 2d 46
        E 0 91 42 46
        E 423 90 25 46
        E 0 91 2d 46
        E 217 82 41 00
        E 442 90 37 3b
        E 0 91 3a 3b
        E 0 92 57 3b
        E 63 82 40 00
        E 224 90 3a 3b
        E 0 91 43 3b
        E 287 91 4b 3b
        E 0 92 5b 3b
        E 287 90 30 3b
        E 0 91 4d 3b
        E 0 92 5c 3b
        E 102 82 34 00
        E 185 91 3c 3b
        E 0 92 59 3b
        E 209 81 2f 00
        E 0 80 2b 00
        E 0 82 32 00
        E 395 82 4c 00
        E 308 80 2f 00
        E 77 90 29 3b
        E 231 82 4a 00
        E 0 81 35 00
        E 543 81 37 00
        E 0 82 56 00
        E 471 80 28 00
        E 167 90 2f 3b
        E 0 91 37 3b
        E 0 92 40 3b
        E 226 92 43 3b
        E 77 81 42 00
        E 149 91 47 3b
        E 39 82 49 00
        E 0 80 2d 00
        E 187 90 39 3b
        E 0 91 48 3b
        E 472 80 25 00
        E 0 81 2d 00
        E 206 91 46 46
        E 81 81 3a 00
        E 145 92 4b 46
        E 142 80 3a 00
        E 0 81 43 00
        E 256 90 25 46
        E 0 91 2d 46
        E 0 92 36 46
        E 31 81 4b 00
        E 0 82 5b 00
        E 142 90 2d 46
        E 0 91 36 46
        E 0 92 61 46
        E 145 80 30 00
        E 0 81 4d 00
        E 0 82 5c 00
        E 27 91 55 46
        E 0 92 5a 46
        E 172 90 3b 46
        E 0 91 56 46
        E 88 81 3c 00
        E 223 91 5a 46
        E 0 92 62 46
        E 64 80 2e 00
        E 231 81 3d 00
        E 184 80 2c 00
        E 0 82 59 00
        E 333 90 2c 36
        E 0 91 3c 36
        E 328 91 30 36
        E 329 91 33 36
        E 0 92 48 36
        E 329 91 34 36
        E 0 92 5b 36
        E 93 81 31 00
        E 0 82 38 00
        E 0 80 29 00
        E 226 81 37 00
        E 0 82 40 00
        E 10 90 2b 36
        E 0 92 3b 36
        E 216 81 40 00
        E 0 82 43 00
        E 112 90 28 36
        E 0 91 2f 36
        E 0 92 43 36
        E 114 81 47 00
        E 215 92 45 36
        E 329 92 3c 36
        E 134 82 58 00
        E 195 91 35 36
        E 0 92 3e 36
        E 31 81 46 00
        E 398 80 37 00
        E 0 81 48 00
        E 164 90 2e 34
        E 9 80 25 00
        E 0 81 2d 00
        E 0 82 36 00
        E 115 91 37 34
        E 0 92 3f 34
        E 57 81 36 00
        E 0 82 61 00
        E 68 90 30 34
        E 0 91 38 34
        E 104 81 55 00
        E 20 90 31 34
        E 0 92 41 34
        E 125 90 29 36
        E 0 91 2c 36
        E 0 92 31 36
        E 28 80 3b 00
        E 138 82 5a 00
        E 0 81 56 00
        E 45 92 2f 36
        E 212 92 3d 36
        E 554 80 39 00
        E 0 81 5a 00
        E 0 82 62 00
        E 329 82 4b 00
        E 0 81 3c 00
        E 298 91 50 36
        E 0 92 58 36
        E 31 82 57 00
        E 293 91 4e 36
        E 0 92 57 36
        E 36 81 33 00
        E 0 82 48 00
        E 329 82 5b 00
        E 218 90 27 36
        E 0 92 5c 36
        E 110 80 2b 00
        E 98 91 33 36
        E 231 82 43 00
        E 329 81 30 00
        E 0 82 45 00
        E 922 80 2d 00
        E 0 82 3c 00
        E 110 90 2a 36
        E 14 81 35 00
        E 0 82 3e 00
        E 125 80 2e 00
        E 0 81 37 00
        E 124 82 3f 00
        E 0 80 30 00
        E 55 90 42 36
        E 0 91 47 36
        E 70 81 38 00
        E 0 80 31 00
        E 0 82 41 00
        E 211 80 29 00
        E 0 82 31 00
        E 37 91 46 36
        E 0 92 55 36
        E 174 82 2f 00
        E 212 80 28 00
        E 0 81 2c 00
        E 188 90 36 36
        E 0 92 4b 36
        E 205 91 2e 36
        E 0 92 33 36
        E 254 82 3d 00
        E 323 81 34 00
        E 324 82 58 00
        E 323 81 4e 00
        E 260 80 2f 00
        E 0 81 50 00
        E 208 81 2f 00
        E 0 80 27 00
        E 0 82 5c 00
        E 187 90 34 36
        E 0 91 37 36
        E 0 92 54 36
        E 251 90 37 36
        E 0 91 40 36
        E 0 92 48 36
        E 250 90 2b 36
        E 0 91 58 36
        E 0 92 60 36
        E 251 90 2d 36
        E 0 91 59 36
        E 250 91 48 36
        E 0 92 4d 36
        E 251 91 4a 3b
        E 152 80 2c 00
        E 98 90 2f 3b
        E 0 92 4e 3b
        E 220 82 3b 00
        E 0 81 33 00
        E 318 81 47 00
        E 159 91 4b 46
        E 0 92 50 46
        E 160 82 55 00
        E 36 91 3b 46
        E 219 82 57 00
        E 0 80 42 00
        E 126 90 35 46
        E 0 91 39 46
        E 79 81 46 00
        E 0 80 36 00
        E 70 90 39 46
        E 0 91 41 46
        E 299 90 2e 46
        E 0 92 62 46
        E 149 91 5b 46
        E 120 91 32 46
        E 0 92 3a 46
        E 418 90 38 3b
        E 0 92 61 3b
        E 183 91 4c 3b
        E 0 92 55 3b
        E 182 90 25 3b
        E 0 91 34 3b
        E 0 92 38 3b
        E 182 92 39 3b
        E 183 92 49 3b
        E 93 81 2e 00
        E 0 82 33 00
        E 89 92 47 3b
        E 161 80 34 00
        E 0 81 37 00
        E 168 90 34 3b
        E 0 91 38 3b
        E 0 92 3d 3b
        E 83 80 37 00
        E 34 91 3d 3b
        E 0 92 40 3b
        E 217 81 58 00
        E 501 81 48 00
        E 179 92 59 3b
        E 71 82 4d 00
        E 72 90 29 3b
        E 0 91 3a 3b
        E 0 92 3e 3b
        E 144 92 56 3b
        E 143 91 43 3b
        E 0 92 57 3b
        E 144 90 27 3b
        E 0 91 2b 3b
        E 0 92 2e 3b
        E 143 92 30 46
        E 51 82 4e 00
        E 93 90 28 46
        E 0 91 2d 46
        E 103 80 2f 00
        E 0 81 4b 00
        E 0 82 50 00
        E 293 91 31 46
        E 0 92 4e 46
        E 52 80 2a 00
        E 0 82 4b 00
        E 0 81 3b 00
        E 58 91 2e 46
        E 0 92 5a 46
        E 91 82 54 00
        E 0 80 35 00
        E 0 81 39 00
        E 18 91 36 46
        E 110 90 2f 46
        E 0 92 3f 46
        E 22 82 48 00
        E 149 82 60 00
        E 0 80 2d 00
        E 26 91 2f 46
        E 0 92 44 46
        E 123 81 59 00
        E 120 82 62 00
        E 0 81 5b 00
        E 418 80 2b 00
        E 0 81 32 00
        E 0 82 3a 00
        E 183 82 61 00
        E 182 81 4c 00
        E 0 82 55 00
        E 182 82 38 00
        E 183 81 34 00
        E 0 82 39 00
        E 182 80 39 00
        E 182 82 47 00
        E 147 81 40 00
        E 0 82 49 00
        E 117 80 34 00
        E 897 80 38 00
        E 0 81 3d 00
        E 0 82 40 00
        E 143 81 4a 00
        E 0 82 59 00
        E 144 80 29 00
        E 0 81 3a 00
        E 0 82 3e 00
        E 143 81 41 00
        E 0 82 56 00
        E 144 81 43 00
        E 0 82 57 00
        E 143 82 2e 00
        E 287 81 2d 00
        E 253 81 2b 00
        E 0 82 30 00
        E 0 80 28 00
        E 110 81 31 00
        E 0 82 4e 00
        E 109 80 25 00
        E 0 81 2e 00
        E 0 82 5a 00
        E 110 80 2e 00
        E 0 82 3d 00
        E 109 81 36 00
        E 88 81 38 00
        E 0 80 2f 00
        E 0 82 3f 00
        E 1697 94 4d 34
        E 0 94 50 34
        E 0 94 55 34
        E 1509 94 31 34
        E 0 94 35 34
        E 0 94 38 34
        E 3019 94 36 34
        E 0 94 52 34
        E 171 80 27 00
        E 0 81 2f 00
        E 0 82 44 00
        E 1338 94 2e 34
        E 0 94 3d 34
        E 0 94 42 34
        E 171 84 4d 00
        E 0 84 55 00
        E 1339 94 2f 34
        E 0 94 3f 34
        E 170 84 38 00
        E 1510 84 50 00
        E 0 84 35 00
        E 1041 94 44 33
        E 468 84 31 00
        E 0 84 36 00
        E 0 84 52 00
        E 104 94 31 33
        E 0 94 40 33
        E 572 94 45 33
        E 572 94 32 33
        E 0 94 47 33
        E 261 84 3d 00
        E 311 94 53 34
        E 969 94 41 34
        E 0 94 51 34
        E 970 94 3e 34
        E 970 94 46 34
        E 0 94 4a 34
        E 74 84 2f 00
        E 0 84 3f 00
        E 572 84 44 00
        E 0 84 40 00
        E 572 84 31 00
        E 0 84 45 00
        E 572 84 47 00
        E 969 84 42 00
        E 0 84 53 00
        E 211 94 33 34
        E 0 94 44 34
        E 0 94 47 34
        E 759 84 32 00
        E 0 84 51 00
        E 726 94 3f 34
        E 0 94 53 34
        E 244 84 2e 00
        E 0 84 3e 00
        E 1242 94 38 34
        E 0 94 3b 34
        E 1485 94 3d 34
        E 0 94 40 34
        E 243 84 41 00
        E 0 84 46 00
        E 0 84 4a 00
        E 1242 94 49 34
        E 0 94 50 34
        E 243 84 33 00
        E 0 84 47 00
        E 1242 94 47 34
        E 243 84 44 00
        E 0 84 53 00
        E 1486 84 3b 00
        E 949 94 4e 33
        E 536 84 38 00
        E 0 84 3d 00
        E 26 94 3d 33
        E 0 94 46 33
        E 563 94 44 33
        E 0 94 4d 33
        E 563 94 3c 33
        E 0 94 4b 33
        E 333 84 49 00
        E 229 94 54 34
        E 955 94 51 34
        E 1908 94 39 34
        E 0 94 4c 34
        E 148 84 3f 00
        E 0 84 47 00
        E 563 84 4e 00
        E 0 84 46 00
        E 563 84 3d 00
        E 562 84 44 00
        E 955 84 50 00
        E 0 84 4b 00
        E 132 94 2f 34
        E 0 94 33 34
        E 0 94 4e 34
        E 822 84 4d 00
        E 639 94 3b 34
        E 0 94 3f 34
        E 315 84 40 00
        E 0 84 54 00
        E 0 84 51 00
        E 1146 94 42 34
        E 1461 94 34 34
        E 0 94 44 34
        E 316 84 3c 00
        E 0 84 39 00
        E 0 84 4c 00
        E 1146 94 38 34
        E 0 94 40 34
        E 315 84 2f 00
        E 1146 94 39 34
        E 0 94 3d 34
        E 315 84 4e 00
        E 0 84 3f 00
        E 1461 84 33 00
        E 0 84 42 00
        E 859 94 42 33
        E 553 94 3e 33
        E 50 84 34 00
        E 0 84 44 00
        E 504 94 43 33
        E 554 94 3c 33
        E 0 94 45 33
        E 553 94 2d 34
        E 0 94 34 34
        E 939 94 30 34
        E 0 94 33 34
        E 0 94 37 34
        E 939 94 48 34
        E 0 94 4b 34
        E 939 94 3f 34
        E 0 94 44 34
        E 221 84 39 00
        E 0 84 3d 00
        E 554 84 42 00
        E 0 84 3e 00
        E 554 84 3b 00
        E 0 84 43 00
        E 553 84 40 00
        E 0 84 45 00
        E 939 84 3c 00
        E 0 84 2d 00
        E 0 84 34 00
        E 55 94 43 34
        E 884 84 33 00
        E 0 84 37 00
        E 939 84 38 00
        E 1052 94 46 34
        E 0 94 4a 34
        E 1824 84 44 00
        E 769 94 52 34
        E 668 84 30 00
        E 0 84 3f 00
        E 256 94 3a 34
        E 0 94 3f 34
        E 0 94 4f 34
        E 1182 84 48 00
        E 1438 84 4a 00
        E 1155 84 46 00
        E 923 84 4b 00
        E 0 84 43 00
        E 0 84 52 00
        E 2375 94 3e 34
        E 1415 94 32 34
        E 1414 94 39 34
        E 0 94 4d 34
        E 1870 84 3f 00
        E 681 94 2e 34
        E 0 94 41 34
        E 0 94 4a 34
        E 733 84 3e 00
        E 176 94 46 34
        E 1239 84 4f 00
        E 1415 84 39 00
        E 1136 84 3a 00
        E 909 84 2e 00
        E 0 84 41 00
        E 0 84 4a 00
        E 3653 94 38 34
        E 0 94 3b 34
        E 0 94 3f 34
        E 2784 94 50 34
        E 1392 94 3d 34
        E 0 94 40 34
        E 523 84 32 00
        E 0 84 4d 00
        E 0 84 46 00
        E 869 94 34 34
        E 0 94 44 34
        E 0 94 55 34
        E 1391 94 33 34
        E 0 94 53 34
        E 524 84 38 00
        E 1392 84 3b 00
        E 0 84 3f 00
        E 594 94 42 33
        E 528 94 31 33
        E 0 94 52 33
        E 269 84 50 00
        E 0 84 3d 00
        E 0 84 40 00
        E 258 94 41 33
        E 0 94 50 33
        E 528 94 30 33
        E 0 94 3f 33
        E 527 94 4b 34
        E 79 84 55 00
        E 815 94 45 34
        E 0 94 4d 34
        E 895 94 2d 34
        E 0 94 40 34
        E 800 84 34 00
        E 94 94 3c 34
        E 434 84 33 00
        E 0 84 53 00
        E 527 84 42 00
        E 0 84 52 00
        E 527 84 31 00
        E 0 84 41 00
        E 528 84 50 00
        E 0 84 3f 00
        E 723 94 41 34
        E 171 84 44 00
        E 0 84 4b 00
        E 895 84 4d 00
        E 304 94 4d 34
        E 590 84 30 00
        E 0 84 2d 00
        E 779 94 3e 34
        E 0 94 46 34
        E 1960 84 40 00
        E 510 94 4a 34
        E 860 84 41 00
        E 20 94 32 34
        E 0 94 35 34
        E 0 94 39 34
        E 1349 84 3c 00
        E 1370 84 46 00
        E 1100 84 3e 00
        E 880 84 45 00
        E 0 84 4d 00
        E 0 84 4a 00
        E 2039 94 3a 34
        E 1348 94 3e 34
        E 0 94 4d 34
        E 0 94 52 34
        E 1347 94 3f 34
        E 0 94 4f 34
        E 2004 84 39 00
        E 426 94 37 34
        E 922 84 32 00
        E 0 84 35 00
        E 1347 84 4d 00
        E 1348 84 3f 00
        E 1082 84 52 00
        E 0 84 4f 00
        E 5449 94 34 34
        E 0 94 39 34
        E 0 94 3d 34
        E 1325 94 45 34
        E 0 94 49 34
        E 1326 94 31 34
        E 0 94 4c 34
        E 0 94 51 34
        E 1326 94 32 34
        E 0 94 4e 34
        E 721 84 3a 00
        E 0 84 3e 00
        E 0 84 37 00
        E 1326 84 39 00
        E 0 84 3d 00
        E 605 94 4f 34
        E 0 94 53 34
        E 721 84 34 00
        E 0 84 45 00
        E 0 84 49 00
        E 1326 84 31 00
        E 0 84 4c 00
        E 344 94 34 33
        E 502 94 54 33
        E 503 94 4d 33
        E 502 94 52 33
        E 503 94 3e 34
        E 852 94 3d 34
        E 852 94 2e 34
        E 0 94 31 34
        E 852 94 46 34
        E 635 84 53 00
        E 503 84 34 00
        E 0 84 54 00
        E 502 84 51 00
        E 502 84 32 00
        E 467 94 3b 34
        E 0 94 43 34
        E 0 94 4c 34
        E 385 84 4f 00
        E 0 84 3e 00
        E 852 84 4d 00
        E 0 84 52 00
        E 67 94 34 34
        E 0 94 47 34
        E 0 94 4f 34
        E 785 84 2e 00
        E 0 84 31 00
        E 520 94 37 34
        E 1305 94 39 34
        E 0 94 48 34
        E 785 84 4e 00
        E 0 84 3d 00
        E 0 84 46 00
        E 519 94 2d 34
        E 0 94 30 34
        E 785 84 3b 00
        E 0 84 43 00
        E 520 94 2f 34
        E 785 84 4f 00
        E 1305 84 47 00
        E 262 94 32 33
        E 495 94 36 33
        E 494 94 31 33
        E 53 84 4c 00
        E 0 84 39 00
        E 0 84 48 00
        E 441 94 38 33
        E 495 94 3b 34
        E 838 94 35 34
        E 0 94 3d 34
        E 838 94 48 34
        E 839 94 4d 34
        E 701 84 37 00
        E 494 84 32 00
        E 0 84 36 00
        E 494 84 2d 00
        E 0 84 31 00
        E 495 84 2f 00
        E 383 94 31 34
        E 455 84 34 00
        E 0 84 3b 00
        E 829 94 41 34
        E 0 94 44 34
        E 0 94 49 34
        E 9 84 3d 00
        E 838 84 35 00
        E 0 84 48 00
        E 436 94 42 34
        E 0 94 46 34
        E 2132 84 30 00
        E 1008 94 2e 34
        E 275 84 38 00
        E 0 84 4d 00
        E 1284 84 44 00
        E 1284 84 42 00
        E 1856 84 31 00
        E 0 84 46 00
        E 1616 94 42 34
        E 1263 94 3a 34
        E 0 94 3d 34
        E 1263 94 3b 34
        E 0 94 3f 34
        E 2173 84 41 00
        E 916 94 4b 34
        E 0 94 52 34
        E 347 84 49 00
        E 0 84 2e 00
        E 1263 84 3d 00
        E 1263 84 3b 00
        E 1826 84 3a 00
        E 0 84 3f 00
        E 2758 94 2d 34
        E 0 94 3c 34
        E 0 94 4d 34
        E 1243 94 39 34
        E 0 94 48 34
        E 1242 94 41 34
        E 1243 94 3a 34
        E 0 94 4a 34
        E 971 84 42 00
        E 0 84 4b 00
        E 0 84 52 00
        E 272 94 35 34
        E 0 94 52 34
        E 971 84 2d 00
        E 0 84 3c 00
        E 272 94 37 34
        E 0 94 4b 34
        E 970 84 4d 00
        E 1243 84 39 00
        E 0 84 48 00
        E 28 94 54 33
        E 470 94 38 33
        E 0 94 4d 33
        E 471 94 55 33
        E 274 84 41 00
        E 197 94 36 33
        E 471 94 2e 34
        E 0 94 33 34
        E 0 94 42 34
        E 575 84 35 00
        E 224 94 2d 34
        E 0 94 31 34
        E 798 94 32 34
        E 0 94 39 34
        E 799 94 3e 34
        E 0 94 51 34
        E 420 84 4a 00
        E 470 84 37 00
        E 471 84 54 00
        E 0 84 38 00
        E 471 84 3a 00
        E 0 84 4d 00
        E 0 84 55 00
        E 471 84 52 00
        E 0 84 4b 00
        E 0 84 36 00
        E 142 94 3d 34
        E 656 84 2e 00
        E 0 84 33 00
        E 567 94 45 34
        E 0 94 4e 34
        E 232 84 2d 00
        E 799 84 32 00
        E 0 84 39 00
        E 192 94 44 34
        E 0 94 4c 34
        E 2205 94 39 34
        E 0 94 40 34
        E 0 94 55 34
        E 48 84 3e 00
        E 1223 84 42 00
        E 0 84 3d 00
        E 1223 84 4e 00
        E 1223 84 44 00
        E 982 84 45 00
        E 785 84 39 00
        E 0 84 40 00
        E 0 84 55 00
        E 1317 94 50 34
        E 1203 94 34 34
        E 0 94 55 34
        E 1204 94 33 34
        E 0 94 53 34
        E 2169 94 2f 34
        E 0 94 40 34
        E 123 84 51 00
        E 650 94 47 34
        E 553 84 31 00
        E 1204 84 55 00
        E 1203 84 33 00
        E 966 84 34 00
        E 0 84 53 00
        E 773 84 2f 00
        E 0 84 40 00
        E 4772 90 42 32
        E 0 91 3e 32
        E 0 92 39 32
        E 502 90 43 32
        E 0 92 3b 32
        E 352 80 42 00
        E 0 82 39 00
        E 150 91 40 32
        E 0 92 3c 32
        E 352 81 3e 00
        E 0 82 3b 00
        E 150 90 45 32
        E 0 91 41 32
        E 352 80 43 00
        E 0 81 40 00
        E 2841 84 4c 00
        E 0 84 50 00
        E 0 84 47 00
        E 1432 90 44 32
        E 0 91 3f 32
        E 1995 90 4d 32
        E 0 91 38 32
        E 0 92 24 32
        E 1995 90 4b 33
        E 709 80 45 00
        E 0 81 41 00
        E 850 91 36 33
        E 0 92 23 33
        E 1145 82 3c 00
        E 0 80 44 00
        E 0 81 3f 00
        E 414 90 57 33
        E 0 92 2f 33
        E 1581 80 4d 00
        E 1195 90 56 34
        E 0 92 2d 34
        E 364 82 24 00
        E 854 90 4a 34
        E 705 80 4b 00
        E 0 82 23 00
        E 1464 90 48 36
        E 0 91 35 36
        E 95 81 38 00
        E 857 91 45 36
        E 0 92 35 36
        E 360 80 57 00
        E 1218 80 56 00
        E 99 90 53 36
        E 0 91 33 36
        E 0 92 2c 36
        E 726 90 47 36
        E 0 91 3f 36
        E 393 82 2f 00
        E 333 90 63 36
        E 0 91 47 36
        E 0 92 38 36
        E 618 81 36 00
        E 108 90 64 36
        E 0 91 49 36
        E 844 82 2d 00
        E 0 80 48 00
        E 0 81 35 00
        E 462 90 5f 36
        E 0 91 58 36
        E 1215 80 4a 00
        E 0 81 45 00
        E 0 82 35 00
        E 726 80 53 00
        E 0 81 33 00
        E 93 90 5e 34
        E 0 91 32 34
        E 0 92 29 34
        E 633 82 2c 00
        E 0 80 47 00
        E 0 81 3f 00
        E 253 90 52 34
        E 0 91 3e 34
        E 473 80 63 00
        E 413 90 29 34
        E 0 91 26 34
        E 0 92 22 34
        E 312 81 49 00
        E 574 90 30 34
        E 0 91 2b 34
        E 0 92 27 34
        E 7 81 47 00
        E 0 80 64 00
        E 879 90 3c 34
        E 886 91 2c 34
        E 269 82 38 00
        E 0 80 5f 00
        E 0 81 58 00
        E 886 80 5e 00
        E 0 81 32 00
        E 443 90 48 34
        E 0 91 33 34
        E 0 92 2c 34
        E 443 80 52 00
        E 0 81 3e 00
        E 126 91 3f 34
        E 760 80 29 00
        E 0 81 26 00
        E 0 82 22 00
        E 886 80 30 00
        E 886 81 2b 00
        E 886 82 29 00
        E 712 82 27 00
        E 0 80 3c 00
        E 0 81 2c 00
        E 229 90 5f 34
        E 0 91 36 34
        E 0 92 32 34
        E 340 81 33 00
        E 358 90 53 34
        E 0 91 3e 34
        E 0 92 36 34
        E 697 90 36 34
        E 0 91 26 34
        E 0 92 23 34
        E 698 90 37 34
        E 0 91 28 34
        E 697 90 58 34
        E 0 91 53 34
        E 0 92 2b 34
        E 698 90 56 36
        E 697 91 52 36
        E 0 92 29 36
        E 514 80 48 00
        E 0 82 2c 00
        E 0 81 3f 00
        E 184 90 62 36
        E 0 91 5e 36
        E 514 80 5f 00
        E 0 81 36 00
        E 0 82 32 00
        E 697 80 53 00
        E 0 81 3e 00
        E 0 82 36 00
        E 18 90 49 36
        E 0 91 38 36
        E 0 92 34 36
        E 532 90 40 36
        E 0 91 3d 36
        E 0 92 38 36
        E 148 80 36 00
        E 0 81 26 00
        E 384 90 64 36
        E 0 91 55 36
        E 0 92 2c 36
        E 313 82 23 00
        E 0 80 37 00
        E 0 81 28 00
        E 219 90 66 36
        E 0 92 2d 36
        E 479 80 58 00
        E 479 90 34 36
        E 0 91 25 36
        E 0 92 21 36
        E 218 81 53 00
        E 697 80 56 00
        E 0 81 52 00
        E 0 82 29 00
        E 1230 82 2b 00
        E 0 80 62 00
        E 0 81 5e 00
        E 361 90 4b 33
        E 0 91 37 33
        E 0 92 22 33
        E 171 80 49 00
        E 0 81 38 00
        E 0 82 34 00
        E 532 80 40 00
        E 0 81 3d 00
        E 0 82 38 00
        E 312 90 5e 33
        E 0 91 4b 33
        E 0 92 37 33
        E 220 82 2c 00
        E 532 80 66 00
        E 263 90 37 33
        E 0 91 33 33
        E 0 92 2e 33
        E 163 80 64 00
        E 0 81 55 00
        E 0 82 2d 00
        E 852 90 56 33
        E 0 91 36 33
        E 0 92 2f 33
        E 1015 90 62 33
        E 0 92 23 33
        E 639 80 34 00
        E 0 81 25 00
        E 0 82 21 00
        E 376 90 3e 33
        E 0 91 3b 33
        E 0 92 36 33
        E 639 80 4b 00
        E 0 81 37 00
        E 0 82 22 00
        E 376 90 40 33
        E 639 80 5e 00
        E 0 81 4b 00
        E 376 91 34 33
        E 639 81 33 00
        E 0 82 2e 00
        E 376 90 39 33
        E 0 92 24 33
        E 639 80 56 00
        E 0 82 2f 00
        E 1015 81 36 00
        E 0 80 62 00
        E 176 91 35 32
        E 384 90 3a 32
        E 0 92 26 32
        E 385 91 37 32
        E 0 92 27 32
        E 70 80 3e 00
        E 0 82 36 00
        E 314 90 3c 32
        E 0 91 38 32
        E 385 90 3f 33
        E 316 82 37 00
        E 0 81 3b 00
        E 0 80 40 00
        E 336 91 36 33
        E 652 92 2f 33
        E 652 90 4b 33
        E 1205 80 37 00
        E 0 81 34 00
        E 384 80 39 00
        E 385 81 35 00
        E 0 82 26 00
        E 384 80 3a 00
        E 0 81 37 00
        E 385 82 27 00
        E 0 80 3c 00
        E 253 90 5f 33
        E 0 91 4b 33
        E 0 92 36 33
        E 399 82 24 00
        E 600 90 5e 33
        E 0 91 49 33
        E 52 82 23 00
        E 652 80 3f 00
        E 1097 90 57 33
        E 0 92 22 33
        E 641 90 63 33
        E 259 81 38 00
        E 999 82 2f 00
        E 0 80 4b 00
        E 999 80 5f 00
        E 998 81 49 00
        E 802 81 4b 00
        E 0 82 36 00
        E 0 80 5e 00
        E 642 80 57 00
        E 214 90 61 33
        E 983 91 5e 33
        E 0 92 2a 33
        E 982 91 5c 33
        E 0 92 29 33
        E 1772 90 55 33
        E 0 91 52 33
        E 962 80 63 00
        E 983 81 36 00
        E 0 82 22 00
        E 982 82 2a 00
        E 983 81 5c 00
        E 789 81 5e 00
        E 631 80 55 00
        E 1102 90 53 33
        E 0 91 32 33
        E 0 92 2b 33
        E 774 90 47 33
        E 0 91 3e 33
        E 773 90 62 33
        E 0 91 47 33
        E 0 92 37 33
        E 774 90 64 33
        E 0 91 48 33
        E 773 90 60 33
        E 0 91 40 33
        E 773 92 39 34
        E 774 91 42 34
        E 58 82 29 00
        E 0 81 52 00
        E 715 90 49 34
        E 0 91 34 34
        E 0 92 21 34
        E 59 80 53 00
        E 0 81 32 00
        E 715 91 36 36
        E 58 82 2b 00
        E 0 80 47 00
        E 0 81 3e 00
        E 546 90 4b 36
        E 0 92 22 36
        E 227 80 62 00
        E 0 81 47 00
        E 377 90 55 36
        E 0 91 3a 36
        E 0 92 36 36
        E 397 80 64 00
        E 0 81 48 00
        E 669 90 3c 36
        E 0 91 2b 36
        E 0 92 28 36
        E 104 82 37 00
        E 357 90 34 36
        E 0 91 30 36
        E 0 92 2b 36
        E 417 80 60 00
        E 0 81 40 00
        E 44 90 58 36
        E 0 91 37 36
        E 0 92 30 36
        E 461 90 59 36
        E 0 91 39 36
        E 268 80 61 00
        E 0 82 39 00
        E 0 81 42 00
        E 193 92 32 36
        E 368 90 56 36
        E 0 91 51 36
        E 0 92 35 36
        E 213 81 34 00
        E 604 80 49 00
        E 0 82 21 00
        E 475 90 5f 34
        E 0 91 3f 34
        E 0 92 2c 34
        E 129 81 36 00
        E 0 80 4b 00
        E 0 82 22 00
        E 434 90 53 34
        E 0 91 4b 34
        E 563 91 44 34
        E 0 92 27 34
        E 68 80 55 00
        E 0 81 3a 00
        E 0 82 36 00
        E 461 80 3c 00
        E 0 81 2b 00
        E 0 82 28 00
        E 33 92 28 34
        E 428 80 34 00
        E 0 81 30 00
        E 0 82 2b 00
        E 135 90 3b 34
        E 0 91 2c 34
        E 326 80 58 00
        E 0 81 37 00
        E 237 91 2a 34
        E 224 82 30 00
        E 369 80 59 00
        E 0 81 39 00
        E 0 82 32 00
        E 422 91 33 34
        E 361 90 3f 34
        E 0 91 3b 34
        E 509 80 56 00
        E 0 81 51 00
        E 0 82 35 00
        E 563 80 5f 00
        E 0 81 3f 00
        E 562 81 4b 00
        E 1126 80 53 00
        E 0 81 44 00
        E 9 90 5d 34
        E 0 91 3c 34
        E 0 92 35 34
        E 443 90 51 34
        E 0 91 48 34
        E 111 82 28 00
        E 332 90 35 34
        E 0 91 30 34
        E 0 92 21 34
        E 230 81 2a 00
        E 213 91 32 34
        E 0 92 22 34
        E 239 82 27 00
        E 0 81 2c 00
        E 204 90 56 34
        E 0 91 3a 34
        E 0 92 29 34
        E 158 80 3b 00
        E 0 81 33 00
        E 285 92 2b 36
        E 443 90 58 36
        E 442 90 62 36
        E 0 91 53 36
        E 781 90 3d 36
        E 0 91 38 36
        E 338 90 41 36
        E 0 92 31 36
        E 338 90 65 36
        E 0 91 49 36
        E 142 80 3f 00
        E 196 90 66 36
        E 0 92 2e 36
        E 247 80 5d 00
        E 0 81 3c 00
        E 91 91 4b 36
        E 271 90 36 36
        E 0 91 27 36
        E 81 80 51 00
        E 0 81 48 00
        E 443 81 30 00
        E 0 82 21 00
        E 442 80 35 00
        E 0 81 32 00
        E 443 82 29 00
        E 443 80 56 00
        E 0 81 3a 00
        E 443 81 3b 00
        E 0 80 58 00
        E 303 90 51 32
        E 0 91 3c 32
        E 0 92 34 32
        E 478 82 2b 00
        E 0 80 62 00
        E 0 81 53 00
        E 338 82 35 00
        E 0 80 3d 00
        E 192 90 48 32
        E 0 91 45 32
        E 146 81 38 00
        E 0 80 41 00
        E 0 82 31 00
        E 338 82 2c 00
        E 0 80 65 00
        E 338 81 49 00
        E 185 90 5d 32
        E 0 91 34 32
        E 0 92 24 32
        E 86 80 66 00
        E 0 82 2e 00
        E 0 81 4b 00
        E 921 90 57 32
        E 0 91 36 32
        E 0 92 23 32
        E 1007 90 5f 32
        E 0 91 57 32
        E 0 92 36 32
        E 670 82 22 00
        E 0 80 36 00
        E 0 81 27 00
        E 337 90 3f 32
        E 0 92 2f 32
        E 670 80 51 00
        E 0 81 3c 00
        E 338 90 40 32
        E 0 91 38 32
        E 670 82 34 00
        E 0 80 48 00
        E 0 81 45 00
        E 337 92 28 32
        E 670 80 5d 00
        E 0 81 34 00
        E 0 82 24 00
        E 337 92 27 32
        E 670 80 57 00
        E 0 82 23 00
        E 1007 81 57 00
        E 0 82 36 00
        E 139 90 5e 32
        E 382 91 35 32
        E 0 92 25 32
        E 381 90 5c 32
        E 0 92 24 32
        E 105 80 3f 00
        E 277 90 5b 32
        E 0 91 33 32
        E 381 90 54 32
        E 0 91 37 32
        E 350 82 2f 00
        E 0 80 40 00
        E 298 91 39 32
        E 647 90 60 32
        E 647 92 34 32
        E 1231 80 5f 00
        E 0 81 38 00
        E 382 81 36 00
        E 369 90 33 32
        E 0 91 2a 32
        E 0 92 22 32
        E 12 80 5e 00
        E 0 82 25 00
        E 382 81 35 00
        E 0 80 5c 00
        E 381 82 24 00
        E 0 80 5b 00
        E 0 81 33 00
        E 216 90 5e 32
        E 0 91 33 32
        E 0 92 2a 32
        E 432 82 27 00
        E 559 91 57 32
        E 0 92 36 32
        E 88 80 54 00
        E 0 81 39 00
        E 647 82 28 00
        E 256 90 5f 32
        E 0 92 38 32
        E 991 90 57 32
        E 0 91 3b 32
        E 735 81 37 00
        E 0 80 60 00
        E 0 82 34 00
        E 256 90 58 32
        E 0 91 3d 32
        E 735 80 33 00
        E 0 81 2a 00
        E 0 82 22 00
        E 991 81 33 00
        E 0 82 2a 00
        E 61 92 39 32
        E 376 90 5a 32
        E 0 91 3e 32
        E 375 90 5b 32
        E 0 92 3b 32
        E 179 80 5e 00
        E 0 82 36 00
        E 197 91 40 32
        E 0 92 3c 32
        E 375 90 4c 32
        E 0 91 37 32
        E 0 92 30 32
        E 419 81 57 00
        E 0 80 5f 00
        E 218 90 4b 32
        E 0 92 2e 32
        E 637 91 3c 32
        E 0 92 37 32
        E 136 80 57 00
        E 500 90 57 32
        E 1287 82 38 00
        E 0 81 3b 00
        E 376 80 58 00
        E 0 81 3d 00
        E 288 91 3a 32
        E 87 82 39 00
        E 0 80 5a 00
        E 375 81 3e 00
        E 0 82 3b 00
        E 376 80 5b 00
        E 0 81 40 00
        E 0 82 3c 00
        E 137 90 52 32
        E 0 91 2b 32
        E 0 92 27 32
        E 500 80 4c 00
        E 0 82 30 00
        E 475 91 29 32
        E 0 92 26 32
        E 162 81 37 00
        E 0 82 2e 00
        E 636 80 4b 00
        E 960 91 32 32
        E 0 92 2b 32
        E 627 91 3e 32
        E 363 81 3c 00
        E 976 82 37 00
        E 0 80 57 00
        E 0 81 3a 00
        E 975 82 27 00
        E 975 81 29 00
        E 783 81 2b 00
        E 0 82 26 00
        E 627 81 32 00
        E 98 92 29 32
        E 959 90 35 32
        E 0 91 32 32
        E 0 92 22 32
        E 960 91 30 32
        E 0 92 21 32
        E 1730 92 2d 32
        E 616 90 3e 32
        E 0 91 35 32
        E 434 82 2b 00
        E 959 80 52 00
        E 0 81 3e 00
        E 0 82 29 00
        E 960 82 22 00
        E 959 81 30 00
        E 771 82 21 00
        E 616 80 35 00
        E 0 81 32 00
        E 965 90 57 32
        E 0 91 53 32
        E 0 92 2a 32
        E 944 90 63 32
        E 0 91 47 32
        E 944 90 5f 32
        E 0 91 3f 32
        E 944 91 40 32
        E 0 92 2c 32
        E 944 90 47 32
        E 0 91 34 32
        E 923 82 2d 00
        E 0 80 3e 00
        E 0 81 35 00
        E 21 91 33 32
        E 923 80 57 00
        E 0 81 53 00
        E 780 90 46 32
        E 164 80 63 00
        E 0 81 47 00
        E 193 91 31 32
        E 0 92 29 32
        E 358 90 44 32
        E 0 91 30 32
        E 358 90 43 32
        E 0 92 27 32
        E 35 81 3f 00
        E 322 90 3c 32
        E 0 92 2b 32
        E 607 92 2d 32
        E 15 80 5f 00
        E 0 81 40 00
        E 591 90 48 32
        E 607 91 40 32
        E 1449 82 2c 00
        E 0 80 47 00
        E 357 82 2a 00
        E 358 80 46 00
        E 0 81 31 00
        E 358 82 29 00
        E 0 80 44 00
        E 265 90 54 32
        E 0 91 39 32
        E 0 92 28 32
        E 92 81 30 00
        E 0 80 43 00
        E 0 82 27 00
        E 607 81 33 00
        E 229 90 56 32
        E 0 92 29 32
        E 377 80 3c 00
        E 607 81 34 00
        E 691 90 60 32
        E 0 91 45 32
        E 597 90 45 32
        E 0 91 35 32
        E 0 92 24 32
        E 570 82 2b 00
        E 929 82 2d 00
        E 0 80 48 00
        E 0 81 40 00
        E 928 82 28 00
        E 929 80 56 00
        E 746 80 54 00
        E 0 81 39 00
        E 468 92 26 32
        E 129 82 29 00
        E 0 80 60 00
        E 0 81 45 00
        E 785 90 62 32
        E 0 92 21 32
        E 914 91 37 32
        E 0 92 22 32
        E 1648 90 5e 32
        E 0 91 56 32
        E 0 92 35 32
        E 587 90 2e 32
        E 0 91 29 32
        E 636 82 24 00
        E 914 80 45 00
        E 914 82 21 00
        E 914 81 37 00
        E 734 81 35 00
        E 0 80 62 00
        E 0 82 22 00
        E 587 80 5e 00
        E 0 81 56 00
        E 0 82 35 00
        E 1596 90 55 32
        E 0 91 38 32
        E 0 92 28 32
        E 719 90 49 32
        E 0 92 34 32
        E 720 90 61 32
        E 0 91 58 32
        E 0 92 2c 32
        E 719 91 5a 32
        E 0 92 2d 32
        E 719 91 45 32
        E 0 92 2a 32
        E 1439 90 54 33
        E 0 91 43 33
        E 383 82 26 00
        E 0 80 2e 00
        E 0 81 29 00
        E 337 90 48 33
        E 1101 81 38 00
        E 0 80 49 00
        E 0 82 34 00
        E 180 90 46 34
        E 0 92 27 34
        E 540 81 58 00
        E 0 82 2c 00
        E 22 91 4b 34
        E 0 92 2b 34
        E 562 90 52 36
        E 135 80 61 00
        E 0 81 5a 00
        E 0 82 2d 00
        E 304 91 49 36
        E 439 90 57 36
        E 0 91 2a 36
        E 0 92 22 36
        E 696 80 55 00
        E 78 90 51 36
        E 0 91 34 36
        E 0 92 24 36
        E 335 90 45 36
        E 0 92 30 36
        E 335 90 5d 36
        E 0 91 54 36
        E 335 91 56 36
        E 0 92 29 36
        E 356 81 45 00
        E 247 90 39 36
        E 0 91 35 36
        E 315 80 48 00
        E 562 81 43 00
        E 0 80 46 00
        E 0 82 27 00
        E 62 90 3f 34
        E 0 91 36 34
        E 0 92 23 34
        E 409 90 5f 34
        E 0 91 3f 34
        E 0 92 36 34
        E 91 80 54 00
        E 318 90 36 34
        E 0 91 2f 34
        E 0 92 27 34
        E 121 81 4b 00
        E 0 82 2b 00
        E 288 90 34 34
        E 0 91 2c 34
        E 0 92 25 34
        E 151 82 2a 00
        E 0 80 52 00
        E 0 81 49 00
        E 258 90 49 34
        E 0 91 38 34
        E 409 91 39 34
        E 0 92 2a 34
        E 107 80 57 00
        E 0 81 2a 00
        E 0 82 22 00
        E 335 80 51 00
        E 335 82 30 00
        E 223 92 31 34
        E 447 81 56 00
        E 268 80 5d 00
        E 0 81 54 00
        E 0 82 29 00
        E 939 82 24 00
        E 0 80 39 00
        E 0 81 35 00
        E 358 91 3c 34
        E 0 92 2b 34
        E 51 81 36 00
        E 0 82 23 00
        E 270 90 4b 34
        E 0 91 30 34
        E 139 80 5f 00
        E 0 81 3f 00
        E 0 82 36 00
        E 183 90 48 34
        E 0 91 2b 34
        E 226 80 36 00
        E 0 81 2f 00
        E 96 92 29 34
        E 313 80 34 00
        E 9 90 60 34
        E 0 91 59 34
        E 0 92 38 34
        E 322 91 57 36
        E 77 81 38 00
        E 245 90 5f 36
        E 0 92 36 36
        E 164 82 2a 00
        E 158 90 44 36
        E 0 91 27 36
        E 0 92 23 36
        E 171 82 28 00
        E 0 80 49 00
        E 0 81 39 00
        E 263 82 25 00
        E 133 90 3e 36
        E 0 91 2d 36
        E 246 90 4a 36
        E 0 91 29 36
        E 0 92 21 36
        E 245 90 39 36
        E 0 92 26 36
        E 246 90 3a 36
        E 442 90 46 36
        E 699 81 34 00
        E 0 80 45 00
        E 0 82 31 00
        E 322 80 3f 00
        E 0 81 3c 00
        E 136 90 4c 33
        E 0 91 47 33
        E 0 92 2c 33
        E 186 82 2b 00
        E 0 80 4b 00
        E 0 81 30 00
        E 282 90 58 33
        E 0 91 3b 33
        E 40 82 27 00
        E 322 81 2c 00
        E 0 80 48 00
        E 106 90 53 33
        E 0 91 34 33
        E 216 81 59 00
        E 253 90 57 33
        E 0 91 54 33
        E 0 92 2b 33
        E 69 80 60 00
        E 0 82 38 00
        E 322 81 57 00
        E 0 80 5f 00
        E 0 82 36 00
        E 77 90 63 33
        E 0 91 48 33
        E 469 90 60 33
        E 0 91 3f 33
        E 21 80 44 00
        E 0 81 27 00
        E 0 82 23 00
        E 246 82 29 00
        E 0 80 3e 00
        E 0 81 2d 00
        E 201 91 41 33
        E 44 80 4a 00
        E 0 82 21 00
        E 246 80 39 00
        E 178 90 48 33
        E 0 91 35 33
        E 67 81 2b 00
        E 197 80 3a 00
        E 205 90 49 33
        E 0 92 2e 33
        E 845 91 36 32
        E 106 81 29 00
        E 0 82 26 00
        E 0 80 46 00
        E 71 90 4b 32
        E 0 92 2f 32
        E 177 91 38 32
        E 178 91 39 32
        E 0 92 31 32
        E 43 81 47 00
        E 134 90 39 33
        E 0 91 31 33
        E 0 92 28 33
        E 301 90 37 33
        E 0 91 30 33
        E 33 80 58 00
        E 0 81 3b 00
        E 268 90 45 33
        E 201 80 53 00
        E 0 81 34 00
        E 100 91 3c 33
        E 368 80 57 00
        E 0 81 54 00
        E 469 80 63 00
        E 0 81 48 00
        E 85 90 43 33
        E 383 82 2b 00
        E 0 81 3f 00
        E 78 90 58 33
        E 0 92 2b 33
        E 390 80 60 00
        E 0 81 41 00
        E 71 90 56 33
        E 0 91 3b 33
        E 398 80 48 00
        E 433 91 47 33
        E 296 90 64 33
        E 115 82 2c 00
        E 0 81 35 00
        E 178 80 49 00
        E 0 82 2e 00
        E 177 81 36 00
        E 0 80 4b 00
        E 178 82 2f 00
        E 0 81 38 00
        E 177 80 4c 00
        E 0 81 39 00
        E 0 82 31 00
        E 301 80 39 00
        E 0 81 31 00
        E 301 80 37 00
        E 301 81 30 00
        E 540 90 62 33
        E 382 80 45 00
        E 71 91 26 33
        E 0 92 23 33
        E 390 82 28 00
        E 63 90 42 33
        E 0 92 21 33
        E 398 81 3c 00
        E 420 90 5f 33
        E 0 91 56 33
        E 0 92 36 33
        E 41 80 56 00
        E 251 90 2f 33
        E 0 91 2a 33
        E 0 92 26 33
        E 119 81 3b 00
        E 296 80 58 00
        E 2262 90 60 33
        E 0 91 38 33
        E 0 92 33 33
        E 5 80 64 00
        E 352 90 54 33
        E 0 91 3f 33
        E 0 92 38 33
        E 102 82 2b 00
        E 0 81 47 00
        E 0 80 62 00
        E 255 90 38 33
        E 0 91 27 33
        E 0 92 24 33
        E 198 80 43 00
        E 159 91 29 33
        E 0 92 25 33
        E 295 82 21 00
        E 62 90 4d 33
        E 0 91 3d 33
        E 0 92 2c 33
        E 302 81 26 00
        E 0 82 23 00
        E 0 80 42 00
        E 55 92 2e 34
        E 237 80 5f 00
        E 0 81 56 00
        E 0 82 36 00
        E 120 90 4f 34
        E 0 91 3e 34
        E 356 90 4a 34
        E 0 91 46 34
        E 0 92 29 34
        E 357 92 2b 36
        E 279 90 4c 36
        E 0 91 47 36
        E 279 90 5f 36
        E 0 91 56 36
        E 492 90 49 36
        E 213 90 3d 36
        E 0 92 35 36
        E 212 90 59 36
        E 0 91 55 36
        E 213 90 5a 36
        E 156 80 2f 00
        E 0 81 2a 00
        E 0 82 26 00
        E 57 91 57 36
        E 170 90 63 36
        E 0 91 2e 36
        E 0 92 2a 36
        E 130 80 60 00
        E 0 82 33 00
        E 357 80 54 00
        E 0 81 3f 00
        E 0 82 38 00
        E 109 90 5d 34
        E 0 91 34 34
        E 0 92 30 34
        E 248 81 27 00
        E 0 82 24 00
        E 12 90 51 34
        E 0 91 3c 34
        E 0 92 34 34
        E 260 90 34 34
        E 0 91 24 34
        E 0 92 21 34
        E 85 80 38 00
        E 0 81 29 00
        E 0 82 25 00
        E 174 90 35 34
        E 260 90 45 34
        E 0 91 35 34
        E 260 90 43 34
        E 19 80 4d 00
        E 0 81 3d 00
        E 357 80 4f 00
        E 0 81 3e 00
        E 92 90 39 34
        E 0 92 24 34
        E 544 80 4a 00
        E 0 81 46 00
        E 279 80 4c 00
        E 0 81 47 00
        E 492 82 2b 00
        E 0 80 5f 00
        E 0 81 56 00
        E 130 91 3a 34
        E 82 82 29 00
        E 122 90 55 34
        E 91 81 38 00
        E 0 80 3d 00
        E 0 82 35 00
        E 114 90 46 34
        E 0 91 31 34
        E 99 82 2c 00
        E 0 80 59 00
        E 105 90 47 34
        E 0 91 33 34
        E 108 81 55 00
        E 97 90 57 34
        E 0 91 47 34
        E 0 92 36 34
        E 73 82 2e 00
        E 0 80 5a 00
        E 0 81 57 00
        E 131 92 38 36
        E 204 90 59 36
        E 0 91 48 36
        E 205 91 60 36
        E 316 80 5d 00
        E 44 90 3e 36
        E 0 91 2a 36
        E 156 90 5d 36
        E 0 91 3e 36
        E 60 80 51 00
        E 0 81 3c 00
        E 0 82 34 00
        E 96 90 2d 36
        E 0 92 26 36
        E 156 90 2f 36
        E 0 91 2b 36
        E 7 80 34 00
        E 149 92 28 36
        E 111 81 24 00
        E 0 80 35 00
        E 260 81 35 00
        E 259 80 43 00
        E 209 80 45 00
        E 167 82 24 00
        E 1278 81 34 00
        E 0 82 30 00
        E 0 80 39 00
        E 108 90 45 32
        E 0 92 25 32
        E 96 80 49 00
        E 0 81 3a 00
        E 205 81 2e 00
        E 0 80 55 00
        E 41 90 44 32
        E 0 91 28 32
        E 163 80 46 00
        E 0 81 31 00
        E 179 91 27 32
        E 0 92 23 32
        E 25 81 33 00
        E 205 82 36 00
        E 112 90 42 32
        E 0 92 22 32
        E 92 80 57 00
        E 0 81 47 00
        E 205 80 59 00
        E 0 81 48 00
        E 45 90 41 32
        E 0 91 25 32
        E 315 80 63 00
        E 0 82 38 00
        E 0 81 60 00
        E 26 91 2c 32
        E 0 92 24 32
        E 130 82 21 00
        E 0 80 3e 00
        E 156 82 2a 00
        E 0 80 5d 00
        E 0 81 3e 00
        E 56 90 3f 32
        E 100 80 2d 00
        E 242 90 3e 32
        E 39 80 2f 00
        E 303 91 29 32
        E 0 92 21 32
        E 342 90 3c 32
        E 341 90 37 32
        E 940 82 28 00
        E 341 80 47 00
        E 0 82 26 00
        E 342 81 2a 00
        E 0 80 45 00
        E 342 82 25 00
        E 342 80 44 00
        E 342 81 27 00
        E 0 80 42 00
        E 341 81 25 00
        E 257 90 43 32
        E 0 91 34 32
        E 0 92 2f 32
        E 85 80 41 00
        E 0 81 2c 00
        E 342 82 24 00
        E 0 80 3f 00
        E 300 90 3b 32
        E 0 91 37 32
        E 0 92 34 32
        E 42 81 2b 00
        E 0 82 22 00
        E 342 80 3e 00
        E 0 81 29 00
        E 341 82 21 00
        E 0 80 3c 00
        E 3247 81 28 00
        E 0 82 23 00
        E 0 80 37 00
        E 727 80 43 00
        E 0 81 34 00
        E 0 82 2f 00
        E 3631 80 3b 00
        E 0 81 37 00
        E 0 82 34 00
        E 0 b0 7b 00
        CCINTERP 32
        CHASE_CC_TAKEOFFS 1
        GUID {1A95F0E0-5527-4F49-8CF5-DB4F0A80FD74}
        IGNTEMPO 0 120 4 4
        SRCCOLOR 37
        VELLANE -1 100 0 0 1
      >
    >
  >
  <TRACK {AA654F10-A467-8D45-86CE-3EA1A1F64A2B}
    NAME "Pianoteq 8"
    PEAKCOL 16576
    BEAT -1
    AUTOMODE 0
    PANLAWFLAGS 3
    VOLPAN 0.29516224459529 -1 -1 -1 1
    MUTESOLO 0 0 0
    IPHASE 0
    PLAYOFFS 0 1
    ISBUS 0 0
    BUSCOMP 0 0 0 0 0
    SHOWINMIX 1 0.6667 0.5 1 0.5 0 0 0
    FIXEDLANES 9 0 0 0 0
    SEL 0
    REC 1 5088 1 0 0 0 0 0
    MIDI_INPUT_CHANMAP 1
    VU 2
    TRACKHEIGHT 0 0 0 0 0 0 0
    INQ 0 0 0 0.5 100 0 0 100
    NCHAN 2
    FX 1
    TRACKID {AA654F10-A467-8D45-86CE-3EA1A1F64A2B}
    PERF 0
    AUXRECV 0 0 1 0 0 0 0 0 0 -1:U 33 -1 ''
    MIDIOUT -1
    MAINSEND 1 0
    <FXCHAIN
      WNDRECT 32 136 807 690
      SHOW 0
      LASTSEL 0
      DOCKED 0
      BYPASS 0 0 0
      <VST "VST3i: Pianoteq 8 (Modartt) (1->5ch)" "Pianoteq 8.vst3" 0 "" 1031062328{565354507438717069616E6F74657120} ""
        OMN0Pe5e7f4CAAAAAQAAAAAAAAACAAAAAAAAAAUAAAABAAAAAAAAAAIAAAAAAAAABAAAAAAAAAAIAAAAAAAAABAAAAAAAAAA3RYAAAEAAAD//xAA
        zRYAAAEAAABWc3RXAAAACAAAAAEAAAAAQ2NuSwAAFrVGQkNoAAAAAlB0OHEACAQBAAAAAAAAAAAAAAAAAAAAAAAAAAAAAAAAAAAAAAAAAAAAAAAAAAAAAAAAAAAAAAAA
        AAAAAAAAAAAAAAAAAAAAAAAAAAAAAAAAAAAAAAAAAAAAAAAAAAAAAAAAAAAAAAAAAAAAAAAAAAAAAAAAAAAAAAAAAAAAAAAAAAAAAAAAAAAAAAAAAAAWHaCYE/4CAAAA
        SDgSANEVAAABAAAAEThWOMUVAABQclZLKQAAAlhGVFC1FQAACgAAADIwMjUvMDMvMTkXAAAAUGlhbm90ZXEgOC40LjEvMjAyNTAyMDRXtWoenkxw1ZZCsY0UIRC8ZGxs
        YXQVAAB0ZHRNhgcAAA8AAABDUC04MCBSZWNvcmRpbmcAAAAABwAAAE1vZGFydHReAAAAVGhlIENQLTgwIHJlYWR5IGZvciByZWNvcmRpbmc6IGEgdG91Y2ggb2YgdHJl
        bW9sbywgYW1wLCBjb21wcmVzc29yIGFuZCBhdWdtZW50ZWQgc3RlcmVvIHdpZHRoLgAAAABEAQAADwAAAENQLTgwIFJlY29yZGluZwAAAADfBgAAR1JVVQAAAAYAAAAB
        A8BNVHJrAAAGyQD/AgsgSy5QLlJhdXNjaACQJkJ7LVOBAbBAABuQMklHgCY0IZBAbAA1aAA8YgCALUwGkDlkOIAyN4F7NR8bOTsYPEoDQDx9kEBlADVrBDxkBTllMoA5
        XAw8UQY1YSdASIQdkDI0DCY/GYAyUhkmTYE8kExwB0FgBkVlAEhhc4BFKxdINQBMSidBIoNZkC1ESoAtWoJpkEh6AEFxBj5nAEVkC0NmMoBDOSBBUhhFQAs+QCtIQoM1
        kDJHECZJNIAyXQUmYYFYkD5cBEFeADlkBjxTggiAORALPBgPPiQeQSRukC1ZZIAtWXGQO2QKQGYAN1+CPoA3JkdAMROQMkIrgDsfDJAmO0KAMlAtJjRDkDxpBUFwCDli
        gjyAQSklOSwZPD6BJ5AmXAAyYoE+QGsLPF0EOWEFNWQ+gDIyLyY5VzkpBUA7IjVBBTxJgRCQQGkANWYAPGEFOWBhgDlNHDxLBDVKBkBHg1qQNXcAPHEAQHYAOXZfgDll
        CzVjBjxcIUBSgzqQMmYrgDJjgVSQTHQLQWIARWcHSFoVR1YtgEdHcEw7IUENBkgqAEUTMpAtdEOALVNJkEp1AEN7AEB7AEdugieARxhHsEB/hC6AQDUzQyMxkEczRIBK
        P4EgR0IGkEBVgU+AQDcwkCZjDTJggm9DdQdKcwBAcgBHbUKAMkcAJkRrQzsKRz0dSlQOQDmGRpAyZQUmbhywQACBK5A1awA5bABAcAA8ZYIdgEAvADUtETk8GDxIgQ8m
        MACQPGQGNWcFQGgAOWZJgDJAETlWFjVRBjxWBUBChAKQPHsAQH4ANX8AOXsxPjwNgD5CJzlgAzVhEzxVK0BOgnaQMmAigDJeBZAmQA+AJlOBX5BIaAZMcQBFaAZBX3uA
        RUELQTgSSEEATESBXpAtZDaALVqBZ5BAdgBKdQVDewBHdjNIQQuASEhdQy0tSjkFRxM9QByBC5AyPxImQQeAMksQJlSBR5BIcAU+awBFbAhBaIF7gD4KR0EqEUg4B5At
        XACART5BLVWBa5BKcwdHcQBDdwBAdoFTgEpFJUdNAENIC0AugReQSHEFPnIGQXALRWeBWrBAfxGARSSBOJBHXSGAQScRPjw+kEU4CYBIPj+QQUJEgEdGIUU+H5A+SySA
        QU5dPkxJsEAAG5AyZQwmb4NgQGoUPFwAOWQANWpcgDlUADxRD0BRADVZBSYyTzI0gzGQNX8APHgAOX4HQH9ngDlhDTxXADVfHkBLgzeQLXQ4gC1UgViQNWwAQHAAPGQH
        OWeBJoA5KhM1MAtAOQA8PYFCkEBwBTxrBjVsBTlriFqAQCgYOT4GPD4LNTYnkCZtBjJngjM5bQY8awU1bARAcGqAJk1ksEB/GYAyURo1TUA5SDs8UABASIRIkC5LgUWw
        QAAVkDVZDzpNHT5cM0VdB0FDdIA6QTKwQH9JgD5UFEFCPkVJgwGQOi2DSkYwakpCPU1CXlFkgQuATUQXLjwwNU+BLTo9SZBNVymASgGCX5BKSBCAURs3RieBCkowBk0v
        gjOQRkQNPUYAMVULUloASVUJTVoTsEAAgiBAfy2APRhhRiw2STwVTS+BDZBGSkiAUg5CRjeCLZA4S4MpPWp7gDEIFDgpTz0/apBGXoJwSUmBQoBJVS1GN4MBkDAugQQ3
        WmewQAAEkE1ZBUNTC0hbDUZagjOwQH+BFYBDLoEiRiJ1kENXN0YgPYBNAgBGHB5IIzdDNIEokDxlUoA8Z4I5kEZQBk1eBUhYgiaAN0IRMBlwRiIHSDcAkENhFoBNMIEQ
        Q0yEPZBMWxgvYQZJWABFYQRCU06wQACCTUB/NIBCMIEcRR8tSSkATClSkEJWgReAQjWDZC9PhXiQLlUAsEAAI5BITQJEQgZLPwVBRYFwsEB/g1WAQQYVLimDW5BBPoVl
        gEQPEUEtFkhIMksvg3uQLBY/MzZwODcOsEAAAJBEPxKAMz4QkEhNC0s0DU9FgWKwQH+EHYA4J4FELBlqRBeBVJBERBeASBUDTzoySy9sRD+DIJArGXEyQIERsEAAIJA3
        Q3BBQGpHJyewQH+BBIBBLgmQSz88gEdMggo3E4FGSwYPkEcfgQeARywAkEFNgVOAQTuBe5A3OoIFPjiFZYA3D4E/Pi4QkDswiFeAMgGBXCsOixo7QoEgkCY5gXCwQAA3
        kC0/gT6wQH+BM5AyUYFIgDJbgQeQNkQigC0+GiZEgXc2JzGQOVGDGD5aMoA5PIE8PjyBIpBCQoMhRUqCM4BFL3CQSlODI4BKK4EnkEkVQoBJEIIkkEpAgXOASk2DC5BR
        P4dhgFEBhABCP6dcsEAAAP8vAFByc1XeDQAASQAAAAUAAABjcC04MAAAAAAFAAAAQ1AtODAAAAAAAAAAAHByb21UAAAAAQAAAAEAAAABAAAABQAAAGNwLTgwAAAAAAUA
        AABDUC04MAAAgD8GAAAAAAAAAAAAAAAAAAAAAAAAAAAAAABURv////8AAAAAAAAAAAAAAAAAAAAAcnlhbBAAAAACAAAAAAAAAAAAAAD/////b2xvcxEAAAABAAAAAQAA
        AEYAAAAAAAAAAAEAAAABAAAAAAAAAAAAAAABAAAAAAAAAAAAAAABAAAAAAAAAAAAAAABAAAAAAAAAAAAAAABAAAAAAAAAAAAAAABAAAAAAAAAAAAAAABAAAAAAAAAAAA
        AAABAAAAAAAAAAAAAAABAAAAAAAAAAAAAAAAAAAAA4AAAEADAAAAAACoQQAAcEIAANhCAwAAAAAAAACCAwAAAAEAAAAAAAAAAAAAAAMAAAAAAAAAAAAAAAAAAAADAAAA
        AAAAAAAAAAAAAAAAAwAAAAEAAAABAAAAAQAAAAAAgEAAAAAAAQAAAAAAyMKxORA+A4AAAFAAAHBCAQAAAAAAgD8BAAAAAAAAAAAAAAAAAKDAAACgQAAAukIAAAAAA4AA
        AFAAAHBCAQAAAAAAAAAAAAAAAADIwgAAyMIBAAAAAAAAAAAAAAAAAKDAAACgQAAAAAADgAAAYAIAAAAAAKhBAACuQgIAAAAAAAAAgQOAAABgAgAAAAAAqEEAAK5CAgAA
        AAAAgD+BgAAAAAAAAADSBAAAAAAAAAAAAAAAAACAAAAAPwAAgD8DgAAAUAAAcEIBAAAAAAAAAAOAAABgAgAAAAAAqEEAAK5CAgAAAAAAAACBA4AAAGACAAAAAACoQQAA
        rkICAAAAAACAP4ECAAAAAQAAAFUAAABFcXVhbCB0ZW1wZXJhbWVudApUaGUgc3RhbmRhcmQgdHVuaW5nLCB3aGVyZSB0aGUgb2N0YXZlIGlzIGRpdmlkZWQgaW4gMTIg
        ZXF1YWwgc3RlcHMuDAAAAAAAyEIAAEhDAACWQwAAyEMAAPpDAAAWRAAAL0QAAEhEAABhRAAAekQAgIlEAACWRAEAAAAAAAAABAAAAAAA3EM8AAAARQAAAEYAAAAAfwAA
        AAAAAAAHAAAARGVmYXVsdAAAAAAAAAAAAgAAAAOAAABgAgAAAAAAqEEAAK5CAgAAAAAAAACBAAAAAAAAAAAAAIA/AQAAAAEAAAABAAAADAAAAAOAAABIAQAAAAAAgD8A
        AAAAAACAPwOAAABgAgAAAAAAqEEAAK5CAgAAAAAAgD+BA4AAAGACAAAAAACoQQAArkICAAAAAACAP4EDgAAAUAAAekQBAAAAAAAAAAOAAABQAAB6RAEAAAAAAIA/AAAA
        AAOAAABQAABwQgEAAAAAAAAAAACAPwOAAABQAABwQgEAAAAAAAAAAQAAAAAAAAAAAAAAzczMvc3MzD0BAAAAAAAAAAAAAAAAAAC/AAAAPwAAgD8DgAAAQAMAAAAAAKhB
        AABwQgAA2EIDAAAAAACAP4IAAAAAA4AAAGACAAAAAACoQQAArkICAAAAAACAP4EAAIA/A4AAAGACAAAAAACoQQAArkICAAAAAACAP4EAAPBBA4AAAGACAAAAAACoQQAA
        rkICAAAAAAAAAIEAAIA/A4AAAEADAAAAAACoQQAAcEIAANhCAwAAAAAAgD+CA4AAAEgBAAAAAAAAAAEAAAADgAAAYAIAAAAAAAAAAACAPwIAAAAAAAAAAQAAgD8DgAAA
        YAIAAAAAAAAAAACAPwIAAAAAAIA/gQOAAABABAAAAAAAAAAmk0k+/n4/PwAAgD8EAAAAAAAAAIEAAIA/gQOAAABgAgAAAAAAAAAAAIA/AgAAAAAAAACBAAAAAM3MTD4A
        AAAAAAAAAAAAAAAAAAA/AAAAAGZmpj8DgAAAYAIAAAAAAKhBAACuQgIAAAAAAIA/gQAAgL8AAAA/A4AAAEgBAAAAAACAPwEAAAAAAAAAAQAAAAoAAABMb25nIFBsYXRl
        CQAAAGxvbmdwbGF0ZQAAQEAAAMBBAACAPwAAAD8AAAAAAAAAAAAAAAAAAAAAAAAAAAAAAAAAAKpDAACAPwAAgD8BAAAABgAAAAAAgD8AAIA/A4AAAGBYAAAAAACoQQAA
        gD9YAAAAAACAP5WPwnU/LlyPgj8AAIA/j8KVP65HIT9I4Zo/16OQP7gehT+4HkU/ZmaGPwrXgz9SuF4/zcxMP65HgT8AAIA/rkeBP4/ClT/sUXg/uB6FPwAAgD8K14M/
        pHC9P+xRmD8K16M/MzOTP2Zmhj8K14M/4XpUPxSuhz9I4Xo/uB6FPwrXIz8zM3M/FK5HP1yPgj8K14M/j8J1P1yPgj9I4Xo/KVxPPwrXgz/sUXg/SOF6P7gehT+kcH0/
        XI+CP0jhej9I4Xo/gWZmhj8QAACAP6RwfT9cj4I/rkeBP7gehT8AAIA/pHB9P+xReD+uR4E/CteDP6RwfT+uR4E/CteDPylcjz9I4bo/PQoXQAOAAABAAwAAAAAAqEEA
        AHBCAADYQgMAAAAAAIA/ggAAAAADgAAAYAIAAAAAAKhBAACuQgIAAAAAAAAAgQEAAAAAAAAAAQAAAAAAAD8AAABAAwAAAAAAgD8AAIA/AACAPwOAAABAAwAAAAAAqEEA
        AHBCAADYQgMAAAAAAIA/ggOAAABAAwAAAAAAqEEAAHBCAADYQgMAAAAAAIA/ggOAAABAAwAAAAAAqEEAAHBCAADYQgMAAAAAAIA/ggAAgD8AAIA/BwAAAM3MzD3NzEw+
        ZmZmPwAAwD8AAIA+CAAAAAAAAAAAAAAAAAAAAAAAAAAAAAAAAAAAAAAAAAAAAAAAA4AAAEADAAAAAACoQQAAcEIAANhCAwAAAAAAgD+CA4AAAEADAAAAAACoQQAAcEIA
        ANhCAwAAAAAAgD+CA4AAAEADAAAAAACoQQAAcEIAANhCAwAAAAAAgD+CA4AAAEADAAAAAACoQQAAcEIAANhCAwAAAAAAgD+CAQAAAAEAAAAAAHBCA4AAAFAAAAAAAQAA
        AAAAAAAAAAA+A4AAAGACAAAAAACoQQAArkICAAAAAACAP4EBAAAAAAAAAAEAAAAzMzM/ZmamPwEAAAAAAAAAAQAAADMzMz9mZqY/AQAAAAAAAAABAAAAMzMzP2Zmpj8B
        AAAAAAAAAAEAAAAzMzM/ZmamPwEAAAAAAAAAAQAAADMzMz9mZqY/AQAAAAAAAAAAAPBCAAAAAA4AAAAAAAA/zczMPc3MTD4AAAA/AwAAAAAAAAADgAAASAEAAAAAAAAA
        AAAAAAOAAABIAQAAAAAAAAAEAAAAAgAAAAMAAAAEAAAAAQAAAAEAAAAAAIA/AACAPwEAAAABAAAAAQAAAAEAAAABAAAAAACAPwAAAAAAAIBAAAC0QkYAAAAAA4AAAEgB
        AAAAAAAAAAAAAAADgAAASAEAAAAAAAAAAAAAAAAAAAADgAAASAEAAAAAAAAAAAAAAAMAAAABAAAAAQAAAAAAAAAOAAAAEAAAAAAAAAAAACBAAACAPwAAAAAAAAA/AAAA
        AAAAAAAAAAAAAAAAAAAAAAAAAAAAAAAAAAAAAAAAAAAAAAAAAAAAAAADAAAACAAAAAEAAAAAAAAADgAAABAAAAAAAAAAAACAPwAAAAAAAPDBmpmZvpqZmb4AAIA/AAAA
        AAAAAAAAAAAAAAAAAAAAAAAAAAAAAAAAAAAAAAAAAAAAAwAAAAkAAAABAAAAAAAAAA4AAAAQAAAAAAAAAAAAAD8AAMA/AABAQAAAcMEAACBBAADIQwAAoEAAAAAAAAAA
        AAAAAAAAAAAAAAAAAAAAAAAAAAAAAAAAAAEAAAABAAAAs+8yPwAAEMEAAAAAAwAAAAEAAAAAAAAAAQAAAAUAAAAEAAAAAQAAAAMAAABmZqY/AACAP5qZmT8AALRCAAAA
        AAAAAAAFAAAAAAAAAAAA8MEAAMDCAADAwgAAwMIFAAAAAAAAAAAAAAAAAAAAAAAAAAAAAAAFAAAAAAAAAAAAAAAAAAAAAAAAAAAAAAABAAAAAAAAAAQAAAABAAAAAwAA
        AAAAwD8AAAA/mpmZPwAAtEIAAAAAAAAAAAUAAAAAAPDBAAAAAAAAwMIAAMDCAADAwgUAAAAAAAAAAAAAAAAAAAAAAAAAAAAAAAUAAAAAAAAAAAAAAAAAAAAAAAAAAAAA
        AAEAAAAAAAAABAAAAAAAAAADAAAAj8L1Pz0KV78fhWs/AAC0QgAAAAAAAAAABQAAAAAAQMEAAEDBAABwwgAAcMIAAHDCBQAAAAAAAAAAAAAAAAAAAAAAAAAAAAAABQAA
        AAAAAAAAAAAAAAAAAAAAAAAAAAAAAQAAAAAAAAAEAAAAAAAAAAMAAAAzMzO/XI/CPq5HYT8AAAAAAAAAAAAAAAAFAAAAAABAwQAAQMEAAHDCAABwwgAAcMIFAAAAAAAA
        AAAAAAAAAAAAAAAAAAAAAAAFAAAAAAAAAAAAAAAAAAAAAAAAAAAAAAABAAAAAAAAAAQAAAAAAAAAAwAAALgexT89Clc/rkfhPwAAAAAAAAAAAAAAAAUAAAAAAEDBAABA
        wQAAcMIAAHDCAABwwgUAAAAAAAAAAAAAAAAAAAAAAAAAAAAAAAUAAAAAAAAAAAAAAAAAAAAAAAAAAAAAAAEAAAAAAAAAAQAAAAAAAAABAAAAAwAAAKRwPT8AAAAASOG6
        PwAAkEEAAAAAAAAAAAAAAAABAAAAAAAAAAAAAAAAAAAASlVDRVByaXZhdGVEYXRhAAEBQnlwYXNzAAEBAwAdAAAAAAAAAEpVQ0VQcml2YXRlRGF0YQAAAAAAAAAA
        AAAQAAAA
      >
      PRESETNAME "CP-80 Recording"
      FLOATPOS 32 149 592 662
      FXID {1BDB9480-17FE-3248-A735-99C492CB791B}
      WAK 0 0
      BYPASS 1 0 0
      <AU "AU: ValhallaSupermassive (Valhalla DSP, LLC)" "Valhalla DSP, LLC: ValhallaSupermassive" "" 1635083896 1934451059 1866754414
        6QMAAAAAAAACAAAAAQAAAAAAAAACAAAAAAAAAAIAAAABAAAAAAAAAAIAAAAAAAAAYQYAADw/eG1sIHZlcnNpb249IjEuMCIgZW5jb2Rpbmc9IlVURi04Ij8+CjwhRE9D
        VFlQRSBwbGlzdCBQVUJMSUMgIi0vL0FwcGxlLy9EVEQgUExJU1QgMS4wLy9FTiIgImh0dHA6Ly93d3cuYXBwbGUuY29tL0RURHMvUHJvcGVydHlMaXN0LTEuMC5kdGQi
        Pgo8cGxpc3QgdmVyc2lvbj0iMS4wIj4KPGRpY3Q+Cgk8a2V5PmRhdGE8L2tleT4KCTxkYXRhPgoJQUFBQUFBQUFBQUFBQUFBU0FBQUFNRDhBQUFBQUFBQXhQb0FBQUFB
        QUFESStra2tsQUFBQU16OEFBQUFBQUFBMEFBQUEKCUFBQUFBRFUvZ0FBQUFBQUFOajhBQUFBQUFBQTNBQUFBQUFBQUFEZy9nQUFBQUFBQU9RQUFBQUFBQUFZZlA0QUFB
        QUFBCglCaUErakRQOEFBQUdJVDhBQUFBQUFBWWlQU3FxcXdBQUJpTUFBQUFBQUFBR0pBQUFBQUFBQUFZbEFBQUFBQUFBQmlZQQoJQUFBQQoJPC9kYXRhPgoJPGtleT5l
        bGVtZW50LW5hbWU8L2tleT4KCTxkaWN0PgoJCTxrZXk+MTwva2V5PgoJCTxkaWN0PgoJCQk8a2V5PjA8L2tleT4KCQkJPHN0cmluZz5JbnB1dDwvc3RyaW5nPgoJCTwv
        ZGljdD4KCQk8a2V5PjI8L2tleT4KCQk8ZGljdD4KCQkJPGtleT4wPC9rZXk+CgkJCTxzdHJpbmc+T3V0cHV0PC9zdHJpbmc+CgkJPC9kaWN0PgoJPC9kaWN0PgoJPGtl
        eT5qdWNlUGx1Z2luU3RhdGU8L2tleT4KCTxkYXRhPgoJVmtNeUlmMEJBQUE4UDNodGJDQjJaWEp6YVc5dVBTSXhMakFpSUdWdVkyOWthVzVuUFNKVlZFWXRPQ0kvUGlB
        OFZtRnMKCWFHRnNiR0ZUZFhCbGNtMWhjM05wZG1VZ2NHeDFaMmx1Vm1WeWMybHZiajBpTXk0d0xqQWlJSEJ5WlhObGRFNWhiV1U5CglJa1JsWm1GMWJIUWlJRTFwZUQw
        aU1DNHlNRE01T1RrNU9UWXhPRFV6TURJM0lpQkVaV3hoZVZONWJtTTlJakF1TWpVaQoJSUVSbGJHRjVUbTkwWlQwaU1DNHlPRFUzTVRReU9UZzBPRFkzTURrMklpQkVa
        V3hoZVY5TmN6MGlNQzQxSWlCRVpXeGgKCWVWZGhjbkE5SWpBdU56STFNREF3TURJek9EUXhPRFUzT1NJZ1EyeGxZWEk5SWpFdU1DSWdSbVZsWkdKaFkyczlJakF1CglO
        amd4T1RrNU9UZ3hOREF6TXpVd09DSWdSR1Z1YzJsMGVUMGlNQzR6TlRFd01EQXdNVEE1TmpjeU5UUTJJaUJYYVdSMAoJYUQwaU1TNHdJaUJNYjNkRGRYUTlJakF1TUNJ
        Z1NHbG5hRU4xZEQwaU1TNHdJaUJOYjJSU1lYUmxQU0l3TGpJM016Z3oKCU5ERXdPVE13TmpNek5UUWlJRTF2WkVSbGNIUm9QU0l3TGpVaUlFMXZaR1U5SWpBdU1EUXhO
        alkyTmpZM09UQTRORE13CglNU0lnVW1WelpYSjJaV1F4UFNJd0xqQWlJRkpsYzJWeWRtVmtNajBpTUM0d0lpQlNaWE5sY25abFpETTlJakF1TUNJZwoJVW1WelpYSjJa
        V1EwUFNJd0xqQWlJRzFwZUV4dlkyczlJakFpSUhWcFYybGtkR2c5SWpneU1DSWdkV2xJWldsbmFIUTkKCUlqUXpOU0l2UGdBPQoJPC9kYXRhPgoJPGtleT5tYW51ZmFj
        dHVyZXI8L2tleT4KCTxpbnRlZ2VyPjE4NjY3NTQ0MTQ8L2ludGVnZXI+Cgk8a2V5Pm5hbWU8L2tleT4KCTxzdHJpbmc+VW50aXRsZWQ8L3N0cmluZz4KCTxrZXk+c3Vi
        dHlwZTwva2V5PgoJPGludGVnZXI+MTkzNDQ1MTA1OTwvaW50ZWdlcj4KCTxrZXk+dHlwZTwva2V5PgoJPGludGVnZXI+MTYzNTA4Mzg5NjwvaW50ZWdlcj4KCTxrZXk+
        dmVyc2lvbjwva2V5PgoJPGludGVnZXI+MDwvaW50ZWdlcj4KPC9kaWN0Pgo8L3BsaXN0PgoEAAAAZHVvAAAAAAAA
      >
      PRESETNAME duo
      FLOATPOS 64 306 820 488
      FXID {81992BD9-6484-2340-9F4C-C8B888C3C46D}
      WAK 0 0
    >
  >
  <TRACK {9DF55AC6-CDE8-504C-BC83-FF8704EEBEDD}
    NAME "Pianoteq 8"
    PEAKCOL 16576
    BEAT -1
    AUTOMODE 0
    PANLAWFLAGS 3
    VOLPAN 1.47270434574955 0 -1 -1 1
    MUTESOLO 0 0 0
    IPHASE 0
    PLAYOFFS 0 1
    ISBUS 0 0
    BUSCOMP 0 0 0 0 0
    SHOWINMIX 1 0.6667 0.5 1 0.5 0 0 0
    FIXEDLANES 9 0 0 0 0
    SEL 0
    REC 1 5088 1 0 0 0 0 0
    MIDI_INPUT_CHANMAP 0
    VU 2
    TRACKHEIGHT 0 0 0 0 0 0 0
    INQ 0 0 0 0.5 100 0 0 100
    NCHAN 2
    FX 1
    TRACKID {9DF55AC6-CDE8-504C-BC83-FF8704EEBEDD}
    PERF 0
    AUXRECV 0 0 1 0 0 0 0 0 0 -1:U 34 -1 ''
    MIDIOUT -1
    MAINSEND 1 0
    <FXCHAIN
      WNDRECT 32 136 807 690
      SHOW 0
      LASTSEL 0
      DOCKED 0
      BYPASS 0 0 0
      <VST "VST3i: Pianoteq 8 (Modartt) (1->5ch)" "Pianoteq 8.vst3" 0 "" 1031062328{565354507438717069616E6F74657120} ""
        OMN0Pe5e7f4CAAAAAQAAAAAAAAACAAAAAAAAAAUAAAABAAAAAAAAAAIAAAAAAAAABAAAAAAAAAAIAAAAAAAAABAAAAAAAAAA3T4AAAEAAAD//xAA
        zT4AAAEAAABWc3RXAAAACAAAAAEAAAAAQ2NuSwAAPrVGQkNoAAAAAlB0OHEACAQBAAAAAAAAAAAAAAAAAAAAAAAAAAAAAAAAAAAAAAAAAAAAAAAAAAAAAAAAAAAAAAAA
        AAAAAAAAAAAAAAAAAAAAAAAAAAAAAAAAAAAAAAAAAAAAAAAAAAAAAAAAAAAAAAAAAAAAAAAAAAAAAAAAAAAAAAAAAAAAAAAAAAAAAAAAAAAAAAAAAAA+HaCYE/4CAAAA
        SDgSANE9AAABAAAAEThWOMU9AABQclZLKQAAAlhGVFC1PQAACgAAADIwMjUvMDMvMTcXAAAAUGlhbm90ZXEgOC40LjEvMjAyNTAyMDQrAHClhTh58KIlJ4nP09H6ZGxs
        YXQ9AAB0ZHRNOgYAABwAAABIQiBTdGVpbndheSBEIEZlbHQgSUkgKGNvcHkpCgAAAE15IFByZXNldHMHAAAATW9kYXJ0dDMAAABGZWx0IHBpYW5vIHByZXNldCB2YXJp
        YW50IChyZXZlcnNlZCBDZWxlc3RlIHBlZGFsKS4AAAAARAEAABUAAABIQiBTdGVpbndheSBEIEZlbHQgSUkAAAAAoQUAAEdSVVUAAAAGAAAAAQPATVRyawAABYsA/wIl
        UGlldCBEZSBSaWRkZXIgLSBGZWx0IHBpYW5vIG1pbmkgZGVtb4NgkEMpgQ41JRxFOYEsTEaCF7BAAhNAAHZAf4g5kDwwgRlFACZDAIxDPAAJNQCCP0VIgXRMAIZbSE9s
        RQCGHjg5JEgAgRc/LT5CJWdGJDewQABlkEk/gzywQH+GAZBOM2NJAChGAIQbQgCBOU4Agj9JO4FmSQCEFz8AfjgAg1ZGRoU9RgCDXzI1gV45MD9AMC2wQAAwkEM6gQpH
        OoMHsEAMFEB/hVWQQAATRwAJQwCBF0w/gntMAIVPRzEJNikDQzCFM0MAgltHAIYxRTuBXjIANTkAgSo2AIJ2RQCGd7BAAEiQOisNMzIGQzQJPjKDHLBABhRAAHRAf4Uj
        kDcoYzoACjMAUDcAiHk/LYZ3PwCGZjMgiwczAIEPPgBqQwCULzktgWdAQhxDPCawQABBkEctgQ5KT4F6sEAiEkB/gyGQSgAjQwAKRwCDeU9MiQlORBxPAIsaT0BrOQAm
        QAASTgCFT08AgTw6HoI4QDAtTSsJSi8ARTYAsEAAhDVAf4k2kFE+SE0AgjtKAIMLQAAJRQCEJEo5AD40igA+AC06AINERTWEJlEALUoASEUAhh1DNH5GOho8JgowNTew
        QABAkEtPALBAHBRAAIJCQH+DB5AwAIIYPABYTUpQSwBVRgAsQwBYTQCGZLBAAGqQPzADNS0ASjEJRTkAQTSEI7BAf4MRkD8Agg1FAIIEOTsAQQAsNQAjSgCHIkhGgVQ5
        AB1IAIc9Pi8GLi8AOi0DQDRjsEAAhBxADBNAf4U8kEEld0AAhG1BAD8+AIRhRTCFFUUAhQFKJIQuSgCKCU0lWVYmklwuAIExOgCLElYAgyRVPIRSVkBjVQBATQCCJlYA
        akI1gURJJiSwQACBJZBVQANMQ4IIsEAcE0AAY0B/hUOQUUQ/TAAKVQBIUQCFG0VDJE5ESUIALUkAgiFFAIJqUUxaTgCCJFEAg1awQABikEQiAEgqHVA4AEEvgx2wQH+F
        QJBULj9QAIIDVACGWlAoCksmiT1QAFlIAABLAABBAIEyRAAjVEOEC1QAgyo0HoFdSjEKOyQusEAALZBAJglPO4EYUzxJsEAMCUAAZ0B/gkyQNAAaOwBATwAaQAAsSgAK
        UwCDRE84gV5PAIRPQDQEQzUTTD6EP0wAhSJKRIIYQwCBF0AAgQ9KAIUiOjSBND01fEEtCrBAACOQRDMASTKDX7BAf4VMkE0gQEQAQEkAgwg6AHxBAGI9ADVNAIQwSC8J
        Qy0APCMTOS0JsEAAg2BAf4c/kE0tgRhDABxIACM8AAo5AIJRTQCHP7BAAAGQRzIDTDEEOycDQS0KOCmDZLBAFhNAf41VkEwALkEAKUcAgUVBPoEiR0yBHkpshkU4AIFo
        OwAJTE1lSgCCOEcALUwAgQ43NkhBAGs6O4EsPkKBCrBAAFCQSDgSRUYJsEAGCkAAg3BAf4MBkEo8LUgAd0UAgShKAIVxQTAARjktsEAAZ0ASE0AGE0AAgRtABgpAAHlA
        f4NYkD4AgRc3ABM6AIEOQxxJQQBGRgCEA0MAggoxQoFXsEAAHJA4LTxHLARBLAtEMYJYsEAYEkAAI0AGCkAAfkB/hXGQMQAcRwAcQQAaRAB2OACDPDA2gV6wQAAJkDof
        QEIdC0UnHD4mg2SwQH+HIpAwAGI+ABw6ABxCACNFAIsmNSiBVLBAABqQSiYAPykLQysARyyCZbBAf4E5kEMAJEcAWUoAhmZPKgBWOYRkUzU3VgCBXk8AP1MAgnVbKoFM
        WwCFT18rhgVWMQpfAIZnUysJVgCQHE8bi2hTAC5PABw/AD41AI1ksEAAUEA0FEAAE0ABEkAAgSpAARNAABJABhNAAAD/LwBQcnNVKjcAAEkAAAACAAAAZDQAAAAAGgAA
        AEdyYW5kIFN0ZWlud2F5IEQgKEhhbWJ1cmcpAAAAAAAAAABwcm9tZgAAAAEAAAABAAAAAQAAAAIAAABkNAAAAAAaAAAAR3JhbmQgU3RlaW53YXkgRCAoSGFtYnVyZykA
        AIA/BgAAAAAAAAAAAAAAAAAAAAAAAAAAAAAAVEb/////AAAAAAAAAAAAAAAAAAAAAHJ5YWwQAAAAAgAAAAAAAAAAAAAA/////29sb3MRAAAAAQAAAAEAAABGAAAAAAAA
        AAABAAAAAQAAAAAAAAAAAAAAAQAAAAAAAAAAAAAAAQAAAAAAAAAAAAAAAQAAAAAAAAAAAAAAAQAAAAAAAAAAAAAAAQAAAAAAAAAAAAAAAQAAAAAAAAAAAAAAAQAAAAAA
        AAAAAAAAAQAAAAAAAAAAAAAAAABAQAOAAABgaQAAAAAAEEEAAIA/aQAAANTOc8BoUuSgwPC8RsDjN4rAFMw+wJSBYMBG1QzAnOz+v1A1AsDWiYvAQE4gwGz56L+S/hzA
        1M9owM4ikcCQw5jAkn/JwELPncAE3RPA6LpJwPTwG8B8zyjAhF4dwMjB7r/kDcHA4J0PwET+HcBAody9AG5twNTiS8CAGLi/UMTVvhBYhL6g6Jk+YLqkwNpUnsBMbQvA
        IJhKv3xuXMAsYxDAAMhzwGA4Xr9MlZS/QJLVvzxHm79Mp8k/0FzNvii8a79kRAlAFNmzP/iffD98pe+/wK2oPiiqF8D4pQLAqIkMwOD0mr4guf2+WEkUv7yV879Q/5A/
        kOn8PmTEY8CchcW/AAB5Py5QAcAYBKW/xlwXwDK5i8BIgwk/QPHJPYRyvr80a1nA7Evkv4SUWcDk2KzA2D0hv4BVA72YvTK/XGdNwGi8ScBAaK3AnH/zv8BCHT+A7vQ9
        KNiEv6BEmb4G9hLAvIWHvxzezz8UGbk//LJJQKwyVECu8itAHkQnQKDZoj8gy3Y+gP/vvui5ED/AjEU+AJAgPSyCJsAoMTXAPF6rwL+8nMADAAAAAQAAAAAAAAAAAAAA
        AwAAAAAAAAAAAAAAAAAAAAMAAAAAAAAAAAAAAAAAAAADAAAAAQAAAAEAAAABAAAAhhWAPwAAAAABAAAAAADIwtx/Ij4DgAAAYGkAAAAAABBBAACAP2kAAABhpkk/jdMz
        TD+DCNJOP4KkgVE/D1lDVD/fF1c/+f9ZP3j8XD8zDmA/EDZjPwF1Zj8IzGk/EDZjP3j8XD9ZQ1Q/+f9ZPzMOYD8QNmM/AXVmPwF1Zj8CCMxpPzY8bT82PG0/AqjGcD+V
        bHQ/lWx0PwI8L3g/+Q98P/kPfD8NHQiAP706hD/rboY/ObaIPzuCjT8hCZA/jKeSP8xelT+GHZs/JCieP+dRoT+4nKQ/pgqoP6YKqD8N8J2rPwZZrz+PPrM/cFG3PysM
        wD9Mu8Q/YabJPwjSzj9ZQ9Q/+f/ZPzMO4D8BdeY/NjztPzY87T8BlWz0P5Vs9D8B+Q/8P/kP/D+CwhgCQIPrbgZAkwEAAAAAAAAAAAAAAAAAoMAAAKBAAAAAQwAAAAAD
        gAAAUAAAcEIBAAAAAAAAAAAAAAAAAMjCAADIwgEAAAABAAAAAAAAAHCeGcHQp79AAAAAAAOAAABgAgAAAAAAqEEAAK5CAgAAAAAAAACBA4AAAGACAAAAAACoQQAArkIC
        AAAAAACAP4GAAAAAMzMzP9IEAAAAAAAAAAAAAAAAAIAAAAA/ZmZmPwOAAABgWAAAAAAAqEEAAIA/WAAAALjBAkFXIOAEQRi0FUGgmhNBGHQqQTg2FkHIuhBBGNIPQWD0
        EEEISgdB8E78QIhtD0HgLQlBOL4WQfhcFEFwGwZBCJgGQVAeJ0FYyQNBuLAMQchSAUGYlxFBINXjQFiyD0FQx/5AwAQCQWAf3UCgvAlB0F/jQDAF00Bg5vpA8PXkQIBb
        zUAAE/tAoMfuQIBx6kAAwuZA4N7SQKAO2EDAichAkPHLQOCUx0Cg8NdAYE/jQCCj2EBACsdAsFjGQNCR30CQ8MtAAJvYQMBUxkDA3dxAUD7LQEDx3ECQvtxAICX1QICi
        z0CgeulAoPPPQEBl3EBgg+NAsHnXQMCG2UBQ0OxA0ObIQFAK0UAQ79VAoPfXQBDLwEBAcdNAwFzfQGARuEDwdq9AgHnqQNDQ1kDQHMxA4IfkQDAK5kCARq1AQKvfQMBz
        wEDQTtpAoOzQQOAUxUDgbsZAwPjaQPDo3UDA+e1AA4AAAGBYAAAAAACoQQAAgD9YAAAAiFmFv1cAx269QNIEwBjli7+QjmM/kL9eP7Dj7D9Aby2+gK5Cvhjr5D9YDIDB
        MEc+P6jmo7/whRPAEGYrPxCqJD8w2c4/lI2dwSAIDz8gXPG+UKcAv6ByxL9gaRG/gBrNv6Ck0b9AsqY+IGOTPmDHa8EAwpo/kIDqv7gYkD845lzBAEkcPXh1AMAgUXI/
        oD1mPwAvGL6YT07BgKx8vkT9EsB4GRvBoLfLvgDU5b5Ixr3BABYNvwyJJsBwQMXA8Ao0vzg1cMBAznDBCFQtwSCpzcBIlDzAAPjqOwgfx8FQR0XAXAwIwAgfx8EAEFa+
        CB/HwWRsUsBI1hTA2ZaLwCBQ18FALd2+1EvKwRbrj8A/6pDAEITHv1i3usGYbGfACFXSv4TZKsCAwK7BrAwuwJgj37+wJ0S/jHVywGzsqMEMKXXAYMdZv5C/Xr+g43jA
        dA16wMAte8DkRDzAPFN9wCRZfsADgAAAYAIAAAAAAKhBAACuQgIAAAAAAIA/gQIAAAABAAAAVQAAAEVxdWFsIHRlbXBlcmFtZW50ClRoZSBzdGFuZGFyZCB0dW5pbmcs
        IHdoZXJlIHRoZSBvY3RhdmUgaXMgZGl2aWRlZCBpbiAxMiBlcXVhbCBzdGVwcy4MAAAAAADIQgAASEMAAJZDAADIQwAA+kMAABZEAAAvRAAASEQAAGFEAAB6RACAiUQA
        AJZEAQAAAAAAAAAEAAAAAADcQzwAAABFAAAARgAAAAB/AAAAAAAAAAcAAABEZWZhdWx0AAAAAAAAAAACAAAAA4AAAGBpAAAAAAAQQQAAgD9pAAAA4hQ3wgnXfhzCrCb6
        weYl3cG05dXBR8+swZ65oMFOjojBKHBNwTjFQ8E4xUPBgYQZHcFXyIXZwMgxDcHg2s/AUNmVwMA0ocCAjrnAYKEewHAFS8AAXPu/GPiNwHAFS8BI+ZjAgIMCwIBOw8Ag
        y8m/QHSjvwAkyb9AcTDAABFMPyCeor8gSrk/oMlwwGAdjD+wb0/AwByiP0AHW8DAswlAgOUTwADalj3ASYA/gACOvgAUZL7AplY/QEOrv0BchL8AtAxAwN8WwKAw178Q
        yB1AAB5LP4Cv5r+AEAs/AD42v5D3L8AAkG0+gD2TPwAg279ADaNAUJ4vwACcqz2A2/O/gBk4QACAfUBQHgDAQHw5QKA54L9gYsm/AICTOkDslz/AECPAQMzGv4D14b8A
        03k/oBzCv4AumD7AP6w/UOY+QICCR78wGRXA4DDYv0C8jz+gXk9AAFnJv4Bp9j8AmFq/wM1zv7BcFcDgtPS/sAkoQADKGz+g6FVAILUXQECGrT/g4Ma/8LsXwEAEOr/g
        wbK/4MGyv4QAAAAAAAAAAAAAgD8BAAAAAQAAAAEAAAAfAAAAA4AAAEgBAAAAAACAPwAAAAAM9Nw/A4AAAGBYAAAAAACoQQAAgD9YAAAAAAAAAI8K+pc/AQAAAAAAAAAA
        AmVIkj8AAAAAAAAAAEKNaZA/AAAAAHYqRDoW/Qw8wSqUP93SST1edZc9THKcPf7mmT+XzSs++al+PsEqlD804dE+ztkCPxmAHT97LUQ/BBJzPzSYbT9nYnE/h1QaP18U
        FT84Z2I/T8w1P4pSXj8HLPE+bf/WPtZCzT5rPFs/c9MUPik0Iz8Kj5o+TL+lPw1ICj/BKpQ/7tmyPtY8uT5wMlY+r7cnPfq49z70xkU+eb2OP09MOz5qSr8+v4+OP1ro
        jT8QYmI+1WHKPQCEjz8LNYo/XQ8JP7TEgT7ffCQ+jUvJO3kNuzxrT1k/N6o9PtvkRz5N8Ts/J5gmPmBTbz+TIzk/gms1PuJIHz4IBTo+6mVHP7Z/bzwDgAAAYAIAAAAA
        AKhBAACuQgIAAAAAAIA/gQOAAAAABgAAAAAA9UIAAHpDAADrQwDAj0QAABtFAPCHRQMAAAAEAAAAAQAAAAIAAAAGAAAABQAAAAYAAAAzM0PBBQAAwMAAAGDAAAAwQZqZ
        KUEAAEDAA4AAAGACAAAAAIBtRAAAIEQCAAAAheuRPgHXo3A+AAAAAAOAAABQAABwQgEAAAAAAAAAAACAPwOAAABQAABwQgEAAAAAAAAAAQAAAAAAAAAAAAAAzczMvc3M
        zD0BAAAAAAAAAAAAAAAAAAC/AAAAPwAAgD8DgAAAQAMAAAAAAKhBAABwQgAA2EIDAAAAAACAP4IAAAAAA4AAAGACAAAAAACoQQAArkICAAAAAAAAAIEAAIA/A4AAAGAC
        AAAAAACoQQAArkICAAAAAACAP4EAADRCA4AAAEAPAAAAAACoQQAA0EEAAPhBAAAQQgAAQEIAAHBCAACQQgAAqEIAALRCAADAQgAAyEIAANBCAADUQgAA1kIAANhCDwAA
        AAAAgMAEAABAwAAAAMAAAIC/AAAAAAAAAACBAAAAQAcAAIBAAADAQAAAIEEAAIBBAACgQQAAyEEAAABCAACAPwOAAABAAwAAAAAAqEEAAHBCAADYQgMAAAAAAIA/ggOA
        AABABQAAAAAA8EIAAHpDAAB6RAAAyEQAwChFBQAAAAAAAMABAAAAAAAAAAACAADAvwAAwMABAAAAA4AAACACAAAAAAAAAHe7XT8BAAAAAwAAAAIAAAAAAAAAAf5+Pz8D
        gAAAYAIAAAAAAAAAAACAPwIAAAAAAIA/gQOAAABABAAAAAAAAAAmk0k+/n4/PwAAgD8EAAAAAAAAAIEAAIA/gQOAAABgAgAAAAAAAAAAAIA/AgAAAAAAAACBAAAAAM3M
        TD4AAAAAAAAAAAAAgD+amRk/AAAAAM3MLEADgAAAYAIAAAAAAKhBAACuQgIAAAAAAIA/gQAAgL8AAAA/A4AAAGACAAAAAADAQQAAkEICAAAAAACAP4EBAAAAAAAAAAEA
        AAAKAAAAU21hbGwgSGFsbAsAAABtZWRpdW1oYWxsMQAAQMAAAJBBAACAPwAAgD8AAAAAj8J1PQAAwMDNzEw+AAAAAJqZiUBeMdtDAACAPwAAgD8BAAAABgAAAJmZmT8A
        AEBAA4AAAGBYAAAAAACoQQAAgD9YAAAA53KBP1eJD3w/kNZ1P5p0aj8UTH0/92p9P6+thT8IBII/CjdnP6WPhj/69HI/94aKP/KtfT9nzHY/w3ZuP77hij82eoU/1RBo
        P5CuhD+CT4c/5A52PyJQij9u44Y/h4OIP/ZBhz/0120/4YWLP4CUcj85W3s/LIqLPyasiD/uJWU/w0uLP6Nobz84KnA/njBPP+4lZT/bZYQ/PzFnPxpuhT9t1Gk/xyaB
        Pxh0dD/UdHE/OC9aP1iGbD+oTHI/asdkP8Q/dT+wnXo/I5p3P/6QgD9b+nc/3+GFP6pvbT9i2WA/trZtP9TqYT+Hs3k/91aBP4EUcD/6c2I/HBKHP5LAaz+c54c/YPmF
        P2nBcT9U1HA/tMqCP+vNhz9u3Yc/PaKIP8q6az8fVoE/FBV9P0twaj82F20/mUV0P6O+fz+0O4o/ei17P+6NjD/INnU/pjRnPxXCfj/Vaok/lPFrP1EAbj8DgAAAYGkA
        AAAAABBBAACAP2kAAABhTWo/AyUdaD+QO3w/p72CP6e9gj9kZ5OBPznzeT/r72U/bJ5hP51rdT8583k/F/BwP09Qcz8jglo/BsKHP9tGhT/JFYw/62piP7JzgD+DhYs/
        DVeRP5wLYT8fInw/DYZ6P0AmcD8v9YU/ydKBPxBsfT/ByYo/fESDP+huaT/473k/t6tzP70Kkz9PAo8/Q558PwRYaT8m+Ig/YsSDPx9sdT+6bIQ/j2FfP8HEfj8DQ4Q/
        cFxpPwlNlT8jyYA/TDODP5O8gj/VLoQ/4VR+Pxtghz/MKnc/BTeFP9fkgT+rzV4/L26SP8CNYz8xCGs/2NZlP8mvkD+YLYQ/11R/P0lAhT+FSYg/UseHP7vcfT9M+mw/
        qX6NP5PXjT/MKGg/O5BXP6sxVz8x24k/5yOVPxN3hj95a3g/TvuEP5ePdj+RBn0/SVp5P6vZij/HcHc/U36EP4FMaz+0PHI/skiNPyvYdT/IunE/zdiJP7sZeD838I0/
        iMFxP5D4iD8dknQ/61t+P63ziD+bg4Q/+2+JP8eniD+hRow/x6eIP2zpgz+LRYY/x6eIPwAAAAADgAAAYFgAAAAAAKhBAACAP1gAAACV6Yq+N+Uu6j2c4oC+XRAcvidY
        VT7mo1W+bOuHPmIdkr5LupQ+nyyZviK0QT6WXD6+oqHnvSLBdj0FwXE+w/2kPcz/Zr6MO1a+qYdzvj4rDr5VQa69rn54Pdy/Bz5tN3Y+uIxCvisUqz0FhYS97vkmvqRs
        RD0OdXy+El3jvUbulb7UTyu+RlDAvXJDj75+16i7XaDoPQikjT1mQui7XOdfvXAOIL2+53M+N+y2vX6Ks705VxI+h/wUPr66ar7JXTa+kVCUPixFubzxFuM8QjdcPslH
        aL4wW3a9fNiWPrCqKr2wqiq9H6hS3jtRnJU+smtXPQdH0z4fDrg+RezIPrD/jj5L1jC9d4PNPobplD6rdJ8+qauvPUWU9D6gVXs982mlPnY+4D6JAsY+CECjPTjH6z5i
        AVc9E2TjPqcgxD7R02y9jKXHPvUWRD5SxRw++71OPulH4LzBb38+Tb0lvXCx2T4BAAAAAQAAAAEAAAADAAA/LZaIQAMAAACfBnE/rUJxP6CnqD8DgAAAYGkAAAAAABBB
        AACAP2kAAADHXVI/aHuFQT+VlEg/10JMP3UYRz8jq0Y/4vJMP1yqTj+vlEE/x8JHP7ScUj/YiT0/jTBOP1cnPT+QWlY/h/ZLPzkETj/ViE8/vsVLP2UETD9wuEU/86RD
        PyPDPz+gtko/oE9LPylvSj+EzUQ/yRZCP3F2TT/kHFw//ZNNPymoVT//Alc/DqxdP5zVYj/MXWM/xr5PP8lrYT82mGo/cElpP8X0Vj/qonA/3HhhPyXLbT9/FXA/VE9w
        P+fXfj9VmXs/Gpp9P5nkfD+v64M/EVqDP1s0hT8i6YM/52N2PzpAhz/zJW0/w5OIP7BUeD+wdIA/EtKBP8Daez9CcYA/EcV2P19ocj+9Zng/7LFzP5eDhz/kFmw/mtSF
        P3vqdD99YoM/cQGDP/oOiD9eR4c/J7KCP9WRfz9Hin0/o2eBP8Bmgj9Z93o/spiCP+vXfD8VAYE/eph3P82kdz8ijoE/ef6BP2zFdz+8YII/aEiCPww4gD+HoYQ/tyCC
        PzCBej8Q9oI/GvGEP7WqeT/3tIU/XjR9Pznxdj/bDHg/WYZ+P06PgD8bQ4A/A4AAAEADAAAAAACoQQAAcEIAANhCAwAAAAAAgD+CA4AAAEADAAAAAACoQQAAcEIAANhC
        AwAAAAAAgD+CAACAPwAAgD8HAAAAX2YdP8bERD5drN8+KyoqP5qZmT4IAAAAAAAAAAAAAAAAAAAAAAAAAAAAAAAAAAAAAAAAAAAAAAADgAAAYGkAAAAAABBBAACAP2kA
        AACC27E/aP9Xyj+BO58/scWzP2vYlD9egqA/XvyBP+vSbT8pzWY/Ku6TP93iZT+KTEs/gnlNP4ZYcD+B3pc/7earPxvkvj9OOJ0/whtfP3AJeT8VjG4/znN5P7IydT/L
        gmc/Cxm8PyEFhz/S9YI/4zM+P/XHjT9l5pY/xmdxPwfEVD8VvEI/obM8P4Ipcz8MJaM/s9VRPz5UND9pnYM/XeJqPwRGkD+JDUw/oZOKP3VifT/RW3M/LTcsPyAshD+d
        EHM/h14sP1uYPj+dAVU/yB2bP0pCcT9NH6U/9AemP2fHoj9Dr3U/Mt91P4a9cD+e/Ys/5kNEP1bxUj/mwJ8/smWBPzQ6NT87a4c/6d12P6kbhD/UxI4/pFdaP+oWZz8a
        k4E/fh+jPzbNfz91E6E/gWa7PxXdYj/6uVU/TKNwP6hBqT/4k7E/w0PmPyOpqD822IQ/stCTPz2nrT+QDKc/3KjhP9Svwj+DQnk/nAmNP9kRcD80w2g/ruV4P9E1bj+7
        ToI/hvCEP80RiD9SXmc/b/laP55GXj/ESos/SjSLP9uvrT9z0aM/A4AAAGBpAAAAAAAQQQAAgD9pAAAARpR2PwL8AHA/KnByPypwcj+YjnRyP0zyeHI/Vn1yP6qBcj8O
        hnI/copyP9aOcj86k3I/npdyPwKccj9moHI/yqRyPy6pcj+CrXI/5rFyP0q2cj+uunI/Er9yP3bDcj/ax3I/PsxyP6LQcj8G1XI/WtlyP4LIcj+Zt3I/wqZyP9mVcj8B
        hXI/KnRyP0Fjcj9pUnI/gUFyP6kwcj/BH3I/6Q5yPwD+cT8p7XE/QNxxP2jLcT+AunE/qKlxP9CYcT/oh3E/EHdxPydmcT9QVXE/Z0RxP48zcT+nInE/zxFxP+cAcT8P
        8HA/N99wP0/OcD93vXA/jqxwP7ebcD/OinA/9nlwPw5pcD82WHA/XkdwP3Y2cD+eJXA/thRwP94DcD/18m8/HuJvPzXRbz9dwG8/da9vP52ebz+1jW8/3XxvPwVsbz8d
        W28/A4AAAEADAAAAAACoQQAAcEIAANhCAwAAAAAAgD+CA4AAAGBpAAAAAAAQQQAAgD9pAAAASGyAP0E+qIA/fdd/P+zWfz8EJ4A/3eV/P778fz8HJ4A/Ys+APxepgD9t
        j4A/D5SAP+30gD/XCYE/TS+AP412fz8XZoA/YEGAP6QNgD+7Hn8/o85+P5WWfz8MhIA/GsyAP/GFgD9DNIA/61+AP/WMfz87C4A/lJB+P/wtfz8vGYA/pGJ/P10Wfz9A
        dn8/bRWAPwD/fz/KBYA/Fi6AP41MgD8WZH8/W4l/P8gRgD87YoA/xp6AP43yfz/xUX8/ihOAP39lfz+0t34/dEx/Pw1Mfz/WYn8/CVGAP49XgD+tiIA/GdJ/P3cQfz9d
        V38/khuAP2OUfz9/HYA/vQyAP9vXfz/fWX8/i694P4uveD8mt217P3TzfD8k/nw//Jh9P+2MfT+KhXk/9RJ8P4saeT+MRHg/jW53P48tdj+R7HQ/khZ0P7Ptcz+linI/
        c0hwP82bbj/HJ20/bJ1sP+90az8D1Go/6C5qP6dlaz9NUmw/sShsP2cobD8/BWs/HxprPyAeaz/TsWo/bsZqP8Xnaj+no2o/y4hpP0zLaT+5oWo/fxlrP6hhaz8BAAAA
        aQAAAAAAEEEDgAAAYAwBAAAAAAAAAACAPwwBAAAAAAAA/wAAAAD/AAAAAIsAACBBA4AAAGACAQAAAAAAAAAAgD8CAQAAAAAAAP8AAAAA/wAAAACBAAAwQQOAAABg+AAA
        AAAAAAAAAIA/+AAAAAAAAAD/AAAAAPcAAEBBA4AAAGDvAAAAAAAAAAAAgD/vAAAAAAAAAP8AAAAA7gAAUEEDgAAAYOsAAAAAAAAAAACAP+sAAAAAAAAA/wAAAADqAABg
        QQOAAABg4wAAAAAAAAAAAIA/4wAAAAAAAAD/AAAAAOIAAHBBA4AAAGDZAAAAAAAAAAAAgD/ZAAAAAAAAAP8AAAAA2AAAgEEDgAAAYNMAAAAAAAAAAACAP9MAAAAAAAAA
        /wAAAADSAACIQQOAAABg0AAAAAAAAAAAAIA/0AAAAAAAAAD/AAAAAM8AAJBBA4AAAGDOAAAAAAAAAAAAgD/OAAAAAAAAAP8AAAAAzQAAmEEDgAAAYMsAAAAAAAAAAACA
        P8sAAAAAAAAA/wAAAADKAACgQQOAAABgyQAAAAAAAAAAAIA/yQAAAAAAAAD/AAAAAMgAAKhBA4AAAGDiAAAAAAAAAAAAgD/iAAAAAAAAAP8AAAAA4QAAsEEDgAAAYNoA
        AAAAAAAAAACAP9oAAAAAAAAAiAAAoMABAAAAAAAAAAD/AAAAAM4AALhBA4AAAGDRAAAAAAAAAAAAgD/RAAAAAAAAAP8AAAAA0AAAwEEDgAAAYPwAAAAAAAAAAACAP/wA
        AAAAAAAA/wAAAAD7AADIQQOAAABg6AAAAAAAAAAAAIA/6AAAAAAAAAD/AAAAAOcAANBBA4AAAGDZAAAAAAAAAAAAgD/ZAAAAAAAAAIkAAKDAAQAAAAAAAAAA/wAAAADM
        AADYQQOAAABgyQAAAAAAAAAAAIA/yQAAAAAAAAD/AAAAAMgAAOBBA4AAAGDbAAAAAAAAAAAAgD/bAAAAAAAAAIUAAEDAAQAAAAAAAAAA/wAAAADSAADoQQOAAABg5gAA
        AAAAAAAAAIA/5gAAAAAAAAD/AAAAAOUAAPBBA4AAAGDWAAAAAAAAAAAAgD/WAAAAAAAAAP8AAAAA1QAA+EEDgAAAYMoAAAAAAAAAAACAP8oAAAAAAAAAhAAAIMABAAAA
        AAAAAAD/AAAAAMIAAABCA4AAAGDDAAAAAAAAAAAAgD/DAAAAAAAAAAIAAIDAAAAAAAAAAAD/AAAAAL8AAARCA4AAAGDMAAAAAAAAAAAAgD/MAAAAAAAAAAIAAADAAAAA
        AAAAAACCAABAwAEAAAAAAAAAAIMAAIDAAQAAAAAAAAAA/wAAAAC9AAAIQgOAAABg0gAAAAAAAAAAAIA/0gAAAAAAAAAFAAAAwAAAgD8AAEBAAAAgwQAAAAAAAAAA/wAA
        AADLAAAMQgOAAABgxgAAAAAAAAAAAIA/xgAAAAAAAAACAACAwAAAAAAAAAAAAgAAgMAAAAAAAAAAALgAAEDAAQAAAAAAAAAA/wAAAACEAAAQQgOAAABgxAAAAAAAAAAA
        AIA/xAAAAAAAQMAEAACgwAAAAMAAAAAAAABAwAAAQMACAACAPwAAAAAAAAAAgwAAQMABAAAAAAAAAAD/AAAAALUAABRCA4AAAGDEAAAAAAAAAAAAgD/EAAAAAAAAAP8A
        AAAAwwAAGEIDgAAAYMQAAAAAAAAAAACAP8QAAAAAAIA/BAAAAEAAAADAAABAwAAAAAAAAAAA/wAAAAC+AAAcQgOAAABgqwAAAAAAAAAAAIA/qwAAAAAAAAACAAAAwAAA
        AEAAAABAAgAAQMAAAAAAAAAAAP8AAAAApAAAIEIDgAAAYKsAAAAAAAAAAACAP6sAAAAAAEBAAgAAwD8AAEBAAABAQAMAAMA/AABAwAAAAAAAAAAA/wAAAACjAAAkQgOA
        AABgqwAAAAAAAAAAAIA/qwAAAAAAAAD/AAAAAKoAAChCA4AAAGCTAAAAAAAAAAAAgD+TAAAAAAAAwAQAAABAAAAAAAAAAEAAAAAAAAAAAP8AAAAAjQAALEIDgAAAYJMA
        AAAAAAAAAACAP5MAAAAAAADAAwAAAAAAAKDAAAAAAAAAAACBAABAwAEAAAAAAAAAAP8AAAAAigAAMEIDgAAAYJMAAAAAAAAAAACAP5MAAAAAAIDAAwAAAMAAAIDAAAAA
        AAAAAAD/AAAAAI4AADRCA4AAAGCAAAAAAAAAAAAAgD+AAAAAAABAwAMAAIC/AACAPwAAAEAAAABAgQAAwD8CAAAAAAAAQMAAAEDAAQAAAAAAAAAAhQAAoMABAAAAAAAA
        AACBAABAwAEAAAAAAAAAAOgAADhCA4AAAGCAAAAAAAAAAAAAgD+AAAAAAAAAwAIAAABAAAAAAAAAAAD8AAA8QgOAAABggAAAAAAAAAAAAIA/gAAAAAAAwMAFAAAAQAAA
        gL8AAIA/AAAAwAAAAAAAAAAAhwAAwL8BAAAAAAAAAACXAABAwIEAAAAA1QAAQEIDgAAAYGwAAAAAAAAAAACAP2wAAAAAAEDAAwAAAEAAAEDAAAAAAAAAAACjAABAwIEA
        AAAAwQAAREIDgAAAYGwAAAAAAAAAAACAP2wAAAAAAADAAQAAAAAAAAAAgQAAQMACAAAAwAAAAAAAAAAA5AAASEIDgAAAYGwAAAAAAAAAAACAP2wAAAAAAAAAAgAAAMAA
        AABAAAAAQAIAAAAAAAAAQAAAAECBAAAAAJIAABDBAQAAAAAAAAAAzgAATEIDgAAAYGcAAAAAAAAAAACAP2cAAAAAAAAAhAAAwL8BAABAwAAAQMAGAAAgwJqZ2b+amZm/
        AACAvzMzM78AAAAAAAAAANgAAFBCA4AAAGBXAAAAAAAAAAAAgD9XAAAAAAAAAAEAAADAAAAAwAEAAAAAAAAAAIYAAIDAAgAAQEAAAAAAAAAAAMgAAFRCA4AAAGBXAAAA
        AAAAAAAAgD9XAAAAAAAAAIEAACBABQAAoMAAACDAAAAAAAAAAMAAAAAAAAAAAM4AAFhCA4AAAGBWAAAAAAAAAAAAgD9WAAAAAAAAwAIAAIC/AAAAAAAAAACGAABAwAMA
        AAAAAACAwAAAAAAAAAAAxwAAXEIDgAAAYEkAAAAAAAAAAACAP0kAAAAAAAAABAAAAMAAAEBAAABAwAAAAAAAAAAAAgAAgL8AAAAAAAAAAIMAAADAggAAAACJAACAwIEA
        AAAAiTMzM8CBAAAAAKEAAGBCA4AAAGBJAAAAAAAAAAAAgD9JAAAAAAAAAAMAAADAAACAvwAAAAAAAAAAgQAAAMABAAAAAAAAAAACAACAvwAAAAAAAAAAAgAAAMAAAAAA
        AAAAALoAAGRCA4AAAGBIAAAAAAAAAAAAgD9IAAAAAAAAAAYAAIBAAAAAQAAAgD8AAAAAAAAAQAAAgL8AAIC/BgAAAEAAAAAAAAAAwAAAAAAAAADAAAAAAAAAAAC5AABo
        QgOAAABgRQAAAAAAAAAAAIA/RQAAAAAAQEAGAACAPwAAAMAAAIC/AAAAAAAAAMAAAAAAAAAAAAUAAIA/AAAAwAAAAAAAAABAAAAAAAAAAAC3AABsQgOAAABgPwAAAAAA
        AAAAAIA/PwAAAAAAAEADAACAvwAAgD8AAAAAAAAAAAIAAEDAAAAAAAAAAACBAACAPwMAAMDAAACAPwAAAAAAAAAAsQAAcEIDgAAAYDkAAAAAAAAAAACAPzkAAAAAAAA/
        AwAAgD8AAMA/AACAvwAAgL+BAAAAAAMAAIC/AAAAwAAAQMAAAEDABgAAQEAAAAAAAABAwAAAAAAzMwPAAAAAAAAAAACnAAB0QgOAAABgOQAAAAAAAAAAAIA/OQAAAAAA
        AAACAAAAQAAAAMAAAADABAAAAEAAAAAAAAAAQAAAAAAAAAAAAgAAQMAAAAAAAAAAAAIAAEDAAAAAAAAAAACqAAB4QgOAAABgNgAAAAAAAAAAAIA/NgAAAAAAAMABAAAA
        AAAAAACzAAB8QgOAAABgMQAAAAAAAAAAAIA/MQAAAIAPyj0DyJL8PguSfD/J2p0/ydqdPwIzMzM/zcxMvs3MTL6CyJJ8vgMekny/H2u9vwAAAAAAAAAAogAAgEIDgAAA
        YDAAAAAAAAAAAACAPzAAAAAAAAAABQAAQEAAAAAAAACAvwAAgD8AAIDAAACAwAEAAAAAAAAAAAMAAMDAAAAAAAAAAMAAAADAAQAAAAAAAAAAoQAAgkIDgAAAYC4AAAAA
        AAAAAACAPy4AAAAAAAAAhAAAAEABAAAAAAAAAAACAACAvwAAAAAAAAAAAgAAAMAAAAAAAAAAAKAAAIRCA4AAAGArAAAAAAAAAAAAgD8rAAAAAAAAwAUAAIBAAAAAAAAA
        gMAAAADAAAAAAAAAAACBzcxswAEAAAAAAAAAAIEAAMDAAQAAAAAAAAAAnAAAhkIDgAAAYCcAAAAAAAAAAACAPycAAAAAAIC/AgAAAEAAAAAAAAAAAAIAAEDAAAAAwAAA
        AMAEAAAAAAAAAMAAAABAAAAAAAAAAACbAACIQgOAAABgJgAAAAAAAAAAAIA/JgAAAAAAAL8KAACAPwAAAL8AAAAAAADAvwAAIMAAAIC/AAAAAGZmZsAAAIA/AAAAAAAA
        AACaAACKQgOAAABgJAAAAAAAAAAAAIA/JAAAAAAAAACBAACAvwEAAAAAAAAAAAIAAEDAAAAAAAAAAACcAACMQgOAAABgIgAAAAAAAAAAAIA/IgAAAAAAgD+CAAAAAIEA
        AIC/AQAAAAAAAAAAmgAAjkIDgAAAYCAAAAAAAAAAAACAPyAAAAAAAAAAgwAAAEAEAAAAAAAAAEAAAIC/AAAAAAAAAACWAACQQgOAAABgHQAAAAAAAAAAAIA/HQAAAAAA
        AECBAACAQIEAAEDAAwAAAEAAAIC/AAAAAAAAAACUAACSQgOAAABgHAAAAAAAAAAAAIA/HAAAAAAAAACDAACgwAIAAADAAAAAAAAAAACUAACUQgOAAABgGwAAAAAAAAAA
        AIA/GwAAAJIkPz+CkiQ/vwEAAAAAAAAAAAK8WQ/ArOvDv6zrw78BAAAAAAAAAACQAACWQgOAAABgGQAAAAAAAAAAAIA/GQAAAAAAAACF8TLDv4IAAAAAjwAAmEIDgAAA
        YBgAAAAAAAAAAACAPxgAAAAAAIA/AwAAgL8AAAAAAAAAwAAAAMAEAACAvwAAAAAAAADAAAAAAAAAAACOAACaQgOAAABgFgAAAAAAAAAAAIA/FgAAAAAAwL8BAAAAAAAA
        AACEAABAwAEAAAAAAAAAAIwAAJxCA4AAAGAVAAAAAAAAAAAAgD8VAAAAAACAPwEAAAAAAAAAAAMAAADAAABAwAAAAAAAAAAAjgAAnkIDgAAAYBQAAAAAAAAAAACAPxQA
        AAAAAABABgAAgD8AAEDAAACAvwAAAAAAAADAAAAAAAAAAACMAACgQgOAAABgEwAAAAAAAAAAAIA/EwAAAAAAAAADAAAAQAAAgD8AAADAAAAAwAEAAAAAAAAAAIwAAKJC
        A4AAAGASAAAAAAAAAAAAgD8SAAAAAAAAPwMAAIA/AACAvwAAAAAAAAAAAQAAgL8AAIC/AQAAAAAAAAAAiQAApEIDgAAAYBEAAAAAAAAAAACAPxEAAAAAAMA/AQAAwL8A
        AMC/AQAAAAAAAAAAjAAApkIDgAAAYBAAAAAAAAAAAACAPxAAAAAxknw/gQAAAACBH2u9vwMAAAAAH2u9vwAAAAAAAAAAhwAAqEIDgAAAYA8AAAAAAAAAAACAPw8AAADS
        VgI/AYl/wz+Jf8M/BQAAAACcf8O/AAAAAJx/w78AAAAAAAAAAIYAAKpCA4AAAGAOAAAAAAAAAAAAgD8OAAAAMZJ8PwIxcYE/AAAAAAAAAAACH2u9vwAAAAAAAAAAhwAA
        rEIDgAAAYA0AAAAAAAAAAACAPw0AAAAJZoY/gQAAAAABE2aGvxNmhr8BAAAAAAAAAACGAACuQgOAAABgDAAAAAAAAAAAAIA/DAAAAAAAgD8DVXp6PwAAgL8AAADAAAAA
        wAEAAAAAAAAAAIUAALBCA4AAAGAMAAAAAAAAAAAAgD8MAAAAAAAAAINmZoa/AQAAAAAAAAAAhQAAskIDgAAAYAsAAAAAAAAAAACAPwsAAAAAAAAABAAAgL8AAADAAACA
        vwAAAAAAAAAAhQAAtEIDgAAAYAoAAAAAAAAAAACAPwoAAAAAAADAAQAAAAAAAAAAhwAAtkIDgAAAYAoAAAAAAAAAAACAPwoAAAAAAEBABAAAAEAAAADAAABAwAAAAAAA
        AAAAhAAAuEIDgAAAYAkAAAAAAAAAAACAPwkAAADRRTdABBdd9D8XXXQ/F130PgAAAAAAAAAAgwAAukIDgAAAYAkAAAAAAAAAAACAPwkAAACjiy5ABC666D8uumg/Lrro
        PgAAAAAAAAAAgwAAvEIDgAAAYAgAAAAAAAAAAACAPwgAAAB00SVABEYX3T9GF10/RhfdPgAAAAAAAAAAggAAvkIDgAAAYAgAAAAAAAAAAACAPwgAAABGFx1ABF100T9d
        dFE/XXTRPgAAAAAAAAAAggAAwEIDgAAAYAgAAAAAAAAAAACAPwgAAAAXXRRABHTRxT8AAMC/dNHFPgAAAAAAAAAAggAAwkIDgAAAYAgAAAAAAAAAAACAPwgAAADpogtA
        BIwuuj+MLjo/jC66PgAAAAAAAAAAggAAxEIDgAAAYAgAAAAAAAAAAACAPwgAAAC66AJABKOLrj+jiy4/o4uuPgAAAAAAAAAAggAAxkIDgAAAYAgAAAAAAAAAAACAPwgA
        AAAWXfQ/BLnooj+56CI/ueiiPgAAAAAAAAAAggAAyEIDgAAAYAgAAAAAAAAAAACAPwgAAAC66OI/BNJFlz/SRRc/0kWXPgAAAAAAAAAAggAAykIDgAAAYAgAAAAAAAAA
        AACAPwgAAABcdNE/BOiiiz/oogs/6KKLPgAAAAAAAAAAggAAzEIDgAAAYAgAAAAAAAAAAACAPwgAAAAAAMA/BAAAgD8AAAA/AACAPgAAAAAAAAAAggAAzkIDgAAAYAgA
        AAAAAAAAAACAPwgAAACii64/BAAAwL8tuug+LbpoPgAAAAAAAAAAggAA0EIDgAAAYAgAAAAAAAAAAACAPwgAAABFF50/BFx0UT9cdNE+XHRRPgAAAAAAAAAAggAA0kID
        gAAAYAgAAAAAAAAAAACAPwgAAADooos/BIsuOj+LLro+iy46PgAAAAAAAAAAggAA1EIDgAAAYAgAAAAAAAAAAACAPwgAAAAWXXQ/BLnoIj+56KI+uegiPgAAAAAAAAAA
        ggAA1kIDgAAAYAgAAAAAAAAAAACAPwgAAABcdFE/BOiiCz/ooos+6KILPgAAAAAAAAAAggAA2EIDgAAAYAQAAAAAAAAAAACAPwQAAACiiy4/Ay266D4tumg+LbroPQAA
        2kIDgAAAYAQAAAAAAAAAAACAPwQAAADoogs/A4suuj6LLjo+iy66PQAA3EIDgAAAYAQAAAAAAAAAAACAPwQAAABcdNE+A+iiiz7oogs+6KKLPQAA3kIDgAAAYAQAAAAA
        AAAAAACAPwQAAADooos+A4suOj6LLro9iy46PQAA4EIDgAAAYAQAAAAAAAAAAACAPwQAAADoogs+A4suuj2LLjo9iy66PAAA4kIDgAAAYAQAAAAAAAAAAACAPwQAAAAA
        AAAAgzmU1z0DgAAAQAsAAAAAAMBBAADgQQAA6EEAABxCAAAgQgAAXEIAAHBCAACQQgAAqEIAAMBCAADYQgsAAAC62po/g/qliT8GbimWP82+kT/6pYk/XMR3P5MtJT9c
        xPc+AQAAAAEAAAABAAAAiwc2P1dUsz8BAAAAAQAAAAEAAABBlTU/eJXhPwEAAAAAAAAAAQAAADMzMz9mZqY/AQAAAAAAAAABAAAAMzMzP2Zmpj8BAAAAAAAAAAEAAAAz
        MzM/ZmamPwEAAAAAAAAAAADwQgAAAAAOAAAAAAAAP83MzD3NzEw+AAAAPwMAAAAAAAAAA4AAAEgBAAAAAAAAAAAAAAADgAAASAEAAAAAAAAABAAAAAIAAAAIAAAABAAA
        AAEAAAABAAAAAACAPwAAgD8BAAAAAQAAAAEAAAABAAAAAQAAAAAAgD8AAAAAAACAQAAAtEJGAAAAAAOAAABIAQAAAAAAAAAAAAAAA4AAAEgBAAAAAAAAAAAAAAAAAAAA
        A4AAAEgBAAAAAAAAAAAAAAADAAAABwAAAAEAAAAAAAAADgAAABAAAAAAAAAAmpkZPgAAgD8AAAAAAAAAvwAAwEEAAAAAAAAAAAAAAAAAAAAAAAAAAAAAAAAAAAAAAAAA
        AAAAAAAAAAAAAwAAAAoAAAABAAAAAAAAAA4AAAAQAAAAAAAAAAAAXEMAAIC/AAAAPwAAAEAAAHpEAAAAAAAAAD8AAIA/AECcRQAAAECamRk/AABAQAAAAAAAAAAAAAAA
        AAMAAAAKAAAAAQAAAAAAAAAOAAAAEAAAAAAAAAAAAMhCAAAAAAAAgD8AAABAAECcRQAAgD+amZk+AACAPwCAO0YAAABAAAAAPwAAQEAAAAAAAAAAAAAAAAABAAAAAQAA
        AAAAgD8AAEDBAAAAAAMAAAADAAAAAAAAAAEAAAAFAAAABAAAAAEAAAADAAAAZj2KPuhROD5cj4I/sbBowhBugcAEAAAABQAAAAAAAMAAAEDBAADAwgAAwMIAAMDCBQAA
        AAAAAACPwvU8AAAAAAAAAAAAAAAABQAAAAAAAAAAAAAAAAAAAAAAAAAAAAAAAQAAAAAAAAAEAAAAAQAAAAMAAABG4Xo/6FE4PgrXoz+yh05CEG6BwAQAAAAFAAAAAABA
        wQAAAMAAAMDCAADAwgAAwMIFAAAAj8J1PFJJHToAAAAAAAAAAAAAAAAFAAAAAAAAAAAAAAAAAAAAAAAAAAAAAAABAAAAAAAAAAQAAAABAAAAAwAAAJzEQD83iQlAarzE
        P83MI0PNzCDCAwAAAAUAAAAAAHDBAABwwQAAcMIAAHDCAABwwgUAAAAAAAAAAAAAAAAAAAAAAAAAAAAAAAUAAAAAAAAAAAAAAAAAAAAAAAAAAAAAAAEAAAAAAAAABAAA
        AAAAAAADAAAA16MIQIXr4T+uR+E/zczYQgAAAAAHAAAABQAAAAAAcMIAAHDCAABwwgAAcMIAAHDCBQAAAAAAAAAAAAAAAAAAAAAAAAAAAAAABQAAAAAAAAAAAAAAAAAA
        AAAAAAAAAAAAAQAAAAAAAAAEAAAAAAAAAAMAAAC4HsU/PQpXP65H4T8AAAAAAAAAAAAAAAAFAAAAAABwwgAAcMIAAHDCAABwwgAAcMIFAAAAAAAAAAAAAAAAAAAAAAAA
        AAAAAAAFAAAAAAAAAAAAAAAAAAAAAAAAAAAAAAABAAAAAAAAAAEAAAAAAAAAAQAAAAMAAABSuB4/7FG4vmZmpj8AAJBBAAAAAAAAAAAAAAAAAQAAAAAAAAAAAAAAAAAA
        AEpVQ0VQcml2YXRlRGF0YQABAUJ5cGFzcwABAQMAHQAAAAAAAABKVUNFUHJpdmF0ZURhdGEAAAAAAAAAAA==
        AHQxABAAAAA=
      >
      PRESETNAME t1
      FLOATPOS 32 149 592 662
      FXID {B76D5FDE-A8CA-584F-8F0F-DB5EF086AAD7}
      WAK 0 0
      BYPASS 0 0 0
      <AU "AU: VCV Rack 2 FX (VCV)" "VCV: VCV Rack 2 FX" "" 1635085670 1447253574 1447253599
        6QMAAAAAAAAQAAAAAQAAAAAAAAACAAAAAAAAAAAAAAAAAAAAAAAAAAAAAAAAAAAAAAAAAAAAAAAAAAAAAAAAAAAAAAAAAAAAAAAAAAAAAAAAAAAAAAAAAAAAAAAAAAAA
        AAAAAAAAAAAAAAAAAAAAAAAAAAAAAAAAAAAAAAAAAAAAAAAAAAAAAAAAAAAQAAAAAQAAAAAAAAACAAAAAAAAAAAAAAAAAAAAAAAAAAAAAAAAAAAAAAAAAAAAAAAAAAAA
        AAAAAAAAAAAAAAAAAAAAAAAAAAAAAAAAAAAAAAAAAAAAAAAAAAAAAAAAAAAAAAAAAAAAAAAAAAAAAAAAAAAAAAAAAAAAAAAAAAAAAAAAAADoBwAAPD94bWwgdmVyc2lv
        bj0iMS4wIiBlbmNvZGluZz0iVVRGLTgiPz4KPCFET0NUWVBFIHBsaXN0IFBVQkxJQyAiLS8vQXBwbGUvL0RURCBQTElTVCAxLjAvL0VOIiAiaHR0cDovL3d3dy5hcHBs
        ZS5jb20vRFREcy9Qcm9wZXJ0eUxpc3QtMS4wLmR0ZCI+CjxwbGlzdCB2ZXJzaW9uPSIxLjAiPgo8ZGljdD4KCTxrZXk+ZGF0YTwva2V5PgoJPGRhdGE+CglLTFV2L1FC
        SVBTTUFsankwT1VCcjJBQTh4SGhnSHBnSG1WVGdGQzhBakUvTG5VMzdxYzdxeTY0MU9oK3ptY0VhZVF3MwoJT0taTlNVbEo4cmlmMzM3bW54TWdzUFJJQWFvQW5BQ3FB
        QlQ0Vng2OXREY3N1VmNELzhyRFhwVDFoaDg3cVpWMDhhODgKCTJDMXhjZnlHcFF0VmxKM3dyMnhvRFNlTTBiVnNEVUxaM2RLdEtpd2NqbFVuQ1F1Q0paN0IrYnFiTVFT
        TEIyV0Nnd2pFCglod2dHQVlCWlI2cVNuVnhxV213MFRYV1JYS2NBQUVhQU1jYUJNZGFCWFdCZ1JMQU9qREVJeHRnRnhwaGpqQTFnakVHdwoJUTNnREJuZHFCV01RVElD
        QkFHOUdWYXU2K2t5K09MdmZYb013U2psaCs0T3V1OWxqbk4zTkZnbExELy8vbFllRHZHSEsKCVRpRHE0ZjlDejFXNTRXclZoNVZIditHSFFuS3RxN0pHUjgvSXhFaVox
        elMrQjJrdjdRM2JLNm9UL245SnBlckUvKytzCglVeU9VdFNTS0N6MVhCTC9oeUQ1WHdwYTZFdnlHSllqQ0ZVMFAyWTlwTWI1dWo0R1NtVy80Z2ZqL2YyVkRaYVBydVJM
        KwoJbFlmR3IwenA1SFB0d1FZbm5mM2cwcEQvVng0TW5ZL1NwaE5TR2x1VEM0WDh2eExoRFZ1MmlrUVlQQkFWN2ZYQzlPSW8KCVcxVU9pMHRaUURJa01xaGtHczQ1NlhN
        VFB0azZHdVFOUXc4azRmOVdXRldObUduMERYTTRGbVJoVlRXQ0RwcEFFeGFjCglHem44MitkV1pJanV4UDhicmlJclNaWEQ0Zi9LZzhPNlYxTHhHN1lVcEhxQlljcVF1
        QmdVRXhRVmpiN1ltbXZaemJ6SAoJeERmOFFLeG8zSWtwYTBWUUF1ZmhEdXU2MWpWSlVJdHYyR3FBR2xod2JyVEIvNzkwTjRWdjJGcjF3a2FUcEZiOC93OGkKCUp2Z05X
        MGxkWUIxb1lnTWRDbVd0cWtxZUNqZG9helMrNlpnSTQ1dVNpZEpaR1RlNnUyZDBrSUZ4enRkUXhpYm5neHNSCgkyaWlVVGRKdWozSHRudU1OT04rTEhPQTNUTjNvT2xP
        Q0pNaTZKdXU2RkRhNm5sdGhYWk4xM1VaYnBGQkcybHErMXVKRwoJZGU1c0ZkWElHN1lpVm9GbEgxaVVuVWlRdTBLblpKZ0kyM3h0U2lrN3lxV2xwSytuNitjZ3d6RE1o
        SExwMkdCa25Pc20KCXFldnViamZoZ3pqbEllbVRNTG9wbWZnQ2dLZW9jUzB5WkdnQUJBQXdKRWlRQUpBQ0FLRWhxZ0lTWUdBWUZrdlVHSU5oCglqQUlHR1FNRUFCa0ZB
        QUlJSUlDQUpnQ0QxUUJDOUNlRVZwQ0NiOTZLb1huT01DRnFpU0VXQXRLVzZRUDdzcUxaUlVsNAoJb3hsdzBCQTdEaVVXSWRVTmlBWUFmUWxrZ1k3SmU3Qm5XK0xwT3V0
        MUFvYUJsTXZOMGt5OCtFRVFXTW5OTm8vNk5heW8KCW8zTWxZTGdEN0RMNVFrYmFhQlVCNll5VzRud0hKQk9RYnBCWFNsMEljbEFnYmlCSklzRFFRR2VIUmxhRVlRZUxv
        UFFKCglzdjIwUGxJOWdQc280eU1IWWF1Mk1pNjBIK2N6UXF1VTNuTklNRzRxQjByQUdxMUpOWHhpbWVmeHVZUEZkeVBlUmRXSgoJelROZkRDTlFHOWZBYXFsWFJZRzBH
        bXM0Q3BiQzZrMEVYb0FNVWJaa1p5aXBPOUlSSHVETnlqcjhMcVEwVnZTUkFaalkKCU0zdlhHMzhKQ2o5Vm5UK1VVTWFlbEZuR0JJU1d2eDdWQjYvNEdFeVJ5R1UxZ0Z1
        L3VaU2x1cmQwSU9DTnBNV09yY1hWCglEaURIWlFlUVE1Y3RiVUNTNXFqMlN5V0h6a09EM2Q0ZUJqQ3o3ZWhNZldQVGpiOWJUeXVHY1FxbjhCM0d1NnBTdnJFMwoJakY4
        WnBEdHZJRDBmaHZudHVFMD0KCTwvZGF0YT4KCTxrZXk+bWFudWZhY3R1cmVyPC9rZXk+Cgk8aW50ZWdlcj4xNDQ3MjUzNTk5PC9pbnRlZ2VyPgoJPGtleT5uYW1lPC9r
        ZXk+Cgk8c3RyaW5nPlZDVlJhY2s8L3N0cmluZz4KCTxrZXk+c3VidHlwZTwva2V5PgoJPGludGVnZXI+MTQ0NzI1MzU3NDwvaW50ZWdlcj4KCTxrZXk+dHlwZTwva2V5
        PgoJPGludGVnZXI+MTYzNTA4NTY3MDwvaW50ZWdlcj4KCTxrZXk+dmVyc2lvbjwva2V5PgoJPGludGVnZXI+MTwvaW50ZWdlcj4KPC9kaWN0Pgo8L3BsaXN0PgoBAAAA
        AAAAAAAA
      >
      FLOATPOS 0 0 0 0
      FXID {5CF094C6-B0B3-8540-ADA2-6988E546D20D}
      WAK 0 0
    >
  >
  <TRACK {14243C7B-D387-124E-9C74-CC85789D3829}
    NAME "Pianoteq 8"
    PEAKCOL 16576
    BEAT -1
    AUTOMODE 0
    PANLAWFLAGS 3
    VOLPAN 0.14779046790359 1 -1 -1 1
    MUTESOLO 0 0 0
    IPHASE 0
    PLAYOFFS 0 1
    ISBUS 0 0
    BUSCOMP 0 0 0 0 0
    SHOWINMIX 1 0.6667 0.5 1 0.5 0 0 0
    FIXEDLANES 9 0 0 0 0
    SEL 0
    REC 1 5088 1 0 0 0 0 0
    MIDI_INPUT_CHANMAP 2
    VU 2
    TRACKHEIGHT 0 0 0 0 0 0 0
    INQ 0 0 0 0.5 100 0 0 100
    NCHAN 2
    FX 1
    TRACKID {14243C7B-D387-124E-9C74-CC85789D3829}
    PERF 0
    AUXRECV 0 0 1 0 0 0 0 0 0 -1:U 35 -1 ''
    MIDIOUT -1
    MAINSEND 1 0
    <FXCHAIN
      WNDRECT 32 136 807 690
      SHOW 0
      LASTSEL 0
      DOCKED 0
      BYPASS 0 0 0
      <VST "VST3i: Pianoteq 8 (Modartt) (1->5ch)" "Pianoteq 8.vst3" 0 "" 1031062328{565354507438717069616E6F74657120} ""
        OMN0Pe5e7f4CAAAAAQAAAAAAAAACAAAAAAAAAAUAAAABAAAAAAAAAAIAAAAAAAAABAAAAAAAAAAIAAAAAAAAABAAAAAAAAAAcC4AAAEAAAD//xAA
        YC4AAAEAAABWc3RXAAAACAAAAAEAAAAAQ2NuSwAALkhGQkNoAAAAAlB0OHEACAQBAAAAAAAAAAAAAAAAAAAAAAAAAAAAAAAAAAAAAAAAAAAAAAAAAAAAAAAAAAAAAAAA
        AAAAAAAAAAAAAAAAAAAAAAAAAAAAAAAAAAAAAAAAAAAAAAAAAAAAAAAAAAAAAAAAAAAAAAAAAAAAAAAAAAAAAAAAAAAAAAAAAAAAAAAAAAAAAAAAAAAtsKCYE/4CAAAA
        SDgSAGQtAAABAAAAEThWOFgtAABQclZLKQAAAlhGVFBILQAACgAAADIwMjUvMDMvMTcXAAAAUGlhbm90ZXEgOC40LjEvMjAyNTAyMDT3Ff3/JwJOp8eWgV3EPrKAZGxs
        YQctAAB0ZHRNrgMAABAAAABLMiBEcmVhbXkgKGNvcHkpCgAAAE15IFByZXNldHMHAAAATW9kYXJ0dFEAAABJbmNyZWFzaW5nIHRoZSBzdGVyZW8gd2lkdGggYW5kIHRo
        ZSByZXZlcmIgZHVyYXRpb24gdHVybnMgSzIgaW50byBhIGRyZWFteSBwaWFuby4AAAAARAEAAAkAAABLMiBEcmVhbXkAAAAADwMAAEdSVVUAAAAGAAAAAQPATVRyawAA
        AvkA/wIPIEJsYXogSnVyamV2Y2ljAIA1ADAuAIQCQQAVkEI4PTQhhh2wQH+BIJA+HyU6H4lugDoAgU80AIYXsEAAJoBCAACQQ1IGgD4AE5ApMoMOsEB/gXqAKQA5kD9M
        BYBDABKQOkIZNS6BV4A1AGw6AIM0sEAAHYA/ACaQRUQdLjSCcrBAf4FqgEUAJ5BBShk+Nh2ALgATkDkigyGAOQAssEAwCkAAL4BBADSQRkYPLS4HgD4Agj+wQH+CXoAt
        ABOQQkAOPToGgEYAC5A3KoNBgD0AgiSwQAAVgDcACUIAFJBHRjEsPoJssEBBCEB/gzKQOzoDRDwKQDwPODpBgCwAZzgAUkcATEAANTsAGUQAhR+wQAAXkEhMJCs2g1qw
        QH+Dc5BBMgRFLAw8IQM+Hxg1IYVfgCsAg288AAhIABg+AFxBAINnRQACkEk2gUmANQAJSQACsEAAHJBKRjQqLIMrsEB/g2CAKgAekDkZg1FAIYMrgEoAO5BFNoR6TDqF
        N4A5AIRmRQCBKEwAVkAAgheQTDaCBIBMACaQTUBhsEAAgxKQKUBqsEB/gVSAKQCCA5A1LIMJgDUAgSuQOjKFJz80L4A6AINRkEI0hF5GOCaATQCFeJBNNId5gD8Ag0RN
        AIEiRgBuQgCFCJBLTAqwQAADkCk6g0mwQH+HBYApAIEdkDkwhWE/NoZrQiqHNkc6E4BLAI1EkEsiiy6ARwCBYkIAAD8AZUsAhSU5AFaQSS6BebBAAAuASQATkEpAiSCw
        QH+BcpAuHoUXNSCEA4A1ADqQOR2EOj4qhTeASgBCkEU2jSqAPgCFGZBIMhSARQCBBpBAH5osgEgAA0AAhU+QRh6BZz4VjwuARgAmLgAqPgA2OQCWebBAAIRWgClAACpA
        ACtAACxAAC1AAC5AADRAADVAADdAADhAADlAADpAADtAADxAAD1AAD5AAD9AAEBAAEFAAEJAAENAAERAAEVAAEZAAEdAAEhAAElAAEpAAEtAAExAAE1AAP8vAFByc1VJ
        KQAASQAAAAIAAABrMgAAAAAIAAAAR3JhbmQgSzIAAAAAAAAAAHByb21UAAAAAQAAAAEAAAABAAAAAgAAAGsyAAAAAAgAAABHcmFuZCBLMgAAgD8GAAAAAAAAAAAAAAAA
        AAAAAAAAAAAAAABURv////8AAAAAAAAAAAAAAAAAAAAAcnlhbBAAAAACAAAAAAAAAAAAAAD/////b2xvcxEAAAABAAAAAQAAAEYAAAAAAAAAAAEAAAABAAAAAAAAAAAA
        AAABAAAAAAAAAAAAAAABAAAAAAAAAAAAAAABAAAAAAAAAAAAAAABAAAACwAAAEJyb2NlbGlhbmRlAAAAAAEAAAAAAAAAAAAAAAEAAAAAAAAAAAAAAAEAAAAAAAAAAAAA
        AAEAAAAAAAAAAAAAAOz//78DgAAAYGkAAAAAABBBAACAP2kAAADso+A/aBRdzT8MNcY/qEM1QLwd4T+MI6U/skwDQNi6bz8Avlk+eCNiPzD+vj7gBgo+7Az6P3xn5T8w
        L9q/soIYQDQ78T+8l84/HoogQPgaZUBs2S5AzFWIP+LdCUCg6um+6GYRP+So9T9wwpW+3JrkPw5BEkBM8es/2t4UQCSnVUD0aURA9KScPxAL6D7wrYw+SJMdP/T+jL/8
        HKa/WApyPxQTiD+8I6A/yKU3QCQuuT9YKSY/3AzAP0Bj1b3IxyW/7GPFPwAk/Dyo/Em/cOOkv7C0uT5Iqzi/+qgJQMTcrT/wcfi+PLWLvwigGj98w5s/5Dj+PyDsZz7o
        wU6/sNfGvtBE1L4oy3K/bF6IvzgxST/syPg/wPrRva6mFkBUYcq/eIMIv3i0LT+y/gZA4IcLvoTC7T/YCDo/yBkUP9DcRkDQsihAgORfvQBBOr6Al38+IJIXwBAz7L5I
        pyJAQOSkPfCHjj68TNM/ANeIPHwW7D9oO2VApPyNv14VSkDsp7Y/GAojP5oVAEBkC9c/YkYpQGC0Lj4A8dM8ALkkvkSEyT8o80Q/AwAAAAEAAAAAAAAAAAAAAAMAAAAA
        AAAAAAAAAAAAAAADAAAAAAAAAAAAAAAAAAAAAwAAAAEAAAABAAAAAQAAAAAAgEAAAAAAAQAAAAAAyMLlfyI+A4AAAEAKAAAAAACoQQAA6EEAABhCAAAgQgAAJEIAACxC
        AABgQgAAkkIAAJRCAAC2QgoAAABhpkk/BwPSTj8QzGk/cvxcP19DVD85DmA/MQiAP6s+sz+rPrM/gQEAAAAAAAAAAAAAAAAAoMAAAKBAAAC2QgAAAAADgAAAUAAAcEIB
        AAAAAAAAAAAAAAAAAMjChch9wgEAAAAAAAAAAAAAAAAAoMAAAKBAAAAAAAOAAABgAgAAAAAAqEEAAK5CAgAAAAAAAACBA4AAAGACAAAAAACoQQAArkICAAAAAACAP4GA
        AAAAAAAAANIEAAAAAAAAAAAAAAAAAIAAAAA/AACAPwOAAABQAABwQgEAAAAAAAAAA4AAAGBpAAAAAAAQQQAAgD9pAAAAAAAAwAIAAIC/AABAwAAAQMAEAABAQAAAAEAA
        AMBAAACAPwAAgD8GAADAQAAAQEAAAIBAAAAAwAAAQMAAAIBAAACAQAgAAKBAAADAQAAAgEAAAACAAACAPwAAAMAAAIA/AABAwAAAQMADAABAQAAAgEAAAKBAAACgQAYA
        AEDAAACgQAAAAIAAAABAAABAwAAAoEAAAKBAFQAAQEAAAIBAAAAAQAAAAMAAAIA/AACAQAAAAEAAAKBAAABAQAAAQMAAAACAAACAQAAAQMAAAACAAACAPwAAgL8AAEDA
        AACgQAAAQMAAAADAAAAAgAAAAIAFAACgQAAAQMAAAADAAACAvwAAQMAAAEDAAwAAoEAAAADAAABAwAAAQMAPAACAQAAAgD8AAEDAAACAQAAAAAAAAIBAAACAvwAAAEAA
        AKBAAABAwAAAgL8AAADAAADAQAAAoEAAAEDAAABAwAMAAADAAACAPwAAQMAAAEDAAQAAgL8AAIC/BAAAwEAAAIBAAABAwAAAAAAAAAAABwAAgD8AAEDAAAAAwAAAwEAA
        AEDAAADAQAAAQMAAAEDAgQAAAEADgAAAYAIAAAAAAKhBAACuQgIAAAAAAIA/gQIAAAABAAAAVQAAAEVxdWFsIHRlbXBlcmFtZW50ClRoZSBzdGFuZGFyZCB0dW5pbmcs
        IHdoZXJlIHRoZSBvY3RhdmUgaXMgZGl2aWRlZCBpbiAxMiBlcXVhbCBzdGVwcy4MAAAAAADIQgAASEMAAJZDAADIQwAA+kMAABZEAAAvRAAASEQAAGFEAAB6RACAiUQA
        AJZEAQAAAAAAAAAEAAAAAADcQzwAAABFAAAARgAAAAB/AAAAAAAAAAcAAABEZWZhdWx0AAAAAAAAAAACAAAAA4AAAGBpAAAAAAAQQQAAgD9pAAAAAABIwg4AACzCAAAQ
        wgAA4MEAAMjBAACowQAAkMEAAGDBAABAwQAAIMEAABDBAAAAwQAA4MAAAMDAAACgwAAAoMABAACAwAAAgMCBAABAwIIAAADAgwAAgL+HAAAAAMYAAAAAAAAAAAAAgD8B
        AAAAAQAAAAEAAAAYAAAAA4AAAEgBAAAAAACAPwAAAACamZk/A4AAAGACAAAAAACoQQAArkICAAAAAACAP4EDgAAAYAIAAAAAAKhBAACuQgIAAAAAAIA/gQOAAABQAAB6
        RAEAAAAAAAAAA4AAAFAAAHpEAQAAAAAAgD8AAAAAA4AAAFAAAHBCAQAAAAAAAAAAAIA/A4AAAFAAAHBCAQAAAAAAAAABAAAAAAAAAAAAAADNzMy9zczMPQEAAAAAAAAA
        AAAAAAAAAL8AAAA/AACAPwOAAABAAwAAAAAAqEEAAHBCAADYQgMAAAAAAIA/ggAAAAADgAAAYAIAAAAAAKhBAACuQgIAAAAAAAAAgQAAgD8DgAAAYAIAAAAAAKhBAACu
        QgIAAAAAAIA/gQAA8EEDgAAAQAcAAAAAAKhBAACQQgAAqEIAALRCAADAQgAAyEIAANhCBwAAAAAAAACBAABAQAQAAKBAAADgQAAAAEEAABBBAACAPwOAAABAAwAAAAAA
        qEEAAHBCAADYQgMAAAAAAIA/ggOAAABIAQAAAAAAAAABAAAAA4AAAGACAAAAAAAAAAAAgD8CAAAAAAAAAAEAAIA/A4AAAGACAAAAAAAAAAAAgD8CAAAAAACAP4EDgAAA
        QAQAAAAAAAAADJNJPvZ+Pz8AAIA/BAAAAAAAAACBAACAP4EDgAAAYAIAAAAAAAAAAACAPwIAAAAAAAAAgQAAAADNzEw+AAAAAAAAAAAAAAAAAAAAPwEAAAA9CgdAA4AA
        AGACAAAAAACoQQAArkICAAAAAACAP4EAAIC/AAAAPwOAAABIAQAAAAAAgD8BAAAAAAAAAAEAAAALAAAAQnJvY2VsaWFuZGUGAAAAZm9yZXN0AACAQNQtxUEAAIA/AACA
        QAAAAAD+9ug7AABwwc3MTL4AAAAAMzNTQAAAqkMAAIA/AACAPwEAAAAGAAAAmpmZPwAAgD8DgAAAYGkAAAAAABBBAACAP2kAAAAAAIA/k/W5gj9U3o6UP/W5oj/9h5w/
        WyWUP1mGlD8Nw5c/QZqNP1FOkD8u55o/CFWSP1+YpD/rHJc/A1udPy1DoD9zaKU/riGUP3Yzkj+h9qE/OliTP/q4kj9lNpg/znCXPwN4mz+HoqA/j9mmP1Zlqz+fMpo/
        riGUPyApoj8OQJE/4UCgPzIDoT9ljaI/MzOjPwa7rT9sPqY/eCisP2lvpD8vqJs/4UWjP0spkz9TzKA/riGUP+ofmD+h9qE/tU+rP+5OkD/+8Zo/NdKWP/lfjz8nvZ8/
        +DaZP5WfoD9GX6E/0/anP2g/nj9uo5U/iEaXP3gorD8yj5Q/ccmlP7hAvj8KgLE/QbymP2EytT+gw7Q/N3GmPwNboT9eyao/UriePw1zjj+30Zw/vK6TP67TqD8r+5Y/
        RDSuP25pnT/1uZ4/ptChP1rYjz8tCaQ/wHiePyxIpz9OKKQ/A4AAAGBpAAAAAAAQQQAAgD9pAAAAAACAP+gAAAAAA4AAAGBdAAAAAACoQQAAgD9dAAAAAAAAAIcB7dg8
        VL/Rvr36U/S8PLvBPQwLSbxDdMg88zkXvQLGyb2EtIu9NA2PvbjlozwQujo9MZCsPVbwG7x8Pm+9+lDYvDPQq7xOfss8Qd8svR79LzzEcYU9EaCwvWWV6zupb8Q9VoOw
        vS57mD1A5Gg9sY6evUTWv7zELpA9atyLvbxAyb3+wAu9CRWcvI0uyj3xHUu929jwO8flub0N4J29TlOVvIKi3jxzToe9uIkEPXFtjTxpAhu6NMiTvb62gz1NliQ8d8fI
        vWulZr3vPRa8J36RvfiBVb2qtZW8+jbDvTDBBD2puBY9CWSgvUFduT0U2zM97D+RPUDYbj3116s9z7W0PQGuqr0LhFg9s+yZvatUtbzjgbI9sw6ivLrjo73ULYa9EiUr
        veV+R70o7og9zCSfPdEtCzzxh/o7pqnEPfE+2DwSbIw9wa2rvZjcSD0H7RW9AD2oPAEAAAAAAAAAAQAAAAAAAD8AAABAAwAAAAAAgD8AAIA/AACAPwOAAABgaQAAAAAA
        EEEAAIA/aQAAAAAAgD/oA4AAAEADAAAAAACoQQAAcEIAANhCAwAAAAAAgD+CA4AAAEADAAAAAACoQQAAcEIAANhCAwAAAAAAgD+CAACAPwAAgD8HAAAAAACAP5qZmT7N
        zEw/AADAP5qZmT4IAAAAAAAAAAAAAAAAAAAAAAAAAAAAAAAAAAAAAAAAAAAAAAADgAAAYGkAAAAAABBBAACAP2kAAADfS3Y/aJuaej/fOHw/dJFZP+Awdj8W64E/ewdu
        P3NRhz/NE5M/1SWIP/BikD/UZpQ/G7twP0o+dT8dZ7c/Mh5lPwrncj8k2no/KYtiPxp3SD/XP10/OSuGP/72bD8JM6A/7YSOP4M6dD/msJ0/M4Z4P7gMaT/TjHM/htFk
        PyNESj+gOE8/Nod+P3Agij+DCYw/ZryFP4TcoT/Bb6Q/s0t8P9JXdz/Gh3A/5mNGP2M8aD9H+nw/FOxjP5A5iD9THJA/3JdeP36egz92vY8/GEqXP92Yej95LY4/ZJxM
        P5WDYD/CBIs/Yk2VPyEKdj8po2U/iYFSP3YXgT9mpJE/mxOMP4cljT/ZyJY/S4iZP6hDeT+VLlo/XhWKP6woUD/2vaM/bJqFP4qFfD90MVY/+rSKP7mKQj+1RnI/tXGD
        P2XwPT9QAU4/hzyQP1L9lz9oLpY/KNTDP0HCrz/hAXU/KSqgP5kvmj84qIE/3h+aP8j4dT+sFkU/lIKlPyo5Rj+/xGw/0sl9P3FFVD8Ck1c/68s8P0kFez8bPX8/i2SC
        P7KPVT/vTGo/A4AAAGBpAAAAAAAQQQAAgD9pAAAAiUBJP5igQEk/NfhQST+4zko/sElOP2ceUz9pWlY//WtWP/WnWT89eV4/N7VhP8nGYT/IAmU/C9RpPwYQbT9+IW0/
        zklwPx9ycz+Vg3M/jsl4P9Kkfz9mdYI/LoODPzAmhj90mIk/waeMP2RGjz8g2JM/dJCXP2W9mT+lf50//R6iP9yipz89j68/xXi3P8q5vD+gYcA/2L3FPx94yT8c880/
        bKPRP/8g1D9SCdU/k/HVP1Jl2D+VTdk/2TXaP4ep3D/1h90/vJvdPyp63j/N7eA/LMzhPw/W4T8d1uE/HdbhP5kDgAAAYGkAAAAAABBBAACAP2kAAAAAAIA/m0pHgT8p
        /PSAP0Y8gj/36YE/QTGDP/Hegj89JoQ/7dODPzkbhT/qyIQ/NhCGP4BXhz8wBYc/fEyIPy36hz/JyIg/J++IP7m5iT8j5Ik/biuLP5ubiz88PIw/fX2NP3Bojj9fX48/
        d7CQP0ihkj+1tJQ///mXP48cmj+62J0/AACgP1pAoj9thaQ/9vWlPyQDpz83N6c/JyenP0hEpz8nJ6c/NzenPycnpz8nJ6c/gr1Tpz8B6+CmP+vgpj+dA4AAAGBpAAAA
        AAAQQQAAgD9pAAAAuEuCP2jBsYE/PpKAPwktfj8HGnw/qzR8P4NsfT/VWn4/eFF/P749gD/lrIA/VtyAPyzsgD/t44A/X4aAP9EHgD910H8/OQKAP7gWgD+dYIA/zeSA
        P+lagT/UQYE/VoyAP0w5gD8jzIA/12yBP/m+gT/p4YE/MbKBP8p+gT/xRoE/KdWAP66pgD/1DYE/unqBP4CCgT8FRoE/7tuAP/JFgD+xin8/nw1/P/Pofj/RVn4/qZp9
        PwCwfT8QVn4/3Rh/P3kTgD+hoYA/8eOAP+gJgT+mJYE/Y9eAP/thgD/pnoA/pUyBP60egT8g+H8/CA5+P72DfT8HI30/OCF8P8WFez8IT3w/a/t9P5y6fz9ZiIA/a4aA
        P3kHgD8QjX8/ZMN/P8kQgD/49n8/m+J+P/HffT9JBn4/Qh6APx0/jz8t14A/U/KAP2rdgD+xw4A/ekuAP39fhD+UyoU/gO5+P92+fj/vWn4/7cZ+Pxy+fz9eFoA/ZfB/
        PyJRgD8GIYE/G2mBP2cDgT9KuYA/sNiAP1/TgD+0e4A/LAiAP9EKfz9Lkn4//0J/PwEAAABbAAAAAAAQQQOAAABgDAEAAAAAAAAAAIA/DAEAAAAAIEEGAACgQAAAIECa
        mZk/mpkZP5qZmT4AAAAAAAAAAP8AAAAA/wAAAACEAAAgQQOAAABgAgEAAAAAAAAAAIA/AgEAAAAAIEEGAACgQAAAIECamZk/mpkZP5qZmT4AAAAAAAAAAP8AAAAA+gAA
        MEEDgAAAYPQAAAAAAAAAAACAP/QAAAAAACBBBgAAoEAAACBAmpmZP5qZGT+amZk+AAAAAAAAAAD/AAAAAOwAAEBBA4AAAGDuAAAAAAAAAAAAgD/uAAAAAAAgQQYAAKBA
        AAAgQJqZmT+amRk/mpmZPgAAAAAAAAAA/wAAAADmAABQQQOAAABg6QAAAAAAAAAAAIA/6QAAAAAAIEEGAACgQAAAIECamZk/mpkZP5qZmT4AAAAAAAAAAP8AAAAA4QAA
        YEEDgAAAYNYAAAAAAAAAAACAP9YAAAAAACBBBgAAoEAAACBAmpmZP5qZGT+amZk+AAAAAAAAAAD/AAAAAM4AAHBBA4AAAGDRAAAAAAAAAAAAgD/RAAAAAAAgQQYAAKBA
        AAAgQJqZmT+amRk/mpmZPgAAAAAAAAAA/wAAAADJAACAQQOAAABgzgAAAAAAAAAAAIA/zgAAAAAAIEEGAACgQAAAIECamZk/mpkZP5qZmT4AAAAAAAAAAP8AAAAAxgAA
        iEEDgAAAYMoAAAAAAAAAAACAP8oAAAAAACBBBgAAoEAAACBAmpmZP5qZGT+amZk+AAAAAAAAAAD/AAAAAMIAAJBBA4AAAGDIAAAAAAAAAAAAgD/IAAAAAAAgQQYAAKBA
        AAAgQJqZmT+amRk/mpmZPgAAAAAAAAAA/wAAAADAAACYQQOAAABgxgAAAAAAAAAAAIA/xgAAAAAAIEEGAACgQAAAIECamZk/mpkZP5qZmT4AAAAAAAAAAP8AAAAAvgAA
        oEEDgAAAYMIAAAAAAAAAAACAP8IAAAAAACBBBgAAoEAAACBAmpmZP5qZGT+amZk+AAAAAAAAAAD/AAAAALoAAKhBA4AAAGDgAAAAAAAAAAAAgD/gAAAAAAAgQQYAAKBA
        AAAgQJqZmT+amRk/mpmZPgAAAAAAAAAA/wAAAADYAACwQQOAAABg0gAAAAAAAAAAAIA/0gAAAAAAIEEGAACgQAAAIECamZk/mpkZP5qZmT4AAAAAAAAAAP8AAAAAygAA
        uEEDgAAAYMoAAAAAAAAAAACAP8oAAAAAACBBBgAAoEAAACBAZmYGwJqZGT+amZk+AAAAAAAAAAD/AAAAAMIAAMBBA4AAAGDuAAAAAAAAAAAAgD/uAAAAAAAgQQYAAKBA
        AAAgQJqZmT+amRk/mpmZPgAAAAAAAAAA/wAAAADmAADIQQOAAABg2QAAAAAAAAAAAIA/2QAAAMzMGkEGERGdQAAAAACamZk/3t0dPyIioj4AAAAAAAAAAP8AAAAA0QAA
        0EEDgAAAYMgAAAAAAAAAAACAP8gAAACZmRVBBiIimkCamRlAmpmZPyIiIj+rqqo+AAAAAAAAAAD/AAAAAMAAANhBA4AAAGC8AAAAAAAAAAAAgD+8AAAAZmYQQQYzM5dA
        zMy8v5qZmT9mZiY/NDOzPgAAAAAAAAAA/wAAAAC0AADgQQOAAABg0wAAAAAAAAAAAIA/0wAAADIzC0EGRESUQDMzM8CamZk/q6oqP7y7uz4AAAAAAAAAAP8AAAAAywAA
        6EEDgAAAYN0AAAAAAAAAAACAP90AAAD//wVBBgAAgEAzMxNAmpmZP/DuLj9ERMQ+AAAAAAAAAAD/AAAAANUAAPBBA4AAAGDRAAAAAAAAAAAAgD/RAAAAzMwAQQZmZoZA
        MzNTQJqZmT80MzM/zczMPgAAAAAAAAAA/wAAAADJAAD4QQOAAABgxwAAAAAAAAAAAIA/xwAAADIz90AGeHeLQPmKD0CamZk/eHc3P1ZV1T4AAAAAAAAAAP8AAAAAvwAA
        AEIDgAAAYL8AAAAAAAAAAACAP78AAADMzOxABomIiEDbtg1AmpmZP7y7Oz/e3d0+AAAAAAAAAAD/AAAAALcAAARCA4AAAGDKAAAAAAAAAAAAgD/KAAAAZmbiQAaamYVA
        vuILQJqZmT8AAEA/ZmbmPgAAAAAAAAAA/wAAAADCAAAIQgOAAABg0gAAAAAAAAAAAIA/0gAAAAAA2EAGq6qCQKEOCkCamZk/RUREP+/u7j4AAAAAAAAAAP8AAAAAygAA
        DEIDgAAAYMMAAAAAAAAAAACAP8MAAACZmc1ABnh3f0CDOghAmpmZP4mISD94d/c+AAAAAAAAAAD/AAAAALsAABBCA4AAAGDEAAAAAAAAAAAAgD/EAAAAMzPDQAaamXlA
        ZmYGQJqZmT/NzEw/AAAAPwAAAAAAAAAA/wAAAAC8AAAUQgOAAABgxAAAAAAAAAAAAIA/xAAAAAAA0EAGZmamQGZm9j/NzIw/vLs7P6uq6j4AAAAAAAAAAP8AAAAAvAAA
        GEIDgAAAYMMAAAAAAAAAAACAP8MAAACqqqJABgAAUED//98/AACAP6uqKj9VVdU+AAAAAAAAAAD/AAAAALsAABxCA4AAAGCrAAAAAAAAAAAAgD+rAAAAZmaSQAY0MztA
        mZnJP2dmZj+amRk/AADAPgAAAAAAAAAA/wAAAACjAAAgQgOAAABgqwAAAAAAAAAAAIA/qwAAAGZmxkAGAAAQQTIzsz/NzEw/iIgIP6qqqj4AAAAAAAAAAP8AAAAAowAA
        JEIDgAAAYKgAAAAAAAAAAACAP6gAAAC9u2NABpqZEUDNzJw/NDMzP/Du7j5WVZU+AAAAAAAAAAD/AAAAAKAAAChCA4AAAGCTAAAAAAAAAAAAgD+TAAAAMzNDQAaamfk/
        ZmaGP5qZGT/NzMw+AACAPgAAAAAAAAAA/wAAAACLAAAsQgOAAABgkwAAAAAAAAAAAIA/kwAAAKuqIkAGAQDQPwAAYD8BAAA/q6qqPlZVVT4AAAAAAAAAAP8AAAAAiwAA
        MEIDgAAAYJMAAAAAAAAAAACAP5MAAAAAAGBABjMzE0AyMzM/zczMPoiIiD6qqio+AAAAAAAAAAD/AAAAAIsAADRCA4AAAGCAAAAAAAAAAAAAgD+AAAAAMzPDPwaamXk/
        ZmYGP5qZmT7NzEw+AAAAPgAAAAAAAAAA+AAAOEIDgAAAYIAAAAAAAAAAAACAP4AAAAAjIoI/BmhmJj80M7M+z8xMPoqICD6sqqo9AAAAAAAAAAD4AAA8QgOAAABggAAA
        AAAAAAAAAIA/gAAAACAiAj8GZGamPjAzMz7KzMw9h4iIPaiqKj0AAAAAAAAAAPgAAEBCA4AAAGBsAAAAAAAAAAAAgD9sAAAAAAAAAOsAAERCA4AAAGBsAAAAAAAAAAAA
        gD9sAAAAAAAAAOsAAEhCA4AAAGBsAAAAAAAAAAAAgD9sAAAAAAAAAOsAAExCA4AAAGBmAAAAAAAAAAAAgD9mAAAAAAAAAOUAAFBCA4AAAGBXAAAAAAAAAAAAgD9XAAAA
        AAAAANYAAFRCA4AAAGBXAAAAAAAAAAAAgD9XAAAAAAAAANYAAFhCA4AAAGBWAAAAAAAAAAAAgD9WAAAAAAAAANUAAFxCA4AAAGBJAAAAAAAAAAAAgD9JAAAAAAAAAMgA
        AGBCA4AAAGBJAAAAAAAAAAAAgD9JAAAAAAAAAMgAAGRCA4AAAGBIAAAAAAAAAAAAgD9IAAAAAAAAAMcAAGhCA4AAAGBEAAAAAAAAAAAAgD9EAAAAAAAAAMMAAGxCA4AA
        AGBAAAAAAAAAAAAAgD9AAAAAAAAAAL8AAHBCA4AAAGA5AAAAAAAAAAAAgD85AAAAAAAAALgAAHRCA4AAAGA5AAAAAAAAAAAAgD85AAAAAAAAALgAAHhCA4AAAGA2AAAA
        AAAAAAAAgD82AAAAAAAAALUAAHxCA4AAAGAxAAAAAAAAAAAAgD8xAAAAAAAAALAAAIBCA4AAAGAwAAAAAAAAAAAAgD8wAAAAAAAAAK8AAIJCA4AAAGAtAAAAAAAAAAAA
        gD8tAAAAAAAAAKwAAIRCA4AAAGArAAAAAAAAAAAAgD8rAAAAAAAAAKoAAIZCA4AAAGAnAAAAAAAAAAAAgD8nAAAAAAAAAKYAAIhCA4AAAGAmAAAAAAAAAAAAgD8mAAAA
        AAAAAKUAAIpCA4AAAGAkAAAAAAAAAAAAgD8kAAAAAAAAAKMAAIxCA4AAAGAiAAAAAAAAAAAAgD8iAAAAAAAAAKEAAI5CA4AAAGAgAAAAAAAAAAAAgD8gAAAAAAAAAJ8A
        AJBCA4AAAGAdAAAAAAAAAAAAgD8dAAAAAAAAAJwAAJJCA4AAAGAcAAAAAAAAAAAAgD8cAAAAAAAAAJsAAJRCA4AAAGAbAAAAAAAAAAAAgD8bAAAAAAAAAJoAAJZCA4AA
        AGAZAAAAAAAAAAAAgD8ZAAAAAAAAAJgAAJhCA4AAAGAYAAAAAAAAAAAAgD8YAAAAAAAAAJcAAJpCA4AAAGAWAAAAAAAAAAAAgD8WAAAAAAAAAJUAAJxCA4AAAGAVAAAA
        AAAAAAAAgD8VAAAAAAAAAJQAAJ5CA4AAAGAUAAAAAAAAAAAAgD8UAAAAAAAAAJMAAKBCA4AAAGATAAAAAAAAAAAAgD8TAAAAAAAAAJIAAKJCA4AAAGASAAAAAAAAAAAA
        gD8SAAAAAAAAAIEAAABAAgAAwEAAAAAAAAAAAIwAAKRCA4AAAGARAAAAAAAAAAAAgD8RAAAAZmZmwAIzM7O/AAAAAAAAAACNAACmQgOAAABgEAAAAAAAAAAAAIA/EAAA
        AAAAAACPAACoQgOAAABgDwAAAAAAAAAAAIA/DwAAAAAAAACOAACqQgOAAABgDgAAAAAAAAAAAIA/DgAAAAAAAACNAACsQgOAAABgDQAAAAAAAAAAAIA/DQAAAAAAAACM
        AACuQgOAAABgDAAAAAAAAAAAAIA/DAAAAAAAkMACAAAAwAAAAAAAAAAAiAAAsEIDgAAAYAwAAAAAAAAAAACAPwwAAAAAAAAAiwAAskIDgAAAYAsAAAAAAAAAAACAPwsA
        AAAAAAAAigAAtEIDgAAAYAoAAAAAAAAAAACAPwoAAADNzMy9AQAAAAAAAAAAhwAAtkIDgAAAYAoAAAAAAAAAAACAPwoAAAAAAPDAAQAAAAAAAAAAAmZm5r8AAAAAAAAA
        AIQAALhCA4AAAGAJAAAAAAAAAAAAgD8JAAAAAADgwAEAAAAAAAAAAIYAALpCA4AAAGAJAAAAAAAAAAAAgD8JAAAAMzMrwQIzMzPAAAAAAAAAAACFAAC8QgOAAABgCAAA
        AAAAAAAAAIA/CAAAAM3M3MABAAAAAAAAAACFAAC+QgOAAABgCAAAAAAAAAAAAIA/CAAAAAAAoMABAAAAAAAAAACFAADAQgOAAABgCAAAAAAAAAAAAIA/CAAAADMz88AB
        AAAAAAAAAACFAADIQgOAAABgCAAAAAAAAAAAAIA/CAAAAAAAEMEBAAAAAAAAAACFAADOQgOAAABgCAAAAAAAAAAAAIA/CAAAAAAAQMABAAAAAAAAAACFAADYQgOAAABg
        BAAAAAAAAAAAAIA/BAAAAAAAQMABAAAAAAAAAACB3L3cPQOAAABAFgAAAAAAEEEAAKhBAADAQQAA4EEAAOhBAAAAQgAACEIAABhCAAAkQgAAMEIAAEBCAABMQgAAYEIA
        AHBCAACAQgAAiEIAAJBCAACYQgAAoEIAAKhCAADAQgAA2EIWAAAApiAxPwS05Yw/pFOPPzTXkT9qapE/amqRP4LtgY4/AWpqkT9qapE/BO2Bjj+atos/7YGOP5q2iz+a
        tos/ga/rVz+BW+1FPwLnpik/QYPtPgEAAAAAAAAAAQAAADMzMz9mZqY/AQAAAAEAAAABAAAAZmZmP83MjD8BAAAAAAAAAAEAAAAzMzM/ZmamPwEAAAAAAAAAAQAAADMz
        Mz9mZqY/AQAAAAAAAAABAAAAMzMzP2Zmpj8BAAAAAAAAAAAA8EIAAAAADgAAAAAAAD/NzMw9zcxMPgAAAD8DAAAAAAAAAAOAAABIAQAAAAAAAAAAAAAAA4AAAEgBAAAA
        AAAAAAQAAAACAAAAAwAAAAQAAAABAAAAAQAAAAAAgD8AAIA/AQAAAAEAAAABAAAAAQAAAAEAAAAAAIA/AAAAAAAAgEAAALRCRgAAAAADgAAASAEAAAAAAAAAAAAAAAOA
        AABIAQAAAAAAAAAAAAAAAAAAAAOAAABIAQAAAAAAAAAAAAAAAwAAAAcAAAABAAAAAAAAAA4AAAAQAAAAAAAAAI/CdT0AAIA/AAAAAAAAAL8AAHBCAAAAAAAAAAAAAAAA
        AAAAAAAAAAAAAAAAAAAAAAAAAAAAAAAAAAAAAAMAAAAKAAAAAQAAAAAAAAAOAAAAEAAAAAAAAAAAAMhCAAAAAAAAAD8AAABAAACWQwAAAAAAAAA/AACAPwBAnEUAAABA
        AACAPwAAQEAAAAAAAAAAAAAAAAADAAAACgAAAAEAAAAAAAAADgAAABAAAAAAAAAAAADIQgAAAAAAAIA/AAAAQABAnEUAAABAmpmZPgAAgD8AQBxGAAAAAAAAgD8AAEBA
        AAAAAAAAAAAAAAAAAQAAAAEAAAAAAIA/AABAwQAAAAADAAAAAwAAAAAAAAABAAAABQAAAAQAAAABAAAAAwAAAAAAgD+amdk/AADAPwAArkK/Dg3CAAAAAAUAAAAAAAAA
        AAAwwQAAwMIAAMDCAADAwgUAAAAAAAAAKVwPPQAAAAAAAAAAAAAAAAUAAAAAAAAAAAAAAAAAAAAAAAAAAAAAAAEAAAAAAAAABAAAAAEAAAADAAAAMzOzP5qZmT8AAMA/
        AABsw78ODcIAAAAABQAAAAAAcMEAAAAAAADAwgAAwMIAAMDCBQAAAArXIz367Ws6AAAAAAAAAAAAAAAABQAAAAAAAAAAAAAAAAAAAAAAAAAAAAAAAQAAAAAAAAAEAAAA
        AAAAAAMAAACPwvU/PQpXvx+Faz8AALRCAAAAAAAAAAAFAAAAAABAwQAAQMEAAHDCAABwwgAAcMIFAAAAAAAAAAAAAAAAAAAAAAAAAAAAAAAFAAAAAAAAAAAAAAAAAAAA
        AAAAAAAAAAABAAAAAAAAAAQAAAAAAAAAAwAAADMzM79cj8I+rkdhPwAAAAAAAAAAAAAAAAUAAAAAAEDBAABAwQAAcMIAAHDCAABwwgUAAAAAAAAAAAAAAAAAAAAAAAAA
        AAAAAAUAAAAAAAAAAAAAAAAAAAAAAAAAAAAAAAEAAAAAAAAABAAAAAAAAAADAAAAuB7FPz0KVz+uR+E/AAAAAAAAAAAAAAAABQAAAAAAQMEAAEDBAABwwgAAcMIAAHDC
        BQAAAAAAAAAAAAAAAAAAAAAAAAAAAAAABQAAAAAAAAAAAAAAAAAAAAAAAAAAAAAAAQAAAAAAAAABAAAAAQAAAAEAAAADAAAAMzMzP83MTL4zM7M/AACQQQAAAAAAAAAA
        AAAAAAEAAAAAAAAAAAAAAAAAAABKVUNFUHJpdmF0ZURhdGEAAQFCeXBhc3MAAQEDAB0AAAAAAAAASlVDRVByaXZhdGVEYXRhAAAAAAAAAAA=
        AAAQAAAA
      >
      PRESETNAME "K2 Dreamy (copy)"
      FLOATPOS 32 149 592 662
      FXID {6C67196E-99C4-ED4E-8335-569CBD97CA14}
      WAK 0 0
      BYPASS 0 0 0
      <AU "AU: VCV Rack 2 FX (VCV)" "VCV: VCV Rack 2 FX" "" 1635085670 1447253574 1447253599
        6QMAAAAAAAAQAAAAAQAAAAAAAAACAAAAAAAAAAAAAAAAAAAAAAAAAAAAAAAAAAAAAAAAAAAAAAAAAAAAAAAAAAAAAAAAAAAAAAAAAAAAAAAAAAAAAAAAAAAAAAAAAAAA
        AAAAAAAAAAAAAAAAAAAAAAAAAAAAAAAAAAAAAAAAAAAAAAAAAAAAAAAAAAAQAAAAAQAAAAAAAAACAAAAAAAAAAAAAAAAAAAAAAAAAAAAAAAAAAAAAAAAAAAAAAAAAAAA
        AAAAAAAAAAAAAAAAAAAAAAAAAAAAAAAAAAAAAAAAAAAAAAAAAAAAAAAAAAAAAAAAAAAAAAAAAAAAAAAAAAAAAAAAAAAAAAAAAAAAAAAAAACuCAAAPD94bWwgdmVyc2lv
        bj0iMS4wIiBlbmNvZGluZz0iVVRGLTgiPz4KPCFET0NUWVBFIHBsaXN0IFBVQkxJQyAiLS8vQXBwbGUvL0RURCBQTElTVCAxLjAvL0VOIiAiaHR0cDovL3d3dy5hcHBs
        ZS5jb20vRFREcy9Qcm9wZXJ0eUxpc3QtMS4wLmR0ZCI+CjxwbGlzdCB2ZXJzaW9uPSIxLjAiPgo8ZGljdD4KCTxrZXk+ZGF0YTwva2V5PgoJPGRhdGE+CglLTFV2L1FC
        SXRTY0Fla0pFRERkZ2EyZ0FmL0tmZi83NUZmNzFkR0pEdkpUYnV1VmVhdEw2cDkycWpROUVkQWE0YWlnMAoJaFhkRlJFU2t2TzNKd3NzVndIQzNQNkVVdkFDdEFMVUFj
        SkVRM2QxS2hHNGMweWtTV2ZCVUtjTzdsY2N2cXh1WDNNdmgKCTNjcURaZ2wzNHcrZHpBbkszcTA4bkMxdllkNk5RN2RPRXAxNHQ1SUJ3cllZL01VZXJ1VWMvSC9vVGhV
        V0RRZlBhTUtDCglZSG10WEd6L3J4U0NoWU5Db1VIa29VT0VlZ0NncUFOTmlFNnVGQzNVUnRGY0pOY3BBRUFSVUVwcFVFcHRVQlVYRnhGcQoJZzFMcVFTbDFRU25GbEZJ
        RGxGSVBxaUcweFlKMkpvVlNEMHFBZ1FEOVNwcDR5dDhLdGhmL2U3WGwzSU13dXRYTnNmOVgKCS9WNzhmN1ZNV0FMZTNiMzh2M1RkT01Xemd0cElNaWZ2N240UU1lSGRP
        SlZNQmRTcEUvcDRkM2NyRHdiUmpVdDBVcVhICgl1Mjk5OHZUR0o1NlBLNC92eGgrSTVPSThYVUxIcnhjWjJCcDhEcnBuNjVmVmpkTnM1OFM3dXlWVG1wRjNkelBxeklo
        RQoJTVFTNTlja1IzbzFiK2x5SlUrbEtlRGNPMVl4c293Zjh4cXozMnEvR09NakVidnlwM3QzZHJXU1lxTTNQbFhpMzhwRFEKCXJVVElZR09ydWVXaWpOL2M4aERkM2Nx
        RGtiRkorVEk2S2Q5YUFldXR0eGpHNG9NdFNvWkZGbGxjb295UWFReTIvMzhNCgk0OTd5OEwzbFhWdXNHMytxdXhlZmFRNHlzdjFpeXl1UHQ3ZzhLWjZXd1FhMWRqcUk4
        dVZMS050N2l6VzVPaFpFTjE2ZgoJS3ZIdVM0R25hWjFac2h2WGNIQmxnS2RwSGF1VE9tSEJ1ZGJ4YnZwY2lnMTdJKy91eGlkTElXaHFPTjdkeWtNRDN5dVoKCXZCdW5H
        ZENzd0JBNWtMZ1hrQWtJaFd4dkxmYnduMm1OZWQzNFUxMlJjQ09YS0xZMWdmTjRCODRYNXdpcTYzWGpsS05hCglXSEN1eFFnZGlrVHhOQ1gwbVE1REx0ZFllK2hZbEpC
        Qng3UUlmUXhzL3c4K1d3KzJsNDVCeUZENE1QN1hXcXV4Rjk5NwoJYnoyRTBIbHNEaU1TT2VEZHVIVHRkYUFLVlp3am5DK0UydnhjQ3B3am5HK0VycldYVFQ0WUg1UU5Z
        enFyRmVoV1BLV00KCXB3WE9FYzUzQTlkSnhYV0NxQVhPRVZRbmlGbzRrTmlZbGs1UUNlY0lndEFwUnlMMW9WREdkZ05iV0FyTmlOcU1qSHRCCglPU2lWSXE0ODZHUm5w
        QnVIS01lVklxdVZiNHVSRVQ3WDJHTFBHQm5YK3JVQ2dNNm9JVDFsd05BQUFBQkFDZ0JJd0FJQQoJbVJtcURSS2dZQkFRQ1pNVVJGRVFCaWpLS0NJQXlDQUFoRUFBQUJB
        d0ZFaERhd0FZOUNzRTRUWHNiNFlWQTNpczVRZzEKCUdVWE93UjRML0FGY3RvdWdYczJ4RDQ2UDBuQ1lNNnFnNUJTUVN4VUpsU0NQUHFwTVRBSExLVmlGM1R6WlRRQnNN
        Z25wCglSdEZOSURyNUVzNGVGZ2VTMkp4dU1mbUpVdXFueWZyRGs3Z1hSck9HeVlIVnBhK2RSMGlMTyszbEwxT2FFcVdTVGxvbAoJNmNsRzA1TlFPVGl2VHp5by9hU2t4
        RHp4b3RhVGttSTlLU0N5VGk1TGNoZk15T0pzWEhmSWtLY1pLQW5EMVpyS0xMeHoKCU9RVWtXeE9FQTFVaFBpN0tRZnlKNDFNV0pQSzc4R1U4cE5kQUNwNm1STUNXdTRF
        SnlQdEJLQ0VxNGJzekZFMTJnODJoCgl2c3lIN0JYeGdVR3JvQmMzUlJCMUt3ZFFmakJvRGE3a1V5bzk2NWk3NGZqdTBGMzBkK0l6VjQ1aFhXcWpBMWhWNmhHaQoJd0NT
        TlhUamltOEpTVFlTNkg4ZWljR0lyVTRrd0dCM29BRS92c2hwVFlTbWhWVEZMQU5hOWRlS2RHL1FEM2ZpWjlIbFUKCWlsUkdOTTZOSlhNZ0VkZDNSU1N2TGhoTWNhUnFi
        ZFNpWHVWU1Z0TkxOaDEyY3lNaGkyTTFjZFlBRFBQckFENkFzbVlaCglrTUFoQi9kYkdRMWRCNFBkSWhRZXdCWjZoalAxMmsxZnA0VVlqM3hmV2NDRmgwRGpyMUx5c0tY
        Z3Q2VDlZZDZjWTJMVwoJNy92QS93PT0KCTwvZGF0YT4KCTxrZXk+bWFudWZhY3R1cmVyPC9rZXk+Cgk8aW50ZWdlcj4xNDQ3MjUzNTk5PC9pbnRlZ2VyPgoJPGtleT5u
        YW1lPC9rZXk+Cgk8c3RyaW5nPlZDVlJhY2s8L3N0cmluZz4KCTxrZXk+c3VidHlwZTwva2V5PgoJPGludGVnZXI+MTQ0NzI1MzU3NDwvaW50ZWdlcj4KCTxrZXk+dHlw
        ZTwva2V5PgoJPGludGVnZXI+MTYzNTA4NTY3MDwvaW50ZWdlcj4KCTxrZXk+dmVyc2lvbjwva2V5PgoJPGludGVnZXI+MTwvaW50ZWdlcj4KPC9kaWN0Pgo8L3BsaXN0
        PgoEAAAAZHVvAAAAAAAA
      >
      PRESETNAME duo
      FLOATPOS 0 0 0 0
      FXID {B16322B3-AEEB-5747-AC63-1C6F8AC75F9E}
      WAK 0 0
    >
  >
  <TRACK {0A629C9E-24E1-B14F-9E00-DB96B20E1FDC}
    NAME "Pianoteq 8"
    PEAKCOL 16576
    BEAT -1
    AUTOMODE 0
    PANLAWFLAGS 3
    VOLPAN 0.39600150758095 0 -1 -1 1
    MUTESOLO 0 0 0
    IPHASE 0
    PLAYOFFS 0 1
    ISBUS 0 0
    BUSCOMP 0 0 0 0 0
    SHOWINMIX 1 0.6667 0.5 1 0.5 0 0 0
    FIXEDLANES 9 0 0 0 0
    SEL 0
    REC 1 5088 1 0 0 0 0 0
    MIDI_INPUT_CHANMAP 0
    VU 2
    TRACKHEIGHT 0 0 0 0 0 0 0
    INQ 0 0 0 0.5 100 0 0 100
    NCHAN 2
    FX 1
    TRACKID {0A629C9E-24E1-B14F-9E00-DB96B20E1FDC}
    PERF 0
    AUXRECV 0 0 1 0 0 0 0 0 0 -1:U 37 -1 ''
    MIDIOUT -1
    MAINSEND 1 0
    <FXCHAIN
      WNDRECT 49 82 941 690
      SHOW 0
      LASTSEL 1
      DOCKED 0
      BYPASS 0 0 0
      <VST "VST3i: Pianoteq 8 (Modartt) (1->5ch)" "Pianoteq 8.vst3" 0 "" 1031062328{565354507438717069616E6F74657120} ""
        OMN0Pe5e7f4CAAAAAQAAAAAAAAACAAAAAAAAAAUAAAABAAAAAAAAAAIAAAAAAAAABAAAAAAAAAAIAAAAAAAAABAAAAAAAAAA6xYAAAEAAAD//xAA
        2xYAAAEAAABWc3RXAAAACAAAAAEAAAAAQ2NuSwAAFsNGQkNoAAAAAlB0OHEACAQBAAAAAAAAAAAAAAAAAAAAAAAAAAAAAAAAAAAAAAAAAAAAAAAAAAAAAAAAAAAAAAAA
        AAAAAAAAAAAAAAAAAAAAAAAAAAAAAAAAAAAAAAAAAAAAAAAAAAAAAAAAAAAAAAAAAAAAAAAAAAAAAAAAAAAAAAAAAAAAAAAAAAAAAAAAAAAAAAAAAAAWK6CYE/4CAAAA
        SDgSAN8VAAABAAAAEThWONMVAABQclZLKQAAAlhGVFDDFQAACgAAADIwMjUvMDMvMTcXAAAAUGlhbm90ZXEgOC40LjEvMjAyNTAyMDSd8nJaYGNJeIWa9/jbpqsOZGxs
        YYIVAAB0ZHRNfgcAABgAAABDUC04MCBMaW5lIE91dHB1dCAoY29weSkKAAAATXkgUHJlc2V0cwcAAABNb2RhcnR0QQAAAENvcHkgb2YgdGhlIG9yaWdpbmFsIENQLTgw
        IGluc3RydW1lbnQgd2l0aCBsaW5lIG91dHB1dCAobm8gbWljcykuAAAAAEQBAAARAAAAQ1AtODAgTGluZSBPdXRwdXQAAAAA3wYAAEdSVVUAAAAGAAAAAQPATVRyawAA
        BskA/wILIEsuUC5SYXVzY2gAkCZCey1TgQGwQAAbkDJJR4AmNCGQQGwANWgAPGIAgC1MBpA5ZDiAMjeBezUfGzk7GDxKA0A8fZBAZQA1awQ8ZAU5ZTKAOVwMPFEGNWEn
        QEiEHZAyNAwmPxmAMlIZJk2BPJBMcAdBYAZFZQBIYXOARSsXSDUATEonQSKDWZAtREqALVqCaZBIegBBcQY+ZwBFZAtDZjKAQzkgQVIYRUALPkArSEKDNZAyRxAmSTSA
        Ml0FJmGBWJA+XARBXgA5ZAY8U4IIgDkQCzwYDz4kHkEkbpAtWWSALVlxkDtkCkBmADdfgj6ANyZHQDETkDJCK4A7HwyQJjtCgDJQLSY0Q5A8aQVBcAg5YoI8gEEpJTks
        GTw+gSeQJlwAMmKBPkBrCzxdBDlhBTVkPoAyMi8mOVc5KQVAOyI1QQU8SYEQkEBpADVmADxhBTlgYYA5TRw8SwQ1SgZAR4NakDV3ADxxAEB2ADl2X4A5ZQs1YwY8XCFA
        UoM6kDJmK4AyY4FUkEx0C0FiAEVnB0haFUdWLYBHR3BMOyFBDQZIKgBFEzKQLXRDgC1TSZBKdQBDewBAewBHboIngEcYR7BAf4QugEA1M0MjMZBHM0SASj+BIEdCBpBA
        VYFPgEA3MJAmYw0yYIJvQ3UHSnMAQHIAR21CgDJHACZEa0M7Ckc9HUpUDkA5hkaQMmUFJm4csEAAgSuQNWsAOWwAQHAAPGWCHYBALwA1LRE5PBg8SIEPJjAAkDxkBjVn
        BUBoADlmSYAyQBE5VhY1UQY8VgVAQoQCkDx7AEB+ADV/ADl7MT48DYA+Qic5YAM1YRM8VStAToJ2kDJgIoAyXgWQJkAPgCZTgV+QSGgGTHEARWgGQV97gEVBC0E4EkhB
        AExEgV6QLWQ2gC1agWeQQHYASnUFQ3sAR3YzSEELgEhIXUMtLUo5BUcTPUAcgQuQMj8SJkEHgDJLECZUgUeQSHAFPmsARWwIQWiBe4A+CkdBKhFIOAeQLVwAgEU+QS1V
        gWuQSnMHR3EAQ3cAQHaBU4BKRSVHTQBDSAtALoEXkEhxBT5yBkFwC0VngVqwQH8RgEUkgTiQR10hgEEnET48PpBFOAmASD4/kEFCRIBHRiFFPh+QPkskgEFOXT5MSbBA
        ABuQMmUMJm+DYEBqFDxcADlkADVqXIA5VAA8UQ9AUQA1WQUmMk8yNIMxkDV/ADx4ADl+B0B/Z4A5YQ08VwA1Xx5AS4M3kC10OIAtVIFYkDVsAEBwADxkBzlngSaAOSoT
        NTALQDkAPD2BQpBAcAU8awY1bAU5a4hagEAoGDk+Bjw+CzU2J5AmbQYyZ4IzOW0GPGsFNWwEQHBqgCZNZLBAfxmAMlEaNU1AOUg7PFAAQEiESJAuS4FFsEAAFZA1WQ86
        TR0+XDNFXQdBQ3SAOkEysEB/SYA+VBRBQj5FSYMBkDotg0pGMGpKQj1NQl5RZIELgE1EFy48MDVPgS06PUmQTVcpgEoBgl+QSkgQgFEbN0YngQpKMAZNL4IzkEZEDT1G
        ADFVC1JaAElVCU1aE7BAAIIgQH8tgD0YYUYsNkk8FU0vgQ2QRkpIgFIOQkY3gi2QOEuDKT1qe4AxCBQ4KU89P2qQRl6CcElJgUKASVUtRjeDAZAwLoEEN1pnsEAABJBN
        WQVDUwtIWw1GWoIzsEB/gRWAQy6BIkYidZBDVzdGID2ATQIARhweSCM3QzSBKJA8ZVKAPGeCOZBGUAZNXgVIWIImgDdCETAZcEYiB0g3AJBDYRaATTCBEENMhD2QTFsY
        L2EGSVgARWEEQlNOsEAAgk1AfzSAQjCBHEUfLUkpAEwpUpBCVoEXgEI1g2QvT4V4kC5VALBAACOQSE0CREIGSz8FQUWBcLBAf4NVgEEGFS4pg1uQQT6FZYBEDxFBLRZI
        SDJLL4N7kCwWPzM2cDg3DrBAAACQRD8SgDM+EJBITQtLNA1PRYFisEB/hB2AOCeBRCwZakQXgVSQREQXgEgVA086MksvbEQ/gyCQKxlxMkCBEbBAACCQN0NwQUBqRycn
        sEB/gQSAQS4JkEs/PIBHTIIKNxOBRksGD5BHH4EHgEcsAJBBTYFTgEE7gXuQNzqCBT44hWWANw+BPz4uEJA7MIhXgDIBgVwrDosaO0KBIJAmOYFwsEAAN5AtP4E+sEB/
        gTOQMlGBSIAyW4EHkDZEIoAtPhomRIF3NicxkDlRgxg+WjKAOTyBPD48gSKQQkKDIUVKgjOARS9wkEpTgyOASiuBJ5BJFUKASRCCJJBKQIFzgEpNgwuQUT+HYYBRAYQA
        Qj+nXLBAAAD/LwBQcnNV9A0AAEkAAAAFAAAAY3AtODAAAAAABQAAAENQLTgwAAAAAAAAAABwcm9tVAAAAAEAAAABAAAAAQAAAAUAAABjcC04MAAAAAAFAAAAQ1AtODAA
        AIA/BgAAAAAAAAAAAAAAAAAAAAAAAAAAAAAAVEb/////AAAAAAAAAAAAAAAAAAAAAHJ5YWwQAAAAAgAAAAAAAAAAAAAA/////29sb3MRAAAAAQAAAAEAAABGAAAAAAAA
        AAABAAAAAQAAAAAAAAAAAAAAAQAAAAAAAAAAAAAAAQAAAAAAAAAAAAAAAQAAAAAAAAAAAAAAAQAAAAAAAAAAAAAAAQAAAAAAAAAAAAAAAQAAAAAAAAAAAAAAAQAAAAAA
        AAAAAAAAAQAAAAAAAAAAAAAAAAAAAAOAAABAAwAAAAAAqEEAAHBCAADYQgMAAAAAAAAAggMAAAABAAAAAAAAAAAAAAADAAAAAAAAAAAAAAAAAAAAAwAAAAAAAAAAAAAA
        AAAAAAMAAAABAAAAAQAAAAEAAAAAAIA/AAAAAAEAAAAAAMjCsTkQPgOAAABQAABwQgEAAAAAAIA/AQAAAAAAAAAAAAAAAACgwAAAoEAAALpCAAAAAAOAAABQAABwQgEA
        AAAAAAAAAAAAAAAAyMIAAMjCAQAAAAAAAAAAAAAAAACgwAAAoEAAAAAAA4AAAGACAAAAAACoQQAArkICAAAAAAAAAIEDgAAAYAIAAAAAAKhBAACuQgIAAAAAAIA/gYAA
        AAAAAAAA0gQAAAAAAAAAAAAAAAAAgAAAAD8AAIA/A4AAAGACAAAAAACoQQAArkICAAAAAAAAAIEDgAAAYAIAAAAAAKhBAACuQgIAAAAAAAAAgQOAAABgAgAAAAAAqEEA
        AK5CAgAAAAAAgD+BAgAAAAEAAABVAAAARXF1YWwgdGVtcGVyYW1lbnQKVGhlIHN0YW5kYXJkIHR1bmluZywgd2hlcmUgdGhlIG9jdGF2ZSBpcyBkaXZpZGVkIGluIDEy
        IGVxdWFsIHN0ZXBzLgwAAAAAAMhCAABIQwAAlkMAAMhDAAD6QwAAFkQAAC9EAABIRAAAYUQAAHpEAICJRAAAlkQBAAAAAAAAAAQAAAAAANxDPAAAAEUAAABGAAAAAH8A
        AAAAAAAABwAAAERlZmF1bHQAAAAAAAAAAAIAAAADgAAAYAIAAAAAAKhBAACuQgIAAAAAAAAAgQEAAAAAAAAAAACAPwEAAAABAAAAAQAAAAwAAAADgAAASAEAAAAAAIA/
        AAAAAD+nHEADgAAAYAIAAAAAAKhBAACuQgIAAAAAAIA/gQOAAABgAgAAAAAAqEEAAK5CAgAAAAAAgD+BA4AAAFAAAHpEAQAAAAAAAAADgAAAUAAAekQBAAAAAACAPwAA
        AAADgAAAUAAAcEIBAAAAAAAAAMt4B0ADgAAAUAAAcEIBAAAAAAAAAAEAAAAAAAAAAAAAAM3MzL3NzMw9AQAAAAAAAAAAAAAAAAAAvwAAAD8AAIA/A4AAAEADAAAAAACo
        QQAAcEIAANhCAwAAAAAAgD+CAAAAAAOAAABgAgAAAAAAqEEAAK5CAgAAAAAAgD+BAACAPwOAAABgAgAAAAAAqEEAAK5CAgAAAAAAgD+BAADwQQOAAABgAgAAAAAAqEEA
        AK5CAgAAAAAAAACBAACAPwOAAABAAwAAAAAAqEEAAHBCAADYQgMAAAAAAIA/ggOAAABIAQAAAAAAAAABAAAAA4AAAGACAAAAAAAAAAAAgD8CAAAAAAAAAAEAAIA/A4AA
        AGACAAAAAAAAAAAAgD8CAAAAAACAP4EDgAAAQAQAAAAAAAAAJpNJPv5+Pz8AAIA/BAAAAAAAAACBAACAP4EDgAAAYAIAAAAAAAAAAACAPwIAAAAAAAAAgQAAAADNzEw+
        AAAAAAAAAAAAAAAAAAAAPwAAAABmZqY/A4AAAGACAAAAAACoQQAArkICAAAAAACAP4EAAIC/AAAAPwOAAABgAgAAAAAAwEEAAJBCAgAAAAAAgD+BAQAAAAAAAAABAAAA
        CgAAAExvbmcgUGxhdGUJAAAAbG9uZ3BsYXRlAABAwQAAwEEAAIA/AAAAPwAAAAAAAAAAAAAAAAAAAAAAAAAAj8K1PwAAqkMAAIA/AACAPwEAAAAGAAAAAACAPwAAgD8D
        gAAAYFgAAAAAAKhBAACAP1gAAAAAAIA/lY/CdT8uXI+CPwAAgD+PwpU/rkchP0jhmj/Xo5A/uB6FP7geRT9mZoY/CteDP1K4Xj/NzEw/rkeBPwAAgD+uR4E/j8KVP+xR
        eD+4HoU/AACAPwrXgz+kcL0/7FGYPwrXoz8zM5M/ZmaGPwrXgz/helQ/FK6HP0jhej+4HoU/CtcjPzMzcz8Urkc/XI+CPwrXgz+PwnU/XI+CP0jhej8pXE8/CteDP+xR
        eD9I4Xo/uB6FP6RwfT9cj4I/SOF6P0jhej+BZmaGPxAAAIA/pHB9P1yPgj+uR4E/uB6FPwAAgD+kcH0/7FF4P65HgT8K14M/pHB9P65HgT8K14M/KVyPP0jhuj89ChdA
        A4AAAEADAAAAAACoQQAAcEIAANhCAwAAAAAAgD+CAAAAAAOAAABgAgAAAAAAqEEAAK5CAgAAAAAAAACBAQAAAAAAAAABAAAAAAAAPwAAAEADAAAA5ba3PwAAgD9IS4o+
        A4AAAEADAAAAAACoQQAAcEIAANhCAwAAAAAAgD+CA4AAAEADAAAAAACoQQAAcEIAANhCAwAAAAAAgD+CA4AAAEADAAAAAACoQQAAcEIAANhCAwAAAAAAgD+CAACAPwAA
        gD8HAAAAzczMPQAAAAAAAAAAAAAAAAAAgD4IAAAAAAAAAAAAAAAAAAAAAAAAAAAAAAAAAAAAAAAAAAAAAAADgAAAQAMAAAAAAKhBAABwQgAA2EIDAAAAAACAP4IDgAAA
        QAMAAAAAAKhBAABwQgAA2EIDAAAAAACAP4IDgAAAQAMAAAAAAKhBAABwQgAA2EIDAAAAAACAP4IDgAAAQAMAAAAAAKhBAABwQgAA2EIDAAAAAACAP4IBAAAAAQAAAAAA
        cEIDgAAAUAAAAAABAAAAAAAAAAAAAD4DgAAAYAIAAAAAAKhBAACuQgIAAAAAAIA/gQEAAAAAAAAAAQAAADMzMz9mZqY/AQAAAAAAAAABAAAAMzMzP2Zmpj8BAAAAAAAA
        AAEAAAAzMzM/ZmamPwEAAAAAAAAAAQAAADMzMz9mZqY/AQAAAAAAAAABAAAAMzMzP2Zmpj8BAAAAAAAAAAAA8EIAAAAADgAAAAAAAD/NzMw9zcxMPgAAAD8DAAAA/4Sr
        PQOAAABIAQAAAAAAAAAAAAAAA4AAAEgBAAAAAAAAAAQAAAACAAAAAwAAAAQAAAABAAAAAQAAAAAAgD8AAIA/AQAAAAEAAAABAAAAAQAAAAEAAAAAAIA/AAAAAAAAgEAA
        ALRCRgAAAAADgAAASAEAAAAAAAAAAAAAAAOAAABIAQAAAAAAAAAAAAAAAAAAAAOAAABIAQAAAAAAAAAAAAAAAwAAAAEAAAAAAAAAAAAAAA4AAAAQAAAAAAAAAAAAIEAA
        AABAAAAAAM3MTD8AAAAAAAAAAAAAAAAAAAAAAAAAAAAAAAAAAAAAAAAAAAAAAAAAAAAAAAAAAAMAAAAHAAAAAAAAAAAAAAAOAAAAEAAAAAAAAADNzMw9AACAPwAAAAAA
        AAAAAADwQQAAAAAAAAAAAAAAAAAAAAAAAAAAAAAAAAAAAAAAAAAAAAAAAAAAAAADAAAACAAAAAAAAAAAAAAADgAAABAAAAAAAAAAzczMPQAAAAAAAPDBmpmZvpqZmb6a
        mZk+AAAAAAAAAAAAAAAAAAAAAAAAAAAAAAAAAAAAAAAAAAAAAAAAAQAAAAEAAACz7zI/AAAQwQAAAAADAAAAAQAAAAAAAAABAAAABQAAAAQAAAABAAAAAwAAAGZmpj8A
        AIA/mpmZPwAAtEIAAAAAAAAAAAUAAAAAAAAAAADwwQAAwMIAAMDCAADAwgUAAAAAAAAAAAAAAAAAAAAAAAAAAAAAAAUAAAAAAAAAAAAAAAAAAAAAAAAAAAAAAAEAAAAA
        AAAABAAAAAEAAAADAAAAAADAPwAAAD+amZk/AAC0QgAAAAAAAAAABQAAAAAA8MEAAAAAAADAwgAAwMIAAMDCBQAAAAAAAAAAAAAAAAAAAAAAAAAAAAAABQAAAAAAAAAA
        AAAAAAAAAAAAAAAAAAAAAQAAAAAAAAAEAAAAAAAAAAMAAACPwvU/PQpXvx+Faz8AALRCAAAAAAAAAAAFAAAAAABAwQAAQMEAAHDCAABwwgAAcMIFAAAAAAAAAAAAAAAA
        AAAAAAAAAAAAAAAFAAAAAAAAAAAAAAAAAAAAAAAAAAAAAAABAAAAAAAAAAQAAAAAAAAAAwAAADMzM79cj8I+rkdhPwAAAAAAAAAAAAAAAAUAAAAAAEDBAABAwQAAcMIA
        AHDCAABwwgUAAAAAAAAAAAAAAAAAAAAAAAAAAAAAAAUAAAAAAAAAAAAAAAAAAAAAAAAAAAAAAAEAAAAAAAAABAAAAAAAAAADAAAAuB7FPz0KVz+uR+E/AAAAAAAAAAAA
        AAAABQAAAAAAQMEAAEDBAABwwgAAcMIAAHDCBQAAAAAAAAAAAAAAAAAAAAAAAAAAAAAABQAAAAAAAAAAAAAAAAAAAAAAAAAAAAAAAQAAAAAAAAABAAAAAAAAAAEAAAAD
        AAAApHA9PwAAAABI4bo/AACQQQAAAAAAAAAAAAAAAAEAAAAAAAAAAAAAAAAAAABKVUNFUHJpdmF0ZURhdGEAAQFCeXBhc3MAAQEDAB0AAAAAAAAASlVDRVByaXZhdGVE
        YXRhAAAAAAAAAAA=
        AHQxABAAAAA=
      >
      PRESETNAME t1
      FLOATPOS 32 149 592 662
      FXID {91E2A6F9-7E34-1F47-A5BC-5219D0E7C55B}
      WAK 0 0
      BYPASS 0 0 0
      <AU "AU: VCV Rack 2 FX (VCV)" "VCV: VCV Rack 2 FX" "" 1635085670 1447253574 1447253599
        6QMAAAAAAAAQAAAAAQAAAAAAAAACAAAAAAAAAAAAAAAAAAAAAAAAAAAAAAAAAAAAAAAAAAAAAAAAAAAAAAAAAAAAAAAAAAAAAAAAAAAAAAAAAAAAAAAAAAAAAAAAAAAA
        AAAAAAAAAAAAAAAAAAAAAAAAAAAAAAAAAAAAAAAAAAAAAAAAAAAAAAAAAAAQAAAAAQAAAAAAAAACAAAAAAAAAAAAAAAAAAAAAAAAAAAAAAAAAAAAAAAAAAAAAAAAAAAA
        AAAAAAAAAAAAAAAAAAAAAAAAAAAAAAAAAAAAAAAAAAAAAAAAAAAAAAAAAAAAAAAAAAAAAAAAAAAAAAAAAAAAAAAAAAAAAAAAAAAAAAAAAAAMCQAAPD94bWwgdmVyc2lv
        bj0iMS4wIiBlbmNvZGluZz0iVVRGLTgiPz4KPCFET0NUWVBFIHBsaXN0IFBVQkxJQyAiLS8vQXBwbGUvL0RURCBQTElTVCAxLjAvL0VOIiAiaHR0cDovL3d3dy5hcHBs
        ZS5jb20vRFREcy9Qcm9wZXJ0eUxpc3QtMS4wLmR0ZCI+CjxwbGlzdCB2ZXJzaW9uPSIxLjAiPgo8ZGljdD4KCTxrZXk+ZGF0YTwva2V5PgoJPGRhdGE+CglLTFV2L1FC
        STdTa0Eya2ZzRERkUVRkZ0EvM1FBQUFBQUVFRUtBRlMxTHo0dFcxL3VGM0czL3R6VTNJVU43QU9kT0Z1MwoJRGFYTXpKUSsyZU1lL256aE9kSU54QnVseWdDK0FNVUFq
        OTFkeFNFai9CZzd3aGFqYzM5TGZPenVLaFdXWVlwT0VBZ0QKCTU1RXllRmR4OU9MTGNLUldEN3lyT0dnbFVjdXdReWR6aWlyZVZSek1GcmN3WG9haitrd1NuZkN1OGdI
        Q2g3QzFzMzd1CglyYjN1anVxVVlkRm9xQ201c0NCWTNLNEd2N3ZYUXJDSVVEQkVnRWlNbUZnU0FCWnRvaG5SU1pVa0M0VWtrcmxFYWxNQQoJd0NLdzFnS3gxZ3F4SEVD
        QU1MRkNyTFVrMWxvYjFscHNyVFZnclNXeGxzSStZTEROdkZoTFlna3dFR0I3U1pPYXF0NzEKCTNzSHU5ZmZXM0h1dytYNWozYjNXT2RqZGE3bXdCRzRacGg2ZUJ4cWFD
        bUh3N3U3UzNiRXR3NVNhRGlna2ljeUpkM2NuCglURlR3TWt3amN3RnRuZ2wxZUhkM0ZRZDdMTU1TblR5U3c3djFjYXJKREU5cU9yME1PeGFSU2xXVGQ2VTdiOW5OUmRi
        ZgoJMmpMc1dGQ29jdW9GcFpIeFNHeGhvNkdUemtYNUhkMS9pNzM0TWt3cmFFNTRkemN5cFNuaDNWMUdtd21SS0JWWjFNZXAKCUpuZ1pocWhUSTB5bFNzSExjUFJrVkpE
        RThmcWxPL2Z0TDl1VGNCbDJIdDdkM1ZVK1RCU3FuQnJoWGNWaFlWZUI3cjI5CgkrTThmbEM4Zld6clFoQ3pERklRcW9PZ0VTcUtUNkdFUUNxMFM0WlBTTllmdjhMM1g3
        aTM5WHZ5R3JKODFLYVdFN1MzdAoJdkRuSldQdUxyTHU3R1d6L1lJcmp4WC9OTWZpa2UvOWVaQzlNb3RQVWFGQ2xCZzhKRkJMaWs5MGdoUEVaYlA5OHd4L0wKCThPTThF
        ZDZ0RjlRMElaWWVsMkdOaG5vYVVOT0VHbnNtVDRXR3BrSU43MUtuWG5TQXFvUjNsK0VKb2xFME5ScmVYY1doCglRZFVhbVhnWnBoblJkTUJCSW9HaVFyQ29zTGp3K002
        ZDlldVcvOUl0dzg3RGlvV3RFcFlvQlQwSkdvYzNxS3BTbFNSNgoJUEJ1S1JLbHBSdHlmeWRpT2ZiZkd2QnZLZDgrL1FlOTNyYjB6RzBhTS92SGhTK1lZWk80Y2ZRNmpH
        L2F6OWpGSzk4eXgKCUZ1RTNERWowMko2LzJQNlNOWHZHR0EzK1F3N3dNaXhWcURZd2VxS0hxaVJVVlNzSlZWV1A3bUo3TG5xL2QzY1lzMm51CglxMFQ0NHI5MHJEMzQz
        bVBzWFh2dHRXeXVPWHp2dlFaNzZmYU1QZWpQWFhkM1kreGp5Mi90WGJ2WXp0OHQzUnArczNiZQoJM1IwWlc5cWRZMUt5Mkk5MWQzdi95SWdtbEVCeFBLTlRnTmVvVVRF
        eWdNd0FBQURJMEFDUUFKQUNBSm1ocWdvU1FHQUEKCUVvakRISU5SQ0FVZ2pERkFBS0JSQUFBQkFCQUlpbVJxclFGcTlDZUV6RFVFTDhaUnNqN1k0YjI0NG1IS2czRHBH
        K3ptCgk2UXRvcDY3cW9yZVFrZGhrRUFocWlEU1FVNXlsQXJVRTFrcXRURFJVQ0cydmRHZFcrU091aHExZEZVVkV2ZzRBTmtRTwoJd1dBeFdOUHlOSHlEZGZBTExqMWdj
        Z1IyWUFOYmdBeGVFYjlLbytDSTI3bW10SjhzTG54dWVUVHVTMkx5aUVUdWk4L0YKCUN5U0J4aVhDZ3BYa1NTMEtQU2lqK2FZdDJoVWlqbU9xYnRoR3diNDJ5clhXYm9S
        MU9qUnJNM25RNnFZSkVzb2pKRm1RCglXYmhHRGhYcVh6Z1kyY0MyeXVBMFlneTRlTUlhQmMyNUtvQVVvRnRyTUVXNkZOYVNLYXRZY3RJRXhtUjBnR2hFa3lKeQoJa3lr
        cXowT0JuN2pma2RCM1B3Y1pyNGhOcVE3Q1lQYk11SnVnQVVuL0N0SVNOcFcwU2ltUjFtQWJQbEh6eklhdW1UbVAKCVFuY1Iza1FkQWpPRythaHRHdUNwL2J1SWd1OUQw
        M0RJVmtwbVBqR3JBVGlqc0tDMUVqVnIrWGFodzR0aERHVDNhS3FXCglhZy9ZZVR1RUFjSDdyVlg0cTUxamRvV2ZoZzF5UktBRG44Z3BKSHBwUFZ5b2VRTHQ0TklpQ2F5
        aG1EcUlSbm0xaTRFZQoJM3VwR3NqSEhhaVBMQUdTUmR3Q0VvMnpvQWNrMHNIZS9TV2pvY2c3WXJYajFBR0dpVlRoVHI3WDBsMXlnTW9QL2QzSjEKCThUb1E0N3BLVkdP
        Rk5iK1hsY1c4Z2NHSk1VemZEdjRICgk8L2RhdGE+Cgk8a2V5Pm1hbnVmYWN0dXJlcjwva2V5PgoJPGludGVnZXI+MTQ0NzI1MzU5OTwvaW50ZWdlcj4KCTxrZXk+bmFt
        ZTwva2V5PgoJPHN0cmluZz5WQ1ZSYWNrPC9zdHJpbmc+Cgk8a2V5PnN1YnR5cGU8L2tleT4KCTxpbnRlZ2VyPjE0NDcyNTM1NzQ8L2ludGVnZXI+Cgk8a2V5PnR5cGU8
        L2tleT4KCTxpbnRlZ2VyPjE2MzUwODU2NzA8L2ludGVnZXI+Cgk8a2V5PnZlcnNpb248L2tleT4KCTxpbnRlZ2VyPjE8L2ludGVnZXI+CjwvZGljdD4KPC9wbGlzdD4K
        AQAAAAAAAAAAAA==
      >
      FLOATPOS 0 0 0 0
      FXID {C1059196-686E-1A4D-877E-BD5E4D4E47DE}
      WAK 0 0
    >
  >
  <TRACK {AE27D663-6904-6441-8A40-6C873EE6EB72}
    NAME "Organteq 2"
    PEAKCOL 16576
    BEAT -1
    AUTOMODE 0
    PANLAWFLAGS 3
    VOLPAN 0.35823646268172 0 -1 -1 1
    MUTESOLO 0 0 0
    IPHASE 0
    PLAYOFFS 0 1
    ISBUS 0 0
    BUSCOMP 0 0 0 0 0
    SHOWINMIX 1 0.6667 0.5 1 0.5 0 0 0
    FIXEDLANES 9 0 0 0 0
    SEL 0
    REC 1 5088 1 0 0 0 0 0
    VU 2
    TRACKHEIGHT 0 0 0 0 0 0 0
    INQ 0 0 0 0.5 100 0 0 100
    NCHAN 2
    FX 1
    TRACKID {AE27D663-6904-6441-8A40-6C873EE6EB72}
    PERF 0
    AUXRECV 0 0 1 0 0 0 0 0 0 -1:U 36 -1 ''
    MIDIOUT -1
    MAINSEND 1 0
    <FXCHAIN
      WNDRECT 32 220 1175 591
      SHOW 0
      LASTSEL 0
      DOCKED 0
      BYPASS 0 0 0
      <VST "VST3i: Organteq 2 (Modartt) (8 out)" "Organteq 2.vst3" 0 "" 993579055{5653544F7432716F7267616E74657120} ""
        L9A4O+5e7f4AAAAACAAAAAEAAAAAAAAAAgAAAAAAAAAEAAAAAAAAAAgAAAAAAAAAEAAAAAAAAAAgAAAAAAAAAEAAAAAAAAAAgAAAAAAAAACDhwAAAQAAAP//EAA=
        c4cAAAEAAABWc3RXAAAACAAAAAEAAAAAQ2NuSwAAh1tGQkNoAAAAAk90MnEAAgECAAAAAAAAAAAAAAAAAAAAAAAAAAAAAAAAAAAAAAAAAAAAAAAAAAAAAAAAAAAAAAAA
        AAAAAAAAAAAAAAAAAAAAAAAAAAAAAAAAAAAAAAAAAAAAAAAAAAAAAAAAAAAAAAAAAAAAAAAAAAAAAAAAAAAAAAAAAAAAAAAAAAAAAAAAAAAAAAAAAACGw6CYE/4CAAAA
        SDgSAHeGAAABAAAAEThWOGuGAABQclZLBAAAAlhGVFBbhgAACgAAADIwMjUvMDMvMTkXAAAAT3JnYW50ZXEgMi4xLjIvMjAyNDEyMTdcwCy4O0rvl7YQl+c7e/HsZGxs
        YRqGAAB0ZHRNPgcAAA8AAABSb21hbnRpYyBDaGFwZWwAAAAABwAAAE1vZGFydHRUAAAAQSB0d28tbWFudWFsIG9yZ2FuIG9mIEZyZW5jaCBSb21hbnRpYyBpbnNwaXJh
        dGlvbi4gUXVpdGUgbWluaW1hbCwgYnV0IGFsc28gcG93ZXJmdWwuAQAAAAEAAAAPAAAARnJlbmNoIFJvbWFudGljRAEAAA8AAABSb21hbnRpYyBDaGFwZWyOBgAAR1JV
        VQAAAAYAAQAGA8BNVHJrAAAAPQD/AhhWLiBNb25pbiAtIEltcHJvdmlzYXRpb24A/wMZT3JnYW50ZXEgLSBPcmlnaW5hbCBJbnB1dAD/LwBNVHJrAAABhQD/AxVPcmdh
        bnRlcSAtIEtleWJvYXJkIDGKepA+fwA+f41NgD4AAD4AJJA8fwA8f4hEgDwAATwAhUuQPn8BPn+NbYA+AAA+ABiQPH8APH+IUYA8AAA8AIV1kD9/AT9/jmM+fwE+fy6A
        PwABPwCIaD4AAT4AhimQQH8BQH+OUoBAAABAAAaQPn8APn+GHoA+AAA+ABiQPH8APH+GTDt/ADt/B4A8AAA8AI0GkDl/ADl/ZIA7AAA7AIxPOQAAOQCLJZA3fwA3f4tp
        gDcAADcAcpA1fwI1f443gDUAAzUAiweQK38CK3+JAoArAAIrAIQIkCZ/ASZ/lRiAJgAAJgCPIZAkfwEkf555gCQAAiQAiWyQLX8DLX+TLS9/Ay9/CYAtAAMtAIVaLwAD
        LwAVkDF/AzF/hT2AMQADMQBhkDJ/AzJ/hW40fwM0fz2AMgADMgCGBJA2fwM2f3OANAADNACGWzYAAzYAgTOQOH8DOH+KTjl/Azl/CYA4AAM4AKpZOQADOQAA/y8ATVRy
        awAAAB0A/wMVT3JnYW50ZXEgLSBLZXlib2FyZCAyAP8vAE1UcmsAAALNAP8DFU9yZ2FudGVxIC0gS2V5Ym9hcmQgM4pOkkB/AEB/Hjx/ADx/B0N/AEN/lUqCPAABPAAL
        QwABQwAdQAABQACGH5JFfwFFfwU+fwE+fwY8fwE8fy9CfwFCf5R3gjwAATwABkUAAUUAC0IAAUIAFz4AAT4AhneSRn8CRn8EPH8CQ38APH8CQ38iP38CP3+VcYJDAAND
        AD4/AAM/AARGAANGACY8AAM8AIcAkjx/Akd/Ajx/Akd/CEB/AkN/AkB/AkN/tRaCQwACRwACQwACRwATQAAEQAAIPAAEPACLYJI+fwJKfwI+fwJKfwNDfwRDfwI6fwJG
        fwI6fwJGfwE3fwQ3f4kdgj4ABD4AgT5DAARDAEpKAARKAA5GAARGAAc6AAQ6AEM3AAQ3ABCSPH8CQX8CSH8APH8CQX8CSH8BOX8EOX8ERX8CTX8CRX8CTX+HA4JBAANB
        ADI5AAM5ABw8AAM8AIZLTQADTQAPSAADSAAWRQADRQCKTZI+fwQ+fw03fwJDfwJKfwA3fwJDfwJKfwE6fwQ6fwVGfwRGf4swgkMABEMAW0oABEoAQ5JKfwRKfwE2fwQ2
        fwM5fwKCRgACkjl/AoI3AABGAAKSRX8CgjcAApJFfw1CfwRCfxqCOgAEOgCTJjkABDkAAjYABDYAAz4ABD4AA0UABEUAAkIABEIAOEoABEoAkCOSPH8EPH8IQ38EQ38O
        QH8FQH8JTH8FTH8HSH8FSH+FdoJIAAVIAAKSTn8FTn8HSn8FSn8UgkwABUwAhkFKAAVKABpOAAVOABmSTH8FTH8CT38FT3+PMYI8AAU8AAJDAAVDAAlMAAVMAAZAAAVA
        AAlPAAVPAIs9kkp/AlF/Akp/AlF/AkV/Ak5/AkV/Ak5/AT5/AkJ/Aj5/AkJ/6QSCRQAGQgAARQACSgAEQgACSgABTgAGTgABUQAGUQAFPgAGPgAA/y8ATVRyawAAAB0A
        /wMVT3JnYW50ZXEgLSBLZXlib2FyZCA0AP8vAE1UcmsAAAGHAPAKC31zOQIJAAAA9wDwCgt9czkCCwEBAPcA8AoLfXM5AgEABX/3APAKC31zOQIBAQJ/9wDwCgt9czkC
        AQEGf/cA8AoLfXM5AgECBX/3APAKC31zOQIBAwN/9wDwCgt9czkCAQMIf/cA8AoLfXM5AgUAfwD3AP8DF09yZ2FudGVxIC0gUmVnaXN0cmF0aW9ugS3wCgt9czkBCQAA
        APcA8AoLfXM5AQsBAQD3APAKC31zOQEBAAZ/9wDwCgt9czkBAQECf/cA8AoLfXM5AQEBBX/3APAKC31zOQEBAgR/9wDwCgt9czkBAQMDf/cA8AoLfXM5AQEDCH/3APAK
        C31zOQEFfwAA9yTwCgt9czkCAwAAAPeBK/AKC31zOQIDAAAA95448AoLfXM5AQp/AAD3nHvwCgt9czkBCn8AAPeeEfAKC31zOQEKfwAA97tp8AoLfXM5AQp/AAD3pXjw
        Cgt9czkBCn8AAPeuDPAKC31zOQEKfwAA964t8AoLfXM5AQp/AAD3AP8vAFByc1XMfgAAFAAAAAYAAAAxc3RvcmcAAAAADAAAAENodXJjaCBPcmdhbgAAAAAAANxDA4AA
        AFAAAHBCAQAAAAAAAAAAAAAAAAAAAHRZVMABAAAAAAAAAAEAAAAKAAAATGFyZ2UgSGFsbAoAAABsYXJnZWhhbGwyUFVhQQAA8EEAAIA/jEEQQAAAAAAAAAAAAAAAAAAA
        AAAAAAAAAQAAAAEAAAAAAIA/AABAwQAAAAAEAAAAAQAAAAEAAAAEAAAABAAAAAEAAAADAAAAAAAAAM3MzL4AAAAAAABhwwAAAAAAAAAABAAAAAAAAAAAABDBAADAwgAA
        wMIEAAAAAAAAAI/C9TwAAAAAAAAAAAQAAAAAAAAAAAAAAAAAAAAAAAAAAQAAAAAAAAAEAAAAAQAAAAMAAAAAAAAAzczMPgAAAAAAADRCAAAAAAAAAAAEAAAAAAAQwQAA
        AAAAAMDCAADAwgQAAACPwvU8AAAAAAAAAAAAAAAABAAAAAAAAAAAAAAAAAAAAAAAAAABAAAAAAAAAAQAAAAAAAAAAwAAAAAAgD9mZma/AABAwAAAAAAAAAAAAAAAAAQA
        AAAAAEDBAABAwQAAcMIAAHDCBAAAAAAAAAAAAAAAAAAAAAAAAAAEAAAAAAAAAAAAAAAAAAAAAAAAAAEAAAAAAAAABAAAAAAAAAADAAAAAACAP2ZmZj8AAEDAAAAAAAAA
        AAAAAAAABAAAAAAAQMEAAEDBAABwwgAAcMIEAAAAAAAAAAAAAAAAAAAAAAAAAAQAAAAAAAAAAAAAAAAAAAAAAAAAAQAAAAAAAAABAAAAAQAAAAEAAAADAAAAAADAPwAA
        gD8AAMA/AACQQQAA8EIAAAAAAAAAAAgAAAAIAAAAAQAAAAAAAAAAAAAAAAAAAAAAAAAAAAAAAAAAAAAAAAAIAAAAAAAAAAEAAAAAAAAAAAAAAAAAAAAAAAAAAAAAAAAA
        AAAIAAAAAAAAAAAAAAAAAAAAAAAAAAEAAAAAAAAAAAAAAAAAAAAIAAAAAAAAAAAAAAAAAAAAAAAAAAAAAAABAAAAAAAAAAAAAAAIAAAAAAAAAAAAAAABAAAAAAAAAAAA
        AAAAAAAAAAAAAAAAAAAIAAAAAAAAAAAAAAAAAAAAAQAAAAAAAAAAAAAAAAAAAAAAAAAIAAAAAAAAAAAAAAAAAAAAAAAAAAAAAAAAAAAAAQAAAAAAAAAIAAAAAAAAAAAA
        AAAAAAAAAAAAAAAAAAAAAAAAAAAAAAEAAABAc9Y+atYgPwIAAAATAAAAT25lIGtleWJvYXJkIHNpbXBsZUADAAAZo+A4OAMAAAEAAAAAAAAAAAAAAAwAAAADAAAADAAA
        AENvbnRyb2xsZXIgMRoAAAB7U2V0UGFyYW1ldGVyfDN8Q3JuZFB8MDoxfQMAAAANAAAAQ29udHJvbGxlciAxMR4AAAB7U2V0UGFyYW1ldGVyfDN8RXhwclBkWzFdfDA6
        MX0DAAAACwAAAE5vdGUgMDI1IE9uLAAAAHtUb2dnbGVQYXJhbWV0ZXJ8M3xDb21iaW5hdGlvblN3aXRjaFsxXXwwOjF9AwAAAAsAAABOb3RlIDAyNyBPbiwAAAB7VG9n
        Z2xlUGFyYW1ldGVyfDN8Q29tYmluYXRpb25Td2l0Y2hbMl18MDoxfQMAAAALAAAATm90ZSAwMzAgT24sAAAAe1RvZ2dsZVBhcmFtZXRlcnwzfENvbWJpbmF0aW9uU3dp
        dGNoWzNdfDA6MX0DAAAACwAAAE5vdGUgMDMyIE9uLAAAAHtUb2dnbGVQYXJhbWV0ZXJ8M3xDb21iaW5hdGlvblN3aXRjaFs0XXwwOjF9AwAAAAsAAABOb3RlIDAzNCBP
        biwAAAB7VG9nZ2xlUGFyYW1ldGVyfDN8Q29tYmluYXRpb25Td2l0Y2hbNV18MDoxfQMAAAALAAAATm90ZSAwOTcgT24sAAAAe1RvZ2dsZVBhcmFtZXRlcnwzfENvbWJp
        bmF0aW9uU3dpdGNoWzZdfDA6MX0DAAAACwAAAE5vdGUgMDk5IE9uLAAAAHtUb2dnbGVQYXJhbWV0ZXJ8M3xDb21iaW5hdGlvblN3aXRjaFs3XXwwOjF9AwAAAAsAAABO
        b3RlIDEwMiBPbiwAAAB7VG9nZ2xlUGFyYW1ldGVyfDN8Q29tYmluYXRpb25Td2l0Y2hbOF18MDoxfQMAAAALAAAATm90ZSAxMDQgT24sAAAAe1RvZ2dsZVBhcmFtZXRl
        cnwzfENvbWJpbmF0aW9uU3dpdGNoWzldfDA6MX0DAAAACwAAAE5vdGUgMTA2IE9uLQAAAHtUb2dnbGVQYXJhbWV0ZXJ8M3xDb21iaW5hdGlvblN3aXRjaFsxMF18MDox
        fQEAAAABAAAAAQAAAP7/AAAkAAAAYAAAAAIAAAAAAAAAAQAAAAQAAAAAAAAACgAAABQAAAAoAAAABAAAAAoAAAAKAAAAFAAAAAoAAAAyAAAACQAAAAcAAABGMzJCcmRu
        AACAvwOAAABIAQAAAAAAAAAAAAAAA4AAAEgBAAAAAAAAAGB7178DgAAASAEAAAAAAAAAmpmZPgOAAABIAQAAAAAAgD/iL7JAA4AAAEgBAAAAAAAAAAJGzj4DgAAASAEA
        AAAAAAAAAACAPwOAAABIAQAAAAAAgD8AAAAAAgAAABgAAAAAAAAAAAAAAAAAAAAAAAAAAAAAAAAAAAAAAAAAAAAAAAAAAAAAAAAAAAAAAAAAAAAAAAAAAAAAAAAAAAAA
        AAAAAAAAAAAAAAAAAAAAAAAAAAAAAAAAAAAAAAAAAAAAAAD/////AAAAAEYJAAAABwAAAEYxNlBjcGyM4LY/A4AAAEgBAAAAAAAAAAAAAAADgAAASAEAAAAAAAAAAAAA
        AAOAAABIAQAAAAAAAACamZk+A4AAAEgBAAAAAACAPwAAAAADgAAASAEAAAAAAAAA0EgNPwOAAABIAQAAAAAAAAAAAIA/A4AAAEgBAAAAAACAPwAAAAD/////GAAAAAAA
        AAAAAAAAAAAAAAAAAAAAAAAAAAAAAAAAAAAAAAAAAAAAAAAAAAAAAAAAAAAAAAAAAAAAAAAAAAAAAAAAAAAAAAAAAAAAAAAAAAAAAAAAAAAAAAAAAAAAAAAAAAAAAP//
        //8AAAAARgkAAAAHAAAARjE2QnJkbgAAAAADgAAASAEAAAAAAAAAAAAAAAOAAABIAQAAAAAAAAAAAAAAA4AAAEgBAAAAAAAAAJqZmT4DgAAASAEAAAAAAIA/AAAAAAOA
        AABIAQAAAAAAAAC3Fjc/A4AAAEgBAAAAAAAAAAAAgD8DgAAASAEAAAAAAIA/AAAAAAIAAAAYAAAAAAAAAAAAAAAAAAAAAAAAAAAAAAAAAAAAAAAAAAAAAAAAAAAAAAAA
        AAAAAAAAAAAAAAAAAAAAAAAAAAAAAAAAAAAAAAAAAAAAAAAAAAAAAAAAAAAAAAAAAAAAAAAAAAAA/////wAAAABGCQAAAAYAAABGOFBjcGwAAAAAA4AAAEgBAAAAAAAA
        AAAAAAADgAAASAEAAAAAAAAAAAAAAAOAAABIAQAAAAAAAACamZk+A4AAAEgBAAAAAACAPwAAAAADgAAASAEAAAAAAAAAbXXgPgOAAABIAQAAAAAAAAAAAIA/A4AAAEgB
        AAAAAACAPwAAAAD/////GAAAAAAAAAAAAAAAAAAAAAAAAAAAAAAAAAAAAAAAAAAAAAAAAAAAAAAAAAAAAAAAAAAAAAAAAAAAAAAAAAAAAAAAAAAAAAAAAAAAAAAAAAAA
        AAAAAAAAAAAAAAAAAAAAAAAAAP////8AAAAARgkAAAAGAAAARjhCcmRuAAAAAAOAAABIAQAAAAAAAAAAAAAAA4AAAEgBAAAAAAAAAAAAAAADgAAASAEAAAAAAAAAmpmZ
        PgOAAABIAQAAAAAAgD88CRFAA4AAAEgBAAAAAAAAABfzBT8DgAAASAEAAAAAAAAAAACAPwOAAABIAQAAAAAAgD8AAAAAAgAAABgAAAAAAAAAAAAAAAAAAAAAAAAAAAAA
        AAAAAAAAAAAAAAAAAAAAAAAAAAAAAAAAAAAAAAAAAAAAAAAAAAAAAAAAAAAAAAAAAAAAAAAAAAAAAAAAAAAAAAAAAAAAAAAAAAAAAAD/////AAAAAEYJAAAABgAAAEY4
        Rmx1dAAAAMADgAAASAEAAAAAAAAAAAAAAAOAAABIAQAAAAAAAAAAAAAAA4AAAEgBAAAAAAAAAJqZmT4DgAAASAEAAAAAAIA/AAAAAAOAAABIAQAAAAAAAADWJEQ/A4AA
        AEgBAAAAAAAAAAAAgD8DgAAASAEAAAAAAIA/AAAAAAIAAAAYAAAAAAAAAAAAAAAAAAAAAAAAAAAAAAAAAAAAAAAAAAAAAAAAAAAAAAAAAAAAAAAAAAAAAAAAAAAAAAAA
        AAAAAAAAAAAAAAAAAAAAAAAAAAAAAAAAAAAAAAAAAAAAAAAAAAAA/////wAAAABGCQAAAAYAAABGNEZsdXQAAIC/A4AAAEgBAAAAAAAAAAAAAAADgAAASAEAAAAAAAAA
        AAAAAAOAAABIAQAAAAAAAACamZk+A4AAAEgBAAAAAACAPwAAAAADgAAASAEAAAAAAAAAD+hGPwOAAABIAQAAAAAAAAAAAIA/A4AAAEgBAAAAAACAPwAAAAACAAAAGAAA
        AAAAAAAAAAAAAAAAAAAAAAAAAAAAAAAAAAAAAAAAAAAAAAAAAAAAAAAAAAAAAAAAAAAAAAAAAAAAAAAAAAAAAAAAAAAAAAAAAAAAAAAAAAAAAAAAAAAAAAAAAAAAAAAA
        AP////8AAAAARgkAAAAIAAAAUjE2VEJvbWIAAEBAA4AAAEgBAAAAAAAAAAAAAAADgAAASAEAAAAAAAAAAAAAAAOAAABIAQAAAAAAAACamZk+A4AAAEgBAAAAAACAPwAA
        AAADgAAASAEAAAAAAAAADA1VPwOAAABIAQAAAAAAAAAAAIA/A4AAAEgBAAAAAACAPwAAAAACAAAAGAAAAAAAAAAAAAAAAAAAAAAAAAAAAAAAAAAAAAAAAAAAAAAAAAAA
        AAAAAAAAAAAAAAAAAAAAAAAAAAAAAAAAAAAAAAAAAAAAAAAAAAAAAAAAAAAAAAAAAAAAAAAAAAAAAAAAAP////8AAAAARgkAAAAGAAAAUjhUcnB0AACAPwOAAABIAQAA
        AAAAAAAAAAAAA4AAAEgBAAAAAAAAAAAAAAADgAAASAEAAAAAAAAAmpmZPgOAAABIAQAAAAAAgD8AAAAAA4AAAEgBAAAAAAAAAIC0Gj8DgAAASAEAAAAAAAAAAACAPwOA
        AABIAQAAAAAAgD8AAAAAAgAAABgAAAAAAAAAAAAAAAAAAAAAAAAAAAAAAAAAAAAAAAAAAAAAAAAAAAAAAAAAAAAAAAAAAAAAAAAAAAAAAAAAAAAAAAAAAAAAAAAAAAAA
        AAAAAAAAAAAAAAAAAAAAAAAAAAAAAAD/////AAAAAEYJAAAABgAAAFI0Q2xybjgzysADgAAASAEAAAAAAAAAAAAAAAOAAABIAQAAAAAAAAAAAAAAA4AAAEgBAAAAAAAA
        AJqZmT4DgAAASAEAAAAAAIA/AAAAAAOAAABIAQAAAAAAAACamqE+A4AAAEgBAAAAAAAAAAAAgD8DgAAASAEAAAAAAIA/AAAAAAIAAAAYAAAAAAAAAAAAAAAAAAAAAAAA
        AAAAAAAAAAAAAAAAAAAAAAAAAAAAAAAAAAAAAAAAAAAAAAAAAAAAAAAAAAAAAAAAAAAAAAAAAAAAAAAAAAAAAAAAAAAAAAAAAAAAAAAAAAAA/////wAAAABGCQAAAAAA
        AAAAAAAAA4AAAEgBAAAAAAAAAAAAAAADgAAASAEAAAAAAAAAAAAAAAOAAABIAQAAAAAAAACamZk+A4AAAEgBAAAAAACAPwAAAAADgAAASAEAAAAAAAAAAAAAPwOAAABI
        AQAAAAAAAAAAAIA/A4AAAEgBAAAAAACAPwAAAAD/////GAAAAAAAAAAAAAAAAAAAAAAAAAAAAAAAAAAAAAAAAAAAAAAAAAAAAAAAAAAAAAAAAAAAAAAAAAAAAAAAAAAA
        AAAAAAAAAAAAAAAAAAAAAAAAAAAAAAAAAAAAAAAAAAAAAAAAAP////8AAAAARgkAAAAAAAAAAAAAAAOAAABIAQAAAAAAAAAAAAAAA4AAAEgBAAAAAAAAAAAAAAADgAAA
        SAEAAAAAAAAAmpmZPgOAAABIAQAAAAAAgD8AAAAAA4AAAEgBAAAAAAAAAAAAAD8DgAAASAEAAAAAAAAAAACAPwOAAABIAQAAAAAAgD8AAAAA/////xgAAAAAAAAAAAAA
        AAAAAAAAAAAAAAAAAAAAAAAAAAAAAAAAAAAAAAAAAAAAAAAAAAAAAAAAAAAAAAAAAAAAAAAAAAAAAAAAAAAAAAAAAAAAAAAAAAAAAAAAAAAAAAAAAAAAAAD/////AAAA
        AEYJAAAAAAAAAAAAAAADgAAASAEAAAAAAAAAAAAAAAOAAABIAQAAAAAAAAAAAAAAA4AAAEgBAAAAAAAAAJqZmT4DgAAASAEAAAAAAIA/AAAAAAOAAABIAQAAAAAAAAAA
        AAA/A4AAAEgBAAAAAAAAAAAAgD8DgAAASAEAAAAAAIA/AAAAAP////8YAAAAAAAAAAAAAAAAAAAAAAAAAAAAAAAAAAAAAAAAAAAAAAAAAAAAAAAAAAAAAAAAAAAAAAAA
        AAAAAAAAAAAAAAAAAAAAAAAAAAAAAAAAAAAAAAAAAAAAAAAAAAAAAAAAAAAA/////wAAAABGCQAAAAAAAAAAAAAAA4AAAEgBAAAAAAAAAAAAAAADgAAASAEAAAAAAAAA
        AAAAAAOAAABIAQAAAAAAAACamZk+A4AAAEgBAAAAAACAPwAAAAADgAAASAEAAAAAAAAAAAAAPwOAAABIAQAAAAAAAAAAAIA/A4AAAEgBAAAAAACAPwAAAAD/////GAAA
        AAAAAAAAAAAAAAAAAAAAAAAAAAAAAAAAAAAAAAAAAAAAAAAAAAAAAAAAAAAAAAAAAAAAAAAAAAAAAAAAAAAAAAAAAAAAAAAAAAAAAAAAAAAAAAAAAAAAAAAAAAAAAAAA
        AP////8AAAAARgkAAAAAAAAAAAAAAAOAAABIAQAAAAAAAAAAAAAAA4AAAEgBAAAAAAAAAAAAAAADgAAASAEAAAAAAAAAmpmZPgOAAABIAQAAAAAAgD8AAAAAA4AAAEgB
        AAAAAAAAAAAAAD8DgAAASAEAAAAAAAAAAACAPwOAAABIAQAAAAAAgD8AAAAA/////xgAAAAAAAAAAAAAAAAAAAAAAAAAAAAAAAAAAAAAAAAAAAAAAAAAAAAAAAAAAAAA
        AAAAAAAAAAAAAAAAAAAAAAAAAAAAAAAAAAAAAAAAAAAAAAAAAAAAAAAAAAAAAAAAAAAAAAD/////AAAAAEYJAAAAAAAAAAAAAAADgAAASAEAAAAAAAAAAAAAAAOAAABI
        AQAAAAAAAAAAAAAAA4AAAEgBAAAAAAAAAJqZmT4DgAAASAEAAAAAAIA/AAAAAAOAAABIAQAAAAAAAAAAAAA/A4AAAEgBAAAAAAAAAAAAgD8DgAAASAEAAAAAAIA/AAAA
        AP////8YAAAAAAAAAAAAAAAAAAAAAAAAAAAAAAAAAAAAAAAAAAAAAAAAAAAAAAAAAAAAAAAAAAAAAAAAAAAAAAAAAAAAAAAAAAAAAAAAAAAAAAAAAAAAAAAAAAAAAAAA
        AAAAAAAAAAAA/////wAAAABGCQAAAAAAAAAAAAAAA4AAAEgBAAAAAAAAAAAAAAADgAAASAEAAAAAAAAAAAAAAAOAAABIAQAAAAAAAACamZk+A4AAAEgBAAAAAACAPwAA
        AAADgAAASAEAAAAAAAAAAAAAPwOAAABIAQAAAAAAAAAAAIA/A4AAAEgBAAAAAACAPwAAAAD/////GAAAAAAAAAAAAAAAAAAAAAAAAAAAAAAAAAAAAAAAAAAAAAAAAAAA
        AAAAAAAAAAAAAAAAAAAAAAAAAAAAAAAAAAAAAAAAAAAAAAAAAAAAAAAAAAAAAAAAAAAAAAAAAAAAAAAAAP////8AAAAARgkAAAAAAAAAAAAAAAOAAABIAQAAAAAAAAAA
        AAAAA4AAAEgBAAAAAAAAAAAAAAADgAAASAEAAAAAAAAAmpmZPgOAAABIAQAAAAAAgD8AAAAAA4AAAEgBAAAAAAAAAAAAAD8DgAAASAEAAAAAAAAAAACAPwOAAABIAQAA
        AAAAgD8AAAAA/////xgAAAAAAAAAAAAAAAAAAAAAAAAAAAAAAAAAAAAAAAAAAAAAAAAAAAAAAAAAAAAAAAAAAAAAAAAAAAAAAAAAAAAAAAAAAAAAAAAAAAAAAAAAAAAA
        AAAAAAAAAAAAAAAAAAAAAAD/////AAAAAEYJAAAAAAAAAAAAAAADgAAASAEAAAAAAAAAAAAAAAOAAABIAQAAAAAAAAAAAAAAA4AAAEgBAAAAAAAAAJqZmT4DgAAASAEA
        AAAAAIA/AAAAAAOAAABIAQAAAAAAAAAAAAA/A4AAAEgBAAAAAAAAAAAAgD8DgAAASAEAAAAAAIA/AAAAAP////8YAAAAAAAAAAAAAAAAAAAAAAAAAAAAAAAAAAAAAAAA
        AAAAAAAAAAAAAAAAAAAAAAAAAAAAAAAAAAAAAAAAAAAAAAAAAAAAAAAAAAAAAAAAAAAAAAAAAAAAAAAAAAAAAAAAAAAA/////wAAAABGCQAAAAAAAAAAAAAAA4AAAEgB
        AAAAAAAAAAAAAAADgAAASAEAAAAAAAAAAAAAAAOAAABIAQAAAAAAAACamZk+A4AAAEgBAAAAAACAPwAAAAADgAAASAEAAAAAAAAAAAAAPwOAAABIAQAAAAAAAAAAAIA/
        A4AAAEgBAAAAAACAPwAAAAD/////GAAAAAAAAAAAAAAAAAAAAAAAAAAAAAAAAAAAAAAAAAAAAAAAAAAAAAAAAAAAAAAAAAAAAAAAAAAAAAAAAAAAAAAAAAAAAAAAAAAA
        AAAAAAAAAAAAAAAAAAAAAAAAAAAAAAAAAP////8AAAAARgkAAAAIAAAARjE2UGNwbDL837U/A4AAAEgBAAAAAAAAAAAAAAADgAAASAEAAAAAAAAAAAAAAAOAAABIAQAA
        AAAAAACamZk+A4AAAEgBAAAAAACAPwAAAAADgAAASAEAAAAAAAAA47u0PgOAAABIAQAAAAAAAAAAAIA/A4AAAEgBAAAAAACAPwAAAAD/////GAAAAAAAAAAAAAAAAAAA
        AAAAAAAAAAAAAAAAAAAAAAAAAAAAAAAAAAAAAAAAAAAAAAAAAAAAAAAAAAAAAAAAAAAAAAAAAAAAAAAAAAAAAAAAAAAAAAAAAAAAAAAAAAAAAAAAAAEAAAAAAAAARgkA
        AAAHAAAARjE2UXVpboRgScADgAAASAEAAAAAAAAAAAAAAAOAAABIAQAAAAAAAABIWPC/A4AAAEgBAAAAAAAAAJqZmT4DgAAASAEAAAAAAIA/AAAAAAOAAABIAQAAAAAA
        AAAFtjM/A4AAAEgBAAAAAAAAAAAAgD8DgAAASAEAAAAAAIA/AAAAAAAAAAAYAAAAAAAAAAAAAAAAAAAAAAAAAAAAAAAAAAAAAAAAAAAAAAAAAAAAAAAAAAAAAAAAAAAA
        AAAAAAAAAAAAAAAAAAAAAAAAAAAAAAAAAAAAAAAAAAAAAAAAAAAAAAAAAAAAAAAAAQAAAAAAAABGCQAAAAcAAABGOFBjcGwy/N+1PwOAAABIAQAAAAAAAAAAAAAAA4AA
        AEgBAAAAAAAAAAAAAAADgAAASAEAAAAAAAAAmpmZPgOAAABIAQAAAAAAgD8AAAAAA4AAAEgBAAAAAAAAAOO7tD4DgAAASAEAAAAAAAAAAACAPwOAAABIAQAAAAAAgD8A
        AAAA/////xgAAAAAAAAAAAAAAAAAAAAAAAAAAAAAAAAAAAAAAAAAAAAAAAAAAAAAAAAAAAAAAAAAAAAAAAAAAAAAAAAAAAAAAAAAAAAAAAAAAAAAAAAAAAAAAAAAAAAA
        AAAAAAAAAAAAAAABAAAAAAAAAEYJAAAABgAAAEY4Rmx0VGAisD4DgAAASAEAAAAAAAAAAAAAAAOAAABIAQAAAAAAAAAAAAAAA4AAAEgBAAAAAAAAAJqZmT4DgAAASAEA
        AAAAAIA/AAAAAAOAAABIAQAAAAAAAAA27Q4/A4AAAEgBAAAAAAAAAAAAgD8DgAAASAEAAAAAAIA/AAAAAAAAAAAYAAAAAAAAAAAAAAAAAAAAAAAAAAAAAAAAAAAAAAAA
        AAAAAAAAAAAAAAAAAAAAAAAAAAAAAAAAAAAAAAAAAAAAAAAAAAAAAAAAAAAAAAAAAAAAAAAAAAAAAAAAAAAAAAAAAAAAAQAAAAAAAABGCQAAAAYAAABGNEZsdXQMycE/
        A4AAAEgBAAAAAAAAAAAAAAADgAAASAEAAAAAAAAAAAAAAAOAAABIAQAAAAAAAACamZk+A4AAAEgBAAAAAACAPwAAAAADgAAASAEAAAAAAAAANe0FPwOAAABIAQAAAAAA
        AAAAAIA/A4AAAEgBAAAAAACAPwAAAAAAAAAAGAAAAAAAAAAAAAAAAAAAAAAAAAAAAAAAAAAAAAAAAAAAAAAAAAAAAAAAAAAAAAAAAAAAAAAAAAAAAAAAAAAAAAAAAAAA
        AAAAAAAAAAAAAAAAAAAAAAAAAAAAAAAAAAAAAAAAAAEAAAAAAAAARgkAAAAGAAAARjRQY3Bs/N+1PwOAAABIAQAAAAAAAAAAAAAAA4AAAEgBAAAAAAAAAAAAAAADgAAA
        SAEAAAAAAAAAmpmZPgOAAABIAQAAAAAAgD8AAAAAA4AAAEgBAAAAAAAAAOO7tD4DgAAASAEAAAAAAAAAAACAPwOAAABIAQAAAAAAgD8AAAAA/////xgAAAAAAAAAAAAA
        AAAAAAAAAAAAAAAAAAAAAAAAAAAAAAAAAAAAAAAAAAAAAAAAAAAAAAAAAAAAAAAAAAAAAAAAAAAAAAAAAAAAAAAAAAAAAAAAAAAAAAAAAAAAAAAAAAAAAAABAAAAAAAA
        AEYJAAAABQAAAEYzTmFzAACAPwOAAABIAQAAAAAAAAAAAAAAA4AAAEgBAAAAAAAAAAAAAAADgAAASAEAAAAAAAAAmpmZPgOAAABIAQAAAAAAgD8AAAAAA4AAAEgBAAAA
        AAAAAPV/kz4DgAAASAEAAAAAAAAAAACAPwOAAABIAQAAAAAAgD8AAAAAAAAAABgAAAAAAAAAAAAAAAAAAAAAAAAAAAAAAAAAAAAAAAAAAAAAAAAAAAAAAAAAAAAAAAAA
        AAAAAAAAAAAAAAAAAAAAAAAAAAAAAAAAAAAAAAAAAAAAAAAAAAAAAAAAAAAAAAAAAAABAAAAAAAAAEYJAAAABgAAAEYyRG91YjioCcADgAAASAEAAAAAAAAAAAAAAAOA
        AABIAQAAAAAAAAAAAAAAA4AAAEgBAAAAAAAAAJqZmT4DgAAASAEAAAAAAIA/AAAAAAOAAABIAQAAAAAAAABLXK0+A4AAAEgBAAAAAAAAAAAAgD8DgAAASAEAAAAAAIA/
        AAAAAAAAAAAYAAAAAAAAAAAAAAAAAAAAAAAAAAAAAAAAAAAAAAAAAAAAAAAAAAAAAAAAAAAAAAAAAAAAAAAAAAAAAAAAAAAAAAAAAAAAAAAAAAAAAAAAAAAAAAAAAAAA
        AAAAAAAAAAAAAAAAAQAAAAAAAABGCQAAAAYAAABGMVRpZXIAAAAAA4AAAEgBAAAAAAAAAAAAAAADgAAASAEAAAAAAAAAAAAAAAOAAABIAQAAAAAAAACamZk+A4AAAEgB
        AAAAAACAPwAAAAADgAAASAEAAAAAAAAAAACAPwOAAABIAQAAAAAAAAAAAIA/A4AAAEgBAAAAAACAPwAAAAAAAAAAGAAAAAAAAAAAAAAAAAAAAAAAAAAAAAAAAAAAAAAA
        AAAAAAAAAAAAAAAAAAAAAAAAAAAAAAAAAAAAAAAAAAAAAAAAAAAAAAAAAAAAAAAAAAAAAAAAAAAAAAAAAAAAAAAAAAAAAAEAAAAAAAAARgkAAAAGAAAARjJTZXB0s4K4
        wAOAAABIAQAAAAAAAAAAAAAAA4AAAEgBAAAAAAAAAAAAAAADgAAASAEAAAAAAAAAG7HXPgOAAABIAQAAAAAAgD8AAAAAA4AAAEgBAAAAAAAAAEbbAz4DgAAASAEAAAAA
        AAAAAACAPwOAAABIAQAAAAAAgD8AAAAAAAAAABgAAAAAAAAAAAAAAAAAAAAAAAAAAAAAAAAAAAAAAAAAAAAAAAAAAAAAAAAAAAAAAAAAAAAAAAAAAAAAAAAAAAAAAAAA
        AAAAAAAAAAAAAAAAAAAAAAAAAAAAAAAAAAAAAAAAAAABAAAAAAAAAEYJAAAABAAAAEZ4Q1YwnUa/A4AAAEgBAAAAAAAAAAAAAAADgAAASAEAAAAAAAAAAAAAAAOAAABI
        AQAAAAAAAACamZk+A4AAAEgBAAAAAACAPwAAAAADgAAASAEAAAAAAAAAHEQPPwOAAABIAQAAAAAAAAAAAIA/A4AAAEgBAAAAAACAPwAAAAAAAAAAGAAAAAAAAAAAAAAA
        AAAAAAAAAAAAAAAAAAAAAAAAAAAAAAAAAAAAAAAAAAAAAAAAAAAAAAAAAAAAAAAAAAAAAAAAAAAAAAAAAAAAAAAAAAAAAAAAAAAAAAAAAAAAAAAAAAAAAAEAAAAAAAAA
        RgkAAAAGAAAARnhQbEozwNn4vgOAAABIAQAAAAAAAAAAAAAAA4AAAEgBAAAAAAAAAAAAAAADgAAASAEAAAAAAAAAmpmZPgOAAABIAQAAAAAAgD8AAAAAA4AAAEgBAAAA
        AAAAAEF0GT8DgAAASAEAAAAAAAAAAACAPwOAAABIAQAAAAAAgD8AAAAAAAAAABgAAAAAAAAAAAAAAAAAAAAAAAAAAAAAAAAAAAAAAAAAAAAAAAAAAAAAAAAAAAAAAAAA
        AAAAAAAAAAAAAAAAAAAAAAAAAAAAAAAAAAAAAAAAAAAAAAAAAAAAAAAAAAAAAAAAAAABAAAAAAAAAEYJAAAABwAAAFIxNkJhc3MAAOBAA4AAAEgBAAAAAAAAAAAAAAAD
        gAAASAEAAAAAAAAAnHedvwOAAABIAQAAAAAAAACamZk+A4AAAEgBAAAAAACAPwAAAAADgAAASAEAAAAAAAAAQr9FPwOAAABIAQAAAAAAAAAAAIA/A4AAAEgBAAAAAACA
        PwAAAAAAAAAAGAAAAAAAAAAAAAAAAAAAAAAAAAAAAAAAAAAAAAAAAAAAAAAAAAAAAAAAAAAAAAAAAAAAAAAAAAAAAAAAAAAAAAAAAAAAAAAAAAAAAAAAAAAAAAAAAAAA
        AAAAAAAAAAAAAAAAAAEAAAAAAAAARgkAAAAGAAAAUjhUcnB0eG/gPwOAAABIAQAAAAAAAAAAAAAAA4AAAEgBAAAAAAAAAAAAAAADgAAASAEAAAAAAAAAmpmZPgOAAABI
        AQAAAAAAgD8AAAAAA4AAAEgBAAAAAAAAAB96Tj4DgAAASAEAAAAAAAAAAACAPwOAAABIAQAAAAAAgD8AAAAAAAAAABgAAAAAAAAAAAAAAAAAAAAAAAAAAAAAAAAAAAAA
        AAAAAAAAAAAAAAAAAAAAAAAAAAAAAAAAAAAAAAAAAAAAAAAAAAAAAAAAAAAAAAAAAAAAAAAAAAAAAAAAAAAAAAAAAAAAAAABAAAAAAAAAEYJAAAABgAAAFI4Q2xydAAA
        gEADgAAASAEAAAAAAAAAAAAAAAOAAABIAQAAAAAAAAAAAAAAA4AAAEgBAAAAAAAAAJqZmT4DgAAASAEAAAAAAIA/AAAAAAOAAABIAQAAAAAAAABO+8k+A4AAAGA9AAAA
        AAAQQgAAgD89AAAA7FfLvQvCW0a+c/GBvnuCnr6yII++nbuKvohWhr6os3a+aoRpvipVXL4W8Fe+AItTvgCLU76B7CVPvgGsxEW+rMRFvoQQyjO+CnbPIb7a1A++fLT7
        vUi/170UyrO92NSPvUC/V73Q1A+94NSPvAAAAAAAAAAAnAAAgD8DgAAASAEAAAAAAIA/AAAAAAAAAAAYAAAAAAAAAAAAAAAAAAAAAAAAAAAAAAAAAAAAAAAAAAAAAAAA
        AAAAAAAAAAAAAAAAAAAAAAAAAAAAAAAAAAAAAAAAAAAAAAAAAAAAAAAAAAAAAAAAAAAAAAAAAAAAAAAAAAAAAQAAAAAAAABGCQAAAAAAAAAAAAAAA4AAAEgBAAAAAAAA
        AAAAAAADgAAASAEAAAAAAAAAAAAAAAOAAABIAQAAAAAAAACamZk+A4AAAEgBAAAAAACAPwAAAAADgAAASAEAAAAAAAAAAAAAPwOAAABIAQAAAAAAAAAAAIA/A4AAAEgB
        AAAAAACAPwAAAAD/////GAAAAAAAAAAAAAAAAAAAAAAAAAAAAAAAAAAAAAAAAAAAAAAAAAAAAAAAAAAAAAAAAAAAAAAAAAAAAAAAAAAAAAAAAAAAAAAAAAAAAAAAAAAA
        AAAAAAAAAAAAAAAAAAAAAAAAAP////8AAAAARgkAAAAAAAAAAAAAAAOAAABIAQAAAAAAAAAAAAAAA4AAAEgBAAAAAAAAAAAAAAADgAAASAEAAAAAAAAAmpmZPgOAAABI
        AQAAAAAAgD8AAAAAA4AAAEgBAAAAAAAAAAAAAD8DgAAASAEAAAAAAAAAAACAPwOAAABIAQAAAAAAgD8AAAAA/////xgAAAAAAAAAAAAAAAAAAAAAAAAAAAAAAAAAAAAA
        AAAAAAAAAAAAAAAAAAAAAAAAAAAAAAAAAAAAAAAAAAAAAAAAAAAAAAAAAAAAAAAAAAAAAAAAAAAAAAAAAAAAAAAAAAAAAAD/////AAAAAEYJAAAAAAAAAAAAAAADgAAA
        SAEAAAAAAAAAAAAAAAOAAABIAQAAAAAAAAAAAAAAA4AAAEgBAAAAAAAAAJqZmT4DgAAASAEAAAAAAIA/AAAAAAOAAABIAQAAAAAAAAAAAAA/A4AAAEgBAAAAAAAAAAAA
        gD8DgAAASAEAAAAAAIA/AAAAAP////8YAAAAAAAAAAAAAAAAAAAAAAAAAAAAAAAAAAAAAAAAAAAAAAAAAAAAAAAAAAAAAAAAAAAAAAAAAAAAAAAAAAAAAAAAAAAAAAAA
        AAAAAAAAAAAAAAAAAAAAAAAAAAAAAAAAAAAA/////wAAAABGCQAAAAAAAAAAAAAAA4AAAEgBAAAAAAAAAAAAAAADgAAASAEAAAAAAAAAAAAAAAOAAABIAQAAAAAAAACa
        mZk+A4AAAEgBAAAAAACAPwAAAAADgAAASAEAAAAAAAAAAAAAPwOAAABIAQAAAAAAAAAAAIA/A4AAAEgBAAAAAACAPwAAAAD/////GAAAAAAAAAAAAAAAAAAAAAAAAAAA
        AAAAAAAAAAAAAAAAAAAAAAAAAAAAAAAAAAAAAAAAAAAAAAAAAAAAAAAAAAAAAAAAAAAAAAAAAAAAAAAAAAAAAAAAAAAAAAAAAAAAAAAAAP////8AAAAARgkAAAAAAAAA
        AAAAAAOAAABIAQAAAAAAAAAAAAAAA4AAAEgBAAAAAAAAAAAAAAADgAAASAEAAAAAAAAAmpmZPgOAAABIAQAAAAAAgD8AAAAAA4AAAEgBAAAAAAAAAAAAAD8DgAAASAEA
        AAAAAAAAAACAPwOAAABIAQAAAAAAgD8AAAAA/////xgAAAAAAAAAAAAAAAAAAAAAAAAAAAAAAAAAAAAAAAAAAAAAAAAAAAAAAAAAAAAAAAAAAAAAAAAAAAAAAAAAAAAA
        AAAAAAAAAAAAAAAAAAAAAAAAAAAAAAAAAAAAAAAAAAAAAAD/////AAAAAEYJAAAABgAAAEY4QnJkbgAAAMADgAAASAEAAAAAAAAAAAAAAAOAAABIAQAAAAAAAAAAAAAA
        A4AAAEgBAAAAAAAAAP+iuT4DgAAASAEAAAAAAIA/AAAAAAOAAABIAQAAAAAAAAB6zL8+A4AAAEgBAAAAAAAAAAAAgD8DgAAASAEAAAAAAIA/AAAAAAEAAAAYAAAAAAAA
        AAAAAAAAAAAAAAAAAAAAAAAAAAAAAAAAAAAAAAAAAAAAAAAAAAAAAAAAAAAAAAAAAAAAAAAAAAAAAAAAAAAAAAAAAAAAAAAAAAAAAAAAAAAAAAAAAAAAAAAAAAAAAAAA
        AAAAAABGCQAAAAYAAABGOEdhbWIAUGy/A4AAAEgBAAAAAAAAAAAAAAADgAAASAEAAAAAAAAAAAAAAAOAAABIAQAAAAAAAACamZk+A4AAAEgBAAAAAACAPwAAAAADgAAA
        SAEAAAAAAAAArW63PgOAAABIAQAAAAAAAAAAAIA/A4AAAEgBAAAAAACAPwAAAAABAAAAGAAAAAAAAAAAAAAAAAAAAAAAAAAAAAAAAAAAAAAAAAAAAAAAAAAAAAAAAAAA
        AAAAAAAAAAAAAAAAAAAAAAAAAAAAAAAAAAAAAAAAAAAAAAAAAAAAAAAAAAAAAAAAAAAAAAAAAAAAAAAAAAAARgkAAAAGAAAARjhWeGNsOH/WvwOAAABIAQAAAAAAAAAA
        AAAAA4AAAEgBAAAAAAAAAAAAAAADgAAASAEAAAAAAAAAhOjbPgOAAABIAQAAAAAAgD8AAAAAA4AAAEgBAAAAAAAAAC0hwj4DgAAASAEAAAAAAAAAAACAPwOAAABIAQAA
        AAAAgD8AAAAAAQAAABgAAAAAAAAAAAAAAAAAAAAAAAAAAAAAAAAAAAAAAAAAAAAAAAAAAAAAAAAAAAAAAAAAAAAAAAAAAAAAAAAAAAAAAAAAAAAAAAAAAAAAAAAAAAAA
        AAAAAAAAAAAAAAAAAAAAAAAAAAAAAAAAAEYJAAAABgAAAEY0Rmx1dFALG78DgAAASAEAAAAAAAAAAAAAAAOAAABIAQAAAAAAAAAAAAAAA4AAAEgBAAAAAAAAAHkfuD4D
        gAAASAEAAAAAAIA/AAAAAAOAAABIAQAAAAAAAADnPQQ+A4AAAEgBAAAAAAAAAAAAgD8DgAAASAEAAAAAAIA/AAAAAAEAAAAYAAAAAAAAAAAAAAAAAAAAAAAAAAAAAAAA
        AAAAAAAAAAAAAAAAAAAAAAAAAAAAAAAAAAAAAAAAAAAAAAAAAAAAAAAAAAAAAAAAAAAAAAAAAAAAAAAAAAAAAAAAAAAAAAAAAAAAAAAAAAAAAABGCQAAAAYAAABGM0Zs
        dXQkwWrAA4AAAEgBAAAAAAAAAAAAAAADgAAASAEAAAAAAAAAAAAAAAOAAABIAQAAAAAAAACamZk+A4AAAEgBAAAAAACAPwAAAAADgAAASAEAAAAAAAAAhgMfPwOAAABI
        AQAAAAAAAAAAAIA/A4AAAEgBAAAAAACAPwAAAAABAAAAGAAAAAAAAAAAAAAAAAAAAAAAAAAAAAAAAAAAAAAAAAAAAAAAAAAAAAAAAAAAAAAAAAAAAAAAAAAAAAAAAAAA
        AAAAAAAAAAAAAAAAAAAAAAAAAAAAAAAAAAAAAAAAAAAAAAAAAAAAAAAAAAAARgkAAAAGAAAARjJEb3ViID5JQAOAAABIAQAAAAAAAAAAAAAAA4AAAEgBAAAAAAAAAAAA
        AAADgAAASAEAAAAAAAAAmpmZPgOAAABIAQAAAAAAgD8AAAAAA4AAAEgBAAAAAAAAANLjxz0DgAAASAEAAAAAAAAAAACAPwOAAABIAQAAAAAAgD8AAAAAAQAAABgAAAAA
        AAAAAAAAAAAAAAAAAAAAAAAAAAAAAAAAAAAAAAAAAAAAAAAAAAAAAAAAAAAAAAAAAAAAAAAAAAAAAAAAAAAAAAAAAAAAAAAAAAAAAAAAAAAAAAAAAAAAAAAAAAAAAAAA
        AAAAAAAAAEYJAAAABgAAAEYxTHJndMaBicADgAAASAEAAAAAAAAAAAAAAAOAAABIAQAAAAAAAAAAAAAAA4AAAEgBAAAAAAAAAJqZmT4DgAAASAEAAAAAAIA/AAAAAAOA
        AABIAQAAAAAAAAARPV4+A4AAAEgBAAAAAAAAAAAAgD8DgAAASAEAAAAAAIA/AAAAAAEAAAAYAAAAAAAAAAAAAAAAAAAAAAAAAAAAAAAAAAAAAAAAAAAAAAAAAAAAAAAA
        AAAAAAAAAAAAAAAAAAAAAAAAAAAAAAAAAAAAAAAAAAAAAAAAAAAAAAAAAAAAAAAAAAAAAAAAAAAAAAAAAAAAAABGCQAAAAQAAABGeENWkGPBwAOAAABIAQAAAAAAAAAA
        AAAAA4AAAEgBAAAAAAAAAAAAAAADgAAASAEAAAAAAAAAmpmZPgOAAABIAQAAAAAAgD8AAAAAA4AAAEgBAAAAAAAAAJLvRD4DgAAASAEAAAAAAAAAAACAPwOAAABIAQAA
        AAAAgD8AAAAAAQAAABgAAAAAAAAAAAAAAAAAAAAAAAAAAAAAAAAAAAAAAAAAAAAAAAAAAAAAAAAAAAAAAAAAAAAAAAAAAAAAAAAAAAAAAAAAAAAAAAAAAAAAAAAAAAAA
        AAAAAAAAAAAAAAAAAAAAAAAAAAAAAAAAAEYJAAAABgAAAFI4SHRic84SpUADgAAASAEAAAAAAAAAAAAAAAOAAABIAQAAAAAAAAAAAAAAA4AAAEgBAAAAAAAAAJqZmT4D
        gAAASAEAAAAAAIA/AAAAAAOAAABIAQAAAAAAAABSlj8/A4AAAEgBAAAAAAAAAAAAgD8DgAAASAEAAAAAAIA/AAAAAAEAAAAYAAAAAAAAAAAAAAAAAAAAAAAAAAAAAAAA
        AAAAAAAAAAAAAAAAAAAAAAAAAAAAAAAAAAAAAAAAAAAAAAAAAAAAAAAAAAAAAAAAAAAAAAAAAAAAAAAAAAAAAAAAAAAAAAAAAAAAAAAAAAAAAABGCQAAAAYAAABSOFZ4
        aHWPNZdAA4AAAEgBAAAAAAAAAAAAAAADgAAASAEAAAAAAAAAAAAAAAOAAABIAQAAAAAAAACamZk+A4AAAEgBAAAAAACAPwAAAAADgAAASAEAAAAAAAAAAJvHPgOAAABI
        AQAAAAAAAAAAAIA/A4AAAEgBAAAAAACAPwAAAAABAAAAGAAAAAAAAAAAAAAAAAAAAAAAAAAAAAAAAAAAAAAAAAAAAAAAAAAAAAAAAAAAAAAAAAAAAAAAAAAAAAAAAAAA
        AAAAAAAAAAAAAAAAAAAAAAAAAAAAAAAAAAAAAAAAAAAAAAAAAAMAAAAAAAAARgYAAAACAAAAAAAAAAMAAAAAAAAARgAAAACAAAAAGAAAAAAAAAABAAAAAQAAAAEAAAAB
        AAAAAQAAAAEAAAABAAAAAQAAAAEAAAABAAAAAQAAAAEAAAABAAAAAQAAAAEAAAABAAAAAQAAAAEAAAABAAAAAQAAAAEAAAABAAAAAQAAAAIAAAAAAAAAAgAAAAAAAABG
        AAAAAIAAAAAYAAAAAAAAAAEAAAABAAAAAQAAAAEAAAABAAAAAQAAAAEAAAABAAAAAQAAAAEAAAABAAAAAQAAAAEAAAABAAAAAQAAAAEAAAABAAAAAQAAAAEAAAABAAAA
        AQAAAAEAAAABAAAAAgAAAAIAAAADAAAAAAAAAEYAAAAAgAAAABgAAAAAAAAAAQAAAAEAAAABAAAAAQAAAAEAAAABAAAAAQAAAAEAAAABAAAAAQAAAAEAAAABAAAAAQAA
        AAEAAAABAAAAAQAAAAEAAAABAAAAAQAAAAEAAAABAAAAAQAAAAEAAAACAAAAAwAAAAMAAAAMAAAARgAAAACAAAAAGAAAAAAAAAABAAAAAQAAAAEAAAABAAAAAQAAAAEA
        AAABAAAAAQAAAAEAAAABAAAAAQAAAAEAAAABAAAAAQAAAAEAAAABAAAAAQAAAAEAAAABAAAAAQAAAAEAAAABAAAAAQAAAAIAAAD//////////wAAAABGAAAAAIAAAAAY
        AAAAAAAAAAEAAAABAAAAAQAAAAEAAAABAAAAAQAAAAEAAAABAAAAAQAAAAEAAAABAAAAAQAAAAEAAAABAAAAAQAAAAEAAAABAAAAAQAAAAEAAAABAAAAAQAAAAEAAAAB
        AAAAAgAAAP//////////AAAAAEYAAAAAgAAAABgAAAAAAAAAAQAAAAEAAAABAAAAAQAAAAEAAAABAAAAAQAAAAEAAAABAAAAAQAAAAEAAAABAAAAAQAAAAEAAAABAAAA
        AQAAAAEAAAABAAAAAQAAAAEAAAABAAAAAQAAAAEAAAABAAAAZAAAAAEAAAATAAAAUm9tYW50aWMgVHdvLU1hbnVhbAoAAAADAAAACgAAAAMAAAABAAAAAAAAAAEAAAD/
        //////////////8BAAAAAwAAAAEAAAACAAAAAAAAAP///////////////wEAAAADAAAAAQAAAAIAAAACAAAA////////////////AQAAAAMAAAABAAAAAgAAAAUAAAD/
        //////////////8BAAAAAwAAAAEAAAADAAAAAQAAAP///////////////wEAAAADAAAAAQAAAAMAAAACAAAA////////////////AQAAAAMAAAABAAAA////////////
        /////////wAAAAAAAAAAAwAAAAEAAAD/////////////////////AQAAAAAAAAADAAAAAQAAAP////////////////////8CAAAAAAAAAAMAAAABAAAA////////////
        /////////wMAAAAAAAAAAwAAAA4AAAADAAAAAQAAAAAAAAAAAAAA////////////////AQAAAAMAAAABAAAAAAAAAAIAAAD///////////////8BAAAAAwAAAAEAAAAA
        AAAAAwAAAP///////////////wEAAAADAAAAAQAAAAIAAAAAAAAA////////////////AQAAAAMAAAABAAAAAgAAAAIAAAD///////////////8BAAAAAwAAAAEAAAAC
        AAAABQAAAP///////////////wEAAAADAAAAAQAAAAIAAAAHAAAA////////////////AQAAAAMAAAABAAAAAwAAAAAAAAD///////////////8BAAAAAwAAAAEAAAAD
        AAAAAwAAAP///////////////wEAAAADAAAAAQAAAAMAAAAGAAAA////////////////AQAAAAMAAAABAAAA/////////////////////wAAAAAAAAAAAwAAAAEAAAD/
        ////////////////////AQAAAAAAAAADAAAAAQAAAP////////////////////8CAAAAAAAAAAMAAAABAAAA/////////////////////wMAAAAAAAAAAwAAAA8AAAAD
        AAAAAQAAAAAAAAAEAAAA////////////////AQAAAAMAAAABAAAAAAAAAAUAAAD///////////////8BAAAAAwAAAAEAAAAAAAAABgAAAP///////////////wEAAAAD
        AAAAAQAAAAIAAAADAAAA////////////////AQAAAAMAAAABAAAAAgAAAAQAAAD///////////////8BAAAAAwAAAAEAAAACAAAABQAAAP///////////////wEAAAAD
        AAAAAQAAAAIAAAAOAAAA////////////////AQAAAAMAAAABAAAAAwAAAAMAAAD///////////////8BAAAAAwAAAAEAAAADAAAABAAAAP///////////////wEAAAAD
        AAAAAQAAAAMAAAAFAAAA////////////////AQAAAAMAAAABAAAAAwAAAAcAAAD///////////////8BAAAAAwAAAAEAAAD/////////////////////AAAAAAAAAAAD
        AAAAAQAAAP////////////////////8BAAAAAAAAAAMAAAABAAAA/////////////////////wIAAAAAAAAAAwAAAAEAAAD/////////////////////AwAAAAAAAAAD
        AAAAEQAAAAMAAAABAAAAAAAAAAAAAAD///////////////8BAAAAAwAAAAEAAAAAAAAAAQAAAP///////////////wEAAAADAAAAAQAAAAAAAAADAAAA////////////
        ////AQAAAAMAAAABAAAAAAAAAAUAAAD///////////////8BAAAAAwAAAAEAAAAAAAAACAAAAP///////////////wEAAAADAAAAAQAAAAIAAAAAAAAA////////////
        ////AQAAAAMAAAABAAAAAgAAAAIAAAD///////////////8BAAAAAwAAAAEAAAACAAAABQAAAP///////////////wEAAAADAAAAAQAAAAIAAAAHAAAA////////////
        ////AQAAAAMAAAABAAAAAgAAAAoAAAD///////////////8BAAAAAwAAAAEAAAADAAAAAAAAAP///////////////wEAAAADAAAAAQAAAAMAAAAJAAAA////////////
        ////AQAAAAMAAAABAAAA////////////////AwAAAP////8BAAAAAwAAAAEAAAD/////////////////////AAAAAAAAAAADAAAAAQAAAP////////////////////8B
        AAAAAAAAAAMAAAABAAAA/////////////////////wIAAAAAAAAAAwAAAAEAAAD/////////////////////AwAAAAAAAAADAAAADwAAAAMAAAABAAAAAAAAAAEAAAD/
        //////////////8BAAAAAwAAAAEAAAAAAAAAAwAAAP///////////////wEAAAADAAAAAQAAAAAAAAAGAAAA////////////////AQAAAAMAAAABAAAAAgAAAAEAAAD/
        //////////////8BAAAAAwAAAAEAAAACAAAAAwAAAP///////////////wEAAAADAAAAAQAAAAIAAAAEAAAA////////////////AQAAAAMAAAABAAAAAgAAAAYAAAD/
        //////////////8BAAAAAwAAAAEAAAADAAAAAAAAAP///////////////wEAAAADAAAAAQAAAAMAAAADAAAA////////////////AQAAAAMAAAABAAAAAwAAAAUAAAD/
        //////////////8BAAAAAwAAAAEAAAD//////////wMAAAD//////////wEAAAADAAAAAQAAAP////////////////////8AAAAAAAAAAAMAAAABAAAA////////////
        /////////wEAAAAAAAAAAwAAAAEAAAD/////////////////////AgAAAAAAAAADAAAAAQAAAP////////////////////8DAAAAAAAAAAMAAAAVAAAAAwAAAAEAAAAA
        AAAAAAAAAP///////////////wEAAAADAAAAAQAAAAAAAAABAAAA////////////////AQAAAAMAAAABAAAAAAAAAAIAAAD///////////////8BAAAAAwAAAAEAAAAA
        AAAAAwAAAP///////////////wEAAAADAAAAAQAAAAAAAAAEAAAA////////////////AQAAAAMAAAABAAAAAAAAAAcAAAD///////////////8BAAAAAwAAAAEAAAAA
        AAAACAAAAP///////////////wEAAAADAAAAAQAAAAIAAAAAAAAA////////////////AQAAAAMAAAABAAAAAgAAAAIAAAD///////////////8BAAAAAwAAAAEAAAAC
        AAAABAAAAP///////////////wEAAAADAAAAAQAAAAIAAAAGAAAA////////////////AQAAAAMAAAABAAAAAgAAAAoAAAD///////////////8BAAAAAwAAAAEAAAAC
        AAAADAAAAP///////////////wEAAAADAAAAAQAAAAMAAAABAAAA////////////////AQAAAAMAAAABAAAAAwAAAAQAAAD///////////////8BAAAAAwAAAAEAAAAD
        AAAABQAAAP///////////////wEAAAADAAAAAQAAAAMAAAAGAAAA////////////////AQAAAAMAAAABAAAA/////////////////////wAAAAAAAAAAAwAAAAEAAAD/
        ////////////////////AQAAAAAAAAADAAAAAQAAAP////////////////////8CAAAAAAAAAAMAAAABAAAA/////////////////////wMAAAAAAAAAAwAAABIAAAAD
        AAAAAQAAAAAAAAAAAAAA////////////////AQAAAAMAAAABAAAAAAAAAAIAAAD///////////////8BAAAAAwAAAAEAAAAAAAAABAAAAP///////////////wEAAAAD
        AAAAAQAAAAAAAAAGAAAA////////////////AQAAAAMAAAABAAAAAAAAAAcAAAD///////////////8BAAAAAwAAAAEAAAACAAAAAAAAAP///////////////wEAAAAD
        AAAAAQAAAAIAAAACAAAA////////////////AQAAAAMAAAABAAAAAgAAAAYAAAD///////////////8BAAAAAwAAAAEAAAACAAAACAAAAP///////////////wEAAAAD
        AAAAAQAAAAIAAAAJAAAA////////////////AQAAAAMAAAABAAAAAgAAAAsAAAD///////////////8BAAAAAwAAAAEAAAADAAAAAAAAAP///////////////wEAAAAD
        AAAAAQAAAAMAAAAEAAAA////////////////AQAAAAMAAAABAAAAAwAAAAgAAAD///////////////8BAAAAAwAAAAEAAAD/////////////////////AAAAAAAAAAAD
        AAAAAQAAAP////////////////////8BAAAAAAAAAAMAAAABAAAA/////////////////////wIAAAAAAAAAAwAAAAEAAAD/////////////////////AwAAAAAAAAAD
        AAAAEgAAAAMAAAABAAAAAAAAAAAAAAD///////////////8BAAAAAwAAAAEAAAAAAAAAAgAAAP///////////////wEAAAADAAAAAQAAAAAAAAAFAAAA////////////
        ////AQAAAAMAAAABAAAAAAAAAAYAAAD///////////////8BAAAAAwAAAAEAAAACAAAAAgAAAP///////////////wEAAAADAAAAAQAAAAIAAAAFAAAA////////////
        ////AQAAAAMAAAABAAAAAgAAAAYAAAD///////////////8BAAAAAwAAAAEAAAACAAAACAAAAP///////////////wEAAAADAAAAAQAAAAIAAAAMAAAA////////////
        ////AQAAAAMAAAABAAAAAwAAAAAAAAD///////////////8BAAAAAwAAAAEAAAADAAAAAQAAAP///////////////wEAAAADAAAAAQAAAAMAAAAFAAAA////////////
        ////AQAAAAMAAAABAAAAAwAAAAYAAAD///////////////8BAAAAAwAAAAEAAAD//////////wIAAAD//////////wEAAAADAAAAAQAAAP////////////////////8A
        AAAAAAAAAAMAAAABAAAA/////////////////////wEAAAAAAAAAAwAAAAEAAAD/////////////////////AgAAAAAAAAADAAAAAQAAAP////////////////////8D
        AAAAAAAAAAMAAAARAAAAAwAAAAEAAAAAAAAAAAAAAP///////////////wEAAAADAAAAAQAAAAAAAAABAAAA////////////////AQAAAAMAAAABAAAAAAAAAAQAAAD/
        //////////////8BAAAAAwAAAAEAAAAAAAAABgAAAP///////////////wEAAAADAAAAAQAAAAIAAAAAAAAA////////////////AQAAAAMAAAABAAAAAgAAAAIAAAD/
        //////////////8BAAAAAwAAAAEAAAACAAAABQAAAP///////////////wEAAAADAAAAAQAAAAIAAAAHAAAA////////////////AQAAAAMAAAABAAAAAgAAAAsAAAD/
        //////////////8BAAAAAwAAAAEAAAADAAAAAAAAAP///////////////wEAAAADAAAAAQAAAAMAAAABAAAA////////////////AQAAAAMAAAABAAAA////////////
        ////AAAAAP////8BAAAAAwAAAAEAAAD///////////////8BAAAA/////wEAAAADAAAAAQAAAP////////////////////8AAAAAAAAAAAMAAAABAAAA////////////
        /////////wEAAAAAAAAAAwAAAAEAAAD/////////////////////AgAAAAAAAAADAAAAAQAAAP////////////////////8DAAAAAAAAAAMAAAAsAAAAAwAAAAEAAAAA
        AAAAAAAAAP///////////////wEAAAADAAAAAQAAAAAAAAABAAAA////////////////AQAAAAMAAAABAAAAAAAAAAIAAAD///////////////8BAAAAAwAAAAEAAAAA
        AAAAAwAAAP///////////////wEAAAADAAAAAQAAAAAAAAAEAAAA////////////////AQAAAAMAAAABAAAAAAAAAAUAAAD///////////////8BAAAAAwAAAAEAAAAA
        AAAABgAAAP///////////////wEAAAADAAAAAQAAAAAAAAAHAAAA////////////////AQAAAAMAAAABAAAAAAAAAAgAAAD///////////////8BAAAAAwAAAAEAAAAA
        AAAACQAAAP///////////////wEAAAADAAAAAQAAAAIAAAAAAAAA////////////////AQAAAAMAAAABAAAAAgAAAAEAAAD///////////////8BAAAAAwAAAAEAAAAC
        AAAAAgAAAP///////////////wEAAAADAAAAAQAAAAIAAAADAAAA////////////////AQAAAAMAAAABAAAAAgAAAAQAAAD///////////////8BAAAAAwAAAAEAAAAC
        AAAABQAAAP///////////////wEAAAADAAAAAQAAAAIAAAAGAAAA////////////////AQAAAAMAAAABAAAAAgAAAAcAAAD///////////////8BAAAAAwAAAAEAAAAC
        AAAACAAAAP///////////////wEAAAADAAAAAQAAAAIAAAAJAAAA////////////////AQAAAAMAAAABAAAAAgAAAAoAAAD///////////////8BAAAAAwAAAAEAAAAC
        AAAACwAAAP///////////////wEAAAADAAAAAQAAAAIAAAAMAAAA////////////////AQAAAAMAAAABAAAAAgAAAA0AAAD///////////////8BAAAAAwAAAAEAAAAC
        AAAADgAAAP///////////////wEAAAADAAAAAQAAAAMAAAAAAAAA////////////////AQAAAAMAAAABAAAAAwAAAAEAAAD///////////////8BAAAAAwAAAAEAAAAD
        AAAAAgAAAP///////////////wEAAAADAAAAAQAAAAMAAAADAAAA////////////////AQAAAAMAAAABAAAAAwAAAAQAAAD///////////////8BAAAAAwAAAAEAAAAD
        AAAABQAAAP///////////////wEAAAADAAAAAQAAAAMAAAAGAAAA////////////////AQAAAAMAAAABAAAAAwAAAAcAAAD///////////////8BAAAAAwAAAAEAAAAD
        AAAACAAAAP///////////////wEAAAADAAAAAQAAAAMAAAAJAAAA////////////////AQAAAAMAAAABAAAA//////////8AAAAA//////////8BAAAAAwAAAAEAAAD/
        /////////wIAAAD//////////wEAAAADAAAAAQAAAP//////////AQAAAP//////////AQAAAAMAAAABAAAA//////////8DAAAA//////////8BAAAAAwAAAAEAAAD/
        //////////////8DAAAA/////wEAAAADAAAAAQAAAP////////////////////8AAAAAAAAAAAMAAAABAAAA/////////////////////wEAAAAAAAAAAwAAAAEAAAD/
        ////////////////////AgAAAAAAAAADAAAAAQAAAP////////////////////8DAAAAAAAAAAEAAAAAAAAACgAAAAMAAAAAAAAAAwAAAAAAAAADAAAAAAAAAAMAAAAA
        AAAAAwAAAAAAAAADAAAAAAAAAAMAAAAAAAAAAwAAAAAAAAADAAAAAAAAAAMAAAAAAAAAAQAAAAAAAAAKAAAAAwAAAAAAAAADAAAAAAAAAAMAAAAAAAAAAwAAAAAAAAAD
        AAAAAAAAAAMAAAAAAAAAAwAAAAAAAAADAAAAAAAAAAMAAAAAAAAAAwAAAAAAAAABAAAAAAAAAAoAAAADAAAAAAAAAAMAAAAAAAAAAwAAAAAAAAADAAAAAAAAAAMAAAAA
        AAAAAwAAAAAAAAADAAAAAAAAAAMAAAAAAAAAAwAAAAAAAAADAAAAAAAAAAEAAAAAAAAACgAAAAMAAAAAAAAAAwAAAAAAAAADAAAAAAAAAAMAAAAAAAAAAwAAAAAAAAAD
        AAAAAAAAAAMAAAAAAAAAAwAAAAAAAAADAAAAAAAAAAMAAAAAAAAAAQAAAAAAAAAKAAAAAwAAAAAAAAADAAAAAAAAAAMAAAAAAAAAAwAAAAAAAAADAAAAAAAAAAMAAAAA
        AAAAAwAAAAAAAAADAAAAAAAAAAMAAAAAAAAAAwAAAAAAAAABAAAAAAAAAAoAAAADAAAAAAAAAAMAAAAAAAAAAwAAAAAAAAADAAAAAAAAAAMAAAAAAAAAAwAAAAAAAAAD
        AAAAAAAAAAMAAAAAAAAAAwAAAAAAAAADAAAAAAAAAAEAAAAAAAAACgAAAAMAAAAAAAAAAwAAAAAAAAADAAAAAAAAAAMAAAAAAAAAAwAAAAAAAAADAAAAAAAAAAMAAAAA
        AAAAAwAAAAAAAAADAAAAAAAAAAMAAAAAAAAAAQAAAAAAAAAKAAAAAwAAAAAAAAADAAAAAAAAAAMAAAAAAAAAAwAAAAAAAAADAAAAAAAAAAMAAAAAAAAAAwAAAAAAAAAD
        AAAAAAAAAAMAAAAAAAAAAwAAAAAAAAABAAAAAAAAAAoAAAADAAAAAAAAAAMAAAAAAAAAAwAAAAAAAAADAAAAAAAAAAMAAAAAAAAAAwAAAAAAAAADAAAAAAAAAAMAAAAA
        AAAAAwAAAAAAAAADAAAAAAAAAAEAAAAAAAAACgAAAAMAAAAAAAAAAwAAAAAAAAADAAAAAAAAAAMAAAAAAAAAAwAAAAAAAAADAAAAAAAAAAMAAAAAAAAAAwAAAAAAAAAD
        AAAAAAAAAAMAAAAAAAAAAQAAAAAAAAAKAAAAAwAAAAAAAAADAAAAAAAAAAMAAAAAAAAAAwAAAAAAAAADAAAAAAAAAAMAAAAAAAAAAwAAAAAAAAADAAAAAAAAAAMAAAAA
        AAAAAwAAAAAAAAABAAAAAAAAAAoAAAADAAAAAAAAAAMAAAAAAAAAAwAAAAAAAAADAAAAAAAAAAMAAAAAAAAAAwAAAAAAAAADAAAAAAAAAAMAAAAAAAAAAwAAAAAAAAAD
        AAAAAAAAAAEAAAAAAAAACgAAAAMAAAAAAAAAAwAAAAAAAAADAAAAAAAAAAMAAAAAAAAAAwAAAAAAAAADAAAAAAAAAAMAAAAAAAAAAwAAAAAAAAADAAAAAAAAAAMAAAAA
        AAAAAQAAAAAAAAAKAAAAAwAAAAAAAAADAAAAAAAAAAMAAAAAAAAAAwAAAAAAAAADAAAAAAAAAAMAAAAAAAAAAwAAAAAAAAADAAAAAAAAAAMAAAAAAAAAAwAAAAAAAAAB
        AAAAAAAAAAoAAAADAAAAAAAAAAMAAAAAAAAAAwAAAAAAAAADAAAAAAAAAAMAAAAAAAAAAwAAAAAAAAADAAAAAAAAAAMAAAAAAAAAAwAAAAAAAAADAAAAAAAAAAEAAAAA
        AAAACgAAAAMAAAAAAAAAAwAAAAAAAAADAAAAAAAAAAMAAAAAAAAAAwAAAAAAAAADAAAAAAAAAAMAAAAAAAAAAwAAAAAAAAADAAAAAAAAAAMAAAAAAAAAAQAAAAAAAAAK
        AAAAAwAAAAAAAAADAAAAAAAAAAMAAAAAAAAAAwAAAAAAAAADAAAAAAAAAAMAAAAAAAAAAwAAAAAAAAADAAAAAAAAAAMAAAAAAAAAAwAAAAAAAAABAAAAAAAAAAoAAAAD
        AAAAAAAAAAMAAAAAAAAAAwAAAAAAAAADAAAAAAAAAAMAAAAAAAAAAwAAAAAAAAADAAAAAAAAAAMAAAAAAAAAAwAAAAAAAAADAAAAAAAAAAEAAAAAAAAACgAAAAMAAAAA
        AAAAAwAAAAAAAAADAAAAAAAAAAMAAAAAAAAAAwAAAAAAAAADAAAAAAAAAAMAAAAAAAAAAwAAAAAAAAADAAAAAAAAAAMAAAAAAAAAAQAAAAAAAAAKAAAAAwAAAAAAAAAD
        AAAAAAAAAAMAAAAAAAAAAwAAAAAAAAADAAAAAAAAAAMAAAAAAAAAAwAAAAAAAAADAAAAAAAAAAMAAAAAAAAAAwAAAAAAAAABAAAAAAAAAAoAAAADAAAAAAAAAAMAAAAA
        AAAAAwAAAAAAAAADAAAAAAAAAAMAAAAAAAAAAwAAAAAAAAADAAAAAAAAAAMAAAAAAAAAAwAAAAAAAAADAAAAAAAAAAEAAAAAAAAACgAAAAMAAAAAAAAAAwAAAAAAAAAD
        AAAAAAAAAAMAAAAAAAAAAwAAAAAAAAADAAAAAAAAAAMAAAAAAAAAAwAAAAAAAAADAAAAAAAAAAMAAAAAAAAAAQAAAAAAAAAKAAAAAwAAAAAAAAADAAAAAAAAAAMAAAAA
        AAAAAwAAAAAAAAADAAAAAAAAAAMAAAAAAAAAAwAAAAAAAAADAAAAAAAAAAMAAAAAAAAAAwAAAAAAAAABAAAAAAAAAAoAAAADAAAAAAAAAAMAAAAAAAAAAwAAAAAAAAAD
        AAAAAAAAAAMAAAAAAAAAAwAAAAAAAAADAAAAAAAAAAMAAAAAAAAAAwAAAAAAAAADAAAAAAAAAAEAAAAAAAAACgAAAAMAAAAAAAAAAwAAAAAAAAADAAAAAAAAAAMAAAAA
        AAAAAwAAAAAAAAADAAAAAAAAAAMAAAAAAAAAAwAAAAAAAAADAAAAAAAAAAMAAAAAAAAAAQAAAAAAAAAKAAAAAwAAAAAAAAADAAAAAAAAAAMAAAAAAAAAAwAAAAAAAAAD
        AAAAAAAAAAMAAAAAAAAAAwAAAAAAAAADAAAAAAAAAAMAAAAAAAAAAwAAAAAAAAABAAAAAAAAAAoAAAADAAAAAAAAAAMAAAAAAAAAAwAAAAAAAAADAAAAAAAAAAMAAAAA
        AAAAAwAAAAAAAAADAAAAAAAAAAMAAAAAAAAAAwAAAAAAAAADAAAAAAAAAAEAAAAAAAAACgAAAAMAAAAAAAAAAwAAAAAAAAADAAAAAAAAAAMAAAAAAAAAAwAAAAAAAAAD
        AAAAAAAAAAMAAAAAAAAAAwAAAAAAAAADAAAAAAAAAAMAAAAAAAAAAQAAAAAAAAAKAAAAAwAAAAAAAAADAAAAAAAAAAMAAAAAAAAAAwAAAAAAAAADAAAAAAAAAAMAAAAA
        AAAAAwAAAAAAAAADAAAAAAAAAAMAAAAAAAAAAwAAAAAAAAABAAAAAAAAAAoAAAADAAAAAAAAAAMAAAAAAAAAAwAAAAAAAAADAAAAAAAAAAMAAAAAAAAAAwAAAAAAAAAD
        AAAAAAAAAAMAAAAAAAAAAwAAAAAAAAADAAAAAAAAAAEAAAAAAAAACgAAAAMAAAAAAAAAAwAAAAAAAAADAAAAAAAAAAMAAAAAAAAAAwAAAAAAAAADAAAAAAAAAAMAAAAA
        AAAAAwAAAAAAAAADAAAAAAAAAAMAAAAAAAAAAQAAAAAAAAAKAAAAAwAAAAAAAAADAAAAAAAAAAMAAAAAAAAAAwAAAAAAAAADAAAAAAAAAAMAAAAAAAAAAwAAAAAAAAAD
        AAAAAAAAAAMAAAAAAAAAAwAAAAAAAAABAAAAAAAAAAoAAAADAAAAAAAAAAMAAAAAAAAAAwAAAAAAAAADAAAAAAAAAAMAAAAAAAAAAwAAAAAAAAADAAAAAAAAAAMAAAAA
        AAAAAwAAAAAAAAADAAAAAAAAAAEAAAAAAAAACgAAAAMAAAAAAAAAAwAAAAAAAAADAAAAAAAAAAMAAAAAAAAAAwAAAAAAAAADAAAAAAAAAAMAAAAAAAAAAwAAAAAAAAAD
        AAAAAAAAAAMAAAAAAAAAAQAAAAAAAAAKAAAAAwAAAAAAAAADAAAAAAAAAAMAAAAAAAAAAwAAAAAAAAADAAAAAAAAAAMAAAAAAAAAAwAAAAAAAAADAAAAAAAAAAMAAAAA
        AAAAAwAAAAAAAAABAAAAAAAAAAoAAAADAAAAAAAAAAMAAAAAAAAAAwAAAAAAAAADAAAAAAAAAAMAAAAAAAAAAwAAAAAAAAADAAAAAAAAAAMAAAAAAAAAAwAAAAAAAAAD
        AAAAAAAAAAEAAAAAAAAACgAAAAMAAAAAAAAAAwAAAAAAAAADAAAAAAAAAAMAAAAAAAAAAwAAAAAAAAADAAAAAAAAAAMAAAAAAAAAAwAAAAAAAAADAAAAAAAAAAMAAAAA
        AAAAAQAAAAAAAAAKAAAAAwAAAAAAAAADAAAAAAAAAAMAAAAAAAAAAwAAAAAAAAADAAAAAAAAAAMAAAAAAAAAAwAAAAAAAAADAAAAAAAAAAMAAAAAAAAAAwAAAAAAAAAB
        AAAAAAAAAAoAAAADAAAAAAAAAAMAAAAAAAAAAwAAAAAAAAADAAAAAAAAAAMAAAAAAAAAAwAAAAAAAAADAAAAAAAAAAMAAAAAAAAAAwAAAAAAAAADAAAAAAAAAAEAAAAA
        AAAACgAAAAMAAAAAAAAAAwAAAAAAAAADAAAAAAAAAAMAAAAAAAAAAwAAAAAAAAADAAAAAAAAAAMAAAAAAAAAAwAAAAAAAAADAAAAAAAAAAMAAAAAAAAAAQAAAAAAAAAK
        AAAAAwAAAAAAAAADAAAAAAAAAAMAAAAAAAAAAwAAAAAAAAADAAAAAAAAAAMAAAAAAAAAAwAAAAAAAAADAAAAAAAAAAMAAAAAAAAAAwAAAAAAAAABAAAAAAAAAAoAAAAD
        AAAAAAAAAAMAAAAAAAAAAwAAAAAAAAADAAAAAAAAAAMAAAAAAAAAAwAAAAAAAAADAAAAAAAAAAMAAAAAAAAAAwAAAAAAAAADAAAAAAAAAAEAAAAAAAAACgAAAAMAAAAA
        AAAAAwAAAAAAAAADAAAAAAAAAAMAAAAAAAAAAwAAAAAAAAADAAAAAAAAAAMAAAAAAAAAAwAAAAAAAAADAAAAAAAAAAMAAAAAAAAAAQAAAAAAAAAKAAAAAwAAAAAAAAAD
        AAAAAAAAAAMAAAAAAAAAAwAAAAAAAAADAAAAAAAAAAMAAAAAAAAAAwAAAAAAAAADAAAAAAAAAAMAAAAAAAAAAwAAAAAAAAABAAAAAAAAAAoAAAADAAAAAAAAAAMAAAAA
        AAAAAwAAAAAAAAADAAAAAAAAAAMAAAAAAAAAAwAAAAAAAAADAAAAAAAAAAMAAAAAAAAAAwAAAAAAAAADAAAAAAAAAAEAAAAAAAAACgAAAAMAAAAAAAAAAwAAAAAAAAAD
        AAAAAAAAAAMAAAAAAAAAAwAAAAAAAAADAAAAAAAAAAMAAAAAAAAAAwAAAAAAAAADAAAAAAAAAAMAAAAAAAAAAQAAAAAAAAAKAAAAAwAAAAAAAAADAAAAAAAAAAMAAAAA
        AAAAAwAAAAAAAAADAAAAAAAAAAMAAAAAAAAAAwAAAAAAAAADAAAAAAAAAAMAAAAAAAAAAwAAAAAAAAABAAAAAAAAAAoAAAADAAAAAAAAAAMAAAAAAAAAAwAAAAAAAAAD
        AAAAAAAAAAMAAAAAAAAAAwAAAAAAAAADAAAAAAAAAAMAAAAAAAAAAwAAAAAAAAADAAAAAAAAAAEAAAAAAAAACgAAAAMAAAAAAAAAAwAAAAAAAAADAAAAAAAAAAMAAAAA
        AAAAAwAAAAAAAAADAAAAAAAAAAMAAAAAAAAAAwAAAAAAAAADAAAAAAAAAAMAAAAAAAAAAQAAAAAAAAAKAAAAAwAAAAAAAAADAAAAAAAAAAMAAAAAAAAAAwAAAAAAAAAD
        AAAAAAAAAAMAAAAAAAAAAwAAAAAAAAADAAAAAAAAAAMAAAAAAAAAAwAAAAAAAAABAAAAAAAAAAoAAAADAAAAAAAAAAMAAAAAAAAAAwAAAAAAAAADAAAAAAAAAAMAAAAA
        AAAAAwAAAAAAAAADAAAAAAAAAAMAAAAAAAAAAwAAAAAAAAADAAAAAAAAAAEAAAAAAAAACgAAAAMAAAAAAAAAAwAAAAAAAAADAAAAAAAAAAMAAAAAAAAAAwAAAAAAAAAD
        AAAAAAAAAAMAAAAAAAAAAwAAAAAAAAADAAAAAAAAAAMAAAAAAAAAAQAAAAAAAAAKAAAAAwAAAAAAAAADAAAAAAAAAAMAAAAAAAAAAwAAAAAAAAADAAAAAAAAAAMAAAAA
        AAAAAwAAAAAAAAADAAAAAAAAAAMAAAAAAAAAAwAAAAAAAAABAAAAAAAAAAoAAAADAAAAAAAAAAMAAAAAAAAAAwAAAAAAAAADAAAAAAAAAAMAAAAAAAAAAwAAAAAAAAAD
        AAAAAAAAAAMAAAAAAAAAAwAAAAAAAAADAAAAAAAAAAEAAAAAAAAACgAAAAMAAAAAAAAAAwAAAAAAAAADAAAAAAAAAAMAAAAAAAAAAwAAAAAAAAADAAAAAAAAAAMAAAAA
        AAAAAwAAAAAAAAADAAAAAAAAAAMAAAAAAAAAAQAAAAAAAAAKAAAAAwAAAAAAAAADAAAAAAAAAAMAAAAAAAAAAwAAAAAAAAADAAAAAAAAAAMAAAAAAAAAAwAAAAAAAAAD
        AAAAAAAAAAMAAAAAAAAAAwAAAAAAAAABAAAAAAAAAAoAAAADAAAAAAAAAAMAAAAAAAAAAwAAAAAAAAADAAAAAAAAAAMAAAAAAAAAAwAAAAAAAAADAAAAAAAAAAMAAAAA
        AAAAAwAAAAAAAAADAAAAAAAAAAEAAAAAAAAACgAAAAMAAAAAAAAAAwAAAAAAAAADAAAAAAAAAAMAAAAAAAAAAwAAAAAAAAADAAAAAAAAAAMAAAAAAAAAAwAAAAAAAAAD
        AAAAAAAAAAMAAAAAAAAAAQAAAAAAAAAKAAAAAwAAAAAAAAADAAAAAAAAAAMAAAAAAAAAAwAAAAAAAAADAAAAAAAAAAMAAAAAAAAAAwAAAAAAAAADAAAAAAAAAAMAAAAA
        AAAAAwAAAAAAAAABAAAAAAAAAAoAAAADAAAAAAAAAAMAAAAAAAAAAwAAAAAAAAADAAAAAAAAAAMAAAAAAAAAAwAAAAAAAAADAAAAAAAAAAMAAAAAAAAAAwAAAAAAAAAD
        AAAAAAAAAAEAAAAAAAAACgAAAAMAAAAAAAAAAwAAAAAAAAADAAAAAAAAAAMAAAAAAAAAAwAAAAAAAAADAAAAAAAAAAMAAAAAAAAAAwAAAAAAAAADAAAAAAAAAAMAAAAA
        AAAAAQAAAAAAAAAKAAAAAwAAAAAAAAADAAAAAAAAAAMAAAAAAAAAAwAAAAAAAAADAAAAAAAAAAMAAAAAAAAAAwAAAAAAAAADAAAAAAAAAAMAAAAAAAAAAwAAAAAAAAAB
        AAAAAAAAAAoAAAADAAAAAAAAAAMAAAAAAAAAAwAAAAAAAAADAAAAAAAAAAMAAAAAAAAAAwAAAAAAAAADAAAAAAAAAAMAAAAAAAAAAwAAAAAAAAADAAAAAAAAAAEAAAAA
        AAAACgAAAAMAAAAAAAAAAwAAAAAAAAADAAAAAAAAAAMAAAAAAAAAAwAAAAAAAAADAAAAAAAAAAMAAAAAAAAAAwAAAAAAAAADAAAAAAAAAAMAAAAAAAAAAQAAAAAAAAAK
        AAAAAwAAAAAAAAADAAAAAAAAAAMAAAAAAAAAAwAAAAAAAAADAAAAAAAAAAMAAAAAAAAAAwAAAAAAAAADAAAAAAAAAAMAAAAAAAAAAwAAAAAAAAABAAAAAAAAAAoAAAAD
        AAAAAAAAAAMAAAAAAAAAAwAAAAAAAAADAAAAAAAAAAMAAAAAAAAAAwAAAAAAAAADAAAAAAAAAAMAAAAAAAAAAwAAAAAAAAADAAAAAAAAAAEAAAAAAAAACgAAAAMAAAAA
        AAAAAwAAAAAAAAADAAAAAAAAAAMAAAAAAAAAAwAAAAAAAAADAAAAAAAAAAMAAAAAAAAAAwAAAAAAAAADAAAAAAAAAAMAAAAAAAAAAQAAAAAAAAAKAAAAAwAAAAAAAAAD
        AAAAAAAAAAMAAAAAAAAAAwAAAAAAAAADAAAAAAAAAAMAAAAAAAAAAwAAAAAAAAADAAAAAAAAAAMAAAAAAAAAAwAAAAAAAAABAAAAAAAAAAoAAAADAAAAAAAAAAMAAAAA
        AAAAAwAAAAAAAAADAAAAAAAAAAMAAAAAAAAAAwAAAAAAAAADAAAAAAAAAAMAAAAAAAAAAwAAAAAAAAADAAAAAAAAAAEAAAAAAAAACgAAAAMAAAAAAAAAAwAAAAAAAAAD
        AAAAAAAAAAMAAAAAAAAAAwAAAAAAAAADAAAAAAAAAAMAAAAAAAAAAwAAAAAAAAADAAAAAAAAAAMAAAAAAAAAAQAAAAAAAAAKAAAAAwAAAAAAAAADAAAAAAAAAAMAAAAA
        AAAAAwAAAAAAAAADAAAAAAAAAAMAAAAAAAAAAwAAAAAAAAADAAAAAAAAAAMAAAAAAAAAAwAAAAAAAAABAAAAAAAAAAoAAAADAAAAAAAAAAMAAAAAAAAAAwAAAAAAAAAD
        AAAAAAAAAAMAAAAAAAAAAwAAAAAAAAADAAAAAAAAAAMAAAAAAAAAAwAAAAAAAAADAAAAAAAAAAEAAAAAAAAACgAAAAMAAAAAAAAAAwAAAAAAAAADAAAAAAAAAAMAAAAA
        AAAAAwAAAAAAAAADAAAAAAAAAAMAAAAAAAAAAwAAAAAAAAADAAAAAAAAAAMAAAAAAAAAAQAAAAAAAAAKAAAAAwAAAAAAAAADAAAAAAAAAAMAAAAAAAAAAwAAAAAAAAAD
        AAAAAAAAAAMAAAAAAAAAAwAAAAAAAAADAAAAAAAAAAMAAAAAAAAAAwAAAAAAAAABAAAAAAAAAAoAAAADAAAAAAAAAAMAAAAAAAAAAwAAAAAAAAADAAAAAAAAAAMAAAAA
        AAAAAwAAAAAAAAADAAAAAAAAAAMAAAAAAAAAAwAAAAAAAAADAAAAAAAAAAEAAAAAAAAACgAAAAMAAAAAAAAAAwAAAAAAAAADAAAAAAAAAAMAAAAAAAAAAwAAAAAAAAAD
        AAAAAAAAAAMAAAAAAAAAAwAAAAAAAAADAAAAAAAAAAMAAAAAAAAAAQAAAAAAAAAKAAAAAwAAAAAAAAADAAAAAAAAAAMAAAAAAAAAAwAAAAAAAAADAAAAAAAAAAMAAAAA
        AAAAAwAAAAAAAAADAAAAAAAAAAMAAAAAAAAAAwAAAAAAAAABAAAAAAAAAAoAAAADAAAAAAAAAAMAAAAAAAAAAwAAAAAAAAADAAAAAAAAAAMAAAAAAAAAAwAAAAAAAAAD
        AAAAAAAAAAMAAAAAAAAAAwAAAAAAAAADAAAAAAAAAAEAAAAAAAAACgAAAAMAAAAAAAAAAwAAAAAAAAADAAAAAAAAAAMAAAAAAAAAAwAAAAAAAAADAAAAAAAAAAMAAAAA
        AAAAAwAAAAAAAAADAAAAAAAAAAMAAAAAAAAAAQAAAAAAAAAKAAAAAwAAAAAAAAADAAAAAAAAAAMAAAAAAAAAAwAAAAAAAAADAAAAAAAAAAMAAAAAAAAAAwAAAAAAAAAD
        AAAAAAAAAAMAAAAAAAAAAwAAAAAAAAABAAAAAAAAAAoAAAADAAAAAAAAAAMAAAAAAAAAAwAAAAAAAAADAAAAAAAAAAMAAAAAAAAAAwAAAAAAAAADAAAAAAAAAAMAAAAA
        AAAAAwAAAAAAAAADAAAAAAAAAAEAAAAAAAAACgAAAAMAAAAAAAAAAwAAAAAAAAADAAAAAAAAAAMAAAAAAAAAAwAAAAAAAAADAAAAAAAAAAMAAAAAAAAAAwAAAAAAAAAD
        AAAAAAAAAAMAAAAAAAAAAQAAAAAAAAAKAAAAAwAAAAAAAAADAAAAAAAAAAMAAAAAAAAAAwAAAAAAAAADAAAAAAAAAAMAAAAAAAAAAwAAAAAAAAADAAAAAAAAAAMAAAAA
        AAAAAwAAAAAAAAABAAAAAAAAAAoAAAADAAAAAAAAAAMAAAAAAAAAAwAAAAAAAAADAAAAAAAAAAMAAAAAAAAAAwAAAAAAAAADAAAAAAAAAAMAAAAAAAAAAwAAAAAAAAAD
        AAAAAAAAAAEAAAAAAAAACgAAAAMAAAAAAAAAAwAAAAAAAAADAAAAAAAAAAMAAAAAAAAAAwAAAAAAAAADAAAAAAAAAAMAAAAAAAAAAwAAAAAAAAADAAAAAAAAAAMAAAAA
        AAAAAQAAAAAAAAAKAAAAAwAAAAAAAAADAAAAAAAAAAMAAAAAAAAAAwAAAAAAAAADAAAAAAAAAAMAAAAAAAAAAwAAAAAAAAADAAAAAAAAAAMAAAAAAAAAAwAAAAAAAAAB
        AAAAAAAAAAoAAAADAAAAAAAAAAMAAAAAAAAAAwAAAAAAAAADAAAAAAAAAAMAAAAAAAAAAwAAAAAAAAADAAAAAAAAAAMAAAAAAAAAAwAAAAAAAAADAAAAAAAAAAEAAAAA
        AAAACgAAAAMAAAAAAAAAAwAAAAAAAAADAAAAAAAAAAMAAAAAAAAAAwAAAAAAAAADAAAAAAAAAAMAAAAAAAAAAwAAAAAAAAADAAAAAAAAAAMAAAAAAAAAAQAAAAAAAAAK
        AAAAAwAAAAAAAAADAAAAAAAAAAMAAAAAAAAAAwAAAAAAAAADAAAAAAAAAAMAAAAAAAAAAwAAAAAAAAADAAAAAAAAAAMAAAAAAAAAAwAAAAAAAAABAAAAAAAAAAoAAAAD
        AAAAAAAAAAMAAAAAAAAAAwAAAAAAAAADAAAAAAAAAAMAAAAAAAAAAwAAAAAAAAADAAAAAAAAAAMAAAAAAAAAAwAAAAAAAAADAAAAAAAAAAEAAAAAAAAACgAAAAMAAAAA
        AAAAAwAAAAAAAAADAAAAAAAAAAMAAAAAAAAAAwAAAAAAAAADAAAAAAAAAAMAAAAAAAAAAwAAAAAAAAADAAAAAAAAAAMAAAAAAAAAAQAAAAAAAAAKAAAAAwAAAAAAAAAD
        AAAAAAAAAAMAAAAAAAAAAwAAAAAAAAADAAAAAAAAAAMAAAAAAAAAAwAAAAAAAAADAAAAAAAAAAMAAAAAAAAAAwAAAAAAAAABAAAAAAAAAAoAAAADAAAAAAAAAAMAAAAA
        AAAAAwAAAAAAAAADAAAAAAAAAAMAAAAAAAAAAwAAAAAAAAADAAAAAAAAAAMAAAAAAAAAAwAAAAAAAAADAAAAAAAAAAEAAAAAAAAACgAAAAMAAAAAAAAAAwAAAAAAAAAD
        AAAAAAAAAAMAAAAAAAAAAwAAAAAAAAADAAAAAAAAAAMAAAAAAAAAAwAAAAAAAAADAAAAAAAAAAMAAAAAAAAAAQAAAAAAAAAKAAAAAwAAAAAAAAADAAAAAAAAAAMAAAAA
        AAAAAwAAAAAAAAADAAAAAAAAAAMAAAAAAAAAAwAAAAAAAAADAAAAAAAAAAMAAAAAAAAAAwAAAAAAAAABAAAAAAAAAAoAAAADAAAAAAAAAAMAAAAAAAAAAwAAAAAAAAAD
        AAAAAAAAAAMAAAAAAAAAAwAAAAAAAAADAAAAAAAAAAMAAAAAAAAAAwAAAAAAAAADAAAAAAAAAAEAAAAAAAAACgAAAAMAAAAAAAAAAwAAAAAAAAADAAAAAAAAAAMAAAAA
        AAAAAwAAAAAAAAADAAAAAAAAAAMAAAAAAAAAAwAAAAAAAAADAAAAAAAAAAMAAAAAAAAAAQAAAAAAAAAKAAAAAwAAAAAAAAADAAAAAAAAAAMAAAAAAAAAAwAAAAAAAAAD
        AAAAAAAAAAMAAAAAAAAAAwAAAAAAAAADAAAAAAAAAAMAAAAAAAAAAwAAAAAAAAABAAAAAAAAAAoAAAADAAAAAAAAAAMAAAAAAAAAAwAAAAAAAAADAAAAAAAAAAMAAAAA
        AAAAAwAAAAAAAAADAAAAAAAAAAMAAAAAAAAAAwAAAAAAAAADAAAAAAAAAAQAAAAAAMA/AABAQAAAAAAzM+tABAAAAI/CNT8zM3M/AAAAAJqZWT8EAAAACtejPSlcDz4A
        AAAAAAAAAAQAAADsUZg/SOF6PwAAgD8AAIA/BAAAABgAAAAAAAAAAAAAAAAAAAAAAAAAAAAAAAAAAAAAAAAAAAAAAAAAAAAAAAAAAAAAAAAAAAAAAAAAAAAAAAAAAAAA
        AAAAAAAAAAAAAAAAAAAAAAAAAAAAAAAAAAAAAAAAAAAAAAAYAAAAAAAAAAAAAAAAAAAAAAAAAAAAAAAAAAAAAAAAAAAAAAAAAAAAAAAAAAAAAAAAAAAAAAAAAAAAAAAA
        AAAAAAAAAAAAAAAAAAAAAAAAAAAAAAAAAAAAAAAAAAAAAAAAAAAAGAAAAAAAAAAAAAAAAAAAAAAAAAAAAAAAAAAAAAAAAAAAAAAAAAAAAAAAAAAAAAAAAAAAAAAAAAAA
        AAAAAAAAAAAAAAAAAAAAAAAAAAAAAAAAAAAAAAAAAAAAAAAAAAAAAAAAABgAAAAAAAAAAAAAAAAAAAAAAAAAAAAAAAAAAAAAAAAAAAAAAAAAAAAAAAAAAAAAAAAAAAAA
        AAAAAAAAAAAAAAAAAAAAAAAAAAAAAAAAAAAAAAAAAAAAAAAAAAAAAAAAAAAAAAAEAAAAGAAAAAAAAAAAAAAAAAAAAAAAAAAAAAAAAAAAAAAAAAAAAAAAAAAAAAAAAAAA
        AAAAAAAAAAAAAAAAAAAAAAAAAAAAAAAAAAAAAAAAAAAAAAAAAAAAAAAAAAAAAAAAAAAAAAAAABgAAAAAAAAAAAAAAAAAAAAAAAAAAAAAAAAAAAAAAAAAAAAAAAAAAAAA
        AAAAAAAAAAAAAAAAAAAAAAAAAAAAAAAAAAAAAAAAAAAAAAAAAAAAAAAAAAAAAAAAAAAAAAAAAAAAAAAYAAAAAAAAAAAAAAAAAAAAAAAAAAAAAAAAAAAAAAAAAAAAAAAA
        AAAAAAAAAAAAAAAAAAAAAAAAAAAAAAAAAAAAAAAAAAAAAAAAAAAAAAAAAAAAAAAAAAAAAAAAAAAAAAAAAAAAGAAAAAAAAAAAAAAAAAAAAAAAAAAAAAAAAAAAAAAAAAAA
        AAAAAAAAAAAAAAAAAAAAAAAAAAAAAAAAAAAAAAAAAAAAAAAAAAAAAAAAAAAAAAAAAAAAAAAAAAAAAAAAAAAAAAAAAAMAAAAAAKDA//9/wP//f8ADAAAAAAAAAAAAAAAA
        AAAAAwAAAAAAgMAAALDAAACAwAMAAAAAAAAAAAAAAAAAAAADAAAAAEBORQCAsUQAAOFEAwAAAAAAAD8AAAA/AAAAPwQAAAAAAEDAAABAwAAAQMAAAEDABAAAAEGaFT/M
        vBo/HZsqPxOuLj8EAAAANIuVPzWzvj+Pvc8/yEzLPwQAAAAMAAAAAABIQwAAwECamRk/AAAAQAAASEQAAAAAmpkZPwAAgD8AAPpEAAAAAJqZGT8AAEBADAAAAAAASEMA
        AAAAmpkZPwAAAEAAAEhEAAAAAJqZGT8AAIA/AEBnRQAAAECamRk/AABAQAwAAAAAAEhDAABAQJqZGT8AAABAAABIRAAAAACamRk/AACAPwBAHEUAAABAmpkZPwAAQEAM
        AAAAAAAgQwAAAACamRk/AAAAQAAASEQAAAAAmpkZPwAAgD8AwA9FAACAv5qZGT8AAEBABwAAAAAAAAAAAAAAAAAAAAAAAAAAAAAAAAAAAAEAAAAAAAAAAAAAAAAAAAAA
        AAAAAAAAAAAAAAAAAAAAAAAAAAAAAAAAAAAAAAAAAAAAAAAAAAAAAAAAAAAAAAACAAAAAQAAAAEAAAAAAAAAAAAAAAAAAAABAAAAAQAAAAAAAAAAAAAAAAAAAAEAAAAB
        AAAAAAAAAAAAAAAAAAAAAQAAAAEAAAAAAAAAAAAAAAAAAAAIAAAAAQAAAAQAAAAAAAAACgAAABQAAAAoAAAABAAAAAoAAAAKAAAAFAAAAAoAAAAyAAAAAAAAAAEAAAAA
        AAAAAQAAAAAAAAAAAAAAAQAAAAAAAAAAAAAAAAAAAAAAAAAAAAAAAAAAAAAAAAAAAAAAAAAAAAAAAAAAAAAAAAAAAAAAAAAAAAAAAQAAAAAAAAABAAAAAQAAAAAAAAAB
        AAAAAAAAAAAAAAAAAAAAAAAAAAAAAAAAAAAAAAAAAAAAAAAAAAAAAAAAAAAAAAAAAAAAAAAAAAEAAAAAAAAAAAAAAAEAAAAAAAAAAQAAAAAAAAAAAAAAAAAAAAAAAAAB
        AAAABAAAAAAAAAAKAAAAFAAAACgAAAAEAAAACgAAAAoAAAAUAAAACgAAADIAAAAAAAAAAAAAAAAAAAAAAAAAAAAAAAAAAAAAAAAAAAAAAAAAAAAAAAAAAAAAAAAAAAAA
        AAAAAAAAAAAAAAAAAAAAAAAAAAAAAAAAAAAAAAAAAAAAAAAAAAAAAAAAAAAAAAAAAAAAAAAAAAAAAAAAAAAAAAAAAAAAAAAAAAAAAAAAAAAAAAAAAAAAAAAAAAAAAAAA
        AAAAAAAAAAAAAAAAAAAAAAAAAAAAAAAAAAAAAAAAAAAAAAAAAAAAAAAAAAAAAAAAAAAAAAAAAAYAAAAAAAAAAAAAAAAAAAABAAAAAAAAAAAAAAAEAAAAAAAAAAAAAAAA
        AAAAAAAAAAMAAAAAAIA/AACAPwAAgD8AAAAAAgAAAAAAAAAEAAAAAAAAAAQAAAAAAAAAAAAAAAAAAAAAAAAAAAAAAAAAAABKVUNFUHJpdmF0ZURhdGEAAQFCeXBhc3MA
        AQEDAB0AAAAAAAAASlVDRVByaXZhdGVEYXRhAAAAAAAAAAA=
        AAAQAAAA
      >
      PRESETNAME "Romantic Chapel"
      FLOATPOS 32 248 960 563
      FXID {AAF20E57-00BF-7C4E-8111-D9E046C85039}
      WAK 0 0
    >
  >
>
