<REAPER_PROJECT 0.1 "7.34/macOS-arm64" 1741898126
  <NOTES 0 2
  >
  RIPPLE 0
  GROUPOVERRIDE 0 0 0
  AUTOXFADE 129
  ENVATTACH 3
  POOLEDENVATTACH 0
  MIXERUIFLAGS 11 48
  ENVFADESZ10 40
  PEAKGAIN 1
  FEEDBACK 0
  PANLAW 1
  PROJOFFS 0 0 0
  MAXPROJLEN 0 0
  GRID 3199 8 1 8 1 0 0 0
  TIMEMODE 1 5 -1 30 0 0 -1
  VIDEO_CONFIG 0 0 65792
  PANMODE 3
  PANLAWFLAGS 3
  CURSOR 0
  ZOOM 0.72795805627751 0 0
  VZOOMEX 6 0
  USE_REC_CFG 0
  RECMODE 1
  SMPTESYNC 0 30 100 40 1000 300 0 0 1 0 0
  LOOP 0
  LOOPGRAN 0 4
  RECORD_PATH "Media" ""
  <RECORD_CFG
    ZXZhdxgAAQ==
  >
  <APPLYFX_CFG
  >
  RENDER_FILE ""
  RENDER_PATTERN ""
  RENDER_FMT 0 2 0
  RENDER_1X 0
  RENDER_RANGE 1 0 0 18 1000
  RENDER_RESAMPLE 3 0 1
  RENDER_ADDTOPROJ 0
  RENDER_STEMS 0
  RENDER_DITHER 0
  TIMELOCKMODE 1
  TEMPOENVLOCKMODE 1
  ITEMMIX 1
  DEFPITCHMODE 589824 0
  TAKELANE 1
  SAMPLERATE 48000 0 0
  <RENDER_CFG
    ZXZhdxgAAQ==
  >
  LOCK 1
  <METRONOME 6 2
    VOL 0.25 0.125
    BEATLEN 4
    FREQ 1760 880 1
    SAMPLES "" "" "" ""
    SPLIGNORE 0 0
    SPLDEF 2 660 "" 0 ""
    SPLDEF 3 440 "" 0 ""
    PATTERN 0 169
    PATTERNSTR ABBB
    MULT 1
  >
  GLOBAL_AUTO -1
  TEMPO 120 4 4 0
  PLAYRATE 1 0 0.25 4
  SELECTION 224 352
  SELECTION2 224 352
  MASTERAUTOMODE 0
  MASTERTRACKHEIGHT 0 0
  MASTERPEAKCOL 16576
  MASTERMUTESOLO 0
  MASTERTRACKVIEW 0 0.6667 0.5 0.5 0 0 0 0 0 0 0 0 0 0
  MASTERHWOUT 0 0 1 0 0 0 0 -1
  MASTER_NCH 2 2
  MASTER_VOLUME 1.24447656050475 0 -1 -1 1
  MASTER_PANMODE 3
  MASTER_PANLAWFLAGS 3
  MASTER_FX 1
  MASTER_SEL 0
  <MASTERFXLIST
    WNDRECT 32 548 815 263
    SHOW 0
    LASTSEL 0
    DOCKED 0
    BYPASS 1 0 0
    <AU "AU: AUReverb2 (Apple)" "Apple: AUReverb2" "" 1635083896 1920361010 1634758764
      6QMAAAAAAAACAAAAAQAAAAAAAAACAAAAAAAAAAIAAAABAAAAAAAAAAIAAAAAAAAALwIAADw/eG1sIHZlcnNpb249IjEuMCIgZW5jb2Rpbmc9IlVURi04Ij8+CjwhRE9D
      VFlQRSBwbGlzdCBQVUJMSUMgIi0vL0FwcGxlLy9EVEQgUExJU1QgMS4wLy9FTiIgImh0dHA6Ly93d3cuYXBwbGUuY29tL0RURHMvUHJvcGVydHlMaXN0LTEuMC5kdGQi
      Pgo8cGxpc3QgdmVyc2lvbj0iMS4wIj4KPGRpY3Q+Cgk8a2V5PmRhdGE8L2tleT4KCTxkYXRhPgoJQUFBQUFBQUFBQUFBQUFBSEFBQUFBRUZHWm1ZQUFBQUJQNEFBQUFB
      QUFBSThBeEp2QUFBQUF6MU16TTBBQUFBRVB3cDkKCU5RQUFBQVUvQUFBQUFBQUFCa0tEM3JnPQoJPC9kYXRhPgoJPGtleT5tYW51ZmFjdHVyZXI8L2tleT4KCTxpbnRl
      Z2VyPjE2MzQ3NTg3NjQ8L2ludGVnZXI+Cgk8a2V5Pm5hbWU8L2tleT4KCTxzdHJpbmc+VW50aXRsZWQ8L3N0cmluZz4KCTxrZXk+c3VidHlwZTwva2V5PgoJPGludGVn
      ZXI+MTkyMDM2MTAxMDwvaW50ZWdlcj4KCTxrZXk+dHlwZTwva2V5PgoJPGludGVnZXI+MTYzNTA4Mzg5NjwvaW50ZWdlcj4KCTxrZXk+dmVyc2lvbjwva2V5PgoJPGlu
      dGVnZXI+MDwvaW50ZWdlcj4KPC9kaWN0Pgo8L3BsaXN0PgoBAAAAAAAAAAAA
    >
    FLOATPOS 64 544 600 235
    FXID {9A605900-225D-E941-9AB3-F46337113F6D}
    WAK 0 0
    BYPASS 0 0 0
    <VST "VST: ReaComp (Cockos)" reacomp.vst.dylib 0 "" 1919247213<5653547265636D726561636F6D700000> ""
      bWNlcu9e7f4EAAAAAQAAAAAAAAACAAAAAAAAAAQAAAAAAAAACAAAAAAAAAACAAAAAQAAAAAAAAACAAAAAAAAAFwAAAAAAAAAAAAAAA==
      776t3g3wrd6bJAA+UMivOzSFAD0K16M8AAAAAAAAAACefBc/u2xPO5EpbD8AAAAAvTeGNQAAgD8AAAAAHm1EQAAAAAAAAAAAAAAAAAAAAAAAAAAAAAAAAAAAAAA=
      AHN0b2NrIC0gTWFzdGVyIEJ1cyBHbHVlAAAAAAA=
    >
    PRESETNAME "stock - Master Bus Glue"
    FLOATPOS 32 417 567 394
    FXID {DB68F64F-E035-0346-AB74-E02C7679A681}
    WAK 0 0
  >
  <MASTERPLAYSPEEDENV
    EGUID {62061924-2D06-CA41-B745-01B95C42C262}
    ACT 0 -1
    VIS 0 1 1
    LANEHEIGHT 0 0
    ARM 0
    DEFSHAPE 0 -1 -1
  >
  <TEMPOENVEX
    EGUID {A8FBE181-5174-A549-BE0D-A3409F4C84EC}
    ACT 0 -1
    VIS 1 0 1
    LANEHEIGHT 0 0
    ARM 0
    DEFSHAPE 1 -1 -1
  >
  <PROJBAY
  >
  <TRACK {58856C49-DCFE-B24A-85A4-61A95C2CD20B}
    NAME "Generated score"
    PEAKCOL 16576
    BEAT -1
    AUTOMODE 0
    PANLAWFLAGS 3
    VOLPAN 1.82452995868445 0 -1 -1 1
    MUTESOLO 0 0 0
    IPHASE 0
    PLAYOFFS 0 1
    ISBUS 0 0
    BUSCOMP 0 0 0 0 0
    SHOWINMIX 1 0.6667 0.5 1 0.5 0 0 0
    FIXEDLANES 9 0 0 0 0
    SEL 1
    REC 1 5088 1 0 0 0 0 0
    VU 2
    TRACKHEIGHT 0 0 0 0 0 0 0
    INQ 0 0 0 0.5 100 0 0 100
    NCHAN 2
    FX 1
    TRACKID {58856C49-DCFE-B24A-85A4-61A95C2CD20B}
    PERF 0
    MIDIOUT -1
    MAINSEND 1 0
    <FXCHAIN
      WNDRECT 0 121 807 690
      SHOW 0
      LASTSEL 0
      DOCKED 0
    >
    <ITEM
      POSITION 0
      SNAPOFFS 0
      LENGTH 480.02076606706265
      LOOP 1
      ALLTAKES 0
      FADEIN 1 0 0 1 0 0 0
      FADEOUT 1 0 0 1 0 0 0
      MUTE 0 0
      SEL 1
      IGUID {45AD67BD-295F-3343-A4C0-98B9A8752FF2}
      IID 32
      NAME ""
      VOLPAN 1 0 1 -1
      SOFFS 0 0
      PLAYRATE 1 1 0 -1 0 0.0025
      CHANMODE 0
      GUID {F284C3B8-DAB2-1446-B738-1440DF69662F}
      <SOURCE MIDI
        HASDATA 1 960 QN
        CCINTERP 32
        POOLEDEVTS {EF266D0C-877B-D14C-AFF5-21223CC6CACF}
        E 39 90 28 34
        E 0 91 39 34
        E 0 92 49 34
        E 3190 80 28 00
        E 0 81 39 00
        E 0 82 49 00
        E 0 90 24 34
        E 0 91 37 34
        E 0 92 4b 34
        E 1595 80 24 00
        E 0 81 37 00
        E 0 82 4b 00
        E 0 90 37 34
        E 0 91 4b 34
        E 0 92 60 34
        E 1595 80 37 00
        E 0 81 4b 00
        E 0 82 60 00
        E 0 90 30 34
        E 0 91 33 34
        E 0 92 37 34
        E 1595 81 33 00
        E 0 82 37 00
        E 0 91 35 34
        E 0 92 38 34
        E 1594 80 30 00
        E 0 81 35 00
        E 0 82 38 00
        E 0 90 2c 34
        E 0 91 59 34
        E 0 92 60 34
        E 1595 80 2c 00
        E 0 82 60 00
        E 0 90 2e 34
        E 0 92 61 34
        E 1595 80 2e 00
        E 0 90 2c 34
        E 1281 81 59 00
        E 0 80 2c 00
        E 0 90 2e 33
        E 0 91 5a 33
        E 603 82 61 00
        E 0 80 2e 00
        E 0 90 33 33
        E 0 92 5f 33
        E 603 81 5a 00
        E 0 80 33 00
        E 0 90 34 33
        E 0 91 5c 33
        E 602 82 5f 00
        E 0 81 5c 00
        E 0 91 5d 33
        E 0 92 61 33
        E 603 80 34 00
        E 0 81 5d 00
        E 0 82 61 00
        E 0 90 28 34
        E 0 91 51 34
        E 0 92 55 34
        E 1025 91 4f 34
        E 0 92 54 34
        E 1025 91 54 34
        E 0 92 5d 34
        E 1025 91 5d 34
        E 0 92 60 34
        E 1140 81 51 00
        E 0 82 55 00
        E 1025 81 4f 00
        E 0 82 54 00
        E 1024 81 54 00
        E 0 82 5d 00
        E 13 90 36 34
        E 0 91 52 34
        E 0 92 61 34
        E 1601 90 2a 34
        E 0 91 31 34
        E 0 92 46 34
        E 1589 80 28 00
        E 0 81 5d 00
        E 0 82 60 00
        E 13 91 49 34
        E 0 92 5e 34
        E 1588 81 52 00
        E 0 82 61 00
        E 13 91 4b 34
        E 0 92 5f 34
        E 1588 80 2a 00
        E 0 81 31 00
        E 0 82 46 00
        E 13 90 2f 34
        E 0 91 36 34
        E 0 92 3f 34
        E 1589 81 49 00
        E 0 82 5e 00
        E 12 90 2e 34
        E 0 92 3d 34
        E 1589 80 36 00
        E 0 81 4b 00
        E 0 82 5f 00
        E 1299 91 35 33
        E 302 80 2f 00
        E 303 90 2c 33
        E 0 92 3c 33
        E 605 90 2b 33
        E 0 91 33 33
        E 605 91 32 33
        E 0 92 3a 33
        E 606 90 37 34
        E 0 91 3a 34
        E 0 92 3e 34
        E 768 81 36 00
        E 0 82 3f 00
        E 261 91 3b 34
        E 0 92 40 34
        E 345 80 2e 00
        E 0 82 3d 00
        E 605 81 35 00
        E 0 80 2c 00
        E 79 91 3e 34
        E 0 92 47 34
        E 526 82 3c 00
        E 0 81 33 00
        E 502 91 47 34
        E 0 92 4a 34
        E 103 80 2b 00
        E 0 81 32 00
        E 0 82 3a 00
        E 1029 81 3a 00
        E 0 82 3e 00
        E 1029 81 3b 00
        E 0 82 40 00
        E 1029 81 3e 00
        E 0 82 47 00
        E 26 90 22 34
        E 0 91 29 34
        E 0 92 3d 34
        E 1607 90 29 34
        E 0 91 3d 34
        E 0 92 5e 34
        E 1582 80 37 00
        E 0 81 47 00
        E 0 82 4a 00
        E 26 90 25 34
        E 0 92 2e 34
        E 1582 80 22 00
        E 0 82 3d 00
        E 26 90 27 34
        E 0 91 2a 34
        E 1582 80 29 00
        E 0 81 3d 00
        E 0 82 5e 00
        E 25 90 36 34
        E 0 91 57 34
        E 0 92 5e 34
        E 1582 81 29 00
        E 0 80 25 00
        E 26 90 38 34
        E 0 92 5f 34
        E 1582 82 2e 00
        E 0 80 27 00
        E 0 81 2a 00
        E 1317 91 58 33
        E 291 82 5e 00
        E 317 90 39 33
        E 0 92 61 33
        E 607 91 5a 33
        E 0 92 62 33
        E 608 90 3b 33
        E 0 91 5b 33
        E 608 90 37 34
        E 0 91 56 34
        E 759 80 36 00
        E 0 81 57 00
        E 274 90 35 34
        E 0 92 5e 34
        E 333 80 38 00
        E 608 81 58 00
        E 0 82 61 00
        E 92 90 22 34
        E 0 91 37 34
        E 516 80 39 00
        E 0 81 5a 00
        E 517 91 26 34
        E 0 92 43 34
        E 90 80 3b 00
        E 0 81 5b 00
        E 1033 82 5f 00
        E 0 80 37 00
        E 1034 81 56 00
        E 0 80 35 00
        E 0 82 5e 00
        E 1033 82 62 00
        E 0 81 37 00
        E 38 92 41 34
        E 1614 90 29 34
        E 0 91 32 34
        E 0 92 52 34
        E 1576 82 43 00
        E 38 91 30 34
        E 0 92 51 34
        E 1576 80 22 00
        E 0 81 26 00
        E 0 82 41 00
        E 1335 92 5d 34
        E 279 82 52 00
        E 758 91 3e 34
        E 856 81 30 00
        E 1297 82 51 00
        E 1037 81 32 00
        E 51 91 3c 34
        E 1621 90 35 34
        E 0 91 39 34
        E 0 92 48 34
        E 1569 81 3e 00
        E 52 90 34 34
        E 0 91 37 34
        E 1569 80 29 00
        E 0 82 5d 00
        E 0 81 3c 00
        E 1353 90 2d 34
        E 0 91 34 34
        E 0 92 3c 34
        E 267 80 35 00
        E 1621 81 37 00
        E 1302 81 39 00
        E 0 80 34 00
        E 1041 82 3c 00
        E 65 90 31 34
        E 0 91 36 34
        E 0 92 52 34
        E 1627 90 36 34
        E 0 91 3d 34
        E 0 92 46 34
        E 1562 82 48 00
        E 0 80 2d 00
        E 0 81 34 00
        E 65 90 2a 34
        E 0 91 5e 34
        E 0 92 61 34
        E 1562 80 31 00
        E 0 81 36 00
        E 0 82 52 00
        E 65 91 57 34
        E 0 92 5f 34
        E 1562 80 36 00
        E 0 81 3d 00
        E 0 82 46 00
        E 65 91 2f 34
        E 0 92 4b 34
        E 1563 81 5e 00
        E 0 82 61 00
        E 64 91 2e 34
        E 0 92 49 34
        E 1563 81 57 00
        E 0 82 5f 00
        E 1371 90 29 33
        E 256 81 2f 00
        E 359 91 2c 33
        E 0 92 48 33
        E 615 90 27 33
        E 0 91 2b 33
        E 615 90 26 33
        E 0 92 46 33
        E 615 90 2b 34
        E 0 91 3a 34
        E 0 92 56 34
        E 730 80 2a 00
        E 0 82 4b 00
        E 316 91 3b 34
        E 0 92 58 34
        E 299 81 2e 00
        E 0 82 49 00
        E 615 80 29 00
        E 0 81 2c 00
        E 131 91 47 34
        E 484 82 48 00
        E 0 80 27 00
        E 562 92 62 34
        E 53 81 2b 00
        E 0 80 26 00
        E 0 82 46 00
        E 1045 81 3a 00
        E 1046 81 3b 00
        E 0 82 58 00
        E 1046 82 56 00
        E 77 91 4c 34
        E 0 92 5f 34
        E 1634 90 34 34
        E 0 91 37 34
        E 0 92 3b 34
        E 1556 81 47 00
        E 0 82 62 00
        E 77 91 39 34
        E 0 92 3c 34
        E 1556 80 2b 00
        E 0 81 4c 00
        E 0 82 5f 00
        E 1390 90 30 34
        E 0 91 34 34
        E 0 92 37 34
        E 244 82 3b 00
        E 806 92 40 34
        E 828 81 39 00
        E 1312 80 34 00
        E 0 82 3c 00
        E 1050 81 34 00
        E 0 82 37 00
        E 90 91 39 34
        E 1641 90 28 34
        E 0 91 30 34
        E 0 92 51 34
        E 1549 81 37 00
        E 91 90 29 34
        E 0 91 32 34
        E 1549 80 30 00
        E 0 82 40 00
        E 0 81 39 00
        E 1409 91 3c 34
        E 0 92 5d 34
        E 232 80 28 00
        E 821 91 48 34
        E 819 81 32 00
        E 1317 81 30 00
        E 0 82 51 00
        E 1054 81 3c 00
        E 104 90 2c 34
        E 0 91 2f 34
        E 0 92 33 34
        E 1647 90 23 34
        E 0 91 2c 34
        E 0 92 3f 34
        E 1543 80 29 00
        E 0 82 5d 00
        E 0 81 48 00
        E 104 90 27 34
        E 0 91 3b 34
        E 0 92 44 34
        E 1543 80 2c 00
        E 0 81 2f 00
        E 0 82 33 00
        E 103 90 28 34
        E 0 91 3d 34
        E 1543 80 23 00
        E 0 81 2c 00
        E 0 82 3f 00
        E 104 90 38 34
        E 0 91 40 34
        E 0 92 55 34
        E 1543 80 27 00
        E 0 81 3b 00
        E 104 90 39 34
        E 0 91 42 34
        E 1543 82 44 00
        E 0 80 28 00
        E 0 81 3d 00
        E 1427 92 56 33
        E 220 80 38 00
        E 402 90 3b 33
        E 0 91 43 33
        E 623 90 3c 33
        E 0 92 58 33
        E 622 91 45 33
        E 0 92 59 33
        E 622 90 35 34
        E 0 91 3c 34
        E 0 92 5d 34
        E 700 81 40 00
        E 0 82 55 00
        E 359 90 33 34
        E 0 92 5c 34
        E 264 80 39 00
        E 0 81 42 00
        E 622 82 56 00
        E 0 80 3b 00
        E 172 90 24 34
        E 0 91 38 34
        E 0 92 4d 34
        E 451 81 43 00
        E 0 82 58 00
        E 622 80 3c 00
        E 0 81 45 00
        E 1058 80 35 00
        E 0 82 5d 00
        E 1058 81 3c 00
        E 0 80 33 00
        E 0 82 5c 00
        E 1059 82 4d 00
        E 117 90 2a 34
        E 0 91 3e 34
        E 0 92 51 34
        E 1653 91 45 34
        E 0 92 4a 34
        E 1536 82 59 00
        E 0 80 24 00
        E 0 81 38 00
        E 118 90 26 34
        E 0 91 2a 34
        E 0 92 5d 34
        E 1536 81 3e 00
        E 0 82 51 00
        E 117 91 2b 34
        E 0 92 5f 34
        E 1536 80 2a 00
        E 0 81 45 00
        E 0 82 4a 00
        E 117 90 37 34
        E 0 91 3b 34
        E 0 92 62 34
        E 1537 81 2a 00
        E 0 82 5d 00
        E 117 90 36 34
        E 0 91 39 34
        E 1536 80 26 00
        E 0 81 2b 00
        E 0 82 5f 00
        E 1445 92 61 33
        E 209 80 37 00
        E 416 90 34 33
        E 0 91 38 33
        E 625 90 33 33
        E 0 92 5f 33
        E 625 91 36 33
        E 0 92 5e 33
        E 625 90 27 34
        E 0 91 3a 34
        E 0 92 42 34
        E 690 81 3b 00
        E 0 82 62 00
        E 373 91 3c 34
        E 0 92 43 34
        E 252 80 36 00
        E 0 81 39 00
        E 625 82 61 00
        E 0 80 34 00
        E 185 91 43 34
        E 0 92 46 34
        E 440 81 38 00
        E 0 82 5f 00
        E 622 91 2b 34
        E 3 80 33 00
        E 0 81 36 00
        E 0 82 5e 00
        E 1062 81 3a 00
        E 0 82 42 00
        E 1063 81 3c 00
        E 0 82 43 00
        E 1062 81 43 00
        E 131 92 48 34
        E 1660 90 2b 34
        E 0 91 30 34
        E 0 92 3f 34
        E 1529 82 46 00
        E 131 90 2c 34
        E 0 92 41 34
        E 1529 80 27 00
        E 0 81 2b 00
        E 0 82 48 00
        E 1464 91 3c 34
        E 0 92 4b 34
        E 196 80 2b 00
        E 871 92 57 34
        E 789 82 41 00
        E 1334 81 30 00
        E 0 82 3f 00
        E 1066 82 4b 00
        E 144 92 59 34
        E 1667 90 38 34
        E 0 91 4d 34
        E 0 92 60 34
        E 1523 82 57 00
        E 144 90 3a 34
        E 0 92 61 34
        E 1523 80 2c 00
        E 0 81 3c 00
        E 0 82 59 00
        E 1482 92 55 34
        E 184 82 60 00
        E 887 91 55 34
        E 0 92 59 34
        E 780 80 3a 00
        E 1339 82 61 00
        E 1071 81 4d 00
        E 0 82 55 00
        E 157 90 2f 34
        E 0 91 37 34
        E 0 92 40 34
        E 1673 90 23 34
        E 0 92 4c 34
        E 1517 80 38 00
        E 0 81 55 00
        E 0 82 59 00
        E 157 90 28 34
        E 0 92 3b 34
        E 1516 80 2f 00
        E 0 82 40 00
        E 157 91 39 34
        E 0 92 3c 34
        E 1516 80 23 00
        E 0 82 4c 00
        E 158 91 48 34
        E 0 92 51 34
        E 1516 81 37 00
        E 0 82 3b 00
        E 157 90 29 34
        E 0 91 4a 34
        E 1516 81 39 00
        E 0 82 3c 00
        E 1502 92 52 33
        E 172 80 28 00
        E 460 90 2b 33
        E 0 91 4b 33
        E 633 90 2c 33
        E 0 92 54 33
        E 632 91 4d 33
        E 0 92 55 33
        E 1292 81 48 00
        E 0 82 51 00
        E 416 91 4c 34
        E 0 92 53 34
        E 217 80 29 00
        E 0 81 4a 00
        E 632 82 52 00
        E 0 80 2b 00
        E 226 92 61 34
        E 407 81 4b 00
        E 0 82 54 00
        E 669 91 58 34
        E 1039 81 4d 00
        E 0 82 55 00
        E 1075 82 53 00
        E 1075 81 4c 00
        E 171 92 5f 34
        E 1680 90 34 34
        E 0 91 38 34
        E 1509 82 61 00
        E 171 90 33 34
        E 0 91 36 34
        E 1510 80 2c 00
        E 0 81 58 00
        E 1520 90 38 34
        E 0 91 3f 34
        E 160 80 34 00
        E 919 91 4b 34
        E 761 81 36 00
        E 1349 81 38 00
        E 0 80 33 00
        E 1080 81 3f 00
        E 184 90 36 34
        E 1687 90 2a 34
        E 0 91 2f 34
        E 0 92 3f 34
        E 1503 80 38 00
        E 184 91 2e 34
        E 0 92 3d 34
        E 1503 82 5f 00
        E 0 81 4b 00
        E 0 80 36 00
        E 1539 91 3a 34
        E 147 81 2f 00
        E 937 92 4b 34
        E 750 82 3d 00
        E 1355 81 2e 00
        E 1084 82 3f 00
        E 3585 92 49 36
        E 1694 90 28 36
        E 0 91 39 36
        E 1496 82 4b 00
        E 198 90 2d 36
        E 0 91 36 36
        E 0 92 3d 36
        E 1496 80 2a 00
        E 0 81 3a 00
        E 197 91 34 3b
        E 1323 90 2b 3b
        E 0 92 3c 3b
        E 173 82 49 00
        E 0 80 28 00
        E 0 81 39 00
        E 1151 91 30 3b
        E 0 92 34 3b
        E 543 81 36 00
        E 1323 82 3d 00
        E 490 91 2e 45
        E 0 92 33 45
        E 833 81 34 00
        E 0 82 3c 00
        E 201 90 37 45
        E 0 91 3c 45
        E 0 92 3f 45
        E 1034 91 3a 5a
        E 88 80 2d 00
        E 719 90 36 5a
        E 0 92 3d 5a
        E 315 81 30 00
        E 0 82 34 00
        E 493 91 3f 5a
        E 0 92 52 5a
        E 541 80 2b 00
        E 0 81 2e 00
        E 0 82 33 00
        E 883 90 34 5a
        E 0 91 39 5a
        E 0 92 54 5a
        E 151 81 3c 00
        E 465 90 24 5a
        E 0 91 28 5a
        E 0 92 2d 5a
        E 342 80 37 00
        E 0 82 3f 00
        E 274 91 3c 5a
        E 0 92 45 5a
        E 534 81 3a 00
        E 0 82 3d 00
        E 82 90 35 5a
        E 493 90 21 5a
        E 0 91 35 5a
        E 848 80 36 00
        E 0 81 3f 00
        E 0 82 52 00
        E 617 81 39 00
        E 262 90 27 45
        E 0 91 2a 45
        E 0 92 53 45
        E 354 80 24 00
        E 0 81 28 00
        E 0 82 2d 00
        E 398 90 2a 45
        E 0 91 33 45
        E 0 92 47 45
        E 218 80 34 00
        E 493 81 3c 00
        E 0 82 45 00
        E 0 80 35 00
        E 41 90 36 45
        E 0 91 57 45
        E 0 92 5f 45
        E 752 90 38 45
        E 0 91 58 45
        E 0 92 61 45
        E 752 90 28 45
        E 0 91 31 45
        E 0 92 44 45
        E 181 82 54 00
        E 0 80 21 00
        E 0 81 35 00
        E 571 92 45 45
        E 181 80 27 00
        E 0 81 2a 00
        E 0 82 53 00
        E 753 81 33 00
        E 0 82 47 00
        E 423 90 2d 45
        E 0 91 34 45
        E 0 92 55 45
        E 329 80 36 00
        E 0 81 57 00
        E 0 82 5f 00
        E 154 90 25 45
        E 0 91 28 45
        E 0 92 2d 45
        E 598 80 38 00
        E 0 81 58 00
        E 0 82 61 00
        E 752 82 44 00
        E 160 90 33 45
        E 0 91 37 45
        E 0 92 54 45
        E 592 80 2a 00
        E 12 90 37 45
        E 0 91 3f 45
        E 0 92 48 45
        E 592 80 28 00
        E 0 81 31 00
        E 0 82 45 00
        E 12 90 2b 45
        E 0 91 57 45
        E 0 92 60 45
        E 471 80 2d 00
        E 0 81 34 00
        E 0 82 55 00
        E 133 90 2c 45
        E 0 91 59 45
        E 605 91 48 45
        E 0 92 4d 45
        E 604 92 4b 5a
        E 169 80 25 00
        E 0 81 28 00
        E 0 82 2d 00
        E 435 90 2a 5a
        E 0 91 47 5a
        E 169 80 33 00
        E 0 81 37 00
        E 0 82 54 00
        E 435 91 53 5a
        E 0 92 57 5a
        E 169 80 37 00
        E 0 81 3f 00
        E 0 82 48 00
        E 604 80 2b 00
        E 0 81 57 00
        E 292 90 26 5a
        E 0 91 35 5a
        E 0 92 45 5a
        E 312 82 60 00
        E 0 81 59 00
        E 149 90 32 5a
        E 0 92 39 5a
        E 455 82 4d 00
        E 6 90 29 5a
        E 0 91 51 5a
        E 0 92 56 5a
        E 461 91 52 5a
        E 138 81 48 00
        E 230 91 56 5a
        E 0 92 5e 5a
        E 374 82 4b 00
        E 0 80 2a 00
        E 0 81 47 00
        E 1065 80 2c 00
        E 0 81 53 00
        E 0 82 57 00
        E 461 80 26 00
        E 0 82 45 00
        E 271 90 38 3b
        E 0 91 40 3b
        E 0 92 5f 3b
        E 190 81 35 00
        E 0 80 32 00
        E 0 82 39 00
        E 460 81 51 00
        E 229 91 4c 3b
        E 0 92 53 3b
        E 140 82 56 00
        E 0 81 52 00
        E 739 90 23 3b
        E 0 91 34 3b
        E 0 92 38 3b
        E 879 90 24 3b
        E 0 91 37 3b
        E 0 92 57 3b
        E 553 80 29 00
        E 0 81 56 00
        E 0 82 5e 00
        E 327 90 37 3b
        E 0 91 57 3b
        E 0 92 60 3b
        E 552 81 40 00
        E 0 82 5f 00
        E 327 90 30 3b
        E 0 92 3f 3b
        E 552 80 38 00
        E 0 81 4c 00
        E 0 82 53 00
        E 327 91 38 3b
        E 0 92 41 3b
        E 552 80 23 00
        E 0 81 34 00
        E 0 82 38 00
        E 327 90 29 3b
        E 552 80 24 00
        E 0 82 57 00
        E 327 91 3a 3b
        E 0 92 61 3b
        E 552 80 37 00
        E 0 81 57 00
        E 879 81 37 00
        E 0 82 3f 00
        E 154 90 2a 36
        E 333 91 3f 36
        E 0 92 5f 36
        E 332 90 2c 36
        E 0 91 40 36
        E 61 80 30 00
        E 0 82 41 00
        E 271 90 2d 36
        E 332 90 28 3b
        E 0 91 51 3b
        E 276 82 60 00
        E 289 91 4f 3b
        E 0 92 60 3b
        E 565 91 5d 3b
        E 565 90 24 3b
        E 0 91 34 3b
        E 0 92 5d 3b
        E 166 81 38 00
        E 0 80 29 00
        E 332 81 3a 00
        E 332 80 2a 00
        E 0 81 3f 00
        E 333 82 5f 00
        E 0 80 2c 00
        E 332 81 40 00
        E 0 80 2d 00
        E 270 92 5b 3b
        E 295 82 61 00
        E 0 81 51 00
        E 565 81 4f 00
        E 23 90 37 3b
        E 0 91 4c 3b
        E 0 92 54 3b
        E 542 80 28 00
        E 0 82 60 00
        E 0 81 5d 00
        E 341 91 4a 3b
        E 0 92 53 3b
        E 1424 82 5d 00
        E 167 92 5f 3b
        E 567 91 58 3b
        E 149 80 24 00
        E 0 81 34 00
        E 0 82 5b 00
        E 882 82 54 00
        E 742 91 56 3b
        E 141 81 4a 00
        E 709 82 53 00
        E 36 90 2b 3b
        E 0 91 3b 3b
        E 0 92 62 3b
        E 531 81 4c 00
        E 355 90 2a 3b
        E 0 91 39 3b
        E 1417 81 58 00
        E 181 91 2f 3b
        E 0 92 56 3b
        E 706 80 37 00
        E 0 82 5f 00
        E 0 81 56 00
        E 886 80 2b 00
        E 757 90 2c 3b
        E 0 91 33 3b
        E 0 92 60 3b
        E 129 81 39 00
        E 583 91 3f 3b
        E 0 92 54 3b
        E 129 81 3b 00
        E 569 82 56 00
        E 14 90 24 3b
        E 0 92 44 3b
        E 712 90 25 3b
        E 0 91 35 3b
        E 711 90 38 3b
        E 0 91 3d 3b
        E 0 92 4d 3b
        E 343 82 62 00
        E 0 80 2a 00
        E 0 81 2f 00
        E 369 90 3a 45
        E 343 82 60 00
        E 369 91 3e 45
        E 0 92 4f 45
        E 342 80 2c 00
        E 0 81 3f 00
        E 0 82 54 00
        E 370 90 35 45
        E 0 92 46 45
        E 342 81 33 00
        E 0 80 24 00
        E 370 90 37 5a
        E 342 82 44 00
        E 0 80 25 00
        E 0 81 35 00
        E 214 91 40 5a
        E 0 92 47 5a
        E 498 80 38 00
        E 58 91 4a 5a
        E 0 92 5f 5a
        E 654 81 3d 00
        E 0 82 4d 00
        E 326 90 29 5a
        E 0 91 2c 5a
        E 0 92 49 5a
        E 385 80 3a 00
        E 0 82 4f 00
        E 39 90 2c 5a
        E 0 91 35 5a
        E 0 92 3d 5a
        E 425 90 38 5a
        E 0 91 55 5a
        E 0 92 59 5a
        E 248 80 35 00
        E 176 90 3a 5a
        E 0 91 57 5a
        E 0 92 5a 5a
        E 339 90 27 5a
        E 0 91 2e 5a
        E 0 92 42 5a
        E 41 81 3e 00
        E 0 82 46 00
        E 556 81 40 00
        E 0 82 47 00
        E 592 90 28 45
        E 0 91 30 45
        E 0 92 5d 45
        E 389 80 37 00
        E 0 81 4a 00
        E 0 82 5f 00
        E 129 91 3c 45
        E 0 92 51 45
        E 295 80 29 00
        E 0 81 2c 00
        E 0 82 49 00
        E 223 90 21 45
        E 0 91 24 45
        E 0 92 28 45
        E 201 80 2c 00
        E 0 81 35 00
        E 0 82 3d 00
        E 317 92 29 45
        E 108 80 38 00
        E 0 81 55 00
        E 0 82 59 00
        E 339 80 3a 00
        E 0 81 57 00
        E 0 82 5a 00
        E 71 90 29 45
        E 0 92 45 45
        E 518 92 43 45
        E 600 80 27 00
        E 0 81 2e 00
        E 0 82 42 00
        E 333 90 24 45
        E 0 91 28 45
        E 0 92 39 45
        E 185 82 5d 00
        E 518 81 3c 00
        E 0 82 51 00
        E 517 82 28 00
        E 153 90 22 45
        E 0 91 36 45
        E 0 92 49 45
        E 365 80 21 00
        E 0 81 24 00
        E 0 82 29 00
        E 51 90 36 45
        E 0 91 49 45
        E 0 92 5e 45
        E 416 90 2e 45
        E 0 91 31 45
        E 0 92 36 45
        E 51 80 29 00
        E 365 90 2f 45
        E 0 91 33 45
        E 153 82 43 00
        E 263 90 2a 45
        E 0 91 47 45
        E 0 92 57 45
        E 153 82 45 00
        E 263 90 2c 5a
        E 70 80 24 00
        E 0 81 28 00
        E 346 91 48 5a
        E 0 92 59 5a
        E 416 90 27 5a
        E 0 91 38 5a
        E 0 92 60 5a
        E 278 80 28 00
        E 0 81 30 00
        E 0 82 39 00
        E 416 80 22 00
        E 0 81 36 00
        E 0 82 49 00
        E 39 90 32 5a
        E 0 91 36 5a
        E 0 92 51 5a
        E 318 91 3e 5a
        E 0 92 45 5a
        E 59 81 49 00
        E 0 82 5e 00
        E 258 91 5d 5a
        E 0 92 62 5a
        E 158 80 2e 00
        E 0 81 31 00
        E 160 90 28 5a
        E 0 91 5b 5a
        E 0 92 5f 5a
        E 253 91 34 5a
        E 0 92 37 5a
        E 3 82 36 00
        E 0 81 33 00
        E 832 81 47 00
        E 0 82 57 00
        E 416 80 2c 00
        E 0 81 48 00
        E 0 82 59 00
        E 733 80 27 00
        E 0 81 38 00
        E 0 82 60 00
        E 318 80 32 00
        E 0 81 36 00
        E 0 82 51 00
        E 139 90 35 36
        E 0 91 3d 36
        E 0 92 5e 36
        E 178 80 36 00
        E 0 81 3e 00
        E 0 82 45 00
        E 317 80 2a 00
        E 0 81 5d 00
        E 0 82 62 00
        E 254 80 28 00
        E 0 81 5b 00
        E 0 82 5f 00
        E 197 91 49 36
        E 0 92 52 36
        E 946 90 22 36
        E 0 91 31 36
        E 0 92 35 36
        E 945 90 28 36
        E 0 91 30 36
        E 0 92 43 36
        E 353 80 2f 00
        E 0 81 34 00
        E 0 82 37 00
        E 593 90 24 36
        E 0 91 28 36
        E 0 92 2b 36
        E 352 81 3d 00
        E 0 82 5e 00
        E 594 90 37 36
        E 0 91 3c 36
        E 0 92 4c 36
        E 352 80 35 00
        E 0 81 49 00
        E 0 82 52 00
        E 594 90 39 36
        E 0 92 4d 36
        E 352 80 22 00
        E 0 81 31 00
        E 0 82 35 00
        E 594 90 21 36
        E 0 91 35 36
        E 0 92 3c 36
        E 352 80 28 00
        E 0 81 30 00
        E 0 82 43 00
        E 594 90 28 36
        E 0 91 37 36
        E 352 80 24 00
        E 0 81 28 00
        E 0 82 2b 00
        E 594 91 39 36
        E 352 80 37 00
        E 0 82 4c 00
        E 407 92 3b 34
        E 358 90 26 34
        E 0 91 36 34
        E 181 81 3c 00
        E 0 80 39 00
        E 0 82 4d 00
        E 176 90 25 34
        E 0 92 39 34
        E 358 91 34 34
        E 0 92 38 34
        E 357 90 34 36
        E 0 91 38 36
        E 0 92 61 36
        E 54 80 21 00
        E 0 81 35 00
        E 554 90 35 36
        E 0 91 3a 36
        E 608 92 41 36
        E 544 82 3c 00
        E 0 81 39 00
        E 64 92 4d 36
        E 293 80 28 00
        E 0 81 37 00
        E 358 82 3b 00
        E 0 80 26 00
        E 357 81 36 00
        E 0 82 39 00
        E 358 81 34 00
        E 0 82 38 00
        E 533 90 2b 36
        E 0 91 34 36
        E 0 92 5f 36
        E 75 80 34 00
        E 608 82 61 00
        E 0 80 35 00
        E 0 81 3a 00
        E 267 91 40 36
        E 0 92 53 36
        E 340 82 41 00
        E 609 90 23 36
        E 0 92 43 36
        E 950 90 24 36
        E 0 92 45 36
        E 341 80 25 00
        E 0 81 38 00
        E 0 82 4d 00
        E 608 90 34 36
        E 0 91 39 36
        E 0 92 48 36
        E 341 82 5f 00
        E 609 90 35 36
        E 0 92 4a 36
        E 341 80 2b 00
        E 0 81 40 00
        E 0 82 53 00
        E 949 80 23 00
        E 0 82 43 00
        E 423 91 3a 34
        E 358 90 37 34
        E 0 92 4b 34
        E 169 81 34 00
        E 0 80 24 00
        E 0 82 45 00
        E 190 90 38 34
        E 0 91 3c 34
        E 359 91 3d 34
        E 0 92 4d 34
        E 359 92 59 36
        E 42 80 34 00
        E 569 91 3b 36
        E 0 92 58 36
        E 610 91 49 36
        E 533 81 39 00
        E 0 82 48 00
        E 77 90 28 36
        E 0 91 44 36
        E 0 92 49 36
        E 282 80 35 00
        E 0 82 4a 00
        E 359 81 3a 00
        E 0 80 37 00
        E 359 82 4b 00
        E 0 81 3c 00
        E 359 82 4d 00
        E 548 92 47 36
        E 62 81 3d 00
        E 0 82 59 00
        E 610 81 3b 00
        E 281 90 2c 36
        E 0 91 34 36
        E 330 80 38 00
        E 0 82 58 00
        E 0 81 49 00
        E 624 90 2a 36
        E 0 91 33 36
        E 1283 82 49 00
        E 436 91 3f 36
        E 517 80 28 00
        E 0 81 44 00
        E 96 91 47 36
        E 0 92 4b 36
        E 857 81 34 00
        E 954 80 2a 00
        E 103 90 2a 36
        E 663 81 33 00
        E 295 90 36 36
        E 0 92 5f 36
        E 317 82 47 00
        E 640 91 3d 36
        E 0 92 5e 36
        E 1275 80 2c 00
        E 451 90 22 36
        E 0 91 36 36
        E 506 81 47 00
        E 0 80 2a 00
        E 109 92 57 36
        E 849 82 5f 00
        E 957 81 3d 00
        E 116 90 30 36
        E 0 91 34 36
        E 0 92 37 36
        E 653 81 3f 00
        E 0 80 36 00
        E 0 82 5e 00
        E 309 90 24 36
        E 0 91 37 36
        E 0 92 40 36
        E 306 82 4b 00
        E 655 90 2b 36
        E 0 91 3c 36
        E 0 92 58 36
        E 961 90 2d 36
        E 0 92 59 36
        E 306 80 22 00
        E 0 81 36 00
        E 0 82 57 00
        E 655 90 21 36
        E 0 91 29 36
        E 0 92 54 36
        E 306 80 30 00
        E 0 81 34 00
        E 0 82 37 00
        E 655 90 28 36
        E 0 91 2b 36
        E 306 80 24 00
        E 0 81 37 00
        E 0 82 40 00
        E 655 91 2d 36
        E 306 80 2b 00
        E 0 82 58 00
        E 466 92 53 34
        E 363 90 26 34
        E 0 91 2a 34
        E 133 81 3c 00
        E 0 80 2d 00
        E 0 82 59 00
        E 231 90 25 34
        E 0 92 51 34
        E 363 91 28 34
        E 0 92 50 34
        E 363 90 2c 36
        E 0 91 40 36
        E 0 92 61 36
        E 4 80 21 00
        E 0 81 29 00
        E 614 90 2e 36
        E 0 91 41 36
        E 618 91 2c 36
        E 0 92 4d 36
        E 501 82 54 00
        E 0 81 2d 00
        E 116 92 59 36
        E 247 80 28 00
        E 0 81 2b 00
        E 363 82 53 00
        E 0 80 26 00
        E 364 81 2a 00
        E 0 82 51 00
        E 363 81 28 00
        E 0 82 50 00
        E 593 91 2e 36
        E 25 80 2c 00
        E 0 81 40 00
        E 617 82 61 00
        E 0 80 2e 00
        E 0 81 41 00
        E 323 90 29 36
        E 0 91 5e 36
        E 0 92 61 36
        E 295 82 4d 00
        E 670 90 27 36
        E 0 91 5a 36
        E 0 92 5e 36
        E 1260 81 2c 00
        E 480 90 22 36
        E 0 91 31 36
        E 0 92 36 36
        E 485 82 59 00
        E 0 81 2e 00
        E 135 91 36 36
        E 0 92 3d 36
        E 830 80 29 00
        E 0 81 5e 00
        E 0 82 61 00
        E 965 80 27 00
        E 143 92 3f 36
        E 632 80 25 00
        E 0 81 5a 00
        E 0 82 5e 00
        E 337 90 2a 36
        E 0 91 33 36
        E 0 92 46 36
        E 283 81 31 00
        E 0 82 36 00
        E 686 90 2c 36
        E 0 92 47 36
        E 1252 82 3d 00
        E 495 92 3b 36
        E 474 80 22 00
        E 0 81 36 00
        E 0 82 3f 00
        E 148 91 3b 36
        E 0 92 3f 36
        E 820 82 46 00
        E 969 80 2c 00
        E 157 90 21 36
        E 0 91 35 36
        E 0 92 4a 36
        E 621 82 47 00
        E 157 90 35 36
        E 0 91 4a 36
        E 0 92 5d 36
        E 466 81 33 00
        E 0 82 3b 00
        E 312 90 2d 36
        E 0 91 32 36
        E 0 92 35 36
        E 778 90 2e 36
        E 0 92 37 36
        E 779 90 26 36
        E 0 91 37 36
        E 0 92 52 36
        E 77 80 2a 00
        E 0 81 3b 00
        E 0 82 3f 00
        E 778 80 21 00
        E 0 82 4a 00
        E 701 90 25 3b
        E 0 92 50 3b
        E 77 80 35 00
        E 0 81 4a 00
        E 0 82 5d 00
        E 701 90 29 3b
        E 0 91 52 3b
        E 0 92 61 3b
        E 77 80 2d 00
        E 0 82 35 00
        E 702 91 50 45
        E 76 81 32 00
        E 0 80 2e 00
        E 0 82 37 00
        E 531 90 28 45
        E 0 92 5f 45
        E 248 81 37 00
        E 360 91 38 45
        E 418 80 26 00
        E 0 82 52 00
        E 665 90 26 5a
        E 0 91 37 5a
        E 113 81 35 00
        E 0 80 25 00
        E 0 82 50 00
        E 362 90 2f 5a
        E 0 91 34 5a
        E 0 92 37 5a
        E 416 81 52 00
        E 422 90 35 5a
        E 0 91 3d 5a
        E 0 92 5e 5a
        E 186 80 29 00
        E 176 91 49 5a
        E 0 92 52 5a
        E 362 90 22 5a
        E 0 91 31 5a
        E 0 92 35 5a
        E 70 81 50 00
        E 293 92 36 5a
        E 290 90 36 5a
        E 0 92 46 5a
        E 25 82 61 00
        E 475 80 28 00
        E 0 81 38 00
        E 475 82 5f 00
        E 0 80 26 00
        E 0 81 37 00
        E 40 90 28 45
        E 0 91 30 45
        E 0 92 43 45
        E 443 90 24 45
        E 0 91 28 45
        E 0 92 2b 45
        E 354 80 2f 00
        E 0 81 34 00
        E 0 82 37 00
        E 88 90 37 45
        E 0 91 3c 45
        E 0 92 4c 45
        E 275 82 5e 00
        E 167 90 39 45
        E 0 91 3e 45
        E 0 92 4d 45
        E 195 80 35 00
        E 0 81 49 00
        E 0 82 52 00
        E 248 90 35 45
        E 0 92 5d 45
        E 115 82 35 00
        E 289 80 22 00
        E 0 81 31 00
        E 0 82 36 00
        E 38 92 5e 45
        E 798 92 52 45
        E 180 81 3d 00
        E 0 80 36 00
        E 0 82 46 00
        E 104 91 4a 45
        E 338 80 28 00
        E 0 81 30 00
        E 0 82 43 00
        E 443 80 24 00
        E 0 81 28 00
        E 0 82 2b 00
        E 107 90 28 45
        E 0 91 31 45
        E 0 92 38 45
        E 335 81 3c 00
        E 0 82 4c 00
        E 20 90 25 45
        E 0 91 34 45
        E 356 90 2c 45
        E 0 91 3d 45
        E 0 92 4c 45
        E 66 80 39 00
        E 0 82 4d 00
        E 289 90 2d 45
        E 0 92 4e 45
        E 154 82 5d 00
        E 201 90 21 45
        E 0 91 2a 45
        E 0 92 49 45
        E 241 80 37 00
        E 115 91 28 5a
        E 240 82 5e 00
        E 115 90 24 5a
        E 0 92 43 5a
        E 170 81 3e 00
        E 185 92 3c 5a
        E 627 90 22 5a
        E 0 91 27 5a
        E 0 92 36 5a
        E 76 80 35 00
        E 0 82 52 00
        E 0 81 4a 00
        E 195 90 27 5a
        E 0 91 36 5a
        E 0 92 5e 5a
        E 160 80 28 00
        E 0 81 31 00
        E 111 90 2a 5a
        E 0 91 2e 5a
        E 0 92 4b 5a
        E 244 82 38 00
        E 0 80 25 00
        E 0 81 34 00
        E 27 91 2f 5a
        E 217 91 3b 5a
        E 112 80 2c 00
        E 0 82 4c 00
        E 355 81 3d 00
        E 0 80 2d 00
        E 0 82 4e 00
        E 355 81 2a 00
        E 356 82 49 00
        E 98 90 30 3b
        E 0 91 35 3b
        E 0 92 39 3b
        E 257 80 24 00
        E 0 82 43 00
        E 260 90 2d 3b
        E 366 80 21 00
        E 0 81 28 00
        E 151 90 29 3b
        E 0 91 45 3b
        E 0 92 60 3b
        E 120 80 22 00
        E 0 81 27 00
        E 0 82 36 00
        E 271 80 27 00
        E 0 81 36 00
        E 0 82 5e 00
        E 126 90 38 3b
        E 0 91 40 3b
        E 0 92 49 3b
        E 146 81 2e 00
        E 216 81 2f 00
        E 156 91 3d 3b
        E 0 92 4c 3b
        E 517 90 28 3b
        E 0 91 38 3b
        E 0 92 55 3b
        E 517 91 39 3b
        E 87 82 4b 00
        E 0 81 3b 00
        E 430 92 61 3b
        E 87 80 30 00
        E 0 82 39 00
        E 430 91 3b 3b
        E 0 92 62 3b
        E 87 82 3c 00
        E 0 81 35 00
        E 0 80 2d 00
        E 517 80 29 00
        E 0 81 45 00
        E 0 82 60 00
        E 328 90 2b 36
        E 189 81 40 00
        E 0 82 49 00
        E 6 91 40 36
        E 0 92 60 36
        E 196 90 2d 36
        E 0 91 41 36
        E 195 90 2e 36
        E 120 80 38 00
        E 0 81 3d 00
        E 0 82 4c 00
        E 76 90 29 3b
        E 0 91 2e 3b
        E 0 92 56 3b
        E 332 91 2c 3b
        E 109 80 28 00
        E 0 81 38 00
        E 223 91 3a 3b
        E 1371 91 38 3b
        E 373 80 2a 00
        E 0 81 39 00
        E 146 90 31 3b
        E 0 92 41 3b
        E 49 81 3b 00
        E 196 80 2b 00
        E 0 81 40 00
        E 195 82 60 00
        E 0 80 2d 00
        E 79 90 30 3b
        E 0 92 3f 3b
        E 116 82 62 00
        E 0 81 41 00
        E 0 80 2e 00
        E 333 81 2e 00
        E 0 82 56 00
        E 332 81 2c 00
        E 155 90 38 3b
        E 0 91 3c 3b
        E 177 82 55 00
        E 157 92 4d 3b
        E 881 81 3a 00
        E 161 92 4b 3b
        E 358 82 61 00
        E 0 80 29 00
        E 163 90 2c 3b
        E 0 91 4b 3b
        E 0 92 60 3b
        E 357 80 31 00
        E 164 90 2b 3b
        E 0 92 5e 3b
        E 355 82 3f 00
        E 417 81 38 00
        E 0 80 30 00
        E 168 91 3f 3b
        E 0 92 54 3b
        E 165 82 41 00
        E 1043 82 4d 00
        E 174 90 2d 3b
        E 0 91 34 3b
        E 0 92 55 3b
        E 347 80 38 00
        E 0 81 3c 00
        E 0 82 4b 00
        E 71 90 21 3b
        E 0 91 25 3b
        E 0 92 28 3b
        E 419 90 34 3b
        E 0 91 39 3b
        E 0 92 3d 3b
        E 31 80 2c 00
        E 388 90 36 3b
        E 0 92 3e 3b
        E 133 82 5e 00
        E 285 91 32 3b
        E 0 92 36 3b
        E 134 82 60 00
        E 285 90 23 45
        E 50 81 3f 00
        E 369 91 33 45
        E 0 92 38 45
        E 418 91 36 45
        E 0 92 3f 45
        E 259 81 4b 00
        E 0 80 2b 00
        E 0 82 54 00
        E 160 91 38 5a
        E 259 80 2d 00
        E 0 81 34 00
        E 0 82 55 00
        E 68 90 24 5a
        E 0 92 41 5a
        E 327 90 38 5a
        E 0 91 3c 5a
        E 0 92 4b 5a
        E 24 81 25 00
        E 0 82 28 00
        E 418 80 34 00
        E 0 82 3d 00
        E 135 90 2d 5a
        E 0 92 56 5a
        E 249 92 62 5a
        E 35 81 39 00
        E 0 80 36 00
        E 0 82 3e 00
        E 215 90 36 5a
        E 0 91 39 5a
        E 0 92 3e 5a
        E 249 90 37 5a
        E 0 91 3b 5a
        E 0 92 40 5a
        E 200 91 4c 5a
        E 0 92 53 5a
        E 173 81 32 00
        E 0 82 36 00
        E 419 81 33 00
        E 0 82 38 00
        E 107 90 25 45
        E 0 91 29 45
        E 0 92 3a 45
        E 304 90 29 45
        E 0 91 2e 45
        E 0 92 31 45
        E 305 90 35 45
        E 0 91 46 45
        E 0 92 49 45
        E 30 80 23 00
        E 0 82 3f 00
        E 327 81 38 00
        E 0 80 24 00
        E 0 82 41 00
        E 252 90 22 45
        E 0 92 61 45
        E 305 91 38 45
        E 19 80 38 00
        E 0 81 3c 00
        E 0 82 4b 00
        E 250 80 2d 00
        E 0 82 56 00
        E 35 91 3a 45
        E 214 80 21 00
        E 0 82 62 00
        E 31 91 49 45
        E 0 92 5e 45
        E 196 91 55 45
        E 23 81 39 00
        E 0 82 3e 00
        E 199 81 3b 00
        E 0 82 40 00
        E 389 90 32 45
        E 0 91 37 45
        E 0 92 47 45
        E 245 91 3b 45
        E 0 92 3e 45
        E 66 81 4c 00
        E 0 82 53 00
        E 179 90 2b 45
        E 0 91 53 45
        E 0 92 62 45
        E 125 80 25 00
        E 0 81 29 00
        E 0 82 3a 00
        E 119 91 58 45
        E 0 92 60 45
        E 186 81 2e 00
        E 0 82 31 00
        E 59 90 24 45
        E 0 91 2b 45
        E 0 92 4c 45
        E 245 91 2d 5a
        E 244 90 25 5a
        E 0 92 4e 5a
        E 61 80 36 00
        E 0 81 46 00
        E 0 82 49 00
        E 184 90 28 5a
        E 0 92 49 5a
        E 121 81 36 00
        E 0 80 22 00
        E 304 81 38 00
        E 6 90 2e 5a
        E 0 91 33 5a
        E 0 92 37 5a
        E 187 90 22 5a
        E 0 92 3f 5a
        E 52 80 29 00
        E 0 82 61 00
        E 0 81 3a 00
        E 135 91 3a 5a
        E 0 92 57 5a
        E 61 81 49 00
        E 125 90 2c 5a
        E 0 91 3c 5a
        E 0 92 59 5a
        E 150 91 54 5a
        E 336 80 35 00
        E 0 82 5e 00
        E 0 81 55 00
        E 245 80 32 00
        E 0 82 47 00
        E 244 80 37 00
        E 0 81 3b 00
        E 0 82 3e 00
        E 245 81 53 00
        E 0 82 62 00
        E 245 81 58 00
        E 0 82 60 00
        E 244 81 2b 00
        E 245 80 24 00
        E 0 82 4c 00
        E 245 80 25 00
        E 0 82 4e 00
        E 431 81 2d 00
        E 0 80 28 00
        E 0 82 49 00
        E 187 80 2e 00
        E 0 81 33 00
        E 0 82 37 00
        E 186 81 37 00
        E 0 80 22 00
        E 0 82 3f 00
        E 187 80 2b 00
        E 0 81 3a 00
        E 0 82 57 00
        E 149 81 3c 00
        E 854 90 29 36
        E 0 90 3e 36
        E 0 90 52 36
        E 1955 90 4a 36
        E 1234 80 2c 00
        E 0 82 59 00
        E 0 81 54 00
        E 722 90 26 36
        E 0 90 46 36
        E 1234 80 3e 00
        E 722 90 27 36
        E 0 90 2b 36
        E 1234 80 52 00
        E 0 80 4a 00
        E 721 90 33 36
        E 0 90 43 36
        E 0 90 52 36
        E 1234 80 29 00
        E 0 80 26 00
        E 722 90 44 36
        E 0 90 54 36
        E 1234 80 46 00
        E 0 80 27 00
        E 0 80 2b 00
        E 722 90 35 36
        E 1234 80 43 00
        E 0 80 52 00
        E 337 90 46 34
        E 0 90 55 34
        E 739 90 36 34
        E 0 90 4b 34
        E 0 90 52 34
        E 739 90 38 34
        E 0 90 53 34
        E 140 80 33 00
        E 599 90 4c 34
        E 739 90 34 36
        E 0 90 49 36
        E 233 80 54 00
        E 739 80 35 00
        E 0 80 46 00
        E 285 90 43 36
        E 0 90 47 36
        E 455 80 36 00
        E 0 80 52 00
        E 739 80 4b 00
        E 0 80 53 00
        E 63 90 23 36
        E 0 90 32 36
        E 676 80 55 00
        E 0 80 38 00
        E 0 80 4c 00
        E 580 90 2b 36
        E 0 90 3b 36
        E 677 80 44 00
        E 0 80 49 00
        E 1256 80 34 00
        E 0 80 47 00
        E 1257 80 43 00
        E 0 80 23 00
        E 738 90 25 36
        E 0 90 35 36
        E 0 90 52 36
        E 1963 90 31 36
        E 1226 80 32 00
        E 0 80 2b 00
        E 0 80 3b 00
        E 738 90 29 36
        E 0 90 46 36
        E 0 90 49 36
        E 1226 80 25 00
        E 737 90 2a 36
        E 0 90 4b 36
        E 1226 80 35 00
        E 0 80 52 00
        E 0 80 31 00
        E 738 90 22 36
        E 0 90 3f 36
        E 1226 80 29 00
        E 0 80 49 00
        E 737 90 29 36
        E 0 90 3d 36
        E 1226 80 46 00
        E 0 80 4b 00
        E 738 90 25 36
        E 0 90 38 36
        E 1226 80 2a 00
        E 0 80 3f 00
        E 351 90 24 34
        E 0 90 27 34
        E 742 90 37 34
        E 742 90 26 34
        E 0 90 35 34
        E 129 80 3d 00
        E 614 90 21 34
        E 742 90 48 36
        E 221 80 25 00
        E 742 80 38 00
        E 298 90 2a 36
        E 0 90 4a 36
        E 444 80 27 00
        E 0 80 37 00
        E 742 80 22 00
        E 0 80 26 00
        E 76 90 23 36
        E 0 90 3e 36
        E 666 80 24 00
        E 0 80 35 00
        E 596 90 2f 36
        E 666 80 29 00
        E 0 80 48 00
        E 1262 80 21 00
        E 1262 80 23 00
        E 0 80 3e 00
        E 753 90 24 36
        E 0 90 3f 36
        E 0 90 44 36
        E 1971 90 4b 36
        E 1218 80 2a 00
        E 0 80 4a 00
        E 0 80 2f 00
        E 754 90 38 36
        E 0 90 54 36
        E 1218 80 3f 00
        E 753 90 4d 36
        E 0 90 55 36
        E 1218 80 24 00
        E 0 80 44 00
        E 753 90 29 36
        E 1219 80 4b 00
        E 0 80 54 00
        E 753 90 2a 36
        E 0 90 3a 36
        E 1218 80 4d 00
        E 753 90 3f 36
        E 0 90 52 36
        E 1219 80 38 00
        E 0 80 29 00
        E 365 90 2c 34
        E 0 90 53 34
        E 745 90 40 34
        E 745 90 2d 34
        E 0 90 42 34
        E 116 80 3a 00
        E 629 90 2f 34
        E 0 90 56 34
        E 955 80 52 00
        E 745 80 3f 00
        E 312 90 29 36
        E 0 90 51 36
        E 433 80 2c 00
        E 0 80 40 00
        E 745 80 55 00
        E 0 80 2d 00
        E 89 90 2d 36
        E 0 90 30 36
        E 0 90 35 36
        E 656 80 42 00
        E 0 80 2f 00
        E 611 90 39 36
        E 0 90 3c 36
        E 656 80 2a 00
        E 0 80 53 00
        E 1267 80 56 00
        E 0 80 29 00
        E 0 80 51 00
        E 1267 80 2d 00
        E 0 80 30 00
        E 769 90 3e 36
        E 1979 90 45 36
        E 0 90 4a 36
        E 1210 80 3c 00
        E 769 90 34 36
        E 0 90 48 36
        E 1211 80 39 00
        E 0 80 3e 00
        E 769 90 43 36
        E 1210 80 35 00
        E 0 80 4a 00
        E 379 90 28 36
        E 0 90 3c 36
        E 1600 80 45 00
        E 2862 80 28 00
        E 0 80 3c 00
        E 785 90 45 36
        E 1987 90 24 36
        E 0 90 39 36
        E 1203 80 43 00
        E 785 90 23 36
        E 0 90 37 36
        E 1202 80 48 00
        E 0 80 45 00
        E 785 90 32 36
        E 1202 80 24 00
        E 0 80 39 00
        E 394 90 47 36
        E 1277 90 3e 36
        E 0 90 53 36
        E 316 80 34 00
        E 1597 80 23 00
        E 1277 80 32 00
        E 0 80 47 00
        E 801 90 25 36
        E 0 90 35 36
        E 0 90 52 36
        E 1995 90 31 36
        E 1194 80 37 00
        E 0 80 3e 00
        E 0 80 53 00
        E 801 90 29 36
        E 0 90 46 36
        E 0 90 49 36
        E 1195 80 25 00
        E 800 90 2a 36
        E 0 90 4b 36
        E 1195 80 35 00
        E 0 80 52 00
        E 0 80 31 00
        E 801 90 22 36
        E 0 90 3f 36
        E 1194 80 29 00
        E 0 80 49 00
        E 801 90 29 36
        E 0 90 3d 36
        E 1194 80 46 00
        E 0 80 4b 00
        E 801 90 25 36
        E 0 90 38 36
        E 1195 80 2a 00
        E 0 80 3f 00
        E 408 90 24 34
        E 0 90 27 34
        E 754 90 37 34
        E 754 90 26 34
        E 0 90 35 34
        E 79 80 3d 00
        E 675 90 21 34
        E 755 90 48 36
        E 173 80 25 00
        E 754 80 38 00
        E 355 90 2a 36
        E 0 90 4a 36
        E 399 80 27 00
        E 0 80 37 00
        E 754 80 22 00
        E 0 80 26 00
        E 129 90 23 36
        E 0 90 3e 36
        E 625 80 24 00
        E 0 80 35 00
        E 657 90 2f 36
        E 625 80 29 00
        E 0 80 48 00
        E 1282 80 21 00
        E 1283 80 23 00
        E 0 80 3e 00
        E 817 90 2d 36
        E 2003 90 26 36
        E 0 90 36 36
        E 0 90 45 36
        E 1186 80 2f 00
        E 817 90 37 36
        E 0 90 47 36
        E 1186 80 2a 00
        E 0 80 4a 00
        E 0 80 2d 00
        E 817 90 28 36
        E 1187 80 36 00
        E 0 80 45 00
        E 422 90 34 36
        E 1288 90 40 36
        E 0 90 53 36
        E 293 80 26 00
        E 1609 80 28 00
        E 1287 80 47 00
        E 0 80 34 00
        E 833 90 3e 36
        E 2012 90 2b 36
        E 0 90 47 36
        E 0 90 4a 36
        E 1178 80 40 00
        E 833 90 48 36
        E 0 90 4c 36
        E 1178 80 37 00
        E 0 80 53 00
        E 0 80 3e 00
        E 833 90 2d 36
        E 1179 80 47 00
        E 0 80 4a 00
        E 437 90 28 36
        E 0 90 39 36
        E 0 90 3c 36
        E 1292 90 45 36
        E 282 80 2b 00
        E 1616 80 4c 00
        E 0 80 2d 00
        E 1292 80 39 00
        E 0 80 3c 00
        E 849 90 22 36
        E 0 90 2a 36
        E 0 90 55 36
        E 2020 90 25 36
        E 0 90 36 36
        E 1170 80 48 00
        E 0 80 28 00
        E 0 80 45 00
        E 849 90 31 36
        E 0 90 52 36
        E 1170 80 55 00
        E 849 90 33 36
        E 0 90 53 36
        E 1171 80 22 00
        E 0 80 25 00
        E 0 80 36 00
        E 849 90 42 36
        E 0 90 47 36
        E 1170 80 31 00
        E 0 80 52 00
        E 849 90 34 36
        E 0 90 44 36
        E 1171 80 2a 00
        E 0 80 53 00
        E 849 90 49 36
        E 1170 80 33 00
        E 0 80 42 00
        E 452 90 36 34
        E 0 90 45 34
        E 763 90 4a 34
        E 763 90 37 34
        E 0 90 4c 34
        E 764 90 39 34
        E 0 90 48 34
        E 763 90 54 36
        E 136 80 44 00
        E 764 80 49 00
        E 398 90 33 36
        E 0 90 43 36
        E 365 80 36 00
        E 0 80 4a 00
        E 763 80 47 00
        E 0 80 37 00
        E 169 90 22 36
        E 0 90 3f 36
        E 595 80 4c 00
        E 0 80 39 00
        E 0 80 48 00
        E 703 90 27 36
        E 0 90 2b 36
        E 0 90 3a 36
        E 594 80 34 00
        E 0 80 45 00
        E 1298 80 54 00
        E 0 80 33 00
        E 1297 80 43 00
        E 0 80 22 00
        E 0 80 3f 00
        E 866 90 21 36
        E 0 90 36 36
        E 0 90 3d 36
        E 2027 90 49 36
        E 1163 80 27 00
        E 0 80 2b 00
        E 0 80 3a 00
        E 865 90 2a 36
        E 0 90 51 36
        E 0 90 55 36
        E 1162 80 3d 00
        E 865 90 53 36
        E 0 90 56 36
        E 1163 80 21 00
        E 0 80 36 00
        E 0 80 49 00
        E 865 90 32 36
        E 1162 80 51 00
        E 0 80 55 00
        E 865 90 31 36
        E 0 90 51 36
        E 1163 80 56 00
        E 865 90 28 36
        E 1162 80 53 00
        E 0 80 32 00
        E 467 90 2f 34
        E 0 90 50 34
        E 766 90 27 34
        E 0 90 4e 34
        E 766 90 25 34
        E 0 90 2e 34
        E 29 80 2a 00
        E 738 90 2c 34
        E 0 90 4d 34
        E 766 90 35 36
        E 0 90 55 36
        E 124 80 31 00
        E 0 80 51 00
        E 767 80 28 00
        E 0 80 50 00
        E 412 90 56 36
        E 354 80 2f 00
        E 0 80 27 00
        E 766 80 4e 00
        E 183 90 2b 36
        E 0 90 4a 36
        E 584 80 25 00
        E 0 80 4d 00
        E 718 90 3a 36
        E 585 80 2c 00
        E 0 80 55 00
        E 1302 80 35 00
        E 1303 80 2e 00
        E 0 80 4a 00
        E 882 90 29 36
        E 2035 90 26 36
        E 0 90 35 36
        E 1154 80 2b 00
        E 882 90 27 36
        E 0 90 37 36
        E 1154 80 56 00
        E 0 80 29 00
        E 882 90 3c 36
        E 1154 80 26 00
        E 0 80 35 00
        E 481 90 33 36
        E 1308 90 3f 36
        E 0 90 48 36
        E 247 80 3a 00
        E 1635 80 27 00
        E 1308 80 3c 00
        E 0 80 33 00
        E 898 90 46 36
        E 2044 90 2b 36
        E 1145 80 48 00
        E 898 90 2c 36
        E 0 90 48 36
        E 1146 80 37 00
        E 898 90 41 36
        E 1146 80 46 00
        E 0 80 2b 00
        E 1809 90 4d 36
        E 0 90 54 36
        E 235 80 3f 00
        E 2955 80 48 00
        E 0 80 41 00
        E 914 90 21 36
        E 0 90 2a 36
        E 0 90 4a 36
        E 2052 90 56 36
        E 1138 80 2c 00
        E 0 80 4d 00
        E 0 80 54 00
        E 914 90 26 36
        E 0 90 51 36
        E 1138 80 4a 00
        E 914 90 2b 36
        E 0 90 53 36
        E 1138 80 21 00
        E 0 80 56 00
        E 914 90 43 36
        E 1138 80 2a 00
        E 0 80 51 00
        E 915 90 28 36
        E 0 90 54 36
        E 1137 80 2b 00
        E 915 90 45 36
        E 1137 80 26 00
        E 0 80 53 00
        E 511 90 29 34
        E 0 90 56 34
        E 775 90 2b 34
        E 0 90 46 34
        E 766 80 43 00
        E 10 90 4b 34
        E 776 90 2c 34
        E 0 90 4d 34
        E 775 90 35 36
        E 0 90 44 36
        E 87 80 28 00
        E 776 80 45 00
        E 0 80 29 00
        E 456 90 33 36
        E 0 90 53 36
        E 320 80 56 00
        E 0 80 46 00
        E 775 80 2b 00
        E 0 80 4b 00
        E 224 90 42 36
        E 552 80 2c 00
        E 0 80 4d 00
        E 766 90 27 36
        E 0 90 2a 36
        E 0 90 2f 36
        E 553 80 54 00
        E 0 80 35 00
        E 1318 80 44 00
        E 1319 80 33 00
        E 0 80 53 00
        E 0 80 42 00
        E 931 90 2c 36
        E 2060 90 47 36
        E 0 90 4b 36
        E 1129 80 2a 00
        E 931 90 2a 36
        E 0 90 46 36
        E 1130 80 27 00
        E 0 80 2f 00
        E 931 90 49 36
        E 1129 80 2c 00
        E 0 80 47 00
        E 1849 90 52 36
        E 0 90 55 36
        E 211 80 4b 00
        E 2979 80 46 00
        E 0 80 49 00
        E 947 90 4b 36
        E 2069 90 3a 36
        E 0 90 3f 36
        E 0 90 42 36
        E 1121 80 55 00
        E 948 90 3d 36
        E 0 90 41 36
        E 1121 80 2a 00
        E 0 80 52 00
        E 0 80 4b 00
        E 947 90 38 36
        E 1121 80 3f 00
        E 0 80 42 00
        E 541 90 31 36
        E 0 90 44 36
        E 1329 90 29 36
        E 0 90 2c 36
        E 0 90 49 36
        E 199 80 3a 00
        E 1661 80 3d 00
        E 0 80 38 00
        E 1330 80 41 00
        E 0 80 31 00
        E 0 80 44 00
        E 964 90 4a 33
        E 0 91 2d 33
        E 0 92 2a 33
        E 439 91 2f 33
        E 0 92 2b 33
        E 239 81 2d 00
        E 0 82 2a 00
        E 200 90 4c 33
        E 0 91 30 33
        E 239 80 4a 00
        E 0 81 2f 00
        E 200 90 4d 33
        E 0 92 2d 33
        E 240 82 2b 00
        E 0 80 4c 00
        E 1632 80 29 00
        E 0 80 2c 00
        E 0 80 49 00
        E 2185 90 4b 33
        E 0 92 2c 33
        E 1750 90 2b 33
        E 0 91 27 33
        E 0 92 24 33
        E 1439 80 4d 00
        E 0 82 2d 00
        E 311 90 2c 34
        E 1367 90 2a 34
        E 0 92 23 34
        E 73 81 30 00
        E 0 80 4b 00
        E 0 82 2c 00
        E 1295 90 3a 34
        E 0 91 2a 34
        E 0 92 27 34
        E 455 80 2b 00
        E 912 90 3b 36
        E 455 82 24 00
        E 0 80 2c 00
        E 613 90 39 36
        E 0 92 26 36
        E 754 81 27 00
        E 0 80 2a 00
        E 0 82 23 00
        E 314 90 45 36
        E 0 91 31 36
        E 0 92 2a 36
        E 1054 80 3a 00
        E 15 91 32 3b
        E 834 91 30 3b
        E 0 92 29 3b
        E 219 82 27 00
        E 0 80 3b 00
        E 616 91 28 3b
        E 0 92 24 3b
        E 452 81 2a 00
        E 0 80 39 00
        E 0 82 26 00
        E 1019 90 4b 3b
        E 0 91 46 3b
        E 49 81 31 00
        E 588 90 57 3b
        E 0 91 3a 3b
        E 247 81 32 00
        E 389 90 52 3b
        E 0 91 33 3b
        E 445 81 30 00
        E 0 82 29 00
        E 192 90 53 3b
        E 0 91 34 3b
        E 0 92 2c 3b
        E 510 90 40 3b
        E 0 91 2c 3b
        E 0 92 23 3b
        E 770 80 45 00
        E 0 81 28 00
        E 0 82 24 00
        E 636 80 4b 00
        E 0 81 46 00
        E 378 90 56 36
        E 0 91 52 36
        E 0 92 29 36
        E 259 80 57 00
        E 0 81 3a 00
        E 518 90 62 36
        E 0 91 46 36
        E 119 82 2a 00
        E 0 80 52 00
        E 0 81 33 00
        E 509 80 53 00
        E 0 81 34 00
        E 0 82 2c 00
        E 149 90 5e 36
        E 0 91 3e 36
        E 777 92 2b 36
        E 778 91 3a 36
        E 80 80 40 00
        E 0 81 2c 00
        E 0 82 23 00
        E 697 90 57 36
        E 0 91 3c 36
        E 80 81 52 00
        E 697 92 2c 36
        E 81 80 62 00
        E 0 81 46 00
        E 777 82 29 00
        E 266 90 63 36
        E 511 80 5e 00
        E 0 81 3e 00
        E 777 80 56 00
        E 0 81 3a 00
        E 272 90 61 36
        E 0 91 5d 36
        E 0 92 36 36
        E 506 82 2b 00
        E 119 90 31 36
        E 0 91 2d 36
        E 0 92 2a 36
        E 624 90 55 36
        E 0 91 36 36
        E 0 92 21 36
        E 380 80 57 00
        E 244 90 56 36
        E 0 92 23 36
        E 625 90 3b 36
        E 0 92 32 36
        E 624 91 37 3b
        E 68 81 3c 00
        E 0 82 2c 00
        E 0 80 63 00
        E 556 90 3a 3b
        E 0 91 35 3b
        E 68 80 61 00
        E 0 81 5d 00
        E 0 82 36 00
        E 556 90 51 3b
        E 69 80 31 00
        E 0 81 2d 00
        E 0 82 2a 00
        E 624 80 55 00
        E 0 82 21 00
        E 408 90 63 3b
        E 0 91 47 3b
        E 0 92 38 3b
        E 216 80 56 00
        E 0 82 23 00
        E 260 90 44 3b
        E 0 91 3b 3b
        E 0 92 27 3b
        E 364 81 36 00
        E 113 90 53 3b
        E 0 91 4b 3b
        E 476 90 55 3b
        E 0 91 4c 3b
        E 0 92 39 3b
        E 36 80 3b 00
        E 0 81 37 00
        E 345 90 5d 3b
        E 0 91 3d 3b
        E 0 92 34 3b
        E 279 80 3a 00
        E 1101 82 32 00
        E 0 81 35 00
        E 0 80 51 00
        E 476 80 63 00
        E 0 81 47 00
        E 387 90 3a 34
        E 0 91 2b 34
        E 89 80 44 00
        E 0 81 3b 00
        E 477 82 38 00
        E 0 80 53 00
        E 0 81 4b 00
        E 342 90 33 34
        E 0 91 2e 34
        E 0 92 2b 34
        E 39 80 55 00
        E 0 81 4c 00
        E 0 82 39 00
        E 870 90 57 34
        E 0 91 37 34
        E 0 92 22 34
        E 908 90 51 34
        E 0 92 2a 34
        E 465 80 5d 00
        E 0 82 34 00
        E 444 90 49 34
        E 0 91 45 34
        E 464 82 27 00
        E 0 80 3a 00
        E 0 81 2b 00
        E 444 90 42 34
        E 0 91 39 34
        E 0 92 25 34
        E 464 80 33 00
        E 0 81 2e 00
        E 0 82 2b 00
        E 445 91 3b 34
        E 0 92 26 34
        E 464 80 57 00
        E 0 81 37 00
        E 0 82 22 00
        E 444 90 53 34
        E 0 91 4a 34
        E 0 92 36 34
        E 464 81 3d 00
        E 0 80 51 00
        E 445 91 4c 34
        E 0 92 37 34
        E 464 82 2a 00
        E 0 80 49 00
        E 0 81 45 00
        E 444 90 54 34
        E 464 81 39 00
        E 0 82 25 00
        E 266 91 4d 33
        E 0 92 39 33
        E 343 90 56 33
        E 0 92 3a 33
        E 300 80 42 00
        E 0 81 3b 00
        E 0 82 26 00
        E 43 90 57 33
        E 0 91 4f 33
        E 344 91 50 33
        E 0 92 3c 33
        E 343 90 60 34
        E 0 91 57 34
        E 0 92 38 34
        E 178 81 4a 00
        E 0 82 36 00
        E 406 90 5f 34
        E 0 92 36 34
        E 503 80 53 00
        E 81 91 36 34
        E 0 92 22 34
        E 583 90 63 34
        E 65 81 4c 00
        E 0 82 37 00
        E 344 80 54 00
        E 0 82 39 00
        E 343 81 4d 00
        E 0 80 56 00
        E 343 82 3a 00
        E 0 81 4f 00
        E 344 81 50 00
        E 0 82 3c 00
        E 386 92 23 34
        E 198 80 60 00
        E 0 82 38 00
        E 583 81 57 00
        E 0 80 5f 00
        E 0 82 36 00
        E 131 90 33 34
        E 0 91 2f 34
        E 0 92 2a 34
        E 453 80 57 00
        E 459 90 31 34
        E 0 91 2e 34
        E 912 92 29 34
        E 453 82 22 00
        E 866 90 3d 34
        E 46 81 36 00
        E 0 80 63 00
        E 0 82 23 00
        E 912 80 33 00
        E 0 81 2f 00
        E 1789 90 5e 34
        E 0 91 3d 34
        E 0 92 36 34
        E 442 80 31 00
        E 474 90 5c 34
        E 0 92 35 34
        E 915 91 3c 34
        E 443 82 29 00
        E 293 90 60 34
        E 0 91 38 34
        E 588 91 41 34
        E 0 92 38 34
        E 35 82 2a 00
        E 0 81 2e 00
        E 0 80 3d 00
        E 915 80 5e 00
        E 0 82 36 00
        E 889 90 5f 34
        E 0 91 56 34
        E 0 92 2b 34
        E 27 81 3d 00
        E 709 90 62 34
        E 0 91 53 34
        E 27 80 5c 00
        E 0 81 3c 00
        E 588 82 35 00
        E 0 81 38 00
        E 120 90 4a 34
        E 0 91 2b 34
        E 0 92 23 34
        E 736 90 4c 34
        E 0 92 24 34
        E 736 90 3c 34
        E 0 92 28 34
        E 247 80 60 00
        E 0 81 41 00
        E 0 82 38 00
        E 488 90 3b 36
        E 248 80 5f 00
        E 0 81 56 00
        E 488 90 3d 36
        E 0 91 2c 36
        E 247 82 2b 00
        E 0 80 62 00
        E 0 81 53 00
        E 488 90 45 36
        E 0 91 28 36
        E 0 92 25 36
        E 248 80 4a 00
        E 0 82 23 00
        E 488 90 44 3b
        E 247 80 4c 00
        E 0 82 24 00
        E 327 90 46 3b
        E 0 91 29 3b
        E 409 80 3c 00
        E 166 90 5e 3b
        E 0 91 31 3b
        E 0 92 2a 3b
        E 569 81 2b 00
        E 0 80 3b 00
        E 444 90 4c 3b
        E 0 91 48 3b
        E 0 92 2b 3b
        E 292 82 28 00
        E 0 80 3d 00
        E 0 81 2c 00
        E 147 90 58 3b
        E 0 91 3c 3b
        E 438 90 54 3b
        E 0 91 34 3b
        E 150 80 45 00
        E 288 92 2d 3b
        E 287 81 28 00
        E 0 80 44 00
        E 64 90 3c 3b
        E 0 91 28 3b
        E 0 92 21 3b
        E 511 82 25 00
        E 0 80 46 00
        E 0 81 29 00
        E 718 90 63 36
        E 0 91 2a 36
        E 0 92 22 36
        E 295 80 5e 00
        E 0 81 31 00
        E 0 82 2a 00
        E 240 91 5e 36
        E 0 92 2a 36
        E 198 80 4c 00
        E 0 81 48 00
        E 337 90 4b 36
        E 0 91 2e 36
        E 102 80 58 00
        E 0 81 3c 00
        E 433 90 4c 36
        E 0 91 2f 36
        E 0 92 2c 36
        E 5 82 2b 00
        E 351 80 54 00
        E 0 81 34 00
        E 0 82 2d 00
        E 179 91 47 36
        E 1049 80 3c 00
        E 0 81 28 00
        E 0 82 21 00
        E 22 91 46 36
        E 513 81 2a 00
        E 0 82 22 00
        E 260 90 57 36
        E 276 80 63 00
        E 0 81 5e 00
        E 535 81 2e 00
        E 264 90 41 36
        E 0 91 24 36
        E 0 92 21 36
        E 271 81 2f 00
        E 159 90 39 36
        E 0 91 30 36
        E 0 92 29 36
        E 376 80 4c 00
        E 0 82 2c 00
        E 54 90 54 36
        E 0 91 35 36
        E 0 92 2d 36
        E 430 90 56 36
        E 0 92 2e 36
        E 51 81 47 00
        E 379 90 46 36
        E 0 92 32 36
        E 395 80 4b 00
        E 34 90 45 3b
        E 430 90 47 3b
        E 0 91 36 3b
        E 430 90 5f 3b
        E 0 91 3e 3b
        E 0 92 37 3b
        E 181 82 2a 00
        E 0 81 46 00
        E 0 80 57 00
        E 430 80 41 00
        E 0 81 24 00
        E 0 82 21 00
        E 147 90 59 3b
        E 0 91 49 3b
        E 0 92 38 3b
        E 283 80 39 00
        E 0 81 30 00
        E 0 82 29 00
        E 45 90 65 3b
        E 0 91 3d 3b
        E 328 90 55 3b
        E 0 91 41 3b
        E 56 80 54 00
        E 0 82 2d 00
        E 272 92 3a 3b
        E 158 80 56 00
        E 0 82 2e 00
        E 104 90 49 3b
        E 0 92 22 3b
        E 326 80 46 00
        E 430 80 45 00
        E 430 82 32 00
        E 0 80 47 00
        E 0 81 36 00
        E 758 80 5f 00
        E 0 81 3e 00
        E 0 82 37 00
        E 328 80 59 00
        E 0 81 49 00
        E 250 90 47 33
        E 0 91 2b 33
        E 0 92 28 33
        E 78 80 65 00
        E 0 81 3d 00
        E 328 82 38 00
        E 262 80 55 00
        E 0 81 41 00
        E 0 82 3a 00
        E 310 90 3b 33
        E 0 91 34 33
        E 0 92 2b 33
        E 977 90 58 33
        E 0 91 37 33
        E 0 92 2f 33
        E 977 90 53 33
        E 0 91 33 33
        E 0 92 2a 33
        E 258 81 35 00
        E 0 80 49 00
        E 0 82 22 00
        E 720 91 3f 33
        E 257 81 2b 00
        E 0 82 28 00
        E 720 90 63 33
        E 0 91 3b 33
        E 0 92 36 33
        E 258 80 3b 00
        E 0 81 34 00
        E 0 82 2b 00
        E 720 90 64 33
        E 0 92 38 33
        E 257 80 58 00
        E 0 81 37 00
        E 0 82 2f 00
        E 720 90 58 33
        E 0 91 38 33
        E 0 92 23 33
        E 257 80 53 00
        E 0 81 33 00
        E 720 90 57 33
        E 0 91 36 33
        E 258 80 47 00
        E 0 82 2a 00
        E 0 81 3f 00
        E 720 92 22 33
        E 257 80 63 00
        E 0 82 36 00
        E 528 90 55 32
        E 0 91 35 32
        E 369 90 50 32
        E 0 92 24 32
        E 81 81 3b 00
        E 0 80 64 00
        E 0 82 38 00
        E 289 90 4f 32
        E 0 91 33 32
        E 369 91 32 32
        E 319 80 58 00
        E 0 81 38 00
        E 51 90 62 33
        E 0 91 37 33
        E 628 90 64 33
        E 628 90 58 33
        E 456 80 57 00
        E 0 81 36 00
        E 369 80 55 00
        E 369 81 35 00
        E 0 80 50 00
        E 370 81 33 00
        E 369 80 4f 00
        E 0 81 32 00
        E 628 82 22 00
        E 0 80 62 00
        E 30 90 55 33
        E 0 91 2e 33
        E 0 92 29 33
        E 598 82 23 00
        E 383 90 61 33
        E 0 91 29 33
        E 0 92 22 33
        E 246 80 58 00
        E 735 90 3d 33
        E 0 91 3a 33
        E 982 90 3f 33
        E 0 92 2a 33
        E 245 82 24 00
        E 0 81 37 00
        E 0 80 64 00
        E 736 90 33 33
        E 0 91 2a 33
        E 246 80 55 00
        E 0 81 2e 00
        E 735 91 2c 33
        E 0 92 23 33
        E 246 80 61 00
        E 0 81 29 00
        E 736 90 34 33
        E 245 82 29 00
        E 0 80 3d 00
        E 543 91 2d 32
        E 0 92 25 32
        E 371 90 36 32
        E 0 92 26 32
        E 68 81 3a 00
        E 0 80 3f 00
        E 0 82 2a 00
        E 303 90 37 32
        E 0 91 2f 32
        E 371 91 30 32
        E 0 92 28 32
        E 307 82 22 00
        E 0 81 2a 00
        E 63 90 60 33
        E 0 91 2b 33
        E 631 90 5e 33
        E 0 92 27 33
        E 287 80 33 00
        E 344 90 3e 33
        E 0 91 2e 33
        E 0 92 2b 33
        E 444 81 2c 00
        E 0 82 23 00
        E 186 90 4a 33
        E 185 80 34 00
        E 0 82 25 00
        E 371 81 2d 00
        E 0 80 36 00
        E 371 82 26 00
        E 0 81 2f 00
        E 371 80 37 00
        E 0 81 30 00
        E 631 82 28 00
        E 0 80 60 00
        E 42 90 4b 33
        E 588 81 2b 00
        E 0 80 5e 00
        E 0 82 27 00
        E 397 90 57 33
        E 0 91 2b 33
        E 0 92 22 33
        E 234 80 3e 00
        E 751 90 56 33
        E 0 91 29 33
        E 986 92 21 33
        E 233 80 4a 00
        E 986 81 2e 00
        E 0 82 2b 00
        E 0 80 4b 00
        E 205 90 62 33
        E 780 80 57 00
        E 0 81 2b 00
        E 985 82 22 00
        E 213 92 22 33
        E 990 91 3a 33
        E 0 92 35 33
        E 989 90 54 33
        E 0 91 39 33
        E 989 92 34 33
        E 222 82 21 00
        E 989 81 29 00
        E 0 80 62 00
        E 0 82 22 00
        E 219 90 60 33
        E 771 80 56 00
        E 0 81 3a 00
        E 989 82 35 00
        E 227 90 3f 33
        E 0 91 36 33
        E 0 92 2f 33
        E 993 90 4b 33
        E 0 92 23 33
        E 210 80 54 00
        E 783 90 3b 33
        E 0 92 27 33
        E 993 91 38 33
        E 0 92 28 33
        E 210 81 39 00
        E 0 82 34 00
        E 0 80 60 00
        E 784 90 64 33
        E 0 91 2c 33
        E 210 80 3f 00
        E 0 82 2f 00
        E 783 90 63 33
        E 0 91 2a 33
        E 210 80 4b 00
        E 783 92 22 33
        E 210 81 36 00
        E 0 82 27 00
        E 588 90 61 32
        E 0 91 29 32
        E 375 90 5c 32
        E 0 92 24 32
        E 30 80 3b 00
        E 0 81 38 00
        E 0 82 28 00
        E 346 90 5b 32
        E 0 91 27 32
        E 375 91 26 32
        E 272 80 64 00
        E 0 81 2c 00
        E 103 90 37 33
        E 639 91 28 33
        E 638 90 64 33
        E 0 91 2b 33
        E 411 80 63 00
        E 0 81 2a 00
        E 376 80 61 00
        E 375 81 29 00
        E 0 80 5c 00
        E 376 81 27 00
        E 375 80 5b 00
        E 638 82 22 00
        E 0 81 26 00
        E 1079 90 40 33
        E 0 91 37 33
        E 198 80 64 00
        E 0 81 2b 00
        E 799 91 39 33
        E 997 90 41 33
        E 801 90 48 33
        E 0 91 35 33
        E 0 92 21 33
        E 394 80 37 00
        E 0 81 28 00
        E 247 90 54 33
        E 750 82 23 00
        E 0 81 37 00
        E 998 80 40 00
        E 254 91 34 33
        E 547 82 24 00
        E 0 81 39 00
        E 0 80 41 00
        E 454 90 5d 33
        E 0 91 3c 33
        E 0 92 28 33
        E 186 80 48 00
        E 816 91 3e 33
        E 0 92 29 33
        E 1001 90 5e 33
        E 186 81 35 00
        E 1001 82 21 00
        E 0 80 54 00
        E 0 81 34 00
        E 260 91 4a 33
        E 741 81 3c 00
        E 0 82 28 00
        E 1001 80 5d 00
        E 269 90 63 33
        E 0 91 47 33
        E 0 92 38 33
        E 804 90 44 33
        E 0 91 3b 33
        E 0 92 27 33
        E 375 81 3e 00
        E 429 90 53 33
        E 0 91 4b 33
        E 804 90 55 33
        E 0 91 4c 33
        E 777 82 29 00
        E 0 80 5e 00
        E 0 81 4a 00
        E 27 90 38 33
        E 0 91 34 33
        E 0 92 25 33
        E 778 80 63 00
        E 0 81 47 00
        E 27 90 39 34
        E 777 80 44 00
        E 0 81 3b 00
        E 0 82 27 00
        E 27 90 37 34
        E 0 92 24 34
        E 777 80 53 00
        E 0 81 4b 00
        E 27 90 3b 34
        E 0 91 37 34
        E 0 92 34 34
        E 777 82 38 00
        E 0 80 55 00
        E 0 81 4c 00
        E 27 90 3c 36
        E 628 90 3a 36
        E 0 92 33 36
        E 149 80 38 00
        E 480 90 46 36
        E 0 91 3e 36
        E 0 92 37 36
        E 324 82 25 00
        E 0 80 39 00
        E 304 91 3f 3b
        E 491 91 3d 3b
        E 0 92 36 3b
        E 10 81 34 00
        E 0 80 37 00
        E 0 82 24 00
        E 481 91 35 3b
        E 0 92 31 3b
        E 323 80 3b 00
        E 542 90 58 3b
        E 0 91 47 3b
        E 86 82 34 00
        E 0 80 3c 00
        E 288 90 64 3b
        E 0 91 3b 3b
        E 340 81 37 00
        E 0 80 3a 00
        E 0 82 33 00
        E 35 90 53 3b
        E 0 91 40 3b
        E 374 90 54 3b
        E 0 91 41 3b
        E 0 92 39 3b
        E 220 81 3e 00
        E 80 92 21 3b
        E 410 81 3f 00
        E 491 81 3d 00
        E 0 82 36 00
        E 148 90 2f 36
        E 0 91 2a 36
        E 0 92 27 36
        E 457 90 33 36
        E 0 92 23 36
        E 260 80 46 00
        E 0 82 31 00
        E 197 90 5f 36
        E 0 91 4b 36
        E 0 92 36 36
        E 178 80 58 00
        E 0 81 47 00
        E 279 92 38 36
        E 95 80 64 00
        E 0 81 3b 00
        E 363 90 63 36
        E 0 91 3b 36
        E 12 82 37 00
        E 0 80 53 00
        E 0 81 40 00
        E 299 81 41 00
        E 0 82 39 00
        E 146 90 64 36
        E 0 91 3d 36
        E 457 92 39 36
        E 367 90 55 36
        E 0 91 34 36
        E 0 92 2d 36
        E 80 81 35 00
        E 0 80 54 00
        E 0 82 21 00
        E 214 90 61 36
        E 243 80 2f 00
        E 0 82 27 00
        E 457 81 2a 00
        E 0 80 33 00
        E 0 82 23 00
        E 218 90 3a 36
        E 0 91 37 36
        E 0 92 32 36
        E 239 82 36 00
        E 128 90 3e 36
        E 0 92 2e 36
        E 329 80 5f 00
        E 0 81 4b 00
        E 38 90 62 36
        E 0 91 46 36
        E 0 92 2b 36
        E 367 91 48 36
        E 52 81 3b 00
        E 315 90 60 36
        E 0 91 3f 36
        E 142 82 38 00
        E 225 92 2c 3b
        E 143 80 64 00
        E 0 81 3d 00
        E 0 82 39 00
        E 225 90 5f 3b
        E 0 92 2a 3b
        E 68 80 55 00
        E 299 90 4b 3b
        E 0 91 2e 3b
        E 619 81 34 00
        E 0 82 2d 00
        E 0 80 61 00
        E 28 91 5d 3b
        E 0 92 28 3b
        E 280 90 51 3b
        E 0 91 34 3b
        E 0 92 24 3b
        E 59 80 3a 00
        E 0 82 32 00
        E 221 90 54 3b
        E 0 91 28 3b
        E 0 92 21 3b
        E 147 81 37 00
        E 0 80 3e 00
        E 0 82 2e 00
        E 133 90 52 3b
        E 0 91 29 3b
        E 0 92 26 3b
        E 225 90 56 3b
        E 0 91 3a 3b
        E 0 92 29 3b
        E 9 80 62 00
        E 0 81 46 00
        E 367 80 63 00
        E 0 81 48 00
        E 367 82 2b 00
        E 367 82 2c 00
        E 209 90 3b 34
        E 0 91 38 34
        E 0 92 34 34
        E 158 81 3f 00
        E 0 80 5f 00
        E 376 90 40 34
        E 0 92 2f 34
        E 272 82 2a 00
        E 0 80 4b 00
        E 0 81 2e 00
        E 262 90 64 34
        E 0 91 47 34
        E 0 92 2c 34
        E 18 80 60 00
        E 0 81 5d 00
        E 0 82 28 00
        E 280 80 51 00
        E 0 81 34 00
        E 0 82 24 00
        E 237 91 4a 34
        E 0 92 37 34
        E 43 80 54 00
        E 0 81 28 00
        E 0 82 21 00
        E 224 81 29 00
        E 0 82 26 00
        E 267 91 46 34
        E 534 90 5e 34
        E 0 91 37 34
        E 0 92 32 34
        E 518 81 3a 00
        E 0 82 29 00
        E 16 90 60 34
        E 0 92 33 34
        E 519 80 3b 00
        E 0 82 34 00
        E 16 90 63 34
        E 0 91 30 34
        E 0 92 2b 34
        E 518 81 38 00
        E 0 80 40 00
        E 0 82 2f 00
        E 16 90 65 34
        E 518 80 64 00
        E 0 81 47 00
        E 16 91 31 34
        E 430 92 2a 33
        E 89 80 52 00
        E 0 81 4a 00
        E 112 90 5f 33
        E 0 91 33 33
        E 202 91 34 33
        E 202 90 61 33
        E 0 92 2d 33
        E 18 80 56 00
        E 0 82 37 00
        E 0 81 46 00
        E 184 91 2d 34
        E 0 92 28 34
        E 344 91 2b 34
        E 6 82 32 00
        E 337 90 64 34
        E 0 91 47 34
        E 197 81 37 00
        E 0 82 33 00
        E 146 90 47 34
        E 0 91 37 34
        E 389 80 63 00
        E 534 81 30 00
        E 150 90 48 34
        E 279 80 65 00
        E 202 80 5e 00
        E 0 81 31 00
        E 56 90 40 34
        E 0 92 30 34
        E 146 82 2a 00
        E 0 81 33 00
        E 202 82 2c 00
        E 0 80 5f 00
        E 188 90 3e 34
        E 0 92 2f 34
        E 14 81 34 00
        E 0 82 2d 00
        E 343 80 61 00
        E 0 81 2d 00
        E 180 91 36 34
        E 164 80 60 00
        E 0 81 2b 00
        E 343 82 2b 00
        E 0 80 64 00
        E 0 81 47 00
        E 268 90 4a 34
        E 805 80 47 00
        E 536 82 28 00
        E 0 80 48 00
        E 275 90 56 34
        E 0 91 3b 34
        E 0 92 2b 34
        E 262 80 40 00
        E 0 82 30 00
        E 276 91 39 34
        E 0 92 2a 34
        E 539 90 55 34
        E 497 80 3e 00
        E 282 90 61 34
        E 795 81 36 00
        E 286 90 63 34
        E 0 91 60 34
        E 0 92 38 34
        E 253 81 37 00
        E 0 82 2f 00
        E 0 80 4a 00
        E 180 90 33 34
        E 0 91 30 34
        E 0 92 2c 34
        E 358 81 3b 00
        E 0 82 2b 00
        E 74 90 57 34
        E 0 91 38 34
        E 0 92 24 34
        E 433 90 59 34
        E 0 92 25 34
        E 32 80 56 00
        E 401 90 3d 34
        E 0 92 35 34
        E 377 80 55 00
        E 55 90 3c 36
        E 433 90 3e 36
        E 433 90 46 36
        E 0 91 35 36
        E 0 92 32 36
        E 161 82 2a 00
        E 0 80 61 00
        E 271 90 45 3b
        E 162 80 63 00
        E 0 81 60 00
        E 0 82 38 00
        E 176 90 47 3b
        E 0 91 36 3b
        E 256 80 33 00
        E 0 81 30 00
        E 0 82 2c 00
        E 82 90 5f 3b
        E 0 91 3e 3b
        E 0 92 37 3b
        E 351 80 57 00
        E 0 82 24 00
        E 245 91 49 3b
        E 0 92 38 3b
        E 187 82 25 00
        E 71 90 65 3b
        E 0 91 3d 3b
        E 258 90 55 3b
        E 0 91 41 3b
        E 104 80 3d 00
        E 153 92 3a 3b
        E 207 90 49 3b
        E 0 92 22 3b
        E 73 81 38 00
        E 0 80 3c 00
        E 432 81 39 00
        E 0 82 35 00
        E 0 80 3e 00
        E 217 91 2b 36
        E 0 92 28 36
        E 216 80 46 00
        E 99 90 3b 36
        E 0 91 34 36
        E 0 92 2b 36
        E 239 80 45 00
        E 76 90 58 36
        E 0 91 37 36
        E 0 92 2f 36
        E 262 82 32 00
        E 0 81 36 00
        E 53 91 39 36
        E 0 92 30 36
        E 314 90 60 36
        E 0 91 45 36
        E 0 92 35 36
        E 229 80 5f 00
        E 0 81 3e 00
        E 0 82 37 00
        E 86 91 43 36
        E 0 92 34 36
        E 171 81 49 00
        E 144 90 5f 36
        E 114 80 65 00
        E 0 81 3d 00
        E 139 91 47 36
        E 0 92 37 36
        E 119 82 38 00
        E 83 90 64 36
        E 123 80 55 00
        E 0 81 41 00
        E 0 82 3a 00
        E 509 90 46 36
        E 0 91 36 36
        E 0 92 31 36
        E 214 81 35 00
        E 0 80 49 00
        E 0 82 22 00
        E 39 90 3d 36
        E 0 91 3a 36
        E 0 92 36 36
        E 253 90 61 36
        E 0 91 52 36
        E 0 92 2a 36
        E 23 80 47 00
        E 0 81 2b 00
        E 0 82 28 00
        E 229 90 63 36
        E 0 91 53 36
        E 85 80 3b 00
        E 0 81 34 00
        E 0 82 2b 00
        E 168 90 4b 36
        E 0 91 2a 36
        E 0 92 23 36
        E 147 81 37 00
        E 0 82 2f 00
        E 106 92 22 3b
        E 209 80 59 00
        E 0 81 39 00
        E 0 82 30 00
        E 44 91 2b 3b
        E 0 92 24 3b
        E 253 90 57 3b
        E 0 91 3c 3b
        E 0 92 2c 3b
        E 18 81 45 00
        E 0 82 35 00
        E 314 80 60 00
        E 113 90 36 3b
        E 0 91 2d 3b
        E 0 92 26 3b
        E 140 81 43 00
        E 0 82 34 00
        E 0 80 5f 00
        E 53 91 32 3b
        E 0 92 21 3b
        E 150 80 58 00
        E 43 90 56 3b
        E 0 91 39 3b
        E 193 91 3b 3b
        E 396 82 37 00
        E 0 80 64 00
        E 252 80 46 00
        E 0 81 36 00
        E 0 82 31 00
        E 253 80 3d 00
        E 0 81 3a 00
        E 0 82 36 00
        E 253 80 61 00
        E 0 81 52 00
        E 253 80 63 00
        E 0 81 53 00
        E 253 82 23 00
        E 253 81 2a 00
        E 0 82 22 00
        E 252 80 4b 00
        E 0 81 2b 00
        E 0 82 24 00
        E 371 90 55 32
        E 0 91 45 32
        E 75 80 57 00
        E 0 81 3c 00
        E 0 82 2c 00
        E 193 81 2d 00
        E 0 82 26 00
        E 154 91 44 32
        E 0 92 28 32
        E 39 80 36 00
        E 0 81 32 00
        E 0 82 21 00
        E 193 81 39 00
        E 154 81 3b 00
        E 37 90 53 32
        E 0 92 27 32
        E 423 90 52 32
        E 0 91 42 32
        E 423 91 41 32
        E 0 92 25 32
        E 422 90 50 32
        E 0 92 24 32
        E 1076 81 47 00
        E 0 80 56 00
        E 423 82 2a 00
        E 0 81 45 00
        E 423 80 55 00
        E 0 82 28 00
        E 423 81 44 00
        E 0 80 53 00
        E 422 82 27 00
        E 0 81 42 00
        E 423 80 52 00
        E 0 82 25 00
        E 4015 81 41 00
        E 0 80 50 00
        E 0 82 24 00
        E 0 b0 7b 00
        CCINTERP 32
        CHASE_CC_TAKEOFFS 1
        GUID {189DD53D-4E22-114A-9FA7-C58ACA95110C}
        IGNTEMPO 0 120 4 4
        SRCCOLOR 31
        VELLANE -1 100 0 0 1
      >
    >
    <ITEM
      POSITION 0
      SNAPOFFS 0
      LENGTH 4
      LOOP 1
      ALLTAKES 0
      FADEIN 1 0 0 1 0 0 0
      FADEOUT 1 0 0 1 0 0 0
      MUTE 0 0
      SEL 0
      IGUID {223FB6EB-7EBF-EC4A-BAB0-1ABEEAED19E2}
      IID 26
      NAME ""
      VOLPAN 1 0 1 -1
      SOFFS 0 0
      PLAYRATE 1 1 0 -1 0 0.0025
      CHANMODE 0
      GUID {E60D7A26-B5EC-654C-B6D8-1A29F4869B45}
      <SOURCE MIDI
        HASDATA 1 960 QN
        CCINTERP 32
        POOLEDEVTS {F796EF23-4920-6040-9214-D56E6585EDAB}
        E 26 90 21 34
        E 0 91 25 34
        E 0 92 28 34
        E 2125 80 21 00
        E 0 81 25 00
        E 0 82 28 00
        E 0 90 2b 34
        E 0 91 3f 34
        E 0 92 60 34
        E 1063 81 3f 00
        E 0 82 60 00
        E 0 91 4b 34
        E 0 92 54 34
        E 1063 80 2b 00
        E 0 81 4b 00
        E 0 82 54 00
        E 0 90 24 34
        E 0 91 2b 34
        E 0 92 33 34
        E 1062 81 2b 00
        E 0 82 33 00
        E 0 91 2c 34
        E 0 92 35 34
        E 1063 80 24 00
        E 0 81 2c 00
        E 0 82 35 00
        E 0 90 29 34
        E 0 91 44 34
        E 0 92 54 34
        E 1063 81 44 00
        E 0 82 54 00
        E 0 91 46 34
        E 0 92 55 34
        E 1062 81 46 00
        E 0 91 44 34
        E 854 80 29 00
        E 0 81 44 00
        E 0 90 2a 33
        E 0 91 46 33
        E 402 82 55 00
        E 0 81 46 00
        E 0 91 47 33
        E 0 92 57 33
        E 401 80 2a 00
        E 0 82 57 00
        E 0 90 2c 33
        E 0 92 58 33
        E 402 81 47 00
        E 0 80 2c 00
        E 0 90 2d 33
        E 0 91 49 33
        E 402 82 58 00
        E 0 80 2d 00
        E 0 81 49 00
        E 0 90 34 34
        E 0 91 45 34
        E 0 92 55 34
        E 682 91 43 34
        E 0 92 54 34
        E 2126 82 55 00
        E 683 81 43 00
        E 691 90 2a 34
        E 0 91 46 34
        E 0 92 49 34
        E 1067 91 3a 34
        E 0 92 55 34
        E 1058 80 34 00
        E 0 81 45 00
        E 0 82 54 00
        E 9 91 31 34
        E 0 92 52 34
        E 1058 81 46 00
        E 0 82 49 00
        E 9 91 33 34
        E 0 92 53 34
        E 1058 81 3a 00
        E 0 82 55 00
        E 9 90 23 34
        E 0 91 27 34
        E 0 92 42 34
        E 1058 81 31 00
        E 0 82 52 00
        E 9 90 22 34
        E 0 91 25 34
        E 1058 80 2a 00
        E 0 81 33 00
        E 0 82 53 00
        E 865 92 41 33
        E 202 80 23 00
        E 202 90 24 33
        E 0 91 2c 33
        E 403 91 2b 33
        E 0 92 3f 33
        E 403 92 3e 33
        E 404 90 2e 34
        E 0 91 37 34
        E 0 92 62 34
        E 512 81 27 00
        E 0 82 42 00
        E 173 90 2b 34
        E 0 91 34 34
        E 0 92 5f 34
        E 230 81 25 00
        E 403 82 41 00
        E 0 81 2c 00
        E 53 90 2f 34
        E 351 80 24 00
        E 0 82 3f 00
        E 403 80 22 00
        E 0 81 2b 00
        E 0 82 3e 00
        E 686 80 2e 00
        E 685 80 2b 00
        E 0 81 34 00
        E 0 82 5f 00
        E 703 90 29 34
        E 0 91 31 34
        E 0 92 5e 34
        E 1071 91 3d 34
        E 0 92 52 34
        E 1054 81 37 00
        E 0 82 62 00
        E 0 80 2f 00
        E 17 90 22 34
        E 0 91 25 34
        E 0 92 29 34
        E 1054 81 31 00
        E 0 82 5e 00
        E 17 91 27 34
        E 0 92 2a 34
        E 1055 80 29 00
        E 0 81 3d 00
        E 0 82 52 00
        E 17 90 36 34
        E 0 91 52 34
        E 0 92 57 34
        E 1054 81 25 00
        E 0 82 29 00
        E 17 90 38 34
        E 0 91 53 34
        E 1054 80 22 00
        E 0 81 27 00
        E 0 82 2a 00
        E 877 92 58 33
        E 194 81 52 00
        E 211 90 39 33
        E 0 91 55 33
        E 405 91 56 33
        E 0 92 5a 33
        E 405 90 3b 33
        E 0 92 5b 33
        E 405 90 37 34
        E 0 92 56 34
        E 506 80 36 00
        E 0 82 57 00
        E 182 90 35 34
        E 0 91 52 34
        E 223 80 38 00
        E 405 82 58 00
        E 0 81 55 00
        E 405 80 39 00
        E 0 82 5a 00
        E 404 81 56 00
        E 0 80 3b 00
        E 0 82 5b 00
        E 689 81 53 00
        E 688 80 35 00
        E 714 90 35 34
        E 1076 91 46 34
        E 0 92 4a 34
        E 1049 80 37 00
        E 26 91 45 34
        E 0 92 48 34
        E 1050 82 56 00
        E 0 81 52 00
        E 890 91 4a 34
        E 0 92 51 34
        E 185 81 46 00
        E 1076 82 48 00
        E 864 82 4a 00
        E 0 81 45 00
        E 725 91 48 34
        E 1080 91 51 34
        E 0 92 54 34
        E 1046 81 4a 00
        E 34 90 34 34
        E 0 91 4f 34
        E 1045 82 51 00
        E 0 81 48 00
        E 902 91 45 34
        E 0 92 48 34
        E 178 80 35 00
        E 1080 81 4f 00
        E 867 81 51 00
        E 0 82 54 00
        E 737 90 2a 34
        E 0 91 3d 34
        E 0 92 46 34
        E 1085 91 3a 34
        E 0 92 49 34
        E 1041 80 34 00
        E 0 81 45 00
        E 0 82 48 00
        E 43 90 36 34
        E 0 91 52 34
        E 0 92 61 34
        E 1041 81 3d 00
        E 0 82 46 00
        E 43 91 57 34
        E 0 92 5f 34
        E 1041 80 2a 00
        E 0 81 3a 00
        E 0 82 49 00
        E 43 90 23 34
        E 0 91 36 34
        E 0 92 57 34
        E 1041 81 52 00
        E 0 82 61 00
        E 43 90 22 34
        E 0 92 55 34
        E 1041 80 36 00
        E 0 81 57 00
        E 0 82 5f 00
        E 914 91 35 33
        E 171 80 23 00
        E 239 90 24 33
        E 0 92 50 33
        E 410 91 33 33
        E 0 92 4f 33
        E 410 91 32 33
        E 409 90 2e 34
        E 0 91 37 34
        E 0 92 56 34
        E 487 81 36 00
        E 0 82 57 00
        E 210 90 2f 34
        E 0 92 58 34
        E 199 82 55 00
        E 410 81 35 00
        E 0 82 50 00
        E 410 80 24 00
        E 0 81 33 00
        E 410 80 22 00
        E 0 82 4f 00
        E 0 81 32 00
        E 696 80 2e 00
        E 697 82 58 00
        E 748 92 58 34
        E 2126 82 56 00
        E 51 90 30 34
        E 0 91 39 34
        E 1963 90 24 34
        E 163 80 2f 00
        E 1088 81 39 00
        E 875 80 30 00
        E 760 91 39 34
        E 1092 90 21 34
        E 0 91 34 34
        E 0 92 48 34
        E 1033 81 37 00
        E 60 91 35 34
        E 0 92 4a 34
        E 1033 82 58 00
        E 0 80 24 00
        E 0 81 39 00
        E 938 90 2d 34
        E 0 92 54 34
        E 155 81 34 00
        E 1093 82 4a 00
        E 877 80 21 00
        E 0 82 48 00
        E 772 90 23 34
        E 0 91 2c 34
        E 0 92 3f 34
        E 1097 90 2c 34
        E 0 91 3f 34
        E 0 92 5f 34
        E 1028 81 35 00
        E 0 80 2d 00
        E 0 82 54 00
        E 70 90 2f 34
        E 0 91 33 34
        E 0 92 44 34
        E 1028 80 23 00
        E 0 81 2c 00
        E 0 82 3f 00
        E 69 90 31 34
        E 0 91 34 34
        E 1028 80 2c 00
        E 0 81 3f 00
        E 0 82 5f 00
        E 69 90 38 34
        E 0 91 49 34
        E 0 92 4c 34
        E 1028 80 2f 00
        E 0 81 33 00
        E 69 90 39 34
        E 0 92 4e 34
        E 1028 82 44 00
        E 0 80 31 00
        E 0 81 34 00
        E 951 91 4a 33
        E 147 80 38 00
        E 268 90 3b 33
        E 0 92 4f 33
        E 415 90 3c 33
        E 0 91 4c 33
        E 414 91 4d 33
        E 0 92 51 33
        E 415 90 35 34
        E 0 91 48 34
        E 466 81 49 00
        E 0 82 4c 00
        E 239 90 33 34
        E 0 92 50 34
        E 176 80 39 00
        E 0 82 4e 00
        E 415 81 4a 00
        E 0 80 3b 00
        E 114 90 38 34
        E 0 92 54 34
        E 301 82 4f 00
        E 0 81 4c 00
        E 414 80 3c 00
        E 705 82 51 00
        E 0 80 35 00
        E 706 81 48 00
        E 0 80 33 00
        E 0 82 50 00
        E 783 90 26 34
        E 0 91 2a 34
        E 0 92 45 34
        E 1101 90 2a 34
        E 0 91 32 34
        E 0 92 39 34
        E 1024 81 4d 00
        E 0 80 38 00
        E 0 82 54 00
        E 78 90 36 34
        E 0 91 4a 34
        E 0 92 51 34
        E 1024 80 26 00
        E 0 81 2a 00
        E 0 82 45 00
        E 78 90 37 34
        E 0 92 53 34
        E 1023 80 2a 00
        E 0 81 32 00
        E 0 82 39 00
        E 78 90 2f 34
        E 0 91 37 34
        E 0 92 4a 34
        E 1024 80 36 00
        E 0 82 51 00
        E 78 90 2d 34
        E 0 91 36 34
        E 1024 81 4a 00
        E 0 80 37 00
        E 0 82 53 00
        E 963 92 49 33
        E 139 81 37 00
        E 277 90 2c 33
        E 0 91 34 33
        E 417 91 33 33
        E 0 92 47 33
        E 416 90 2a 33
        E 0 92 46 33
        E 416 90 2e 34
        E 0 92 4b 34
        E 460 80 2f 00
        E 0 82 4a 00
        E 248 90 30 34
        E 0 91 37 34
        E 169 80 2d 00
        E 416 82 49 00
        E 0 81 34 00
        E 416 80 2c 00
        E 0 82 47 00
        E 417 81 33 00
        E 0 80 2a 00
        E 0 82 46 00
        E 708 81 36 00
        E 708 80 30 00
        E 794 90 30 34
        E 1107 90 24 34
        E 1019 80 2e 00
        E 87 91 38 34
        E 0 92 4d 34
        E 1019 80 30 00
        E 975 90 30 34
        E 0 92 57 34
        E 131 81 37 00
        E 1106 82 4d 00
        E 889 82 4b 00
        E 0 80 24 00
        E 806 92 59 34
        E 1111 92 4d 34
        E 1014 82 57 00
        E 96 90 31 34
        E 0 91 3a 34
        E 1015 82 59 00
        E 988 90 25 34
        E 123 80 30 00
        E 1110 81 3a 00
        E 892 80 31 00
        E 818 90 23 34
        E 0 91 34 34
        E 0 92 43 34
        E 1116 90 28 34
        E 0 91 2b 34
        E 0 92 5f 34
        E 1010 81 38 00
        E 0 82 4d 00
        E 0 80 25 00
        E 105 90 2f 34
        E 0 91 37 34
        E 0 92 58 34
        E 1010 80 23 00
        E 0 81 34 00
        E 0 82 43 00
        E 105 90 30 34
        E 0 91 39 34
        E 1010 80 28 00
        E 0 81 2b 00
        E 0 82 5f 00
        E 105 91 34 34
        E 0 92 45 34
        E 1010 80 2f 00
        E 0 81 37 00
        E 105 90 32 34
        E 0 91 35 34
        E 1010 82 58 00
        E 0 81 39 00
        E 1000 92 46 33
        E 115 81 34 00
        E 307 90 33 33
        E 0 91 37 33
        E 421 91 38 33
        E 0 92 48 33
        E 422 90 35 33
        E 0 92 49 33
        E 421 90 38 34
        E 0 91 41 34
        E 440 80 30 00
        E 0 82 45 00
        E 277 91 40 34
        E 0 92 47 34
        E 144 80 32 00
        E 0 81 35 00
        E 421 82 46 00
        E 0 81 37 00
        E 422 80 33 00
        E 0 82 48 00
        E 421 81 38 00
        E 0 80 35 00
        E 717 81 41 00
        E 716 82 47 00
        E 830 92 47 34
        E 1120 92 53 34
        E 1006 82 49 00
        E 113 90 36 34
        E 0 91 3f 34
        E 1006 82 47 00
        E 1013 91 4b 34
        E 107 81 40 00
        E 1119 80 36 00
        E 900 81 3f 00
        E 842 90 36 34
        E 1124 91 3f 34
        E 0 92 47 34
        E 1001 80 38 00
        E 123 91 3d 34
        E 0 92 46 34
        E 1001 82 53 00
        E 0 81 4b 00
        E 1025 92 52 34
        E 99 82 47 00
        E 1124 81 3d 00
        E 903 82 46 00
        E 3111 91 3d 36
        E 1128 90 34 36
        E 0 92 51 36
        E 997 81 3f 00
        E 1128 82 52 00
        E 1014 91 3c 3b
        E 0 92 4f 3b
        E 881 90 30 3b
        E 0 91 34 3b
        E 0 92 45 3b
        E 362 80 36 00
        E 520 92 43 45
        E 362 81 3d 00
        E 0 82 51 00
        E 327 90 2e 45
        E 0 91 33 45
        E 555 80 34 00
        E 0 81 3c 00
        E 0 82 4f 00
        E 134 90 37 45
        E 0 91 3f 45
        E 0 92 48 45
        E 688 92 46 5a
        E 59 82 45 00
        E 480 90 36 5a
        E 0 91 3d 5a
        E 209 80 30 00
        E 0 81 34 00
        E 329 92 52 5a
        E 360 82 43 00
        E 0 80 2e 00
        E 0 81 33 00
        E 588 90 34 5a
        E 0 91 39 5a
        E 0 92 54 5a
        E 101 82 48 00
        E 310 90 24 5a
        E 0 91 28 5a
        E 0 92 2d 5a
        E 228 80 37 00
        E 182 91 3c 5a
        E 0 92 45 5a
        E 356 82 46 00
        E 0 81 3d 00
        E 55 90 35 5a
        E 328 90 2d 5a
        E 0 91 35 5a
        E 0 92 3c 5a
        E 566 81 3f 00
        E 0 80 36 00
        E 0 82 52 00
        E 410 81 39 00
        E 0 82 54 00
        E 175 90 36 45
        E 0 91 57 45
        E 0 92 5f 45
        E 236 80 24 00
        E 0 81 28 00
        E 0 82 2d 00
        E 265 90 27 45
        E 0 91 42 45
        E 0 92 53 45
        E 145 80 34 00
        E 329 81 3c 00
        E 0 82 45 00
        E 0 80 35 00
        E 27 90 23 45
        E 0 91 36 45
        E 0 92 4b 45
        E 501 90 25 45
        E 0 91 38 45
        E 0 92 4c 45
        E 501 90 34 45
        E 0 92 49 45
        E 121 80 2d 00
        E 0 81 35 00
        E 0 82 3c 00
        E 381 91 39 45
        E 120 81 57 00
        E 0 82 5f 00
        E 501 80 27 00
        E 0 81 42 00
        E 0 82 53 00
        E 282 91 34 45
        E 0 92 45 45
        E 220 80 23 00
        E 0 81 36 00
        E 0 82 4b 00
        E 501 82 4c 00
        E 501 81 38 00
        E 107 90 37 45
        E 0 91 3c 45
        E 0 92 57 45
        E 394 80 36 00
        E 8 90 27 45
        E 0 91 30 45
        E 0 92 43 45
        E 395 80 34 00
        E 0 82 49 00
        E 0 81 39 00
        E 8 91 3f 45
        E 0 92 48 45
        E 402 90 38 45
        E 0 91 41 45
        E 403 90 30 45
        E 0 91 35 45
        E 0 92 38 45
        E 402 91 33 5a
        E 113 80 25 00
        E 0 81 34 00
        E 0 82 45 00
        E 290 90 2f 5a
        E 0 92 36 5a
        E 112 81 3c 00
        E 0 82 57 00
        E 290 91 38 5a
        E 0 92 3f 5a
        E 113 80 27 00
        E 0 81 30 00
        E 0 82 43 00
        E 403 80 37 00
        E 0 81 3f 00
        E 194 90 21 5a
        E 0 92 4a 5a
        E 208 82 48 00
        E 0 80 38 00
        E 0 81 41 00
        E 99 90 35 5a
        E 0 91 4a 5a
        E 0 92 5d 5a
        E 307 90 2d 5a
        E 0 91 32 5a
        E 0 92 35 5a
        E 307 90 2e 5a
        E 92 80 30 00
        E 0 82 38 00
        E 154 90 29 5a
        E 0 91 46 5a
        E 0 92 62 5a
        E 249 81 33 00
        E 0 82 36 00
        E 709 80 2f 00
        E 0 81 38 00
        E 0 82 3f 00
        E 307 81 35 00
        E 0 80 21 00
        E 0 82 4a 00
        E 181 90 38 3b
        E 0 91 47 3b
        E 0 92 4c 3b
        E 127 80 35 00
        E 0 81 4a 00
        E 0 82 5d 00
        E 307 80 2d 00
        E 152 91 3b 3b
        E 0 92 58 3b
        E 93 81 32 00
        E 0 82 35 00
        E 0 80 2e 00
        E 493 90 34 3b
        E 0 91 38 3b
        E 0 92 53 3b
        E 586 90 37 3b
        E 0 91 3f 3b
        E 0 92 60 3b
        E 368 80 29 00
        E 0 81 46 00
        E 0 82 62 00
        E 217 91 4b 3b
        E 0 92 54 3b
        E 368 81 47 00
        E 0 82 4c 00
        E 218 90 24 3b
        E 0 91 33 3b
        E 0 92 37 3b
        E 368 80 38 00
        E 0 81 3b 00
        E 0 82 58 00
        E 218 91 35 3b
        E 0 92 38 3b
        E 368 80 34 00
        E 0 81 38 00
        E 0 82 53 00
        E 218 90 2c 3b
        E 0 91 54 3b
        E 0 92 59 3b
        E 368 81 3f 00
        E 0 82 60 00
        E 217 90 2e 3b
        E 0 91 55 3b
        E 369 80 37 00
        E 0 81 4b 00
        E 0 82 54 00
        E 585 81 33 00
        E 0 82 37 00
        E 103 92 5a 36
        E 221 90 2f 36
        E 0 91 57 36
        E 222 91 58 36
        E 0 92 5c 36
        E 40 80 24 00
        E 0 81 35 00
        E 0 82 38 00
        E 181 90 31 36
        E 0 92 5d 36
        E 221 90 28 3b
        E 0 91 45 3b
        E 0 92 55 3b
        E 184 81 54 00
        E 193 91 43 3b
        E 0 92 54 3b
        E 863 80 2c 00
        E 0 82 59 00
        E 221 80 2e 00
        E 0 81 55 00
        E 222 82 5a 00
        E 0 81 57 00
        E 221 80 2f 00
        E 0 82 5c 00
        E 222 81 58 00
        E 0 80 31 00
        E 0 82 5d 00
        E 376 82 55 00
        E 392 90 2b 3b
        E 0 91 48 3b
        E 0 92 58 3b
        E 588 91 47 3b
        E 0 92 56 3b
        E 949 81 45 00
        E 112 91 53 3b
        E 476 80 28 00
        E 0 81 43 00
        E 0 82 54 00
        E 588 81 48 00
        E 1061 81 47 00
        E 24 92 62 3b
        E 590 90 2a 3b
        E 0 91 51 3b
        E 945 82 58 00
        E 120 91 47 3b
        E 1061 80 2b 00
        E 504 90 38 3b
        E 0 91 48 3b
        E 0 92 4b 3b
        E 86 81 51 00
        E 389 91 3c 3b
        E 0 92 57 3b
        E 86 81 53 00
        E 0 82 62 00
        E 388 90 33 3b
        E 0 91 38 3b
        E 0 92 54 3b
        E 474 90 35 3b
        E 0 92 55 3b
        E 474 90 25 3b
        E 0 91 2c 3b
        E 0 92 59 3b
        E 229 82 56 00
        E 0 80 2a 00
        E 0 81 47 00
        E 246 91 2e 45
        E 228 81 48 00
        E 0 82 4b 00
        E 246 90 26 45
        E 0 92 5b 45
        E 228 80 38 00
        E 0 81 3c 00
        E 0 82 57 00
        E 246 90 22 45
        E 0 91 29 45
        E 0 92 56 45
        E 228 80 33 00
        E 0 82 54 00
        E 247 91 2b 5a
        E 228 81 38 00
        E 0 80 35 00
        E 0 82 55 00
        E 142 90 23 5a
        E 0 92 58 5a
        E 332 81 2c 00
        E 39 90 2b 5a
        E 0 91 2f 5a
        E 0 92 62 5a
        E 435 80 25 00
        E 0 82 59 00
        E 218 90 35 5a
        E 0 91 38 5a
        E 0 92 61 5a
        E 257 81 2e 00
        E 0 80 26 00
        E 0 82 5b 00
        E 26 90 38 5a
        E 0 91 41 5a
        E 0 92 55 5a
        E 282 90 25 5a
        E 0 92 38 5a
        E 283 90 27 5a
        E 0 91 2a 5a
        E 0 92 3a 5a
        E 226 90 2a 5a
        E 0 91 4b 5a
        E 0 92 52 5a
        E 27 80 22 00
        E 0 82 56 00
        E 371 81 2b 00
        E 0 80 23 00
        E 0 82 58 00
        E 394 90 24 45
        E 0 91 34 45
        E 0 92 39 45
        E 259 80 2b 00
        E 0 81 2f 00
        E 0 82 62 00
        E 86 90 2d 45
        E 0 91 30 45
        E 0 92 34 45
        E 197 80 35 00
        E 0 81 38 00
        E 0 82 61 00
        E 148 90 28 45
        E 0 91 45 45
        E 0 92 54 45
        E 135 80 38 00
        E 0 81 41 00
        E 0 82 55 00
        E 210 90 29 45
        E 72 81 29 00
        E 0 80 25 00
        E 0 82 38 00
        E 226 80 27 00
        E 0 81 2a 00
        E 0 82 3a 00
        E 48 91 2d 45
        E 345 91 2b 45
        E 400 80 2a 00
        E 0 81 4b 00
        E 0 82 52 00
        E 222 90 21 45
        E 0 91 28 45
        E 0 92 48 45
        E 123 80 24 00
        E 0 81 34 00
        E 0 82 39 00
        E 345 80 2d 00
        E 0 81 30 00
        E 0 82 34 00
        E 447 90 22 45
        E 0 91 31 45
        E 0 92 36 45
        E 243 81 45 00
        E 34 90 31 45
        E 0 91 36 45
        E 0 92 5e 45
        E 277 90 2a 45
        E 0 91 2e 45
        E 0 92 61 45
        E 34 80 29 00
        E 243 91 33 45
        E 0 92 5f 45
        E 102 81 2b 00
        E 175 91 3f 45
        E 0 92 47 45
        E 102 80 28 00
        E 0 82 54 00
        E 0 81 2d 00
        E 176 90 2c 5a
        E 277 91 41 5a
        E 277 91 4b 5a
        E 0 92 54 5a
        E 185 80 21 00
        E 0 81 28 00
        E 277 80 22 00
        E 0 81 31 00
        E 0 82 36 00
        E 27 91 45 5a
        E 0 92 62 5a
        E 211 90 26 5a
        E 0 92 39 5a
        E 39 80 31 00
        E 0 82 5e 00
        E 172 91 4a 5a
        E 0 92 51 5a
        E 105 81 2e 00
        E 0 82 61 00
        E 107 90 28 5a
        E 0 91 47 5a
        E 0 92 4f 5a
        E 169 90 2b 5a
        E 0 91 2f 5a
        E 0 92 40 5a
        E 2 81 33 00
        E 0 82 5f 00
        E 554 81 3f 00
        E 0 82 47 00
        E 277 82 48 00
        E 0 81 41 00
        E 489 80 2c 00
        E 0 81 4b 00
        E 0 82 54 00
        E 211 81 45 00
        E 0 82 62 00
        E 93 90 29 36
        E 0 91 55 36
        E 0 92 5e 36
        E 119 81 36 00
        E 0 80 26 00
        E 0 82 39 00
        E 211 80 2a 00
        E 0 81 4a 00
        E 0 82 51 00
        E 169 80 28 00
        E 0 81 47 00
        E 0 82 4f 00
        E 131 91 52 36
        E 0 92 61 36
        E 631 90 22 36
        E 0 91 29 36
        E 0 92 49 36
        E 630 91 3c 36
        E 0 92 58 36
        E 235 81 2f 00
        E 0 82 40 00
        E 395 90 28 36
        E 0 91 30 36
        E 0 92 37 36
        E 235 81 55 00
        E 0 82 5e 00
        E 395 91 40 36
        E 0 92 48 36
        E 235 80 29 00
        E 0 81 52 00
        E 0 82 61 00
        E 396 90 2d 36
        E 0 91 41 36
        E 234 80 22 00
        E 0 81 29 00
        E 0 82 49 00
        E 396 90 29 36
        E 0 91 2d 36
        E 0 92 3c 36
        E 234 81 3c 00
        E 0 82 58 00
        E 396 91 2b 36
        E 235 81 30 00
        E 0 82 37 00
        E 630 80 2b 00
        E 0 81 40 00
        E 271 92 3b 34
        E 239 90 26 34
        E 0 91 2a 34
        E 120 82 48 00
        E 0 80 2d 00
        E 0 81 41 00
        E 118 90 25 34
        E 0 92 39 34
        E 238 91 28 34
        E 0 92 38 34
        E 238 91 2c 36
        E 0 92 34 36
        E 36 80 29 00
        E 369 91 2e 36
        E 0 92 35 36
        E 768 81 2d 00
        E 0 82 3c 00
        E 238 80 28 00
        E 0 81 2b 00
        E 238 82 3b 00
        E 0 80 26 00
        E 238 81 2a 00
        E 0 82 39 00
        E 239 81 28 00
        E 0 82 38 00
        E 355 90 23 36
        E 0 91 2b 36
        E 0 92 58 36
        E 50 82 34 00
        E 405 81 2e 00
        E 178 90 2b 36
        E 0 91 58 36
        E 0 92 5f 36
        E 632 91 2f 36
        E 0 92 40 36
        E 633 90 2d 36
        E 0 91 30 36
        E 227 80 25 00
        E 0 81 2c 00
        E 0 82 35 00
        E 406 90 24 36
        E 0 91 28 36
        E 0 92 45 36
        E 227 80 23 00
        E 0 81 2b 00
        E 0 82 58 00
        E 406 90 26 36
        E 0 91 29 36
        E 227 81 58 00
        E 0 82 5f 00
        E 632 80 2b 00
        E 0 81 2f 00
        E 282 92 46 34
        E 239 90 27 34
        E 0 91 2b 34
        E 112 82 40 00
        E 0 80 2d 00
        E 0 81 30 00
        E 127 91 2c 34
        E 0 92 48 34
        E 239 90 29 34
        E 0 92 49 34
        E 267 81 28 00
        E 379 90 28 36
        E 0 92 47 36
        E 762 80 24 00
        E 0 82 45 00
        E 239 80 26 00
        E 0 81 29 00
        E 239 82 46 00
        E 0 81 2b 00
        E 239 80 27 00
        E 0 82 48 00
        E 646 80 29 00
        E 594 92 53 36
        E 635 90 27 36
        E 0 91 2a 36
        E 855 82 49 00
        E 291 90 2c 36
        E 0 91 33 36
        E 344 82 47 00
        E 636 80 28 00
        E 635 81 2a 00
        E 69 90 2a 36
        E 441 81 2c 00
        E 0 80 27 00
        E 197 90 27 36
        E 0 91 2a 36
        E 0 92 47 36
        E 637 90 25 36
        E 0 92 46 36
        E 850 80 2c 00
        E 301 92 52 36
        E 337 82 53 00
        E 0 81 33 00
        E 0 80 2a 00
        E 638 82 47 00
        E 638 80 25 00
        E 77 90 2b 36
        E 0 91 3c 36
        E 0 92 4c 36
        E 435 82 46 00
        E 206 91 30 36
        E 0 92 58 36
        E 640 91 34 36
        E 0 92 48 36
        E 641 90 2d 36
        E 0 91 35 36
        E 204 80 27 00
        E 0 81 2a 00
        E 0 82 52 00
        E 436 90 29 36
        E 0 91 2d 36
        E 0 92 30 36
        E 204 81 3c 00
        E 0 82 4c 00
        E 436 90 28 36
        E 0 91 2b 36
        E 205 81 30 00
        E 0 82 58 00
        E 640 80 2b 00
        E 0 81 34 00
        E 310 92 2f 34
        E 242 90 26 34
        E 0 91 2a 34
        E 88 82 48 00
        E 0 80 2d 00
        E 0 81 35 00
        E 154 90 25 34
        E 0 92 2d 34
        E 242 91 28 34
        E 0 92 2c 34
        E 245 80 29 00
        E 409 91 29 36
        E 0 92 2e 36
        E 746 81 2d 00
        E 0 82 30 00
        E 242 80 28 00
        E 0 81 2b 00
        E 242 82 2f 00
        E 0 80 26 00
        E 242 81 2a 00
        E 0 82 2d 00
        E 653 81 28 00
        E 627 90 22 36
        E 0 91 25 36
        E 0 92 29 36
        E 643 91 27 36
        E 0 92 2a 36
        E 839 82 2c 00
        E 320 90 2a 36
        E 0 91 2e 36
        E 0 92 31 36
        E 323 80 25 00
        E 0 81 29 00
        E 0 82 2e 00
        E 643 82 29 00
        E 643 81 27 00
        E 96 92 33 36
        E 421 80 22 00
        E 0 81 25 00
        E 0 82 2a 00
        E 224 90 27 36
        E 0 91 2a 36
        E 0 92 2e 36
        E 646 91 2c 36
        E 0 92 2f 36
        E 834 82 31 00
        E 330 90 23 36
        E 0 91 27 36
        E 0 92 2a 36
        E 316 80 2a 00
        E 0 81 2e 00
        E 0 82 33 00
        E 645 82 2e 00
        E 646 81 2c 00
        E 104 90 21 36
        E 0 91 29 36
        E 0 92 4a 36
        E 414 80 27 00
        E 0 81 2a 00
        E 0 82 2f 00
        E 105 90 29 36
        E 0 91 4a 36
        E 0 92 5d 36
        E 518 91 2d 36
        E 0 92 32 36
        E 519 90 2b 36
        E 0 91 2e 36
        E 518 90 37 36
        E 0 91 52 36
        E 0 92 62 36
        E 51 80 23 00
        E 0 81 27 00
        E 0 82 2a 00
        E 468 90 35 3b
        E 51 80 21 00
        E 0 81 29 00
        E 0 82 4a 00
        E 467 91 50 3b
        E 0 92 61 3b
        E 52 81 4a 00
        E 0 82 5d 00
        E 467 91 46 3b
        E 0 92 55 3b
        E 51 80 29 00
        E 0 81 2d 00
        E 467 91 44 45
        E 52 82 32 00
        E 0 80 2b 00
        E 0 81 2e 00
        E 353 90 34 45
        E 0 92 53 45
        E 165 80 37 00
        E 241 90 28 45
        E 0 92 49 45
        E 278 81 52 00
        E 0 82 62 00
        E 127 92 47 5a
        E 316 90 26 5a
        E 0 91 43 5a
        E 75 81 50 00
        E 0 82 61 00
        E 519 81 46 00
        E 281 90 29 5a
        E 0 91 3a 5a
        E 0 92 3d 5a
        E 124 80 35 00
        E 0 82 55 00
        E 117 91 2e 5a
        E 242 90 25 5a
        E 0 91 29 5a
        E 0 92 46 5a
        E 46 80 34 00
        E 195 91 2a 5a
        E 193 90 2e 5a
        E 0 91 36 5a
        E 0 92 61 5a
        E 333 81 44 00
        E 317 82 47 00
        E 0 80 26 00
        E 27 90 2b 45
        E 0 91 34 45
        E 0 92 60 45
        E 294 91 40 45
        E 0 92 54 45
        E 237 82 53 00
        E 0 80 28 00
        E 0 81 43 00
        E 58 90 24 45
        E 0 91 28 45
        E 0 92 2b 45
        E 183 81 3a 00
        E 0 82 3d 00
        E 112 90 21 45
        E 0 91 26 45
        E 0 92 29 45
        E 130 82 49 00
        E 0 80 29 00
        E 0 81 2e 00
        E 165 90 35 45
        E 0 91 4a 45
        E 0 92 51 45
        E 76 81 29 00
        E 193 80 25 00
        E 0 82 46 00
        E 0 81 2a 00
        E 25 90 37 45
        E 0 92 52 45
        E 532 91 46 45
        E 0 92 4a 45
        E 120 80 2e 00
        E 0 81 36 00
        E 0 82 61 00
        E 295 81 34 00
        E 0 82 60 00
        E 295 80 2b 00
        E 0 81 40 00
        E 0 82 54 00
        E 71 90 2c 45
        E 0 91 34 45
        E 0 92 3d 45
        E 223 80 24 00
        E 0 81 28 00
        E 0 82 2b 00
        E 14 91 31 45
        E 0 92 40 45
        E 237 90 28 45
        E 0 91 44 45
        E 0 92 49 45
        E 44 80 21 00
        E 0 81 26 00
        E 0 82 29 00
        E 192 90 2a 45
        E 0 91 45 45
        E 103 82 51 00
        E 134 90 2d 45
        E 0 91 36 45
        E 0 92 55 45
        E 161 80 37 00
        E 236 81 4a 00
        E 0 82 52 00
        E 77 90 2b 5a
        E 0 92 54 5a
        E 236 90 21 5a
        E 0 92 48 5a
        E 418 90 22 5a
        E 0 91 2a 5a
        E 0 92 33 5a
        E 51 80 35 00
        E 0 81 46 00
        E 0 82 4a 00
        E 129 91 33 5a
        E 0 92 5e 5a
        E 107 82 3d 00
        E 74 90 27 5a
        E 0 91 2e 5a
        E 0 92 42 5a
        E 163 80 2c 00
        E 0 81 31 00
        E 0 82 40 00
        E 18 91 2f 5a
        E 144 90 36 5a
        E 0 91 47 5a
        E 0 92 4b 5a
        E 75 80 28 00
        E 0 81 44 00
        E 237 82 49 00
        E 0 81 45 00
        E 236 81 36 00
        E 237 80 2d 00
        E 0 82 55 00
        E 66 90 29 3b
        E 0 91 30 3b
        E 0 92 45 3b
        E 171 80 2b 00
        E 0 82 54 00
        E 173 91 39 3b
        E 0 92 3c 3b
        E 244 81 34 00
        E 0 80 21 00
        E 0 82 48 00
        E 101 90 35 3b
        E 0 91 51 3b
        E 0 92 54 3b
        E 80 80 22 00
        E 0 81 2a 00
        E 0 82 33 00
        E 180 80 2a 00
        E 0 81 33 00
        E 0 82 5e 00
        E 84 90 28 3b
        E 0 91 44 3b
        E 0 92 61 3b
        E 97 81 2e 00
        E 145 80 27 00
        E 0 82 42 00
        E 0 81 2f 00
        E 103 91 2c 3b
        E 0 92 55 3b
        E 344 90 25 3b
        E 0 91 38 3b
        E 0 92 58 3b
        E 345 92 5a 3b
        E 58 80 36 00
        E 0 81 47 00
        E 0 82 4b 00
        E 286 90 36 3b
        E 0 91 3d 3b
        E 0 92 51 3b
        E 59 81 30 00
        E 0 82 45 00
        E 286 91 3e 3b
        E 0 92 53 3b
        E 58 80 29 00
        E 0 82 3c 00
        E 345 80 35 00
        E 0 81 51 00
        E 0 82 54 00
        E 218 90 37 36
        E 126 81 44 00
        E 0 82 61 00
        E 4 91 40 36
        E 0 92 54 36
        E 131 90 39 36
        E 0 91 41 36
        E 130 90 3a 36
        E 0 92 56 36
        E 80 80 28 00
        E 0 81 2c 00
        E 0 82 55 00
        E 50 90 32 3b
        E 0 91 35 3b
        E 0 92 46 3b
        E 221 90 31 3b
        E 0 92 44 3b
        E 73 81 38 00
        E 0 82 58 00
        E 345 81 39 00
        E 0 80 25 00
        E 0 82 5a 00
        E 344 81 3d 00
        E 621 80 36 00
        E 0 82 51 00
        E 98 90 38 3b
        E 0 92 49 3b
        E 33 81 3e 00
        E 0 82 53 00
        E 130 80 37 00
        E 0 81 40 00
        E 130 82 54 00
        E 0 80 39 00
        E 53 91 3f 3b
        E 0 92 48 3b
        E 77 80 3a 00
        E 0 82 56 00
        E 222 80 32 00
        E 324 92 54 3b
        E 810 82 46 00
        E 346 81 35 00
        E 0 80 31 00
        E 0 82 44 00
        E 109 91 4b 3b
        E 237 82 49 00
        E 110 90 37 3b
        E 0 92 52 3b
        E 514 82 48 00
        E 112 92 48 3b
        E 805 81 41 00
        E 116 90 34 3b
        E 0 91 39 3b
        E 0 92 55 3b
        E 279 90 25 3b
        E 0 91 28 3b
        E 0 92 2d 3b
        E 278 91 3d 3b
        E 0 92 45 3b
        E 21 80 38 00
        E 258 90 36 3b
        E 0 91 3e 3b
        E 89 82 52 00
        E 190 90 2d 3b
        E 0 91 32 3b
        E 0 92 36 3b
        E 89 82 54 00
        E 0 81 4b 00
        E 190 90 2f 45
        E 279 91 33 45
        E 0 92 38 45
        E 279 90 23 45
        E 0 91 36 45
        E 0 92 3f 45
        E 173 81 3f 00
        E 0 80 37 00
        E 0 82 48 00
        E 106 91 38 5a
        E 173 81 39 00
        E 0 82 55 00
        E 45 90 24 5a
        E 0 92 41 5a
        E 218 90 30 5a
        E 0 92 4b 5a
        E 16 80 25 00
        E 0 81 28 00
        E 0 82 2d 00
        E 279 80 34 00
        E 0 81 3d 00
        E 89 90 21 5a
        E 0 92 56 5a
        E 166 91 56 5a
        E 0 92 5d 5a
        E 24 82 45 00
        E 0 81 3e 00
        E 143 92 3e 5a
        E 166 91 37 5a
        E 0 92 40 5a
        E 133 90 34 5a
        E 0 92 53 5a
        E 116 81 32 00
        E 0 82 36 00
        E 279 81 33 00
        E 0 82 38 00
        E 71 90 35 45
        E 0 91 3a 45
        E 0 92 49 45
        E 203 90 2e 45
        E 0 91 35 45
        E 0 92 55 45
        E 203 90 31 45
        E 0 92 46 45
        E 19 80 23 00
        E 0 82 3f 00
        E 218 80 24 00
        E 0 82 41 00
        E 169 91 31 45
        E 0 92 36 45
        E 203 90 2c 45
        E 0 92 35 45
        E 12 81 38 00
        E 0 80 30 00
        E 0 82 4b 00
        E 167 80 21 00
        E 0 82 56 00
        E 166 80 36 00
        E 0 81 56 00
        E 0 82 5d 00
        E 21 90 22 45
        E 0 91 25 45
        E 145 80 2d 00
        E 0 82 3e 00
        E 133 80 2f 00
        E 0 82 40 00
        E 260 90 23 45
        E 0 92 56 45
        E 163 90 37 45
        E 0 91 56 45
        E 0 92 5f 45
        E 43 80 34 00
        E 0 82 53 00
        E 120 90 2f 45
        E 0 92 3e 45
        E 83 80 35 00
        E 0 81 3a 00
        E 0 82 49 00
        E 80 90 30 45
        E 0 92 40 45
        E 123 82 55 00
        E 40 90 28 45
        E 0 92 48 45
        E 163 81 35 00
        E 0 91 39 5a
        E 163 90 2a 5a
        E 0 92 49 5a
        E 40 81 36 00
        E 0 80 31 00
        E 0 82 46 00
        E 123 91 45 5a
        E 0 92 61 5a
        E 80 82 36 00
        E 203 80 2c 00
        E 4 91 46 5a
        E 0 92 4b 5a
        E 124 91 3a 5a
        E 0 92 57 5a
        E 35 80 2e 00
        E 0 81 31 00
        E 90 90 33 5a
        E 0 92 52 5a
        E 124 90 35 5a
        E 0 91 38 5a
        E 0 92 54 5a
        E 100 90 29 5a
        E 0 91 30 5a
        E 0 92 38 5a
        E 224 82 35 00
        E 0 80 22 00
        E 0 81 25 00
        E 163 80 23 00
        E 0 82 56 00
        E 163 81 56 00
        E 0 82 5f 00
        E 163 80 2f 00
        E 0 82 3e 00
        E 163 80 30 00
        E 0 82 40 00
        E 326 82 48 00
        E 163 81 39 00
        E 0 80 2a 00
        E 0 82 49 00
        E 287 80 28 00
        E 0 81 45 00
        E 0 82 61 00
        E 125 81 46 00
        E 0 82 4b 00
        E 124 80 37 00
        E 0 81 3a 00
        E 0 82 57 00
        E 125 81 37 00
        E 0 80 33 00
        E 0 82 52 00
        E 99 80 35 00
        E 0 81 38 00
        E 0 82 54 00
        E 569 90 36 36
        E 0 90 45 36
        E 0 90 56 36
        E 1853 90 26 36
        E 0 90 42 36
        E 272 80 29 00
        E 0 81 30 00
        E 0 82 38 00
        E 1581 90 39 36
        E 0 90 3e 36
        E 272 80 56 00
        E 1581 90 37 36
        E 0 90 3b 36
        E 272 80 45 00
        E 0 80 26 00
        E 0 80 42 00
        E 1582 90 32 36
        E 0 90 47 36
        E 272 80 36 00
        E 0 80 39 00
        E 1581 90 36 36
        E 0 90 45 36
        E 272 80 3e 00
        E 0 80 3b 00
        E 1853 80 37 00
        E 1217 90 31 34
        E 701 90 34 34
        E 0 90 44 34
        E 700 90 2f 34
        E 0 90 33 34
        E 701 90 2e 34
        E 0 90 42 34
        E 23 80 32 00
        E 0 80 47 00
        E 677 90 46 36
        E 24 80 45 00
        E 700 80 31 00
        E 0 80 34 00
        E 467 90 37 36
        E 0 90 48 36
        E 234 80 44 00
        E 0 80 2f 00
        E 700 80 2e 00
        E 0 80 42 00
        E 1191 80 36 00
        E 1191 80 48 00
        E 2787 90 21 36
        E 0 90 25 36
        E 0 90 42 36
        E 1861 90 31 36
        E 265 80 33 00
        E 0 80 46 00
        E 0 80 37 00
        E 1596 90 36 36
        E 0 90 3d 36
        E 0 90 51 36
        E 264 80 25 00
        E 1596 90 3e 36
        E 0 90 53 36
        E 265 80 21 00
        E 0 80 42 00
        E 0 80 31 00
        E 1596 90 2a 36
        E 0 90 56 36
        E 265 80 3d 00
        E 0 80 51 00
        E 1596 90 28 36
        E 0 90 4f 36
        E 265 80 36 00
        E 0 80 3e 00
        E 1596 90 26 36
        E 264 80 2a 00
        E 0 80 56 00
        E 1230 90 54 34
        E 704 90 29 34
        E 0 90 51 34
        E 703 90 52 34
        E 0 90 56 34
        E 703 90 27 34
        E 16 80 53 00
        E 0 80 26 00
        E 688 90 22 36
        E 0 90 33 36
        E 0 90 37 36
        E 15 80 28 00
        E 703 80 54 00
        E 0 80 51 00
        E 477 90 31 36
        E 0 90 36 36
        E 227 80 29 00
        E 0 80 56 00
        E 703 80 4f 00
        E 0 80 52 00
        E 0 80 27 00
        E 1196 80 37 00
        E 1195 80 31 00
        E 2807 90 28 36
        E 0 90 30 36
        E 0 90 43 36
        E 1868 90 34 36
        E 257 80 22 00
        E 0 80 33 00
        E 0 80 36 00
        E 1612 90 24 36
        E 0 90 37 36
        E 0 90 40 36
        E 257 80 28 00
        E 1611 90 39 36
        E 0 90 41 36
        E 257 80 30 00
        E 0 80 43 00
        E 0 80 34 00
        E 1611 90 35 36
        E 257 80 37 00
        E 0 80 40 00
        E 1611 90 34 36
        E 0 90 37 36
        E 257 80 41 00
        E 1869 80 35 00
        E 1243 90 23 34
        E 706 90 32 34
        E 0 90 36 34
        E 706 90 21 34
        E 0 90 31 34
        E 706 90 28 34
        E 0 90 38 34
        E 7 80 24 00
        E 0 80 39 00
        E 706 80 34 00
        E 0 80 37 00
        E 707 80 23 00
        E 0 80 32 00
        E 487 90 29 36
        E 0 90 3a 36
        E 219 80 36 00
        E 0 80 21 00
        E 1906 80 28 00
        E 1201 80 3a 00
        E 2826 90 3a 36
        E 1876 90 2e 36
        E 0 90 55 36
        E 250 80 38 00
        E 1626 90 27 36
        E 0 90 2a 36
        E 0 90 52 36
        E 250 80 31 00
        E 0 80 3a 00
        E 1626 90 25 36
        E 249 80 29 00
        E 0 80 2e 00
        E 0 80 55 00
        E 1257 90 36 36
        E 0 90 3a 36
        E 619 80 27 00
        E 1507 80 2a 00
        E 0 80 52 00
        E 2846 90 27 36
        E 2125 80 25 00
        E 1642 90 38 36
        E 0 90 3b 36
        E 2125 80 3a 00
        E 1271 90 2f 36
        E 612 80 38 00
        E 1513 80 3b 00
        E 2866 90 35 36
        E 0 90 3e 36
        E 0 90 51 36
        E 1891 90 4a 36
        E 235 80 36 00
        E 0 80 27 00
        E 0 80 2f 00
        E 1656 90 26 36
        E 0 90 45 36
        E 234 80 3e 00
        E 1657 90 37 36
        E 0 90 46 36
        E 234 80 51 00
        E 0 80 4a 00
        E 1657 90 2b 36
        E 0 90 52 36
        E 0 90 56 36
        E 234 80 35 00
        E 0 80 45 00
        E 1656 90 4b 36
        E 0 90 54 36
        E 235 80 26 00
        E 0 80 37 00
        E 0 80 46 00
        E 1891 80 56 00
        E 1284 90 2c 34
        E 715 90 4d 34
        E 0 90 55 34
        E 714 90 2e 34
        E 0 90 4e 34
        E 696 80 2b 00
        E 0 80 52 00
        E 19 90 33 34
        E 0 90 53 34
        E 696 80 4b 00
        E 0 80 54 00
        E 19 90 2a 36
        E 0 90 47 36
        E 0 90 4b 36
        E 696 80 2c 00
        E 0 80 4d 00
        E 519 90 45 36
        E 0 90 4a 36
        E 195 80 55 00
        E 0 80 2e 00
        E 715 80 4e 00
        E 0 80 33 00
        E 0 80 53 00
        E 1215 80 4b 00
        E 1215 80 45 00
        E 2887 90 45 36
        E 1898 90 51 36
        E 227 80 47 00
        E 1671 90 28 36
        E 0 90 49 36
        E 227 80 45 00
        E 1899 80 4a 00
        E 1298 90 55 36
        E 600 80 28 00
        E 1525 80 49 00
        E 2907 90 28 36
        E 1906 90 45 36
        E 0 90 49 36
        E 219 80 2a 00
        E 1687 90 44 36
        E 0 90 47 36
        E 219 80 51 00
        E 0 80 55 00
        E 1906 80 45 00
        E 1312 90 2c 36
        E 0 90 4c 36
        E 594 80 47 00
        E 1531 80 28 00
        E 0 80 44 00
        E 2927 90 22 36
        E 0 90 35 36
        E 0 90 3e 36
        E 1914 90 4a 36
        E 211 80 49 00
        E 0 80 2c 00
        E 0 80 4c 00
        E 1702 90 29 36
        E 0 90 52 36
        E 0 90 56 36
        E 212 80 3e 00
        E 1702 90 27 36
        E 0 90 4f 36
        E 212 80 22 00
        E 0 80 35 00
        E 0 80 4a 00
        E 1702 90 2b 36
        E 0 90 2e 36
        E 0 90 4b 36
        E 211 80 29 00
        E 0 80 56 00
        E 1702 90 29 36
        E 0 90 4a 36
        E 212 80 52 00
        E 0 80 27 00
        E 0 80 4f 00
        E 1914 80 4b 00
        E 1325 90 2d 34
        E 723 90 28 34
        E 0 90 48 34
        E 724 90 47 34
        E 678 80 2e 00
        E 45 90 26 34
        E 0 90 2a 34
        E 679 80 29 00
        E 0 80 4a 00
        E 44 90 23 36
        E 0 90 4a 36
        E 679 80 2d 00
        E 0 80 48 00
        E 551 90 2c 36
        E 0 90 4b 36
        E 172 80 2b 00
        E 0 80 28 00
        E 724 80 47 00
        E 0 80 26 00
        E 1229 80 4a 00
        E 1230 80 2c 00
        E 2947 90 32 36
        E 0 90 35 36
        E 0 90 45 36
        E 1922 90 3e 36
        E 204 80 2a 00
        E 0 80 23 00
        E 0 80 4b 00
        E 1717 90 29 36
        E 0 90 39 36
        E 0 90 56 36
        E 204 80 32 00
        E 1717 90 2b 36
        E 0 90 3a 36
        E 204 80 35 00
        E 0 80 45 00
        E 0 80 3e 00
        E 1718 90 46 36
        E 0 90 4a 36
        E 204 80 29 00
        E 0 80 39 00
        E 1717 90 48 36
        E 0 90 4b 36
        E 204 80 56 00
        E 0 80 3a 00
        E 1922 80 4a 00
        E 1339 90 2c 34
        E 726 90 49 34
        E 0 90 4d 34
        E 726 90 2e 34
        E 0 90 4e 34
        E 673 80 2b 00
        E 0 80 46 00
        E 54 90 2f 34
        E 672 80 48 00
        E 54 90 2a 36
        E 0 90 3b 36
        E 0 90 3f 36
        E 673 80 2c 00
        E 0 80 4d 00
        E 561 90 39 36
        E 0 90 3e 36
        E 165 80 49 00
        E 0 80 2e 00
        E 726 80 4b 00
        E 0 80 4e 00
        E 0 80 2f 00
        E 1235 80 3f 00
        E 1234 80 39 00
        E 2968 90 39 36
        E 1929 90 45 36
        E 196 80 3b 00
        E 1733 90 28 36
        E 0 90 3d 36
        E 196 80 39 00
        E 1929 80 3e 00
        E 1354 90 49 36
        E 576 80 28 00
        E 1549 80 3d 00
        E 2988 90 28 36
        E 1937 90 39 36
        E 0 90 3d 36
        E 188 80 2a 00
        E 1749 90 38 36
        E 0 90 3b 36
        E 188 80 45 00
        E 0 80 49 00
        E 1937 80 39 00
        E 1367 90 2c 36
        E 0 90 40 36
        E 570 80 3b 00
        E 1556 80 28 00
        E 0 80 38 00
        E 3008 90 26 36
        E 0 90 35 36
        E 0 90 52 36
        E 1945 90 32 36
        E 180 80 3d 00
        E 0 80 2c 00
        E 0 80 40 00
        E 1764 90 29 36
        E 0 90 46 36
        E 0 90 4a 36
        E 181 80 26 00
        E 1764 90 2b 36
        E 0 90 4b 36
        E 181 80 35 00
        E 0 80 52 00
        E 0 80 32 00
        E 1764 90 22 36
        E 0 90 3f 36
        E 180 80 29 00
        E 0 80 4a 00
        E 1764 90 29 36
        E 0 90 3e 36
        E 181 80 46 00
        E 0 80 4b 00
        E 1944 80 3f 00
        E 1382 90 21 34
        E 735 90 28 34
        E 0 90 3c 34
        E 735 90 23 34
        E 0 90 37 34
        E 655 80 2b 00
        E 0 80 22 00
        E 80 90 26 34
        E 0 90 36 34
        E 655 80 29 00
        E 0 80 3e 00
        E 80 90 2a 36
        E 0 90 32 36
        E 0 90 53 36
        E 655 80 21 00
        E 0 80 3c 00
        E 594 90 2c 36
        E 0 90 33 36
        E 141 80 28 00
        E 0 80 37 00
        E 735 80 23 00
        E 0 80 26 00
        E 0 80 36 00
        E 1250 80 32 00
        E 1249 80 2c 00
        E 3029 90 2c 36
        E 1953 90 23 36
        E 0 90 4b 36
        E 173 80 2a 00
        E 1779 90 25 36
        E 0 90 4c 36
        E 173 80 53 00
        E 0 80 33 00
        E 1953 80 4b 00
        E 1395 90 40 36
        E 557 80 25 00
        E 1568 80 4c 00
        E 3050 90 25 36
        E 1960 90 34 36
        E 0 90 55 36
        E 165 80 23 00
        E 1796 90 2d 36
        E 0 90 36 36
        E 165 80 40 00
        E 0 80 25 00
        E 1960 80 2c 00
        E 1409 90 28 36
        E 0 90 31 36
        E 0 90 51 36
        E 551 80 36 00
        E 1575 80 34 00
        E 0 80 55 00
        E 0 80 2d 00
        E 3070 91 32 33
        E 0 92 2a 33
        E 292 90 53 33
        E 0 92 2b 33
        E 159 80 51 00
        E 0 82 2a 00
        E 133 90 54 33
        E 0 91 34 33
        E 159 81 32 00
        E 0 80 53 00
        E 132 91 35 33
        E 0 92 2d 33
        E 160 82 2b 00
        E 0 81 34 00
        E 1091 80 28 00
        E 0 80 31 00
        E 1443 91 33 33
        E 0 92 2c 33
        E 2126 82 2d 00
        E 1107 90 53 34
        E 0 92 2a 34
        E 908 91 3f 34
        E 309 81 35 00
        E 908 80 54 00
        E 400 90 51 36
        E 0 91 3e 36
        E 508 81 33 00
        E 202 90 47 36
        E 0 91 32 36
        E 706 82 2c 00
        E 3 90 45 3b
        E 554 91 30 3b
        E 0 92 29 3b
        E 153 80 53 00
        E 0 81 3f 00
        E 709 81 3e 00
        E 670 91 38 3b
        E 0 92 27 3b
        E 422 90 3b 3b
        E 0 92 33 3b
        E 172 82 2a 00
        E 251 90 53 3b
        E 0 91 4b 3b
        E 0 92 2c 3b
        E 303 80 45 00
        E 0 81 30 00
        E 120 91 4c 3b
        E 338 90 34 3b
        E 0 91 2f 3b
        E 519 80 51 00
        E 0 81 32 00
        E 0 82 29 00
        E 423 80 47 00
        E 0 82 27 00
        E 243 90 5e 36
        E 0 91 4a 36
        E 0 92 29 36
        E 180 81 38 00
        E 0 80 3b 00
        E 0 82 33 00
        E 336 90 56 36
        E 0 91 52 36
        E 86 81 4b 00
        E 339 80 53 00
        E 0 81 4c 00
        E 92 90 3e 36
        E 0 91 29 36
        E 0 92 22 36
        E 516 90 3c 36
        E 0 91 2b 36
        E 0 92 27 36
        E 516 90 48 36
        E 61 82 2c 00
        E 0 80 34 00
        E 0 81 2f 00
        E 455 91 2c 36
        E 61 80 5e 00
        E 0 81 4a 00
        E 516 80 56 00
        E 0 81 52 00
        E 354 90 54 36
        E 0 91 33 36
        E 0 92 2c 36
        E 162 80 3e 00
        E 0 81 29 00
        E 0 82 22 00
        E 516 80 3c 00
        E 516 81 2b 00
        E 174 90 4a 36
        E 0 91 3b 36
        E 0 92 2a 36
        E 343 82 29 00
        E 71 90 56 36
        E 0 91 2f 36
        E 343 82 27 00
        E 0 80 48 00
        E 0 81 2c 00
        E 72 90 47 36
        E 0 91 32 36
        E 415 91 34 36
        E 0 92 2b 36
        E 414 90 2f 36
        E 0 91 2b 36
        E 0 92 28 36
        E 415 92 26 3b
        E 52 80 54 00
        E 0 81 33 00
        E 0 82 2c 00
        E 362 90 2e 3b
        E 0 91 29 3b
        E 53 80 4a 00
        E 0 81 3b 00
        E 362 90 32 3b
        E 0 91 2e 3b
        E 52 80 56 00
        E 0 81 2f 00
        E 415 82 2a 00
        E 0 81 32 00
        E 264 90 61 3b
        E 0 91 40 3b
        E 0 92 2c 3b
        E 151 80 47 00
        E 0 81 34 00
        E 165 90 55 3b
        E 0 91 4c 3b
        E 249 82 28 00
        E 68 90 34 3b
        E 0 91 2c 3b
        E 0 92 25 3b
        E 316 91 2d 3b
        E 31 80 2f 00
        E 0 81 2b 00
        E 222 91 45 3b
        E 0 92 34 3b
        E 192 82 26 00
        E 0 80 2e 00
        E 0 81 29 00
        E 731 82 2b 00
        E 0 80 32 00
        E 0 81 2e 00
        E 317 80 61 00
        E 0 81 40 00
        E 249 90 46 34
        E 0 91 3f 34
        E 0 92 2b 34
        E 67 82 2c 00
        E 0 81 4c 00
        E 316 81 2c 00
        E 221 90 4b 34
        E 0 91 3a 34
        E 32 80 34 00
        E 0 82 25 00
        E 0 81 2d 00
        E 571 90 52 34
        E 0 91 2b 34
        E 0 92 27 34
        E 603 90 5f 34
        E 0 91 32 34
        E 0 92 2a 34
        E 316 80 55 00
        E 0 81 45 00
        E 0 82 34 00
        E 288 90 53 34
        E 0 91 3e 34
        E 315 80 46 00
        E 0 81 3f 00
        E 288 90 2a 34
        E 0 91 26 34
        E 0 92 23 34
        E 315 82 2b 00
        E 0 80 4b 00
        E 0 81 3a 00
        E 288 90 2b 34
        E 0 91 28 34
        E 316 80 52 00
        E 0 81 2b 00
        E 0 82 27 00
        E 288 90 58 34
        E 0 91 53 34
        E 0 92 37 34
        E 315 80 5f 00
        E 0 81 32 00
        E 288 91 54 34
        E 0 92 39 34
        E 315 82 2a 00
        E 0 80 53 00
        E 0 81 3e 00
        E 604 80 2a 00
        E 0 81 26 00
        E 169 90 59 33
        E 228 91 56 33
        E 0 92 3a 33
        E 206 82 23 00
        E 0 80 2b 00
        E 0 81 28 00
        E 22 90 5b 33
        E 0 91 57 33
        E 228 90 5c 33
        E 0 92 3c 33
        E 228 90 54 34
        E 0 91 44 34
        E 0 92 27 34
        E 125 81 53 00
        E 263 90 53 34
        E 0 91 42 34
        E 825 80 58 00
        E 0 82 37 00
        E 228 81 54 00
        E 0 82 39 00
        E 228 80 59 00
        E 0 81 56 00
        E 228 82 3a 00
        E 0 80 5b 00
        E 228 81 57 00
        E 0 80 5c 00
        E 0 82 3c 00
        E 388 80 54 00
        E 467 90 57 34
        E 0 91 47 34
        E 0 92 36 34
        E 606 90 55 34
        E 0 91 46 34
        E 914 81 44 00
        E 178 91 52 34
        E 427 82 27 00
        E 0 80 53 00
        E 0 81 42 00
        E 606 81 47 00
        E 1092 81 46 00
        E 697 91 50 34
        E 0 92 35 34
        E 909 80 57 00
        E 188 90 49 34
        E 0 91 46 34
        E 1028 82 36 00
        E 584 90 47 34
        E 0 91 3e 34
        E 0 92 2b 34
        E 24 81 50 00
        E 464 90 4a 34
        E 0 91 3b 34
        E 25 80 55 00
        E 0 81 52 00
        E 464 90 62 34
        E 0 91 53 34
        E 0 92 37 34
        E 488 90 60 34
        E 0 91 58 34
        E 488 90 58 34
        E 0 91 37 34
        E 0 92 24 34
        E 172 82 35 00
        E 0 80 49 00
        E 0 81 46 00
        E 317 91 39 36
        E 171 80 47 00
        E 0 81 3e 00
        E 317 90 5a 36
        E 0 92 25 36
        E 172 82 2b 00
        E 0 80 4a 00
        E 0 81 3b 00
        E 317 90 49 36
        E 0 91 34 36
        E 0 92 21 36
        E 171 80 62 00
        E 0 81 53 00
        E 317 91 36 3b
        E 172 82 37 00
        E 0 80 60 00
        E 0 81 58 00
        E 210 90 4b 3b
        E 0 92 22 3b
        E 278 81 37 00
        E 104 90 55 3b
        E 0 92 2e 3b
        E 385 80 58 00
        E 0 82 24 00
        E 287 90 60 3b
        E 0 91 2b 3b
        E 0 92 28 3b
        E 201 81 39 00
        E 0 80 5a 00
        E 0 82 25 00
        E 91 90 54 3b
        E 0 92 2b 3b
        E 291 90 43 3b
        E 0 91 28 3b
        E 0 92 24 3b
        E 291 90 45 3b
        E 0 91 29 3b
        E 0 92 26 3b
        E 197 80 49 00
        E 0 82 21 00
        E 36 90 51 3b
        E 0 91 3e 3b
        E 0 92 35 3b
        E 346 80 4b 00
        E 0 82 22 00
        E 470 90 47 36
        E 0 91 33 36
        E 0 92 2c 36
        E 203 81 36 00
        E 0 80 55 00
        E 0 82 2e 00
        E 152 90 3f 36
        E 0 91 3b 36
        E 139 80 60 00
        E 0 81 2b 00
        E 0 82 28 00
        E 216 90 53 36
        E 0 91 44 36
        E 0 92 27 36
        E 75 81 34 00
        E 0 80 54 00
        E 0 82 2b 00
        E 281 92 28 36
        E 10 80 43 00
        E 0 81 28 00
        E 0 82 24 00
        E 233 80 45 00
        E 0 81 29 00
        E 0 82 26 00
        E 112 90 4c 36
        E 0 91 38 36
        E 0 92 2f 36
        E 356 90 4b 36
        E 0 91 36 36
        E 348 80 51 00
        E 0 81 3e 00
        E 0 82 35 00
        E 293 90 57 36
        E 62 80 47 00
        E 0 81 33 00
        E 356 82 2c 00
        E 0 80 3f 00
        E 0 81 3b 00
        E 355 82 27 00
        E 169 90 41 36
        E 0 91 24 36
        E 0 92 21 36
        E 187 80 53 00
        E 0 81 44 00
        E 0 82 28 00
        E 98 90 5d 36
        E 0 91 30 36
        E 0 92 29 36
        E 257 80 4c 00
        E 29 90 54 36
        E 0 91 35 36
        E 0 92 2d 36
        E 285 90 56 36
        E 0 92 2e 36
        E 41 81 36 00
        E 245 90 46 36
        E 0 92 32 36
        E 41 80 4b 00
        E 244 91 37 3b
        E 286 90 47 3b
        E 0 92 34 3b
        E 285 90 53 3b
        E 0 91 3e 3b
        E 0 92 37 3b
        E 127 81 38 00
        E 0 82 2f 00
        E 0 80 57 00
        E 286 80 41 00
        E 0 81 24 00
        E 0 82 21 00
        E 90 90 44 3b
        E 0 91 3d 3b
        E 195 80 5d 00
        E 0 81 30 00
        E 23 90 31 3b
        E 0 91 2c 3b
        E 218 90 4d 3b
        E 0 91 49 3b
        E 0 92 38 3b
        E 44 80 54 00
        E 0 82 2d 00
        E 174 90 4e 3b
        E 0 91 4b 3b
        E 0 92 3a 3b
        E 112 80 56 00
        E 0 82 2e 00
        E 62 90 3f 3b
        E 0 91 36 3b
        E 0 92 2e 3b
        E 223 81 35 00
        E 286 80 46 00
        E 0 82 32 00
        E 285 81 37 00
        E 0 80 47 00
        E 0 82 34 00
        E 504 80 53 00
        E 0 81 3e 00
        E 0 82 37 00
        E 217 80 44 00
        E 0 81 3d 00
        E 160 90 5d 33
        E 0 91 48 33
        E 0 92 34 33
        E 58 82 29 00
        E 0 80 31 00
        E 0 81 2c 00
        E 218 80 4d 00
        E 0 81 49 00
        E 0 82 38 00
        E 174 80 4e 00
        E 0 81 4b 00
        E 0 82 3a 00
        E 199 90 54 33
        E 0 91 51 33
        E 649 90 3c 33
        E 0 91 34 33
        E 0 92 21 33
        E 649 90 57 33
        E 0 91 3b 33
        E 0 92 36 33
        E 178 80 3f 00
        E 0 81 36 00
        E 0 82 2e 00
        E 471 90 42 33
        E 0 91 2f 33
        E 0 92 27 33
        E 178 80 5d 00
        E 0 81 48 00
        E 471 90 47 33
        E 0 91 3f 33
        E 178 82 34 00
        E 0 80 54 00
        E 0 81 51 00
        E 471 91 40 33
        E 0 92 38 33
        E 178 80 3c 00
        E 0 81 34 00
        E 0 82 21 00
        E 471 90 38 33
        E 0 91 34 33
        E 0 92 2f 33
        E 178 80 57 00
        E 0 81 3b 00
        E 472 90 36 33
        E 0 91 33 33
        E 178 80 42 00
        E 0 81 2f 00
        E 0 82 27 00
        E 649 82 36 00
        E 0 81 3f 00
        E 343 92 2e 32
        E 245 90 35 32
        E 0 91 31 32
        E 61 80 47 00
        E 0 81 40 00
        E 0 82 38 00
        E 185 91 30 32
        E 0 92 2c 32
        E 245 90 33 32
        E 0 92 2b 32
        E 219 81 34 00
        E 26 90 37 33
        E 0 92 24 33
        E 417 90 39 33
        E 0 91 34 33
        E 727 80 38 00
        E 0 82 2f 00
        E 246 80 36 00
        E 245 82 2e 00
        E 0 81 31 00
        E 245 80 35 00
        E 0 82 2c 00
        E 246 81 30 00
        E 0 80 33 00
        E 0 82 2b 00
        E 417 81 33 00
        E 12 90 57 33
        E 0 91 36 33
        E 0 92 22 33
        E 405 80 39 00
        E 247 90 5e 33
        E 0 91 57 33
        E 0 92 36 33
        E 651 90 3f 33
        E 0 92 2e 33
        E 652 91 38 33
        E 0 92 2f 33
        E 170 80 37 00
        E 0 82 24 00
        E 0 81 34 00
        E 482 90 53 33
        E 0 92 33 33
        E 170 80 57 00
        E 0 82 22 00
        E 482 90 55 33
        E 0 92 34 33
        E 170 80 5e 00
        E 0 81 57 00
        E 0 82 36 00
        E 651 81 36 00
        E 0 82 2e 00
        E 354 91 39 32
        E 246 90 56 32
        E 0 92 36 32
        E 52 80 3f 00
        E 0 82 2f 00
        E 194 91 3b 32
        E 0 92 37 32
        E 247 90 58 32
        E 0 91 3c 32
        E 211 82 33 00
        E 35 90 48 33
        E 0 91 37 33
        E 0 92 28 33
        E 419 90 46 33
        E 0 92 27 33
        E 721 81 38 00
        E 0 80 53 00
        E 246 80 55 00
        E 0 82 34 00
        E 247 81 39 00
        E 0 82 36 00
        E 246 80 56 00
        E 0 81 3b 00
        E 246 82 37 00
        E 0 80 58 00
        E 0 81 3c 00
        E 419 82 28 00
        E 675 90 52 33
        E 655 91 35 33
        E 0 92 26 33
        E 816 80 48 00
        E 655 80 46 00
        E 654 82 27 00
        E 654 81 35 00
        E 135 91 35 33
        E 657 90 62 33
        E 0 91 46 33
        E 0 92 29 33
        E 657 90 60 33
        E 0 91 45 33
        E 811 81 37 00
        E 373 91 51 33
        E 284 80 52 00
        E 0 82 26 00
        E 0 81 35 00
        E 657 81 46 00
        E 657 80 60 00
        E 144 90 4b 33
        E 0 91 3b 33
        E 0 92 36 33
        E 384 81 45 00
        E 275 90 57 33
        E 0 91 36 33
        E 0 92 2f 33
        E 660 90 47 33
        E 0 92 33 33
        E 659 91 38 33
        E 0 92 34 33
        E 147 80 62 00
        E 0 82 29 00
        E 0 81 51 00
        E 513 90 38 33
        E 0 91 2f 33
        E 0 92 28 33
        E 147 80 4b 00
        E 0 81 3b 00
        E 0 82 36 00
        E 513 90 36 33
        E 0 92 27 33
        E 146 80 57 00
        E 0 82 2f 00
        E 660 81 36 00
        E 0 82 33 00
        E 383 91 2e 32
        E 249 90 35 32
        E 0 92 25 32
        E 27 80 47 00
        E 0 81 38 00
        E 0 82 34 00
        E 223 91 2c 32
        E 0 92 24 32
        E 249 90 33 32
        E 0 91 2b 32
        E 188 82 28 00
        E 61 90 37 33
        E 0 91 27 33
        E 424 90 39 33
        E 0 91 28 33
        E 704 80 38 00
        E 0 81 2f 00
        E 250 80 36 00
        E 0 82 27 00
        E 249 81 2e 00
        E 0 82 25 00
        E 249 80 35 00
        E 0 81 2c 00
        E 250 80 33 00
        E 0 81 2b 00
        E 423 81 27 00
        E 709 90 60 33
        E 0 92 21 33
        E 663 90 62 33
        E 0 91 29 33
        E 801 80 37 00
        E 393 90 35 33
        E 0 91 2d 33
        E 269 80 39 00
        E 662 81 28 00
        E 662 80 62 00
        E 162 92 26 33
        E 370 80 60 00
        E 0 82 21 00
        E 0 81 29 00
        E 295 90 62 33
        E 0 92 29 33
        E 665 91 2e 33
        E 0 92 2b 33
        E 795 82 24 00
        E 404 91 29 33
        E 0 92 22 33
        E 261 80 35 00
        E 0 82 26 00
        E 665 81 2d 00
        E 665 82 2b 00
        E 171 90 61 33
        E 0 91 40 33
        E 0 92 38 33
        E 363 82 29 00
        E 0 81 2e 00
        E 171 90 55 33
        E 0 91 4c 33
        E 534 90 38 33
        E 0 91 34 33
        E 0 92 25 33
        E 534 90 39 33
        E 0 91 36 33
        E 524 80 62 00
        E 0 81 29 00
        E 0 82 22 00
        E 10 91 51 33
        E 0 92 2a 33
        E 524 81 40 00
        E 11 92 28 34
        E 523 82 38 00
        E 0 80 55 00
        E 0 81 4c 00
        E 11 90 60 34
        E 0 91 4f 34
        E 523 80 38 00
        E 0 81 34 00
        E 11 90 54 34
        E 0 91 45 34
        E 523 82 25 00
        E 0 80 39 00
        E 0 81 36 00
        E 11 91 43 36
        E 417 90 52 36
        E 0 92 27 36
        E 106 82 2a 00
        E 311 90 57 36
        E 0 91 48 36
        E 0 92 2b 36
        E 223 80 61 00
        E 0 81 51 00
        E 194 91 46 3b
        E 326 90 55 3b
        E 0 92 2a 3b
        E 14 80 60 00
        E 0 81 4f 00
        E 312 91 52 3b
        E 222 81 45 00
        E 353 90 39 3b
        E 0 91 34 3b
        E 0 92 30 3b
        E 64 82 28 00
        E 0 80 54 00
        E 185 90 3c 3b
        E 0 92 2d 3b
        E 232 81 43 00
        E 0 80 52 00
        E 0 82 27 00
        E 16 90 60 3b
        E 0 91 45 3b
        E 0 92 28 3b
        E 249 92 29 3b
        E 153 81 48 00
        E 46 91 2d 3b
        E 280 82 2b 00
        E 326 81 46 00
        E 0 80 55 00
        E 91 90 5f 36
        E 0 91 36 36
        E 0 92 33 36
        E 303 90 53 36
        E 0 91 3f 36
        E 0 92 36 36
        E 180 80 57 00
        E 0 82 2a 00
        E 0 81 52 00
        E 124 90 36 36
        E 0 91 27 36
        E 0 92 23 36
        E 125 80 39 00
        E 0 82 30 00
        E 178 90 38 36
        E 0 91 28 36
        E 0 92 25 36
        E 71 81 34 00
        E 0 80 3c 00
        E 0 82 2d 00
        E 233 90 4c 36
        E 0 91 49 36
        E 0 92 2c 36
        E 15 82 28 00
        E 199 81 45 00
        E 90 90 4e 36
        E 0 92 2d 36
        E 547 90 49 36
        E 0 91 45 36
        E 0 92 28 36
        E 60 80 60 00
        E 0 82 29 00
        E 0 81 2d 00
        E 304 80 5f 00
        E 0 81 36 00
        E 0 82 33 00
        E 303 80 53 00
        E 0 81 3f 00
        E 0 82 36 00
        E 138 90 3c 36
        E 0 91 37 36
        E 0 92 33 36
        E 166 80 36 00
        E 0 81 27 00
        E 0 82 23 00
        E 78 90 3f 36
        E 0 92 30 36
        E 225 80 38 00
        E 0 81 28 00
        E 0 82 25 00
        E 18 90 57 36
        E 0 91 48 36
        E 0 92 2b 36
        E 244 90 59 36
        E 244 90 4d 36
        E 0 91 30 36
        E 102 80 4e 00
        E 142 90 4b 3b
        E 101 80 4c 00
        E 0 81 49 00
        E 0 82 2d 00
        E 143 91 2f 3b
        E 0 92 2a 3b
        E 662 80 49 00
        E 0 81 45 00
        E 0 82 28 00
        E 11 90 35 3b
        E 0 91 26 3b
        E 0 92 21 3b
        E 186 90 5d 3b
        E 0 91 35 3b
        E 0 92 26 3b
        E 47 80 3c 00
        E 0 82 33 00
        E 139 90 56 3b
        E 0 91 2d 3b
        E 0 92 29 3b
        E 105 81 37 00
        E 0 80 3f 00
        E 0 82 30 00
        E 81 91 2e 3b
        E 149 90 46 3b
        E 0 91 3e 3b
        E 13 82 2b 00
        E 244 81 48 00
        E 0 80 59 00
        E 244 80 4d 00
        E 244 81 30 00
        E 131 90 47 34
        E 0 91 38 34
        E 0 92 28 34
        E 113 80 4b 00
        E 0 82 2a 00
        E 242 90 3b 34
        E 0 92 34 34
        E 188 82 2c 00
        E 0 80 57 00
        E 0 81 2f 00
        E 167 90 53 34
        E 0 91 4c 34
        E 0 92 2c 34
        E 19 80 35 00
        E 0 81 26 00
        E 0 82 21 00
        E 186 80 5d 00
        E 0 81 35 00
        E 0 82 26 00
        E 150 90 60 34
        E 0 91 57 34
        E 0 92 2b 34
        E 36 81 2d 00
        E 149 80 56 00
        E 0 81 2e 00
        E 170 90 54 34
        E 0 91 37 34
        E 0 92 27 34
        E 354 90 4b 34
        E 0 91 2b 34
        E 0 92 24 34
        E 352 82 29 00
        E 0 80 46 00
        E 0 81 3e 00
        E 3 90 4d 34
        E 0 91 2c 34
        E 352 80 47 00
        E 0 82 28 00
        E 3 91 35 34
        E 351 81 38 00
        E 0 80 3b 00
        E 0 82 34 00
        E 4 90 55 34
        E 0 92 2e 34
        E 351 80 53 00
        E 0 81 4c 00
        E 289 91 36 33
        E 66 80 60 00
        E 0 81 57 00
        E 0 82 2b 00
        E 68 90 57 33
        E 0 92 2f 33
        E 134 90 58 33
        E 0 91 38 33
        E 134 91 39 33
        E 0 92 31 33
        E 19 81 37 00
        E 0 82 27 00
        E 115 90 45 34
        E 0 91 31 34
        E 0 92 28 34
        E 228 90 43 34
        E 0 91 30 34
        E 12 80 4b 00
        E 0 81 2b 00
        E 354 82 24 00
        E 0 80 4d 00
        E 0 81 2c 00
        E 355 80 54 00
        E 640 82 2c 00
        E 0 81 35 00
        E 134 80 55 00
        E 0 82 2e 00
        E 30 90 48 34
        E 0 91 34 34
        E 0 92 2b 34
        E 104 81 36 00
        E 0 80 57 00
        E 134 82 2f 00
        E 0 81 38 00
        E 118 90 47 34
        E 0 91 32 34
        E 17 80 58 00
        E 0 81 39 00
        E 0 82 31 00
        E 228 81 31 00
        E 398 90 53 34
        E 770 80 45 00
        E 356 82 28 00
        E 0 80 43 00
        E 0 81 30 00
        E 176 91 3e 34
        E 181 80 48 00
        E 176 90 51 34
        E 0 92 2a 34
        E 466 80 47 00
        E 179 90 47 34
        E 765 81 34 00
        E 183 90 48 34
        E 0 91 38 34
        E 0 92 27 34
        E 288 90 3c 34
        E 0 92 33 34
        E 245 82 2b 00
        E 42 90 54 34
        E 0 91 4b 34
        E 0 92 2c 34
        E 287 90 55 34
        E 0 91 4d 34
        E 28 80 51 00
        E 260 90 35 34
        E 0 91 2c 34
        E 0 92 25 34
        E 28 80 53 00
        E 0 81 3e 00
        E 259 91 2e 36
        E 287 90 37 36
        E 0 92 26 36
        E 287 90 32 36
        E 0 91 29 36
        E 0 92 22 36
        E 115 81 32 00
        E 0 82 2a 00
        E 0 80 47 00
        E 173 91 2b 3b
        E 114 80 48 00
        E 0 82 27 00
        E 110 90 34 3b
        E 0 92 23 3b
        E 177 81 38 00
        E 0 80 3c 00
        E 0 82 33 00
        E 48 90 3e 3b
        E 0 91 2f 3b
        E 0 92 2b 3b
        E 240 80 54 00
        E 0 81 4b 00
        E 155 90 61 3b
        E 132 80 55 00
        E 40 90 59 3b
        E 0 91 55 3b
        E 171 90 41 3b
        E 171 90 3f 3b
        E 0 91 2a 3b
        E 137 90 52 3b
        E 0 92 27 3b
        E 55 80 35 00
        E 288 81 2e 00
        E 0 80 37 00
        E 0 82 26 00
        E 137 90 48 36
        E 0 91 39 36
        E 0 92 28 36
        E 150 81 29 00
        E 59 90 54 36
        E 0 91 2d 36
        E 165 80 32 00
        E 44 90 45 36
        E 0 91 30 36
        E 181 81 2b 00
        E 0 80 34 00
        E 0 82 23 00
        E 28 92 29 36
        E 209 90 30 36
        E 159 80 3e 00
        E 0 81 2f 00
        E 0 82 2b 00
        E 50 91 2b 36
        E 121 81 4d 00
        E 0 80 61 00
        E 171 82 2c 00
        E 0 80 59 00
        E 0 81 55 00
        E 85 90 28 36
        E 0 91 24 36
        E 0 92 21 36
        E 86 81 2c 00
        E 0 82 25 00
        E 0 80 41 00
        E 137 82 22 00
        E 0 80 3f 00
        E 331 90 55 36
        E 0 92 22 36
        E 149 80 52 00
        E 0 82 27 00
        E 19 90 5e 36
        E 0 91 55 36
        E 0 92 2a 36
        E 168 90 3d 36
        E 0 91 2e 36
        E 22 80 48 00
        E 0 81 39 00
        E 146 90 3f 36
        E 0 91 2f 36
        E 63 80 54 00
        E 105 90 47 36
        E 0 91 42 36
        E 0 92 27 36
        E 167 91 44 3b
        E 146 80 45 00
        E 0 81 30 00
        E 22 90 48 3b
        E 168 90 54 3b
        E 0 92 33 3b
        E 228 81 2b 00
        E 68 90 45 3b
        E 0 91 3e 3b
        E 100 82 28 00
        E 0 81 2d 00
        E 0 80 30 00
        E 28 90 4a 3b
        E 0 91 39 3b
        E 128 90 51 3b
        E 0 92 26 3b
        E 129 90 53 3b
        E 0 91 2b 3b
        E 0 92 28 3b
        E 102 90 43 3b
        E 167 80 28 00
        E 0 81 24 00
        E 0 82 21 00
        E 168 80 55 00
        E 0 82 22 00
        E 168 80 5e 00
        E 0 81 55 00
        E 168 80 3d 00
        E 0 81 2e 00
        E 168 80 3f 00
        E 168 81 42 00
        E 168 80 47 00
        E 0 82 27 00
        E 168 82 29 00
        E 0 80 48 00
        E 239 90 42 32
        E 57 81 44 00
        E 0 80 54 00
        E 0 82 33 00
        E 128 80 45 00
        E 0 81 3e 00
        E 95 91 2d 32
        E 0 92 25 32
        E 33 82 2a 00
        E 0 80 4a 00
        E 0 81 39 00
        E 128 81 2a 00
        E 0 80 51 00
        E 102 80 53 00
        E 0 81 2b 00
        E 18 90 40 32
        E 0 91 2c 32
        E 281 90 3f 32
        E 0 92 23 32
        E 280 91 2a 32
        E 0 92 22 32
        E 281 90 3d 32
        E 0 91 29 32
        E 722 82 28 00
        E 0 80 43 00
        E 281 81 2f 00
        E 0 82 26 00
        E 280 80 42 00
        E 0 81 2d 00
        E 281 82 25 00
        E 0 80 40 00
        E 281 81 2c 00
        E 0 82 23 00
        E 280 80 3f 00
        E 0 81 2a 00
        E 2667 82 22 00
        E 0 80 3d 00
        E 0 81 29 00
        E 0 b0 7b 00
        CCINTERP 32
        CHASE_CC_TAKEOFFS 1
        GUID {67FF2DB4-F974-614A-B1FF-C5AEDAE9D341}
        IGNTEMPO 0 120 4 4
        SRCCOLOR 25
        VELLANE -1 100 0 0 1
      >
    >
    <ITEM
      POSITION 0
      SNAPOFFS 0
      LENGTH 4
      LOOP 1
      ALLTAKES 0
      FADEIN 1 0 0 1 0 0 0
      FADEOUT 1 0 0 1 0 0 0
      MUTE 0 0
      SEL 0
      IGUID {D1D45323-11F6-5B4D-A141-70BBDFCA655A}
      IID 29
      NAME ""
      VOLPAN 1 0 1 -1
      SOFFS 0 0
      PLAYRATE 1 1 0 -1 0 0.0025
      CHANMODE 0
      GUID {2FD109F2-049B-604F-99E3-1CC19AA13715}
      <SOURCE MIDI
        HASDATA 1 960 QN
        CCINTERP 32
        POOLEDEVTS {718B7F91-1C43-B844-AABD-3443AAE069D7}
        E 29 90 21 32
        E 0 91 25 32
        E 0 92 28 32
        E 2363 80 21 00
        E 0 81 25 00
        E 0 82 28 00
        E 0 90 2b 32
        E 0 91 54 32
        E 0 92 57 32
        E 1181 80 2b 00
        E 0 81 54 00
        E 0 82 57 00
        E 0 90 27 32
        E 0 91 37 32
        E 0 92 48 32
        E 1181 80 27 00
        E 0 81 37 00
        E 0 82 48 00
        E 0 90 2b 32
        E 0 91 3f 32
        E 0 92 60 32
        E 1181 80 2b 00
        E 0 81 3f 00
        E 0 90 2c 32
        E 0 91 41 32
        E 1182 82 60 00
        E 0 81 41 00
        E 0 91 35 32
        E 0 92 48 32
        E 1181 80 2c 00
        E 0 82 48 00
        E 0 90 2e 32
        E 0 92 49 32
        E 1181 80 2e 00
        E 0 90 2c 32
        E 949 81 35 00
        E 0 80 2c 00
        E 0 90 2e 32
        E 0 91 36 32
        E 446 82 49 00
        E 0 80 2e 00
        E 0 90 2f 32
        E 0 92 4b 32
        E 447 81 36 00
        E 0 82 4b 00
        E 0 91 38 32
        E 0 92 4c 32
        E 446 80 2f 00
        E 0 81 38 00
        E 0 90 31 32
        E 0 91 39 32
        E 447 82 4c 00
        E 0 80 31 00
        E 0 81 39 00
        E 0 90 28 32
        E 0 91 31 32
        E 0 92 39 32
        E 759 91 30 32
        E 0 92 37 32
        E 759 92 45 32
        E 759 91 3c 32
        E 845 81 31 00
        E 0 82 39 00
        E 759 82 37 00
        E 759 81 30 00
        E 9 90 36 32
        E 0 91 3a 32
        E 0 92 3d 32
        E 1186 90 2e 32
        E 0 91 36 32
        E 0 92 49 32
        E 1177 80 28 00
        E 0 82 45 00
        E 0 81 3c 00
        E 9 90 25 32
        E 0 92 46 32
        E 1177 80 36 00
        E 0 81 3a 00
        E 0 82 3d 00
        E 9 90 27 32
        E 0 92 47 32
        E 1177 80 2e 00
        E 0 82 49 00
        E 9 90 2a 32
        E 0 91 4b 32
        E 0 92 5f 32
        E 1177 80 25 00
        E 0 82 46 00
        E 9 91 49 32
        E 0 92 5e 32
        E 1177 81 36 00
        E 0 80 27 00
        E 0 82 47 00
        E 962 90 29 32
        E 224 82 5f 00
        E 224 91 48 32
        E 0 92 5c 32
        E 448 90 27 32
        E 0 92 5b 32
        E 449 90 26 32
        E 0 91 46 32
        E 448 90 22 32
        E 0 91 2b 32
        E 0 92 62 32
        E 569 80 2a 00
        E 0 81 4b 00
        E 193 90 28 32
        E 0 92 5f 32
        E 256 81 49 00
        E 0 82 5e 00
        E 448 80 29 00
        E 0 82 5c 00
        E 58 90 2b 32
        E 0 91 2f 32
        E 390 81 48 00
        E 0 80 27 00
        E 372 92 37 32
        E 76 82 5b 00
        E 0 81 46 00
        E 763 80 22 00
        E 762 81 2b 00
        E 0 80 28 00
        E 0 82 5f 00
        E 762 82 62 00
        E 0 80 2b 00
        E 19 90 35 32
        E 0 91 49 32
        E 0 92 52 32
        E 1191 91 46 32
        E 0 92 55 32
        E 1171 80 26 00
        E 0 81 2f 00
        E 0 82 37 00
        E 19 90 31 32
        E 0 91 35 32
        E 0 92 5e 32
        E 1172 81 49 00
        E 0 82 52 00
        E 19 90 33 32
        E 0 91 36 32
        E 1172 80 35 00
        E 0 81 46 00
        E 0 82 55 00
        E 19 92 46 32
        E 1172 80 31 00
        E 0 81 35 00
        E 19 91 38 32
        E 0 92 47 32
        E 1171 82 5e 00
        E 976 90 34 32
        E 215 82 46 00
        E 235 91 39 32
        E 0 92 49 32
        E 450 90 36 32
        E 0 92 4a 32
        E 450 90 37 32
        E 0 91 3b 32
        E 450 90 32 32
        E 0 91 37 32
        E 562 80 33 00
        E 0 81 36 00
        E 203 91 35 32
        E 0 92 46 32
        E 247 81 38 00
        E 451 80 34 00
        E 0 82 49 00
        E 67 92 52 32
        E 383 81 39 00
        E 0 80 36 00
        E 383 91 3e 32
        E 67 82 4a 00
        E 0 81 3b 00
        E 765 82 47 00
        E 765 81 35 00
        E 0 82 46 00
        E 765 80 32 00
        E 0 81 37 00
        E 29 90 2c 32
        E 0 91 34 32
        E 0 92 3b 32
        E 1195 91 2f 32
        E 0 92 40 32
        E 1167 80 37 00
        E 0 82 52 00
        E 0 81 3e 00
        E 29 90 28 32
        E 0 91 44 32
        E 0 92 47 32
        E 1167 81 34 00
        E 0 82 3b 00
        E 28 91 45 32
        E 0 92 49 32
        E 1167 80 2c 00
        E 0 81 2f 00
        E 0 82 40 00
        E 29 90 34 32
        E 0 91 3d 32
        E 0 92 5d 32
        E 1167 81 44 00
        E 0 82 47 00
        E 29 91 3b 32
        E 0 92 5c 32
        E 1166 80 28 00
        E 0 81 45 00
        E 0 82 49 00
        E 989 90 33 32
        E 207 82 5d 00
        E 245 91 3a 32
        E 0 92 5a 32
        E 452 90 31 32
        E 0 92 59 32
        E 452 90 30 32
        E 0 91 38 32
        E 452 90 24 32
        E 555 80 34 00
        E 0 81 3d 00
        E 213 90 26 32
        E 0 91 39 32
        E 239 81 3b 00
        E 0 82 5c 00
        E 452 80 33 00
        E 0 82 5a 00
        E 77 90 2d 32
        E 0 91 35 32
        E 0 92 54 32
        E 375 81 3a 00
        E 0 80 31 00
        E 394 92 60 32
        E 57 80 30 00
        E 769 81 38 00
        E 0 80 24 00
        E 768 82 59 00
        E 0 80 26 00
        E 0 81 39 00
        E 768 82 54 00
        E 38 92 62 32
        E 1201 90 21 32
        E 0 91 29 32
        E 0 92 32 32
        E 1162 82 60 00
        E 38 90 22 32
        E 0 91 2b 32
        E 1162 80 2d 00
        E 0 81 35 00
        E 0 82 62 00
        E 1003 90 26 32
        E 0 92 5e 32
        E 198 80 21 00
        E 573 90 29 32
        E 0 91 32 32
        E 627 81 2b 00
        E 964 82 32 00
        E 0 80 22 00
        E 771 81 29 00
        E 0 80 26 00
        E 48 90 2b 32
        E 1205 90 37 32
        E 0 91 3e 32
        E 0 92 46 32
        E 1158 80 29 00
        E 48 91 3f 32
        E 0 92 48 32
        E 1157 82 5e 00
        E 0 81 32 00
        E 0 80 2b 00
        E 1205 81 3e 00
        E 585 91 46 32
        E 0 92 4b 32
        E 620 82 48 00
        E 1743 82 46 00
        E 0 81 3f 00
        E 57 90 25 32
        E 0 91 36 32
        E 0 92 5d 32
        E 1210 90 31 32
        E 0 92 51 32
        E 1153 80 37 00
        E 0 81 46 00
        E 0 82 4b 00
        E 57 90 21 32
        E 0 91 2a 32
        E 0 92 61 32
        E 1153 80 25 00
        E 0 82 5d 00
        E 57 90 23 32
        E 0 92 62 32
        E 1153 81 36 00
        E 0 80 31 00
        E 0 82 51 00
        E 57 90 2a 32
        E 0 91 3b 32
        E 0 92 3e 32
        E 1153 80 21 00
        E 0 82 61 00
        E 57 90 2b 32
        E 0 92 40 32
        E 1153 81 2a 00
        E 0 80 23 00
        E 0 82 62 00
        E 1029 91 3c 32
        E 181 80 2a 00
        E 277 90 2d 32
        E 0 92 41 32
        E 457 90 2e 32
        E 0 91 3e 32
        E 457 91 3f 32
        E 0 92 43 32
        E 458 92 46 32
        E 533 81 3b 00
        E 0 82 3e 00
        E 244 90 2a 32
        E 0 91 3d 32
        E 213 82 40 00
        E 457 81 3c 00
        E 0 80 2d 00
        E 108 92 52 32
        E 350 82 41 00
        E 0 81 3e 00
        E 427 91 4b 32
        E 30 80 2e 00
        E 0 82 43 00
        E 778 80 2b 00
        E 777 82 46 00
        E 0 81 3d 00
        E 778 81 3f 00
        E 67 91 49 32
        E 1215 90 25 32
        E 0 91 36 32
        E 0 92 46 32
        E 1147 81 4b 00
        E 68 91 35 32
        E 0 92 44 32
        E 1147 80 2a 00
        E 0 82 52 00
        E 0 81 49 00
        E 1043 90 29 32
        E 0 91 3a 32
        E 0 92 61 32
        E 172 81 36 00
        E 609 92 3a 32
        E 606 82 44 00
        E 976 82 46 00
        E 781 80 29 00
        E 0 81 3a 00
        E 0 82 61 00
        E 77 92 38 32
        E 1219 90 29 32
        E 0 91 2c 32
        E 0 92 61 32
        E 1143 82 3a 00
        E 77 90 27 32
        E 0 92 60 32
        E 1143 80 25 00
        E 0 81 35 00
        E 0 82 38 00
        E 1057 90 24 32
        E 0 92 35 32
        E 163 82 61 00
        E 620 92 41 32
        E 599 80 27 00
        E 980 80 29 00
        E 0 82 60 00
        E 784 82 35 00
        E 87 90 36 32
        E 0 91 39 32
        E 0 92 56 32
        E 1224 90 26 32
        E 0 91 2a 32
        E 0 92 2d 32
        E 1138 81 2c 00
        E 0 80 24 00
        E 0 82 41 00
        E 87 91 3e 32
        E 0 92 45 32
        E 1138 81 39 00
        E 0 82 56 00
        E 87 90 37 32
        E 0 92 47 32
        E 1137 80 26 00
        E 0 81 2a 00
        E 0 82 2d 00
        E 87 90 23 32
        E 0 91 37 32
        E 0 92 3e 32
        E 1138 80 36 00
        E 0 82 45 00
        E 87 90 21 32
        E 0 91 36 32
        E 1138 81 3e 00
        E 0 80 37 00
        E 0 82 47 00
        E 1070 92 3d 32
        E 154 81 37 00
        E 309 90 28 32
        E 0 91 38 32
        E 463 90 27 32
        E 0 92 3b 32
        E 463 92 3a 32
        E 463 90 22 32
        E 0 92 3f 32
        E 511 80 23 00
        E 0 82 3e 00
        E 276 90 24 32
        E 0 91 37 32
        E 187 80 21 00
        E 463 82 3d 00
        E 0 80 28 00
        E 137 90 2e 32
        E 325 81 38 00
        E 0 82 3b 00
        E 462 92 4b 32
        E 1 80 27 00
        E 0 82 3a 00
        E 787 81 36 00
        E 0 80 22 00
        E 787 80 24 00
        E 787 82 3f 00
        E 97 90 2a 32
        E 0 91 3d 32
        E 0 92 5d 32
        E 1229 91 49 32
        E 0 92 51 32
        E 1133 81 37 00
        E 0 80 2e 00
        E 0 82 4b 00
        E 97 90 21 32
        E 0 91 25 32
        E 0 92 42 32
        E 1133 81 3d 00
        E 0 82 5d 00
        E 96 90 23 32
        E 0 91 26 32
        E 1133 80 2a 00
        E 0 81 49 00
        E 0 82 51 00
        E 97 90 36 32
        E 0 91 3b 32
        E 0 92 4a 32
        E 1133 80 21 00
        E 0 81 25 00
        E 97 90 37 32
        E 0 92 4c 32
        E 1133 82 42 00
        E 0 80 23 00
        E 0 81 26 00
        E 1084 91 3c 32
        E 145 80 36 00
        E 319 90 39 32
        E 0 92 4d 32
        E 465 90 3a 32
        E 0 91 3e 32
        E 465 91 3f 32
        E 0 92 4f 32
        E 465 91 46 32
        E 0 92 57 32
        E 503 81 3b 00
        E 0 82 4a 00
        E 287 90 36 32
        E 0 92 55 32
        E 178 82 4c 00
        E 465 81 3c 00
        E 0 80 39 00
        E 147 91 52 32
        E 318 82 4d 00
        E 0 81 3e 00
        E 464 80 3a 00
        E 0 81 3f 00
        E 0 82 4f 00
        E 8 90 27 32
        E 0 91 42 32
        E 0 92 52 32
        E 782 80 37 00
        E 790 81 46 00
        E 0 82 55 00
        E 791 82 57 00
        E 0 80 36 00
        E 0 81 52 00
        E 106 90 25 32
        E 1235 90 2a 32
        E 0 91 3d 32
        E 0 92 46 32
        E 1128 80 27 00
        E 106 90 29 32
        E 0 92 44 32
        E 1128 81 42 00
        E 0 82 52 00
        E 0 80 25 00
        E 1098 91 31 32
        E 0 92 3a 32
        E 137 80 2a 00
        E 656 91 3a 32
        E 0 92 3d 32
        E 578 82 44 00
        E 992 81 3d 00
        E 0 82 46 00
        E 793 81 31 00
        E 0 82 3a 00
        E 116 91 38 32
        E 1240 90 38 32
        E 0 91 41 32
        E 0 92 61 32
        E 1123 81 3a 00
        E 116 91 3f 32
        E 0 92 60 32
        E 1123 80 29 00
        E 0 82 3d 00
        E 0 81 38 00
        E 1112 90 24 32
        E 0 91 38 32
        E 0 92 4d 32
        E 128 82 61 00
        E 669 92 59 32
        E 570 81 3f 00
        E 996 80 38 00
        E 0 81 41 00
        E 0 82 60 00
        E 796 82 4d 00
        E 127 90 26 32
        E 0 91 36 32
        E 0 92 39 32
        E 1244 90 2d 32
        E 0 91 32 32
        E 0 92 36 32
        E 1118 80 24 00
        E 0 81 38 00
        E 0 82 59 00
        E 127 90 2a 32
        E 0 91 45 32
        E 0 92 56 32
        E 1118 80 26 00
        E 0 81 36 00
        E 0 82 39 00
        E 126 90 2b 32
        E 0 91 47 32
        E 1118 80 2d 00
        E 0 81 32 00
        E 0 82 36 00
        E 126 90 23 32
        E 0 91 2b 32
        E 1118 80 2a 00
        E 0 81 45 00
        E 127 90 21 32
        E 0 91 2a 32
        E 1118 80 2b 00
        E 0 81 47 00
        E 1126 92 55 32
        E 118 81 2b 00
        E 352 90 28 32
        E 0 91 2c 32
        E 471 90 27 32
        E 0 92 53 32
        E 470 92 52 32
        E 470 90 22 32
        E 0 92 4b 32
        E 481 82 56 00
        E 0 80 23 00
        E 319 90 24 32
        E 0 91 2b 32
        E 152 80 21 00
        E 470 82 55 00
        E 0 80 28 00
        E 178 90 2b 32
        E 0 91 2e 32
        E 293 81 2c 00
        E 0 82 53 00
        E 470 80 27 00
        E 0 82 52 00
        E 36 92 57 32
        E 764 81 2a 00
        E 0 80 22 00
        E 799 80 24 00
        E 0 81 2b 00
        E 800 82 4b 00
        E 136 91 30 32
        E 1250 90 27 32
        E 0 91 37 32
        E 0 92 60 32
        E 1113 81 2e 00
        E 136 90 29 32
        E 0 91 38 32
        E 1113 80 2b 00
        E 0 82 57 00
        E 0 81 30 00
        E 1140 90 24 32
        E 0 92 3f 32
        E 110 81 37 00
        E 693 92 4b 32
        E 556 80 29 00
        E 1004 80 27 00
        E 0 82 60 00
        E 802 82 3f 00
        E 147 92 4d 32
        E 1254 90 2c 32
        E 0 91 35 32
        E 0 92 48 32
        E 1108 82 4b 00
        E 147 90 2e 32
        E 0 92 49 32
        E 1108 81 38 00
        E 0 80 24 00
        E 0 82 4d 00
        E 1154 92 3d 32
        E 100 82 48 00
        E 706 91 3d 32
        E 0 92 41 32
        E 549 80 2e 00
        E 1007 82 49 00
        E 806 81 35 00
        E 0 82 3d 00
        E 157 90 28 32
        E 0 91 43 32
        E 0 92 5f 32
        E 1259 91 2b 32
        E 0 92 53 32
        E 1103 80 2c 00
        E 0 81 3d 00
        E 0 82 41 00
        E 157 90 23 32
        E 0 91 37 32
        E 0 92 58 32
        E 1103 81 43 00
        E 0 82 5f 00
        E 156 90 24 32
        E 0 91 39 32
        E 1103 80 28 00
        E 0 81 2b 00
        E 0 82 53 00
        E 157 90 30 32
        E 0 91 34 32
        E 0 92 39 32
        E 1103 80 23 00
        E 0 81 37 00
        E 156 90 32 32
        E 0 91 35 32
        E 1103 82 58 00
        E 0 80 24 00
        E 0 81 39 00
        E 1169 92 3a 32
        E 91 81 34 00
        E 385 90 33 32
        E 0 91 37 32
        E 476 91 38 32
        E 0 92 3c 32
        E 476 90 35 32
        E 0 92 3d 32
        E 476 90 38 32
        E 0 91 3d 32
        E 0 92 41 32
        E 458 80 30 00
        E 0 82 39 00
        E 351 91 3b 32
        E 0 92 40 32
        E 125 80 32 00
        E 0 81 35 00
        E 476 82 3a 00
        E 0 81 37 00
        E 208 91 40 32
        E 0 92 49 32
        E 268 80 33 00
        E 0 82 3c 00
        E 476 81 38 00
        E 0 80 35 00
        E 0 82 3d 00
        E 66 91 49 32
        E 0 92 4c 32
        E 744 81 3d 00
        E 0 82 41 00
        E 809 81 3b 00
        E 0 82 40 00
        E 809 81 40 00
        E 0 82 49 00
        E 167 90 29 32
        E 0 91 2e 32
        E 0 92 3e 32
        E 1264 90 22 32
        E 0 91 29 32
        E 0 92 4a 32
        E 1098 80 38 00
        E 0 81 49 00
        E 0 82 4c 00
        E 167 90 26 32
        E 0 92 3a 32
        E 1098 80 29 00
        E 0 81 2e 00
        E 0 82 3e 00
        E 167 90 27 32
        E 0 91 2b 32
        E 1098 80 22 00
        E 0 82 4a 00
        E 166 90 22 32
        E 0 91 27 32
        E 0 92 43 32
        E 1098 81 29 00
        E 0 80 26 00
        E 167 91 26 32
        E 0 92 41 32
        E 1098 82 3a 00
        E 0 80 27 00
        E 0 81 2b 00
        E 1182 90 21 32
        E 82 81 27 00
        E 396 91 24 32
        E 0 92 40 32
        E 478 90 23 32
        E 0 91 2b 32
        E 478 91 2a 32
        E 0 92 3e 32
        E 478 90 36 32
        E 0 91 4a 32
        E 0 92 5f 32
        E 450 80 22 00
        E 0 82 43 00
        E 362 90 38 32
        E 0 91 4b 32
        E 116 81 26 00
        E 0 82 41 00
        E 478 80 21 00
        E 0 81 24 00
        E 219 91 27 32
        E 0 92 42 32
        E 259 82 40 00
        E 0 81 2b 00
        E 478 81 2a 00
        E 0 82 3e 00
        E 76 92 2a 32
        E 737 80 36 00
        E 0 81 4a 00
        E 813 82 5f 00
        E 0 80 38 00
        E 0 81 4b 00
        E 812 82 42 00
        E 177 90 29 32
        E 0 91 56 32
        E 0 92 5d 32
        E 1269 91 51 32
        E 0 92 62 32
        E 1093 80 23 00
        E 0 81 27 00
        E 0 82 2a 00
        E 177 90 21 32
        E 0 91 29 32
        E 0 92 4a 32
        E 1093 81 56 00
        E 0 82 5d 00
        E 177 90 22 32
        E 0 91 2b 32
        E 1093 80 29 00
        E 0 81 51 00
        E 0 82 62 00
        E 176 90 2b 32
        E 0 91 3e 32
        E 0 92 46 32
        E 1093 80 21 00
        E 0 81 29 00
        E 177 91 3f 32
        E 0 92 48 32
        E 1093 82 4a 00
        E 0 80 22 00
        E 0 81 2b 00
        E 1196 90 2c 32
        E 74 81 3e 00
        E 406 91 41 32
        E 0 92 49 32
        E 480 90 2e 32
        E 0 91 42 32
        E 480 90 2f 32
        E 0 92 4b 32
        E 480 90 2a 32
        E 0 91 33 32
        E 0 92 3b 32
        E 443 80 2b 00
        E 0 82 46 00
        E 373 91 32 32
        E 0 92 39 32
        E 107 81 3f 00
        E 0 82 48 00
        E 480 80 2c 00
        E 0 81 41 00
        E 229 92 47 32
        E 251 82 49 00
        E 0 80 2e 00
        E 480 81 42 00
        E 0 80 2f 00
        E 0 82 4b 00
        E 85 91 3e 32
        E 730 81 33 00
        E 0 82 3b 00
        E 816 82 39 00
        E 816 81 32 00
        E 187 92 45 32
        E 1275 91 45 32
        E 0 92 56 32
        E 1088 82 47 00
        E 186 90 28 32
        E 0 92 55 32
        E 1088 81 3e 00
        E 0 82 45 00
        E 1211 92 61 32
        E 64 82 56 00
        E 755 90 25 32
        E 0 91 36 32
        E 0 92 45 32
        E 520 80 28 00
        E 1024 82 55 00
        E 819 80 2a 00
        E 0 81 45 00
        E 0 82 61 00
        E 197 91 34 32
        E 1280 90 34 32
        E 0 91 55 32
        E 0 92 5d 32
        E 1082 81 36 00
        E 198 91 53 32
        E 0 92 5c 32
        E 1082 80 25 00
        E 0 82 45 00
        E 0 81 34 00
        E 1225 90 28 32
        E 0 91 44 32
        E 0 92 61 32
        E 55 82 5d 00
        E 768 91 2c 32
        E 512 81 53 00
        E 1028 80 34 00
        E 0 81 55 00
        E 0 82 5c 00
        E 822 81 44 00
        E 208 90 2e 32
        E 0 91 35 32
        E 0 92 4a 32
        E 1285 90 22 32
        E 0 92 56 32
        E 1077 80 28 00
        E 0 82 61 00
        E 0 81 2c 00
        E 208 90 32 32
        E 0 92 3a 32
        E 1077 80 2e 00
        E 0 82 4a 00
        E 208 90 33 32
        E 0 91 37 32
        E 1077 80 22 00
        E 0 82 56 00
        E 208 90 22 32
        E 0 91 33 32
        E 0 92 37 32
        E 1077 81 35 00
        E 0 80 32 00
        E 208 91 32 32
        E 0 92 35 32
        E 1077 82 3a 00
        E 0 80 33 00
        E 0 81 37 00
        E 1240 90 21 32
        E 45 81 33 00
        E 441 91 30 32
        E 0 92 34 32
        E 485 90 23 32
        E 0 91 2b 32
        E 486 91 2a 32
        E 0 92 32 32
        E 486 90 2a 32
        E 0 91 5f 32
        E 0 92 62 32
        E 419 80 22 00
        E 0 82 37 00
        E 406 90 27 32
        E 0 91 5c 32
        E 0 92 5f 32
        E 80 81 32 00
        E 0 82 35 00
        E 486 80 21 00
        E 0 81 30 00
        E 260 91 33 32
        E 0 92 36 32
        E 226 82 34 00
        E 0 81 2b 00
        E 485 81 2a 00
        E 0 82 32 00
        E 115 91 36 32
        E 0 92 3f 32
        E 711 80 2a 00
        E 0 81 5f 00
        E 0 82 62 00
        E 826 80 27 00
        E 0 81 5c 00
        E 0 82 5f 00
        E 825 81 33 00
        E 0 82 36 00
        E 218 91 38 32
        E 1290 91 27 32
        E 0 92 44 32
        E 1073 81 36 00
        E 217 90 25 32
        E 0 91 28 32
        E 1073 82 3f 00
        E 0 81 38 00
        E 1254 91 38 32
        E 0 92 58 32
        E 36 81 27 00
        E 1290 80 25 00
        E 1865 81 38 00
        E 0 82 58 00
        E 229 90 25 32
        E 1295 90 2c 32
        E 0 91 3d 32
        E 0 92 58 32
        E 1067 80 23 00
        E 228 90 2d 32
        E 0 92 5a 32
        E 1067 82 44 00
        E 0 81 28 00
        E 0 80 25 00
        E 1269 90 28 32
        E 0 91 39 32
        E 0 92 55 32
        E 27 80 2c 00
        E 805 92 61 32
        E 490 82 5a 00
        E 1041 81 3d 00
        E 0 82 58 00
        E 0 80 2d 00
        E 832 82 55 00
        E 238 90 2b 32
        E 0 91 3f 32
        E 0 92 54 32
        E 1301 91 48 32
        E 0 92 4b 32
        E 1062 80 28 00
        E 0 81 39 00
        E 0 82 61 00
        E 238 90 27 32
        E 0 91 2b 32
        E 0 92 60 32
        E 1062 81 3f 00
        E 0 82 54 00
        E 239 90 29 32
        E 0 91 2c 32
        E 1062 80 2b 00
        E 0 81 48 00
        E 0 82 4b 00
        E 239 91 44 32
        E 0 92 48 32
        E 1062 80 27 00
        E 0 81 2b 00
        E 238 91 46 32
        E 0 92 49 32
        E 1062 82 60 00
        E 0 81 2c 00
        E 1283 90 2a 32
        E 18 82 48 00
        E 474 91 47 32
        E 0 92 4b 32
        E 491 90 2c 32
        E 0 92 4c 32
        E 492 90 2d 32
        E 0 91 49 32
        E 492 90 34 32
        E 0 91 39 32
        E 0 92 55 32
        E 396 80 29 00
        E 0 81 44 00
        E 439 91 37 32
        E 0 92 54 32
        E 52 81 46 00
        E 0 82 49 00
        E 492 80 2a 00
        E 0 82 4b 00
        E 292 91 45 32
        E 200 81 47 00
        E 0 80 2c 00
        E 491 82 4c 00
        E 0 80 2d 00
        E 0 81 49 00
        E 145 90 24 32
        E 0 91 28 32
        E 0 92 45 32
        E 691 81 39 00
        E 0 82 55 00
        E 835 81 37 00
        E 836 80 34 00
        E 0 82 54 00
        E 0 81 45 00
        E 249 90 25 32
        E 0 91 36 32
        E 0 92 3a 32
        E 1306 90 2e 32
        E 0 91 31 32
        E 0 92 36 32
        E 1057 80 24 00
        E 0 81 28 00
        E 0 82 45 00
        E 249 90 2a 32
        E 0 91 46 32
        E 0 92 55 32
        E 1056 80 25 00
        E 0 81 36 00
        E 0 82 3a 00
        E 249 91 47 32
        E 0 92 57 32
        E 1057 80 2e 00
        E 0 81 31 00
        E 0 82 36 00
        E 249 91 33 32
        E 0 92 5f 32
        E 1057 81 46 00
        E 0 82 55 00
        E 249 91 31 32
        E 0 92 5e 32
        E 1057 81 47 00
        E 0 82 57 00
        E 1298 90 29 32
        E 7 82 5f 00
        E 486 91 30 32
        E 0 92 5c 32
        E 494 90 27 32
        E 0 92 5b 32
        E 493 90 26 32
        E 0 91 2e 32
        E 494 90 22 32
        E 0 91 2b 32
        E 0 92 4a 32
        E 388 80 2a 00
        E 0 81 33 00
        E 451 90 23 32
        E 0 92 4c 32
        E 43 81 31 00
        E 0 82 5e 00
        E 493 80 29 00
        E 0 82 5c 00
        E 303 90 2b 32
        E 0 91 2f 32
        E 191 81 30 00
        E 0 80 27 00
        E 493 82 5b 00
        E 0 80 26 00
        E 0 81 2e 00
        E 155 92 56 32
        E 684 80 22 00
        E 839 81 2b 00
        E 0 80 23 00
        E 0 82 4c 00
        E 839 82 4a 00
        E 260 92 58 32
        E 1311 90 23 32
        E 0 91 28 32
        E 0 92 37 32
        E 1051 82 56 00
        E 260 90 24 32
        E 0 92 39 32
        E 1051 80 2b 00
        E 0 81 2f 00
        E 0 82 58 00
        E 1311 80 23 00
        E 2 90 2b 32
        E 0 91 58 32
        E 0 92 60 32
        E 842 90 28 32
        E 0 91 37 32
        E 467 82 39 00
        E 1053 81 28 00
        E 0 82 37 00
        E 0 80 24 00
        E 843 80 2b 00
        E 0 81 58 00
        E 270 91 39 32
        E 1316 90 24 32
        E 0 91 28 32
        E 0 92 39 32
        E 1046 81 37 00
        E 270 90 26 32
        E 0 91 29 32
        E 1047 82 60 00
        E 0 80 28 00
        E 0 81 39 00
        E 1316 81 28 00
        E 11 90 29 32
        E 0 91 30 32
        E 0 92 45 32
        E 846 91 3c 32
        E 459 80 26 00
        E 1057 80 24 00
        E 0 82 39 00
        E 0 81 29 00
        E 846 81 30 00
        E 281 90 27 32
        E 0 91 44 32
        E 0 92 5f 32
        E 1321 90 33 32
        E 0 92 53 32
        E 1041 80 29 00
        E 0 82 45 00
        E 0 81 3c 00
        E 281 90 23 32
        E 0 91 38 32
        E 0 92 57 32
        E 1041 80 27 00
        E 0 82 5f 00
        E 280 90 25 32
        E 0 92 58 32
        E 1041 81 44 00
        E 0 80 33 00
        E 0 82 53 00
        E 281 90 34 32
        E 0 92 3d 32
        E 1041 80 23 00
        E 0 82 57 00
        E 281 90 36 32
        E 0 91 39 32
        E 1041 80 25 00
        E 0 82 58 00
        E 1321 81 38 00
        E 21 92 3e 32
        E 499 90 37 32
        E 0 91 3b 32
        E 500 91 3c 32
        E 0 92 40 32
        E 499 90 39 32
        E 0 92 41 32
        E 500 90 30 32
        E 0 91 35 32
        E 0 92 45 32
        E 364 80 34 00
        E 0 82 3d 00
        E 485 91 33 32
        E 0 92 44 32
        E 15 80 36 00
        E 0 81 39 00
        E 499 82 3e 00
        E 0 81 3b 00
        E 335 90 35 32
        E 0 91 38 32
        E 0 92 54 32
        E 165 80 37 00
        E 0 82 40 00
        E 499 81 3c 00
        E 0 80 39 00
        E 0 82 41 00
        E 185 90 38 32
        E 0 91 41 32
        E 664 81 35 00
        E 0 82 45 00
        E 850 80 30 00
        E 0 81 33 00
        E 0 82 44 00
        E 849 80 35 00
        E 0 81 38 00
        E 291 91 3f 32
        E 1327 90 27 32
        E 0 91 44 32
        E 0 92 48 32
        E 1036 81 41 00
        E 291 91 43 32
        E 0 92 46 32
        E 1035 82 54 00
        E 0 80 38 00
        E 0 81 3f 00
        E 1327 81 44 00
        E 30 90 37 32
        E 0 91 3c 32
        E 0 92 57 32
        E 853 92 43 32
        E 444 82 46 00
        E 1066 82 48 00
        E 0 81 43 00
        E 853 80 37 00
        E 0 82 57 00
        E 301 91 3a 32
        E 1333 90 22 32
        E 0 91 27 32
        E 0 92 37 32
        E 1030 81 3c 00
        E 302 91 26 32
        E 0 92 35 32
        E 1030 80 27 00
        E 0 82 43 00
        E 0 81 3a 00
        E 1332 81 27 00
        E 896 91 32 32
        E 436 82 35 00
        E 1927 81 26 00
        E 5662 90 21 34
        E 0 90 31 34
        E 0 90 34 34
        E 2363 80 22 00
        E 0 82 37 00
        E 0 81 32 00
        E 647 90 22 34
        E 0 90 36 34
        E 2362 80 21 00
        E 0 80 34 00
        E 647 90 35 34
        E 0 90 3d 34
        E 0 90 52 34
        E 2363 80 31 00
        E 0 80 22 00
        E 0 80 36 00
        E 647 90 36 32
        E 0 90 3f 32
        E 1106 90 38 32
        E 0 90 53 32
        E 1107 90 40 32
        E 0 90 55 32
        E 149 80 35 00
        E 0 80 3d 00
        E 957 90 39 32
        E 0 90 42 32
        E 150 80 52 00
        E 0 80 36 00
        E 956 90 3b 32
        E 0 90 56 32
        E 150 80 3f 00
        E 0 80 53 00
        E 957 90 37 32
        E 0 90 53 32
        E 149 80 38 00
        E 957 90 2a 34
        E 0 90 49 34
        E 0 90 52 34
        E 150 80 55 00
        E 0 80 39 00
        E 1106 80 42 00
        E 0 80 3b 00
        E 0 80 56 00
        E 1095 90 55 34
        E 12 80 40 00
        E 0 80 37 00
        E 0 80 53 00
        E 2340 90 31 34
        E 0 90 46 34
        E 11 80 49 00
        E 2340 90 33 34
        E 0 90 47 34
        E 11 80 52 00
        E 0 80 55 00
        E 2340 90 3b 34
        E 0 90 42 34
        E 11 80 31 00
        E 0 80 46 00
        E 2340 90 34 34
        E 0 90 44 34
        E 11 80 2a 00
        E 0 80 47 00
        E 2352 80 42 00
        E 1877 90 3d 33
        E 888 90 36 33
        E 0 90 45 33
        E 889 90 3e 33
        E 0 90 47 33
        E 585 80 33 00
        E 0 80 3b 00
        E 304 90 37 33
        E 0 90 40 33
        E 585 80 34 00
        E 0 80 44 00
        E 303 90 34 34
        E 0 90 43 34
        E 586 80 3d 00
        E 0 80 45 00
        E 888 80 36 00
        E 0 80 3e 00
        E 37 90 32 34
        E 0 90 46 34
        E 852 80 37 00
        E 0 80 40 00
        E 659 90 33 34
        E 0 90 52 34
        E 852 80 47 00
        E 0 80 34 00
        E 659 90 27 34
        E 0 90 2b 34
        E 0 90 2e 34
        E 851 80 32 00
        E 0 80 46 00
        E 1511 80 43 00
        E 0 80 33 00
        E 0 80 52 00
        E 2359 90 34 34
        E 0 90 38 34
        E 0 90 49 34
        E 2360 90 40 34
        E 2 80 27 00
        E 0 80 2b 00
        E 0 80 2e 00
        E 2359 90 2c 34
        E 0 90 3d 34
        E 0 90 4c 34
        E 2 80 34 00
        E 2359 90 2d 34
        E 0 90 4e 34
        E 2 80 38 00
        E 0 80 49 00
        E 0 80 40 00
        E 2358 90 2a 34
        E 0 90 51 34
        E 2 80 2c 00
        E 0 80 4c 00
        E 2359 90 28 34
        E 0 90 50 34
        E 2 80 2d 00
        E 0 80 4e 00
        E 2360 80 2a 00
        E 1894 90 3b 33
        E 893 90 27 33
        E 0 90 4e 33
        E 892 90 25 33
        E 0 90 3a 33
        E 578 80 3d 00
        E 0 80 51 00
        E 314 90 38 33
        E 0 90 4d 33
        E 578 80 28 00
        E 0 80 50 00
        E 315 90 2c 34
        E 0 90 35 34
        E 0 90 49 34
        E 578 80 3b 00
        E 0 80 27 00
        E 892 80 4e 00
        E 0 80 3a 00
        E 46 90 2e 34
        E 0 90 4a 34
        E 846 80 25 00
        E 0 80 38 00
        E 0 80 4d 00
        E 671 90 21 34
        E 0 90 29 34
        E 0 90 3e 34
        E 846 80 2c 00
        E 0 80 49 00
        E 671 90 2d 34
        E 846 80 35 00
        E 0 80 2e 00
        E 1517 80 21 00
        E 0 80 3e 00
        E 2377 90 28 34
        E 0 90 44 34
        E 0 90 53 34
        E 2363 80 4a 00
        E 0 80 29 00
        E 0 80 2d 00
        E 7 90 34 34
        E 2363 80 28 00
        E 7 90 38 34
        E 0 90 40 34
        E 0 90 47 34
        E 2363 80 44 00
        E 0 80 53 00
        E 0 80 34 00
        E 7 90 39 34
        E 0 90 49 34
        E 2363 80 38 00
        E 0 80 47 00
        E 8 90 28 34
        E 0 90 45 34
        E 0 90 55 34
        E 2362 80 40 00
        E 0 80 39 00
        E 0 80 49 00
        E 8 90 2a 34
        E 0 90 56 34
        E 2362 80 28 00
        E 0 80 55 00
        E 8 90 55 34
        E 1903 90 47 33
        E 896 90 2b 33
        E 0 90 4c 33
        E 0 90 53 33
        E 896 90 2d 33
        E 0 90 54 33
        E 571 80 45 00
        E 0 80 55 00
        E 325 90 4d 33
        E 571 80 2a 00
        E 0 80 47 00
        E 325 90 29 34
        E 0 90 51 34
        E 571 80 2b 00
        E 0 80 53 00
        E 895 80 4c 00
        E 0 80 54 00
        E 57 90 50 34
        E 0 90 54 34
        E 839 80 2d 00
        E 0 80 4d 00
        E 684 90 38 34
        E 0 90 55 34
        E 839 80 56 00
        E 0 80 51 00
        E 684 90 25 34
        E 0 90 41 34
        E 839 80 50 00
        E 0 80 54 00
        E 1523 80 29 00
        E 0 80 55 00
        E 2397 90 24 34
        E 2362 80 25 00
        E 17 90 29 34
        E 0 90 3c 34
        E 0 90 44 34
        E 2363 80 38 00
        E 0 80 41 00
        E 0 80 24 00
        E 17 90 27 34
        E 0 90 43 34
        E 2362 80 29 00
        E 0 80 44 00
        E 17 90 44 34
        E 1912 90 33 34
        E 451 80 43 00
        E 1078 90 3f 34
        E 0 90 48 34
        E 833 80 27 00
        E 1529 80 3c 00
        E 0 80 33 00
        E 2416 90 43 34
        E 2363 80 44 00
        E 26 90 30 34
        E 0 90 33 34
        E 0 90 37 34
        E 2363 80 3f 00
        E 0 80 48 00
        E 0 80 43 00
        E 26 90 2e 34
        E 0 90 32 34
        E 2363 80 30 00
        E 0 80 33 00
        E 27 90 33 34
        E 1919 90 3a 34
        E 443 80 32 00
        E 1092 90 3f 34
        E 0 90 46 34
        E 827 80 2e 00
        E 1535 80 33 00
        E 0 80 3a 00
        E 2435 90 34 34
        E 0 90 38 34
        E 0 90 49 34
        E 2363 80 37 00
        E 0 80 3f 00
        E 0 80 46 00
        E 36 90 40 34
        E 2363 80 34 00
        E 36 90 2c 34
        E 0 90 3d 34
        E 0 90 4c 34
        E 2362 80 38 00
        E 0 80 49 00
        E 0 80 40 00
        E 36 90 2d 34
        E 0 90 4e 34
        E 2363 80 2c 00
        E 0 80 4c 00
        E 36 90 2a 34
        E 0 90 51 34
        E 2363 80 2d 00
        E 0 80 4e 00
        E 36 90 28 34
        E 0 90 50 34
        E 2362 80 2a 00
        E 0 80 51 00
        E 37 90 51 34
        E 1926 90 3b 33
        E 907 90 27 33
        E 0 90 4e 33
        E 907 90 25 33
        E 0 90 3a 33
        E 549 80 3d 00
        E 0 80 51 00
        E 357 90 38 33
        E 0 90 4d 33
        E 550 80 28 00
        E 0 80 50 00
        E 357 90 2c 34
        E 0 90 35 34
        E 0 90 49 34
        E 549 80 3b 00
        E 0 80 27 00
        E 907 80 4e 00
        E 0 80 3a 00
        E 85 90 2e 34
        E 0 90 4a 34
        E 822 80 25 00
        E 0 80 38 00
        E 0 80 4d 00
        E 720 90 21 34
        E 0 90 29 34
        E 0 90 3e 34
        E 821 80 2c 00
        E 0 80 49 00
        E 720 90 2d 34
        E 821 80 35 00
        E 0 80 2e 00
        E 1542 80 21 00
        E 0 80 3e 00
        E 2454 90 2e 34
        E 2362 80 2d 00
        E 46 90 26 34
        E 0 90 35 34
        E 2363 80 4a 00
        E 0 80 29 00
        E 46 90 27 34
        E 0 90 37 34
        E 2362 80 26 00
        E 0 80 35 00
        E 46 90 26 34
        E 1935 90 32 34
        E 0 90 3a 34
        E 428 80 27 00
        E 1119 90 3e 34
        E 0 90 46 34
        E 815 80 2e 00
        E 0 80 26 00
        E 1548 80 32 00
        E 0 80 3a 00
        E 2473 90 3f 34
        E 2363 80 3e 00
        E 55 90 2b 34
        E 0 90 3a 34
        E 2363 80 37 00
        E 0 80 46 00
        E 55 90 2c 34
        E 0 90 3c 34
        E 2363 80 2b 00
        E 0 80 3a 00
        E 55 90 2b 34
        E 1943 90 30 34
        E 420 80 2c 00
        E 1133 90 4b 34
        E 2363 80 3f 00
        E 0 80 30 00
        E 2493 90 2a 34
        E 0 90 3e 34
        E 0 90 51 34
        E 2362 80 3c 00
        E 0 80 2b 00
        E 0 80 4b 00
        E 66 90 4a 34
        E 2362 80 3e 00
        E 65 90 26 34
        E 0 90 45 34
        E 2363 80 51 00
        E 0 80 4a 00
        E 65 90 2b 34
        E 0 90 47 34
        E 2363 80 2a 00
        E 0 80 45 00
        E 65 90 43 34
        E 2362 80 2b 00
        E 66 90 28 34
        E 0 90 48 34
        E 2362 80 26 00
        E 0 80 47 00
        E 65 90 47 34
        E 1950 90 45 33
        E 918 90 29 33
        E 0 90 4a 33
        E 918 90 2b 33
        E 0 90 46 33
        E 527 80 43 00
        E 0 80 47 00
        E 390 90 4b 33
        E 528 80 28 00
        E 390 90 33 34
        E 0 90 3c 34
        E 0 90 43 34
        E 527 80 45 00
        E 0 80 29 00
        E 918 80 4a 00
        E 0 80 46 00
        E 115 90 3a 34
        E 0 90 42 34
        E 802 80 48 00
        E 0 80 2b 00
        E 0 80 4b 00
        E 758 90 47 34
        E 802 80 3c 00
        E 0 80 43 00
        E 758 90 23 34
        E 0 90 27 34
        E 0 90 2a 34
        E 802 80 3a 00
        E 1560 80 33 00
        E 0 80 42 00
        E 0 80 47 00
        E 2513 90 24 34
        E 0 90 34 34
        E 0 90 45 34
        E 2363 80 23 00
        E 0 80 27 00
        E 0 80 2a 00
        E 74 90 30 34
        E 2363 80 24 00
        E 75 90 28 34
        E 0 90 39 34
        E 0 90 48 34
        E 2363 80 34 00
        E 0 80 45 00
        E 0 80 30 00
        E 75 90 29 34
        E 0 90 4a 34
        E 2362 80 28 00
        E 0 80 48 00
        E 75 90 32 34
        E 0 90 51 34
        E 2363 80 39 00
        E 0 80 4a 00
        E 75 90 28 34
        E 0 90 30 34
        E 2362 80 29 00
        E 0 80 32 00
        E 75 90 29 34
        E 1958 90 4f 33
        E 921 90 26 33
        E 0 90 2f 33
        E 922 90 2d 33
        E 0 90 4e 33
        E 519 80 51 00
        E 0 80 29 00
        E 402 90 25 33
        E 0 90 4c 33
        E 520 80 28 00
        E 0 80 30 00
        E 401 90 28 34
        E 0 90 31 34
        E 0 90 45 34
        E 520 80 4f 00
        E 0 80 2f 00
        E 921 80 26 00
        E 0 80 4e 00
        E 125 90 2a 34
        E 0 90 46 34
        E 797 80 2d 00
        E 0 80 25 00
        E 0 80 4c 00
        E 770 90 29 34
        E 0 90 52 34
        E 796 80 28 00
        E 0 80 45 00
        E 770 90 22 34
        E 0 90 49 34
        E 796 80 2a 00
        E 0 80 46 00
        E 1567 80 31 00
        E 0 80 52 00
        E 2532 90 2a 34
        E 2362 80 29 00
        E 85 90 31 34
        E 0 90 36 34
        E 0 90 3a 34
        E 2362 80 22 00
        E 0 80 49 00
        E 0 80 2a 00
        E 85 90 33 34
        E 0 90 3b 34
        E 2363 80 31 00
        E 0 80 3a 00
        E 85 90 3a 34
        E 2362 80 3b 00
        E 1176 90 3f 34
        E 0 90 46 34
        E 2362 80 33 00
        E 0 80 3a 00
        E 2552 90 47 34
        E 2363 80 46 00
        E 94 90 2a 34
        E 0 90 2f 34
        E 2363 80 36 00
        E 0 80 47 00
        E 94 90 2c 34
        E 0 90 40 34
        E 2363 80 3f 00
        E 0 80 2a 00
        E 94 90 3f 34
        E 1974 90 3b 34
        E 0 90 4b 34
        E 389 80 40 00
        E 1190 90 27 34
        E 0 90 38 34
        E 0 90 47 34
        E 784 80 2f 00
        E 0 80 3f 00
        E 1578 80 2c 00
        E 0 80 3b 00
        E 0 80 4b 00
        E 2572 90 29 34
        E 0 90 3e 34
        E 0 90 46 34
        E 2362 80 27 00
        E 0 80 38 00
        E 0 80 47 00
        E 105 90 4a 34
        E 2362 80 3e 00
        E 105 90 26 34
        E 0 90 3a 34
        E 2362 80 46 00
        E 0 80 4a 00
        E 105 90 27 34
        E 0 90 2b 34
        E 2362 80 29 00
        E 0 80 26 00
        E 105 90 33 34
        E 0 90 43 34
        E 0 90 46 34
        E 2362 80 3a 00
        E 0 80 27 00
        E 0 80 2b 00
        E 105 90 44 34
        E 0 90 48 34
        E 2362 80 43 00
        E 0 80 46 00
        E 105 90 43 34
        E 1981 90 35 33
        E 933 90 46 33
        E 0 90 49 33
        E 932 90 36 33
        E 0 90 4b 33
        E 498 80 33 00
        E 0 80 43 00
        E 435 90 38 33
        E 0 90 47 33
        E 497 80 44 00
        E 0 80 48 00
        E 435 90 3f 34
        E 0 90 44 34
        E 498 80 35 00
        E 0 80 49 00
        E 932 80 46 00
        E 0 80 36 00
        E 155 90 3e 34
        E 0 90 42 34
        E 778 80 4b 00
        E 0 80 38 00
        E 808 90 26 34
        E 0 90 43 34
        E 0 90 53 34
        E 777 80 3f 00
        E 0 80 44 00
        E 808 90 2b 34
        E 0 90 2f 34
        E 0 90 32 34
        E 777 80 47 00
        E 0 80 3e 00
        E 0 80 42 00
        E 1585 80 26 00
        E 0 80 43 00
        E 0 80 53 00
        E 2592 90 2a 34
        E 2362 80 2b 00
        E 115 90 3e 34
        E 2362 80 32 00
        E 115 90 2d 34
        E 0 90 3d 34
        E 2362 80 2f 00
        E 0 80 3e 00
        E 114 90 3e 34
        E 1990 90 39 34
        E 373 80 3d 00
        E 1218 90 45 34
        E 0 90 4a 34
        E 771 80 2d 00
        E 1592 80 3e 00
        E 0 80 39 00
        E 2611 90 49 34
        E 2363 80 4a 00
        E 124 90 2d 34
        E 0 90 31 34
        E 0 90 42 34
        E 2363 80 2a 00
        E 0 80 45 00
        E 0 80 49 00
        E 124 90 2c 34
        E 0 90 40 34
        E 2362 80 2d 00
        E 0 80 42 00
        E 125 90 2d 34
        E 1997 90 21 34
        E 0 90 25 34
        E 365 80 2c 00
        E 1233 90 28 34
        E 0 90 39 34
        E 765 80 31 00
        E 0 80 2d 00
        E 1598 80 40 00
        E 0 80 21 00
        E 2631 90 37 34
        E 0 90 3a 34
        E 0 90 56 34
        E 1997 90 26 34
        E 0 90 43 34
        E 365 80 25 00
        E 0 80 28 00
        E 0 80 39 00
        E 1633 90 2e 34
        E 0 90 3e 34
        E 365 80 56 00
        E 1632 90 30 34
        E 0 90 3f 34
        E 365 80 3a 00
        E 0 80 26 00
        E 0 80 43 00
        E 1633 90 27 34
        E 365 80 2e 00
        E 0 80 3e 00
        E 1632 90 38 36
        E 365 80 3f 00
        E 1633 90 29 36
        E 0 90 39 36
        E 365 80 37 00
        E 1632 90 28 36
        E 0 90 54 36
        E 365 80 27 00
        E 0 80 38 00
        E 1633 90 56 33
        E 365 80 30 00
        E 369 90 2b 33
        E 0 90 3a 33
        E 734 90 3f 33
        E 735 90 2c 33
        E 0 90 41 33
        E 159 80 28 00
        E 575 90 2e 33
        E 0 90 55 33
        E 159 80 29 00
        E 0 80 39 00
        E 575 90 2a 33
        E 0 90 52 33
        E 160 80 56 00
        E 0 80 3a 00
        E 575 90 2d 36
        E 0 90 30 36
        E 159 80 2b 00
        E 735 80 54 00
        E 0 80 2c 00
        E 666 90 29 36
        E 0 90 39 36
        E 68 80 2e 00
        E 0 80 55 00
        E 734 80 3f 00
        E 0 80 2a 00
        E 0 80 52 00
        E 759 90 21 36
        E 0 90 35 36
        E 0 90 54 36
        E 802 80 41 00
        E 0 80 2d 00
        E 758 90 22 36
        E 0 90 56 36
        E 802 80 30 00
        E 0 80 29 00
        E 0 80 39 00
        E 759 90 32 36
        E 802 80 21 00
        E 0 80 54 00
        E 758 90 33 36
        E 0 90 37 36
        E 802 80 56 00
        E 1561 80 35 00
        E 451 90 24 34
        E 590 90 35 34
        E 0 90 38 34
        E 590 90 25 34
        E 0 90 3a 34
        E 590 90 27 34
        E 0 90 36 34
        E 590 90 2e 36
        E 0 90 3f 36
        E 3 80 22 00
        E 0 80 32 00
        E 590 80 33 00
        E 0 80 37 00
        E 410 90 2d 36
        E 0 90 3d 36
        E 180 80 24 00
        E 0 80 38 00
        E 589 80 35 00
        E 0 80 25 00
        E 233 90 32 36
        E 0 90 39 36
        E 357 80 3a 00
        E 0 80 27 00
        E 646 90 3e 36
        E 0 90 45 36
        E 357 80 2e 00
        E 0 80 3f 00
        E 1003 80 2d 00
        E 0 80 3d 00
        E 1003 80 32 00
        E 0 80 39 00
        E 771 90 2b 36
        E 0 90 30 36
        E 0 90 3f 36
        E 1566 90 4b 36
        E 796 80 36 00
        E 0 80 3e 00
        E 0 80 45 00
        E 771 90 24 36
        E 0 90 27 36
        E 796 80 3f 00
        E 771 90 29 36
        E 0 90 2c 36
        E 796 80 30 00
        E 0 80 4b 00
        E 771 90 30 36
        E 0 90 35 36
        E 0 90 44 36
        E 795 80 2b 00
        E 0 80 27 00
        E 772 90 33 36
        E 0 90 43 36
        E 795 80 24 00
        E 0 80 29 00
        E 0 80 2c 00
        E 1567 80 35 00
        E 463 90 2e 34
        E 592 90 32 34
        E 0 90 41 34
        E 592 90 2d 34
        E 592 90 2b 34
        E 0 90 40 34
        E 586 80 44 00
        E 7 90 24 36
        E 0 90 34 36
        E 586 80 33 00
        E 420 90 25 36
        E 0 90 45 36
        E 172 80 2e 00
        E 0 80 32 00
        E 592 80 41 00
        E 0 80 2d 00
        E 243 90 31 36
        E 0 90 44 36
        E 349 80 30 00
        E 0 80 2b 00
        E 0 80 40 00
        E 658 90 3d 36
        E 0 90 40 36
        E 349 80 43 00
        E 0 80 24 00
        E 1007 80 25 00
        E 0 80 45 00
        E 1007 80 34 00
        E 0 80 31 00
        E 783 90 45 36
        E 1573 90 28 36
        E 0 90 31 36
        E 0 90 51 36
        E 790 80 44 00
        E 783 90 2a 36
        E 0 90 32 36
        E 790 80 3d 00
        E 0 80 40 00
        E 0 80 45 00
        E 1573 80 28 00
        E 474 90 21 36
        E 0 90 49 36
        E 1011 90 2d 36
        E 0 90 55 36
        E 88 80 32 00
        E 1263 80 31 00
        E 0 80 51 00
        E 1011 80 21 00
        E 0 80 49 00
        E 797 90 56 36
        E 1579 90 36 36
        E 0 90 51 36
        E 783 80 55 00
        E 796 90 37 36
        E 0 90 53 36
        E 783 80 2a 00
        E 0 80 2d 00
        E 1580 80 51 00
        E 485 90 47 36
        E 1015 90 23 36
        E 0 90 26 36
        E 0 90 2a 36
        E 79 80 37 00
        E 1269 80 53 00
        E 1015 80 56 00
        E 0 80 36 00
        E 0 80 47 00
        E 809 90 25 36
        E 0 90 41 36
        E 0 90 44 36
        E 1585 90 29 36
        E 0 90 2c 36
        E 0 90 31 36
        E 777 80 23 00
        E 0 80 26 00
        E 0 80 2a 00
        E 809 90 38 36
        E 0 90 4d 36
        E 0 90 55 36
        E 777 80 25 00
        E 0 80 41 00
        E 0 80 44 00
        E 809 90 3a 36
        E 0 90 4e 36
        E 777 80 29 00
        E 0 80 2c 00
        E 0 80 31 00
        E 809 90 2e 36
        E 0 90 36 36
        E 0 90 3d 36
        E 776 80 38 00
        E 0 80 4d 00
        E 809 90 2f 36
        E 0 90 3f 36
        E 777 80 55 00
        E 0 80 3a 00
        E 0 80 4e 00
        E 1586 80 3d 00
        E 497 90 38 34
        E 599 90 31 34
        E 0 90 40 34
        E 600 90 39 34
        E 0 90 42 34
        E 599 90 32 34
        E 0 90 3b 34
        E 564 80 2e 00
        E 0 80 36 00
        E 35 90 23 36
        E 0 90 36 36
        E 565 80 2f 00
        E 0 80 3f 00
        E 454 90 21 36
        E 0 90 35 36
        E 145 80 38 00
        E 0 80 40 00
        E 599 80 31 00
        E 0 80 39 00
        E 275 90 2e 36
        E 325 80 42 00
        E 0 80 3b 00
        E 694 90 3a 36
        E 0 90 3e 36
        E 325 80 23 00
        E 0 80 36 00
        E 1019 80 21 00
        E 1019 80 32 00
        E 0 80 2e 00
        E 821 90 39 36
        E 1593 90 51 36
        E 0 90 56 36
        E 770 80 3a 00
        E 822 90 34 36
        E 0 90 54 36
        E 770 80 3e 00
        E 0 80 39 00
        E 1592 80 56 00
        E 509 90 24 36
        E 0 90 41 36
        E 1023 90 29 36
        E 0 90 2d 36
        E 0 90 30 36
        E 60 80 34 00
        E 1279 80 35 00
        E 0 80 54 00
        E 1023 80 51 00
        E 0 80 24 00
        E 0 80 41 00
        E 835 90 28 36
        E 1598 90 34 36
        E 0 90 45 36
        E 764 80 29 00
        E 835 90 2f 36
        E 0 90 43 36
        E 764 80 2d 00
        E 0 80 28 00
        E 1598 80 45 00
        E 520 90 37 36
        E 0 90 40 36
        E 0 90 48 36
        E 1027 90 4c 36
        E 0 90 54 36
        E 52 80 2f 00
        E 1284 80 30 00
        E 0 80 34 00
        E 0 80 43 00
        E 1027 80 40 00
        E 0 80 48 00
        E 847 90 29 36
        E 0 90 52 36
        E 0 90 55 36
        E 1284 90 25 36
        E 0 90 35 36
        E 1079 80 37 00
        E 0 80 4c 00
        E 0 80 54 00
        E 205 90 3d 36
        E 0 90 46 36
        E 1079 80 55 00
        E 205 90 2a 36
        E 0 90 3f 36
        E 1078 80 52 00
        E 0 80 25 00
        E 0 80 35 00
        E 206 90 22 36
        E 0 90 33 36
        E 1078 80 29 00
        E 0 80 3d 00
        E 206 90 23 3b
        E 1078 80 46 00
        E 0 80 3f 00
        E 206 90 24 3b
        E 0 90 2c 3b
        E 1078 80 22 00
        E 206 90 2b 3b
        E 1078 80 2a 00
        E 0 80 23 00
        E 206 90 35 35
        E 472 90 25 35
        E 0 90 2e 35
        E 472 90 27 35
        E 0 90 36 35
        E 472 90 2f 35
        E 0 90 38 35
        E 472 90 28 35
        E 0 90 31 35
        E 472 90 2a 35
        E 0 90 39 35
        E 2 80 33 00
        E 0 80 2b 00
        E 470 90 4b 3b
        E 0 90 54 3b
        E 2 80 24 00
        E 0 80 2c 00
        E 472 80 35 00
        E 0 80 25 00
        E 472 80 2e 00
        E 0 80 36 00
        E 57 90 44 3b
        E 415 80 2f 00
        E 472 80 28 00
        E 116 90 33 3b
        E 0 90 48 3b
        E 356 80 31 00
        E 0 80 2a 00
        E 0 80 39 00
        E 647 90 35 3b
        E 0 90 49 3b
        E 356 80 4b 00
        E 647 90 2c 3b
        E 0 90 41 3b
        E 357 80 27 00
        E 0 80 54 00
        E 0 80 44 00
        E 646 90 2e 3b
        E 0 90 42 3b
        E 357 80 33 00
        E 0 80 48 00
        E 1003 80 38 00
        E 0 80 35 00
        E 449 90 4b 36
        E 379 90 2f 36
        E 0 90 44 36
        E 175 80 2c 00
        E 204 90 31 36
        E 0 90 4c 36
        E 379 90 45 36
        E 0 90 4e 36
        E 380 90 2a 3b
        E 0 90 51 3b
        E 644 90 28 3b
        E 0 90 48 3b
        E 202 80 41 00
        E 379 80 2e 00
        E 0 80 42 00
        E 64 90 21 3b
        E 0 90 29 3b
        E 0 90 54 3b
        E 315 80 4b 00
        E 0 80 2f 00
        E 329 90 24 3b
        E 0 90 2d 3b
        E 0 90 35 3b
        E 50 80 44 00
        E 0 80 4c 00
        E 379 80 31 00
        E 0 80 45 00
        E 0 80 4e 00
        E 645 80 49 00
        E 0 80 2a 00
        E 644 80 51 00
        E 0 80 28 00
        E 0 80 48 00
        E 296 90 34 3b
        E 349 80 21 00
        E 0 80 29 00
        E 0 80 54 00
        E 659 90 30 3b
        E 1007 90 2b 3b
        E 0 90 2f 3b
        E 348 80 35 00
        E 1007 80 24 00
        E 461 90 37 3b
        E 0 90 40 3b
        E 546 80 2d 00
        E 101 90 3c 3b
        E 0 90 4c 3b
        E 906 80 2f 00
        E 809 80 34 00
        E 0 80 2b 00
        E 307 90 3b 3b
        E 340 80 30 00
        E 0 80 40 00
        E 671 90 2b 3b
        E 1011 90 2a 3b
        E 0 90 4a 3b
        E 341 80 3c 00
        E 1011 80 37 00
        E 472 90 56 3b
        E 539 80 4c 00
        E 110 90 26 3b
        E 0 90 37 3b
        E 0 90 47 3b
        E 901 80 2a 00
        E 812 80 4a 00
        E 318 90 2c 3b
        E 0 90 35 3b
        E 0 90 48 3b
        E 332 80 3b 00
        E 0 80 2b 00
        E 0 80 56 00
        E 480 90 41 3b
        E 812 90 30 3b
        E 0 90 44 3b
        E 738 80 26 00
        E 0 80 37 00
        E 0 80 47 00
        E 74 90 31 3b
        E 0 90 46 3b
        E 739 80 35 00
        E 74 90 2e 3b
        E 0 90 35 3b
        E 0 90 49 3b
        E 738 80 2c 00
        E 0 80 48 00
        E 74 90 36 45
        E 738 80 30 00
        E 0 80 44 00
        E 74 90 37 45
        E 0 90 4b 45
        E 738 80 41 00
        E 0 80 31 00
        E 0 80 46 00
        E 74 90 46 45
        E 0 90 56 45
        E 738 80 35 00
        E 74 90 54 39
        E 299 90 38 39
        E 0 90 4d 39
        E 298 90 3a 39
        E 0 90 55 39
        E 141 80 49 00
        E 0 80 36 00
        E 158 90 36 39
        E 0 90 52 39
        E 299 90 53 39
        E 298 90 4c 39
        E 58 80 2e 00
        E 241 90 39 45
        E 571 80 46 00
        E 0 80 56 00
        E 63 90 25 45
        E 0 90 40 45
        E 0 90 45 45
        E 235 80 37 00
        E 299 80 54 00
        E 101 90 26 45
        E 0 90 42 45
        E 198 80 4d 00
        E 0 80 3a 00
        E 298 80 36 00
        E 0 80 52 00
        E 299 80 4b 00
        E 0 80 53 00
        E 298 80 38 00
        E 51 90 31 45
        E 0 90 51 45
        E 408 90 2a 45
        E 0 90 2d 45
        E 0 90 3d 45
        E 176 80 55 00
        E 0 80 4c 00
        E 0 80 39 00
        E 634 80 40 00
        E 464 90 24 45
        E 0 90 3f 45
        E 0 90 44 45
        E 171 80 26 00
        E 338 90 4b 45
        E 171 80 25 00
        E 0 80 45 00
        E 339 90 38 45
        E 0 90 54 45
        E 69 80 42 00
        E 0 80 31 00
        E 0 80 51 00
        E 441 90 4d 45
        E 0 90 55 45
        E 509 90 29 45
        E 324 80 2a 00
        E 0 80 2d 00
        E 0 80 3d 00
        E 510 80 3f 00
        E 186 90 27 59
        E 0 90 53 59
        E 324 80 24 00
        E 0 80 44 00
        E 185 90 2f 59
        E 0 90 34 59
        E 324 80 4b 00
        E 186 90 33 41
        E 0 90 36 41
        E 187 90 2e 41
        E 0 90 31 41
        E 137 80 4d 00
        E 51 90 2c 41
        E 0 90 35 41
        E 187 90 30 41
        E 187 90 2b 41
        E 85 80 55 00
        E 103 90 32 41
        E 187 90 2d 5a
        E 219 80 54 00
        E 100 90 39 5a
        E 0 90 3e 5a
        E 410 80 27 00
        E 0 80 53 00
        E 509 80 38 00
        E 0 80 34 00
        E 188 80 2f 00
        E 187 80 36 00
        E 188 80 31 00
        E 187 80 2c 00
        E 0 80 30 00
        E 187 80 33 00
        E 0 80 2b 00
        E 188 80 2e 00
        E 318 80 29 00
        E 0 80 32 00
        E 0 80 2d 00
        E 5450 91 3b 32
        E 0 92 37 32
        E 613 90 40 32
        E 0 91 3c 32
        E 177 80 3e 00
        E 0 81 3b 00
        E 436 90 41 32
        E 0 92 39 32
        E 177 82 37 00
        E 0 80 40 00
        E 436 91 3e 32
        E 0 92 3a 32
        E 177 81 3c 00
        E 0 82 39 00
        E 347 80 35 00
        E 0 80 39 00
        E 2692 90 45 32
        E 0 91 40 32
        E 0 92 3c 32
        E 1149 90 43 32
        E 0 92 3b 32
        E 1149 90 42 32
        E 65 80 41 00
        E 0 82 3a 00
        E 1084 91 3d 32
        E 0 92 39 32
        E 65 80 45 00
        E 0 82 3c 00
        E 1084 90 40 32
        E 0 92 38 32
        E 65 81 40 00
        E 0 80 43 00
        E 1084 90 3f 32
        E 0 91 3b 32
        E 64 81 3e 00
        E 0 82 3b 00
        E 1149 80 42 00
        E 0 82 39 00
        E 1149 81 3d 00
        E 0 80 40 00
        E 10914 82 38 00
        E 0 80 3f 00
        E 0 81 3b 00
        E 0 b0 7b 00
        CCINTERP 32
        CHASE_CC_TAKEOFFS 1
        GUID {14A54876-AFB6-CE49-A1EF-BCB0CBBEDC22}
        IGNTEMPO 0 120 4 4
        SRCCOLOR 28
        VELLANE -1 100 0 0 1
      >
    >
  >
  <TRACK {AA654F10-A467-8D45-86CE-3EA1A1F64A2B}
    NAME "Pianoteq 8"
    PEAKCOL 16576
    BEAT -1
    AUTOMODE 0
    PANLAWFLAGS 3
    VOLPAN 0.48404242685333 -1 -1 -1 1
    MUTESOLO 0 0 0
    IPHASE 0
    PLAYOFFS 0 1
    ISBUS 0 0
    BUSCOMP 0 0 0 0 0
    SHOWINMIX 1 0.6667 0.5 1 0.5 0 0 0
    FIXEDLANES 9 0 0 0 0
    SEL 0
    REC 1 5088 1 0 0 0 0 0
    MIDI_INPUT_CHANMAP 1
    VU 2
    TRACKHEIGHT 0 0 0 0 0 0 0
    INQ 0 0 0 0.5 100 0 0 100
    NCHAN 2
    FX 1
    TRACKID {AA654F10-A467-8D45-86CE-3EA1A1F64A2B}
    PERF 0
    AUXRECV 0 0 1 0 0 0 0 0 0 -1:U 66 -1 ''
    MIDIOUT -1
    MAINSEND 1 0
    <FXCHAIN
      WNDRECT 32 136 807 690
      SHOW 0
      LASTSEL 0
      DOCKED 0
      BYPASS 0 0 0
      <VST "VST3i: Pianoteq 8 (Modartt) (1->5ch)" "Pianoteq 8.vst3" 0 "" 1031062328{565354507438717069616E6F74657120} ""
        OMN0Pe5e7f4CAAAAAQAAAAAAAAACAAAAAAAAAAUAAAABAAAAAAAAAAIAAAAAAAAABAAAAAAAAAAIAAAAAAAAABAAAAAAAAAA3RYAAAEAAAD//xAA
        zRYAAAEAAABWc3RXAAAACAAAAAEAAAAAQ2NuSwAAFrVGQkNoAAAAAlB0OHEACAQBAAAAAAAAAAAAAAAAAAAAAAAAAAAAAAAAAAAAAAAAAAAAAAAAAAAAAAAAAAAAAAAA
        AAAAAAAAAAAAAAAAAAAAAAAAAAAAAAAAAAAAAAAAAAAAAAAAAAAAAAAAAAAAAAAAAAAAAAAAAAAAAAAAAAAAAAAAAAAAAAAAAAAAAAAAAAAAAAAAAAAWHaCYE/4CAAAA
        SDgSANEVAAABAAAAEThWOMUVAABQclZLKQAAAlhGVFC1FQAACgAAADIwMjUvMDMvMTMXAAAAUGlhbm90ZXEgOC40LjEvMjAyNTAyMDS5N0NQ7U8KFsa2p3ZNwGZGZGxs
        YXQVAAB0ZHRNhgcAAA8AAABDUC04MCBSZWNvcmRpbmcAAAAABwAAAE1vZGFydHReAAAAVGhlIENQLTgwIHJlYWR5IGZvciByZWNvcmRpbmc6IGEgdG91Y2ggb2YgdHJl
        bW9sbywgYW1wLCBjb21wcmVzc29yIGFuZCBhdWdtZW50ZWQgc3RlcmVvIHdpZHRoLgAAAABEAQAADwAAAENQLTgwIFJlY29yZGluZwAAAADfBgAAR1JVVQAAAAYAAAAB
        A8BNVHJrAAAGyQD/AgsgSy5QLlJhdXNjaACQJkJ7LVOBAbBAABuQMklHgCY0IZBAbAA1aAA8YgCALUwGkDlkOIAyN4F7NR8bOTsYPEoDQDx9kEBlADVrBDxkBTllMoA5
        XAw8UQY1YSdASIQdkDI0DCY/GYAyUhkmTYE8kExwB0FgBkVlAEhhc4BFKxdINQBMSidBIoNZkC1ESoAtWoJpkEh6AEFxBj5nAEVkC0NmMoBDOSBBUhhFQAs+QCtIQoM1
        kDJHECZJNIAyXQUmYYFYkD5cBEFeADlkBjxTggiAORALPBgPPiQeQSRukC1ZZIAtWXGQO2QKQGYAN1+CPoA3JkdAMROQMkIrgDsfDJAmO0KAMlAtJjRDkDxpBUFwCDli
        gjyAQSklOSwZPD6BJ5AmXAAyYoE+QGsLPF0EOWEFNWQ+gDIyLyY5VzkpBUA7IjVBBTxJgRCQQGkANWYAPGEFOWBhgDlNHDxLBDVKBkBHg1qQNXcAPHEAQHYAOXZfgDll
        CzVjBjxcIUBSgzqQMmYrgDJjgVSQTHQLQWIARWcHSFoVR1YtgEdHcEw7IUENBkgqAEUTMpAtdEOALVNJkEp1AEN7AEB7AEdugieARxhHsEB/hC6AQDUzQyMxkEczRIBK
        P4EgR0IGkEBVgU+AQDcwkCZjDTJggm9DdQdKcwBAcgBHbUKAMkcAJkRrQzsKRz0dSlQOQDmGRpAyZQUmbhywQACBK5A1awA5bABAcAA8ZYIdgEAvADUtETk8GDxIgQ8m
        MACQPGQGNWcFQGgAOWZJgDJAETlWFjVRBjxWBUBChAKQPHsAQH4ANX8AOXsxPjwNgD5CJzlgAzVhEzxVK0BOgnaQMmAigDJeBZAmQA+AJlOBX5BIaAZMcQBFaAZBX3uA
        RUELQTgSSEEATESBXpAtZDaALVqBZ5BAdgBKdQVDewBHdjNIQQuASEhdQy0tSjkFRxM9QByBC5AyPxImQQeAMksQJlSBR5BIcAU+awBFbAhBaIF7gD4KR0EqEUg4B5At
        XACART5BLVWBa5BKcwdHcQBDdwBAdoFTgEpFJUdNAENIC0AugReQSHEFPnIGQXALRWeBWrBAfxGARSSBOJBHXSGAQScRPjw+kEU4CYBIPj+QQUJEgEdGIUU+H5A+SySA
        QU5dPkxJsEAAG5AyZQwmb4NgQGoUPFwAOWQANWpcgDlUADxRD0BRADVZBSYyTzI0gzGQNX8APHgAOX4HQH9ngDlhDTxXADVfHkBLgzeQLXQ4gC1UgViQNWwAQHAAPGQH
        OWeBJoA5KhM1MAtAOQA8PYFCkEBwBTxrBjVsBTlriFqAQCgYOT4GPD4LNTYnkCZtBjJngjM5bQY8awU1bARAcGqAJk1ksEB/GYAyURo1TUA5SDs8UABASIRIkC5LgUWw
        QAAVkDVZDzpNHT5cM0VdB0FDdIA6QTKwQH9JgD5UFEFCPkVJgwGQOi2DSkYwakpCPU1CXlFkgQuATUQXLjwwNU+BLTo9SZBNVymASgGCX5BKSBCAURs3RieBCkowBk0v
        gjOQRkQNPUYAMVULUloASVUJTVoTsEAAgiBAfy2APRhhRiw2STwVTS+BDZBGSkiAUg5CRjeCLZA4S4MpPWp7gDEIFDgpTz0/apBGXoJwSUmBQoBJVS1GN4MBkDAugQQ3
        WmewQAAEkE1ZBUNTC0hbDUZagjOwQH+BFYBDLoEiRiJ1kENXN0YgPYBNAgBGHB5IIzdDNIEokDxlUoA8Z4I5kEZQBk1eBUhYgiaAN0IRMBlwRiIHSDcAkENhFoBNMIEQ
        Q0yEPZBMWxgvYQZJWABFYQRCU06wQACCTUB/NIBCMIEcRR8tSSkATClSkEJWgReAQjWDZC9PhXiQLlUAsEAAI5BITQJEQgZLPwVBRYFwsEB/g1WAQQYVLimDW5BBPoVl
        gEQPEUEtFkhIMksvg3uQLBY/MzZwODcOsEAAAJBEPxKAMz4QkEhNC0s0DU9FgWKwQH+EHYA4J4FELBlqRBeBVJBERBeASBUDTzoySy9sRD+DIJArGXEyQIERsEAAIJA3
        Q3BBQGpHJyewQH+BBIBBLgmQSz88gEdMggo3E4FGSwYPkEcfgQeARywAkEFNgVOAQTuBe5A3OoIFPjiFZYA3D4E/Pi4QkDswiFeAMgGBXCsOixo7QoEgkCY5gXCwQAA3
        kC0/gT6wQH+BM5AyUYFIgDJbgQeQNkQigC0+GiZEgXc2JzGQOVGDGD5aMoA5PIE8PjyBIpBCQoMhRUqCM4BFL3CQSlODI4BKK4EnkEkVQoBJEIIkkEpAgXOASk2DC5BR
        P4dhgFEBhABCP6dcsEAAAP8vAFByc1XeDQAASQAAAAUAAABjcC04MAAAAAAFAAAAQ1AtODAAAAAAAAAAAHByb21UAAAAAQAAAAEAAAABAAAABQAAAGNwLTgwAAAAAAUA
        AABDUC04MAAAgD8GAAAAAAAAAAAAAAAAAAAAAAAAAAAAAABURv////8AAAAAAAAAAAAAAAAAAAAAcnlhbBAAAAACAAAAAAAAAAAAAAD/////b2xvcxEAAAABAAAAAQAA
        AEYAAAAAAAAAAAEAAAABAAAAAAAAAAAAAAABAAAAAAAAAAAAAAABAAAAAAAAAAAAAAABAAAAAAAAAAAAAAABAAAAAAAAAAAAAAABAAAAAAAAAAAAAAABAAAAAAAAAAAA
        AAABAAAAAAAAAAAAAAABAAAAAAAAAAAAAAAAAAAAA4AAAEADAAAAAACoQQAAcEIAANhCAwAAAAAAAACCAwAAAAEAAAAAAAAAAAAAAAMAAAAAAAAAAAAAAAAAAAADAAAA
        AAAAAAAAAAAAAAAAAwAAAAEAAAABAAAAAQAAAAAAgEAAAAAAAQAAAAAAAACxORA+A4AAAFAAAHBCAQAAAAAAgD8BAAAAAAAAAAAAAAAAAKDAAACgQAAAukIAAAAAA4AA
        AFAAAHBCAQAAAAAAAAAAAAAAAAAAAAAAAAABAAAAAAAAAAAAAAAAAKDAAACgQAAAAAADgAAAYAIAAAAAAKhBAACuQgIAAAAAAAAAgQOAAABgAgAAAAAAqEEAAK5CAgAA
        AAAAgD+BgAAAAAAAAADSBAAAAAAAAAAAAAAAAACAAAAAPwAAgD8DgAAAUAAAcEIBAAAAAAAAAAOAAABgAgAAAAAAqEEAAK5CAgAAAAAAAACBA4AAAGACAAAAAACoQQAA
        rkICAAAAAACAP4ECAAAAAQAAAFUAAABFcXVhbCB0ZW1wZXJhbWVudApUaGUgc3RhbmRhcmQgdHVuaW5nLCB3aGVyZSB0aGUgb2N0YXZlIGlzIGRpdmlkZWQgaW4gMTIg
        ZXF1YWwgc3RlcHMuDAAAAAAAyEIAAEhDAACWQwAAyEMAAPpDAAAWRAAAL0QAAEhEAABhRAAAekQAgIlEAACWRAEAAAAAAAAABAAAAAAA3EM8AAAARQAAAEYAAAAAfwAA
        AAAAAAAHAAAARGVmYXVsdAAAAAAAAAAAAgAAAAOAAABgAgAAAAAAqEEAAK5CAgAAAAAAAACBAAAAAAAAAAAAAIA/AQAAAAEAAAABAAAADAAAAAOAAABIAQAAAAAAgD8A
        AAAAAACAPwOAAABgAgAAAAAAqEEAAK5CAgAAAAAAgD+BA4AAAGACAAAAAACoQQAArkICAAAAAACAP4EDgAAAUAAAekQBAAAAAAAAAAOAAABQAAB6RAEAAAAAAIA/AAAA
        AAOAAABQAABwQgEAAAAAAAAAAACAPwOAAABQAABwQgEAAAAAAAAAAQAAAAAAAAAAAAAAzczMvc3MzD0BAAAAAAAAAAAAAAAAAAC/AAAAPwAAgD8DgAAAQAMAAAAAAKhB
        AABwQgAA2EIDAAAAAACAP4IAAAAAA4AAAGACAAAAAACoQQAArkICAAAAAACAP4EAAIA/A4AAAGACAAAAAACoQQAArkICAAAAAACAP4EAAPBBA4AAAGACAAAAAACoQQAA
        rkICAAAAAAAAAIEAAIA/A4AAAEADAAAAAACoQQAAcEIAANhCAwAAAAAAgD+CA4AAAEgBAAAAAAAAAAEAAAADgAAAYAIAAAAAAAAAAACAPwIAAAAAAAAAAQAAgD8DgAAA
        YAIAAAAAAAAAAACAPwIAAAAAAIA/gQOAAABABAAAAAAAAAAmk0k+/n4/PwAAgD8EAAAAAAAAAIEAAIA/gQOAAABgAgAAAAAAAAAAAIA/AgAAAAAAAACBAAAAAM3MTD4A
        AAAAAAAAAAAAAAAAAAA/AAAAAGZmpj8DgAAAYAIAAAAAAKhBAACuQgIAAAAAAIA/gQAAgL8AAAA/A4AAAEgBAAAAAACAPwEAAAAAAAAAAQAAAAoAAABMb25nIFBsYXRl
        CQAAAGxvbmdwbGF0ZQAAQEAAAMBBAACAPwAAAD8AAAAAAAAAAAAAAAAAAAAAAAAAAAAAAAAAAKpDAACAPwAAgD8BAAAABgAAAAAAgD8AAIA/A4AAAGBYAAAAAACoQQAA
        gD9YAAAAAACAP5WPwnU/LlyPgj8AAIA/j8KVP65HIT9I4Zo/16OQP7gehT+4HkU/ZmaGPwrXgz9SuF4/zcxMP65HgT8AAIA/rkeBP4/ClT/sUXg/uB6FPwAAgD8K14M/
        pHC9P+xRmD8K16M/MzOTP2Zmhj8K14M/4XpUPxSuhz9I4Xo/uB6FPwrXIz8zM3M/FK5HP1yPgj8K14M/j8J1P1yPgj9I4Xo/KVxPPwrXgz/sUXg/SOF6P7gehT+kcH0/
        XI+CP0jhej9I4Xo/gWZmhj8QAACAP6RwfT9cj4I/rkeBP7gehT8AAIA/pHB9P+xReD+uR4E/CteDP6RwfT+uR4E/CteDPylcjz9I4bo/PQoXQAOAAABAAwAAAAAAqEEA
        AHBCAADYQgMAAAAAAIA/ggAAAAADgAAAYAIAAAAAAKhBAACuQgIAAAAAAAAAgQEAAAAAAAAAAQAAAAAAAD8AAABAAwAAAAAAgD8AAIA/AACAPwOAAABAAwAAAAAAqEEA
        AHBCAADYQgMAAAAAAIA/ggOAAABAAwAAAAAAqEEAAHBCAADYQgMAAAAAAIA/ggOAAABAAwAAAAAAqEEAAHBCAADYQgMAAAAAAIA/ggAAgD8AAIA/BwAAAAAAgD/NzEw+
        ZmZmPwAAwD8AAIA+CAAAAAAAAAAAAAAAAAAAAAAAAAAAAAAAAAAAAAAAAAAAAAAAA4AAAEADAAAAAACoQQAAcEIAANhCAwAAAAAAgD+CA4AAAEADAAAAAACoQQAAcEIA
        ANhCAwAAAAAAgD+CA4AAAEADAAAAAACoQQAAcEIAANhCAwAAAAAAgD+CA4AAAEADAAAAAACoQQAAcEIAANhCAwAAAAAAgD+CAQAAAAEAAAAAAHBCA4AAAFAAAAAAAQAA
        AAAAAAAAAAA+A4AAAGACAAAAAACoQQAArkICAAAAAACAP4EBAAAAAAAAAAEAAAAzMzM/ZmamPwEAAAAAAAAAAQAAADMzMz9mZqY/AQAAAAAAAAABAAAAMzMzP2Zmpj8B
        AAAAAAAAAAEAAAAzMzM/ZmamPwEAAAAAAAAAAQAAADMzMz9mZqY/AQAAAAAAAAAAAPBCAAAAAA4AAAAAAAA/zczMPc3MTD4AAAA/AwAAAAAAAAADgAAASAEAAAAAAAAA
        AAAAAAOAAABIAQAAAAAAAAAEAAAAAgAAAAMAAAAEAAAAAQAAAAEAAAAAAIA/AACAPwEAAAABAAAAAQAAAAEAAAABAAAAAACAPwAAAAAAAIBAAAC0QkYAAAAAA4AAAEgB
        AAAAAAAAAAAAAAADgAAASAEAAAAAAAAAAAAAAAAAAAADgAAASAEAAAAAAAAAAAAAAAMAAAABAAAAAQAAAAAAAAAOAAAAEAAAAAAAAAAAACBAAACAPwAAAAAAAAA/AAAA
        AAAAAAAAAAAAAAAAAAAAAAAAAAAAAAAAAAAAAAAAAAAAAAAAAAAAAAADAAAACAAAAAEAAAAAAAAADgAAABAAAAAAAAAAAACAPwAAAAAAAPDBmpmZvpqZmb4AAIA/AAAA
        AAAAAAAAAAAAAAAAAAAAAAAAAAAAAAAAAAAAAAAAAAAAAwAAAAkAAAABAAAAAAAAAA4AAAAQAAAAAAAAAAAAAD8AAMA/AABAQAAAcMEAACBBAADIQwAAoEAAAAAAAAAA
        AAAAAAAAAAAAAAAAAAAAAAAAAAAAAAAAAAEAAAABAAAAs+8yPwAAEMEAAAAAAwAAAAEAAAAAAAAAAQAAAAUAAAAEAAAAAQAAAAMAAABmZqY/AACAP5qZmT8AALRCAAAA
        AAAAAAAFAAAAAAAAAAAA8MEAAMDCAADAwgAAwMIFAAAAAAAAAAAAAAAAAAAAAAAAAAAAAAAFAAAAAAAAAAAAAAAAAAAAAAAAAAAAAAABAAAAAAAAAAQAAAABAAAAAwAA
        AAAAwD8AAAA/mpmZPwAAtEIAAAAAAAAAAAUAAAAAAPDBAAAAAAAAwMIAAMDCAADAwgUAAAAAAAAAAAAAAAAAAAAAAAAAAAAAAAUAAAAAAAAAAAAAAAAAAAAAAAAAAAAA
        AAEAAAAAAAAABAAAAAAAAAADAAAAj8L1Pz0KV78fhWs/AAC0QgAAAAAAAAAABQAAAAAAQMEAAEDBAABwwgAAcMIAAHDCBQAAAAAAAAAAAAAAAAAAAAAAAAAAAAAABQAA
        AAAAAAAAAAAAAAAAAAAAAAAAAAAAAQAAAAAAAAAEAAAAAAAAAAMAAAAzMzO/XI/CPq5HYT8AAAAAAAAAAAAAAAAFAAAAAABAwQAAQMEAAHDCAABwwgAAcMIFAAAAAAAA
        AAAAAAAAAAAAAAAAAAAAAAAFAAAAAAAAAAAAAAAAAAAAAAAAAAAAAAABAAAAAAAAAAQAAAAAAAAAAwAAALgexT89Clc/rkfhPwAAAAAAAAAAAAAAAAUAAAAAAEDBAABA
        wQAAcMIAAHDCAABwwgUAAAAAAAAAAAAAAAAAAAAAAAAAAAAAAAUAAAAAAAAAAAAAAAAAAAAAAAAAAAAAAAEAAAAAAAAAAQAAAAAAAAABAAAAAwAAAKRwPT8AAAAASOG6
        PwAAkEEAAAAAAAAAAAAAAAABAAAAAAAAAAAAAAAAAAAASlVDRVByaXZhdGVEYXRhAAEBQnlwYXNzAAEBAwAdAAAAAAAAAEpVQ0VQcml2YXRlRGF0YQAAAAAAAAAA
        AAAQAAAA
      >
      PRESETNAME "CP-80 Recording"
      FLOATPOS 32 149 592 662
      FXID {1BDB9480-17FE-3248-A735-99C492CB791B}
      WAK 0 0
      BYPASS 0 0 0
      <AU "AU: ValhallaSupermassive (Valhalla DSP, LLC)" "Valhalla DSP, LLC: ValhallaSupermassive" "" 1635083896 1934451059 1866754414
        6QMAAAAAAAACAAAAAQAAAAAAAAACAAAAAAAAAAIAAAABAAAAAAAAAAIAAAAAAAAAYQYAADw/eG1sIHZlcnNpb249IjEuMCIgZW5jb2Rpbmc9IlVURi04Ij8+CjwhRE9D
        VFlQRSBwbGlzdCBQVUJMSUMgIi0vL0FwcGxlLy9EVEQgUExJU1QgMS4wLy9FTiIgImh0dHA6Ly93d3cuYXBwbGUuY29tL0RURHMvUHJvcGVydHlMaXN0LTEuMC5kdGQi
        Pgo8cGxpc3QgdmVyc2lvbj0iMS4wIj4KPGRpY3Q+Cgk8a2V5PmRhdGE8L2tleT4KCTxkYXRhPgoJQUFBQUFBQUFBQUFBQUFBU0FBQUFNRDhBQUFBQUFBQXhQb0FBQUFB
        QUFESStra2tsQUFBQU16OEFBQUFBQUFBMEFBQUEKCUFBQUFBRFUvZ0FBQUFBQUFOajhBQUFBQUFBQTNBQUFBQUFBQUFEZy9nQUFBQUFBQU9RQUFBQUFBQUFZZlA0QUFB
        QUFBCglCaUErakRQOEFBQUdJVDhBQUFBQUFBWWlQU3FxcXdBQUJpTUFBQUFBQUFBR0pBQUFBQUFBQUFZbEFBQUFBQUFBQmlZQQoJQUFBQQoJPC9kYXRhPgoJPGtleT5l
        bGVtZW50LW5hbWU8L2tleT4KCTxkaWN0PgoJCTxrZXk+MTwva2V5PgoJCTxkaWN0PgoJCQk8a2V5PjA8L2tleT4KCQkJPHN0cmluZz5JbnB1dDwvc3RyaW5nPgoJCTwv
        ZGljdD4KCQk8a2V5PjI8L2tleT4KCQk8ZGljdD4KCQkJPGtleT4wPC9rZXk+CgkJCTxzdHJpbmc+T3V0cHV0PC9zdHJpbmc+CgkJPC9kaWN0PgoJPC9kaWN0PgoJPGtl
        eT5qdWNlUGx1Z2luU3RhdGU8L2tleT4KCTxkYXRhPgoJVmtNeUlmMEJBQUE4UDNodGJDQjJaWEp6YVc5dVBTSXhMakFpSUdWdVkyOWthVzVuUFNKVlZFWXRPQ0kvUGlB
        OFZtRnMKCWFHRnNiR0ZUZFhCbGNtMWhjM05wZG1VZ2NHeDFaMmx1Vm1WeWMybHZiajBpTXk0d0xqQWlJSEJ5WlhObGRFNWhiV1U5CglJa1JsWm1GMWJIUWlJRTFwZUQw
        aU1DNHlNRE01T1RrNU9UWXhPRFV6TURJM0lpQkVaV3hoZVZONWJtTTlJakF1TWpVaQoJSUVSbGJHRjVUbTkwWlQwaU1DNHlPRFUzTVRReU9UZzBPRFkzTURrMklpQkVa
        V3hoZVY5TmN6MGlNQzQxSWlCRVpXeGgKCWVWZGhjbkE5SWpBdU56STFNREF3TURJek9EUXhPRFUzT1NJZ1EyeGxZWEk5SWpFdU1DSWdSbVZsWkdKaFkyczlJakF1CglO
        amd4T1RrNU9UZ3hOREF6TXpVd09DSWdSR1Z1YzJsMGVUMGlNQzR6TlRFd01EQXdNVEE1TmpjeU5UUTJJaUJYYVdSMAoJYUQwaU1TNHdJaUJNYjNkRGRYUTlJakF1TUNJ
        Z1NHbG5hRU4xZEQwaU1TNHdJaUJOYjJSU1lYUmxQU0l3TGpJM016Z3oKCU5ERXdPVE13TmpNek5UUWlJRTF2WkVSbGNIUm9QU0l3TGpVaUlFMXZaR1U5SWpBdU1EUXhO
        alkyTmpZM09UQTRORE13CglNU0lnVW1WelpYSjJaV1F4UFNJd0xqQWlJRkpsYzJWeWRtVmtNajBpTUM0d0lpQlNaWE5sY25abFpETTlJakF1TUNJZwoJVW1WelpYSjJa
        V1EwUFNJd0xqQWlJRzFwZUV4dlkyczlJakFpSUhWcFYybGtkR2c5SWpneU1DSWdkV2xJWldsbmFIUTkKCUlqUXpOU0l2UGdBPQoJPC9kYXRhPgoJPGtleT5tYW51ZmFj
        dHVyZXI8L2tleT4KCTxpbnRlZ2VyPjE4NjY3NTQ0MTQ8L2ludGVnZXI+Cgk8a2V5Pm5hbWU8L2tleT4KCTxzdHJpbmc+VW50aXRsZWQ8L3N0cmluZz4KCTxrZXk+c3Vi
        dHlwZTwva2V5PgoJPGludGVnZXI+MTkzNDQ1MTA1OTwvaW50ZWdlcj4KCTxrZXk+dHlwZTwva2V5PgoJPGludGVnZXI+MTYzNTA4Mzg5NjwvaW50ZWdlcj4KCTxrZXk+
        dmVyc2lvbjwva2V5PgoJPGludGVnZXI+MDwvaW50ZWdlcj4KPC9kaWN0Pgo8L3BsaXN0PgoEAAAAZHVvAAAAAAAA
      >
      PRESETNAME duo
      FLOATPOS 64 306 820 488
      FXID {81992BD9-6484-2340-9F4C-C8B888C3C46D}
      WAK 0 0
    >
  >
  <TRACK {9DF55AC6-CDE8-504C-BC83-FF8704EEBEDD}
    NAME "Pianoteq 8"
    PEAKCOL 16576
    BEAT -1
    AUTOMODE 0
    PANLAWFLAGS 3
    VOLPAN 1.02027317611641 0 -1 -1 1
    MUTESOLO 0 0 0
    IPHASE 0
    PLAYOFFS 0 1
    ISBUS 0 0
    BUSCOMP 0 0 0 0 0
    SHOWINMIX 1 0.6667 0.5 1 0.5 0 0 0
    FIXEDLANES 9 0 0 0 0
    SEL 0
    REC 1 5088 1 0 0 0 0 0
    MIDI_INPUT_CHANMAP 0
    VU 2
    TRACKHEIGHT 0 0 0 0 0 0 0
    INQ 0 0 0 0.5 100 0 0 100
    NCHAN 2
    FX 1
    TRACKID {9DF55AC6-CDE8-504C-BC83-FF8704EEBEDD}
    PERF 0
    AUXRECV 0 0 1 0 0 0 0 0 0 -1:U 33 -1 ''
    MIDIOUT -1
    MAINSEND 1 0
    <FXCHAIN
      WNDRECT 32 136 807 690
      SHOW 0
      LASTSEL 0
      DOCKED 0
      BYPASS 0 0 0
      <VST "VST3i: Pianoteq 8 (Modartt) (1->5ch)" "Pianoteq 8.vst3" 0 "" 1031062328{565354507438717069616E6F74657120} ""
        OMN0Pe5e7f4CAAAAAQAAAAAAAAACAAAAAAAAAAUAAAABAAAAAAAAAAIAAAAAAAAABAAAAAAAAAAIAAAAAAAAABAAAAAAAAAAzD4AAAEAAAD//xAA
        vD4AAAEAAABWc3RXAAAACAAAAAEAAAAAQ2NuSwAAPqRGQkNoAAAAAlB0OHEACAQBAAAAAAAAAAAAAAAAAAAAAAAAAAAAAAAAAAAAAAAAAAAAAAAAAAAAAAAAAAAAAAAA
        AAAAAAAAAAAAAAAAAAAAAAAAAAAAAAAAAAAAAAAAAAAAAAAAAAAAAAAAAAAAAAAAAAAAAAAAAAAAAAAAAAAAAAAAAAAAAAAAAAAAAAAAAAAAAAAAAAA+DKCYE/4CAAAA
        SDgSAMA9AAABAAAAEThWOLQ9AABQclZLKQAAAlhGVFCkPQAACgAAADIwMjUvMDMvMTMXAAAAUGlhbm90ZXEgOC40LjEvMjAyNTAyMDQOeW6bwrzbD+zNERgQI2nrZGxs
        YWM9AAB0ZHRNKQYAABUAAABIQiBTdGVpbndheSBEIEZlbHQgSUkAAAAABwAAAE1vZGFydHQzAAAARmVsdCBwaWFubyBwcmVzZXQgdmFyaWFudCAocmV2ZXJzZWQgQ2Vs
        ZXN0ZSBwZWRhbCkuAAAAAEQBAAAVAAAASEIgU3RlaW53YXkgRCBGZWx0IElJAAAAAKEFAABHUlVVAAAABgAAAAEDwE1UcmsAAAWLAP8CJVBpZXQgRGUgUmlkZGVyIC0g
        RmVsdCBwaWFubyBtaW5pIGRlbW+DYJBDKYEONSUcRTmBLExGghewQAITQAB2QH+IOZA8MIEZRQAmQwCMQzwACTUAgj9FSIF0TACGW0hPbEUAhh44OSRIAIEXPy0+QiVn
        RiQ3sEAAZZBJP4M8sEB/hgGQTjNjSQAoRgCEG0IAgTlOAII/STuBZkkAhBc/AH44AINWRkaFPUYAg18yNYFeOTA/QDAtsEAAMJBDOoEKRzqDB7BADBRAf4VVkEAAE0cA
        CUMAgRdMP4J7TACFT0cxCTYpA0MwhTNDAIJbRwCGMUU7gV4yADU5AIEqNgCCdkUAhnewQABIkDorDTMyBkM0CT4ygxywQAYUQAB0QH+FI5A3KGM6AAozAFA3AIh5Py2G
        dz8AhmYzIIsHMwCBDz4AakMAlC85LYFnQEIcQzwmsEAAQZBHLYEOSk+BerBAIhJAf4MhkEoAI0MACkcAg3lPTIkJTkQcTwCLGk9AazkAJkAAEk4AhU9PAIE8Oh6COEAw
        LU0rCUovAEU2ALBAAIQ1QH+JNpBRPkhNAII7SgCDC0AACUUAhCRKOQA+NIoAPgAtOgCDREU1hCZRAC1KAEhFAIYdQzR+RjoaPCYKMDU3sEAAQJBLTwCwQBwUQACCQkB/
        gweQMACCGDwAWE1KUEsAVUYALEMAWE0AhmSwQABqkD8wAzUtAEoxCUU5AEE0hCOwQH+DEZA/AIINRQCCBDk7AEEALDUAI0oAhyJIRoFUOQAdSACHPT4vBi4vADotA0A0
        Y7BAAIQcQAwTQH+FPJBBJXdAAIRtQQA/PgCEYUUwhRVFAIUBSiSELkoAiglNJVlWJpJcLgCBMToAixJWAIMkVTyEUlZAY1UAQE0AgiZWAGpCNYFESSYksEAAgSWQVUAD
        TEOCCLBAHBNAAGNAf4VDkFFEP0wAClUASFEAhRtFQyRORElCAC1JAIIhRQCCalFMWk4AgiRRAINWsEAAYpBEIgBIKh1QOABBL4MdsEB/hUCQVC4/UACCA1QAhlpQKApL
        Jok9UABZSAAASwAAQQCBMkQAI1RDhAtUAIMqNB6BXUoxCjskLrBAAC2QQCYJTzuBGFM8SbBADAlAAGdAf4JMkDQAGjsAQE8AGkAALEoAClMAg0RPOIFeTwCET0A0BEM1
        E0w+hD9MAIUiSkSCGEMAgRdAAIEPSgCFIjo0gTQ9NXxBLQqwQAAjkEQzAEkyg1+wQH+FTJBNIEBEAEBJAIMIOgB8QQBiPQA1TQCEMEgvCUMtADwjEzktCbBAAINgQH+H
        P5BNLYEYQwAcSAAjPAAKOQCCUU0Ahz+wQAABkEcyA0wxBDsnA0EtCjgpg2SwQBYTQH+NVZBMAC5BAClHAIFFQT6BIkdMgR5KbIZFOACBaDsACUxNZUoAgjhHAC1MAIEO
        NzZIQQBrOjuBLD5CgQqwQABQkEg4EkVGCbBABgpAAINwQH+DAZBKPC1IAHdFAIEoSgCFcUEwAEY5LbBAAGdAEhNABhNAAIEbQAYKQAB5QH+DWJA+AIEXNwATOgCBDkMc
        SUEARkYAhANDAIIKMUKBV7BAAByQOC08RywEQSwLRDGCWLBAGBJAACNABgpAAH5Af4VxkDEAHEcAHEEAGkQAdjgAgzwwNoFesEAACZA6H0BCHQtFJxw+JoNksEB/hyKQ
        MABiPgAcOgAcQgAjRQCLJjUogVSwQAAakEomAD8pC0MrAEcsgmWwQH+BOZBDACRHAFlKAIZmTyoAVjmEZFM1N1YAgV5PAD9TAIJ1WyqBTFsAhU9fK4YFVjEKXwCGZ1Mr
        CVYAkBxPG4toUwAuTwAcPwA+NQCNZLBAAFBANBRAABNAARJAAIEqQAETQAASQAYTQAAA/y8AUHJzVSo3AABJAAAAAgAAAGQ0AAAAABoAAABHcmFuZCBTdGVpbndheSBE
        IChIYW1idXJnKQAAAAAAAAAAcHJvbWYAAAABAAAAAQAAAAEAAAACAAAAZDQAAAAAGgAAAEdyYW5kIFN0ZWlud2F5IEQgKEhhbWJ1cmcpAACAPwYAAAAAAAAAAAAAAAAA
        AAAAAAAAAAAAAFRG/////wAAAAAAAAAAAAAAAAAAAAByeWFsEAAAAAIAAAAAAAAAAAAAAP////9vbG9zEQAAAAEAAAABAAAARgAAAAAAAAAAAQAAAAEAAAAAAAAAAAAA
        AAEAAAAAAAAAAAAAAAEAAAAAAAAAAAAAAAEAAAAAAAAAAAAAAAEAAAAAAAAAAAAAAAEAAAAAAAAAAAAAAAEAAAAAAAAAAAAAAAEAAAAAAAAAAAAAAAEAAAAAAAAAAAAA
        AAAAQEADgAAAYGkAAAAAABBBAACAP2kAAADUznPAaFLkoMDwvEbA4zeKwBTMPsCUgWDARtUMwJzs/r9QNQLA1omLwEBOIMBs+ei/kv4cwNTPaMDOIpHAkMOYwJJ/ycBC
        z53ABN0TwOi6ScD08BvAfM8owIReHcDIwe6/5A3BwOCdD8BE/h3AQKHcvQBubcDU4kvAgBi4v1DE1b4QWIS+oOiZPmC6pMDaVJ7ATG0LwCCYSr98blzALGMQwADIc8Bg
        OF6/TJWUv0CS1b88R5u/TKfJP9Bczb4ovGu/ZEQJQBTZsz/4n3w/fKXvv8CtqD4oqhfA+KUCwKiJDMDg9Jq+ILn9vlhJFL+8lfO/UP+QP5Dp/D5kxGPAnIXFvwAAeT8u
        UAHAGASlv8ZcF8AyuYvASIMJP0DxyT2Ecr6/NGtZwOxL5L+ElFnA5NiswNg9Ib+AVQO9mL0yv1xnTcBovEnAQGitwJx/87/AQh0/gO70PSjYhL+gRJm+BvYSwLyFh78c
        3s8/FBm5P/yySUCsMlRArvIrQB5EJ0Cg2aI/IMt2PoD/777ouRA/wIxFPgCQID0sgibAKDE1wDxeq8C/vJzAAwAAAAEAAAAAAAAAAAAAAAMAAAAAAAAAAAAAAAAAAAAD
        AAAAAAAAAAAAAAAAAAAAAwAAAAEAAAABAAAAAQAAAIYVgD8AAAAAAQAAAAAAAADcfyI+A4AAAGBpAAAAAAAQQQAAgD9pAAAAYaZJP43TM0w/gwjSTj+CpIFRPw9ZQ1Q/
        3xdXP/n/WT94/Fw/Mw5gPxA2Yz8BdWY/CMxpPxA2Yz94/Fw/WUNUP/n/WT8zDmA/EDZjPwF1Zj8BdWY/AgjMaT82PG0/NjxtPwKoxnA/lWx0P5VsdD8CPC94P/kPfD/5
        D3w/DR0IgD+9OoQ/626GPzm2iD87go0/IQmQP4ynkj/MXpU/hh2bPyQonj/nUaE/uJykP6YKqD+mCqg/DfCdqz8GWa8/jz6zP3BRtz8rDMA/TLvEP2GmyT8I0s4/WUPU
        P/n/2T8zDuA/AXXmPzY87T82PO0/AZVs9D+VbPQ/AfkP/D/5D/w/gsIYAkCD624GQJMBAAAAAAAAAAAAAAAAAKDAAACgQAAAAEMAAAAAA4AAAFAAAHBCAQAAAAAAAAAA
        AAAAAAAQwQAAQEEBAAAAAQAAAAAAAABwnhnB0Ke/QAAAAAADgAAAYAIAAAAAAKhBAACuQgIAAAAAAAAAgQOAAABgAgAAAAAAqEEAAK5CAgAAAAAAgD+BgAAAADMzMz/S
        BAAAAAAAAAAAAAAAAACAAAAAP2ZmZj8DgAAAYFgAAAAAAKhBAACAP1gAAAC4wQJBVyDgBEEYtBVBoJoTQRh0KkE4NhZByLoQQRjSD0Fg9BBBCEoHQfBO/ECIbQ9B4C0J
        QTi+FkH4XBRBcBsGQQiYBkFQHidBWMkDQbiwDEHIUgFBmJcRQSDV40BYsg9BUMf+QMAEAkFgH91AoLwJQdBf40AwBdNAYOb6QPD15ECAW81AABP7QKDH7kCAcepAAMLm
        QODe0kCgDthAwInIQJDxy0DglMdAoPDXQGBP40Ago9hAQArHQLBYxkDQkd9AkPDLQACb2EDAVMZAwN3cQFA+y0BA8dxAkL7cQCAl9UCAos9AoHrpQKDzz0BAZdxAYIPj
        QLB510DAhtlAUNDsQNDmyEBQCtFAEO/VQKD310AQy8BAQHHTQMBc30BgEbhA8HavQIB56kDQ0NZA0BzMQOCH5EAwCuZAgEatQECr30DAc8BA0E7aQKDs0EDgFMVA4G7G
        QMD42kDw6N1AwPntQAOAAABgWAAAAAAAqEEAAIA/WAAAAIhZhb9XAMduvUDSBMAY5Yu/kI5jP5C/Xj+w4+w/QG8tvoCuQr4Y6+Q/WAyAwTBHPj+o5qO/8IUTwBBmKz8Q
        qiQ/MNnOP5SNncEgCA8/IFzxvlCnAL+gcsS/YGkRv4Aazb+gpNG/QLKmPiBjkz5gx2vBAMKaP5CA6r+4GJA/OOZcwQBJHD14dQDAIFFyP6A9Zj8ALxi+mE9OwYCsfL5E
        /RLAeBkbwaC3y74A1OW+SMa9wQAWDb8MiSbAcEDFwPAKNL84NXDAQM5wwQhULcEgqc3ASJQ8wAD46jsIH8fBUEdFwFwMCMAIH8fBABBWvggfx8FkbFLASNYUwNmWi8Ag
        UNfBQC3dvtRLysEW64/AP+qQwBCEx79Yt7rBmGxnwAhV0r+E2SrAgMCuwawMLsCYI9+/sCdEv4x1csBs7KjBDCl1wGDHWb+Qv16/oON4wHQNesDALXvA5EQ8wDxTfcAk
        WX7AA4AAAGACAAAAAACoQQAArkICAAAAAACAP4ECAAAAAQAAAFUAAABFcXVhbCB0ZW1wZXJhbWVudApUaGUgc3RhbmRhcmQgdHVuaW5nLCB3aGVyZSB0aGUgb2N0YXZl
        IGlzIGRpdmlkZWQgaW4gMTIgZXF1YWwgc3RlcHMuDAAAAAAAyEIAAEhDAACWQwAAyEMAAPpDAAAWRAAAL0QAAEhEAABhRAAAekQAgIlEAACWRAEAAAAAAAAABAAAAAAA
        3EM8AAAARQAAAEYAAAAAfwAAAAAAAAAHAAAARGVmYXVsdAAAAAAAAAAAAgAAAAOAAABgaQAAAAAAEEEAAIA/aQAAAOIUN8IJ134cwqwm+sHmJd3BtOXVwUfPrMGeuaDB
        To6IwShwTcE4xUPBOMVDwYGEGR3BV8iF2cDIMQ3B4NrPwFDZlcDANKHAgI65wGChHsBwBUvAAFz7vxj4jcBwBUvASPmYwICDAsCATsPAIMvJv0B0o78AJMm/QHEwwAAR
        TD8gnqK/IEq5P6DJcMBgHYw/sG9PwMAcoj9AB1vAwLMJQIDlE8AA2pY9wEmAP4AAjr4AFGS+wKZWP0BDq79AXIS/ALQMQMDfFsCgMNe/EMgdQAAeSz+Ar+a/gBALPwA+
        Nr+Q9y/AAJBtPoA9kz8AINu/QA2jQFCeL8AAnKs9gNvzv4AZOEAAgH1AUB4AwEB8OUCgOeC/YGLJvwCAkzpA7Jc/wBAjwEDMxr+A9eG/ANN5P6Acwr+ALpg+wD+sP1Dm
        PkCAgke/MBkVwOAw2L9AvI8/oF5PQABZyb+AafY/AJhav8DNc7+wXBXA4LT0v7AJKEAAyhs/oOhVQCC1F0BAhq0/4ODGv/C7F8BABDq/4MGyv+DBsr+EAAAAAAAAAAAA
        AIA/AQAAAAEAAAABAAAAHwAAAAOAAABIAQAAAAAAgD8AAAAADPTcPwOAAABgWAAAAAAAqEEAAIA/WAAAAAAAAACPCvqXPwEAAAAAAAAAAAJlSJI/AAAAAAAAAABCjWmQ
        PwAAAAB2KkQ6Fv0MPMEqlD/d0kk9XnWXPUxynD3+5pk/l80rPvmpfj7BKpQ/NOHRPs7ZAj8ZgB0/ey1EPwQScz80mG0/Z2JxP4dUGj9fFBU/OGdiP0/MNT+KUl4/Byzx
        Pm3/1j7WQs0+azxbP3PTFD4pNCM/Co+aPky/pT8NSAo/wSqUP+7Zsj7WPLk+cDJWPq+3Jz36uPc+9MZFPnm9jj9PTDs+akq/Pr+Pjj9a6I0/EGJiPtVhyj0AhI8/CzWK
        P10PCT+0xIE+33wkPo1LyTt5Dbs8a09ZPzeqPT7b5Ec+TfE7PyeYJj5gU28/kyM5P4JrNT7iSB8+CAU6PuplRz+2f288A4AAAGACAAAAAACoQQAArkICAAAAAACAP4ED
        gAAAAAYAAAAAAPVCAAB6QwAA60MAwI9EAAAbRQDwh0UDAAAABAAAAAEAAAACAAAABgAAAAUAAAAGAAAAMzNDwQUAAMDAAABgwAAAMEGamSlBAABAwAOAAABgAgAAAACA
        bUQAACBEAgAAAIXrkT4B16NwPgAAAAADgAAAUAAAcEIBAAAAAAAAAAAAgD8DgAAAUAAAcEIBAAAAAAAAAAEAAAAAAAAAAAAAAM3MzL3NzMw9AQAAAAAAAAAAAAAAAAAA
        vwAAAD8AAIA/A4AAAEADAAAAAACoQQAAcEIAANhCAwAAAAAAgD+CAAAAAAOAAABgAgAAAAAAqEEAAK5CAgAAAAAAAACBAACAPwOAAABgAgAAAAAAqEEAAK5CAgAAAAAA
        gD+BAAA0QgOAAABADwAAAAAAqEEAANBBAAD4QQAAEEIAAEBCAABwQgAAkEIAAKhCAAC0QgAAwEIAAMhCAADQQgAA1EIAANZCAADYQg8AAAAAAIDABAAAQMAAAADAAACA
        vwAAAAAAAAAAgQAAAEAHAACAQAAAwEAAACBBAACAQQAAoEEAAMhBAAAAQgAAgD8DgAAAQAMAAAAAAKhBAABwQgAA2EIDAAAAAACAP4IDgAAAQAUAAAAAAPBCAAB6QwAA
        ekQAAMhEAMAoRQUAAAAAAADAAQAAAAAAAAAAAgAAwL8AAMDAAQAAAAOAAAAgAgAAAAAAAAB3u10/AQAAAAMAAAACAAAAAAAAAAH+fj8/A4AAAGACAAAAAAAAAAAAgD8C
        AAAAAACAP4EDgAAAQAQAAAAAAAAAJpNJPv5+Pz8AAIA/BAAAAAAAAACBAACAP4EDgAAAYAIAAAAAAAAAAACAPwIAAAAAAAAAgQAAAADNzEw+AAAAAAAAAAAAAIA/mpkZ
        PwAAAADNzCxAA4AAAGACAAAAAACoQQAArkICAAAAAACAP4EAAIC/AAAAPwOAAABgAgAAAAAAwEEAAJBCAgAAAAAAgD+BAQAAAAAAAAABAAAACgAAAFNtYWxsIEhhbGwL
        AAAAbWVkaXVtaGFsbDEAAEDAAACQQQAAgD8AAIA/AAAAAI/CdT0AAMDAzcxMPgAAAACamYlAXjHbQwAAgD8AAIA/AQAAAAYAAACZmZk/AABAQAOAAABgWAAAAAAAqEEA
        AIA/WAAAAOdygT9XiQ98P5DWdT+adGo/FEx9P/dqfT+vrYU/CASCPwo3Zz+lj4Y/+vRyP/eGij/yrX0/Z8x2P8N2bj++4Yo/NnqFP9UQaD+QroQ/gk+HP+QOdj8iUIo/
        buOGP4eDiD/2QYc/9NdtP+GFiz+AlHI/OVt7PyyKiz8mrIg/7iVlP8NLiz+jaG8/OCpwP54wTz/uJWU/22WEPz8xZz8aboU/bdRpP8cmgT8YdHQ/1HRxPzgvWj9Yhmw/
        qExyP2rHZD/EP3U/sJ16PyOadz/+kIA/W/p3P9/hhT+qb20/YtlgP7a2bT/U6mE/h7N5P/dWgT+BFHA/+nNiPxwShz+SwGs/nOeHP2D5hT9pwXE/VNRwP7TKgj/rzYc/
        bt2HPz2iiD/Kums/H1aBPxQVfT9LcGo/NhdtP5lFdD+jvn8/tDuKP3otez/ujYw/yDZ1P6Y0Zz8Vwn4/1WqJP5Txaz9RAG4/A4AAAGBpAAAAAAAQQQAAgD9pAAAAYU1q
        PwMlHWg/kDt8P6e9gj+nvYI/ZGeTgT8583k/6+9lP2yeYT+da3U/OfN5PxfwcD9PUHM/I4JaPwbChz/bRoU/yRWMP+tqYj+yc4A/g4WLPw1XkT+cC2E/HyJ8Pw2Gej9A
        JnA/L/WFP8nSgT8QbH0/wcmKP3xEgz/obmk/+O95P7ercz+9CpM/TwKPP0OefD8EWGk/JviIP2LEgz8fbHU/umyEP49hXz/BxH4/A0OEP3BcaT8JTZU/I8mAP0wzgz+T
        vII/1S6EP+FUfj8bYIc/zCp3PwU3hT/X5IE/q81ePy9ukj/AjWM/MQhrP9jWZT/Jr5A/mC2EP9dUfz9JQIU/hUmIP1LHhz+73H0/TPpsP6l+jT+T140/zChoPzuQVz+r
        MVc/MduJP+cjlT8Td4Y/eWt4P077hD+Xj3Y/kQZ9P0laeT+r2Yo/x3B3P1N+hD+BTGs/tDxyP7JIjT8r2HU/yLpxP83YiT+7GXg/N/CNP4jBcT+Q+Ig/HZJ0P+tbfj+t
        84g/m4OEP/tviT/Hp4g/oUaMP8eniD9s6YM/i0WGP8eniD8AAAAAA4AAAGBYAAAAAACoQQAAgD9YAAAAlemKvjflLuo9nOKAvl0QHL4nWFU+5qNVvmzrhz5iHZK+S7qU
        Pp8smb4itEE+llw+vqKh570iwXY9BcFxPsP9pD3M/2a+jDtWvqmHc74+Kw6+VUGuva5+eD3cvwc+bTd2PriMQr4rFKs9BYWEve75Jr6kbEQ9DnV8vhJd471G7pW+1E8r
        vkZQwL1yQ4++fteou12g6D0IpI09ZkLou1znX71wDiC9vudzPjfstr1+irO9OVcSPof8FD6+umq+yV02vpFQlD4sRbm88RbjPEI3XD7JR2i+MFt2vXzYlj6wqiq9sKoq
        vR+oUt47UZyVPrJrVz0HR9M+Hw64PkXsyD6w/44+S9YwvXeDzT6G6ZQ+q3SfPqmrrz1FlPQ+oFV7PfNppT52PuA+iQLGPghAoz04x+s+YgFXPRNk4z6nIMQ+0dNsvYyl
        xz71FkQ+UsUcPvu9Tj7pR+C8wW9/Pk29Jb1wsdk+AQAAAAEAAAABAAAAAwAAPy2WiEADAAAAnwZxP61CcT+gp6g/A4AAAGBpAAAAAAAQQQAAgD9pAAAAx11SP2h7hUE/
        lZRIP9dCTD91GEc/I6tGP+LyTD9cqk4/r5RBP8fCRz+0nFI/2Ik9P40wTj9XJz0/kFpWP4f2Sz85BE4/1YhPP77FSz9lBEw/cLhFP/OkQz8jwz8/oLZKP6BPSz8pb0o/
        hM1EP8kWQj9xdk0/5BxcP/2TTT8pqFU//wJXPw6sXT+c1WI/zF1jP8a+Tz/Ja2E/NphqP3BJaT/F9FY/6qJwP9x4YT8ly20/fxVwP1RPcD/n134/VZl7PxqafT+Z5Hw/
        r+uDPxFagz9bNIU/IumDP+djdj86QIc/8yVtP8OTiD+wVHg/sHSAPxLSgT/A2ns/QnGAPxHFdj9faHI/vWZ4P+yxcz+Xg4c/5BZsP5rUhT976nQ/fWKDP3EBgz/6Dog/
        XkeHPyeygj/VkX8/R4p9P6NngT/AZoI/Wfd6P7KYgj/r13w/FQGBP3qYdz/NpHc/Io6BP3n+gT9sxXc/vGCCP2hIgj8MOIA/h6GEP7cggj8wgXo/EPaCPxrxhD+1qnk/
        97SFP140fT858XY/2wx4P1mGfj9Oj4A/G0OAPwOAAABAAwAAAAAAqEEAAHBCAADYQgMAAAAAAIA/ggOAAABAAwAAAAAAqEEAAHBCAADYQgMAAAAAAIA/ggAAgD8AAIA/
        BwAAAAAAgD+amZk+FK5HPzMzsz+amZk+CAAAAAAAAAAAAAAAAAAAAAAAAAAAAAAAAAAAAAAAAAAAAAAAA4AAAGBpAAAAAAAQQQAAgD9pAAAAgtuxP2j/V8o/gTufP7HF
        sz9r2JQ/XoKgP178gT/r0m0/Kc1mPyrukz/d4mU/ikxLP4J5TT+GWHA/gd6XP+3mqz8b5L4/TjidP8IbXz9wCXk/FYxuP85zeT+yMnU/y4JnPwsZvD8hBYc/0vWCP+Mz
        Pj/1x40/ZeaWP8ZncT8HxFQ/FbxCP6GzPD+CKXM/DCWjP7PVUT8+VDQ/aZ2DP13iaj8ERpA/iQ1MP6GTij91Yn0/0VtzPy03LD8gLIQ/nRBzP4deLD9bmD4/nQFVP8gd
        mz9KQnE/TR+lP/QHpj9nx6I/Q691PzLfdT+GvXA/nv2LP+ZDRD9W8VI/5sCfP7JlgT80OjU/O2uHP+nddj+pG4Q/1MSOP6RXWj/qFmc/GpOBP34foz82zX8/dROhP4Fm
        uz8V3WI/+rlVP0yjcD+oQak/+JOxP8ND5j8jqag/NtiEP7LQkz89p60/kAynP9yo4T/Ur8I/g0J5P5wJjT/ZEXA/NMNoP67leD/RNW4/u06CP4bwhD/NEYg/Ul5nP2/5
        Wj+eRl4/xEqLP0o0iz/br60/c9GjPwOAAABgaQAAAAAAEEEAAIA/aQAAAEaUdj8C/ABwPypwcj8qcHI/mI50cj9M8nhyP1Z9cj+qgXI/DoZyP3KKcj/WjnI/OpNyP56X
        cj8CnHI/ZqByP8qkcj8uqXI/gq1yP+axcj9KtnI/rrpyPxK/cj92w3I/2sdyPz7Mcj+i0HI/BtVyP1rZcj+CyHI/mbdyP8Kmcj/ZlXI/AYVyPyp0cj9BY3I/aVJyP4FB
        cj+pMHI/wR9yP+kOcj8A/nE/Ke1xP0DccT9oy3E/gLpxP6ipcT/QmHE/6IdxPxB3cT8nZnE/UFVxP2dEcT+PM3E/pyJxP88RcT/nAHE/D/BwPzffcD9PznA/d71wP46s
        cD+3m3A/zopwP/Z5cD8OaXA/NlhwP15HcD92NnA/niVwP7YUcD/eA3A/9fJvPx7ibz810W8/XcBvP3Wvbz+dnm8/tY1vP918bz8FbG8/HVtvPwOAAABAAwAAAAAAqEEA
        AHBCAADYQgMAAAAAAIA/ggOAAABgaQAAAAAAEEEAAIA/aQAAAEhsgD9BPqiAP33Xfz/s1n8/BCeAP93lfz++/H8/ByeAP2LPgD8XqYA/bY+APw+UgD/t9IA/1wmBP00v
        gD+Ndn8/F2aAP2BBgD+kDYA/ux5/P6POfj+Vln8/DISAPxrMgD/xhYA/QzSAP+tfgD/1jH8/OwuAP5SQfj/8LX8/LxmAP6Rifz9dFn8/QHZ/P20VgD8A/38/ygWAPxYu
        gD+NTIA/FmR/P1uJfz/IEYA/O2KAP8aegD+N8n8/8VF/P4oTgD9/ZX8/tLd+P3RMfz8NTH8/1mJ/PwlRgD+PV4A/rYiAPxnSfz93EH8/XVd/P5IbgD9jlH8/fx2AP70M
        gD/b138/31l/P4uveD+Lr3g/Jrdtez9083w/JP58P/yYfT/tjH0/ioV5P/USfD+LGnk/jER4P41udz+PLXY/kex0P5IWdD+z7XM/pYpyP3NIcD/Nm24/xydtP2ydbD/v
        dGs/A9RqP+guaj+nZWs/TVJsP7EobD9nKGw/PwVrPx8aaz8gHms/07FqP27Gaj/F52o/p6NqP8uIaT9My2k/uaFqP38Zaz+oYWs/AQAAAGkAAAAAABBBA4AAAGAMAQAA
        AAAAAAAAgD8MAQAAAAAAAP8AAAAA/wAAAACLAAAgQQOAAABgAgEAAAAAAAAAAIA/AgEAAAAAAAD/AAAAAP8AAAAAgQAAMEEDgAAAYPgAAAAAAAAAAACAP/gAAAAAAAAA
        /wAAAAD3AABAQQOAAABg7wAAAAAAAAAAAIA/7wAAAAAAAAD/AAAAAO4AAFBBA4AAAGDrAAAAAAAAAAAAgD/rAAAAAAAAAP8AAAAA6gAAYEEDgAAAYOMAAAAAAAAAAACA
        P+MAAAAAAAAA/wAAAADiAABwQQOAAABg2QAAAAAAAAAAAIA/2QAAAAAAAAD/AAAAANgAAIBBA4AAAGDTAAAAAAAAAAAAgD/TAAAAAAAAAP8AAAAA0gAAiEEDgAAAYNAA
        AAAAAAAAAACAP9AAAAAAAAAA/wAAAADPAACQQQOAAABgzgAAAAAAAAAAAIA/zgAAAAAAAAD/AAAAAM0AAJhBA4AAAGDLAAAAAAAAAAAAgD/LAAAAAAAAAP8AAAAAygAA
        oEEDgAAAYMkAAAAAAAAAAACAP8kAAAAAAAAA/wAAAADIAACoQQOAAABg4gAAAAAAAAAAAIA/4gAAAAAAAAD/AAAAAOEAALBBA4AAAGDaAAAAAAAAAAAAgD/aAAAAAAAA
        AIgAAKDAAQAAAAAAAAAA/wAAAADOAAC4QQOAAABg0QAAAAAAAAAAAIA/0QAAAAAAAAD/AAAAANAAAMBBA4AAAGD8AAAAAAAAAAAAgD/8AAAAAAAAAP8AAAAA+wAAyEED
        gAAAYOgAAAAAAAAAAACAP+gAAAAAAAAA/wAAAADnAADQQQOAAABg2QAAAAAAAAAAAIA/2QAAAAAAAACJAACgwAEAAAAAAAAAAP8AAAAAzAAA2EEDgAAAYMkAAAAAAAAA
        AACAP8kAAAAAAAAA/wAAAADIAADgQQOAAABg2wAAAAAAAAAAAIA/2wAAAAAAAACFAABAwAEAAAAAAAAAAP8AAAAA0gAA6EEDgAAAYOYAAAAAAAAAAACAP+YAAAAAAAAA
        /wAAAADlAADwQQOAAABg1gAAAAAAAAAAAIA/1gAAAAAAAAD/AAAAANUAAPhBA4AAAGDKAAAAAAAAAAAAgD/KAAAAAAAAAIQAACDAAQAAAAAAAAAA/wAAAADCAAAAQgOA
        AABgwwAAAAAAAAAAAIA/wwAAAAAAAAACAACAwAAAAAAAAAAA/wAAAAC/AAAEQgOAAABgzAAAAAAAAAAAAIA/zAAAAAAAAAACAAAAwAAAAAAAAAAAggAAQMABAAAAAAAA
        AACDAACAwAEAAAAAAAAAAP8AAAAAvQAACEIDgAAAYNIAAAAAAAAAAACAP9IAAAAAAAAABQAAAMAAAIA/AABAQAAAIMEAAAAAAAAAAP8AAAAAywAADEIDgAAAYMYAAAAA
        AAAAAACAP8YAAAAAAAAAAgAAgMAAAAAAAAAAAAIAAIDAAAAAAAAAAAC4AABAwAEAAAAAAAAAAP8AAAAAhAAAEEIDgAAAYMQAAAAAAAAAAACAP8QAAAAAAEDABAAAoMAA
        AADAAAAAAAAAQMAAAEDAAgAAgD8AAAAAAAAAAIMAAEDAAQAAAAAAAAAA/wAAAAC1AAAUQgOAAABgxAAAAAAAAAAAAIA/xAAAAAAAAAD/AAAAAMMAABhCA4AAAGDEAAAA
        AAAAAAAAgD/EAAAAAACAPwQAAABAAAAAwAAAQMAAAAAAAAAAAP8AAAAAvgAAHEIDgAAAYKsAAAAAAAAAAACAP6sAAAAAAAAAAgAAAMAAAABAAAAAQAIAAEDAAAAAAAAA
        AAD/AAAAAKQAACBCA4AAAGCrAAAAAAAAAAAAgD+rAAAAAABAQAIAAMA/AABAQAAAQEADAADAPwAAQMAAAAAAAAAAAP8AAAAAowAAJEIDgAAAYKsAAAAAAAAAAACAP6sA
        AAAAAAAA/wAAAACqAAAoQgOAAABgkwAAAAAAAAAAAIA/kwAAAAAAAMAEAAAAQAAAAAAAAABAAAAAAAAAAAD/AAAAAI0AACxCA4AAAGCTAAAAAAAAAAAAgD+TAAAAAAAA
        wAMAAAAAAACgwAAAAAAAAAAAgQAAQMABAAAAAAAAAAD/AAAAAIoAADBCA4AAAGCTAAAAAAAAAAAAgD+TAAAAAACAwAMAAADAAACAwAAAAAAAAAAA/wAAAACOAAA0QgOA
        AABggAAAAAAAAAAAAIA/gAAAAAAAQMADAACAvwAAgD8AAABAAAAAQIEAAMA/AgAAAAAAAEDAAABAwAEAAAAAAAAAAIUAAKDAAQAAAAAAAAAAgQAAQMABAAAAAAAAAADo
        AAA4QgOAAABggAAAAAAAAAAAAIA/gAAAAAAAAMACAAAAQAAAAAAAAAAA/AAAPEIDgAAAYIAAAAAAAAAAAACAP4AAAAAAAMDABQAAAEAAAIC/AACAPwAAAMAAAAAAAAAA
        AIcAAMC/AQAAAAAAAAAAlwAAQMCBAAAAANUAAEBCA4AAAGBsAAAAAAAAAAAAgD9sAAAAAABAwAMAAABAAABAwAAAAAAAAAAAowAAQMCBAAAAAMEAAERCA4AAAGBsAAAA
        AAAAAAAAgD9sAAAAAAAAwAEAAAAAAAAAAIEAAEDAAgAAAMAAAAAAAAAAAOQAAEhCA4AAAGBsAAAAAAAAAAAAgD9sAAAAAAAAAAIAAADAAAAAQAAAAEACAAAAAAAAAEAA
        AABAgQAAAACSAAAQwQEAAAAAAAAAAM4AAExCA4AAAGBnAAAAAAAAAAAAgD9nAAAAAAAAAIQAAMC/AQAAQMAAAEDABgAAIMCamdm/mpmZvwAAgL8zMzO/AAAAAAAAAADY
        AABQQgOAAABgVwAAAAAAAAAAAIA/VwAAAAAAAAABAAAAwAAAAMABAAAAAAAAAACGAACAwAIAAEBAAAAAAAAAAADIAABUQgOAAABgVwAAAAAAAAAAAIA/VwAAAAAAAACB
        AAAgQAUAAKDAAAAgwAAAAAAAAADAAAAAAAAAAADOAABYQgOAAABgVgAAAAAAAAAAAIA/VgAAAAAAAMACAACAvwAAAAAAAAAAhgAAQMADAAAAAAAAgMAAAAAAAAAAAMcA
        AFxCA4AAAGBJAAAAAAAAAAAAgD9JAAAAAAAAAAQAAADAAABAQAAAQMAAAAAAAAAAAAIAAIC/AAAAAAAAAACDAAAAwIIAAAAAiQAAgMCBAAAAAIkzMzPAgQAAAAChAABg
        QgOAAABgSQAAAAAAAAAAAIA/SQAAAAAAAAADAAAAwAAAgL8AAAAAAAAAAIEAAADAAQAAAAAAAAAAAgAAgL8AAAAAAAAAAAIAAADAAAAAAAAAAAC6AABkQgOAAABgSAAA
        AAAAAAAAAIA/SAAAAAAAAAAGAACAQAAAAEAAAIA/AAAAAAAAAEAAAIC/AACAvwYAAABAAAAAAAAAAMAAAAAAAAAAwAAAAAAAAAAAuQAAaEIDgAAAYEUAAAAAAAAAAACA
        P0UAAAAAAEBABgAAgD8AAADAAACAvwAAAAAAAADAAAAAAAAAAAAFAACAPwAAAMAAAAAAAAAAQAAAAAAAAAAAtwAAbEIDgAAAYD8AAAAAAAAAAACAPz8AAAAAAABAAwAA
        gL8AAIA/AAAAAAAAAAACAABAwAAAAAAAAAAAgQAAgD8DAADAwAAAgD8AAAAAAAAAALEAAHBCA4AAAGA5AAAAAAAAAAAAgD85AAAAAAAAPwMAAIA/AADAPwAAgL8AAIC/
        gQAAAAADAACAvwAAAMAAAEDAAABAwAYAAEBAAAAAAAAAQMAAAAAAMzMDwAAAAAAAAAAApwAAdEIDgAAAYDkAAAAAAAAAAACAPzkAAAAAAAAAAgAAAEAAAADAAAAAwAQA
        AABAAAAAAAAAAEAAAAAAAAAAAAIAAEDAAAAAAAAAAAACAABAwAAAAAAAAAAAqgAAeEIDgAAAYDYAAAAAAAAAAACAPzYAAAAAAADAAQAAAAAAAAAAswAAfEIDgAAAYDEA
        AAAAAAAAAACAPzEAAACAD8o9A8iS/D4Lknw/ydqdP8nanT8CMzMzP83MTL7NzEy+gsiSfL4DHpJ8vx9rvb8AAAAAAAAAAKIAAIBCA4AAAGAwAAAAAAAAAAAAgD8wAAAA
        AAAAAAUAAEBAAAAAAAAAgL8AAIA/AACAwAAAgMABAAAAAAAAAAADAADAwAAAAAAAAADAAAAAwAEAAAAAAAAAAKEAAIJCA4AAAGAuAAAAAAAAAAAAgD8uAAAAAAAAAIQA
        AABAAQAAAAAAAAAAAgAAgL8AAAAAAAAAAAIAAADAAAAAAAAAAACgAACEQgOAAABgKwAAAAAAAAAAAIA/KwAAAAAAAMAFAACAQAAAAAAAAIDAAAAAwAAAAAAAAAAAgc3M
        bMABAAAAAAAAAACBAADAwAEAAAAAAAAAAJwAAIZCA4AAAGAnAAAAAAAAAAAAgD8nAAAAAACAvwIAAABAAAAAAAAAAAACAABAwAAAAMAAAADABAAAAAAAAADAAAAAQAAA
        AAAAAAAAmwAAiEIDgAAAYCYAAAAAAAAAAACAPyYAAAAAAAC/CgAAgD8AAAC/AAAAAAAAwL8AACDAAACAvwAAAABmZmbAAACAPwAAAAAAAAAAmgAAikIDgAAAYCQAAAAA
        AAAAAACAPyQAAAAAAAAAgQAAgL8BAAAAAAAAAAACAABAwAAAAAAAAAAAnAAAjEIDgAAAYCIAAAAAAAAAAACAPyIAAAAAAIA/ggAAAACBAACAvwEAAAAAAAAAAJoAAI5C
        A4AAAGAgAAAAAAAAAAAAgD8gAAAAAAAAAIMAAABABAAAAAAAAABAAACAvwAAAAAAAAAAlgAAkEIDgAAAYB0AAAAAAAAAAACAPx0AAAAAAABAgQAAgECBAABAwAMAAABA
        AACAvwAAAAAAAAAAlAAAkkIDgAAAYBwAAAAAAAAAAACAPxwAAAAAAAAAgwAAoMACAAAAwAAAAAAAAAAAlAAAlEIDgAAAYBsAAAAAAAAAAACAPxsAAACSJD8/gpIkP78B
        AAAAAAAAAAACvFkPwKzrw7+s68O/AQAAAAAAAAAAkAAAlkIDgAAAYBkAAAAAAAAAAACAPxkAAAAAAAAAhfEyw7+CAAAAAI8AAJhCA4AAAGAYAAAAAAAAAAAAgD8YAAAA
        AACAPwMAAIC/AAAAAAAAAMAAAADABAAAgL8AAAAAAAAAwAAAAAAAAAAAjgAAmkIDgAAAYBYAAAAAAAAAAACAPxYAAAAAAMC/AQAAAAAAAAAAhAAAQMABAAAAAAAAAACM
        AACcQgOAAABgFQAAAAAAAAAAAIA/FQAAAAAAgD8BAAAAAAAAAAADAAAAwAAAQMAAAAAAAAAAAI4AAJ5CA4AAAGAUAAAAAAAAAAAAgD8UAAAAAAAAQAYAAIA/AABAwAAA
        gL8AAAAAAAAAwAAAAAAAAAAAjAAAoEIDgAAAYBMAAAAAAAAAAACAPxMAAAAAAAAAAwAAAEAAAIA/AAAAwAAAAMABAAAAAAAAAACMAACiQgOAAABgEgAAAAAAAAAAAIA/
        EgAAAAAAAD8DAACAPwAAgL8AAAAAAAAAAAEAAIC/AACAvwEAAAAAAAAAAIkAAKRCA4AAAGARAAAAAAAAAAAAgD8RAAAAAADAPwEAAMC/AADAvwEAAAAAAAAAAIwAAKZC
        A4AAAGAQAAAAAAAAAAAAgD8QAAAAMZJ8P4EAAAAAgR9rvb8DAAAAAB9rvb8AAAAAAAAAAIcAAKhCA4AAAGAPAAAAAAAAAAAAgD8PAAAA0lYCPwGJf8M/iX/DPwUAAAAA
        nH/DvwAAAACcf8O/AAAAAAAAAACGAACqQgOAAABgDgAAAAAAAAAAAIA/DgAAADGSfD8CMXGBPwAAAAAAAAAAAh9rvb8AAAAAAAAAAIcAAKxCA4AAAGANAAAAAAAAAAAA
        gD8NAAAACWaGP4EAAAAAARNmhr8TZoa/AQAAAAAAAAAAhgAArkIDgAAAYAwAAAAAAAAAAACAPwwAAAAAAIA/A1V6ej8AAIC/AAAAwAAAAMABAAAAAAAAAACFAACwQgOA
        AABgDAAAAAAAAAAAAIA/DAAAAAAAAACDZmaGvwEAAAAAAAAAAIUAALJCA4AAAGALAAAAAAAAAAAAgD8LAAAAAAAAAAQAAIC/AAAAwAAAgL8AAAAAAAAAAIUAALRCA4AA
        AGAKAAAAAAAAAAAAgD8KAAAAAAAAwAEAAAAAAAAAAIcAALZCA4AAAGAKAAAAAAAAAAAAgD8KAAAAAABAQAQAAABAAAAAwAAAQMAAAAAAAAAAAIQAALhCA4AAAGAJAAAA
        AAAAAAAAgD8JAAAA0UU3QAQXXfQ/F110Pxdd9D4AAAAAAAAAAIMAALpCA4AAAGAJAAAAAAAAAAAAgD8JAAAAo4suQAQuuug/LrpoPy666D4AAAAAAAAAAIMAALxCA4AA
        AGAIAAAAAAAAAAAAgD8IAAAAdNElQARGF90/RhddP0YX3T4AAAAAAAAAAIIAAL5CA4AAAGAIAAAAAAAAAAAAgD8IAAAARhcdQARddNE/XXRRP1100T4AAAAAAAAAAIIA
        AMBCA4AAAGAIAAAAAAAAAAAAgD8IAAAAF10UQAR00cU/AADAv3TRxT4AAAAAAAAAAIIAAMJCA4AAAGAIAAAAAAAAAAAAgD8IAAAA6aILQASMLro/jC46P4wuuj4AAAAA
        AAAAAIIAAMRCA4AAAGAIAAAAAAAAAAAAgD8IAAAAuugCQASji64/o4suP6OLrj4AAAAAAAAAAIIAAMZCA4AAAGAIAAAAAAAAAAAAgD8IAAAAFl30PwS56KI/uegiP7no
        oj4AAAAAAAAAAIIAAMhCA4AAAGAIAAAAAAAAAAAAgD8IAAAAuujiPwTSRZc/0kUXP9JFlz4AAAAAAAAAAIIAAMpCA4AAAGAIAAAAAAAAAAAAgD8IAAAAXHTRPwTooos/
        6KILP+iiiz4AAAAAAAAAAIIAAMxCA4AAAGAIAAAAAAAAAAAAgD8IAAAAAADAPwQAAIA/AAAAPwAAgD4AAAAAAAAAAIIAAM5CA4AAAGAIAAAAAAAAAAAAgD8IAAAAoouu
        PwQAAMC/LbroPi26aD4AAAAAAAAAAIIAANBCA4AAAGAIAAAAAAAAAAAAgD8IAAAARRedPwRcdFE/XHTRPlx0UT4AAAAAAAAAAIIAANJCA4AAAGAIAAAAAAAAAAAAgD8I
        AAAA6KKLPwSLLjo/iy66PosuOj4AAAAAAAAAAIIAANRCA4AAAGAIAAAAAAAAAAAAgD8IAAAAFl10PwS56CI/ueiiPrnoIj4AAAAAAAAAAIIAANZCA4AAAGAIAAAAAAAA
        AAAAgD8IAAAAXHRRPwToogs/6KKLPuiiCz4AAAAAAAAAAIIAANhCA4AAAGAEAAAAAAAAAAAAgD8EAAAAoosuPwMtuug+LbpoPi266D0AANpCA4AAAGAEAAAAAAAAAAAA
        gD8EAAAA6KILPwOLLro+iy46Posuuj0AANxCA4AAAGAEAAAAAAAAAAAAgD8EAAAAXHTRPgPooos+6KILPuiiiz0AAN5CA4AAAGAEAAAAAAAAAAAAgD8EAAAA6KKLPgOL
        Ljo+iy66PYsuOj0AAOBCA4AAAGAEAAAAAAAAAAAAgD8EAAAA6KILPgOLLro9iy46PYsuujwAAOJCA4AAAGAEAAAAAAAAAAAAgD8EAAAAAAAAAIM5lNc9A4AAAEALAAAA
        AADAQQAA4EEAAOhBAAAcQgAAIEIAAFxCAABwQgAAkEIAAKhCAADAQgAA2EILAAAAutqaP4P6pYk/Bm4plj/NvpE/+qWJP1zEdz+TLSU/XMT3PgEAAAABAAAAAQAAAIsH
        Nj9XVLM/AQAAAAEAAAABAAAAQZU1P3iV4T8BAAAAAAAAAAEAAAAzMzM/ZmamPwEAAAAAAAAAAQAAADMzMz9mZqY/AQAAAAAAAAABAAAAMzMzP2Zmpj8BAAAAAAAAAAAA
        8EIAAAAADgAAAAAAAD/NzMw9zcxMPgAAAD8DAAAAAAAAAAOAAABIAQAAAAAAAAAAAAAAA4AAAEgBAAAAAAAAAAQAAAACAAAACAAAAAQAAAABAAAAAQAAAAAAgD8AAIA/
        AQAAAAEAAAABAAAAAQAAAAEAAAAAAIA/AAAAAAAAgEAAALRCRgAAAAADgAAASAEAAAAAAAAAAAAAAAOAAABIAQAAAAAAAAAAAAAAAAAAAAOAAABIAQAAAAAAAAAAAAAA
        AwAAAAcAAAABAAAAAAAAAA4AAAAQAAAAAAAAAJqZGT4AAIA/AAAAAAAAAL8AAMBBAAAAAAAAAAAAAAAAAAAAAAAAAAAAAAAAAAAAAAAAAAAAAAAAAAAAAAMAAAAKAAAA
        AQAAAAAAAAAOAAAAEAAAAAAAAAAAAFxDAACAvwAAAD8AAABAAAB6RAAAAAAAAAA/AACAPwBAnEUAAABAmpkZPwAAQEAAAAAAAAAAAAAAAAADAAAACgAAAAEAAAAAAAAA
        DgAAABAAAAAAAAAAAADIQgAAAAAAAIA/AAAAQABAnEUAAIA/mpmZPgAAgD8AgDtGAAAAQAAAAD8AAEBAAAAAAAAAAAAAAAAAAQAAAAEAAAAAAIA/AABAwQAAAAADAAAA
        AwAAAAAAAAABAAAABQAAAAQAAAABAAAAAwAAAGY9ij7oUTg+XI+CP7GwaMIQboHABAAAAAUAAAAAAADAAABAwQAAwMIAAMDCAADAwgUAAAAAAAAAj8L1PAAAAAAAAAAA
        AAAAAAUAAAAAAAAAAAAAAAAAAAAAAAAAAAAAAAEAAAAAAAAABAAAAAEAAAADAAAARuF6P+hROD4K16M/sodOQhBugcAEAAAABQAAAAAAQMEAAADAAADAwgAAwMIAAMDC
        BQAAAI/CdTxSSR06AAAAAAAAAAAAAAAABQAAAAAAAAAAAAAAAAAAAAAAAAAAAAAAAQAAAAAAAAAEAAAAAQAAAAMAAACcxEA/N4kJQGq8xD/NzCNDzcwgwgMAAAAFAAAA
        AABwwQAAcMEAAHDCAABwwgAAcMIFAAAAAAAAAAAAAAAAAAAAAAAAAAAAAAAFAAAAAAAAAAAAAAAAAAAAAAAAAAAAAAABAAAAAAAAAAQAAAAAAAAAAwAAANejCECF6+E/
        rkfhP83M2EIAAAAABwAAAAUAAAAAAHDCAABwwgAAcMIAAHDCAABwwgUAAAAAAAAAAAAAAAAAAAAAAAAAAAAAAAUAAAAAAAAAAAAAAAAAAAAAAAAAAAAAAAEAAAAAAAAA
        BAAAAAAAAAADAAAAuB7FPz0KVz+uR+E/AAAAAAAAAAAAAAAABQAAAAAAcMIAAHDCAABwwgAAcMIAAHDCBQAAAAAAAAAAAAAAAAAAAAAAAAAAAAAABQAAAAAAAAAAAAAA
        AAAAAAAAAAAAAAAAAQAAAAAAAAABAAAAAAAAAAEAAAADAAAAUrgeP+xRuL5mZqY/AACQQQAAAAAAAAAAAAAAAAEAAAAAAAAAAAAAAAAAAABKVUNFUHJpdmF0ZURhdGEA
        AQFCeXBhc3MAAQEDAB0AAAAAAAAASlVDRVByaXZhdGVEYXRhAAAAAAAAAAA=
        AHQxABAAAAA=
      >
      PRESETNAME t1
      FLOATPOS 32 149 592 662
      FXID {B76D5FDE-A8CA-584F-8F0F-DB5EF086AAD7}
      WAK 0 0
      BYPASS 0 0 0
      <AU "AU: VCV Rack 2 FX (VCV)" "VCV: VCV Rack 2 FX" "" 1635085670 1447253574 1447253599
        6QMAAAAAAAAQAAAAAQAAAAAAAAACAAAAAAAAAAAAAAAAAAAAAAAAAAAAAAAAAAAAAAAAAAAAAAAAAAAAAAAAAAAAAAAAAAAAAAAAAAAAAAAAAAAAAAAAAAAAAAAAAAAA
        AAAAAAAAAAAAAAAAAAAAAAAAAAAAAAAAAAAAAAAAAAAAAAAAAAAAAAAAAAAQAAAAAQAAAAAAAAACAAAAAAAAAAAAAAAAAAAAAAAAAAAAAAAAAAAAAAAAAAAAAAAAAAAA
        AAAAAAAAAAAAAAAAAAAAAAAAAAAAAAAAAAAAAAAAAAAAAAAAAAAAAAAAAAAAAAAAAAAAAAAAAAAAAAAAAAAAAAAAAAAAAAAAAAAAAAAAAADoBwAAPD94bWwgdmVyc2lv
        bj0iMS4wIiBlbmNvZGluZz0iVVRGLTgiPz4KPCFET0NUWVBFIHBsaXN0IFBVQkxJQyAiLS8vQXBwbGUvL0RURCBQTElTVCAxLjAvL0VOIiAiaHR0cDovL3d3dy5hcHBs
        ZS5jb20vRFREcy9Qcm9wZXJ0eUxpc3QtMS4wLmR0ZCI+CjxwbGlzdCB2ZXJzaW9uPSIxLjAiPgo8ZGljdD4KCTxrZXk+ZGF0YTwva2V5PgoJPGRhdGE+CglLTFV2L1FC
        SVBTTUFsankwT1VCcjJBQTh4SGhnSHBnSG1WVGdGQzhBakUvTG5VMzdxYzdxeTY0MU9oK3ptY0VhZVF3MwoJT0taTlNVbEo4cmlmMzM3bW54TWdzUFJJQWFvQW5BQ3FB
        QlQ0Vng2OXREY3N1VmNELzhyRFhwVDFoaDg3cVpWMDhhODgKCTJDMXhjZnlHcFF0VmxKM3dyMnlBRFNlTU1iWnNEVUxaM2RLdEtpd2NqbFVuQ1F1Q0paN04rYnFiTVFT
        TEIyV0Nnd2pFCglod2dHQVlCWlI2cVNuVnhxV213MFRYV1JYS2NBQUVhQU1jYUJNZGFCWFdCZ1JMQU9qREVJeHRnRnhwaGpqQTFnakVHdwoJUTNnREJuZHFCV01RVElD
        QkFHOUdWYXU2K3F6Qk9Mc3ZtMndvb1p5dy9VSFgzZXd4enU1bWk0UWxELy8vbFllRHZHSEsKCVRpRHE0ZjlDejFXNTRXclZoNVZIditHSFFuS3RxN0pHUjgvSXhFaVox
        elMrQjJrdjdRM2JLNm9UL245SnBlckUvKytzCglVeU9VdFNTS0N6MVhCTC9oeUQ1WHdwYTZFdnlHSllqQ0ZVMFAyWTlwTWI1dWo0R1NtVy80Z2ZqL2YyVkRaYVBydVJM
        KwoJbFlmR3IwenA1SFB0d1FZbm5mM2cwcEQvVng0TW5ZL1NwaE5TR2x1VEM0WDh2eExoRFZ1MmlrUVlQQkFWN2ZYQzlPSW8KCVcxVU9pMHRaUURJa01xaGtHczQ1NlhN
        VFB0azZHdVFOUXc4azRmOVdXRldObUduMERYTTRGbVJoVlRXQ0RwcEFFeGFjCglHem44MitkV1pJanV4UDhicmlJclNaWEQ0Zi9LZzhPNlYxTHhHN1lVcEhxQlljcVF1
        QmdVRXhRVmpiN1ltbXZaemJ6SAoJeERmOFFLeG8zSWtwYTBWUUF1ZmhEdXU2MWpWSlVJdHYyR3FBR2xod2JyVEIvNzkwTjRWdjJGcjF3a2FUcEZiOC93OGkKCUp2Z05X
        MGxkWUIxb1lnTWRDbVd0cWtxZUNqZG9helMrNlpnSTQ1dVNpZEpaR1RlNnUyZDBrSUZ4enRkUXhpYm5neHNSCgkyaWlVVGRKdWozSHRudU1OT04rTEhPQTNUTjNvT2xP
        Q0pNaTZKdXU2RkRhNm5sdGhYWk4xM1VaYnBGQkcybHErMXVKRwoJZGU1c0ZkWElHN1lpVm9GbEgxaVVuVWlRdTBLblpKZ0kyM3h0U2lrN3lxV2xwSytuNitjZ3d6RE1o
        SExwMkdCa25Pc20KCXFldnViamZoZ3pqbEllbVRNTG9wbWZnQ2dLZW9jUzB5WkdnQUJBQXdKRWlRQUpBQ0FLRWhxZ0lTWUdBWUZrdlVHSU5oCglqQUlHR1FNRUFCa0ZB
        QUlJSUlDQUpnQ0QxUUJDOUNlRVZwQ0NiOTZLb1huT01DRnFpU0VXQXRLVzZRUDdzcUxaUlVsNAoJb3hsdzBCQTdEaVVXSWRVTmlBWUFmUWxrZ1k3SmU3Qm5XK0xwT3V0
        MUFvYUJsTXZOMGt5OCtFRVFXTW5OTm8vNk5heW8KCW8zTWxZTGdEN0RMNVFrYmFhQlVCNll5VzRud0hKQk9RYnBCWFNsMEljbEFnYmlCSklzRFFRR2VIUmxhRVlRZUxv
        UFFKCglzdjIwUGxJOWdQc280eU1IWWF1Mk1pNjBIK2N6UXF1VTNuTklNRzRxQjByQUdxMUpOWHhpbWVmeHVZUEZkeVBlUmRXSgoJelROZkRDTlFHOWZBYXFsWFJZRzBH
        bXM0Q3BiQzZrMEVYb0FNVWJaa1p5aXBPOUlSSHVETnlqcjhMcVEwVnZTUkFaalkKCU0zdlhHMzhKQ2o5Vm5UK1VVTWFlbEZuR0JJU1d2eDdWQjYvNEdFeVJ5R1UxZ0Z1
        L3VaU2x1cmQwSU9DTnBNV09yY1hWCglEaURIWlFlUVE1Y3RiVUNTNXFqMlN5V0h6a09EM2Q0ZUJqQ3o3ZWhNZldQVGpiOWJUeXVHY1FxbjhCM0d1NnBTdnJFMwoJakY4
        WnBEdHZJRDBmaHZudHVFMD0KCTwvZGF0YT4KCTxrZXk+bWFudWZhY3R1cmVyPC9rZXk+Cgk8aW50ZWdlcj4xNDQ3MjUzNTk5PC9pbnRlZ2VyPgoJPGtleT5uYW1lPC9r
        ZXk+Cgk8c3RyaW5nPlZDVlJhY2s8L3N0cmluZz4KCTxrZXk+c3VidHlwZTwva2V5PgoJPGludGVnZXI+MTQ0NzI1MzU3NDwvaW50ZWdlcj4KCTxrZXk+dHlwZTwva2V5
        PgoJPGludGVnZXI+MTYzNTA4NTY3MDwvaW50ZWdlcj4KCTxrZXk+dmVyc2lvbjwva2V5PgoJPGludGVnZXI+MTwvaW50ZWdlcj4KPC9kaWN0Pgo8L3BsaXN0PgoBAAAA
        AAAAAAAA
      >
      FLOATPOS 0 0 0 0
      FXID {5CF094C6-B0B3-8540-ADA2-6988E546D20D}
      WAK 0 0
    >
  >
  <TRACK {14243C7B-D387-124E-9C74-CC85789D3829}
    NAME "Pianoteq 8"
    PEAKCOL 16576
    BEAT -1
    AUTOMODE 0
    PANLAWFLAGS 3
    VOLPAN 0.14779046790359 1 -1 -1 1
    MUTESOLO 0 0 0
    IPHASE 0
    PLAYOFFS 0 1
    ISBUS 0 0
    BUSCOMP 0 0 0 0 0
    SHOWINMIX 1 0.6667 0.5 1 0.5 0 0 0
    FIXEDLANES 9 0 0 0 0
    SEL 0
    REC 1 5088 1 0 0 0 0 0
    MIDI_INPUT_CHANMAP 2
    VU 2
    TRACKHEIGHT 0 0 0 0 0 0 0
    INQ 0 0 0 0.5 100 0 0 100
    NCHAN 2
    FX 1
    TRACKID {14243C7B-D387-124E-9C74-CC85789D3829}
    PERF 0
    AUXRECV 0 0 1 0 0 0 0 0 0 -1:U 99 -1 ''
    MIDIOUT -1
    MAINSEND 1 0
    <FXCHAIN
      WNDRECT 32 136 807 690
      SHOW 0
      LASTSEL 0
      DOCKED 0
      BYPASS 0 0 0
      <VST "VST3i: Pianoteq 8 (Modartt) (1->5ch)" "Pianoteq 8.vst3" 0 "" 1031062328{565354507438717069616E6F74657120} ""
        OMN0Pe5e7f4CAAAAAQAAAAAAAAACAAAAAAAAAAUAAAABAAAAAAAAAAIAAAAAAAAABAAAAAAAAAAIAAAAAAAAABAAAAAAAAAAcC4AAAEAAAD//xAA
        YC4AAAEAAABWc3RXAAAACAAAAAEAAAAAQ2NuSwAALkhGQkNoAAAAAlB0OHEACAQBAAAAAAAAAAAAAAAAAAAAAAAAAAAAAAAAAAAAAAAAAAAAAAAAAAAAAAAAAAAAAAAA
        AAAAAAAAAAAAAAAAAAAAAAAAAAAAAAAAAAAAAAAAAAAAAAAAAAAAAAAAAAAAAAAAAAAAAAAAAAAAAAAAAAAAAAAAAAAAAAAAAAAAAAAAAAAAAAAAAAAtsKCYE/4CAAAA
        SDgSAGQtAAABAAAAEThWOFgtAABQclZLKQAAAlhGVFBILQAACgAAADIwMjUvMDMvMTMXAAAAUGlhbm90ZXEgOC40LjEvMjAyNTAyMDS++xsQk4b4cBHo8wyoihcUZGxs
        YQctAAB0ZHRNrgMAABAAAABLMiBEcmVhbXkgKGNvcHkpCgAAAE15IFByZXNldHMHAAAATW9kYXJ0dFEAAABJbmNyZWFzaW5nIHRoZSBzdGVyZW8gd2lkdGggYW5kIHRo
        ZSByZXZlcmIgZHVyYXRpb24gdHVybnMgSzIgaW50byBhIGRyZWFteSBwaWFuby4AAAAARAEAAAkAAABLMiBEcmVhbXkAAAAADwMAAEdSVVUAAAAGAAAAAQPATVRyawAA
        AvkA/wIPIEJsYXogSnVyamV2Y2ljAIA1ADAuAIQCQQAVkEI4PTQhhh2wQH+BIJA+HyU6H4lugDoAgU80AIYXsEAAJoBCAACQQ1IGgD4AE5ApMoMOsEB/gXqAKQA5kD9M
        BYBDABKQOkIZNS6BV4A1AGw6AIM0sEAAHYA/ACaQRUQdLjSCcrBAf4FqgEUAJ5BBShk+Nh2ALgATkDkigyGAOQAssEAwCkAAL4BBADSQRkYPLS4HgD4Agj+wQH+CXoAt
        ABOQQkAOPToGgEYAC5A3KoNBgD0AgiSwQAAVgDcACUIAFJBHRjEsPoJssEBBCEB/gzKQOzoDRDwKQDwPODpBgCwAZzgAUkcATEAANTsAGUQAhR+wQAAXkEhMJCs2g1qw
        QH+Dc5BBMgRFLAw8IQM+Hxg1IYVfgCsAg288AAhIABg+AFxBAINnRQACkEk2gUmANQAJSQACsEAAHJBKRjQqLIMrsEB/g2CAKgAekDkZg1FAIYMrgEoAO5BFNoR6TDqF
        N4A5AIRmRQCBKEwAVkAAgheQTDaCBIBMACaQTUBhsEAAgxKQKUBqsEB/gVSAKQCCA5A1LIMJgDUAgSuQOjKFJz80L4A6AINRkEI0hF5GOCaATQCFeJBNNId5gD8Ag0RN
        AIEiRgBuQgCFCJBLTAqwQAADkCk6g0mwQH+HBYApAIEdkDkwhWE/NoZrQiqHNkc6E4BLAI1EkEsiiy6ARwCBYkIAAD8AZUsAhSU5AFaQSS6BebBAAAuASQATkEpAiSCw
        QH+BcpAuHoUXNSCEA4A1ADqQOR2EOj4qhTeASgBCkEU2jSqAPgCFGZBIMhSARQCBBpBAH5osgEgAA0AAhU+QRh6BZz4VjwuARgAmLgAqPgA2OQCWebBAAIRWgClAACpA
        ACtAACxAAC1AAC5AADRAADVAADdAADhAADlAADpAADtAADxAAD1AAD5AAD9AAEBAAEFAAEJAAENAAERAAEVAAEZAAEdAAEhAAElAAEpAAEtAAExAAE1AAP8vAFByc1VJ
        KQAASQAAAAIAAABrMgAAAAAIAAAAR3JhbmQgSzIAAAAAAAAAAHByb21UAAAAAQAAAAEAAAABAAAAAgAAAGsyAAAAAAgAAABHcmFuZCBLMgAAgD8GAAAAAAAAAAAAAAAA
        AAAAAAAAAAAAAABURv////8AAAAAAAAAAAAAAAAAAAAAcnlhbBAAAAACAAAAAAAAAAAAAAD/////b2xvcxEAAAABAAAAAQAAAEYAAAAAAAAAAAEAAAABAAAAAAAAAAAA
        AAABAAAAAAAAAAAAAAABAAAAAAAAAAAAAAABAAAAAAAAAAAAAAABAAAACwAAAEJyb2NlbGlhbmRlAAAAAAEAAAAAAAAAAAAAAAEAAAAAAAAAAAAAAAEAAAAAAAAAAAAA
        AAEAAAAAAAAAAAAAAOz//78DgAAAYGkAAAAAABBBAACAP2kAAADso+A/aBRdzT8MNcY/qEM1QLwd4T+MI6U/skwDQNi6bz8Avlk+eCNiPzD+vj7gBgo+7Az6P3xn5T8w
        L9q/soIYQDQ78T+8l84/HoogQPgaZUBs2S5AzFWIP+LdCUCg6um+6GYRP+So9T9wwpW+3JrkPw5BEkBM8es/2t4UQCSnVUD0aURA9KScPxAL6D7wrYw+SJMdP/T+jL/8
        HKa/WApyPxQTiD+8I6A/yKU3QCQuuT9YKSY/3AzAP0Bj1b3IxyW/7GPFPwAk/Dyo/Em/cOOkv7C0uT5Iqzi/+qgJQMTcrT/wcfi+PLWLvwigGj98w5s/5Dj+PyDsZz7o
        wU6/sNfGvtBE1L4oy3K/bF6IvzgxST/syPg/wPrRva6mFkBUYcq/eIMIv3i0LT+y/gZA4IcLvoTC7T/YCDo/yBkUP9DcRkDQsihAgORfvQBBOr6Al38+IJIXwBAz7L5I
        pyJAQOSkPfCHjj68TNM/ANeIPHwW7D9oO2VApPyNv14VSkDsp7Y/GAojP5oVAEBkC9c/YkYpQGC0Lj4A8dM8ALkkvkSEyT8o80Q/AwAAAAEAAAAAAAAAAAAAAAMAAAAA
        AAAAAAAAAAAAAAADAAAAAAAAAAAAAAAAAAAAAwAAAAEAAAABAAAAAQAAAAAAgEAAAAAAAQAAAAAAyMLlfyI+A4AAAEAKAAAAAACoQQAA6EEAABhCAAAgQgAAJEIAACxC
        AABgQgAAkkIAAJRCAAC2QgoAAABhpkk/BwPSTj8QzGk/cvxcP19DVD85DmA/MQiAP6s+sz+rPrM/gQEAAAAAAAAAAAAAAAAAoMAAAKBAAAC2QgAAAAADgAAAUAAAcEIB
        AAAAAAAAAAAAAAAVczjChch9wgEAAAAAAAAAAAAAAAAAoMAAAKBAAAAAAAOAAABgAgAAAAAAqEEAAK5CAgAAAAAAAACBA4AAAGACAAAAAACoQQAArkICAAAAAACAP4GA
        AAAAAAAAANIEAAAAAAAAAAAAAAAAAIAAAAA/AACAPwOAAABQAABwQgEAAAAAAAAAA4AAAGBpAAAAAAAQQQAAgD9pAAAAAAAAwAIAAIC/AABAwAAAQMAEAABAQAAAAEAA
        AMBAAACAPwAAgD8GAADAQAAAQEAAAIBAAAAAwAAAQMAAAIBAAACAQAgAAKBAAADAQAAAgEAAAACAAACAPwAAAMAAAIA/AABAwAAAQMADAABAQAAAgEAAAKBAAACgQAYA
        AEDAAACgQAAAAIAAAABAAABAwAAAoEAAAKBAFQAAQEAAAIBAAAAAQAAAAMAAAIA/AACAQAAAAEAAAKBAAABAQAAAQMAAAACAAACAQAAAQMAAAACAAACAPwAAgL8AAEDA
        AACgQAAAQMAAAADAAAAAgAAAAIAFAACgQAAAQMAAAADAAACAvwAAQMAAAEDAAwAAoEAAAADAAABAwAAAQMAPAACAQAAAgD8AAEDAAACAQAAAAAAAAIBAAACAvwAAAEAA
        AKBAAABAwAAAgL8AAADAAADAQAAAoEAAAEDAAABAwAMAAADAAACAPwAAQMAAAEDAAQAAgL8AAIC/BAAAwEAAAIBAAABAwAAAAAAAAAAABwAAgD8AAEDAAAAAwAAAwEAA
        AEDAAADAQAAAQMAAAEDAgQAAAEADgAAAYAIAAAAAAKhBAACuQgIAAAAAAIA/gQIAAAABAAAAVQAAAEVxdWFsIHRlbXBlcmFtZW50ClRoZSBzdGFuZGFyZCB0dW5pbmcs
        IHdoZXJlIHRoZSBvY3RhdmUgaXMgZGl2aWRlZCBpbiAxMiBlcXVhbCBzdGVwcy4MAAAAAADIQgAASEMAAJZDAADIQwAA+kMAABZEAAAvRAAASEQAAGFEAAB6RACAiUQA
        AJZEAQAAAAAAAAAEAAAAAADcQzwAAABFAAAARgAAAAB/AAAAAAAAAAcAAABEZWZhdWx0AAAAAAAAAAACAAAAA4AAAGBpAAAAAAAQQQAAgD9pAAAAAABIwg4AACzCAAAQ
        wgAA4MEAAMjBAACowQAAkMEAAGDBAABAwQAAIMEAABDBAAAAwQAA4MAAAMDAAACgwAAAoMABAACAwAAAgMCBAABAwIIAAADAgwAAgL+HAAAAAMYAAAAAAAAAAAAAgD8B
        AAAAAQAAAAEAAAAYAAAAA4AAAEgBAAAAAACAPwAAAACamZk/A4AAAGACAAAAAACoQQAArkICAAAAAACAP4EDgAAAYAIAAAAAAKhBAACuQgIAAAAAAIA/gQOAAABQAAB6
        RAEAAAAAAAAAA4AAAFAAAHpEAQAAAAAAgD8AAAAAA4AAAFAAAHBCAQAAAAAAAAAAAIA/A4AAAFAAAHBCAQAAAAAAAAABAAAAAAAAAAAAAADNzMy9zczMPQEAAAAAAAAA
        AAAAAAAAAL8AAAA/AACAPwOAAABAAwAAAAAAqEEAAHBCAADYQgMAAAAAAIA/ggAAAAADgAAAYAIAAAAAAKhBAACuQgIAAAAAAAAAgQAAgD8DgAAAYAIAAAAAAKhBAACu
        QgIAAAAAAIA/gQAA8EEDgAAAQAcAAAAAAKhBAACQQgAAqEIAALRCAADAQgAAyEIAANhCBwAAAAAAAACBAABAQAQAAKBAAADgQAAAAEEAABBBAACAPwOAAABAAwAAAAAA
        qEEAAHBCAADYQgMAAAAAAIA/ggOAAABIAQAAAAAAAAABAAAAA4AAAGACAAAAAAAAAAAAgD8CAAAAAAAAAAEAAIA/A4AAAGACAAAAAAAAAAAAgD8CAAAAAACAP4EDgAAA
        QAQAAAAAAAAADJNJPvZ+Pz8AAIA/BAAAAAAAAACBAACAP4EDgAAAYAIAAAAAAAAAAACAPwIAAAAAAAAAgQAAAADNzEw+AAAAAAAAAAAAAAAAAAAAPwEAAAA9CgdAA4AA
        AGACAAAAAACoQQAArkICAAAAAACAP4EAAIC/AAAAPwOAAABIAQAAAAAAgD8BAAAAAAAAAAEAAAALAAAAQnJvY2VsaWFuZGUGAAAAZm9yZXN0AACAQNQtxUEAAIA/AACA
        QAAAAAD+9ug7AABwwc3MTL4AAAAAMzNTQAAAqkMAAIA/AACAPwEAAAAGAAAAmpmZPwAAgD8DgAAAYGkAAAAAABBBAACAP2kAAAAAAIA/k/W5gj9U3o6UP/W5oj/9h5w/
        WyWUP1mGlD8Nw5c/QZqNP1FOkD8u55o/CFWSP1+YpD/rHJc/A1udPy1DoD9zaKU/riGUP3Yzkj+h9qE/OliTP/q4kj9lNpg/znCXPwN4mz+HoqA/j9mmP1Zlqz+fMpo/
        riGUPyApoj8OQJE/4UCgPzIDoT9ljaI/MzOjPwa7rT9sPqY/eCisP2lvpD8vqJs/4UWjP0spkz9TzKA/riGUP+ofmD+h9qE/tU+rP+5OkD/+8Zo/NdKWP/lfjz8nvZ8/
        +DaZP5WfoD9GX6E/0/anP2g/nj9uo5U/iEaXP3gorD8yj5Q/ccmlP7hAvj8KgLE/QbymP2EytT+gw7Q/N3GmPwNboT9eyao/UriePw1zjj+30Zw/vK6TP67TqD8r+5Y/
        RDSuP25pnT/1uZ4/ptChP1rYjz8tCaQ/wHiePyxIpz9OKKQ/A4AAAGBpAAAAAAAQQQAAgD9pAAAAAACAP+gAAAAAA4AAAGBdAAAAAACoQQAAgD9dAAAAAAAAAIcB7dg8
        VL/Rvr36U/S8PLvBPQwLSbxDdMg88zkXvQLGyb2EtIu9NA2PvbjlozwQujo9MZCsPVbwG7x8Pm+9+lDYvDPQq7xOfss8Qd8svR79LzzEcYU9EaCwvWWV6zupb8Q9VoOw
        vS57mD1A5Gg9sY6evUTWv7zELpA9atyLvbxAyb3+wAu9CRWcvI0uyj3xHUu929jwO8flub0N4J29TlOVvIKi3jxzToe9uIkEPXFtjTxpAhu6NMiTvb62gz1NliQ8d8fI
        vWulZr3vPRa8J36RvfiBVb2qtZW8+jbDvTDBBD2puBY9CWSgvUFduT0U2zM97D+RPUDYbj3116s9z7W0PQGuqr0LhFg9s+yZvatUtbzjgbI9sw6ivLrjo73ULYa9EiUr
        veV+R70o7og9zCSfPdEtCzzxh/o7pqnEPfE+2DwSbIw9wa2rvZjcSD0H7RW9AD2oPAEAAAAAAAAAAQAAAAAAAD8AAABAAwAAAAAAgD8AAIA/AACAPwOAAABgaQAAAAAA
        EEEAAIA/aQAAAAAAgD/oA4AAAEADAAAAAACoQQAAcEIAANhCAwAAAAAAgD+CA4AAAEADAAAAAACoQQAAcEIAANhCAwAAAAAAgD+CAACAPwAAgD8HAAAAAACAP5qZmT7N
        zEw/AADAP5qZmT4IAAAAAAAAAAAAAAAAAAAAAAAAAAAAAAAAAAAAAAAAAAAAAAADgAAAYGkAAAAAABBBAACAP2kAAADfS3Y/aJuaej/fOHw/dJFZP+Awdj8W64E/ewdu
        P3NRhz/NE5M/1SWIP/BikD/UZpQ/G7twP0o+dT8dZ7c/Mh5lPwrncj8k2no/KYtiPxp3SD/XP10/OSuGP/72bD8JM6A/7YSOP4M6dD/msJ0/M4Z4P7gMaT/TjHM/htFk
        PyNESj+gOE8/Nod+P3Agij+DCYw/ZryFP4TcoT/Bb6Q/s0t8P9JXdz/Gh3A/5mNGP2M8aD9H+nw/FOxjP5A5iD9THJA/3JdeP36egz92vY8/GEqXP92Yej95LY4/ZJxM
        P5WDYD/CBIs/Yk2VPyEKdj8po2U/iYFSP3YXgT9mpJE/mxOMP4cljT/ZyJY/S4iZP6hDeT+VLlo/XhWKP6woUD/2vaM/bJqFP4qFfD90MVY/+rSKP7mKQj+1RnI/tXGD
        P2XwPT9QAU4/hzyQP1L9lz9oLpY/KNTDP0HCrz/hAXU/KSqgP5kvmj84qIE/3h+aP8j4dT+sFkU/lIKlPyo5Rj+/xGw/0sl9P3FFVD8Ck1c/68s8P0kFez8bPX8/i2SC
        P7KPVT/vTGo/A4AAAGBpAAAAAAAQQQAAgD9pAAAAiUBJP5igQEk/NfhQST+4zko/sElOP2ceUz9pWlY//WtWP/WnWT89eV4/N7VhP8nGYT/IAmU/C9RpPwYQbT9+IW0/
        zklwPx9ycz+Vg3M/jsl4P9Kkfz9mdYI/LoODPzAmhj90mIk/waeMP2RGjz8g2JM/dJCXP2W9mT+lf50//R6iP9yipz89j68/xXi3P8q5vD+gYcA/2L3FPx94yT8c880/
        bKPRP/8g1D9SCdU/k/HVP1Jl2D+VTdk/2TXaP4ep3D/1h90/vJvdPyp63j/N7eA/LMzhPw/W4T8d1uE/HdbhP5kDgAAAYGkAAAAAABBBAACAP2kAAAAAAIA/m0pHgT8p
        /PSAP0Y8gj/36YE/QTGDP/Hegj89JoQ/7dODPzkbhT/qyIQ/NhCGP4BXhz8wBYc/fEyIPy36hz/JyIg/J++IP7m5iT8j5Ik/biuLP5ubiz88PIw/fX2NP3Bojj9fX48/
        d7CQP0ihkj+1tJQ///mXP48cmj+62J0/AACgP1pAoj9thaQ/9vWlPyQDpz83N6c/JyenP0hEpz8nJ6c/NzenPycnpz8nJ6c/gr1Tpz8B6+CmP+vgpj+dA4AAAGBpAAAA
        AAAQQQAAgD9pAAAAuEuCP2jBsYE/PpKAPwktfj8HGnw/qzR8P4NsfT/VWn4/eFF/P749gD/lrIA/VtyAPyzsgD/t44A/X4aAP9EHgD910H8/OQKAP7gWgD+dYIA/zeSA
        P+lagT/UQYE/VoyAP0w5gD8jzIA/12yBP/m+gT/p4YE/MbKBP8p+gT/xRoE/KdWAP66pgD/1DYE/unqBP4CCgT8FRoE/7tuAP/JFgD+xin8/nw1/P/Pofj/RVn4/qZp9
        PwCwfT8QVn4/3Rh/P3kTgD+hoYA/8eOAP+gJgT+mJYE/Y9eAP/thgD/pnoA/pUyBP60egT8g+H8/CA5+P72DfT8HI30/OCF8P8WFez8IT3w/a/t9P5y6fz9ZiIA/a4aA
        P3kHgD8QjX8/ZMN/P8kQgD/49n8/m+J+P/HffT9JBn4/Qh6APx0/jz8t14A/U/KAP2rdgD+xw4A/ekuAP39fhD+UyoU/gO5+P92+fj/vWn4/7cZ+Pxy+fz9eFoA/ZfB/
        PyJRgD8GIYE/G2mBP2cDgT9KuYA/sNiAP1/TgD+0e4A/LAiAP9EKfz9Lkn4//0J/PwEAAABbAAAAAAAQQQOAAABgDAEAAAAAAAAAAIA/DAEAAAAAIEEGAACgQAAAIECa
        mZk/mpkZP5qZmT4AAAAAAAAAAP8AAAAA/wAAAACEAAAgQQOAAABgAgEAAAAAAAAAAIA/AgEAAAAAIEEGAACgQAAAIECamZk/mpkZP5qZmT4AAAAAAAAAAP8AAAAA+gAA
        MEEDgAAAYPQAAAAAAAAAAACAP/QAAAAAACBBBgAAoEAAACBAmpmZP5qZGT+amZk+AAAAAAAAAAD/AAAAAOwAAEBBA4AAAGDuAAAAAAAAAAAAgD/uAAAAAAAgQQYAAKBA
        AAAgQJqZmT+amRk/mpmZPgAAAAAAAAAA/wAAAADmAABQQQOAAABg6QAAAAAAAAAAAIA/6QAAAAAAIEEGAACgQAAAIECamZk/mpkZP5qZmT4AAAAAAAAAAP8AAAAA4QAA
        YEEDgAAAYNYAAAAAAAAAAACAP9YAAAAAACBBBgAAoEAAACBAmpmZP5qZGT+amZk+AAAAAAAAAAD/AAAAAM4AAHBBA4AAAGDRAAAAAAAAAAAAgD/RAAAAAAAgQQYAAKBA
        AAAgQJqZmT+amRk/mpmZPgAAAAAAAAAA/wAAAADJAACAQQOAAABgzgAAAAAAAAAAAIA/zgAAAAAAIEEGAACgQAAAIECamZk/mpkZP5qZmT4AAAAAAAAAAP8AAAAAxgAA
        iEEDgAAAYMoAAAAAAAAAAACAP8oAAAAAACBBBgAAoEAAACBAmpmZP5qZGT+amZk+AAAAAAAAAAD/AAAAAMIAAJBBA4AAAGDIAAAAAAAAAAAAgD/IAAAAAAAgQQYAAKBA
        AAAgQJqZmT+amRk/mpmZPgAAAAAAAAAA/wAAAADAAACYQQOAAABgxgAAAAAAAAAAAIA/xgAAAAAAIEEGAACgQAAAIECamZk/mpkZP5qZmT4AAAAAAAAAAP8AAAAAvgAA
        oEEDgAAAYMIAAAAAAAAAAACAP8IAAAAAACBBBgAAoEAAACBAmpmZP5qZGT+amZk+AAAAAAAAAAD/AAAAALoAAKhBA4AAAGDgAAAAAAAAAAAAgD/gAAAAAAAgQQYAAKBA
        AAAgQJqZmT+amRk/mpmZPgAAAAAAAAAA/wAAAADYAACwQQOAAABg0gAAAAAAAAAAAIA/0gAAAAAAIEEGAACgQAAAIECamZk/mpkZP5qZmT4AAAAAAAAAAP8AAAAAygAA
        uEEDgAAAYMoAAAAAAAAAAACAP8oAAAAAACBBBgAAoEAAACBAZmYGwJqZGT+amZk+AAAAAAAAAAD/AAAAAMIAAMBBA4AAAGDuAAAAAAAAAAAAgD/uAAAAAAAgQQYAAKBA
        AAAgQJqZmT+amRk/mpmZPgAAAAAAAAAA/wAAAADmAADIQQOAAABg2QAAAAAAAAAAAIA/2QAAAMzMGkEGERGdQAAAAACamZk/3t0dPyIioj4AAAAAAAAAAP8AAAAA0QAA
        0EEDgAAAYMgAAAAAAAAAAACAP8gAAACZmRVBBiIimkCamRlAmpmZPyIiIj+rqqo+AAAAAAAAAAD/AAAAAMAAANhBA4AAAGC8AAAAAAAAAAAAgD+8AAAAZmYQQQYzM5dA
        zMy8v5qZmT9mZiY/NDOzPgAAAAAAAAAA/wAAAAC0AADgQQOAAABg0wAAAAAAAAAAAIA/0wAAADIzC0EGRESUQDMzM8CamZk/q6oqP7y7uz4AAAAAAAAAAP8AAAAAywAA
        6EEDgAAAYN0AAAAAAAAAAACAP90AAAD//wVBBgAAgEAzMxNAmpmZP/DuLj9ERMQ+AAAAAAAAAAD/AAAAANUAAPBBA4AAAGDRAAAAAAAAAAAAgD/RAAAAzMwAQQZmZoZA
        MzNTQJqZmT80MzM/zczMPgAAAAAAAAAA/wAAAADJAAD4QQOAAABgxwAAAAAAAAAAAIA/xwAAADIz90AGeHeLQPmKD0CamZk/eHc3P1ZV1T4AAAAAAAAAAP8AAAAAvwAA
        AEIDgAAAYL8AAAAAAAAAAACAP78AAADMzOxABomIiEDbtg1AmpmZP7y7Oz/e3d0+AAAAAAAAAAD/AAAAALcAAARCA4AAAGDKAAAAAAAAAAAAgD/KAAAAZmbiQAaamYVA
        vuILQJqZmT8AAEA/ZmbmPgAAAAAAAAAA/wAAAADCAAAIQgOAAABg0gAAAAAAAAAAAIA/0gAAAAAA2EAGq6qCQKEOCkCamZk/RUREP+/u7j4AAAAAAAAAAP8AAAAAygAA
        DEIDgAAAYMMAAAAAAAAAAACAP8MAAACZmc1ABnh3f0CDOghAmpmZP4mISD94d/c+AAAAAAAAAAD/AAAAALsAABBCA4AAAGDEAAAAAAAAAAAAgD/EAAAAMzPDQAaamXlA
        ZmYGQJqZmT/NzEw/AAAAPwAAAAAAAAAA/wAAAAC8AAAUQgOAAABgxAAAAAAAAAAAAIA/xAAAAAAA0EAGZmamQGZm9j/NzIw/vLs7P6uq6j4AAAAAAAAAAP8AAAAAvAAA
        GEIDgAAAYMMAAAAAAAAAAACAP8MAAACqqqJABgAAUED//98/AACAP6uqKj9VVdU+AAAAAAAAAAD/AAAAALsAABxCA4AAAGCrAAAAAAAAAAAAgD+rAAAAZmaSQAY0MztA
        mZnJP2dmZj+amRk/AADAPgAAAAAAAAAA/wAAAACjAAAgQgOAAABgqwAAAAAAAAAAAIA/qwAAAGZmxkAGAAAQQTIzsz/NzEw/iIgIP6qqqj4AAAAAAAAAAP8AAAAAowAA
        JEIDgAAAYKgAAAAAAAAAAACAP6gAAAC9u2NABpqZEUDNzJw/NDMzP/Du7j5WVZU+AAAAAAAAAAD/AAAAAKAAAChCA4AAAGCTAAAAAAAAAAAAgD+TAAAAMzNDQAaamfk/
        ZmaGP5qZGT/NzMw+AACAPgAAAAAAAAAA/wAAAACLAAAsQgOAAABgkwAAAAAAAAAAAIA/kwAAAKuqIkAGAQDQPwAAYD8BAAA/q6qqPlZVVT4AAAAAAAAAAP8AAAAAiwAA
        MEIDgAAAYJMAAAAAAAAAAACAP5MAAAAAAGBABjMzE0AyMzM/zczMPoiIiD6qqio+AAAAAAAAAAD/AAAAAIsAADRCA4AAAGCAAAAAAAAAAAAAgD+AAAAAMzPDPwaamXk/
        ZmYGP5qZmT7NzEw+AAAAPgAAAAAAAAAA+AAAOEIDgAAAYIAAAAAAAAAAAACAP4AAAAAjIoI/BmhmJj80M7M+z8xMPoqICD6sqqo9AAAAAAAAAAD4AAA8QgOAAABggAAA
        AAAAAAAAAIA/gAAAACAiAj8GZGamPjAzMz7KzMw9h4iIPaiqKj0AAAAAAAAAAPgAAEBCA4AAAGBsAAAAAAAAAAAAgD9sAAAAAAAAAOsAAERCA4AAAGBsAAAAAAAAAAAA
        gD9sAAAAAAAAAOsAAEhCA4AAAGBsAAAAAAAAAAAAgD9sAAAAAAAAAOsAAExCA4AAAGBmAAAAAAAAAAAAgD9mAAAAAAAAAOUAAFBCA4AAAGBXAAAAAAAAAAAAgD9XAAAA
        AAAAANYAAFRCA4AAAGBXAAAAAAAAAAAAgD9XAAAAAAAAANYAAFhCA4AAAGBWAAAAAAAAAAAAgD9WAAAAAAAAANUAAFxCA4AAAGBJAAAAAAAAAAAAgD9JAAAAAAAAAMgA
        AGBCA4AAAGBJAAAAAAAAAAAAgD9JAAAAAAAAAMgAAGRCA4AAAGBIAAAAAAAAAAAAgD9IAAAAAAAAAMcAAGhCA4AAAGBEAAAAAAAAAAAAgD9EAAAAAAAAAMMAAGxCA4AA
        AGBAAAAAAAAAAAAAgD9AAAAAAAAAAL8AAHBCA4AAAGA5AAAAAAAAAAAAgD85AAAAAAAAALgAAHRCA4AAAGA5AAAAAAAAAAAAgD85AAAAAAAAALgAAHhCA4AAAGA2AAAA
        AAAAAAAAgD82AAAAAAAAALUAAHxCA4AAAGAxAAAAAAAAAAAAgD8xAAAAAAAAALAAAIBCA4AAAGAwAAAAAAAAAAAAgD8wAAAAAAAAAK8AAIJCA4AAAGAtAAAAAAAAAAAA
        gD8tAAAAAAAAAKwAAIRCA4AAAGArAAAAAAAAAAAAgD8rAAAAAAAAAKoAAIZCA4AAAGAnAAAAAAAAAAAAgD8nAAAAAAAAAKYAAIhCA4AAAGAmAAAAAAAAAAAAgD8mAAAA
        AAAAAKUAAIpCA4AAAGAkAAAAAAAAAAAAgD8kAAAAAAAAAKMAAIxCA4AAAGAiAAAAAAAAAAAAgD8iAAAAAAAAAKEAAI5CA4AAAGAgAAAAAAAAAAAAgD8gAAAAAAAAAJ8A
        AJBCA4AAAGAdAAAAAAAAAAAAgD8dAAAAAAAAAJwAAJJCA4AAAGAcAAAAAAAAAAAAgD8cAAAAAAAAAJsAAJRCA4AAAGAbAAAAAAAAAAAAgD8bAAAAAAAAAJoAAJZCA4AA
        AGAZAAAAAAAAAAAAgD8ZAAAAAAAAAJgAAJhCA4AAAGAYAAAAAAAAAAAAgD8YAAAAAAAAAJcAAJpCA4AAAGAWAAAAAAAAAAAAgD8WAAAAAAAAAJUAAJxCA4AAAGAVAAAA
        AAAAAAAAgD8VAAAAAAAAAJQAAJ5CA4AAAGAUAAAAAAAAAAAAgD8UAAAAAAAAAJMAAKBCA4AAAGATAAAAAAAAAAAAgD8TAAAAAAAAAJIAAKJCA4AAAGASAAAAAAAAAAAA
        gD8SAAAAAAAAAIEAAABAAgAAwEAAAAAAAAAAAIwAAKRCA4AAAGARAAAAAAAAAAAAgD8RAAAAZmZmwAIzM7O/AAAAAAAAAACNAACmQgOAAABgEAAAAAAAAAAAAIA/EAAA
        AAAAAACPAACoQgOAAABgDwAAAAAAAAAAAIA/DwAAAAAAAACOAACqQgOAAABgDgAAAAAAAAAAAIA/DgAAAAAAAACNAACsQgOAAABgDQAAAAAAAAAAAIA/DQAAAAAAAACM
        AACuQgOAAABgDAAAAAAAAAAAAIA/DAAAAAAAkMACAAAAwAAAAAAAAAAAiAAAsEIDgAAAYAwAAAAAAAAAAACAPwwAAAAAAAAAiwAAskIDgAAAYAsAAAAAAAAAAACAPwsA
        AAAAAAAAigAAtEIDgAAAYAoAAAAAAAAAAACAPwoAAADNzMy9AQAAAAAAAAAAhwAAtkIDgAAAYAoAAAAAAAAAAACAPwoAAAAAAPDAAQAAAAAAAAAAAmZm5r8AAAAAAAAA
        AIQAALhCA4AAAGAJAAAAAAAAAAAAgD8JAAAAAADgwAEAAAAAAAAAAIYAALpCA4AAAGAJAAAAAAAAAAAAgD8JAAAAMzMrwQIzMzPAAAAAAAAAAACFAAC8QgOAAABgCAAA
        AAAAAAAAAIA/CAAAAM3M3MABAAAAAAAAAACFAAC+QgOAAABgCAAAAAAAAAAAAIA/CAAAAAAAoMABAAAAAAAAAACFAADAQgOAAABgCAAAAAAAAAAAAIA/CAAAADMz88AB
        AAAAAAAAAACFAADIQgOAAABgCAAAAAAAAAAAAIA/CAAAAAAAEMEBAAAAAAAAAACFAADOQgOAAABgCAAAAAAAAAAAAIA/CAAAAAAAQMABAAAAAAAAAACFAADYQgOAAABg
        BAAAAAAAAAAAAIA/BAAAAAAAQMABAAAAAAAAAACB3L3cPQOAAABAFgAAAAAAEEEAAKhBAADAQQAA4EEAAOhBAAAAQgAACEIAABhCAAAkQgAAMEIAAEBCAABMQgAAYEIA
        AHBCAACAQgAAiEIAAJBCAACYQgAAoEIAAKhCAADAQgAA2EIWAAAApiAxPwS05Yw/pFOPPzTXkT9qapE/amqRP4LtgY4/AWpqkT9qapE/BO2Bjj+atos/7YGOP5q2iz+a
        tos/ga/rVz+BW+1FPwLnpik/QYPtPgEAAAAAAAAAAQAAADMzMz9mZqY/AQAAAAEAAAABAAAAZmZmP83MjD8BAAAAAAAAAAEAAAAzMzM/ZmamPwEAAAAAAAAAAQAAADMz
        Mz9mZqY/AQAAAAAAAAABAAAAMzMzP2Zmpj8BAAAAAAAAAAAA8EIAAAAADgAAAAAAAD/NzMw9zcxMPgAAAD8DAAAAAAAAAAOAAABIAQAAAAAAAAAAAAAAA4AAAEgBAAAA
        AAAAAAQAAAACAAAAAwAAAAQAAAABAAAAAQAAAAAAgD8AAIA/AQAAAAEAAAABAAAAAQAAAAEAAAAAAIA/AAAAAAAAgEAAALRCRgAAAAADgAAASAEAAAAAAAAAAAAAAAOA
        AABIAQAAAAAAAAAAAAAAAAAAAAOAAABIAQAAAAAAAAAAAAAAAwAAAAcAAAABAAAAAAAAAA4AAAAQAAAAAAAAAI/CdT0AAIA/AAAAAAAAAL8AAHBCAAAAAAAAAAAAAAAA
        AAAAAAAAAAAAAAAAAAAAAAAAAAAAAAAAAAAAAAMAAAAKAAAAAQAAAAAAAAAOAAAAEAAAAAAAAAAAAMhCAAAAAAAAAD8AAABAAACWQwAAAAAAAAA/AACAPwBAnEUAAABA
        AACAPwAAQEAAAAAAAAAAAAAAAAADAAAACgAAAAEAAAAAAAAADgAAABAAAAAAAAAAAADIQgAAAAAAAIA/AAAAQABAnEUAAABAmpmZPgAAgD8AQBxGAAAAAAAAgD8AAEBA
        AAAAAAAAAAAAAAAAAQAAAAEAAAAAAIA/AABAwQAAAAADAAAAAwAAAAAAAAABAAAABQAAAAQAAAABAAAAAwAAAAAAgD+amdk/AADAPwAArkK/Dg3CAAAAAAUAAAAAAAAA
        AAAwwQAAwMIAAMDCAADAwgUAAAAAAAAAKVwPPQAAAAAAAAAAAAAAAAUAAAAAAAAAAAAAAAAAAAAAAAAAAAAAAAEAAAAAAAAABAAAAAEAAAADAAAAMzOzP5qZmT8AAMA/
        AABsw78ODcIAAAAABQAAAAAAcMEAAAAAAADAwgAAwMIAAMDCBQAAAArXIz367Ws6AAAAAAAAAAAAAAAABQAAAAAAAAAAAAAAAAAAAAAAAAAAAAAAAQAAAAAAAAAEAAAA
        AAAAAAMAAACPwvU/PQpXvx+Faz8AALRCAAAAAAAAAAAFAAAAAABAwQAAQMEAAHDCAABwwgAAcMIFAAAAAAAAAAAAAAAAAAAAAAAAAAAAAAAFAAAAAAAAAAAAAAAAAAAA
        AAAAAAAAAAABAAAAAAAAAAQAAAAAAAAAAwAAADMzM79cj8I+rkdhPwAAAAAAAAAAAAAAAAUAAAAAAEDBAABAwQAAcMIAAHDCAABwwgUAAAAAAAAAAAAAAAAAAAAAAAAA
        AAAAAAUAAAAAAAAAAAAAAAAAAAAAAAAAAAAAAAEAAAAAAAAABAAAAAAAAAADAAAAuB7FPz0KVz+uR+E/AAAAAAAAAAAAAAAABQAAAAAAQMEAAEDBAABwwgAAcMIAAHDC
        BQAAAAAAAAAAAAAAAAAAAAAAAAAAAAAABQAAAAAAAAAAAAAAAAAAAAAAAAAAAAAAAQAAAAAAAAABAAAAAQAAAAEAAAADAAAAMzMzP83MTL4zM7M/AACQQQAAAAAAAAAA
        AAAAAAEAAAAAAAAAAAAAAAAAAABKVUNFUHJpdmF0ZURhdGEAAQFCeXBhc3MAAQEDAB0AAAAAAAAASlVDRVByaXZhdGVEYXRhAAAAAAAAAAA=
        AAAQAAAA
      >
      PRESETNAME "K2 Dreamy (copy)"
      FLOATPOS 32 149 592 662
      FXID {6C67196E-99C4-ED4E-8335-569CBD97CA14}
      WAK 0 0
      BYPASS 0 0 0
      <AU "AU: VCV Rack 2 FX (VCV)" "VCV: VCV Rack 2 FX" "" 1635085670 1447253574 1447253599
        6QMAAAAAAAAQAAAAAQAAAAAAAAACAAAAAAAAAAAAAAAAAAAAAAAAAAAAAAAAAAAAAAAAAAAAAAAAAAAAAAAAAAAAAAAAAAAAAAAAAAAAAAAAAAAAAAAAAAAAAAAAAAAA
        AAAAAAAAAAAAAAAAAAAAAAAAAAAAAAAAAAAAAAAAAAAAAAAAAAAAAAAAAAAQAAAAAQAAAAAAAAACAAAAAAAAAAAAAAAAAAAAAAAAAAAAAAAAAAAAAAAAAAAAAAAAAAAA
        AAAAAAAAAAAAAAAAAAAAAAAAAAAAAAAAAAAAAAAAAAAAAAAAAAAAAAAAAAAAAAAAAAAAAAAAAAAAAAAAAAAAAAAAAAAAAAAAAAAAAAAAAACuCAAAPD94bWwgdmVyc2lv
        bj0iMS4wIiBlbmNvZGluZz0iVVRGLTgiPz4KPCFET0NUWVBFIHBsaXN0IFBVQkxJQyAiLS8vQXBwbGUvL0RURCBQTElTVCAxLjAvL0VOIiAiaHR0cDovL3d3dy5hcHBs
        ZS5jb20vRFREcy9Qcm9wZXJ0eUxpc3QtMS4wLmR0ZCI+CjxwbGlzdCB2ZXJzaW9uPSIxLjAiPgo8ZGljdD4KCTxrZXk+ZGF0YTwva2V5PgoJPGRhdGE+CglLTFV2L1FC
        SXhTY0Fpa0pFRERkUWE5Z0EvMlFWQVFBQUVFV29Ja0lWVitDVGNHZlRmcXBpdHJKclRid3huSVl3eXA4TwoJQzZKTlNVbVo3TG9OUFY1OVBUOFJ4VDFTdXdDdEFMWUFV
        SkVSek16SkJHYjZVdXA1R0RoMXltam01T0hLTTlNUWF6bWEKCU9YblFhcnJNdEVNams0cXFaazRlelpTbnNHYW1JMXVwaVVhYU9kbndzVDJEL3MvaHYzUFEzU05MWFZB
        MG1qdWxDZ29DCgk1ZkdLc2JuN1dnZ1VENG1GQncvRUI0a0ZBV0RSSnBvUmpkaEpVaWdrU1ZPQjJLWUFnRVZncmNWaHJkVmhPYmk0a0ZnZAoJMWxvUWE2ME1heTIyMWhx
        dzFvSllMSUV0R0hBeks5YUNXQUlNQkdCZjA3eFU1YnpldmVqTzhLRTc2R0IwejgweGQxLzgKCVhuVDNwVlJRQXMzTXJMaTdkTXcwdmRNQmhTVElwSnFaT1lMRVJEUFRG
        RElYMEtaR3FOUE16Snc4V0FRelBkRkluWnhtCgl0dFdwWmpNOTczUTZlVGd6N1ZCQTdLMW1VK2p3ZjNHQnJjSG5vSFAycmp3elRTdG9ScHFaR1RLbktUVXpNNlBOZkNa
        NgoJSXdwYm5VcWltV21JT2hiU2RMSUptcG1PYWtZRlNRL29iZm4zbW45YkhGd2lNKzNVWm1abVRqWlFGS29jQzJubTVFR0IKCU9ZbVF3Y2ErdVhkUlJtOU84UWhtNXVT
        eHlOaWtkQm1kbE84Ly8vNzl3bGg4c0VXNXNNZ2lpMHFVRVM2TndlYnViMW5jCglVeHkrcDdocno1aHBwN1o3MFpmbTRDS2JQMU04ZVR6RlZaUGVDVFhZb0JBMElVVHAw
        aVdVN2IxblRYN0hSekRUMWFtUQoJWnJZVmw1cFFMeStaYVkzbTFnYVhtcEJqTlZJbk1EUVdhcHFaT3JaaUE3SlNNelBURkVTamFHbzB6Y3pKUStOYUM2R2EKCW1hWVow
        WFNnUVlLUXdGNVFURkJVeVBiK21VUDNwYlhsTWROTzdZU0NsWHFpRjZvS0dxYzdibVZ2SlVYMUh6Tk5PYW9GCgloc1pDR0FFZHlVUXZOU0VVUGd6My8vL0dYbnp2dlhj
        SW9Zdk5ZVHlQZTRTdU5aZE5QaGdmbE5TWkRrUCt1OGFhUThlaQoJaEF5NnBmVkQzd0xiZ1dhbUp3dlpKcXBSdlpWMEswdEJvY3F4RmJlU2JtVWZkUFlQTnBlT1FiZzRq
        Tms4SjVHdGQwN1YKCW5SYTNrbTVsTjI2TjFGdXBpRnJjU29vcUZWRUxDQWsySmtRbjZIUXJLYUtnVlBVODFhRlJkYUdOYXdIUmFFb1V5c2l3CglGNVNEMHVucDVFRXBh
        RDdNZEVRNTdQUThKOTUra1JFKzE5Z3paNHVNLy80ZmdNNm9JVDFsd05BQUFBQkFDZ0JJc0FJQQoJbVptcURSS2dZQkFRU1pJWVJGRVFCMUFVbzRnQUlJTUFFQUlCQUVE
        QWtBQWNXZ01ZOUNrRTRUWDBKWlp2SGlzRzhCZ2YKCTB4YXF3WHYwcWs1SEd1d2lxZGZtN0Erbk9HbjRESjlWVU5JS1NFVWdTNUFnZFI5VmdDWjc1RlNud200MjJVMEZO
        cm1FCglPS0FvMlJCZGZnbWRwd2hua3RpWjdnWDVpYkwwMDZUODRjbmZpMGRZbTZtQTFXV3RuUXJCM2lzZmtrWUdPZVZKSkVXNQoJeXRNTERVNG5RM0R3dEQ2eEFQWVRC
        VVRtaVNXd25paEExQk1mTE91RUYwcDN3WXdzemxCMUJ3M3lSQUUxWWJqQ0E1bUYKCWQ1aFRnR1JxUm5Ud3V2SUJXMDc0bjZ6VlNvRTBlQmRGWjBNS0ZLVFlrNWNJb0hJ
        M01BRnJQM2dsb25LK2UwWFJWbTVBCglHdXJlM0daZkZxY09Xamo2YWxrRWUyL2xHdVVWZzliQVNqNnQwalBidVFQSGQ2UHVvbjhucHFGMERCcFNtd1RBSXFsVgoJUkdG
        ekdyTndtbStLWkRVUmRULzJSQ25MbHFaU1lURTYyZ0VlMzJVcDlzRlM4S3JtZ1FLdzRqMFY3OXlnbitpTkwwMmYKCXQ4S1hNcXR4WnBQT2dXaGMzNVdsdk50Z1VKQWps
        MnZqTHZWRGw3S09YdXZwc0RzM0VrMGN1NGxpRFFDQXVBN2dBeWpyCglsUUVKSEhOd1A3Sm82QjRZN0k2S2ZRQmJhQnpPMUdzM25aNFdNVGp5ZldVQkZ4NHlXbHlWaElR
        OUJiKzJoNGQ1QTQ4cAoJMlhIZmgvQUgKCTwvZGF0YT4KCTxrZXk+bWFudWZhY3R1cmVyPC9rZXk+Cgk8aW50ZWdlcj4xNDQ3MjUzNTk5PC9pbnRlZ2VyPgoJPGtleT5u
        YW1lPC9rZXk+Cgk8c3RyaW5nPlZDVlJhY2s8L3N0cmluZz4KCTxrZXk+c3VidHlwZTwva2V5PgoJPGludGVnZXI+MTQ0NzI1MzU3NDwvaW50ZWdlcj4KCTxrZXk+dHlw
        ZTwva2V5PgoJPGludGVnZXI+MTYzNTA4NTY3MDwvaW50ZWdlcj4KCTxrZXk+dmVyc2lvbjwva2V5PgoJPGludGVnZXI+MTwvaW50ZWdlcj4KPC9kaWN0Pgo8L3BsaXN0
        PgoEAAAAZHVvAAAAAAAA
      >
      PRESETNAME duo
      FLOATPOS 0 0 0 0
      FXID {B16322B3-AEEB-5747-AC63-1C6F8AC75F9E}
      WAK 0 0
    >
  >
>
